<?xml version="1.0" encoding="UTF-8" standalone="no"?><svg xmlns="http://www.w3.org/2000/svg" xmlns:xlink="http://www.w3.org/1999/xlink" contentStyleType="text/css" height="549px" preserveAspectRatio="none" style="width:1383px;height:549px;background:#FFFFFF;" version="1.1" viewBox="0 0 1383 549" width="1383px" zoomAndPan="magnify"><defs/><g><rect fill="#FFFFFF" height="424.9219" style="stroke:#181818;stroke-width:1.0;" width="10" x="204" y="69.9609"/><rect fill="#FFFFFF" height="394.5703" style="stroke:#181818;stroke-width:1.0;" width="10" x="385" y="100.3125"/><rect fill="#FFFFFF" height="333.8672" style="stroke:#181818;stroke-width:1.0;" width="10" x="578" y="130.6641"/><rect fill="#FFFFFF" height="212.4609" style="stroke:#181818;stroke-width:1.0;" width="10" x="773" y="161.0156"/><rect fill="#FFFFFF" height="30.3516" style="stroke:#181818;stroke-width:1.0;" width="10" x="1019" y="191.3672"/><rect fill="#FFFFFF" height="91.0547" style="stroke:#181818;stroke-width:1.0;" width="10" x="1128.5" y="252.0703"/><rect fill="#FFFFFF" height="30.3516" style="stroke:#181818;stroke-width:1.0;" width="10" x="1287.5" y="282.4219"/><rect fill="#FFFFFF" height="30.3516" style="stroke:#181818;stroke-width:1.0;" width="10" x="1350.5" y="403.8281"/><line style="stroke:#181818;stroke-width:0.5;stroke-dasharray:5.0,5.0;" x1="208.5" x2="208.5" y1="37.6094" y2="512.8828"/><line style="stroke:#181818;stroke-width:0.5;stroke-dasharray:5.0,5.0;" x1="389.5" x2="389.5" y1="37.6094" y2="512.8828"/><line style="stroke:#181818;stroke-width:0.5;stroke-dasharray:5.0,5.0;" x1="582.5" x2="582.5" y1="37.6094" y2="512.8828"/><line style="stroke:#181818;stroke-width:0.5;stroke-dasharray:5.0,5.0;" x1="777.5" x2="777.5" y1="37.6094" y2="512.8828"/><line style="stroke:#181818;stroke-width:0.5;stroke-dasharray:5.0,5.0;" x1="1023.5" x2="1023.5" y1="37.6094" y2="512.8828"/><line style="stroke:#181818;stroke-width:0.5;stroke-dasharray:5.0,5.0;" x1="1133.5" x2="1133.5" y1="37.6094" y2="512.8828"/><line style="stroke:#181818;stroke-width:0.5;stroke-dasharray:5.0,5.0;" x1="1292.5" x2="1292.5" y1="37.6094" y2="512.8828"/><line style="stroke:#181818;stroke-width:0.5;stroke-dasharray:5.0,5.0;" x1="1355.5" x2="1355.5" y1="37.6094" y2="512.8828"/><rect fill="#E2E2F0" height="31.6094" rx="2.5" ry="2.5" style="stroke:#181818;stroke-width:0.5;" width="59" x="179.5" y="5"/><text fill="#000000" font-family="sans-serif" font-size="14" lengthAdjust="spacing" textLength="45" x="186.5" y="26.5332">Routes</text><rect fill="#E2E2F0" height="31.6094" rx="2.5" ry="2.5" style="stroke:#181818;stroke-width:0.5;" width="59" x="179.5" y="511.8828"/><text fill="#000000" font-family="sans-serif" font-size="14" lengthAdjust="spacing" textLength="45" x="186.5" y="533.416">Routes</text><rect fill="#E2E2F0" height="31.6094" rx="2.5" ry="2.5" style="stroke:#181818;stroke-width:0.5;" width="83" x="348.5" y="5"/><text fill="#000000" font-family="sans-serif" font-size="14" lengthAdjust="spacing" textLength="69" x="355.5" y="26.5332">Controllers</text><rect fill="#E2E2F0" height="31.6094" rx="2.5" ry="2.5" style="stroke:#181818;stroke-width:0.5;" width="83" x="348.5" y="511.8828"/><text fill="#000000" font-family="sans-serif" font-size="14" lengthAdjust="spacing" textLength="69" x="355.5" y="533.416">Controllers</text><rect fill="#E2E2F0" height="31.6094" rx="2.5" ry="2.5" style="stroke:#181818;stroke-width:0.5;" width="141" x="512.5" y="5"/><text fill="#000000" font-family="sans-serif" font-size="14" lengthAdjust="spacing" textLength="127" x="519.5" y="26.5332">Application Services</text><rect fill="#E2E2F0" height="31.6094" rx="2.5" ry="2.5" style="stroke:#181818;stroke-width:0.5;" width="141" x="512.5" y="511.8828"/><text fill="#000000" font-family="sans-serif" font-size="14" lengthAdjust="spacing" textLength="127" x="519.5" y="533.416">Application Services</text><rect fill="#E2E2F0" height="31.6094" rx="2.5" ry="2.5" style="stroke:#181818;stroke-width:0.5;" width="93" x="731.5" y="5"/><text fill="#000000" font-family="sans-serif" font-size="14" lengthAdjust="spacing" textLength="79" x="738.5" y="26.5332">Repositories</text><rect fill="#E2E2F0" height="31.6094" rx="2.5" ry="2.5" style="stroke:#181818;stroke-width:0.5;" width="93" x="731.5" y="511.8828"/><text fill="#000000" font-family="sans-serif" font-size="14" lengthAdjust="spacing" textLength="79" x="738.5" y="533.416">Repositories</text><rect fill="#E2E2F0" height="31.6094" rx="2.5" ry="2.5" style="stroke:#181818;stroke-width:0.5;" width="117" x="965.5" y="5"/><text fill="#000000" font-family="sans-serif" font-size="14" lengthAdjust="spacing" textLength="103" x="972.5" y="26.5332">JPARepositories</text><rect fill="#E2E2F0" height="31.6094" rx="2.5" ry="2.5" style="stroke:#181818;stroke-width:0.5;" width="117" x="965.5" y="511.8828"/><text fill="#000000" font-family="sans-serif" font-size="14" lengthAdjust="spacing" textLength="103" x="972.5" y="533.416">JPARepositories</text><rect fill="#E2E2F0" height="31.6094" rx="2.5" ry="2.5" style="stroke:#181818;stroke-width:0.5;" width="82" x="1092.5" y="5"/><text fill="#000000" font-family="sans-serif" font-size="14" lengthAdjust="spacing" textLength="68" x="1099.5" y="26.5332">DataModel</text><rect fill="#E2E2F0" height="31.6094" rx="2.5" ry="2.5" style="stroke:#181818;stroke-width:0.5;" width="82" x="1092.5" y="511.8828"/><text fill="#000000" font-family="sans-serif" font-size="14" lengthAdjust="spacing" textLength="68" x="1099.5" y="533.416">DataModel</text><rect fill="#E2E2F0" height="31.6094" rx="2.5" ry="2.5" style="stroke:#181818;stroke-width:0.5;" width="62" x="1261.5" y="5"/><text fill="#000000" font-family="sans-serif" font-size="14" lengthAdjust="spacing" textLength="48" x="1268.5" y="26.5332">Domain</text><rect fill="#E2E2F0" height="31.6094" rx="2.5" ry="2.5" style="stroke:#181818;stroke-width:0.5;" width="62" x="1261.5" y="511.8828"/><text fill="#000000" font-family="sans-serif" font-size="14" lengthAdjust="spacing" textLength="48" x="1268.5" y="533.416">Domain</text><rect fill="#E2E2F0" height="31.6094" rx="2.5" ry="2.5" style="stroke:#181818;stroke-width:0.5;" width="44" x="1333.5" y="5"/><text fill="#000000" font-family="sans-serif" font-size="14" lengthAdjust="spacing" textLength="30" x="1340.5" y="26.5332">DTO</text><rect fill="#E2E2F0" height="31.6094" rx="2.5" ry="2.5" style="stroke:#181818;stroke-width:0.5;" width="44" x="1333.5" y="511.8828"/><text fill="#000000" font-family="sans-serif" font-size="14" lengthAdjust="spacing" textLength="30" x="1340.5" y="533.416">DTO</text><rect fill="#FFFFFF" height="424.9219" style="stroke:#181818;stroke-width:1.0;" width="10" x="204" y="69.9609"/><rect fill="#FFFFFF" height="394.5703" style="stroke:#181818;stroke-width:1.0;" width="10" x="385" y="100.3125"/><rect fill="#FFFFFF" height="333.8672" style="stroke:#181818;stroke-width:1.0;" width="10" x="578" y="130.6641"/><rect fill="#FFFFFF" height="212.4609" style="stroke:#181818;stroke-width:1.0;" width="10" x="773" y="161.0156"/><rect fill="#FFFFFF" height="30.3516" style="stroke:#181818;stroke-width:1.0;" width="10" x="1019" y="191.3672"/><rect fill="#FFFFFF" height="91.0547" style="stroke:#181818;stroke-width:1.0;" width="10" x="1128.5" y="252.0703"/><rect fill="#FFFFFF" height="30.3516" style="stroke:#181818;stroke-width:1.0;" width="10" x="1287.5" y="282.4219"/><rect fill="#FFFFFF" height="30.3516" style="stroke:#181818;stroke-width:1.0;" width="10" x="1350.5" y="403.8281"/><ellipse cx="7.5" cy="69.2109" fill="none" rx="4" ry="4" style="stroke:#181818;stroke-width:1.5;"/><polygon fill="#181818" points="192,65.9609,202,69.9609,192,73.9609,196,69.9609" style="stroke:#181818;stroke-width:1.0;"/><line style="stroke:#181818;stroke-width:1.0;stroke-dasharray:2.0,2.0;" x1="12" x2="198" y1="69.9609" y2="69.9609"/><text fill="#000000" font-family="sans-serif" font-size="13" font-weight="bold" lengthAdjust="spacing" textLength="7" x="15" y="65.1045">1</text><text fill="#000000" font-family="sans-serif" font-size="13" lengthAdjust="spacing" textLength="166" x="26" y="65.1045">GET/projects/{pid}/resources</text><polygon fill="#181818" points="373,96.3125,383,100.3125,373,104.3125,377,100.3125" style="stroke:#181818;stroke-width:1.0;"/><line style="stroke:#181818;stroke-width:1.0;" x1="214" x2="379" y1="100.3125" y2="100.3125"/><text fill="#000000" font-family="sans-serif" font-size="13" font-weight="bold" lengthAdjust="spacing" textLength="7" x="221" y="95.4561">2</text><text fill="#000000" font-family="sans-serif" font-size="13" lengthAdjust="spacing" textLength="139" x="232" y="95.4561">Get resources in project</text><polygon fill="#181818" points="566,126.6641,576,130.6641,566,134.6641,570,130.6641" style="stroke:#181818;stroke-width:1.0;"/><line style="stroke:#181818;stroke-width:1.0;" x1="395" x2="572" y1="130.6641" y2="130.6641"/><text fill="#000000" font-family="sans-serif" font-size="13" font-weight="bold" lengthAdjust="spacing" textLength="7" x="402" y="125.8076">3</text><text fill="#000000" font-family="sans-serif" font-size="13" lengthAdjust="spacing" textLength="153" x="413" y="125.8076">get all resources in project</text><polygon fill="#181818" points="761,157.0156,771,161.0156,761,165.0156,765,161.0156" style="stroke:#181818;stroke-width:1.0;"/><line style="stroke:#181818;stroke-width:1.0;" x1="588" x2="767" y1="161.0156" y2="161.0156"/><text fill="#000000" font-family="sans-serif" font-size="13" font-weight="bold" lengthAdjust="spacing" textLength="7" x="595" y="156.1592">4</text><text fill="#000000" font-family="sans-serif" font-size="13" lengthAdjust="spacing" textLength="155" x="606" y="156.1592">find all resources in project</text><polygon fill="#181818" points="1007,187.3672,1017,191.3672,1007,195.3672,1011,191.3672" style="stroke:#181818;stroke-width:1.0;"/><line style="stroke:#181818;stroke-width:1.0;" x1="783" x2="1013" y1="191.3672" y2="191.3672"/><text fill="#000000" font-family="sans-serif" font-size="13" font-weight="bold" lengthAdjust="spacing" textLength="7" x="790" y="186.5107">5</text><text fill="#000000" font-family="sans-serif" font-size="13" lengthAdjust="spacing" textLength="206" x="801" y="186.5107">find all resources in JPA Repository</text><polygon fill="#181818" points="794,217.7188,784,221.7188,794,225.7188,790,221.7188" style="stroke:#181818;stroke-width:1.0;"/><line style="stroke:#181818;stroke-width:1.0;stroke-dasharray:2.0,2.0;" x1="788" x2="1023" y1="221.7188" y2="221.7188"/><text fill="#000000" font-family="sans-serif" font-size="13" font-weight="bold" lengthAdjust="spacing" textLength="7" x="800" y="216.8623">6</text><text fill="#000000" font-family="sans-serif" font-size="13" lengthAdjust="spacing" textLength="165" x="811" y="216.8623">resources in JPA Repository</text><polygon fill="#181818" points="1116.5,248.0703,1126.5,252.0703,1116.5,256.0703,1120.5,252.0703" style="stroke:#181818;stroke-width:1.0;"/><line style="stroke:#181818;stroke-width:1.0;" x1="783" x2="1122.5" y1="252.0703" y2="252.0703"/><text fill="#000000" font-family="sans-serif" font-size="13" font-weight="bold" lengthAdjust="spacing" textLength="7" x="790" y="247.2139">7</text><text fill="#000000" font-family="sans-serif" font-size="13" lengthAdjust="spacing" textLength="120" x="801" y="247.2139">resources to Domain</text><polygon fill="#181818" points="1275.5,278.4219,1285.5,282.4219,1275.5,286.4219,1279.5,282.4219" style="stroke:#181818;stroke-width:1.0;"/><line style="stroke:#181818;stroke-width:1.0;" x1="1138.5" x2="1281.5" y1="282.4219" y2="282.4219"/><text fill="#000000" font-family="sans-serif" font-size="13" font-weight="bold" lengthAdjust="spacing" textLength="7" x="1145.5" y="277.5654">8</text><text fill="#000000" font-family="sans-serif" font-size="13" lengthAdjust="spacing" textLength="97" x="1156.5" y="277.5654">create resources</text><polygon fill="#181818" points="1149.5,308.7734,1139.5,312.7734,1149.5,316.7734,1145.5,312.7734" style="stroke:#181818;stroke-width:1.0;"/><line style="stroke:#181818;stroke-width:1.0;stroke-dasharray:2.0,2.0;" x1="1143.5" x2="1291.5" y1="312.7734" y2="312.7734"/><text fill="#000000" font-family="sans-serif" font-size="13" font-weight="bold" lengthAdjust="spacing" textLength="7" x="1155.5" y="307.917">9</text><text fill="#000000" font-family="sans-serif" font-size="13" lengthAdjust="spacing" textLength="114" x="1166.5" y="307.917">resources in project</text><polygon fill="#181818" points="794,339.125,784,343.125,794,347.125,790,343.125" style="stroke:#181818;stroke-width:1.0;"/><line style="stroke:#181818;stroke-width:1.0;stroke-dasharray:2.0,2.0;" x1="788" x2="1132.5" y1="343.125" y2="343.125"/><text fill="#000000" font-family="sans-serif" font-size="13" font-weight="bold" lengthAdjust="spacing" textLength="14" x="800" y="338.2686">10</text><text fill="#000000" font-family="sans-serif" font-size="13" lengthAdjust="spacing" textLength="57" x="818" y="338.2686">resources</text><polygon fill="#181818" points="599,369.4766,589,373.4766,599,377.4766,595,373.4766" style="stroke:#181818;stroke-width:1.0;"/><line style="stroke:#181818;stroke-width:1.0;stroke-dasharray:2.0,2.0;" x1="593" x2="777" y1="373.4766" y2="373.4766"/><text fill="#000000" font-family="sans-serif" font-size="13" font-weight="bold" lengthAdjust="spacing" textLength="14" x="605" y="368.6201">11</text><text fill="#000000" font-family="sans-serif" font-size="13" lengthAdjust="spacing" textLength="57" x="623" y="368.6201">resources</text><polygon fill="#181818" points="1338.5,399.8281,1348.5,403.8281,1338.5,407.8281,1342.5,403.8281" style="stroke:#181818;stroke-width:1.0;"/><line style="stroke:#181818;stroke-width:1.0;" x1="588" x2="1344.5" y1="403.8281" y2="403.8281"/><text fill="#000000" font-family="sans-serif" font-size="13" font-weight="bold" lengthAdjust="spacing" textLength="14" x="595" y="398.9717">12</text><text fill="#000000" font-family="sans-serif" font-size="13" lengthAdjust="spacing" textLength="102" x="613" y="398.9717">resources to DTO</text><polygon fill="#181818" points="599,430.1797,589,434.1797,599,438.1797,595,434.1797" style="stroke:#181818;stroke-width:1.0;"/><line style="stroke:#181818;stroke-width:1.0;stroke-dasharray:2.0,2.0;" x1="593" x2="1354.5" y1="434.1797" y2="434.1797"/><text fill="#000000" font-family="sans-serif" font-size="13" font-weight="bold" lengthAdjust="spacing" textLength="14" x="605" y="429.3232">13</text><text fill="#000000" font-family="sans-serif" font-size="13" lengthAdjust="spacing" textLength="129" x="623" y="429.3232">list of resources DTOs</text><polygon fill="#181818" points="406,460.5313,396,464.5313,406,468.5313,402,464.5313" style="stroke:#181818;stroke-width:1.0;"/><line style="stroke:#181818;stroke-width:1.0;stroke-dasharray:2.0,2.0;" x1="400" x2="582" y1="464.5313" y2="464.5313"/><text fill="#000000" font-family="sans-serif" font-size="13" font-weight="bold" lengthAdjust="spacing" textLength="14" x="412" y="459.6748">14</text><text fill="#000000" font-family="sans-serif" font-size="13" lengthAdjust="spacing" textLength="129" x="430" y="459.6748">list of resources DTOs</text><polygon fill="#181818" points="220,490.8828,210,494.8828,220,498.8828,216,494.8828" style="stroke:#181818;stroke-width:1.0;"/><line style="stroke:#181818;stroke-width:1.0;stroke-dasharray:2.0,2.0;" x1="214" x2="389" y1="494.8828" y2="494.8828"/><text fill="#000000" font-family="sans-serif" font-size="13" font-weight="bold" lengthAdjust="spacing" textLength="14" x="226" y="490.0264">15</text><text fill="#000000" font-family="sans-serif" font-size="13" lengthAdjust="spacing" textLength="129" x="244" y="490.0264">list of resources DTOs</text><!--MD5=[2cc7d32f4dcd8c68ca57cc4b2351ba2d]
@startuml
'https://plantuml.com/sequence-diagram
participant Routes as route
participant "Controllers" as Controller
participant "Application Services" as Application
participant "Repositories" as ResRepo
participant "JPARepositories" as JPARepo
participant "DataModel" as dataModel
participant "Domain" as Domain
participant "DTO" as DTO

autonumber

[o- -> route : GET/projects/{pid}/resources
activate route
route -> Controller :Get resources in project
activate Controller
Controller -> Application : get all resources in project
activate Application
Application-> ResRepo : find all resources in project
activate ResRepo
ResRepo -> JPARepo : find all resources in JPA Repository
activate JPARepo

JPARepo - -> ResRepo : resources in JPA Repository
deactivate JPARepo


ResRepo -> dataModel : resources to Domain
activate dataModel
dataModel -> Domain : create resources
activate Domain
Domain - -> dataModel : resources in project
deactivate Domain
dataModel - -> ResRepo : resources
deactivate dataModel
ResRepo - -> Application :  resources
deactivate ResRepo
Application -> DTO : resources to DTO
activate DTO
DTO - -> Application : list of resources DTOs
deactivate DTO
Application - -> Controller :  list of resources DTOs
deactivate Application
Controller - -> route : list of resources DTOs

deactivate Controller
deactivate route


@enduml

@startuml
participant Routes as route
participant "Controllers" as Controller
participant "Application Services" as Application
participant "Repositories" as ResRepo
participant "JPARepositories" as JPARepo
participant "DataModel" as dataModel
participant "Domain" as Domain
participant "DTO" as DTO

autonumber

[o- -> route : GET/projects/{pid}/resources
activate route
route -> Controller :Get resources in project
activate Controller
Controller -> Application : get all resources in project
activate Application
Application-> ResRepo : find all resources in project
activate ResRepo
ResRepo -> JPARepo : find all resources in JPA Repository
activate JPARepo

JPARepo - -> ResRepo : resources in JPA Repository
deactivate JPARepo


ResRepo -> dataModel : resources to Domain
activate dataModel
dataModel -> Domain : create resources
activate Domain
Domain - -> dataModel : resources in project
deactivate Domain
dataModel - -> ResRepo : resources
deactivate dataModel
ResRepo - -> Application :  resources
deactivate ResRepo
Application -> DTO : resources to DTO
activate DTO
DTO - -> Application : list of resources DTOs
deactivate DTO
Application - -> Controller :  list of resources DTOs
deactivate Application
Controller - -> route : list of resources DTOs

deactivate Controller
deactivate route


@enduml

PlantUML version 1.2022.5(Sat Apr 30 11:55:52 BST 2022)
(GPL source distribution)
Java Runtime: OpenJDK Runtime Environment
JVM: OpenJDK 64-Bit Server VM
Default Encoding: Cp1252
Language: pt
Country: PT
--></g></svg>