<?xml version="1.0" encoding="UTF-8" standalone="no"?><svg xmlns="http://www.w3.org/2000/svg" xmlns:xlink="http://www.w3.org/1999/xlink" contentStyleType="text/css" height="427px" preserveAspectRatio="none" style="width:579px;height:427px;background:#FFFFFF;" version="1.1" viewBox="0 0 579 427" width="579px" zoomAndPan="magnify"><defs/><g><rect fill="#FFFFFF" height="221.4609" style="stroke:#181818;stroke-width:1.0;" width="10" x="28" y="114.9609"/><rect fill="#FFFFFF" height="30.3516" style="stroke:#181818;stroke-width:1.0;" width="10" x="216" y="114.9609"/><rect fill="#FFFFFF" height="160.7578" style="stroke:#181818;stroke-width:1.0;" width="10" x="216" y="175.6641"/><rect fill="#FFFFFF" height="91.0547" style="stroke:#181818;stroke-width:1.0;" width="10" x="379" y="206.0156"/><rect fill="#FFFFFF" height="30.3516" style="stroke:#181818;stroke-width:1.0;" width="10" x="542" y="236.3672"/><line style="stroke:#181818;stroke-width:0.5;stroke-dasharray:5.0,5.0;" x1="33" x2="33" y1="82.6094" y2="345.4219"/><line style="stroke:#181818;stroke-width:0.5;stroke-dasharray:5.0,5.0;" x1="221" x2="221" y1="82.6094" y2="345.4219"/><line style="stroke:#181818;stroke-width:0.5;stroke-dasharray:5.0,5.0;" x1="383.5" x2="383.5" y1="82.6094" y2="345.4219"/><line style="stroke:#181818;stroke-width:0.5;stroke-dasharray:5.0,5.0;" x1="546.5" x2="546.5" y1="82.6094" y2="345.4219"/><text fill="#000000" font-family="sans-serif" font-size="14" lengthAdjust="spacing" textLength="50" x="5" y="79.5332">Director</text><ellipse cx="33" cy="13.5" fill="#E2E2F0" rx="8" ry="8" style="stroke:#181818;stroke-width:0.5;"/><path d="M33,21.5 L33,48.5 M20,29.5 L46,29.5 M33,48.5 L20,63.5 M33,48.5 L46,63.5 " fill="none" style="stroke:#181818;stroke-width:0.5;"/><text fill="#000000" font-family="sans-serif" font-size="14" lengthAdjust="spacing" textLength="50" x="5" y="358.9551">Director</text><ellipse cx="33" cy="370.5313" fill="#E2E2F0" rx="8" ry="8" style="stroke:#181818;stroke-width:0.5;"/><path d="M33,378.5313 L33,405.5313 M20,386.5313 L46,386.5313 M33,405.5313 L20,420.5313 M33,405.5313 L46,420.5313 " fill="none" style="stroke:#181818;stroke-width:0.5;"/><rect fill="#E2E2F0" height="31.6094" rx="2.5" ry="2.5" style="stroke:#181818;stroke-width:0.5;" width="72" x="185" y="50"/><text fill="#000000" font-family="sans-serif" font-size="14" lengthAdjust="spacing" textLength="58" x="192" y="71.5332">Frontend</text><rect fill="#E2E2F0" height="31.6094" rx="2.5" ry="2.5" style="stroke:#181818;stroke-width:0.5;" width="72" x="185" y="344.4219"/><text fill="#000000" font-family="sans-serif" font-size="14" lengthAdjust="spacing" textLength="58" x="192" y="365.9551">Frontend</text><rect fill="#E2E2F0" height="31.6094" rx="2.5" ry="2.5" style="stroke:#181818;stroke-width:0.5;" width="69" x="349.5" y="50"/><text fill="#000000" font-family="sans-serif" font-size="14" lengthAdjust="spacing" textLength="55" x="356.5" y="71.5332">Backend</text><rect fill="#E2E2F0" height="31.6094" rx="2.5" ry="2.5" style="stroke:#181818;stroke-width:0.5;" width="69" x="349.5" y="344.4219"/><text fill="#000000" font-family="sans-serif" font-size="14" lengthAdjust="spacing" textLength="55" x="356.5" y="365.9551">Backend</text><rect fill="#E2E2F0" height="31.6094" rx="2.5" ry="2.5" style="stroke:#181818;stroke-width:0.5;" width="53" x="520.5" y="50"/><text fill="#000000" font-family="sans-serif" font-size="14" lengthAdjust="spacing" textLength="39" x="527.5" y="71.5332">SGBD</text><rect fill="#E2E2F0" height="31.6094" rx="2.5" ry="2.5" style="stroke:#181818;stroke-width:0.5;" width="53" x="520.5" y="344.4219"/><text fill="#000000" font-family="sans-serif" font-size="14" lengthAdjust="spacing" textLength="39" x="527.5" y="365.9551">SGBD</text><rect fill="#FFFFFF" height="221.4609" style="stroke:#181818;stroke-width:1.0;" width="10" x="28" y="114.9609"/><rect fill="#FFFFFF" height="30.3516" style="stroke:#181818;stroke-width:1.0;" width="10" x="216" y="114.9609"/><rect fill="#FFFFFF" height="160.7578" style="stroke:#181818;stroke-width:1.0;" width="10" x="216" y="175.6641"/><rect fill="#FFFFFF" height="91.0547" style="stroke:#181818;stroke-width:1.0;" width="10" x="379" y="206.0156"/><rect fill="#FFFFFF" height="30.3516" style="stroke:#181818;stroke-width:1.0;" width="10" x="542" y="236.3672"/><polygon fill="#181818" points="204,110.9609,214,114.9609,204,118.9609,208,114.9609" style="stroke:#181818;stroke-width:1.0;"/><line style="stroke:#181818;stroke-width:1.0;" x1="38" x2="210" y1="114.9609" y2="114.9609"/><text fill="#000000" font-family="sans-serif" font-size="13" font-weight="bold" lengthAdjust="spacing" textLength="7" x="45" y="110.1045">1</text><text fill="#000000" font-family="sans-serif" font-size="13" lengthAdjust="spacing" textLength="106" x="56" y="110.1045">asks all resources</text><polygon fill="#181818" points="49,141.3125,39,145.3125,49,149.3125,45,145.3125" style="stroke:#181818;stroke-width:1.0;"/><line style="stroke:#181818;stroke-width:1.0;stroke-dasharray:2.0,2.0;" x1="43" x2="220" y1="145.3125" y2="145.3125"/><text fill="#000000" font-family="sans-serif" font-size="13" font-weight="bold" lengthAdjust="spacing" textLength="7" x="55" y="140.4561">2</text><text fill="#000000" font-family="sans-serif" font-size="13" lengthAdjust="spacing" textLength="109" x="66" y="140.4561">requests project ID</text><polygon fill="#181818" points="204,171.6641,214,175.6641,204,179.6641,208,175.6641" style="stroke:#181818;stroke-width:1.0;"/><line style="stroke:#181818;stroke-width:1.0;" x1="38" x2="210" y1="175.6641" y2="175.6641"/><text fill="#000000" font-family="sans-serif" font-size="13" font-weight="bold" lengthAdjust="spacing" textLength="7" x="45" y="170.8076">3</text><text fill="#000000" font-family="sans-serif" font-size="13" lengthAdjust="spacing" textLength="94" x="56" y="170.8076">inputs project ID</text><polygon fill="#181818" points="367,202.0156,377,206.0156,367,210.0156,371,206.0156" style="stroke:#181818;stroke-width:1.0;"/><line style="stroke:#181818;stroke-width:1.0;" x1="226" x2="373" y1="206.0156" y2="206.0156"/><text fill="#000000" font-family="sans-serif" font-size="13" font-weight="bold" lengthAdjust="spacing" textLength="7" x="233" y="201.1592">4</text><text fill="#000000" font-family="sans-serif" font-size="13" lengthAdjust="spacing" textLength="96" x="244" y="201.1592">get all resources</text><polygon fill="#181818" points="530,232.3672,540,236.3672,530,240.3672,534,236.3672" style="stroke:#181818;stroke-width:1.0;"/><line style="stroke:#181818;stroke-width:1.0;" x1="389" x2="536" y1="236.3672" y2="236.3672"/><text fill="#000000" font-family="sans-serif" font-size="13" font-weight="bold" lengthAdjust="spacing" textLength="7" x="396" y="231.5107">5</text><text fill="#000000" font-family="sans-serif" font-size="13" lengthAdjust="spacing" textLength="96" x="407" y="231.5107">get all resources</text><polygon fill="#181818" points="400,262.7188,390,266.7188,400,270.7188,396,266.7188" style="stroke:#181818;stroke-width:1.0;"/><line style="stroke:#181818;stroke-width:1.0;stroke-dasharray:2.0,2.0;" x1="394" x2="546" y1="266.7188" y2="266.7188"/><text fill="#000000" font-family="sans-serif" font-size="13" font-weight="bold" lengthAdjust="spacing" textLength="7" x="406" y="261.8623">6</text><text fill="#000000" font-family="sans-serif" font-size="13" lengthAdjust="spacing" textLength="118" x="417" y="261.8623">returns all resources</text><polygon fill="#181818" points="237,293.0703,227,297.0703,237,301.0703,233,297.0703" style="stroke:#181818;stroke-width:1.0;"/><line style="stroke:#181818;stroke-width:1.0;stroke-dasharray:2.0,2.0;" x1="231" x2="383" y1="297.0703" y2="297.0703"/><text fill="#000000" font-family="sans-serif" font-size="13" font-weight="bold" lengthAdjust="spacing" textLength="7" x="243" y="292.2139">7</text><text fill="#000000" font-family="sans-serif" font-size="13" lengthAdjust="spacing" textLength="118" x="254" y="292.2139">returns all resources</text><polygon fill="#181818" points="49,323.4219,39,327.4219,49,331.4219,45,327.4219" style="stroke:#181818;stroke-width:1.0;"/><line style="stroke:#181818;stroke-width:1.0;stroke-dasharray:2.0,2.0;" x1="43" x2="215" y1="327.4219" y2="327.4219"/><text fill="#000000" font-family="sans-serif" font-size="13" font-weight="bold" lengthAdjust="spacing" textLength="7" x="55" y="322.5654">8</text><text fill="#000000" font-family="sans-serif" font-size="13" lengthAdjust="spacing" textLength="143" x="66" y="322.5654">receives list of resources</text><!--MD5=[9b3dc4059ff8b034c17651b0d7bceaf6]
@startuml
'https://plantuml.com/sequence-diagram

autonumber

actor Director as dir
participant Frontend
participant Backend
participant SGBD

dir -> Frontend : asks all resources
activate dir
activate Frontend

Frontend - -> dir : requests project ID
deactivate Frontend
dir -> Frontend : inputs project ID
activate Frontend
Frontend -> Backend : get all resources
activate Backend
Backend -> SGBD : get all resources
activate SGBD
SGBD - -> Backend : returns all resources
deactivate SGBD
Backend - -> Frontend : returns all resources
deactivate Backend

Frontend - -> dir : receives list of resources
@enduml

@startuml

autonumber

actor Director as dir
participant Frontend
participant Backend
participant SGBD

dir -> Frontend : asks all resources
activate dir
activate Frontend

Frontend - -> dir : requests project ID
deactivate Frontend
dir -> Frontend : inputs project ID
activate Frontend
Frontend -> Backend : get all resources
activate Backend
Backend -> SGBD : get all resources
activate SGBD
SGBD - -> Backend : returns all resources
deactivate SGBD
Backend - -> Frontend : returns all resources
deactivate Backend

Frontend - -> dir : receives list of resources
@enduml

PlantUML version 1.2022.5(Sat Apr 30 11:55:52 BST 2022)
(GPL source distribution)
Java Runtime: OpenJDK Runtime Environment
JVM: OpenJDK 64-Bit Server VM
Default Encoding: Cp1252
Language: pt
Country: PT
--></g></svg>