<?xml version="1.0" encoding="UTF-8" standalone="no"?><svg xmlns="http://www.w3.org/2000/svg" xmlns:xlink="http://www.w3.org/1999/xlink" contentScriptType="application/ecmascript" contentStyleType="text/css" height="398.7px" preserveAspectRatio="none" style="width:309px;height:398px;background:#FFFFFF;" version="1.1" viewBox="0 0 309 398" width="309.9px" zoomAndPan="magnify"><defs><filter height="300%" id="f14bo1x4m7sdh8" width="300%" x="-1" y="-1"><feGaussianBlur result="blurOut" stdDeviation="0.6"/><feColorMatrix in="blurOut" result="blurOut2" type="matrix" values="0 0 0 0 0 0 0 0 0 0 0 0 0 0 0 0 0 0 .4 0"/><feOffset dx="1.2" dy="1.2" in="blurOut2" result="blurOut3"/><feBlend in="SourceGraphic" in2="blurOut3" mode="normal"/></filter></defs><g><!--MD5=[a8621f786b421b40515673e2d966a1c3]
cluster Sprint--><polygon fill="#FFFFFF" filter="url(#f14bo1x4m7sdh8)" points="197.3953,71.4,211.7953,71.4,213.8953,78.4828,246.5953,78.4828,246.5953,217.8,197.3953,217.8,197.3953,71.4" style="stroke:#000000;stroke-width:0.44999999999999996;"/><line style="stroke:#000000;stroke-width:0.44999999999999996;" x1="197.3953" x2="213.8953" y1="78.4828" y2="78.4828"/><text fill="#000000" font-family="sans-serif" font-size="4.2" font-weight="bold" lengthAdjust="spacing" textLength="12.6" x="198.5953" y="76.36">Sprint</text><!--MD5=[0f05b381ce972810648735ab0813e8dd]
cluster Project--><polygon fill="#FFFFFF" filter="url(#f14bo1x4m7sdh8)" points="161.9953,255,178.7953,255,180.8953,262.0828,210.5953,262.0828,210.5953,322.2,161.9953,322.2,161.9953,255" style="stroke:#000000;stroke-width:0.44999999999999996;"/><line style="stroke:#000000;stroke-width:0.44999999999999996;" x1="161.9953" x2="180.8953" y1="262.0828" y2="262.0828"/><text fill="#000000" font-family="sans-serif" font-size="4.2" font-weight="bold" lengthAdjust="spacing" textLength="15" x="163.1953" y="259.96">Project</text><!--MD5=[70ce3a0b7249b89e7183e518c52a7191]
cluster UserStory--><polygon fill="#FFFFFF" filter="url(#f14bo1x4m7sdh8)" points="253.7953,185.4,276.2953,185.4,278.3953,192.4828,302.3953,192.4828,302.3953,287.4,253.7953,287.4,253.7953,185.4" style="stroke:#000000;stroke-width:0.44999999999999996;"/><line style="stroke:#000000;stroke-width:0.44999999999999996;" x1="253.7953" x2="278.3953" y1="192.4828" y2="192.4828"/><text fill="#000000" font-family="sans-serif" font-size="4.2" font-weight="bold" lengthAdjust="spacing" textLength="20.7" x="254.9953" y="190.36">UserStory</text><!--MD5=[76f40221ba2aca1f0f17c0f8cba6fb70]
cluster BusinessSector--><polygon fill="#FFFFFF" filter="url(#f14bo1x4m7sdh8)" points="105.5953,329.4,140.6953,329.4,142.7953,336.4828,154.7953,336.4828,154.7953,396.6,105.5953,396.6,105.5953,329.4" style="stroke:#000000;stroke-width:0.44999999999999996;"/><line style="stroke:#000000;stroke-width:0.44999999999999996;" x1="105.5953" x2="142.7953" y1="336.4828" y2="336.4828"/><text fill="#000000" font-family="sans-serif" font-size="4.2" font-weight="bold" lengthAdjust="spacing" textLength="33.3" x="106.7953" y="334.36">BusinessSector</text><!--MD5=[78b4508f7b143f60f3aed350524f706d]
cluster ProjectTypology--><polygon fill="#FFFFFF" filter="url(#f14bo1x4m7sdh8)" points="161.9953,329.4,197.3953,329.4,199.4953,336.4828,210.5953,336.4828,210.5953,396.6,161.9953,396.6,161.9953,329.4" style="stroke:#000000;stroke-width:0.44999999999999996;"/><line style="stroke:#000000;stroke-width:0.44999999999999996;" x1="161.9953" x2="199.4953" y1="336.4828" y2="336.4828"/><text fill="#000000" font-family="sans-serif" font-size="4.2" font-weight="bold" lengthAdjust="spacing" textLength="33.6" x="163.1953" y="334.36">ProjectTypology</text><!--MD5=[a81f7aca4c07b9194780aa67bf6d0525]
cluster Customer--><polygon fill="#FFFFFF" filter="url(#f14bo1x4m7sdh8)" points="217.7953,329.4,239.9953,329.4,242.0953,336.4828,266.3953,336.4828,266.3953,396.6,217.7953,396.6,217.7953,329.4" style="stroke:#000000;stroke-width:0.44999999999999996;"/><line style="stroke:#000000;stroke-width:0.44999999999999996;" x1="217.7953" x2="242.0953" y1="336.4828" y2="336.4828"/><text fill="#000000" font-family="sans-serif" font-size="4.2" font-weight="bold" lengthAdjust="spacing" textLength="20.4" x="218.9953" y="334.36">Customer</text><!--MD5=[39e750ed8fd817ac372d7da55c795c85]
cluster Resource--><polygon fill="#FFFFFF" filter="url(#f14bo1x4m7sdh8)" points="109.4953,111,131.6953,111,133.7953,118.0828,158.0953,118.0828,158.0953,217.8,109.4953,217.8,109.4953,111" style="stroke:#000000;stroke-width:0.44999999999999996;"/><line style="stroke:#000000;stroke-width:0.44999999999999996;" x1="109.4953" x2="133.7953" y1="118.0828" y2="118.0828"/><text fill="#000000" font-family="sans-serif" font-size="4.2" font-weight="bold" lengthAdjust="spacing" textLength="20.4" x="110.6953" y="115.96">Resource</text><!--MD5=[996a0e22aa5fcad0a8b55c37b2fd323d]
cluster Task--><polygon fill="#FFFFFF" filter="url(#f14bo1x4m7sdh8)" points="141.5953,1.8,152.9953,1.8,155.0953,8.8828,190.1953,8.8828,190.1953,103.8,141.5953,103.8,141.5953,1.8" style="stroke:#000000;stroke-width:0.44999999999999996;"/><line style="stroke:#000000;stroke-width:0.44999999999999996;" x1="141.5953" x2="155.0953" y1="8.8828" y2="8.8828"/><text fill="#000000" font-family="sans-serif" font-size="4.2" font-weight="bold" lengthAdjust="spacing" textLength="9.6" x="142.7953" y="6.76">Task</text><!--MD5=[1b0f1d4bc34feaedb5789fed429cabc9]
cluster Account--><polygon fill="#FFFFFF" filter="url(#f14bo1x4m7sdh8)" points="9.5953,185.4,28.4953,185.4,30.5953,192.4828,102.2953,192.4828,102.2953,322.2,9.5953,322.2,9.5953,185.4" style="stroke:#000000;stroke-width:0.44999999999999996;"/><line style="stroke:#000000;stroke-width:0.44999999999999996;" x1="9.5953" x2="30.5953" y1="192.4828" y2="192.4828"/><text fill="#000000" font-family="sans-serif" font-size="4.2" font-weight="bold" lengthAdjust="spacing" textLength="17.1" x="10.7953" y="190.36">Account</text><!--MD5=[fe08d72b7e54a4e0603d5a17d2080bee]
cluster Profile--><polygon fill="#FFFFFF" filter="url(#f14bo1x4m7sdh8)" points="53.6953,71.4,69.2953,71.4,71.3953,78.4828,102.2953,78.4828,102.2953,178.2,53.6953,178.2,53.6953,71.4" style="stroke:#000000;stroke-width:0.44999999999999996;"/><line style="stroke:#000000;stroke-width:0.44999999999999996;" x1="53.6953" x2="71.3953" y1="78.4828" y2="78.4828"/><text fill="#000000" font-family="sans-serif" font-size="4.2" font-weight="bold" lengthAdjust="spacing" textLength="13.8" x="54.8953" y="76.36">Profile</text><!--MD5=[452a66c2e8d45f5bd209be454bbcd04f]
class Sprint--><rect codeLine="4" fill="#FEFECE" filter="url(#f14bo1x4m7sdh8)" height="16.8563" id="Sprint" style="stroke:#A80036;stroke-width:0.44999999999999996;" width="38.4" x="202.4953" y="121.8"/><ellipse cx="206.9953" cy="127.8281" fill="#ADD1B2" rx="3.3" ry="3.3" style="stroke:#A80036;stroke-width:0.3;"/><path d="M207.5953,126.7781 Q207.6563,126.6281 207.7266,126.5531 Q207.7969,126.4781 207.8766,126.4781 Q208.0172,126.4781 208.1063,126.5625 Q208.1953,126.6469 208.1953,126.8438 L208.1953,127.3125 Q208.1953,127.5094 208.1109,127.5938 Q208.0266,127.6781 207.8953,127.6781 Q207.7781,127.6781 207.7031,127.6266 Q207.6281,127.575 207.5953,127.4391 Q207.5812,127.3453 207.5297,127.2937 Q207.4359,127.1953 207.2672,127.1391 Q207.0984,127.0781 206.9297,127.0781 Q206.7188,127.0781 206.5406,127.1625 Q206.3672,127.2469 206.2313,127.4344 Q206.0953,127.6219 206.0953,127.8797 L206.0953,128.1563 Q206.0953,128.4656 206.3484,128.6719 Q206.6016,128.8781 207.0516,128.8781 Q207.3188,128.8781 207.5063,128.8172 Q207.6141,128.7844 207.7359,128.6766 Q207.8156,128.6156 207.8578,128.5969 Q207.9,128.5781 207.9516,128.5781 Q208.05,128.5781 208.1203,128.6578 Q208.1953,128.7328 208.1953,128.8406 Q208.1953,128.9438 208.0922,129.0656 Q207.9422,129.2438 207.7031,129.3422 Q207.3891,129.4781 207.0047,129.4781 Q206.5547,129.4781 206.1938,129.3 Q205.9031,129.1594 205.6969,128.8547 Q205.4953,128.55 205.4953,128.1891 L205.4953,127.8609 Q205.4953,127.4859 205.6734,127.1578 Q205.8563,126.8297 206.1703,126.6563 Q206.4891,126.4781 206.8453,126.4781 Q207.0609,126.4781 207.2484,126.5531 Q207.4359,126.6281 207.5953,126.7781 Z " fill="#000000"/><text fill="#000000" font-family="sans-serif" font-size="3.6" font-style="italic" lengthAdjust="spacing" textLength="30" x="210.5953" y="127.0371">«Aggregate Root»</text><text fill="#000000" font-family="sans-serif" font-size="3.6" lengthAdjust="spacing" textLength="9.6" x="220.7953" y="131.5652">Sprint</text><line style="stroke:#A80036;stroke-width:0.44999999999999996;" x1="202.7953" x2="240.5953" y1="133.8563" y2="133.8563"/><line style="stroke:#A80036;stroke-width:0.44999999999999996;" x1="202.7953" x2="240.5953" y1="136.2563" y2="136.2563"/><!--MD5=[a4f72fab32bcffbd8750a3004494f4a8]
class SprintBacklogItem--><rect codeLine="5" fill="#FEFECE" filter="url(#f14bo1x4m7sdh8)" height="16.8563" id="SprintBacklogItem" style="stroke:#A80036;stroke-width:0.44999999999999996;" width="39.6" x="202.1953" y="156.6"/><ellipse cx="206.6953" cy="162.6281" fill="#ADD1B2" rx="3.3" ry="3.3" style="stroke:#A80036;stroke-width:0.3;"/><path d="M207.2953,161.5781 Q207.3563,161.4281 207.4266,161.3531 Q207.4969,161.2781 207.5766,161.2781 Q207.7172,161.2781 207.8063,161.3625 Q207.8953,161.4469 207.8953,161.6437 L207.8953,162.1125 Q207.8953,162.3094 207.8109,162.3937 Q207.7266,162.4781 207.5953,162.4781 Q207.4781,162.4781 207.4031,162.4266 Q207.3281,162.375 207.2953,162.2391 Q207.2813,162.1453 207.2297,162.0938 Q207.1359,161.9953 206.9672,161.9391 Q206.7984,161.8781 206.6297,161.8781 Q206.4188,161.8781 206.2406,161.9625 Q206.0672,162.0469 205.9313,162.2344 Q205.7953,162.4219 205.7953,162.6797 L205.7953,162.9562 Q205.7953,163.2656 206.0484,163.4719 Q206.3016,163.6781 206.7516,163.6781 Q207.0187,163.6781 207.2062,163.6172 Q207.3141,163.5844 207.4359,163.4766 Q207.5156,163.4156 207.5578,163.3969 Q207.6,163.3781 207.6516,163.3781 Q207.75,163.3781 207.8203,163.4578 Q207.8953,163.5328 207.8953,163.6406 Q207.8953,163.7438 207.7922,163.8656 Q207.6422,164.0438 207.4031,164.1422 Q207.0891,164.2781 206.7047,164.2781 Q206.2547,164.2781 205.8937,164.1 Q205.6031,163.9594 205.3969,163.6547 Q205.1953,163.35 205.1953,162.9891 L205.1953,162.6609 Q205.1953,162.2859 205.3734,161.9578 Q205.5563,161.6297 205.8703,161.4562 Q206.1891,161.2781 206.5453,161.2781 Q206.7609,161.2781 206.9484,161.3531 Q207.1359,161.4281 207.2953,161.5781 Z " fill="#000000"/><text fill="#000000" font-family="sans-serif" font-size="3.6" font-style="italic" lengthAdjust="spacing" textLength="25.5" x="213.1453" y="161.8371">«Value Object»</text><text fill="#000000" font-family="sans-serif" font-size="3.6" lengthAdjust="spacing" textLength="30" x="210.8953" y="166.3652">SprintBacklogItem</text><line style="stroke:#A80036;stroke-width:0.44999999999999996;" x1="202.4953" x2="241.4953" y1="168.6563" y2="168.6563"/><line style="stroke:#A80036;stroke-width:0.44999999999999996;" x1="202.4953" x2="241.4953" y1="171.0563" y2="171.0563"/><!--MD5=[e3d83ec5fd90ea9f3f2bfe265cb53458]
class Status--><rect codeLine="6" fill="#FEFECE" filter="url(#f14bo1x4m7sdh8)" height="16.8563" id="Status" style="stroke:#A80036;stroke-width:0.44999999999999996;" width="33.9" x="205.0453" y="196.2"/><ellipse cx="209.5453" cy="202.2281" fill="#ADD1B2" rx="3.3" ry="3.3" style="stroke:#A80036;stroke-width:0.3;"/><path d="M210.1453,201.1781 Q210.2062,201.0281 210.2766,200.9531 Q210.3469,200.8781 210.4266,200.8781 Q210.5672,200.8781 210.6563,200.9625 Q210.7453,201.0469 210.7453,201.2438 L210.7453,201.7125 Q210.7453,201.9094 210.6609,201.9938 Q210.5766,202.0781 210.4453,202.0781 Q210.3281,202.0781 210.2531,202.0266 Q210.1781,201.975 210.1453,201.8391 Q210.1313,201.7453 210.0797,201.6938 Q209.9859,201.5953 209.8172,201.5391 Q209.6484,201.4781 209.4797,201.4781 Q209.2687,201.4781 209.0906,201.5625 Q208.9172,201.6469 208.7813,201.8344 Q208.6453,202.0219 208.6453,202.2797 L208.6453,202.5563 Q208.6453,202.8656 208.8984,203.0719 Q209.1516,203.2781 209.6016,203.2781 Q209.8688,203.2781 210.0563,203.2172 Q210.1641,203.1844 210.2859,203.0766 Q210.3656,203.0156 210.4078,202.9969 Q210.45,202.9781 210.5016,202.9781 Q210.6,202.9781 210.6703,203.0578 Q210.7453,203.1328 210.7453,203.2406 Q210.7453,203.3438 210.6422,203.4656 Q210.4922,203.6437 210.2531,203.7422 Q209.9391,203.8781 209.5547,203.8781 Q209.1047,203.8781 208.7438,203.7 Q208.4531,203.5594 208.2469,203.2547 Q208.0453,202.95 208.0453,202.5891 L208.0453,202.2609 Q208.0453,201.8859 208.2234,201.5578 Q208.4063,201.2297 208.7203,201.0563 Q209.0391,200.8781 209.3953,200.8781 Q209.6109,200.8781 209.7984,200.9531 Q209.9859,201.0281 210.1453,201.1781 Z " fill="#000000"/><text fill="#000000" font-family="sans-serif" font-size="3.6" font-style="italic" lengthAdjust="spacing" textLength="25.5" x="213.1453" y="201.4371">«Value Object»</text><text fill="#000000" font-family="sans-serif" font-size="3.6" lengthAdjust="spacing" textLength="10.5" x="220.6453" y="205.9652">Status</text><line style="stroke:#A80036;stroke-width:0.44999999999999996;" x1="205.3453" x2="238.6453" y1="208.2563" y2="208.2563"/><line style="stroke:#A80036;stroke-width:0.44999999999999996;" x1="205.3453" x2="238.6453" y1="210.6563" y2="210.6563"/><!--MD5=[9ad4036dd028425989883104bd9f35de]
class SprintID--><rect codeLine="7" fill="#FEFECE" filter="url(#f14bo1x4m7sdh8)" height="16.8563" id="SprintID" style="stroke:#A80036;stroke-width:0.44999999999999996;" width="38.7" x="202.3453" y="82.2"/><ellipse cx="206.8453" cy="88.2281" fill="#ADD1B2" rx="3.3" ry="3.3" style="stroke:#A80036;stroke-width:0.3;"/><path d="M207.4453,87.1781 Q207.5063,87.0281 207.5766,86.9531 Q207.6469,86.8781 207.7266,86.8781 Q207.8672,86.8781 207.9562,86.9625 Q208.0453,87.0469 208.0453,87.2437 L208.0453,87.7125 Q208.0453,87.9094 207.9609,87.9937 Q207.8766,88.0781 207.7453,88.0781 Q207.6281,88.0781 207.5531,88.0266 Q207.4781,87.975 207.4453,87.8391 Q207.4313,87.7453 207.3797,87.6938 Q207.2859,87.5953 207.1172,87.5391 Q206.9484,87.4781 206.7797,87.4781 Q206.5688,87.4781 206.3906,87.5625 Q206.2172,87.6469 206.0812,87.8344 Q205.9453,88.0219 205.9453,88.2797 L205.9453,88.5562 Q205.9453,88.8656 206.1984,89.0719 Q206.4516,89.2781 206.9016,89.2781 Q207.1688,89.2781 207.3563,89.2172 Q207.4641,89.1844 207.5859,89.0766 Q207.6656,89.0156 207.7078,88.9969 Q207.75,88.9781 207.8016,88.9781 Q207.9,88.9781 207.9703,89.0578 Q208.0453,89.1328 208.0453,89.2406 Q208.0453,89.3438 207.9422,89.4656 Q207.7922,89.6438 207.5531,89.7422 Q207.2391,89.8781 206.8547,89.8781 Q206.4047,89.8781 206.0438,89.7 Q205.7531,89.5594 205.5469,89.2547 Q205.3453,88.95 205.3453,88.5891 L205.3453,88.2609 Q205.3453,87.8859 205.5234,87.5578 Q205.7062,87.2297 206.0203,87.0562 Q206.3391,86.8781 206.6953,86.8781 Q206.9109,86.8781 207.0984,86.9531 Q207.2859,87.0281 207.4453,87.1781 Z " fill="#000000"/><text fill="#000000" font-family="sans-serif" font-size="3.6" font-style="italic" lengthAdjust="spacing" textLength="30.3" x="210.4453" y="87.4371">«Value Object ID»</text><text fill="#000000" font-family="sans-serif" font-size="3.6" lengthAdjust="spacing" textLength="13.2" x="218.9953" y="91.9652">SprintID</text><line style="stroke:#A80036;stroke-width:0.44999999999999996;" x1="202.6453" x2="240.7453" y1="94.2563" y2="94.2563"/><line style="stroke:#A80036;stroke-width:0.44999999999999996;" x1="202.6453" x2="240.7453" y1="96.6563" y2="96.6563"/><!--MD5=[79d378210367c0c6ec62ef762ddfbd1b]
class Project--><rect codeLine="12" fill="#FEFECE" filter="url(#f14bo1x4m7sdh8)" height="16.8563" id="Project" style="stroke:#A80036;stroke-width:0.44999999999999996;" width="38.4" x="167.0953" y="300.6"/><ellipse cx="171.5953" cy="306.6281" fill="#ADD1B2" rx="3.3" ry="3.3" style="stroke:#A80036;stroke-width:0.3;"/><path d="M172.1953,305.5781 Q172.2563,305.4281 172.3266,305.3531 Q172.3969,305.2781 172.4766,305.2781 Q172.6172,305.2781 172.7062,305.3625 Q172.7953,305.4469 172.7953,305.6438 L172.7953,306.1125 Q172.7953,306.3094 172.7109,306.3938 Q172.6266,306.4781 172.4953,306.4781 Q172.3781,306.4781 172.3031,306.4266 Q172.2281,306.375 172.1953,306.2391 Q172.1813,306.1453 172.1297,306.0938 Q172.0359,305.9953 171.8672,305.9391 Q171.6984,305.8781 171.5297,305.8781 Q171.3188,305.8781 171.1406,305.9625 Q170.9672,306.0469 170.8312,306.2344 Q170.6953,306.4219 170.6953,306.6797 L170.6953,306.9563 Q170.6953,307.2656 170.9484,307.4719 Q171.2016,307.6781 171.6516,307.6781 Q171.9188,307.6781 172.1063,307.6172 Q172.2141,307.5844 172.3359,307.4766 Q172.4156,307.4156 172.4578,307.3969 Q172.5,307.3781 172.5516,307.3781 Q172.65,307.3781 172.7203,307.4578 Q172.7953,307.5328 172.7953,307.6406 Q172.7953,307.7438 172.6922,307.8656 Q172.5422,308.0438 172.3031,308.1422 Q171.9891,308.2781 171.6047,308.2781 Q171.1547,308.2781 170.7938,308.1 Q170.5031,307.9594 170.2969,307.6547 Q170.0953,307.35 170.0953,306.9891 L170.0953,306.6609 Q170.0953,306.2859 170.2734,305.9578 Q170.4562,305.6297 170.7703,305.4563 Q171.0891,305.2781 171.4453,305.2781 Q171.6609,305.2781 171.8484,305.3531 Q172.0359,305.4281 172.1953,305.5781 Z " fill="#000000"/><text fill="#000000" font-family="sans-serif" font-size="3.6" font-style="italic" lengthAdjust="spacing" textLength="30" x="175.1953" y="305.8371">«Aggregate Root»</text><text fill="#000000" font-family="sans-serif" font-size="3.6" lengthAdjust="spacing" textLength="11.4" x="184.4953" y="310.3652">Project</text><line style="stroke:#A80036;stroke-width:0.44999999999999996;" x1="167.3953" x2="205.1953" y1="312.6563" y2="312.6563"/><line style="stroke:#A80036;stroke-width:0.44999999999999996;" x1="167.3953" x2="205.1953" y1="315.0563" y2="315.0563"/><!--MD5=[63f6ec7c26fa50f63d575e54d140c17e]
class ProjectID--><rect codeLine="13" fill="#FEFECE" filter="url(#f14bo1x4m7sdh8)" height="16.8563" id="ProjectID" style="stroke:#A80036;stroke-width:0.44999999999999996;" width="38.7" x="166.9453" y="265.8"/><ellipse cx="171.4453" cy="271.8281" fill="#ADD1B2" rx="3.3" ry="3.3" style="stroke:#A80036;stroke-width:0.3;"/><path d="M172.0453,270.7781 Q172.1063,270.6281 172.1766,270.5531 Q172.2469,270.4781 172.3266,270.4781 Q172.4672,270.4781 172.5563,270.5625 Q172.6453,270.6469 172.6453,270.8438 L172.6453,271.3125 Q172.6453,271.5094 172.5609,271.5938 Q172.4766,271.6781 172.3453,271.6781 Q172.2281,271.6781 172.1531,271.6266 Q172.0781,271.575 172.0453,271.4391 Q172.0313,271.3453 171.9797,271.2938 Q171.8859,271.1953 171.7172,271.1391 Q171.5484,271.0781 171.3797,271.0781 Q171.1688,271.0781 170.9906,271.1625 Q170.8172,271.2469 170.6813,271.4344 Q170.5453,271.6219 170.5453,271.8797 L170.5453,272.1563 Q170.5453,272.4656 170.7984,272.6719 Q171.0516,272.8781 171.5016,272.8781 Q171.7687,272.8781 171.9562,272.8172 Q172.0641,272.7844 172.1859,272.6766 Q172.2656,272.6156 172.3078,272.5969 Q172.35,272.5781 172.4016,272.5781 Q172.5,272.5781 172.5703,272.6578 Q172.6453,272.7328 172.6453,272.8406 Q172.6453,272.9437 172.5422,273.0656 Q172.3922,273.2438 172.1531,273.3422 Q171.8391,273.4781 171.4547,273.4781 Q171.0047,273.4781 170.6437,273.3 Q170.3531,273.1594 170.1469,272.8547 Q169.9453,272.55 169.9453,272.1891 L169.9453,271.8609 Q169.9453,271.4859 170.1234,271.1578 Q170.3063,270.8297 170.6203,270.6563 Q170.9391,270.4781 171.2953,270.4781 Q171.5109,270.4781 171.6984,270.5531 Q171.8859,270.6281 172.0453,270.7781 Z " fill="#000000"/><text fill="#000000" font-family="sans-serif" font-size="3.6" font-style="italic" lengthAdjust="spacing" textLength="30.3" x="175.0453" y="271.0371">«Value Object ID»</text><text fill="#000000" font-family="sans-serif" font-size="3.6" lengthAdjust="spacing" textLength="15" x="182.6953" y="275.5652">ProjectID</text><line style="stroke:#A80036;stroke-width:0.44999999999999996;" x1="167.2453" x2="205.3453" y1="277.8563" y2="277.8563"/><line style="stroke:#A80036;stroke-width:0.44999999999999996;" x1="167.2453" x2="205.3453" y1="280.2562" y2="280.2562"/><!--MD5=[daa6dd44d8f60c5a9cd695bb66773862]
class UserStory--><rect codeLine="17" fill="#FEFECE" filter="url(#f14bo1x4m7sdh8)" height="16.8563" id="UserStory" style="stroke:#A80036;stroke-width:0.44999999999999996;" width="38.4" x="258.5953" y="231"/><ellipse cx="263.0953" cy="237.0281" fill="#ADD1B2" rx="3.3" ry="3.3" style="stroke:#A80036;stroke-width:0.3;"/><path d="M263.6953,235.9781 Q263.7562,235.8281 263.8266,235.7531 Q263.8969,235.6781 263.9766,235.6781 Q264.1172,235.6781 264.2063,235.7625 Q264.2953,235.8469 264.2953,236.0438 L264.2953,236.5125 Q264.2953,236.7094 264.2109,236.7938 Q264.1266,236.8781 263.9953,236.8781 Q263.8781,236.8781 263.8031,236.8266 Q263.7281,236.775 263.6953,236.6391 Q263.6813,236.5453 263.6297,236.4937 Q263.5359,236.3953 263.3672,236.3391 Q263.1984,236.2781 263.0297,236.2781 Q262.8187,236.2781 262.6406,236.3625 Q262.4672,236.4469 262.3313,236.6344 Q262.1953,236.8219 262.1953,237.0797 L262.1953,237.3563 Q262.1953,237.6656 262.4484,237.8719 Q262.7016,238.0781 263.1516,238.0781 Q263.4188,238.0781 263.6063,238.0172 Q263.7141,237.9844 263.8359,237.8766 Q263.9156,237.8156 263.9578,237.7969 Q264,237.7781 264.0516,237.7781 Q264.15,237.7781 264.2203,237.8578 Q264.2953,237.9328 264.2953,238.0406 Q264.2953,238.1437 264.1922,238.2656 Q264.0422,238.4438 263.8031,238.5422 Q263.4891,238.6781 263.1047,238.6781 Q262.6547,238.6781 262.2938,238.5 Q262.0031,238.3594 261.7969,238.0547 Q261.5953,237.75 261.5953,237.3891 L261.5953,237.0609 Q261.5953,236.6859 261.7734,236.3578 Q261.9563,236.0297 262.2703,235.8563 Q262.5891,235.6781 262.9453,235.6781 Q263.1609,235.6781 263.3484,235.7531 Q263.5359,235.8281 263.6953,235.9781 Z " fill="#000000"/><text fill="#000000" font-family="sans-serif" font-size="3.6" font-style="italic" lengthAdjust="spacing" textLength="30" x="266.6953" y="236.2371">«Aggregate Root»</text><text fill="#000000" font-family="sans-serif" font-size="3.6" lengthAdjust="spacing" textLength="16.2" x="273.5953" y="240.7652">UserStory</text><line style="stroke:#A80036;stroke-width:0.44999999999999996;" x1="258.8953" x2="296.6953" y1="243.0562" y2="243.0562"/><line style="stroke:#A80036;stroke-width:0.44999999999999996;" x1="258.8953" x2="296.6953" y1="245.4562" y2="245.4562"/><!--MD5=[7e9802e8847bebd33f760d4283db2bdb]
class EffortEstimate--><rect codeLine="18" fill="#FEFECE" filter="url(#f14bo1x4m7sdh8)" height="16.8563" id="EffortEstimate" style="stroke:#A80036;stroke-width:0.44999999999999996;" width="33.9" x="260.8453" y="265.8"/><ellipse cx="265.3453" cy="271.8281" fill="#ADD1B2" rx="3.3" ry="3.3" style="stroke:#A80036;stroke-width:0.3;"/><path d="M265.9453,270.7781 Q266.0062,270.6281 266.0766,270.5531 Q266.1469,270.4781 266.2266,270.4781 Q266.3672,270.4781 266.4563,270.5625 Q266.5453,270.6469 266.5453,270.8438 L266.5453,271.3125 Q266.5453,271.5094 266.4609,271.5938 Q266.3766,271.6781 266.2453,271.6781 Q266.1281,271.6781 266.0531,271.6266 Q265.9781,271.575 265.9453,271.4391 Q265.9313,271.3453 265.8797,271.2938 Q265.7859,271.1953 265.6172,271.1391 Q265.4484,271.0781 265.2797,271.0781 Q265.0687,271.0781 264.8906,271.1625 Q264.7172,271.2469 264.5813,271.4344 Q264.4453,271.6219 264.4453,271.8797 L264.4453,272.1563 Q264.4453,272.4656 264.6984,272.6719 Q264.9516,272.8781 265.4016,272.8781 Q265.6688,272.8781 265.8563,272.8172 Q265.9641,272.7844 266.0859,272.6766 Q266.1656,272.6156 266.2078,272.5969 Q266.25,272.5781 266.3016,272.5781 Q266.4,272.5781 266.4703,272.6578 Q266.5453,272.7328 266.5453,272.8406 Q266.5453,272.9437 266.4422,273.0656 Q266.2922,273.2438 266.0531,273.3422 Q265.7391,273.4781 265.3547,273.4781 Q264.9047,273.4781 264.5438,273.3 Q264.2531,273.1594 264.0469,272.8547 Q263.8453,272.55 263.8453,272.1891 L263.8453,271.8609 Q263.8453,271.4859 264.0234,271.1578 Q264.2063,270.8297 264.5203,270.6563 Q264.8391,270.4781 265.1953,270.4781 Q265.4109,270.4781 265.5984,270.5531 Q265.7859,270.6281 265.9453,270.7781 Z " fill="#000000"/><text fill="#000000" font-family="sans-serif" font-size="3.6" font-style="italic" lengthAdjust="spacing" textLength="25.5" x="268.9453" y="271.0371">«Value Object»</text><text fill="#000000" font-family="sans-serif" font-size="3.6" lengthAdjust="spacing" textLength="23.1" x="270.1453" y="275.5652">EffortEstimate</text><line style="stroke:#A80036;stroke-width:0.44999999999999996;" x1="261.1453" x2="294.4453" y1="277.8563" y2="277.8563"/><line style="stroke:#A80036;stroke-width:0.44999999999999996;" x1="261.1453" x2="294.4453" y1="280.2562" y2="280.2562"/><!--MD5=[e98f05372d25a3a7c070b97ec805badf]
class UserStoryID--><rect codeLine="19" fill="#FEFECE" filter="url(#f14bo1x4m7sdh8)" height="16.8563" id="UserStoryID" style="stroke:#A80036;stroke-width:0.44999999999999996;" width="38.7" x="258.7453" y="196.2"/><ellipse cx="263.2453" cy="202.2281" fill="#ADD1B2" rx="3.3" ry="3.3" style="stroke:#A80036;stroke-width:0.3;"/><path d="M263.8453,201.1781 Q263.9063,201.0281 263.9766,200.9531 Q264.0469,200.8781 264.1266,200.8781 Q264.2672,200.8781 264.3563,200.9625 Q264.4453,201.0469 264.4453,201.2438 L264.4453,201.7125 Q264.4453,201.9094 264.3609,201.9938 Q264.2766,202.0781 264.1453,202.0781 Q264.0281,202.0781 263.9531,202.0266 Q263.8781,201.975 263.8453,201.8391 Q263.8313,201.7453 263.7797,201.6938 Q263.6859,201.5953 263.5172,201.5391 Q263.3484,201.4781 263.1797,201.4781 Q262.9688,201.4781 262.7906,201.5625 Q262.6172,201.6469 262.4813,201.8344 Q262.3453,202.0219 262.3453,202.2797 L262.3453,202.5563 Q262.3453,202.8656 262.5984,203.0719 Q262.8516,203.2781 263.3016,203.2781 Q263.5687,203.2781 263.7562,203.2172 Q263.8641,203.1844 263.9859,203.0766 Q264.0656,203.0156 264.1078,202.9969 Q264.15,202.9781 264.2016,202.9781 Q264.3,202.9781 264.3703,203.0578 Q264.4453,203.1328 264.4453,203.2406 Q264.4453,203.3438 264.3422,203.4656 Q264.1922,203.6437 263.9531,203.7422 Q263.6391,203.8781 263.2547,203.8781 Q262.8047,203.8781 262.4437,203.7 Q262.1531,203.5594 261.9469,203.2547 Q261.7453,202.95 261.7453,202.5891 L261.7453,202.2609 Q261.7453,201.8859 261.9234,201.5578 Q262.1063,201.2297 262.4203,201.0563 Q262.7391,200.8781 263.0953,200.8781 Q263.3109,200.8781 263.4984,200.9531 Q263.6859,201.0281 263.8453,201.1781 Z " fill="#000000"/><text fill="#000000" font-family="sans-serif" font-size="3.6" font-style="italic" lengthAdjust="spacing" textLength="30.3" x="266.8453" y="201.4371">«Value Object ID»</text><text fill="#000000" font-family="sans-serif" font-size="3.6" lengthAdjust="spacing" textLength="19.8" x="272.0953" y="205.9652">UserStoryID</text><line style="stroke:#A80036;stroke-width:0.44999999999999996;" x1="259.0453" x2="297.1453" y1="208.2563" y2="208.2563"/><line style="stroke:#A80036;stroke-width:0.44999999999999996;" x1="259.0453" x2="297.1453" y1="210.6563" y2="210.6563"/><!--MD5=[447f8b4c2341541f2d92ddde6334f3f9]
class BusinessSector--><rect codeLine="23" fill="#FEFECE" filter="url(#f14bo1x4m7sdh8)" height="16.8563" id="BusinessSector" style="stroke:#A80036;stroke-width:0.44999999999999996;" width="38.4" x="110.9953" y="375"/><ellipse cx="115.4953" cy="381.0281" fill="#ADD1B2" rx="3.3" ry="3.3" style="stroke:#A80036;stroke-width:0.3;"/><path d="M116.0953,379.9781 Q116.1563,379.8281 116.2266,379.7531 Q116.2969,379.6781 116.3766,379.6781 Q116.5172,379.6781 116.6062,379.7625 Q116.6953,379.8469 116.6953,380.0438 L116.6953,380.5125 Q116.6953,380.7094 116.6109,380.7938 Q116.5266,380.8781 116.3953,380.8781 Q116.2781,380.8781 116.2031,380.8266 Q116.1281,380.775 116.0953,380.6391 Q116.0813,380.5453 116.0297,380.4938 Q115.9359,380.3953 115.7672,380.3391 Q115.5984,380.2781 115.4297,380.2781 Q115.2188,380.2781 115.0406,380.3625 Q114.8672,380.4469 114.7313,380.6344 Q114.5953,380.8219 114.5953,381.0797 L114.5953,381.3563 Q114.5953,381.6656 114.8484,381.8719 Q115.1016,382.0781 115.5516,382.0781 Q115.8188,382.0781 116.0063,382.0172 Q116.1141,381.9844 116.2359,381.8766 Q116.3156,381.8156 116.3578,381.7969 Q116.4,381.7781 116.4516,381.7781 Q116.55,381.7781 116.6203,381.8578 Q116.6953,381.9328 116.6953,382.0406 Q116.6953,382.1438 116.5922,382.2656 Q116.4422,382.4437 116.2031,382.5422 Q115.8891,382.6781 115.5047,382.6781 Q115.0547,382.6781 114.6938,382.5 Q114.4031,382.3594 114.1969,382.0547 Q113.9953,381.75 113.9953,381.3891 L113.9953,381.0609 Q113.9953,380.6859 114.1734,380.3578 Q114.3563,380.0297 114.6703,379.8563 Q114.9891,379.6781 115.3453,379.6781 Q115.5609,379.6781 115.7484,379.7531 Q115.9359,379.8281 116.0953,379.9781 Z " fill="#000000"/><text fill="#000000" font-family="sans-serif" font-size="3.6" font-style="italic" lengthAdjust="spacing" textLength="30" x="119.0953" y="380.2371">«Aggregate Root»</text><text fill="#000000" font-family="sans-serif" font-size="3.6" lengthAdjust="spacing" textLength="26.4" x="120.8953" y="384.7652">BusinessSector</text><line style="stroke:#A80036;stroke-width:0.44999999999999996;" x1="111.2953" x2="149.0953" y1="387.0563" y2="387.0563"/><line style="stroke:#A80036;stroke-width:0.44999999999999996;" x1="111.2953" x2="149.0953" y1="389.4563" y2="389.4563"/><!--MD5=[5c5ce02d49df002f7e65a6f61e45c693]
class BusinessSectorID--><rect codeLine="24" fill="#FEFECE" filter="url(#f14bo1x4m7sdh8)" height="16.8563" id="BusinessSectorID" style="stroke:#A80036;stroke-width:0.44999999999999996;" width="39.6" x="110.3953" y="340.2"/><ellipse cx="114.8953" cy="346.2281" fill="#ADD1B2" rx="3.3" ry="3.3" style="stroke:#A80036;stroke-width:0.3;"/><path d="M115.4953,345.1781 Q115.5562,345.0281 115.6266,344.9531 Q115.6969,344.8781 115.7766,344.8781 Q115.9172,344.8781 116.0063,344.9625 Q116.0953,345.0469 116.0953,345.2438 L116.0953,345.7125 Q116.0953,345.9094 116.0109,345.9938 Q115.9266,346.0781 115.7953,346.0781 Q115.6781,346.0781 115.6031,346.0266 Q115.5281,345.975 115.4953,345.8391 Q115.4812,345.7453 115.4297,345.6937 Q115.3359,345.5953 115.1672,345.5391 Q114.9984,345.4781 114.8297,345.4781 Q114.6187,345.4781 114.4406,345.5625 Q114.2672,345.6469 114.1313,345.8344 Q113.9953,346.0219 113.9953,346.2797 L113.9953,346.5563 Q113.9953,346.8656 114.2484,347.0719 Q114.5016,347.2781 114.9516,347.2781 Q115.2188,347.2781 115.4063,347.2172 Q115.5141,347.1844 115.6359,347.0766 Q115.7156,347.0156 115.7578,346.9969 Q115.8,346.9781 115.8516,346.9781 Q115.95,346.9781 116.0203,347.0578 Q116.0953,347.1328 116.0953,347.2406 Q116.0953,347.3438 115.9922,347.4656 Q115.8422,347.6438 115.6031,347.7422 Q115.2891,347.8781 114.9047,347.8781 Q114.4547,347.8781 114.0938,347.7 Q113.8031,347.5594 113.5969,347.2547 Q113.3953,346.95 113.3953,346.5891 L113.3953,346.2609 Q113.3953,345.8859 113.5734,345.5578 Q113.7563,345.2297 114.0703,345.0563 Q114.3891,344.8781 114.7453,344.8781 Q114.9609,344.8781 115.1484,344.9531 Q115.3359,345.0281 115.4953,345.1781 Z " fill="#000000"/><text fill="#000000" font-family="sans-serif" font-size="3.6" font-style="italic" lengthAdjust="spacing" textLength="30.3" x="118.9453" y="345.4371">«Value Object ID»</text><text fill="#000000" font-family="sans-serif" font-size="3.6" lengthAdjust="spacing" textLength="30" x="119.0953" y="349.9652">BusinessSectorID</text><line style="stroke:#A80036;stroke-width:0.44999999999999996;" x1="110.6953" x2="149.6953" y1="352.2562" y2="352.2562"/><line style="stroke:#A80036;stroke-width:0.44999999999999996;" x1="110.6953" x2="149.6953" y1="354.6563" y2="354.6563"/><!--MD5=[77871f5ce98274c2f672ab299257d545]
class ProjectTypology--><rect codeLine="28" fill="#FEFECE" filter="url(#f14bo1x4m7sdh8)" height="16.8563" id="ProjectTypology" style="stroke:#A80036;stroke-width:0.44999999999999996;" width="38.4" x="167.0953" y="375"/><ellipse cx="171.5953" cy="381.0281" fill="#ADD1B2" rx="3.3" ry="3.3" style="stroke:#A80036;stroke-width:0.3;"/><path d="M172.1953,379.9781 Q172.2563,379.8281 172.3266,379.7531 Q172.3969,379.6781 172.4766,379.6781 Q172.6172,379.6781 172.7062,379.7625 Q172.7953,379.8469 172.7953,380.0438 L172.7953,380.5125 Q172.7953,380.7094 172.7109,380.7938 Q172.6266,380.8781 172.4953,380.8781 Q172.3781,380.8781 172.3031,380.8266 Q172.2281,380.775 172.1953,380.6391 Q172.1813,380.5453 172.1297,380.4938 Q172.0359,380.3953 171.8672,380.3391 Q171.6984,380.2781 171.5297,380.2781 Q171.3188,380.2781 171.1406,380.3625 Q170.9672,380.4469 170.8312,380.6344 Q170.6953,380.8219 170.6953,381.0797 L170.6953,381.3563 Q170.6953,381.6656 170.9484,381.8719 Q171.2016,382.0781 171.6516,382.0781 Q171.9188,382.0781 172.1063,382.0172 Q172.2141,381.9844 172.3359,381.8766 Q172.4156,381.8156 172.4578,381.7969 Q172.5,381.7781 172.5516,381.7781 Q172.65,381.7781 172.7203,381.8578 Q172.7953,381.9328 172.7953,382.0406 Q172.7953,382.1438 172.6922,382.2656 Q172.5422,382.4437 172.3031,382.5422 Q171.9891,382.6781 171.6047,382.6781 Q171.1547,382.6781 170.7938,382.5 Q170.5031,382.3594 170.2969,382.0547 Q170.0953,381.75 170.0953,381.3891 L170.0953,381.0609 Q170.0953,380.6859 170.2734,380.3578 Q170.4562,380.0297 170.7703,379.8563 Q171.0891,379.6781 171.4453,379.6781 Q171.6609,379.6781 171.8484,379.7531 Q172.0359,379.8281 172.1953,379.9781 Z " fill="#000000"/><text fill="#000000" font-family="sans-serif" font-size="3.6" font-style="italic" lengthAdjust="spacing" textLength="30" x="175.1953" y="380.2371">«Aggregate Root»</text><text fill="#000000" font-family="sans-serif" font-size="3.6" lengthAdjust="spacing" textLength="25.8" x="177.2953" y="384.7652">ProjectTypology</text><line style="stroke:#A80036;stroke-width:0.44999999999999996;" x1="167.3953" x2="205.1953" y1="387.0563" y2="387.0563"/><line style="stroke:#A80036;stroke-width:0.44999999999999996;" x1="167.3953" x2="205.1953" y1="389.4563" y2="389.4563"/><!--MD5=[c7a0190b3422126ff20eca0a0b5f97aa]
class ProjectTypologyID--><rect codeLine="29" fill="#FEFECE" filter="url(#f14bo1x4m7sdh8)" height="16.8563" id="ProjectTypologyID" style="stroke:#A80036;stroke-width:0.44999999999999996;" width="39" x="166.7953" y="340.2"/><ellipse cx="171.2953" cy="346.2281" fill="#ADD1B2" rx="3.3" ry="3.3" style="stroke:#A80036;stroke-width:0.3;"/><path d="M171.8953,345.1781 Q171.9562,345.0281 172.0266,344.9531 Q172.0969,344.8781 172.1766,344.8781 Q172.3172,344.8781 172.4063,344.9625 Q172.4953,345.0469 172.4953,345.2438 L172.4953,345.7125 Q172.4953,345.9094 172.4109,345.9938 Q172.3266,346.0781 172.1953,346.0781 Q172.0781,346.0781 172.0031,346.0266 Q171.9281,345.975 171.8953,345.8391 Q171.8813,345.7453 171.8297,345.6937 Q171.7359,345.5953 171.5672,345.5391 Q171.3984,345.4781 171.2297,345.4781 Q171.0187,345.4781 170.8406,345.5625 Q170.6672,345.6469 170.5313,345.8344 Q170.3953,346.0219 170.3953,346.2797 L170.3953,346.5563 Q170.3953,346.8656 170.6484,347.0719 Q170.9016,347.2781 171.3516,347.2781 Q171.6188,347.2781 171.8063,347.2172 Q171.9141,347.1844 172.0359,347.0766 Q172.1156,347.0156 172.1578,346.9969 Q172.2,346.9781 172.2516,346.9781 Q172.35,346.9781 172.4203,347.0578 Q172.4953,347.1328 172.4953,347.2406 Q172.4953,347.3438 172.3922,347.4656 Q172.2422,347.6438 172.0031,347.7422 Q171.6891,347.8781 171.3047,347.8781 Q170.8547,347.8781 170.4938,347.7 Q170.2031,347.5594 169.9969,347.2547 Q169.7953,346.95 169.7953,346.5891 L169.7953,346.2609 Q169.7953,345.8859 169.9734,345.5578 Q170.1563,345.2297 170.4703,345.0563 Q170.7891,344.8781 171.1453,344.8781 Q171.3609,344.8781 171.5484,344.9531 Q171.7359,345.0281 171.8953,345.1781 Z " fill="#000000"/><text fill="#000000" font-family="sans-serif" font-size="3.6" font-style="italic" lengthAdjust="spacing" textLength="30.3" x="175.0453" y="345.4371">«Value Object ID»</text><text fill="#000000" font-family="sans-serif" font-size="3.6" lengthAdjust="spacing" textLength="29.4" x="175.4953" y="349.9652">ProjectTypologyID</text><line style="stroke:#A80036;stroke-width:0.44999999999999996;" x1="167.0953" x2="205.4953" y1="352.2562" y2="352.2562"/><line style="stroke:#A80036;stroke-width:0.44999999999999996;" x1="167.0953" x2="205.4953" y1="354.6563" y2="354.6563"/><!--MD5=[2ce0c9fb7f55b1e256ab28a8ea6b25ec]
class Customer--><rect codeLine="33" fill="#FEFECE" filter="url(#f14bo1x4m7sdh8)" height="16.8563" id="Customer" style="stroke:#A80036;stroke-width:0.44999999999999996;" width="38.4" x="222.8953" y="375"/><ellipse cx="227.3953" cy="381.0281" fill="#ADD1B2" rx="3.3" ry="3.3" style="stroke:#A80036;stroke-width:0.3;"/><path d="M227.9953,379.9781 Q228.0563,379.8281 228.1266,379.7531 Q228.1969,379.6781 228.2766,379.6781 Q228.4172,379.6781 228.5063,379.7625 Q228.5953,379.8469 228.5953,380.0438 L228.5953,380.5125 Q228.5953,380.7094 228.5109,380.7938 Q228.4266,380.8781 228.2953,380.8781 Q228.1781,380.8781 228.1031,380.8266 Q228.0281,380.775 227.9953,380.6391 Q227.9813,380.5453 227.9297,380.4938 Q227.8359,380.3953 227.6672,380.3391 Q227.4984,380.2781 227.3297,380.2781 Q227.1188,380.2781 226.9406,380.3625 Q226.7672,380.4469 226.6313,380.6344 Q226.4953,380.8219 226.4953,381.0797 L226.4953,381.3563 Q226.4953,381.6656 226.7484,381.8719 Q227.0016,382.0781 227.4516,382.0781 Q227.7188,382.0781 227.9063,382.0172 Q228.0141,381.9844 228.1359,381.8766 Q228.2156,381.8156 228.2578,381.7969 Q228.3,381.7781 228.3516,381.7781 Q228.45,381.7781 228.5203,381.8578 Q228.5953,381.9328 228.5953,382.0406 Q228.5953,382.1438 228.4922,382.2656 Q228.3422,382.4437 228.1031,382.5422 Q227.7891,382.6781 227.4047,382.6781 Q226.9547,382.6781 226.5938,382.5 Q226.3031,382.3594 226.0969,382.0547 Q225.8953,381.75 225.8953,381.3891 L225.8953,381.0609 Q225.8953,380.6859 226.0734,380.3578 Q226.2563,380.0297 226.5703,379.8563 Q226.8891,379.6781 227.2453,379.6781 Q227.4609,379.6781 227.6484,379.7531 Q227.8359,379.8281 227.9953,379.9781 Z " fill="#000000"/><text fill="#000000" font-family="sans-serif" font-size="3.6" font-style="italic" lengthAdjust="spacing" textLength="30" x="230.9953" y="380.2371">«Aggregate Root»</text><text fill="#000000" font-family="sans-serif" font-size="3.6" lengthAdjust="spacing" textLength="16.5" x="237.7453" y="384.7652">Customer</text><line style="stroke:#A80036;stroke-width:0.44999999999999996;" x1="223.1953" x2="260.9953" y1="387.0563" y2="387.0563"/><line style="stroke:#A80036;stroke-width:0.44999999999999996;" x1="223.1953" x2="260.9953" y1="389.4563" y2="389.4563"/><!--MD5=[f77c58c3cefaee79929c2862a0873814]
class CustomerID--><rect codeLine="34" fill="#FEFECE" filter="url(#f14bo1x4m7sdh8)" height="16.8563" id="CustomerID" style="stroke:#A80036;stroke-width:0.44999999999999996;" width="38.7" x="222.7453" y="340.2"/><ellipse cx="227.2453" cy="346.2281" fill="#ADD1B2" rx="3.3" ry="3.3" style="stroke:#A80036;stroke-width:0.3;"/><path d="M227.8453,345.1781 Q227.9063,345.0281 227.9766,344.9531 Q228.0469,344.8781 228.1266,344.8781 Q228.2672,344.8781 228.3563,344.9625 Q228.4453,345.0469 228.4453,345.2438 L228.4453,345.7125 Q228.4453,345.9094 228.3609,345.9938 Q228.2766,346.0781 228.1453,346.0781 Q228.0281,346.0781 227.9531,346.0266 Q227.8781,345.975 227.8453,345.8391 Q227.8312,345.7453 227.7797,345.6937 Q227.6859,345.5953 227.5172,345.5391 Q227.3484,345.4781 227.1797,345.4781 Q226.9688,345.4781 226.7906,345.5625 Q226.6172,345.6469 226.4813,345.8344 Q226.3453,346.0219 226.3453,346.2797 L226.3453,346.5563 Q226.3453,346.8656 226.5984,347.0719 Q226.8516,347.2781 227.3016,347.2781 Q227.5688,347.2781 227.7563,347.2172 Q227.8641,347.1844 227.9859,347.0766 Q228.0656,347.0156 228.1078,346.9969 Q228.15,346.9781 228.2016,346.9781 Q228.3,346.9781 228.3703,347.0578 Q228.4453,347.1328 228.4453,347.2406 Q228.4453,347.3438 228.3422,347.4656 Q228.1922,347.6438 227.9531,347.7422 Q227.6391,347.8781 227.2547,347.8781 Q226.8047,347.8781 226.4438,347.7 Q226.1531,347.5594 225.9469,347.2547 Q225.7453,346.95 225.7453,346.5891 L225.7453,346.2609 Q225.7453,345.8859 225.9234,345.5578 Q226.1063,345.2297 226.4203,345.0563 Q226.7391,344.8781 227.0953,344.8781 Q227.3109,344.8781 227.4984,344.9531 Q227.6859,345.0281 227.8453,345.1781 Z " fill="#000000"/><text fill="#000000" font-family="sans-serif" font-size="3.6" font-style="italic" lengthAdjust="spacing" textLength="30.3" x="230.8453" y="345.4371">«Value Object ID»</text><text fill="#000000" font-family="sans-serif" font-size="3.6" lengthAdjust="spacing" textLength="20.1" x="235.9453" y="349.9652">CustomerID</text><line style="stroke:#A80036;stroke-width:0.44999999999999996;" x1="223.0453" x2="261.1453" y1="352.2562" y2="352.2562"/><line style="stroke:#A80036;stroke-width:0.44999999999999996;" x1="223.0453" x2="261.1453" y1="354.6563" y2="354.6563"/><!--MD5=[6b13f1b330d33795af281e5c1dfe1e98]
class Resource--><rect codeLine="38" fill="#FEFECE" filter="url(#f14bo1x4m7sdh8)" height="16.8563" id="Resource" style="stroke:#A80036;stroke-width:0.44999999999999996;" width="38.4" x="114.5953" y="156.6"/><ellipse cx="119.0953" cy="162.6281" fill="#ADD1B2" rx="3.3" ry="3.3" style="stroke:#A80036;stroke-width:0.3;"/><path d="M119.6953,161.5781 Q119.7563,161.4281 119.8266,161.3531 Q119.8969,161.2781 119.9766,161.2781 Q120.1172,161.2781 120.2063,161.3625 Q120.2953,161.4469 120.2953,161.6437 L120.2953,162.1125 Q120.2953,162.3094 120.2109,162.3937 Q120.1266,162.4781 119.9953,162.4781 Q119.8781,162.4781 119.8031,162.4266 Q119.7281,162.375 119.6953,162.2391 Q119.6812,162.1453 119.6297,162.0938 Q119.5359,161.9953 119.3672,161.9391 Q119.1984,161.8781 119.0297,161.8781 Q118.8188,161.8781 118.6406,161.9625 Q118.4672,162.0469 118.3313,162.2344 Q118.1953,162.4219 118.1953,162.6797 L118.1953,162.9562 Q118.1953,163.2656 118.4484,163.4719 Q118.7016,163.6781 119.1516,163.6781 Q119.4187,163.6781 119.6062,163.6172 Q119.7141,163.5844 119.8359,163.4766 Q119.9156,163.4156 119.9578,163.3969 Q120,163.3781 120.0516,163.3781 Q120.15,163.3781 120.2203,163.4578 Q120.2953,163.5328 120.2953,163.6406 Q120.2953,163.7438 120.1922,163.8656 Q120.0422,164.0438 119.8031,164.1422 Q119.4891,164.2781 119.1047,164.2781 Q118.6547,164.2781 118.2937,164.1 Q118.0031,163.9594 117.7969,163.6547 Q117.5953,163.35 117.5953,162.9891 L117.5953,162.6609 Q117.5953,162.2859 117.7734,161.9578 Q117.9563,161.6297 118.2703,161.4562 Q118.5891,161.2781 118.9453,161.2781 Q119.1609,161.2781 119.3484,161.3531 Q119.5359,161.4281 119.6953,161.5781 Z " fill="#000000"/><text fill="#000000" font-family="sans-serif" font-size="3.6" font-style="italic" lengthAdjust="spacing" textLength="30" x="122.6953" y="161.8371">«Aggregate Root»</text><text fill="#000000" font-family="sans-serif" font-size="3.6" lengthAdjust="spacing" textLength="16.2" x="129.5953" y="166.3652">Resource</text><line style="stroke:#A80036;stroke-width:0.44999999999999996;" x1="114.8953" x2="152.6953" y1="168.6563" y2="168.6563"/><line style="stroke:#A80036;stroke-width:0.44999999999999996;" x1="114.8953" x2="152.6953" y1="171.0563" y2="171.0563"/><!--MD5=[a3638c1e5b65d287ecad7f06f5c0f212]
class Role--><rect codeLine="39" fill="#FEFECE" filter="url(#f14bo1x4m7sdh8)" height="16.8563" id="Role" style="stroke:#A80036;stroke-width:0.44999999999999996;" width="33.9" x="115.0453" y="196.2"/><ellipse cx="119.5453" cy="202.2281" fill="#ADD1B2" rx="3.3" ry="3.3" style="stroke:#A80036;stroke-width:0.3;"/><path d="M120.1453,201.1781 Q120.2063,201.0281 120.2766,200.9531 Q120.3469,200.8781 120.4266,200.8781 Q120.5672,200.8781 120.6563,200.9625 Q120.7453,201.0469 120.7453,201.2438 L120.7453,201.7125 Q120.7453,201.9094 120.6609,201.9938 Q120.5766,202.0781 120.4453,202.0781 Q120.3281,202.0781 120.2531,202.0266 Q120.1781,201.975 120.1453,201.8391 Q120.1313,201.7453 120.0797,201.6938 Q119.9859,201.5953 119.8172,201.5391 Q119.6484,201.4781 119.4797,201.4781 Q119.2688,201.4781 119.0906,201.5625 Q118.9172,201.6469 118.7813,201.8344 Q118.6453,202.0219 118.6453,202.2797 L118.6453,202.5563 Q118.6453,202.8656 118.8984,203.0719 Q119.1516,203.2781 119.6016,203.2781 Q119.8687,203.2781 120.0562,203.2172 Q120.1641,203.1844 120.2859,203.0766 Q120.3656,203.0156 120.4078,202.9969 Q120.45,202.9781 120.5016,202.9781 Q120.6,202.9781 120.6703,203.0578 Q120.7453,203.1328 120.7453,203.2406 Q120.7453,203.3438 120.6422,203.4656 Q120.4922,203.6437 120.2531,203.7422 Q119.9391,203.8781 119.5547,203.8781 Q119.1047,203.8781 118.7437,203.7 Q118.4531,203.5594 118.2469,203.2547 Q118.0453,202.95 118.0453,202.5891 L118.0453,202.2609 Q118.0453,201.8859 118.2234,201.5578 Q118.4063,201.2297 118.7203,201.0563 Q119.0391,200.8781 119.3953,200.8781 Q119.6109,200.8781 119.7984,200.9531 Q119.9859,201.0281 120.1453,201.1781 Z " fill="#000000"/><text fill="#000000" font-family="sans-serif" font-size="3.6" font-style="italic" lengthAdjust="spacing" textLength="25.5" x="123.1453" y="201.4371">«Value Object»</text><text fill="#000000" font-family="sans-serif" font-size="3.6" lengthAdjust="spacing" textLength="7.8" x="131.9953" y="205.9652">Role</text><line style="stroke:#A80036;stroke-width:0.44999999999999996;" x1="115.3453" x2="148.6453" y1="208.2563" y2="208.2563"/><line style="stroke:#A80036;stroke-width:0.44999999999999996;" x1="115.3453" x2="148.6453" y1="210.6563" y2="210.6563"/><!--MD5=[da2fc41701290679746579175e0925e6]
class ResourceID--><rect codeLine="40" fill="#FEFECE" filter="url(#f14bo1x4m7sdh8)" height="16.8563" id="ResourceID" style="stroke:#A80036;stroke-width:0.44999999999999996;" width="38.7" x="114.4453" y="121.8"/><ellipse cx="118.9453" cy="127.8281" fill="#ADD1B2" rx="3.3" ry="3.3" style="stroke:#A80036;stroke-width:0.3;"/><path d="M119.5453,126.7781 Q119.6062,126.6281 119.6766,126.5531 Q119.7469,126.4781 119.8266,126.4781 Q119.9672,126.4781 120.0562,126.5625 Q120.1453,126.6469 120.1453,126.8438 L120.1453,127.3125 Q120.1453,127.5094 120.0609,127.5938 Q119.9766,127.6781 119.8453,127.6781 Q119.7281,127.6781 119.6531,127.6266 Q119.5781,127.575 119.5453,127.4391 Q119.5313,127.3453 119.4797,127.2937 Q119.3859,127.1953 119.2172,127.1391 Q119.0484,127.0781 118.8797,127.0781 Q118.6687,127.0781 118.4906,127.1625 Q118.3172,127.2469 118.1812,127.4344 Q118.0453,127.6219 118.0453,127.8797 L118.0453,128.1563 Q118.0453,128.4656 118.2984,128.6719 Q118.5516,128.8781 119.0016,128.8781 Q119.2688,128.8781 119.4563,128.8172 Q119.5641,128.7844 119.6859,128.6766 Q119.7656,128.6156 119.8078,128.5969 Q119.85,128.5781 119.9016,128.5781 Q120,128.5781 120.0703,128.6578 Q120.1453,128.7328 120.1453,128.8406 Q120.1453,128.9438 120.0422,129.0656 Q119.8922,129.2438 119.6531,129.3422 Q119.3391,129.4781 118.9547,129.4781 Q118.5047,129.4781 118.1438,129.3 Q117.8531,129.1594 117.6469,128.8547 Q117.4453,128.55 117.4453,128.1891 L117.4453,127.8609 Q117.4453,127.4859 117.6234,127.1578 Q117.8062,126.8297 118.1203,126.6563 Q118.4391,126.4781 118.7953,126.4781 Q119.0109,126.4781 119.1984,126.5531 Q119.3859,126.6281 119.5453,126.7781 Z " fill="#000000"/><text fill="#000000" font-family="sans-serif" font-size="3.6" font-style="italic" lengthAdjust="spacing" textLength="30.3" x="122.5453" y="127.0371">«Value Object ID»</text><text fill="#000000" font-family="sans-serif" font-size="3.6" lengthAdjust="spacing" textLength="19.8" x="127.7953" y="131.5652">ResourceID</text><line style="stroke:#A80036;stroke-width:0.44999999999999996;" x1="114.7453" x2="152.8453" y1="133.8563" y2="133.8563"/><line style="stroke:#A80036;stroke-width:0.44999999999999996;" x1="114.7453" x2="152.8453" y1="136.2563" y2="136.2563"/><!--MD5=[b34797a66dc35cbf1d65f7e3ca75530e]
class Task--><rect codeLine="44" fill="#FEFECE" filter="url(#f14bo1x4m7sdh8)" height="16.8563" id="Task" style="stroke:#A80036;stroke-width:0.44999999999999996;" width="38.4" x="146.9953" y="47.4"/><ellipse cx="151.4953" cy="53.4281" fill="#ADD1B2" rx="3.3" ry="3.3" style="stroke:#A80036;stroke-width:0.3;"/><path d="M152.0953,52.3781 Q152.1563,52.2281 152.2266,52.1531 Q152.2969,52.0781 152.3766,52.0781 Q152.5172,52.0781 152.6063,52.1625 Q152.6953,52.2469 152.6953,52.4438 L152.6953,52.9125 Q152.6953,53.1094 152.6109,53.1938 Q152.5266,53.2781 152.3953,53.2781 Q152.2781,53.2781 152.2031,53.2266 Q152.1281,53.175 152.0953,53.0391 Q152.0812,52.9453 152.0297,52.8938 Q151.9359,52.7953 151.7672,52.7391 Q151.5984,52.6781 151.4297,52.6781 Q151.2188,52.6781 151.0406,52.7625 Q150.8672,52.8469 150.7313,53.0344 Q150.5953,53.2219 150.5953,53.4797 L150.5953,53.7563 Q150.5953,54.0656 150.8484,54.2719 Q151.1016,54.4781 151.5516,54.4781 Q151.8188,54.4781 152.0063,54.4172 Q152.1141,54.3844 152.2359,54.2766 Q152.3156,54.2156 152.3578,54.1969 Q152.4,54.1781 152.4516,54.1781 Q152.55,54.1781 152.6203,54.2578 Q152.6953,54.3328 152.6953,54.4406 Q152.6953,54.5437 152.5922,54.6656 Q152.4422,54.8438 152.2031,54.9422 Q151.8891,55.0781 151.5047,55.0781 Q151.0547,55.0781 150.6938,54.9 Q150.4031,54.7594 150.1969,54.4547 Q149.9953,54.15 149.9953,53.7891 L149.9953,53.4609 Q149.9953,53.0859 150.1734,52.7578 Q150.3563,52.4297 150.6703,52.2563 Q150.9891,52.0781 151.3453,52.0781 Q151.5609,52.0781 151.7484,52.1531 Q151.9359,52.2281 152.0953,52.3781 Z " fill="#000000"/><text fill="#000000" font-family="sans-serif" font-size="3.6" font-style="italic" lengthAdjust="spacing" textLength="30" x="155.0953" y="52.6371">«Aggregate Root»</text><text fill="#000000" font-family="sans-serif" font-size="3.6" lengthAdjust="spacing" textLength="8.1" x="166.0453" y="57.1652">Task</text><line style="stroke:#A80036;stroke-width:0.44999999999999996;" x1="147.2953" x2="185.0953" y1="59.4563" y2="59.4563"/><line style="stroke:#A80036;stroke-width:0.44999999999999996;" x1="147.2953" x2="185.0953" y1="61.8562" y2="61.8562"/><!--MD5=[a7bb2077efe50bdbb8873ea156534d6e]
class EffortUpdate--><rect codeLine="45" fill="#FEFECE" filter="url(#f14bo1x4m7sdh8)" height="16.8563" id="EffortUpdate" style="stroke:#A80036;stroke-width:0.44999999999999996;" width="33.9" x="149.5453" y="82.2"/><ellipse cx="154.0453" cy="88.2281" fill="#ADD1B2" rx="3.3" ry="3.3" style="stroke:#A80036;stroke-width:0.3;"/><path d="M154.6453,87.1781 Q154.7062,87.0281 154.7766,86.9531 Q154.8469,86.8781 154.9266,86.8781 Q155.0672,86.8781 155.1563,86.9625 Q155.2453,87.0469 155.2453,87.2437 L155.2453,87.7125 Q155.2453,87.9094 155.1609,87.9937 Q155.0766,88.0781 154.9453,88.0781 Q154.8281,88.0781 154.7531,88.0266 Q154.6781,87.975 154.6453,87.8391 Q154.6313,87.7453 154.5797,87.6938 Q154.4859,87.5953 154.3172,87.5391 Q154.1484,87.4781 153.9797,87.4781 Q153.7687,87.4781 153.5906,87.5625 Q153.4172,87.6469 153.2813,87.8344 Q153.1453,88.0219 153.1453,88.2797 L153.1453,88.5562 Q153.1453,88.8656 153.3984,89.0719 Q153.6516,89.2781 154.1016,89.2781 Q154.3688,89.2781 154.5563,89.2172 Q154.6641,89.1844 154.7859,89.0766 Q154.8656,89.0156 154.9078,88.9969 Q154.95,88.9781 155.0016,88.9781 Q155.1,88.9781 155.1703,89.0578 Q155.2453,89.1328 155.2453,89.2406 Q155.2453,89.3438 155.1422,89.4656 Q154.9922,89.6438 154.7531,89.7422 Q154.4391,89.8781 154.0547,89.8781 Q153.6047,89.8781 153.2438,89.7 Q152.9531,89.5594 152.7469,89.2547 Q152.5453,88.95 152.5453,88.5891 L152.5453,88.2609 Q152.5453,87.8859 152.7234,87.5578 Q152.9063,87.2297 153.2203,87.0562 Q153.5391,86.8781 153.8953,86.8781 Q154.1109,86.8781 154.2984,86.9531 Q154.4859,87.0281 154.6453,87.1781 Z " fill="#000000"/><text fill="#000000" font-family="sans-serif" font-size="3.6" font-style="italic" lengthAdjust="spacing" textLength="25.5" x="157.6453" y="87.4371">«Value Object»</text><text fill="#000000" font-family="sans-serif" font-size="3.6" lengthAdjust="spacing" textLength="20.4" x="160.1953" y="91.9652">EffortUpdate</text><line style="stroke:#A80036;stroke-width:0.44999999999999996;" x1="149.8453" x2="183.1453" y1="94.2563" y2="94.2563"/><line style="stroke:#A80036;stroke-width:0.44999999999999996;" x1="149.8453" x2="183.1453" y1="96.6563" y2="96.6563"/><!--MD5=[8636965623bda5df623917fbab529f2a]
class TaskID--><rect codeLine="46" fill="#FEFECE" filter="url(#f14bo1x4m7sdh8)" height="16.8563" id="TaskID" style="stroke:#A80036;stroke-width:0.44999999999999996;" width="38.7" x="146.5453" y="12.6"/><ellipse cx="151.0453" cy="18.6281" fill="#ADD1B2" rx="3.3" ry="3.3" style="stroke:#A80036;stroke-width:0.3;"/><path d="M151.6453,17.5781 Q151.7062,17.4281 151.7766,17.3531 Q151.8469,17.2781 151.9266,17.2781 Q152.0672,17.2781 152.1563,17.3625 Q152.2453,17.4469 152.2453,17.6438 L152.2453,18.1125 Q152.2453,18.3094 152.1609,18.3938 Q152.0766,18.4781 151.9453,18.4781 Q151.8281,18.4781 151.7531,18.4266 Q151.6781,18.375 151.6453,18.2391 Q151.6313,18.1453 151.5797,18.0938 Q151.4859,17.9953 151.3172,17.9391 Q151.1484,17.8781 150.9797,17.8781 Q150.7687,17.8781 150.5906,17.9625 Q150.4172,18.0469 150.2813,18.2344 Q150.1453,18.4219 150.1453,18.6797 L150.1453,18.9563 Q150.1453,19.2656 150.3984,19.4719 Q150.6516,19.6781 151.1016,19.6781 Q151.3688,19.6781 151.5563,19.6172 Q151.6641,19.5844 151.7859,19.4766 Q151.8656,19.4156 151.9078,19.3969 Q151.95,19.3781 152.0016,19.3781 Q152.1,19.3781 152.1703,19.4578 Q152.2453,19.5328 152.2453,19.6406 Q152.2453,19.7438 152.1422,19.8656 Q151.9922,20.0438 151.7531,20.1422 Q151.4391,20.2781 151.0547,20.2781 Q150.6047,20.2781 150.2438,20.1 Q149.9531,19.9594 149.7469,19.6547 Q149.5453,19.35 149.5453,18.9891 L149.5453,18.6609 Q149.5453,18.2859 149.7234,17.9578 Q149.9063,17.6297 150.2203,17.4563 Q150.5391,17.2781 150.8953,17.2781 Q151.1109,17.2781 151.2984,17.3531 Q151.4859,17.4281 151.6453,17.5781 Z " fill="#000000"/><text fill="#000000" font-family="sans-serif" font-size="3.6" font-style="italic" lengthAdjust="spacing" textLength="30.3" x="154.6453" y="17.8371">«Value Object ID»</text><text fill="#000000" font-family="sans-serif" font-size="3.6" lengthAdjust="spacing" textLength="11.7" x="163.9453" y="22.3652">TaskID</text><line style="stroke:#A80036;stroke-width:0.44999999999999996;" x1="146.8453" x2="184.9453" y1="24.6563" y2="24.6563"/><line style="stroke:#A80036;stroke-width:0.44999999999999996;" x1="146.8453" x2="184.9453" y1="27.0563" y2="27.0563"/><!--MD5=[f9a29335b499db729be669fd1bd54958]
class Account--><rect codeLine="50" fill="#FEFECE" filter="url(#f14bo1x4m7sdh8)" height="16.8563" id="Account" style="stroke:#A80036;stroke-width:0.44999999999999996;" width="38.4" x="14.3953" y="231"/><ellipse cx="18.8953" cy="237.0281" fill="#ADD1B2" rx="3.3" ry="3.3" style="stroke:#A80036;stroke-width:0.3;"/><path d="M19.4953,235.9781 Q19.5563,235.8281 19.6266,235.7531 Q19.6969,235.6781 19.7766,235.6781 Q19.9172,235.6781 20.0062,235.7625 Q20.0953,235.8469 20.0953,236.0438 L20.0953,236.5125 Q20.0953,236.7094 20.0109,236.7938 Q19.9266,236.8781 19.7953,236.8781 Q19.6781,236.8781 19.6031,236.8266 Q19.5281,236.775 19.4953,236.6391 Q19.4813,236.5453 19.4297,236.4937 Q19.3359,236.3953 19.1672,236.3391 Q18.9984,236.2781 18.8297,236.2781 Q18.6188,236.2781 18.4406,236.3625 Q18.2672,236.4469 18.1312,236.6344 Q17.9953,236.8219 17.9953,237.0797 L17.9953,237.3563 Q17.9953,237.6656 18.2484,237.8719 Q18.5016,238.0781 18.9516,238.0781 Q19.2188,238.0781 19.4063,238.0172 Q19.5141,237.9844 19.6359,237.8766 Q19.7156,237.8156 19.7578,237.7969 Q19.8,237.7781 19.8516,237.7781 Q19.95,237.7781 20.0203,237.8578 Q20.0953,237.9328 20.0953,238.0406 Q20.0953,238.1437 19.9922,238.2656 Q19.8422,238.4438 19.6031,238.5422 Q19.2891,238.6781 18.9047,238.6781 Q18.4547,238.6781 18.0938,238.5 Q17.8031,238.3594 17.5969,238.0547 Q17.3953,237.75 17.3953,237.3891 L17.3953,237.0609 Q17.3953,236.6859 17.5734,236.3578 Q17.7562,236.0297 18.0703,235.8563 Q18.3891,235.6781 18.7453,235.6781 Q18.9609,235.6781 19.1484,235.7531 Q19.3359,235.8281 19.4953,235.9781 Z " fill="#000000"/><text fill="#000000" font-family="sans-serif" font-size="3.6" font-style="italic" lengthAdjust="spacing" textLength="30" x="22.4953" y="236.2371">«Aggregate Root»</text><text fill="#000000" font-family="sans-serif" font-size="3.6" lengthAdjust="spacing" textLength="12.9" x="31.0453" y="240.7652">Account</text><line style="stroke:#A80036;stroke-width:0.44999999999999996;" x1="14.6953" x2="52.4953" y1="243.0562" y2="243.0562"/><line style="stroke:#A80036;stroke-width:0.44999999999999996;" x1="14.6953" x2="52.4953" y1="245.4562" y2="245.4562"/><!--MD5=[2f01b1126ff33a0669651ec2488a5ef9]
class Password--><rect codeLine="51" fill="#FEFECE" filter="url(#f14bo1x4m7sdh8)" height="16.8563" id="Password" style="stroke:#A80036;stroke-width:0.44999999999999996;" width="33.9" x="16.6453" y="265.8"/><ellipse cx="21.1453" cy="271.8281" fill="#ADD1B2" rx="3.3" ry="3.3" style="stroke:#A80036;stroke-width:0.3;"/><path d="M21.7453,270.7781 Q21.8063,270.6281 21.8766,270.5531 Q21.9469,270.4781 22.0266,270.4781 Q22.1672,270.4781 22.2562,270.5625 Q22.3453,270.6469 22.3453,270.8438 L22.3453,271.3125 Q22.3453,271.5094 22.2609,271.5938 Q22.1766,271.6781 22.0453,271.6781 Q21.9281,271.6781 21.8531,271.6266 Q21.7781,271.575 21.7453,271.4391 Q21.7313,271.3453 21.6797,271.2938 Q21.5859,271.1953 21.4172,271.1391 Q21.2484,271.0781 21.0797,271.0781 Q20.8688,271.0781 20.6906,271.1625 Q20.5172,271.2469 20.3812,271.4344 Q20.2453,271.6219 20.2453,271.8797 L20.2453,272.1563 Q20.2453,272.4656 20.4984,272.6719 Q20.7516,272.8781 21.2016,272.8781 Q21.4688,272.8781 21.6563,272.8172 Q21.7641,272.7844 21.8859,272.6766 Q21.9656,272.6156 22.0078,272.5969 Q22.05,272.5781 22.1016,272.5781 Q22.2,272.5781 22.2703,272.6578 Q22.3453,272.7328 22.3453,272.8406 Q22.3453,272.9437 22.2422,273.0656 Q22.0922,273.2438 21.8531,273.3422 Q21.5391,273.4781 21.1547,273.4781 Q20.7047,273.4781 20.3438,273.3 Q20.0531,273.1594 19.8469,272.8547 Q19.6453,272.55 19.6453,272.1891 L19.6453,271.8609 Q19.6453,271.4859 19.8234,271.1578 Q20.0062,270.8297 20.3203,270.6563 Q20.6391,270.4781 20.9953,270.4781 Q21.2109,270.4781 21.3984,270.5531 Q21.5859,270.6281 21.7453,270.7781 Z " fill="#000000"/><text fill="#000000" font-family="sans-serif" font-size="3.6" font-style="italic" lengthAdjust="spacing" textLength="25.5" x="24.7453" y="271.0371">«Value Object»</text><text fill="#000000" font-family="sans-serif" font-size="3.6" lengthAdjust="spacing" textLength="16.8" x="29.0953" y="275.5652">Password</text><line style="stroke:#A80036;stroke-width:0.44999999999999996;" x1="16.9453" x2="50.2453" y1="277.8563" y2="277.8563"/><line style="stroke:#A80036;stroke-width:0.44999999999999996;" x1="16.9453" x2="50.2453" y1="280.2562" y2="280.2562"/><!--MD5=[84af69d93ff817f9b2620e12f2d57f8b]
class PasswordHash--><rect codeLine="52" fill="#FEFECE" filter="url(#f14bo1x4m7sdh8)" height="16.8563" id="PasswordHash" style="stroke:#A80036;stroke-width:0.44999999999999996;" width="35.4" x="15.8953" y="300.6"/><ellipse cx="20.3953" cy="306.6281" fill="#ADD1B2" rx="3.3" ry="3.3" style="stroke:#A80036;stroke-width:0.3;"/><path d="M20.9953,305.5781 Q21.0563,305.4281 21.1266,305.3531 Q21.1969,305.2781 21.2766,305.2781 Q21.4172,305.2781 21.5062,305.3625 Q21.5953,305.4469 21.5953,305.6438 L21.5953,306.1125 Q21.5953,306.3094 21.5109,306.3938 Q21.4266,306.4781 21.2953,306.4781 Q21.1781,306.4781 21.1031,306.4266 Q21.0281,306.375 20.9953,306.2391 Q20.9813,306.1453 20.9297,306.0938 Q20.8359,305.9953 20.6672,305.9391 Q20.4984,305.8781 20.3297,305.8781 Q20.1188,305.8781 19.9406,305.9625 Q19.7672,306.0469 19.6312,306.2344 Q19.4953,306.4219 19.4953,306.6797 L19.4953,306.9563 Q19.4953,307.2656 19.7484,307.4719 Q20.0016,307.6781 20.4516,307.6781 Q20.7188,307.6781 20.9063,307.6172 Q21.0141,307.5844 21.1359,307.4766 Q21.2156,307.4156 21.2578,307.3969 Q21.3,307.3781 21.3516,307.3781 Q21.45,307.3781 21.5203,307.4578 Q21.5953,307.5328 21.5953,307.6406 Q21.5953,307.7438 21.4922,307.8656 Q21.3422,308.0438 21.1031,308.1422 Q20.7891,308.2781 20.4047,308.2781 Q19.9547,308.2781 19.5938,308.1 Q19.3031,307.9594 19.0969,307.6547 Q18.8953,307.35 18.8953,306.9891 L18.8953,306.6609 Q18.8953,306.2859 19.0734,305.9578 Q19.2562,305.6297 19.5703,305.4563 Q19.8891,305.2781 20.2453,305.2781 Q20.4609,305.2781 20.6484,305.3531 Q20.8359,305.4281 20.9953,305.5781 Z " fill="#000000"/><text fill="#000000" font-family="sans-serif" font-size="3.6" font-style="italic" lengthAdjust="spacing" textLength="25.5" x="24.7453" y="305.8371">«Value Object»</text><text fill="#000000" font-family="sans-serif" font-size="3.6" lengthAdjust="spacing" textLength="25.8" x="24.5953" y="310.3652">PasswordHash</text><line style="stroke:#A80036;stroke-width:0.44999999999999996;" x1="16.1953" x2="50.9953" y1="312.6563" y2="312.6563"/><line style="stroke:#A80036;stroke-width:0.44999999999999996;" x1="16.1953" x2="50.9953" y1="315.0563" y2="315.0563"/><!--MD5=[78bec0fde86ad92ec1dc3fb343b83709]
class Email--><rect codeLine="53" fill="#FEFECE" filter="url(#f14bo1x4m7sdh8)" height="16.8563" id="Email" style="stroke:#A80036;stroke-width:0.44999999999999996;" width="33.9" x="63.4453" y="231"/><ellipse cx="67.9453" cy="237.0281" fill="#ADD1B2" rx="3.3" ry="3.3" style="stroke:#A80036;stroke-width:0.3;"/><path d="M68.5453,235.9781 Q68.6063,235.8281 68.6766,235.7531 Q68.7469,235.6781 68.8266,235.6781 Q68.9672,235.6781 69.0562,235.7625 Q69.1453,235.8469 69.1453,236.0438 L69.1453,236.5125 Q69.1453,236.7094 69.0609,236.7938 Q68.9766,236.8781 68.8453,236.8781 Q68.7281,236.8781 68.6531,236.8266 Q68.5781,236.775 68.5453,236.6391 Q68.5313,236.5453 68.4797,236.4937 Q68.3859,236.3953 68.2172,236.3391 Q68.0484,236.2781 67.8797,236.2781 Q67.6688,236.2781 67.4906,236.3625 Q67.3172,236.4469 67.1812,236.6344 Q67.0453,236.8219 67.0453,237.0797 L67.0453,237.3563 Q67.0453,237.6656 67.2984,237.8719 Q67.5516,238.0781 68.0016,238.0781 Q68.2688,238.0781 68.4563,238.0172 Q68.5641,237.9844 68.6859,237.8766 Q68.7656,237.8156 68.8078,237.7969 Q68.85,237.7781 68.9016,237.7781 Q69,237.7781 69.0703,237.8578 Q69.1453,237.9328 69.1453,238.0406 Q69.1453,238.1437 69.0422,238.2656 Q68.8922,238.4438 68.6531,238.5422 Q68.3391,238.6781 67.9547,238.6781 Q67.5047,238.6781 67.1438,238.5 Q66.8531,238.3594 66.6469,238.0547 Q66.4453,237.75 66.4453,237.3891 L66.4453,237.0609 Q66.4453,236.6859 66.6234,236.3578 Q66.8062,236.0297 67.1203,235.8563 Q67.4391,235.6781 67.7953,235.6781 Q68.0109,235.6781 68.1984,235.7531 Q68.3859,235.8281 68.5453,235.9781 Z " fill="#000000"/><text fill="#000000" font-family="sans-serif" font-size="3.6" font-style="italic" lengthAdjust="spacing" textLength="25.5" x="71.5453" y="236.2371">«Value Object»</text><text fill="#000000" font-family="sans-serif" font-size="3.6" lengthAdjust="spacing" textLength="9.6" x="79.4953" y="240.7652">Email</text><line style="stroke:#A80036;stroke-width:0.44999999999999996;" x1="63.7453" x2="97.0453" y1="243.0562" y2="243.0562"/><line style="stroke:#A80036;stroke-width:0.44999999999999996;" x1="63.7453" x2="97.0453" y1="245.4562" y2="245.4562"/><!--MD5=[8fee01972c076f87330953a20a6f03c9]
class AccountID--><rect codeLine="54" fill="#FEFECE" filter="url(#f14bo1x4m7sdh8)" height="16.8563" id="AccountID" style="stroke:#A80036;stroke-width:0.44999999999999996;" width="38.7" x="58.6453" y="196.2"/><ellipse cx="63.1453" cy="202.2281" fill="#ADD1B2" rx="3.3" ry="3.3" style="stroke:#A80036;stroke-width:0.3;"/><path d="M63.7453,201.1781 Q63.8063,201.0281 63.8766,200.9531 Q63.9469,200.8781 64.0266,200.8781 Q64.1672,200.8781 64.2563,200.9625 Q64.3453,201.0469 64.3453,201.2438 L64.3453,201.7125 Q64.3453,201.9094 64.2609,201.9938 Q64.1766,202.0781 64.0453,202.0781 Q63.9281,202.0781 63.8531,202.0266 Q63.7781,201.975 63.7453,201.8391 Q63.7312,201.7453 63.6797,201.6938 Q63.5859,201.5953 63.4172,201.5391 Q63.2484,201.4781 63.0797,201.4781 Q62.8688,201.4781 62.6906,201.5625 Q62.5172,201.6469 62.3812,201.8344 Q62.2453,202.0219 62.2453,202.2797 L62.2453,202.5563 Q62.2453,202.8656 62.4984,203.0719 Q62.7516,203.2781 63.2016,203.2781 Q63.4688,203.2781 63.6563,203.2172 Q63.7641,203.1844 63.8859,203.0766 Q63.9656,203.0156 64.0078,202.9969 Q64.05,202.9781 64.1016,202.9781 Q64.2,202.9781 64.2703,203.0578 Q64.3453,203.1328 64.3453,203.2406 Q64.3453,203.3438 64.2422,203.4656 Q64.0922,203.6437 63.8531,203.7422 Q63.5391,203.8781 63.1547,203.8781 Q62.7047,203.8781 62.3438,203.7 Q62.0531,203.5594 61.8469,203.2547 Q61.6453,202.95 61.6453,202.5891 L61.6453,202.2609 Q61.6453,201.8859 61.8234,201.5578 Q62.0062,201.2297 62.3203,201.0563 Q62.6391,200.8781 62.9953,200.8781 Q63.2109,200.8781 63.3984,200.9531 Q63.5859,201.0281 63.7453,201.1781 Z " fill="#000000"/><text fill="#000000" font-family="sans-serif" font-size="3.6" font-style="italic" lengthAdjust="spacing" textLength="30.3" x="66.7453" y="201.4371">«Value Object ID»</text><text fill="#000000" font-family="sans-serif" font-size="3.6" lengthAdjust="spacing" textLength="16.5" x="73.6453" y="205.9652">AccountID</text><line style="stroke:#A80036;stroke-width:0.44999999999999996;" x1="58.9453" x2="97.0453" y1="208.2563" y2="208.2563"/><line style="stroke:#A80036;stroke-width:0.44999999999999996;" x1="58.9453" x2="97.0453" y1="210.6563" y2="210.6563"/><!--MD5=[7b57f7066b803747d2119f99dd1555d4]
class Profile--><rect codeLine="59" fill="#FEFECE" filter="url(#f14bo1x4m7sdh8)" height="16.8563" id="Profile" style="stroke:#A80036;stroke-width:0.44999999999999996;" width="38.4" x="58.7953" y="121.8"/><ellipse cx="63.2953" cy="127.8281" fill="#ADD1B2" rx="3.3" ry="3.3" style="stroke:#A80036;stroke-width:0.3;"/><path d="M63.8953,126.7781 Q63.9563,126.6281 64.0266,126.5531 Q64.0969,126.4781 64.1766,126.4781 Q64.3172,126.4781 64.4063,126.5625 Q64.4953,126.6469 64.4953,126.8438 L64.4953,127.3125 Q64.4953,127.5094 64.4109,127.5938 Q64.3266,127.6781 64.1953,127.6781 Q64.0781,127.6781 64.0031,127.6266 Q63.9281,127.575 63.8953,127.4391 Q63.8812,127.3453 63.8297,127.2937 Q63.7359,127.1953 63.5672,127.1391 Q63.3984,127.0781 63.2297,127.0781 Q63.0188,127.0781 62.8406,127.1625 Q62.6672,127.2469 62.5313,127.4344 Q62.3953,127.6219 62.3953,127.8797 L62.3953,128.1563 Q62.3953,128.4656 62.6484,128.6719 Q62.9016,128.8781 63.3516,128.8781 Q63.6188,128.8781 63.8063,128.8172 Q63.9141,128.7844 64.0359,128.6766 Q64.1156,128.6156 64.1578,128.5969 Q64.2,128.5781 64.2516,128.5781 Q64.35,128.5781 64.4203,128.6578 Q64.4953,128.7328 64.4953,128.8406 Q64.4953,128.9438 64.3922,129.0656 Q64.2422,129.2438 64.0031,129.3422 Q63.6891,129.4781 63.3047,129.4781 Q62.8547,129.4781 62.4938,129.3 Q62.2031,129.1594 61.9969,128.8547 Q61.7953,128.55 61.7953,128.1891 L61.7953,127.8609 Q61.7953,127.4859 61.9734,127.1578 Q62.1563,126.8297 62.4703,126.6563 Q62.7891,126.4781 63.1453,126.4781 Q63.3609,126.4781 63.5484,126.5531 Q63.7359,126.6281 63.8953,126.7781 Z " fill="#000000"/><text fill="#000000" font-family="sans-serif" font-size="3.6" font-style="italic" lengthAdjust="spacing" textLength="30" x="66.8953" y="127.0371">«Aggregate Root»</text><text fill="#000000" font-family="sans-serif" font-size="3.6" lengthAdjust="spacing" textLength="10.5" x="76.6453" y="131.5652">Profile</text><line style="stroke:#A80036;stroke-width:0.44999999999999996;" x1="59.0953" x2="96.8953" y1="133.8563" y2="133.8563"/><line style="stroke:#A80036;stroke-width:0.44999999999999996;" x1="59.0953" x2="96.8953" y1="136.2563" y2="136.2563"/><!--MD5=[6c0cdf94d3e5a9cc41f8793f8de4f7ae]
class ProfileID--><rect codeLine="60" fill="#FEFECE" filter="url(#f14bo1x4m7sdh8)" height="16.8563" id="ProfileID" style="stroke:#A80036;stroke-width:0.44999999999999996;" width="38.7" x="58.6453" y="82.2"/><ellipse cx="63.1453" cy="88.2281" fill="#ADD1B2" rx="3.3" ry="3.3" style="stroke:#A80036;stroke-width:0.3;"/><path d="M63.7453,87.1781 Q63.8063,87.0281 63.8766,86.9531 Q63.9469,86.8781 64.0266,86.8781 Q64.1672,86.8781 64.2563,86.9625 Q64.3453,87.0469 64.3453,87.2437 L64.3453,87.7125 Q64.3453,87.9094 64.2609,87.9937 Q64.1766,88.0781 64.0453,88.0781 Q63.9281,88.0781 63.8531,88.0266 Q63.7781,87.975 63.7453,87.8391 Q63.7312,87.7453 63.6797,87.6938 Q63.5859,87.5953 63.4172,87.5391 Q63.2484,87.4781 63.0797,87.4781 Q62.8688,87.4781 62.6906,87.5625 Q62.5172,87.6469 62.3812,87.8344 Q62.2453,88.0219 62.2453,88.2797 L62.2453,88.5562 Q62.2453,88.8656 62.4984,89.0719 Q62.7516,89.2781 63.2016,89.2781 Q63.4688,89.2781 63.6563,89.2172 Q63.7641,89.1844 63.8859,89.0766 Q63.9656,89.0156 64.0078,88.9969 Q64.05,88.9781 64.1016,88.9781 Q64.2,88.9781 64.2703,89.0578 Q64.3453,89.1328 64.3453,89.2406 Q64.3453,89.3438 64.2422,89.4656 Q64.0922,89.6438 63.8531,89.7422 Q63.5391,89.8781 63.1547,89.8781 Q62.7047,89.8781 62.3438,89.7 Q62.0531,89.5594 61.8469,89.2547 Q61.6453,88.95 61.6453,88.5891 L61.6453,88.2609 Q61.6453,87.8859 61.8234,87.5578 Q62.0062,87.2297 62.3203,87.0562 Q62.6391,86.8781 62.9953,86.8781 Q63.2109,86.8781 63.3984,86.9531 Q63.5859,87.0281 63.7453,87.1781 Z " fill="#000000"/><text fill="#000000" font-family="sans-serif" font-size="3.6" font-style="italic" lengthAdjust="spacing" textLength="30.3" x="66.7453" y="87.4371">«Value Object ID»</text><text fill="#000000" font-family="sans-serif" font-size="3.6" lengthAdjust="spacing" textLength="14.1" x="74.8453" y="91.9652">ProfileID</text><line style="stroke:#A80036;stroke-width:0.44999999999999996;" x1="58.9453" x2="97.0453" y1="94.2563" y2="94.2563"/><line style="stroke:#A80036;stroke-width:0.44999999999999996;" x1="58.9453" x2="97.0453" y1="96.6563" y2="96.6563"/><!--MD5=[eab6283b872a923979a6d70317671905]
class ProfileRequest--><rect codeLine="61" fill="#FEFECE" filter="url(#f14bo1x4m7sdh8)" height="16.8563" id="ProfileRequest" style="stroke:#A80036;stroke-width:0.44999999999999996;" width="34.2" x="60.8953" y="156.6"/><ellipse cx="65.3953" cy="162.6281" fill="#ADD1B2" rx="3.3" ry="3.3" style="stroke:#A80036;stroke-width:0.3;"/><path d="M65.9953,161.5781 Q66.0562,161.4281 66.1266,161.3531 Q66.1969,161.2781 66.2766,161.2781 Q66.4172,161.2781 66.5063,161.3625 Q66.5953,161.4469 66.5953,161.6437 L66.5953,162.1125 Q66.5953,162.3094 66.5109,162.3937 Q66.4266,162.4781 66.2953,162.4781 Q66.1781,162.4781 66.1031,162.4266 Q66.0281,162.375 65.9953,162.2391 Q65.9813,162.1453 65.9297,162.0938 Q65.8359,161.9953 65.6672,161.9391 Q65.4984,161.8781 65.3297,161.8781 Q65.1187,161.8781 64.9406,161.9625 Q64.7672,162.0469 64.6313,162.2344 Q64.4953,162.4219 64.4953,162.6797 L64.4953,162.9562 Q64.4953,163.2656 64.7484,163.4719 Q65.0016,163.6781 65.4516,163.6781 Q65.7188,163.6781 65.9063,163.6172 Q66.0141,163.5844 66.1359,163.4766 Q66.2156,163.4156 66.2578,163.3969 Q66.3,163.3781 66.3516,163.3781 Q66.45,163.3781 66.5203,163.4578 Q66.5953,163.5328 66.5953,163.6406 Q66.5953,163.7438 66.4922,163.8656 Q66.3422,164.0438 66.1031,164.1422 Q65.7891,164.2781 65.4047,164.2781 Q64.9547,164.2781 64.5938,164.1 Q64.3031,163.9594 64.0969,163.6547 Q63.8953,163.35 63.8953,162.9891 L63.8953,162.6609 Q63.8953,162.2859 64.0734,161.9578 Q64.2563,161.6297 64.5703,161.4562 Q64.8891,161.2781 65.2453,161.2781 Q65.4609,161.2781 65.6484,161.3531 Q65.8359,161.4281 65.9953,161.5781 Z " fill="#000000"/><text fill="#000000" font-family="sans-serif" font-size="3.6" font-style="italic" lengthAdjust="spacing" textLength="25.5" x="69.1453" y="161.8371">«Value Object»</text><text fill="#000000" font-family="sans-serif" font-size="3.6" lengthAdjust="spacing" textLength="24.6" x="69.5953" y="166.3652">ProfileRequest</text><line style="stroke:#A80036;stroke-width:0.44999999999999996;" x1="61.1953" x2="94.7953" y1="168.6563" y2="168.6563"/><line style="stroke:#A80036;stroke-width:0.44999999999999996;" x1="61.1953" x2="94.7953" y1="171.0563" y2="171.0563"/><!--MD5=[34f760793e3fd4a298f00de77f52f4c1]
link Sprint to ProjectID--><path codeLine="65" d="M211.2253,138.66 C206.0473,143.322 200.2453,149.619 197.0953,156.6 C180.4573,193.482 183.0853,243.417 185.1373,264.201 " fill="none" id="Sprint-to-ProjectID" style="stroke:#A80036;stroke-width:0.3;"/><polygon fill="#A80036" points="185.2963,265.764,186.2201,262.9575,185.1462,264.2715,183.8321,263.1976,185.2963,265.764" style="stroke:#A80036;stroke-width:0.3;"/><text fill="#000000" font-family="sans-serif" font-size="3.9" lengthAdjust="spacing" textLength="21.3" x="187.5281" y="262.5124">belongs to 1</text><!--MD5=[500a63327dbbfa52c0d7334548afc735]
reverse link ProjectID to Project--><path codeLine="66" d="M186.2953,284.169 C186.2953,289.332 186.2953,295.62 186.2953,300.534 " fill="none" id="ProjectID-backto-Project" style="stroke:#A80036;stroke-width:0.3;"/><polygon fill="#A80036" points="186.2953,282.606,185.0953,285.306,186.2953,284.106,187.4953,285.306,186.2953,282.606" style="stroke:#A80036;stroke-width:0.3;"/><text fill="#000000" font-family="sans-serif" font-size="3.9" lengthAdjust="spacing" textLength="24" x="159.5203" y="297.2755">identified by 1</text><!--MD5=[f925cac52a3c0c77416fd87aaff6de54]
link Sprint to SprintBacklogItem--><path codeLine="67" d="M221.7673,138.606 C221.8093,143.511 221.8633,149.796 221.9113,154.968 " fill="none" id="Sprint-to-SprintBacklogItem" style="stroke:#A80036;stroke-width:0.3;"/><polygon fill="#A80036" points="221.9233,156.534,223.1001,153.8238,221.9105,155.0341,220.7002,153.8444,221.9233,156.534" style="stroke:#A80036;stroke-width:0.3;"/><text fill="#000000" font-family="sans-serif" font-size="3.9" lengthAdjust="spacing" textLength="9" x="211.866" y="153.2755">has *</text><!--MD5=[11a9b10f8a1c3af5028b066010f1abba]
reverse link SprintID to Sprint--><path codeLine="68" d="M221.6953,100.599 C221.6953,107.106 221.6953,115.575 221.6953,121.734 " fill="none" id="SprintID-backto-Sprint" style="stroke:#A80036;stroke-width:0.3;"/><polygon fill="#A80036" points="221.6953,99.075,220.4953,101.775,221.6953,100.575,222.8953,101.775,221.6953,99.075" style="stroke:#A80036;stroke-width:0.3;"/><text fill="#000000" font-family="sans-serif" font-size="3.9" lengthAdjust="spacing" textLength="24" x="194.9203" y="118.4755">identified by 1</text><!--MD5=[e58872fd40deaca9fb19019d1e5aa552]
link SprintBacklogItem to UserStoryID--><path codeLine="69" d="M233.7553,173.475 C242.9203,179.847 255.6313,188.682 265.0963,195.264 " fill="none" id="SprintBacklogItem-to-UserStoryID" style="stroke:#A80036;stroke-width:0.3;"/><polygon fill="#A80036" points="266.3503,196.134,264.8112,193.6119,265.1163,195.2813,263.4468,195.5864,266.3503,196.134" style="stroke:#A80036;stroke-width:0.3;"/><text fill="#000000" font-family="sans-serif" font-size="3.9" lengthAdjust="spacing" textLength="21.6" x="239.5368" y="192.8755">represents 1</text><!--MD5=[79ce09aaee9f037382972a3139173705]
reverse link UserStoryID to UserStory--><path codeLine="70" d="M278.0113,214.569 C277.9663,219.732 277.9093,226.02 277.8673,230.934 " fill="none" id="UserStoryID-backto-UserStory" style="stroke:#A80036;stroke-width:0.3;"/><polygon fill="#A80036" points="278.0233,213.006,276.8002,215.6956,278.0105,214.5059,279.2001,215.7162,278.0233,213.006" style="stroke:#A80036;stroke-width:0.3;"/><text fill="#000000" font-family="sans-serif" font-size="3.9" lengthAdjust="spacing" textLength="24" x="251.109" y="227.6755">identified by 1</text><!--MD5=[4d58a0c1179ab81681c63f95dd6e1742]
link Task to SprintID--><path codeLine="71" d="M181.8163,64.2 C184.6333,65.745 187.5223,67.383 190.1953,69 C196.4983,72.81 203.2903,77.346 208.9453,81.249 " fill="none" id="Task-to-SprintID" style="stroke:#A80036;stroke-width:0.3;"/><polygon fill="#A80036" points="210.2113,82.125,208.6722,79.6029,208.9773,81.2723,207.3078,81.5774,210.2113,82.125" style="stroke:#A80036;stroke-width:0.3;"/><text fill="#000000" font-family="sans-serif" font-size="3.9" lengthAdjust="spacing" textLength="25.8" x="179.1968" y="78.938">belongs to 0..1</text><!--MD5=[7367a7ed30ca08a022bf57369b327981]
link Task to UserStoryID--><path codeLine="72" d="M185.4613,56.775 C206.3773,57.912 237.9643,60.948 246.5953,69 C282.8803,102.843 281.1883,169.674 279.1243,194.613 " fill="none" id="Task-to-UserStoryID" style="stroke:#A80036;stroke-width:0.3;"/><polygon fill="#A80036" points="278.9893,196.194,280.4168,193.607,279.1181,194.6995,278.0256,193.4009,278.9893,196.194" style="stroke:#A80036;stroke-width:0.3;"/><text fill="#000000" font-family="sans-serif" font-size="3.9" lengthAdjust="spacing" textLength="25.8" x="282.1792" y="192.9493">belongs to 0..1</text><!--MD5=[0916dc8f7230ae6a01b0ff2068067362]
link Project to CustomerID--><path codeLine="73" d="M197.9923,317.475 C207.1063,323.847 219.7513,332.682 229.1653,339.264 " fill="none" id="Project-to-CustomerID" style="stroke:#A80036;stroke-width:0.3;"/><polygon fill="#A80036" points="230.4133,340.134,228.8842,337.6058,229.1827,339.2764,227.512,339.5748,230.4133,340.134" style="stroke:#A80036;stroke-width:0.3;"/><text fill="#000000" font-family="sans-serif" font-size="3.9" lengthAdjust="spacing" textLength="9.6" x="217.0018" y="336.8755">has 1</text><!--MD5=[d2b31234fa1a8ca613efe716c17804bb]
reverse link CustomerID to Customer--><path codeLine="74" d="M242.0953,358.569 C242.0953,363.732 242.0953,370.02 242.0953,374.934 " fill="none" id="CustomerID-backto-Customer" style="stroke:#A80036;stroke-width:0.3;"/><polygon fill="#A80036" points="242.0953,357.006,240.8953,359.706,242.0953,358.506,243.2953,359.706,242.0953,357.006" style="stroke:#A80036;stroke-width:0.3;"/><text fill="#000000" font-family="sans-serif" font-size="3.9" lengthAdjust="spacing" textLength="24" x="215.3203" y="371.6755">identified by 1</text><!--MD5=[1d43186f752b10ba29980308105808d8]
link Project to ProjectTypologyID--><path codeLine="75" d="M186.2953,317.475 C186.2953,323.637 186.2953,332.109 186.2953,338.61 " fill="none" id="Project-to-ProjectTypologyID" style="stroke:#A80036;stroke-width:0.3;"/><polygon fill="#A80036" points="186.2953,340.134,187.4953,337.434,186.2953,338.634,185.0953,337.434,186.2953,340.134" style="stroke:#A80036;stroke-width:0.3;"/><text fill="#000000" font-family="sans-serif" font-size="3.9" lengthAdjust="spacing" textLength="9.6" x="175.5853" y="336.8755">has 1</text><!--MD5=[cba727688266647126d085ccbd4c21fd]
reverse link ProjectTypologyID to ProjectTypology--><path codeLine="76" d="M186.2953,358.569 C186.2953,363.732 186.2953,370.02 186.2953,374.934 " fill="none" id="ProjectTypologyID-backto-ProjectTypology" style="stroke:#A80036;stroke-width:0.3;"/><polygon fill="#A80036" points="186.2953,357.006,185.0953,359.706,186.2953,358.506,187.4953,359.706,186.2953,357.006" style="stroke:#A80036;stroke-width:0.3;"/><text fill="#000000" font-family="sans-serif" font-size="3.9" lengthAdjust="spacing" textLength="24" x="159.5203" y="371.6755">identified by 1</text><!--MD5=[554728bf5573f0731ee3c8ab01718d3e]
link Project to BusinessSectorID--><path codeLine="77" d="M174.5353,317.475 C165.3703,323.847 152.6593,332.682 143.1943,339.264 " fill="none" id="Project-to-BusinessSectorID" style="stroke:#A80036;stroke-width:0.3;"/><polygon fill="#A80036" points="141.9403,340.134,144.8438,339.5864,143.1744,339.2813,143.4795,337.6119,141.9403,340.134" style="stroke:#A80036;stroke-width:0.3;"/><text fill="#000000" font-family="sans-serif" font-size="3.9" lengthAdjust="spacing" textLength="9.6" x="133.9463" y="336.8755">has 1</text><!--MD5=[278138e0d06fa0bbc22e173f3719257d]
reverse link BusinessSectorID to BusinessSector--><path codeLine="78" d="M130.1953,358.569 C130.1953,363.732 130.1953,370.02 130.1953,374.934 " fill="none" id="BusinessSectorID-backto-BusinessSector" style="stroke:#A80036;stroke-width:0.3;"/><polygon fill="#A80036" points="130.1953,357.006,128.9953,359.706,130.1953,358.506,131.3953,359.706,130.1953,357.006" style="stroke:#A80036;stroke-width:0.3;"/><text fill="#000000" font-family="sans-serif" font-size="3.9" lengthAdjust="spacing" textLength="24" x="103.4203" y="371.6755">identified by 1</text><!--MD5=[0ea620fd38f2b11c906917631b4f4cb3]
link Resource to ProjectID--><path codeLine="79" d="M145.3003,173.484 C148.5223,176.217 151.7923,179.472 154.1953,183 C158.9383,189.966 176.0893,242.241 183.1873,264.216 " fill="none" id="Resource-to-ProjectID" style="stroke:#A80036;stroke-width:0.3;"/><polygon fill="#A80036" points="183.6793,265.743,183.9958,262.8053,183.2204,264.3149,181.7109,263.5395,183.6793,265.743" style="stroke:#A80036;stroke-width:0.3;"/><text fill="#000000" font-family="sans-serif" font-size="3.9" lengthAdjust="spacing" textLength="27.6" x="152.2831" y="262.4865">is allocated to 1</text><!--MD5=[50d80603edadfb3ae453680e5d462087]
reverse link ResourceID to Resource--><path codeLine="80" d="M133.7953,140.169 C133.7953,145.332 133.7953,151.62 133.7953,156.534 " fill="none" id="ResourceID-backto-Resource" style="stroke:#A80036;stroke-width:0.3;"/><polygon fill="#A80036" points="133.7953,138.606,132.5953,141.306,133.7953,140.106,134.9953,141.306,133.7953,138.606" style="stroke:#A80036;stroke-width:0.3;"/><text fill="#000000" font-family="sans-serif" font-size="3.9" lengthAdjust="spacing" textLength="24" x="107.0203" y="153.2755">identified by 1</text><!--MD5=[04c453db577a444e0cb5ed20ff2e25a5]
link Resource to Role--><path codeLine="81" d="M133.4173,173.475 C133.1323,179.637 132.7423,188.109 132.4423,194.61 " fill="none" id="Resource-to-Role" style="stroke:#A80036;stroke-width:0.3;"/><polygon fill="#A80036" points="132.3733,196.134,133.6957,193.4918,132.442,194.6356,131.2982,193.3819,132.3733,196.134" style="stroke:#A80036;stroke-width:0.3;"/><text fill="#000000" font-family="sans-serif" font-size="3.9" lengthAdjust="spacing" textLength="9.6" x="121.7507" y="192.8755">has 1</text><!--MD5=[1849eb8ef8cdd3c564121f80cea7bdc0]
link EffortUpdate to ResourceID--><path codeLine="82" d="M159.6403,99.075 C154.3873,105.342 147.1303,113.994 141.6433,120.54 " fill="none" id="EffortUpdate-to-ResourceID" style="stroke:#A80036;stroke-width:0.3;"/><polygon fill="#A80036" points="140.6413,121.734,143.2964,120.4377,141.6058,120.5852,141.4583,118.8946,140.6413,121.734" style="stroke:#A80036;stroke-width:0.3;"/><text fill="#000000" font-family="sans-serif" font-size="3.9" lengthAdjust="spacing" textLength="30" x="145.6932" y="118.4755">is submitted by 1</text><!--MD5=[c0b4d24a51ce8e3ae96a2a8b02b5a4a4]
link Resource to AccountID--><path codeLine="83" d="M122.0983,173.475 C112.9843,179.847 100.3393,188.682 90.9253,195.264 " fill="none" id="Resource-to-AccountID" style="stroke:#A80036;stroke-width:0.3;"/><polygon fill="#A80036" points="89.6773,196.134,92.5786,195.5748,90.908,195.2764,91.2064,193.6058,89.6773,196.134" style="stroke:#A80036;stroke-width:0.3;"/><text fill="#000000" font-family="sans-serif" font-size="3.9" lengthAdjust="spacing" textLength="21.3" x="68.616" y="192.8755">belongs to 1</text><!--MD5=[0cf89137c1f373c2f8b56f8bfae70f14]
reverse link AccountID to Account--><path codeLine="84" d="M66.2113,213.978 C59.3443,219.267 50.7583,225.879 44.1193,230.994 " fill="none" id="AccountID-backto-Account" style="stroke:#A80036;stroke-width:0.3;"/><polygon fill="#A80036" points="67.4743,213.006,64.6025,213.7006,66.2852,213.9204,66.0654,215.6031,67.4743,213.006" style="stroke:#A80036;stroke-width:0.3;"/><text fill="#000000" font-family="sans-serif" font-size="3.9" lengthAdjust="spacing" textLength="24" x="19.778" y="227.7493">identified by 1</text><!--MD5=[b0c0254f2dd883338c9a26bbb0d4773b]
link AccountID to Email--><path codeLine="85" d="M78.5653,213.006 C78.9073,217.911 79.3483,224.196 79.7113,229.368 " fill="none" id="AccountID-to-Email" style="stroke:#A80036;stroke-width:0.3;"/><polygon fill="#A80036" points="79.8223,230.934,80.8269,228.1554,79.7154,229.4378,78.433,228.3264,79.8223,230.934" style="stroke:#A80036;stroke-width:0.3;"/><text fill="#000000" font-family="sans-serif" font-size="3.9" lengthAdjust="spacing" textLength="22.2" x="54.9229" y="227.6755">possesses 1</text><!--MD5=[2882a383308ba44e335cf9f9f41b2a96]
link Account to Password--><path codeLine="86" d="M33.5953,247.806 C33.5953,252.711 33.5953,258.996 33.5953,264.168 " fill="none" id="Account-to-Password" style="stroke:#A80036;stroke-width:0.3;"/><polygon fill="#A80036" points="33.5953,265.734,34.7953,263.034,33.5953,264.234,32.3953,263.034,33.5953,265.734" style="stroke:#A80036;stroke-width:0.3;"/><text fill="#000000" font-family="sans-serif" font-size="3.9" lengthAdjust="spacing" textLength="22.2" x="8.8284" y="262.4755">possesses 1</text><!--MD5=[79d304000cb7f9e738401c2afcc24fd2]
link Password to PasswordHash--><path codeLine="87" d="M33.5953,282.606 C33.5953,287.511 33.5953,293.796 33.5953,298.968 " fill="none" id="Password-to-PasswordHash" style="stroke:#A80036;stroke-width:0.3;"/><polygon fill="#A80036" points="33.5953,300.534,34.7953,297.834,33.5953,299.034,32.3953,297.834,33.5953,300.534" style="stroke:#A80036;stroke-width:0.3;"/><text fill="#000000" font-family="sans-serif" font-size="3.9" lengthAdjust="spacing" textLength="28.5" x="1.8" y="297.2755">is converted to 1</text><!--MD5=[adf6af8567180fb8b03bf8ab499c4292]
link Account to ProfileID--><path codeLine="88" d="M32.8033,230.964 C31.0993,209.292 29.0413,149.079 53.6953,108.6 C55.7083,105.294 58.5943,102.42 61.6783,100.002 " fill="none" id="Account-to-ProfileID" style="stroke:#A80036;stroke-width:0.3;"/><polygon fill="#A80036" points="62.9143,99.063,60.0385,99.7411,61.72,99.9705,61.4905,101.652,62.9143,99.063" style="stroke:#A80036;stroke-width:0.3;"/><text fill="#000000" font-family="sans-serif" font-size="3.9" lengthAdjust="spacing" textLength="9.6" x="48.9653" y="105.4932">has 1</text><!--MD5=[64f383754e6385c5a749213c44057efc]
reverse link ProfileID to Profile--><path codeLine="89" d="M77.9953,100.599 C77.9953,107.106 77.9953,115.575 77.9953,121.734 " fill="none" id="ProfileID-backto-Profile" style="stroke:#A80036;stroke-width:0.3;"/><polygon fill="#A80036" points="77.9953,99.075,76.7953,101.775,77.9953,100.575,79.1953,101.775,77.9953,99.075" style="stroke:#A80036;stroke-width:0.3;"/><text fill="#000000" font-family="sans-serif" font-size="3.9" lengthAdjust="spacing" textLength="24" x="51.2203" y="118.4755">identified by 1</text><!--MD5=[5748e35a18aa388b6d83eb68d23a64a6]
link UserStory to EffortEstimate--><path codeLine="90" d="M277.7953,247.806 C277.7953,252.711 277.7953,258.996 277.7953,264.168 " fill="none" id="UserStory-to-EffortEstimate" style="stroke:#A80036;stroke-width:0.3;"/><polygon fill="#A80036" points="277.7953,265.734,278.9953,263.034,277.7953,264.234,276.5953,263.034,277.7953,265.734" style="stroke:#A80036;stroke-width:0.3;"/><text fill="#000000" font-family="sans-serif" font-size="3.9" lengthAdjust="spacing" textLength="9.6" x="267.0853" y="262.4755">has 1</text><!--MD5=[a3edf3efdbf7598b119dc0004b3f4c70]
link TaskID to Task--><path codeLine="91" d="M165.9673,29.406 C166.0093,34.311 166.0633,40.596 166.1113,45.768 " fill="none" id="TaskID-to-Task" style="stroke:#A80036;stroke-width:0.3;"/><polygon fill="#A80036" points="166.1233,47.334,167.3001,44.6238,166.1105,45.8341,164.9002,44.6444,166.1233,47.334" style="stroke:#A80036;stroke-width:0.3;"/><text fill="#000000" font-family="sans-serif" font-size="3.9" lengthAdjust="spacing" textLength="18.6" x="145.356" y="44.0755">identifies 1</text><!--MD5=[f50cc2b653fd6e61458233c00596fe00]
link Task to EffortUpdate--><path codeLine="92" d="M166.2673,64.206 C166.3093,69.111 166.3633,75.396 166.4113,80.568 " fill="none" id="Task-to-EffortUpdate" style="stroke:#A80036;stroke-width:0.3;"/><polygon fill="#A80036" points="166.4233,82.134,167.6001,79.4238,166.4105,80.6341,165.2002,79.4444,166.4233,82.134" style="stroke:#A80036;stroke-width:0.3;"/><text fill="#000000" font-family="sans-serif" font-size="3.9" lengthAdjust="spacing" textLength="30.6" x="132.2685" y="78.8755">is updated by 0..*</text><!--MD5=[b18b878d158f6ac057394796b298e10d]
link Task to ResourceID--><path codeLine="93" d="M148.8073,64.275 C147.0853,65.652 145.5253,67.221 144.2953,69 C133.6003,84.48 132.6313,107.331 133.0813,120.189 " fill="none" id="Task-to-ResourceID" style="stroke:#A80036;stroke-width:0.3;"/><polygon fill="#A80036" points="133.1413,121.707,134.2324,118.9612,133.0814,120.2082,131.8344,119.0571,133.1413,121.707" style="stroke:#A80036;stroke-width:0.3;"/><text fill="#000000" font-family="sans-serif" font-size="3.9" lengthAdjust="spacing" textLength="33.9" x="95.4441" y="118.5574">has a responsible 1</text><!--MD5=[cc6f7cab7f77a39f738e7a4de5f9f0fc]
link UserStory to ProjectID--><path codeLine="94" d="M258.5023,246.912 C243.4663,252.531 222.6253,260.322 207.1963,266.088 " fill="none" id="UserStory-to-ProjectID" style="stroke:#A80036;stroke-width:0.3;"/><polygon fill="#A80036" points="205.7203,266.64,208.6693,266.8235,207.1262,266.1171,207.8326,264.574,205.7203,266.64" style="stroke:#A80036;stroke-width:0.3;"/><text fill="#000000" font-family="sans-serif" font-size="3.9" lengthAdjust="spacing" textLength="27.3" x="208.0459" y="270.3275">belongs to pB 1</text><!--MD5=[dc8a40619e4a0e34243e62230da6028e]
link SprintBacklogItem to Status--><path codeLine="95" d="M221.9953,173.475 C221.9953,179.637 221.9953,188.109 221.9953,194.61 " fill="none" id="SprintBacklogItem-to-Status" style="stroke:#A80036;stroke-width:0.3;"/><polygon fill="#A80036" points="221.9953,196.134,223.1953,193.434,221.9953,194.634,220.7953,193.434,221.9953,196.134" style="stroke:#A80036;stroke-width:0.3;"/><text fill="#000000" font-family="sans-serif" font-size="3.9" lengthAdjust="spacing" textLength="9.6" x="211.2853" y="192.8755">has 1</text><!--MD5=[41c62a74ce1e0e714b31a8fabd9b3f05]
link Profile to ProfileRequest--><path codeLine="96" d="M77.9953,138.606 C77.9953,143.511 77.9953,149.796 77.9953,154.968 " fill="none" id="Profile-to-ProfileRequest" style="stroke:#A80036;stroke-width:0.3;"/><polygon fill="#A80036" points="77.9953,156.534,79.1953,153.834,77.9953,155.034,76.7953,153.834,77.9953,156.534" style="stroke:#A80036;stroke-width:0.3;"/><text fill="#000000" font-family="sans-serif" font-size="3.9" lengthAdjust="spacing" textLength="29.4" x="45.1959" y="153.2755">is requested by *</text><!--MD5=[5d4de4a631d304fde90177e8308b1284]
link ProfileRequest to AccountID--><path codeLine="97" d="M77.9953,173.475 C77.9953,179.637 77.9953,188.109 77.9953,194.61 " fill="none" id="ProfileRequest-to-AccountID" style="stroke:#A80036;stroke-width:0.3;"/><polygon fill="#A80036" points="77.9953,196.134,79.1953,193.434,77.9953,194.634,76.7953,193.434,77.9953,196.134" style="stroke:#A80036;stroke-width:0.3;"/><text fill="#000000" font-family="sans-serif" font-size="3.9" lengthAdjust="spacing" textLength="30" x="44.5266" y="192.8755">is requested by 1</text><!--MD5=[7acbf5ce6f79727069e82a49cc5e5548]
@startuml
'https://plantuml.com/class-diagram

package Sprint{
class Sprint << Aggregate Root >>
class SprintBacklogItem << Value Object >>
class Status << Value Object >>
class SprintID << Value Object ID >>
}


package Project{
class Project << Aggregate Root >>
class ProjectID << Value Object ID >>
}

package UserStory{
class UserStory << Aggregate Root >>
class EffortEstimate << Value Object >>
class UserStoryID << Value Object ID >>
}

package BusinessSector{
class BusinessSector << Aggregate Root >>
class BusinessSectorID << Value Object ID >>
}

package ProjectTypology{
class ProjectTypology << Aggregate Root >>
class ProjectTypologyID << Value Object ID >>
}

package Customer{
class Customer << Aggregate Root >>
class CustomerID << Value Object ID >>
}

package Resource{
class Resource<< Aggregate Root >>
class Role << Value Object >>
class ResourceID << Value Object ID >>
}

package Task{
class Task << Aggregate Root >>
class EffortUpdate << Value Object >>
class TaskID << Value Object ID >>
}

package Account{
class Account << Aggregate Root >>
class Password << Value Object >>
class PasswordHash << Value Object >>
class Email << Value Object >>
class AccountID << Value Object ID >>
}


package Profile{
class Profile << Aggregate Root >>
class ProfileID << Value Object ID >>
class ProfileRequest << Value Object >>
}


Sprint - -> "belongs to 1" ProjectID
ProjectID <- - "identified by 1" Project
Sprint - -> "has *" SprintBacklogItem
SprintID <- - "identified by 1" Sprint
SprintBacklogItem - -> "represents 1" UserStoryID
UserStoryID <- - "identified by 1" UserStory
Task - -> "belongs to 0..1" SprintID
Task - -> "belongs to 0..1" UserStoryID
Project - -> "has 1" CustomerID
CustomerID <- - "identified by 1" Customer
Project - -> "has 1" ProjectTypologyID
ProjectTypologyID <- - "identified by 1" ProjectTypology
Project - -> "has 1" BusinessSectorID
BusinessSectorID <- - "identified by 1" BusinessSector
Resource - -> "is allocated to 1" ProjectID
ResourceID <- - "identified by 1" Resource
Resource - -> "has 1" Role
EffortUpdate - -> "is submitted by 1" ResourceID
Resource - -> "belongs to 1" AccountID
AccountID <- - "identified by 1" Account
AccountID - -> "possesses 1" Email
Account - -> "possesses 1" Password
Password - -> "is converted to 1" PasswordHash
Account - -> "has 1" ProfileID
ProfileID <- - "identified by 1" Profile
UserStory - -> "has 1" EffortEstimate
TaskID - -> "identifies 1" Task
Task - -> "is updated by 0..*" EffortUpdate
Task - -> "has a responsible 1" ResourceID
UserStory - -> "belongs to pB 1" ProjectID
SprintBacklogItem - -> "has 1" Status
Profile - -> "is requested by *" ProfileRequest
ProfileRequest - -> "is requested by 1" AccountID


@enduml

@startuml

package Sprint{
class Sprint << Aggregate Root >>
class SprintBacklogItem << Value Object >>
class Status << Value Object >>
class SprintID << Value Object ID >>
}


package Project{
class Project << Aggregate Root >>
class ProjectID << Value Object ID >>
}

package UserStory{
class UserStory << Aggregate Root >>
class EffortEstimate << Value Object >>
class UserStoryID << Value Object ID >>
}

package BusinessSector{
class BusinessSector << Aggregate Root >>
class BusinessSectorID << Value Object ID >>
}

package ProjectTypology{
class ProjectTypology << Aggregate Root >>
class ProjectTypologyID << Value Object ID >>
}

package Customer{
class Customer << Aggregate Root >>
class CustomerID << Value Object ID >>
}

package Resource{
class Resource<< Aggregate Root >>
class Role << Value Object >>
class ResourceID << Value Object ID >>
}

package Task{
class Task << Aggregate Root >>
class EffortUpdate << Value Object >>
class TaskID << Value Object ID >>
}

package Account{
class Account << Aggregate Root >>
class Password << Value Object >>
class PasswordHash << Value Object >>
class Email << Value Object >>
class AccountID << Value Object ID >>
}


package Profile{
class Profile << Aggregate Root >>
class ProfileID << Value Object ID >>
class ProfileRequest << Value Object >>
}


Sprint - -> "belongs to 1" ProjectID
ProjectID <- - "identified by 1" Project
Sprint - -> "has *" SprintBacklogItem
SprintID <- - "identified by 1" Sprint
SprintBacklogItem - -> "represents 1" UserStoryID
UserStoryID <- - "identified by 1" UserStory
Task - -> "belongs to 0..1" SprintID
Task - -> "belongs to 0..1" UserStoryID
Project - -> "has 1" CustomerID
CustomerID <- - "identified by 1" Customer
Project - -> "has 1" ProjectTypologyID
ProjectTypologyID <- - "identified by 1" ProjectTypology
Project - -> "has 1" BusinessSectorID
BusinessSectorID <- - "identified by 1" BusinessSector
Resource - -> "is allocated to 1" ProjectID
ResourceID <- - "identified by 1" Resource
Resource - -> "has 1" Role
EffortUpdate - -> "is submitted by 1" ResourceID
Resource - -> "belongs to 1" AccountID
AccountID <- - "identified by 1" Account
AccountID - -> "possesses 1" Email
Account - -> "possesses 1" Password
Password - -> "is converted to 1" PasswordHash
Account - -> "has 1" ProfileID
ProfileID <- - "identified by 1" Profile
UserStory - -> "has 1" EffortEstimate
TaskID - -> "identifies 1" Task
Task - -> "is updated by 0..*" EffortUpdate
Task - -> "has a responsible 1" ResourceID
UserStory - -> "belongs to pB 1" ProjectID
SprintBacklogItem - -> "has 1" Status
Profile - -> "is requested by *" ProfileRequest
ProfileRequest - -> "is requested by 1" AccountID


@enduml

PlantUML version 1.2022.1(Tue Feb 01 18:19:58 GMT 2022)
(GPL source distribution)
Java Runtime: OpenJDK Runtime Environment
JVM: OpenJDK 64-Bit Server VM
Default Encoding: Cp1252
Language: pt
Country: PT
--></g></svg>