<?xml version="1.0" encoding="UTF-8" standalone="no"?><svg xmlns="http://www.w3.org/2000/svg" xmlns:xlink="http://www.w3.org/1999/xlink" contentScriptType="application/ecmascript" contentStyleType="text/css" height="513.1px" preserveAspectRatio="none" style="width:820px;height:513px;background:#FFFFFF;" version="1.1" viewBox="0 0 820 513" width="820.4px" zoomAndPan="magnify"><defs><filter height="300%" id="fh0194a2dspaj" width="300%" x="-1" y="-1"><feGaussianBlur result="blurOut" stdDeviation="1.3999999999999997"/><feColorMatrix in="blurOut" result="blurOut2" type="matrix" values="0 0 0 0 0 0 0 0 0 0 0 0 0 0 0 0 0 0 .4 0"/><feOffset dx="2.7999999999999994" dy="2.7999999999999994" in="blurOut2" result="blurOut3"/><feBlend in="SourceGraphic" in2="blurOut3" mode="normal"/></filter></defs><g><!--MD5=[0f05b381ce972810648735ab0813e8dd]
cluster Project--><polygon fill="#FFFFFF" filter="url(#fh0194a2dspaj)" points="96.95,7,136.15,7,141.05,23.5266,389.55,23.5266,389.55,427,96.95,427,96.95,7" style="stroke:#000000;stroke-width:1.0499999999999998;"/><line style="stroke:#000000;stroke-width:1.0499999999999998;" x1="96.95" x2="141.05" y1="23.5266" y2="23.5266"/><text fill="#000000" font-family="sans-serif" font-size="9.8" font-weight="bold" lengthAdjust="spacing" textLength="35" x="99.75" y="18.5732">Project</text><!--MD5=[a81f7aca4c07b9194780aa67bf6d0525]
cluster Customer--><polygon fill="#FFFFFF" filter="url(#fh0194a2dspaj)" points="406.35,189,458.15,189,463.05,205.5266,518.35,205.5266,518.35,264.6,406.35,264.6,406.35,189" style="stroke:#000000;stroke-width:1.0499999999999998;"/><line style="stroke:#000000;stroke-width:1.0499999999999998;" x1="406.35" x2="463.05" y1="205.5266" y2="205.5266"/><text fill="#000000" font-family="sans-serif" font-size="9.8" font-weight="bold" lengthAdjust="spacing" textLength="47.6" x="409.15" y="200.5732">Customer</text><!--MD5=[1b0f1d4bc34feaedb5789fed429cabc9]
cluster Account--><polygon fill="#FFFFFF" filter="url(#fh0194a2dspaj)" points="406.35,351.4,450.45,351.4,455.35,367.9266,719.95,367.9266,719.95,508.2,406.35,508.2,406.35,351.4" style="stroke:#000000;stroke-width:1.0499999999999998;"/><line style="stroke:#000000;stroke-width:1.0499999999999998;" x1="406.35" x2="455.35" y1="367.9266" y2="367.9266"/><text fill="#000000" font-family="sans-serif" font-size="9.8" font-weight="bold" lengthAdjust="spacing" textLength="39.9" x="409.15" y="362.9732">Account</text><!--MD5=[76f40221ba2aca1f0f17c0f8cba6fb70]
cluster BusinessSector--><polygon fill="#FFFFFF" filter="url(#fh0194a2dspaj)" points="406.35,4.2,488.25,4.2,493.15,20.7266,518.35,20.7266,518.35,79.8,406.35,79.8,406.35,4.2" style="stroke:#000000;stroke-width:1.0499999999999998;"/><line style="stroke:#000000;stroke-width:1.0499999999999998;" x1="406.35" x2="493.15" y1="20.7266" y2="20.7266"/><text fill="#000000" font-family="sans-serif" font-size="9.8" font-weight="bold" lengthAdjust="spacing" textLength="77.7" x="409.15" y="15.7732">BusinessSector</text><!--MD5=[78b4508f7b143f60f3aed350524f706d]
cluster ProjectTypology--><polygon fill="#FFFFFF" filter="url(#fh0194a2dspaj)" points="406.35,96.6,488.95,96.6,493.85,113.1266,518.35,113.1266,518.35,172.2,406.35,172.2,406.35,96.6" style="stroke:#000000;stroke-width:1.0499999999999998;"/><line style="stroke:#000000;stroke-width:1.0499999999999998;" x1="406.35" x2="493.85" y1="113.1266" y2="113.1266"/><text fill="#000000" font-family="sans-serif" font-size="9.8" font-weight="bold" lengthAdjust="spacing" textLength="78.4" x="409.15" y="108.1732">ProjectTypology</text><!--MD5=[79d378210367c0c6ec62ef762ddfbd1b]
class Project--><rect codeLine="5" fill="#FEFECE" filter="url(#fh0194a2dspaj)" height="39.3312" id="Project" style="stroke:#A80036;stroke-width:1.0499999999999998;" width="89.6" x="288.75" y="121.8"/><ellipse cx="299.25" cy="135.8656" fill="#ADD1B2" rx="7.7" ry="7.7" style="stroke:#A80036;stroke-width:0.6999999999999998;"/><path d="M300.65,133.4156 Q300.7922,133.0656 300.9562,132.8906 Q301.1203,132.7156 301.3062,132.7156 Q301.6344,132.7156 301.8422,132.9125 Q302.05,133.1094 302.05,133.5687 L302.05,134.6625 Q302.05,135.1219 301.8531,135.3187 Q301.6562,135.5156 301.35,135.5156 Q301.0766,135.5156 300.9016,135.3953 Q300.7266,135.275 300.65,134.9578 Q300.6172,134.7391 300.4969,134.6187 Q300.2781,134.3891 299.8844,134.2578 Q299.4906,134.1156 299.0969,134.1156 Q298.6047,134.1156 298.1891,134.3125 Q297.7844,134.5094 297.4672,134.9469 Q297.15,135.3844 297.15,135.9859 L297.15,136.6312 Q297.15,137.3531 297.7406,137.8344 Q298.3312,138.3156 299.3812,138.3156 Q300.0047,138.3156 300.4422,138.1734 Q300.6937,138.0969 300.9781,137.8453 Q301.1641,137.7031 301.2625,137.6594 Q301.3609,137.6156 301.4812,137.6156 Q301.7109,137.6156 301.875,137.8016 Q302.05,137.9766 302.05,138.2281 Q302.05,138.4687 301.8094,138.7531 Q301.4594,139.1687 300.9016,139.3984 Q300.1687,139.7156 299.2719,139.7156 Q298.2219,139.7156 297.3797,139.3 Q296.7016,138.9719 296.2203,138.2609 Q295.75,137.55 295.75,136.7078 L295.75,135.9422 Q295.75,135.0672 296.1656,134.3016 Q296.5922,133.5359 297.325,133.1312 Q298.0687,132.7156 298.9,132.7156 Q299.4031,132.7156 299.8406,132.8906 Q300.2781,133.0656 300.65,133.4156 Z " fill="#000000"/><text fill="#000000" font-family="sans-serif" font-size="8.4" font-style="italic" lengthAdjust="spacing" textLength="70" x="307.65" y="134.0199">«Aggregate Root»</text><text fill="#000000" font-family="sans-serif" font-size="8.4" lengthAdjust="spacing" textLength="26.6" x="329.35" y="144.5855">Project</text><line style="stroke:#A80036;stroke-width:1.0499999999999998;" x1="289.45" x2="377.65" y1="149.9312" y2="149.9312"/><line style="stroke:#A80036;stroke-width:1.0499999999999998;" x1="289.45" x2="377.65" y1="155.5312" y2="155.5312"/><!--MD5=[91b5dce48d18c73d9cea267c757e6d47]
class ProductBacklog--><rect codeLine="6" fill="#FEFECE" filter="url(#fh0194a2dspaj)" height="39.3312" id="ProductBacklog" style="stroke:#A80036;stroke-width:1.0499999999999998;" width="82.6" x="191.45" y="214.2"/><ellipse cx="201.95" cy="228.2656" fill="#ADD1B2" rx="7.7" ry="7.7" style="stroke:#A80036;stroke-width:0.6999999999999998;"/><path d="M203.35,225.8156 Q203.4922,225.4656 203.6562,225.2906 Q203.8203,225.1156 204.0062,225.1156 Q204.3344,225.1156 204.5422,225.3125 Q204.75,225.5094 204.75,225.9687 L204.75,227.0625 Q204.75,227.5219 204.5531,227.7187 Q204.3562,227.9156 204.05,227.9156 Q203.7766,227.9156 203.6016,227.7953 Q203.4266,227.675 203.35,227.3578 Q203.3172,227.1391 203.1969,227.0187 Q202.9781,226.7891 202.5844,226.6578 Q202.1906,226.5156 201.7969,226.5156 Q201.3047,226.5156 200.8891,226.7125 Q200.4844,226.9094 200.1672,227.3469 Q199.85,227.7844 199.85,228.3859 L199.85,229.0312 Q199.85,229.7531 200.4406,230.2344 Q201.0312,230.7156 202.0812,230.7156 Q202.7047,230.7156 203.1422,230.5734 Q203.3937,230.4969 203.6781,230.2453 Q203.8641,230.1031 203.9625,230.0594 Q204.0609,230.0156 204.1812,230.0156 Q204.4109,230.0156 204.575,230.2016 Q204.75,230.3766 204.75,230.6281 Q204.75,230.8687 204.5094,231.1531 Q204.1594,231.5687 203.6016,231.7984 Q202.8687,232.1156 201.9719,232.1156 Q200.9219,232.1156 200.0797,231.7 Q199.4016,231.3719 198.9203,230.6609 Q198.45,229.95 198.45,229.1078 L198.45,228.3422 Q198.45,227.4672 198.8656,226.7016 Q199.2922,225.9359 200.025,225.5312 Q200.7687,225.1156 201.6,225.1156 Q202.1031,225.1156 202.5406,225.2906 Q202.9781,225.4656 203.35,225.8156 Z " fill="#000000"/><text fill="#000000" font-family="sans-serif" font-size="8.4" font-style="italic" lengthAdjust="spacing" textLength="59.5" x="212.1" y="226.4199">«Value Object»</text><text fill="#000000" font-family="sans-serif" font-size="8.4" lengthAdjust="spacing" textLength="60.2" x="211.75" y="236.9855">ProductBacklog</text><line style="stroke:#A80036;stroke-width:1.0499999999999998;" x1="192.15" x2="273.35" y1="242.3312" y2="242.3312"/><line style="stroke:#A80036;stroke-width:1.0499999999999998;" x1="192.15" x2="273.35" y1="247.9312" y2="247.9312"/><!--MD5=[5977484278a43c7196984dcd872a8731]
class ResourceList--><rect codeLine="7" fill="#FEFECE" filter="url(#fh0194a2dspaj)" height="39.3312" id="ResourceList" style="stroke:#A80036;stroke-width:1.0499999999999998;" width="79.1" x="298.9" y="214.2"/><ellipse cx="309.4" cy="228.2656" fill="#ADD1B2" rx="7.7" ry="7.7" style="stroke:#A80036;stroke-width:0.6999999999999998;"/><path d="M310.8,225.8156 Q310.9422,225.4656 311.1062,225.2906 Q311.2703,225.1156 311.4562,225.1156 Q311.7844,225.1156 311.9922,225.3125 Q312.2,225.5094 312.2,225.9687 L312.2,227.0625 Q312.2,227.5219 312.0031,227.7187 Q311.8062,227.9156 311.5,227.9156 Q311.2266,227.9156 311.0516,227.7953 Q310.8766,227.675 310.8,227.3578 Q310.7672,227.1391 310.6469,227.0187 Q310.4281,226.7891 310.0344,226.6578 Q309.6406,226.5156 309.2469,226.5156 Q308.7547,226.5156 308.3391,226.7125 Q307.9344,226.9094 307.6172,227.3469 Q307.3,227.7844 307.3,228.3859 L307.3,229.0312 Q307.3,229.7531 307.8906,230.2344 Q308.4812,230.7156 309.5312,230.7156 Q310.1547,230.7156 310.5922,230.5734 Q310.8437,230.4969 311.1281,230.2453 Q311.3141,230.1031 311.4125,230.0594 Q311.5109,230.0156 311.6312,230.0156 Q311.8609,230.0156 312.025,230.2016 Q312.2,230.3766 312.2,230.6281 Q312.2,230.8687 311.9594,231.1531 Q311.6094,231.5687 311.0516,231.7984 Q310.3187,232.1156 309.4219,232.1156 Q308.3719,232.1156 307.5297,231.7 Q306.8516,231.3719 306.3703,230.6609 Q305.9,229.95 305.9,229.1078 L305.9,228.3422 Q305.9,227.4672 306.3156,226.7016 Q306.7422,225.9359 307.475,225.5312 Q308.2187,225.1156 309.05,225.1156 Q309.5531,225.1156 309.9906,225.2906 Q310.4281,225.4656 310.8,225.8156 Z " fill="#000000"/><text fill="#000000" font-family="sans-serif" font-size="8.4" font-style="italic" lengthAdjust="spacing" textLength="59.5" x="317.8" y="226.4199">«Value Object»</text><text fill="#000000" font-family="sans-serif" font-size="8.4" lengthAdjust="spacing" textLength="51.8" x="321.65" y="236.9855">ResourceList</text><line style="stroke:#A80036;stroke-width:1.0499999999999998;" x1="299.6" x2="377.3" y1="242.3312" y2="242.3312"/><line style="stroke:#A80036;stroke-width:1.0499999999999998;" x1="299.6" x2="377.3" y1="247.9312" y2="247.9312"/><!--MD5=[6b13f1b330d33795af281e5c1dfe1e98]
class Resource--><rect codeLine="8" fill="#FEFECE" filter="url(#fh0194a2dspaj)" height="33.6" id="Resource" style="stroke:#A80036;stroke-width:1.0499999999999998;" width="60.2" x="206.85" y="298.2"/><ellipse cx="217.35" cy="309.4" fill="#ADD1B2" rx="7.7" ry="7.7" style="stroke:#A80036;stroke-width:0.6999999999999998;"/><path d="M218.75,306.95 Q218.8922,306.6 219.0562,306.425 Q219.2203,306.25 219.4062,306.25 Q219.7344,306.25 219.9422,306.4469 Q220.15,306.6437 220.15,307.1031 L220.15,308.1969 Q220.15,308.6562 219.9531,308.8531 Q219.7562,309.05 219.45,309.05 Q219.1766,309.05 219.0016,308.9297 Q218.8266,308.8094 218.75,308.4922 Q218.7172,308.2734 218.5969,308.1531 Q218.3781,307.9234 217.9844,307.7922 Q217.5906,307.65 217.1969,307.65 Q216.7047,307.65 216.2891,307.8469 Q215.8844,308.0437 215.5672,308.4812 Q215.25,308.9187 215.25,309.5203 L215.25,310.1656 Q215.25,310.8875 215.8406,311.3687 Q216.4312,311.85 217.4812,311.85 Q218.1047,311.85 218.5422,311.7078 Q218.7937,311.6312 219.0781,311.3797 Q219.2641,311.2375 219.3625,311.1937 Q219.4609,311.15 219.5812,311.15 Q219.8109,311.15 219.975,311.3359 Q220.15,311.5109 220.15,311.7625 Q220.15,312.0031 219.9094,312.2875 Q219.5594,312.7031 219.0016,312.9328 Q218.2687,313.25 217.3719,313.25 Q216.3219,313.25 215.4797,312.8344 Q214.8016,312.5062 214.3203,311.7953 Q213.85,311.0844 213.85,310.2422 L213.85,309.4766 Q213.85,308.6016 214.2656,307.8359 Q214.6922,307.0703 215.425,306.6656 Q216.1687,306.25 217,306.25 Q217.5031,306.25 217.9406,306.425 Q218.3781,306.6 218.75,306.95 Z " fill="#000000"/><text fill="#000000" font-family="sans-serif" font-size="8.4" lengthAdjust="spacing" textLength="37.8" x="227.15" y="312.8371">Resource</text><line style="stroke:#A80036;stroke-width:1.0499999999999998;" x1="207.55" x2="266.35" y1="320.6" y2="320.6"/><line style="stroke:#A80036;stroke-width:1.0499999999999998;" x1="207.55" x2="266.35" y1="326.2" y2="326.2"/><!--MD5=[452a66c2e8d45f5bd209be454bbcd04f]
class Sprint--><rect codeLine="9" fill="#FEFECE" filter="url(#fh0194a2dspaj)" height="33.6" id="Sprint" style="stroke:#A80036;stroke-width:1.0499999999999998;" width="44.8" x="122.85" y="32.2"/><ellipse cx="133.35" cy="43.4" fill="#ADD1B2" rx="7.7" ry="7.7" style="stroke:#A80036;stroke-width:0.6999999999999998;"/><path d="M134.75,40.95 Q134.8922,40.6 135.0562,40.425 Q135.2203,40.25 135.4062,40.25 Q135.7344,40.25 135.9422,40.4469 Q136.15,40.6437 136.15,41.1031 L136.15,42.1969 Q136.15,42.6562 135.9531,42.8531 Q135.7562,43.05 135.45,43.05 Q135.1766,43.05 135.0016,42.9297 Q134.8266,42.8094 134.75,42.4922 Q134.7172,42.2734 134.5969,42.1531 Q134.3781,41.9234 133.9844,41.7922 Q133.5906,41.65 133.1969,41.65 Q132.7047,41.65 132.2891,41.8469 Q131.8844,42.0437 131.5672,42.4812 Q131.25,42.9187 131.25,43.5203 L131.25,44.1656 Q131.25,44.8875 131.8406,45.3687 Q132.4312,45.85 133.4812,45.85 Q134.1047,45.85 134.5422,45.7078 Q134.7937,45.6312 135.0781,45.3797 Q135.2641,45.2375 135.3625,45.1937 Q135.4609,45.15 135.5812,45.15 Q135.8109,45.15 135.975,45.3359 Q136.15,45.5109 136.15,45.7625 Q136.15,46.0031 135.9094,46.2875 Q135.5594,46.7031 135.0016,46.9328 Q134.2687,47.25 133.3719,47.25 Q132.3219,47.25 131.4797,46.8344 Q130.8016,46.5062 130.3203,45.7953 Q129.85,45.0844 129.85,44.2422 L129.85,43.4766 Q129.85,42.6016 130.2656,41.8359 Q130.6922,41.0703 131.425,40.6656 Q132.1687,40.25 133,40.25 Q133.5031,40.25 133.9406,40.425 Q134.3781,40.6 134.75,40.95 Z " fill="#000000"/><text fill="#000000" font-family="sans-serif" font-size="8.4" lengthAdjust="spacing" textLength="22.4" x="143.15" y="46.8371">Sprint</text><line style="stroke:#A80036;stroke-width:1.0499999999999998;" x1="123.55" x2="166.95" y1="54.6" y2="54.6"/><line style="stroke:#A80036;stroke-width:1.0499999999999998;" x1="123.55" x2="166.95" y1="60.2" y2="60.2"/><!--MD5=[5ca54b8a236761790da7620b7631cea8]
class ScrumBoard--><rect codeLine="10" fill="#FEFECE" filter="url(#fh0194a2dspaj)" height="33.6" id="ScrumBoard" style="stroke:#A80036;stroke-width:1.0499999999999998;" width="70.7" x="108.5" y="124.6"/><ellipse cx="119" cy="135.8" fill="#ADD1B2" rx="7.7" ry="7.7" style="stroke:#A80036;stroke-width:0.6999999999999998;"/><path d="M120.4,133.35 Q120.5422,133 120.7062,132.825 Q120.8703,132.65 121.0562,132.65 Q121.3844,132.65 121.5922,132.8469 Q121.8,133.0437 121.8,133.5031 L121.8,134.5969 Q121.8,135.0562 121.6031,135.2531 Q121.4062,135.45 121.1,135.45 Q120.8266,135.45 120.6516,135.3297 Q120.4766,135.2094 120.4,134.8922 Q120.3672,134.6734 120.2469,134.5531 Q120.0281,134.3234 119.6344,134.1922 Q119.2406,134.05 118.8469,134.05 Q118.3547,134.05 117.9391,134.2469 Q117.5344,134.4437 117.2172,134.8812 Q116.9,135.3187 116.9,135.9203 L116.9,136.5656 Q116.9,137.2875 117.4906,137.7687 Q118.0812,138.25 119.1312,138.25 Q119.7547,138.25 120.1922,138.1078 Q120.4437,138.0312 120.7281,137.7797 Q120.9141,137.6375 121.0125,137.5937 Q121.1109,137.55 121.2312,137.55 Q121.4609,137.55 121.625,137.7359 Q121.8,137.9109 121.8,138.1625 Q121.8,138.4031 121.5594,138.6875 Q121.2094,139.1031 120.6516,139.3328 Q119.9187,139.65 119.0219,139.65 Q117.9719,139.65 117.1297,139.2344 Q116.4516,138.9062 115.9703,138.1953 Q115.5,137.4844 115.5,136.6422 L115.5,135.8766 Q115.5,135.0016 115.9156,134.2359 Q116.3422,133.4703 117.075,133.0656 Q117.8187,132.65 118.65,132.65 Q119.1531,132.65 119.5906,132.825 Q120.0281,133 120.4,133.35 Z " fill="#000000"/><text fill="#000000" font-family="sans-serif" font-size="8.4" lengthAdjust="spacing" textLength="48.3" x="128.8" y="139.2371">ScrumBoard</text><line style="stroke:#A80036;stroke-width:1.0499999999999998;" x1="109.2" x2="178.5" y1="147" y2="147"/><line style="stroke:#A80036;stroke-width:1.0499999999999998;" x1="109.2" x2="178.5" y1="152.6" y2="152.6"/><!--MD5=[a7bb2077efe50bdbb8873ea156534d6e]
class EffortUpdate--><rect codeLine="11" fill="#FEFECE" filter="url(#fh0194a2dspaj)" height="39.3312" id="EffortUpdate" style="stroke:#A80036;stroke-width:1.0499999999999998;" width="79.1" x="291.9" y="295.4"/><ellipse cx="302.4" cy="309.4656" fill="#ADD1B2" rx="7.7" ry="7.7" style="stroke:#A80036;stroke-width:0.6999999999999998;"/><path d="M303.8,307.0156 Q303.9422,306.6656 304.1062,306.4906 Q304.2703,306.3156 304.4562,306.3156 Q304.7844,306.3156 304.9922,306.5125 Q305.2,306.7094 305.2,307.1687 L305.2,308.2625 Q305.2,308.7219 305.0031,308.9187 Q304.8062,309.1156 304.5,309.1156 Q304.2266,309.1156 304.0516,308.9953 Q303.8766,308.875 303.8,308.5578 Q303.7672,308.3391 303.6469,308.2187 Q303.4281,307.9891 303.0344,307.8578 Q302.6406,307.7156 302.2469,307.7156 Q301.7547,307.7156 301.3391,307.9125 Q300.9344,308.1094 300.6172,308.5469 Q300.3,308.9844 300.3,309.5859 L300.3,310.2312 Q300.3,310.9531 300.8906,311.4344 Q301.4812,311.9156 302.5312,311.9156 Q303.1547,311.9156 303.5922,311.7734 Q303.8437,311.6969 304.1281,311.4453 Q304.3141,311.3031 304.4125,311.2594 Q304.5109,311.2156 304.6312,311.2156 Q304.8609,311.2156 305.025,311.4016 Q305.2,311.5766 305.2,311.8281 Q305.2,312.0687 304.9594,312.3531 Q304.6094,312.7687 304.0516,312.9984 Q303.3187,313.3156 302.4219,313.3156 Q301.3719,313.3156 300.5297,312.9 Q299.8516,312.5719 299.3703,311.8609 Q298.9,311.15 298.9,310.3078 L298.9,309.5422 Q298.9,308.6672 299.3156,307.9016 Q299.7422,307.1359 300.475,306.7312 Q301.2187,306.3156 302.05,306.3156 Q302.5531,306.3156 302.9906,306.4906 Q303.4281,306.6656 303.8,307.0156 Z " fill="#000000"/><text fill="#000000" font-family="sans-serif" font-size="8.4" font-style="italic" lengthAdjust="spacing" textLength="59.5" x="310.8" y="307.6199">«Value Object»</text><text fill="#000000" font-family="sans-serif" font-size="8.4" lengthAdjust="spacing" textLength="47.6" x="316.75" y="318.1855">EffortUpdate</text><line style="stroke:#A80036;stroke-width:1.0499999999999998;" x1="292.6" x2="370.3" y1="323.5312" y2="323.5312"/><line style="stroke:#A80036;stroke-width:1.0499999999999998;" x1="292.6" x2="370.3" y1="329.1312" y2="329.1312"/><!--MD5=[a136f49e3565b20f66540890d0159f10]
class SprintBacklog--><rect codeLine="12" fill="#FEFECE" filter="url(#fh0194a2dspaj)" height="33.6" id="SprintBacklog" style="stroke:#A80036;stroke-width:1.0499999999999998;" width="75.6" x="194.95" y="32.2"/><ellipse cx="205.45" cy="43.4" fill="#ADD1B2" rx="7.7" ry="7.7" style="stroke:#A80036;stroke-width:0.6999999999999998;"/><path d="M206.85,40.95 Q206.9922,40.6 207.1562,40.425 Q207.3203,40.25 207.5062,40.25 Q207.8344,40.25 208.0422,40.4469 Q208.25,40.6437 208.25,41.1031 L208.25,42.1969 Q208.25,42.6562 208.0531,42.8531 Q207.8562,43.05 207.55,43.05 Q207.2766,43.05 207.1016,42.9297 Q206.9266,42.8094 206.85,42.4922 Q206.8172,42.2734 206.6969,42.1531 Q206.4781,41.9234 206.0844,41.7922 Q205.6906,41.65 205.2969,41.65 Q204.8047,41.65 204.3891,41.8469 Q203.9844,42.0437 203.6672,42.4812 Q203.35,42.9187 203.35,43.5203 L203.35,44.1656 Q203.35,44.8875 203.9406,45.3687 Q204.5312,45.85 205.5812,45.85 Q206.2047,45.85 206.6422,45.7078 Q206.8937,45.6312 207.1781,45.3797 Q207.3641,45.2375 207.4625,45.1937 Q207.5609,45.15 207.6812,45.15 Q207.9109,45.15 208.075,45.3359 Q208.25,45.5109 208.25,45.7625 Q208.25,46.0031 208.0094,46.2875 Q207.6594,46.7031 207.1016,46.9328 Q206.3687,47.25 205.4719,47.25 Q204.4219,47.25 203.5797,46.8344 Q202.9016,46.5062 202.4203,45.7953 Q201.95,45.0844 201.95,44.2422 L201.95,43.4766 Q201.95,42.6016 202.3656,41.8359 Q202.7922,41.0703 203.525,40.6656 Q204.2687,40.25 205.1,40.25 Q205.6031,40.25 206.0406,40.425 Q206.4781,40.6 206.85,40.95 Z " fill="#000000"/><text fill="#000000" font-family="sans-serif" font-size="8.4" lengthAdjust="spacing" textLength="53.2" x="215.25" y="46.8371">SprintBacklog</text><line style="stroke:#A80036;stroke-width:1.0499999999999998;" x1="195.65" x2="269.85" y1="54.6" y2="54.6"/><line style="stroke:#A80036;stroke-width:1.0499999999999998;" x1="195.65" x2="269.85" y1="60.2" y2="60.2"/><!--MD5=[daa6dd44d8f60c5a9cd695bb66773862]
class UserStory--><rect codeLine="13" fill="#FEFECE" filter="url(#fh0194a2dspaj)" height="33.6" id="UserStory" style="stroke:#A80036;stroke-width:1.0499999999999998;" width="60.2" x="204.05" y="124.6"/><ellipse cx="214.55" cy="135.8" fill="#ADD1B2" rx="7.7" ry="7.7" style="stroke:#A80036;stroke-width:0.6999999999999998;"/><path d="M215.95,133.35 Q216.0922,133 216.2562,132.825 Q216.4203,132.65 216.6062,132.65 Q216.9344,132.65 217.1422,132.8469 Q217.35,133.0437 217.35,133.5031 L217.35,134.5969 Q217.35,135.0562 217.1531,135.2531 Q216.9562,135.45 216.65,135.45 Q216.3766,135.45 216.2016,135.3297 Q216.0266,135.2094 215.95,134.8922 Q215.9172,134.6734 215.7969,134.5531 Q215.5781,134.3234 215.1844,134.1922 Q214.7906,134.05 214.3969,134.05 Q213.9047,134.05 213.4891,134.2469 Q213.0844,134.4437 212.7672,134.8812 Q212.45,135.3187 212.45,135.9203 L212.45,136.5656 Q212.45,137.2875 213.0406,137.7687 Q213.6312,138.25 214.6812,138.25 Q215.3047,138.25 215.7422,138.1078 Q215.9937,138.0312 216.2781,137.7797 Q216.4641,137.6375 216.5625,137.5937 Q216.6609,137.55 216.7812,137.55 Q217.0109,137.55 217.175,137.7359 Q217.35,137.9109 217.35,138.1625 Q217.35,138.4031 217.1094,138.6875 Q216.7594,139.1031 216.2016,139.3328 Q215.4687,139.65 214.5719,139.65 Q213.5219,139.65 212.6797,139.2344 Q212.0016,138.9062 211.5203,138.1953 Q211.05,137.4844 211.05,136.6422 L211.05,135.8766 Q211.05,135.0016 211.4656,134.2359 Q211.8922,133.4703 212.625,133.0656 Q213.3687,132.65 214.2,132.65 Q214.7031,132.65 215.1406,132.825 Q215.5781,133 215.95,133.35 Z " fill="#000000"/><text fill="#000000" font-family="sans-serif" font-size="8.4" lengthAdjust="spacing" textLength="37.8" x="224.35" y="139.2371">UserStory</text><line style="stroke:#A80036;stroke-width:1.0499999999999998;" x1="204.75" x2="263.55" y1="147" y2="147"/><line style="stroke:#A80036;stroke-width:1.0499999999999998;" x1="204.75" x2="263.55" y1="152.6" y2="152.6"/><!--MD5=[b34797a66dc35cbf1d65f7e3ca75530e]
class Task--><rect codeLine="14" fill="#FEFECE" filter="url(#fh0194a2dspaj)" height="33.6" id="Task" style="stroke:#A80036;stroke-width:1.0499999999999998;" width="41.3" x="108.5" y="298.2"/><ellipse cx="119" cy="309.4" fill="#ADD1B2" rx="7.7" ry="7.7" style="stroke:#A80036;stroke-width:0.6999999999999998;"/><path d="M120.4,306.95 Q120.5422,306.6 120.7062,306.425 Q120.8703,306.25 121.0562,306.25 Q121.3844,306.25 121.5922,306.4469 Q121.8,306.6437 121.8,307.1031 L121.8,308.1969 Q121.8,308.6562 121.6031,308.8531 Q121.4062,309.05 121.1,309.05 Q120.8266,309.05 120.6516,308.9297 Q120.4766,308.8094 120.4,308.4922 Q120.3672,308.2734 120.2469,308.1531 Q120.0281,307.9234 119.6344,307.7922 Q119.2406,307.65 118.8469,307.65 Q118.3547,307.65 117.9391,307.8469 Q117.5344,308.0437 117.2172,308.4812 Q116.9,308.9187 116.9,309.5203 L116.9,310.1656 Q116.9,310.8875 117.4906,311.3687 Q118.0812,311.85 119.1312,311.85 Q119.7547,311.85 120.1922,311.7078 Q120.4437,311.6312 120.7281,311.3797 Q120.9141,311.2375 121.0125,311.1937 Q121.1109,311.15 121.2312,311.15 Q121.4609,311.15 121.625,311.3359 Q121.8,311.5109 121.8,311.7625 Q121.8,312.0031 121.5594,312.2875 Q121.2094,312.7031 120.6516,312.9328 Q119.9187,313.25 119.0219,313.25 Q117.9719,313.25 117.1297,312.8344 Q116.4516,312.5062 115.9703,311.7953 Q115.5,311.0844 115.5,310.2422 L115.5,309.4766 Q115.5,308.6016 115.9156,307.8359 Q116.3422,307.0703 117.075,306.6656 Q117.8187,306.25 118.65,306.25 Q119.1531,306.25 119.5906,306.425 Q120.0281,306.6 120.4,306.95 Z " fill="#000000"/><text fill="#000000" font-family="sans-serif" font-size="8.4" lengthAdjust="spacing" textLength="18.9" x="128.8" y="312.8371">Task</text><line style="stroke:#A80036;stroke-width:1.0499999999999998;" x1="109.2" x2="149.1" y1="320.6" y2="320.6"/><line style="stroke:#A80036;stroke-width:1.0499999999999998;" x1="109.2" x2="149.1" y1="326.2" y2="326.2"/><!--MD5=[7e9802e8847bebd33f760d4283db2bdb]
class EffortEstimate--><rect codeLine="15" fill="#FEFECE" filter="url(#fh0194a2dspaj)" height="39.3312" id="EffortEstimate" style="stroke:#A80036;stroke-width:1.0499999999999998;" width="79.1" x="121.8" y="376.6"/><ellipse cx="132.3" cy="390.6656" fill="#ADD1B2" rx="7.7" ry="7.7" style="stroke:#A80036;stroke-width:0.6999999999999998;"/><path d="M133.7,388.2156 Q133.8422,387.8656 134.0062,387.6906 Q134.1703,387.5156 134.3562,387.5156 Q134.6844,387.5156 134.8922,387.7125 Q135.1,387.9094 135.1,388.3687 L135.1,389.4625 Q135.1,389.9219 134.9031,390.1187 Q134.7062,390.3156 134.4,390.3156 Q134.1266,390.3156 133.9516,390.1953 Q133.7766,390.075 133.7,389.7578 Q133.6672,389.5391 133.5469,389.4187 Q133.3281,389.1891 132.9344,389.0578 Q132.5406,388.9156 132.1469,388.9156 Q131.6547,388.9156 131.2391,389.1125 Q130.8344,389.3094 130.5172,389.7469 Q130.2,390.1844 130.2,390.7859 L130.2,391.4312 Q130.2,392.1531 130.7906,392.6344 Q131.3812,393.1156 132.4312,393.1156 Q133.0547,393.1156 133.4922,392.9734 Q133.7437,392.8969 134.0281,392.6453 Q134.2141,392.5031 134.3125,392.4594 Q134.4109,392.4156 134.5312,392.4156 Q134.7609,392.4156 134.925,392.6016 Q135.1,392.7766 135.1,393.0281 Q135.1,393.2687 134.8594,393.5531 Q134.5094,393.9687 133.9516,394.1984 Q133.2187,394.5156 132.3219,394.5156 Q131.2719,394.5156 130.4297,394.1 Q129.7516,393.7719 129.2703,393.0609 Q128.8,392.35 128.8,391.5078 L128.8,390.7422 Q128.8,389.8672 129.2156,389.1016 Q129.6422,388.3359 130.375,387.9312 Q131.1187,387.5156 131.95,387.5156 Q132.4531,387.5156 132.8906,387.6906 Q133.3281,387.8656 133.7,388.2156 Z " fill="#000000"/><text fill="#000000" font-family="sans-serif" font-size="8.4" font-style="italic" lengthAdjust="spacing" textLength="59.5" x="140.7" y="388.8199">«Value Object»</text><text fill="#000000" font-family="sans-serif" font-size="8.4" lengthAdjust="spacing" textLength="53.9" x="143.5" y="399.3855">EffortEstimate</text><line style="stroke:#A80036;stroke-width:1.0499999999999998;" x1="122.5" x2="200.2" y1="404.7312" y2="404.7312"/><line style="stroke:#A80036;stroke-width:1.0499999999999998;" x1="122.5" x2="200.2" y1="410.3312" y2="410.3312"/><!--MD5=[2ce0c9fb7f55b1e256ab28a8ea6b25ec]
class Customer--><rect codeLine="19" fill="#FEFECE" filter="url(#fh0194a2dspaj)" height="39.3312" id="Customer" style="stroke:#A80036;stroke-width:1.0499999999999998;" width="89.6" x="417.55" y="214.2"/><ellipse cx="428.05" cy="228.2656" fill="#ADD1B2" rx="7.7" ry="7.7" style="stroke:#A80036;stroke-width:0.6999999999999998;"/><path d="M429.45,225.8156 Q429.5922,225.4656 429.7562,225.2906 Q429.9203,225.1156 430.1062,225.1156 Q430.4344,225.1156 430.6422,225.3125 Q430.85,225.5094 430.85,225.9687 L430.85,227.0625 Q430.85,227.5219 430.6531,227.7187 Q430.4562,227.9156 430.15,227.9156 Q429.8766,227.9156 429.7016,227.7953 Q429.5266,227.675 429.45,227.3578 Q429.4172,227.1391 429.2969,227.0187 Q429.0781,226.7891 428.6844,226.6578 Q428.2906,226.5156 427.8969,226.5156 Q427.4047,226.5156 426.9891,226.7125 Q426.5844,226.9094 426.2672,227.3469 Q425.95,227.7844 425.95,228.3859 L425.95,229.0312 Q425.95,229.7531 426.5406,230.2344 Q427.1312,230.7156 428.1812,230.7156 Q428.8047,230.7156 429.2422,230.5734 Q429.4937,230.4969 429.7781,230.2453 Q429.9641,230.1031 430.0625,230.0594 Q430.1609,230.0156 430.2812,230.0156 Q430.5109,230.0156 430.675,230.2016 Q430.85,230.3766 430.85,230.6281 Q430.85,230.8687 430.6094,231.1531 Q430.2594,231.5687 429.7016,231.7984 Q428.9687,232.1156 428.0719,232.1156 Q427.0219,232.1156 426.1797,231.7 Q425.5016,231.3719 425.0203,230.6609 Q424.55,229.95 424.55,229.1078 L424.55,228.3422 Q424.55,227.4672 424.9656,226.7016 Q425.3922,225.9359 426.125,225.5312 Q426.8687,225.1156 427.7,225.1156 Q428.2031,225.1156 428.6406,225.2906 Q429.0781,225.4656 429.45,225.8156 Z " fill="#000000"/><text fill="#000000" font-family="sans-serif" font-size="8.4" font-style="italic" lengthAdjust="spacing" textLength="70" x="436.45" y="226.4199">«Aggregate Root»</text><text fill="#000000" font-family="sans-serif" font-size="8.4" lengthAdjust="spacing" textLength="38.5" x="452.2" y="236.9855">Customer</text><line style="stroke:#A80036;stroke-width:1.0499999999999998;" x1="418.25" x2="506.45" y1="242.3312" y2="242.3312"/><line style="stroke:#A80036;stroke-width:1.0499999999999998;" x1="418.25" x2="506.45" y1="247.9312" y2="247.9312"/><!--MD5=[f9a29335b499db729be669fd1bd54958]
class Account--><rect codeLine="23" fill="#FEFECE" filter="url(#fh0194a2dspaj)" height="39.3312" id="Account" style="stroke:#A80036;stroke-width:1.0499999999999998;" width="89.6" x="521.85" y="376.6"/><ellipse cx="532.35" cy="390.6656" fill="#ADD1B2" rx="7.7" ry="7.7" style="stroke:#A80036;stroke-width:0.6999999999999998;"/><path d="M533.75,388.2156 Q533.8922,387.8656 534.0562,387.6906 Q534.2203,387.5156 534.4062,387.5156 Q534.7344,387.5156 534.9422,387.7125 Q535.15,387.9094 535.15,388.3687 L535.15,389.4625 Q535.15,389.9219 534.9531,390.1187 Q534.7562,390.3156 534.45,390.3156 Q534.1766,390.3156 534.0016,390.1953 Q533.8266,390.075 533.75,389.7578 Q533.7172,389.5391 533.5969,389.4187 Q533.3781,389.1891 532.9844,389.0578 Q532.5906,388.9156 532.1969,388.9156 Q531.7047,388.9156 531.2891,389.1125 Q530.8844,389.3094 530.5672,389.7469 Q530.25,390.1844 530.25,390.7859 L530.25,391.4312 Q530.25,392.1531 530.8406,392.6344 Q531.4312,393.1156 532.4812,393.1156 Q533.1047,393.1156 533.5422,392.9734 Q533.7937,392.8969 534.0781,392.6453 Q534.2641,392.5031 534.3625,392.4594 Q534.4609,392.4156 534.5812,392.4156 Q534.8109,392.4156 534.975,392.6016 Q535.15,392.7766 535.15,393.0281 Q535.15,393.2687 534.9094,393.5531 Q534.5594,393.9687 534.0016,394.1984 Q533.2687,394.5156 532.3719,394.5156 Q531.3219,394.5156 530.4797,394.1 Q529.8016,393.7719 529.3203,393.0609 Q528.85,392.35 528.85,391.5078 L528.85,390.7422 Q528.85,389.8672 529.2656,389.1016 Q529.6922,388.3359 530.425,387.9312 Q531.1687,387.5156 532,387.5156 Q532.5031,387.5156 532.9406,387.6906 Q533.3781,387.8656 533.75,388.2156 Z " fill="#000000"/><text fill="#000000" font-family="sans-serif" font-size="8.4" font-style="italic" lengthAdjust="spacing" textLength="70" x="540.75" y="388.8199">«Aggregate Root»</text><text fill="#000000" font-family="sans-serif" font-size="8.4" lengthAdjust="spacing" textLength="30.1" x="560.7" y="399.3855">Account</text><line style="stroke:#A80036;stroke-width:1.0499999999999998;" x1="522.55" x2="610.75" y1="404.7312" y2="404.7312"/><line style="stroke:#A80036;stroke-width:1.0499999999999998;" x1="522.55" x2="610.75" y1="410.3312" y2="410.3312"/><!--MD5=[2f01b1126ff33a0669651ec2488a5ef9]
class Password--><rect codeLine="24" fill="#FEFECE" filter="url(#fh0194a2dspaj)" height="39.3312" id="Password" style="stroke:#A80036;stroke-width:1.0499999999999998;" width="79.1" x="417.9" y="376.6"/><ellipse cx="428.4" cy="390.6656" fill="#ADD1B2" rx="7.7" ry="7.7" style="stroke:#A80036;stroke-width:0.6999999999999998;"/><path d="M429.8,388.2156 Q429.9422,387.8656 430.1062,387.6906 Q430.2703,387.5156 430.4562,387.5156 Q430.7844,387.5156 430.9922,387.7125 Q431.2,387.9094 431.2,388.3687 L431.2,389.4625 Q431.2,389.9219 431.0031,390.1187 Q430.8062,390.3156 430.5,390.3156 Q430.2266,390.3156 430.0516,390.1953 Q429.8766,390.075 429.8,389.7578 Q429.7672,389.5391 429.6469,389.4187 Q429.4281,389.1891 429.0344,389.0578 Q428.6406,388.9156 428.2469,388.9156 Q427.7547,388.9156 427.3391,389.1125 Q426.9344,389.3094 426.6172,389.7469 Q426.3,390.1844 426.3,390.7859 L426.3,391.4312 Q426.3,392.1531 426.8906,392.6344 Q427.4812,393.1156 428.5312,393.1156 Q429.1547,393.1156 429.5922,392.9734 Q429.8437,392.8969 430.1281,392.6453 Q430.3141,392.5031 430.4125,392.4594 Q430.5109,392.4156 430.6312,392.4156 Q430.8609,392.4156 431.025,392.6016 Q431.2,392.7766 431.2,393.0281 Q431.2,393.2687 430.9594,393.5531 Q430.6094,393.9687 430.0516,394.1984 Q429.3187,394.5156 428.4219,394.5156 Q427.3719,394.5156 426.5297,394.1 Q425.8516,393.7719 425.3703,393.0609 Q424.9,392.35 424.9,391.5078 L424.9,390.7422 Q424.9,389.8672 425.3156,389.1016 Q425.7422,388.3359 426.475,387.9312 Q427.2187,387.5156 428.05,387.5156 Q428.5531,387.5156 428.9906,387.6906 Q429.4281,387.8656 429.8,388.2156 Z " fill="#000000"/><text fill="#000000" font-family="sans-serif" font-size="8.4" font-style="italic" lengthAdjust="spacing" textLength="59.5" x="436.8" y="388.8199">«Value Object»</text><text fill="#000000" font-family="sans-serif" font-size="8.4" lengthAdjust="spacing" textLength="39.2" x="446.95" y="399.3855">Password</text><line style="stroke:#A80036;stroke-width:1.0499999999999998;" x1="418.6" x2="496.3" y1="404.7312" y2="404.7312"/><line style="stroke:#A80036;stroke-width:1.0499999999999998;" x1="418.6" x2="496.3" y1="410.3312" y2="410.3312"/><!--MD5=[84af69d93ff817f9b2620e12f2d57f8b]
class PasswordHash--><rect codeLine="25" fill="#FEFECE" filter="url(#fh0194a2dspaj)" height="39.3312" id="PasswordHash" style="stroke:#A80036;stroke-width:1.0499999999999998;" width="82.6" x="417.55" y="457.8"/><ellipse cx="428.05" cy="471.8656" fill="#ADD1B2" rx="7.7" ry="7.7" style="stroke:#A80036;stroke-width:0.6999999999999998;"/><path d="M429.45,469.4156 Q429.5922,469.0656 429.7562,468.8906 Q429.9203,468.7156 430.1062,468.7156 Q430.4344,468.7156 430.6422,468.9125 Q430.85,469.1094 430.85,469.5687 L430.85,470.6625 Q430.85,471.1219 430.6531,471.3187 Q430.4562,471.5156 430.15,471.5156 Q429.8766,471.5156 429.7016,471.3953 Q429.5266,471.275 429.45,470.9578 Q429.4172,470.7391 429.2969,470.6187 Q429.0781,470.3891 428.6844,470.2578 Q428.2906,470.1156 427.8969,470.1156 Q427.4047,470.1156 426.9891,470.3125 Q426.5844,470.5094 426.2672,470.9469 Q425.95,471.3844 425.95,471.9859 L425.95,472.6312 Q425.95,473.3531 426.5406,473.8344 Q427.1312,474.3156 428.1812,474.3156 Q428.8047,474.3156 429.2422,474.1734 Q429.4937,474.0969 429.7781,473.8453 Q429.9641,473.7031 430.0625,473.6594 Q430.1609,473.6156 430.2812,473.6156 Q430.5109,473.6156 430.675,473.8016 Q430.85,473.9766 430.85,474.2281 Q430.85,474.4687 430.6094,474.7531 Q430.2594,475.1687 429.7016,475.3984 Q428.9687,475.7156 428.0719,475.7156 Q427.0219,475.7156 426.1797,475.3 Q425.5016,474.9719 425.0203,474.2609 Q424.55,473.55 424.55,472.7078 L424.55,471.9422 Q424.55,471.0672 424.9656,470.3016 Q425.3922,469.5359 426.125,469.1312 Q426.8687,468.7156 427.7,468.7156 Q428.2031,468.7156 428.6406,468.8906 Q429.0781,469.0656 429.45,469.4156 Z " fill="#000000"/><text fill="#000000" font-family="sans-serif" font-size="8.4" font-style="italic" lengthAdjust="spacing" textLength="59.5" x="438.2" y="470.0199">«Value Object»</text><text fill="#000000" font-family="sans-serif" font-size="8.4" lengthAdjust="spacing" textLength="60.2" x="437.85" y="480.5855">PasswordHash</text><line style="stroke:#A80036;stroke-width:1.0499999999999998;" x1="418.25" x2="499.45" y1="485.9312" y2="485.9312"/><line style="stroke:#A80036;stroke-width:1.0499999999999998;" x1="418.25" x2="499.45" y1="491.5312" y2="491.5312"/><!--MD5=[78bec0fde86ad92ec1dc3fb343b83709]
class Email--><rect codeLine="26" fill="#FEFECE" filter="url(#fh0194a2dspaj)" height="39.3312" id="Email" style="stroke:#A80036;stroke-width:1.0499999999999998;" width="79.1" x="525" y="457.8"/><ellipse cx="535.5" cy="471.8656" fill="#ADD1B2" rx="7.7" ry="7.7" style="stroke:#A80036;stroke-width:0.6999999999999998;"/><path d="M536.9,469.4156 Q537.0422,469.0656 537.2062,468.8906 Q537.3703,468.7156 537.5562,468.7156 Q537.8844,468.7156 538.0922,468.9125 Q538.3,469.1094 538.3,469.5687 L538.3,470.6625 Q538.3,471.1219 538.1031,471.3187 Q537.9062,471.5156 537.6,471.5156 Q537.3266,471.5156 537.1516,471.3953 Q536.9766,471.275 536.9,470.9578 Q536.8672,470.7391 536.7469,470.6187 Q536.5281,470.3891 536.1344,470.2578 Q535.7406,470.1156 535.3469,470.1156 Q534.8547,470.1156 534.4391,470.3125 Q534.0344,470.5094 533.7172,470.9469 Q533.4,471.3844 533.4,471.9859 L533.4,472.6312 Q533.4,473.3531 533.9906,473.8344 Q534.5812,474.3156 535.6312,474.3156 Q536.2547,474.3156 536.6922,474.1734 Q536.9437,474.0969 537.2281,473.8453 Q537.4141,473.7031 537.5125,473.6594 Q537.6109,473.6156 537.7312,473.6156 Q537.9609,473.6156 538.125,473.8016 Q538.3,473.9766 538.3,474.2281 Q538.3,474.4687 538.0594,474.7531 Q537.7094,475.1687 537.1516,475.3984 Q536.4187,475.7156 535.5219,475.7156 Q534.4719,475.7156 533.6297,475.3 Q532.9516,474.9719 532.4703,474.2609 Q532,473.55 532,472.7078 L532,471.9422 Q532,471.0672 532.4156,470.3016 Q532.8422,469.5359 533.575,469.1312 Q534.3187,468.7156 535.15,468.7156 Q535.6531,468.7156 536.0906,468.8906 Q536.5281,469.0656 536.9,469.4156 Z " fill="#000000"/><text fill="#000000" font-family="sans-serif" font-size="8.4" font-style="italic" lengthAdjust="spacing" textLength="59.5" x="543.9" y="470.0199">«Value Object»</text><text fill="#000000" font-family="sans-serif" font-size="8.4" lengthAdjust="spacing" textLength="22.4" x="562.45" y="480.5855">Email</text><line style="stroke:#A80036;stroke-width:1.0499999999999998;" x1="525.7" x2="603.4" y1="485.9312" y2="485.9312"/><line style="stroke:#A80036;stroke-width:1.0499999999999998;" x1="525.7" x2="603.4" y1="491.5312" y2="491.5312"/><!--MD5=[eab6283b872a923979a6d70317671905]
class ProfileRequest--><rect codeLine="27" fill="#FEFECE" filter="url(#fh0194a2dspaj)" height="39.3312" id="ProfileRequest" style="stroke:#A80036;stroke-width:1.0499999999999998;" width="79.8" x="628.95" y="457.8"/><ellipse cx="639.45" cy="471.8656" fill="#ADD1B2" rx="7.7" ry="7.7" style="stroke:#A80036;stroke-width:0.6999999999999998;"/><path d="M640.85,469.4156 Q640.9922,469.0656 641.1562,468.8906 Q641.3203,468.7156 641.5062,468.7156 Q641.8344,468.7156 642.0422,468.9125 Q642.25,469.1094 642.25,469.5687 L642.25,470.6625 Q642.25,471.1219 642.0531,471.3187 Q641.8562,471.5156 641.55,471.5156 Q641.2766,471.5156 641.1016,471.3953 Q640.9266,471.275 640.85,470.9578 Q640.8172,470.7391 640.6969,470.6187 Q640.4781,470.3891 640.0844,470.2578 Q639.6906,470.1156 639.2969,470.1156 Q638.8047,470.1156 638.3891,470.3125 Q637.9844,470.5094 637.6672,470.9469 Q637.35,471.3844 637.35,471.9859 L637.35,472.6312 Q637.35,473.3531 637.9406,473.8344 Q638.5312,474.3156 639.5812,474.3156 Q640.2047,474.3156 640.6422,474.1734 Q640.8937,474.0969 641.1781,473.8453 Q641.3641,473.7031 641.4625,473.6594 Q641.5609,473.6156 641.6812,473.6156 Q641.9109,473.6156 642.075,473.8016 Q642.25,473.9766 642.25,474.2281 Q642.25,474.4687 642.0094,474.7531 Q641.6594,475.1687 641.1016,475.3984 Q640.3687,475.7156 639.4719,475.7156 Q638.4219,475.7156 637.5797,475.3 Q636.9016,474.9719 636.4203,474.2609 Q635.95,473.55 635.95,472.7078 L635.95,471.9422 Q635.95,471.0672 636.3656,470.3016 Q636.7922,469.5359 637.525,469.1312 Q638.2687,468.7156 639.1,468.7156 Q639.6031,468.7156 640.0406,468.8906 Q640.4781,469.0656 640.85,469.4156 Z " fill="#000000"/><text fill="#000000" font-family="sans-serif" font-size="8.4" font-style="italic" lengthAdjust="spacing" textLength="30.8" x="662.55" y="470.0199">«Entity»</text><text fill="#000000" font-family="sans-serif" font-size="8.4" lengthAdjust="spacing" textLength="57.4" x="649.25" y="480.5855">ProfileRequest</text><line style="stroke:#A80036;stroke-width:1.0499999999999998;" x1="629.65" x2="708.05" y1="485.9312" y2="485.9312"/><line style="stroke:#A80036;stroke-width:1.0499999999999998;" x1="629.65" x2="708.05" y1="491.5312" y2="491.5312"/><!--MD5=[447f8b4c2341541f2d92ddde6334f3f9]
class BusinessSector--><rect codeLine="32" fill="#FEFECE" filter="url(#fh0194a2dspaj)" height="39.3312" id="BusinessSector" style="stroke:#A80036;stroke-width:1.0499999999999998;" width="89.6" x="417.55" y="29.4"/><ellipse cx="428.05" cy="43.4656" fill="#ADD1B2" rx="7.7" ry="7.7" style="stroke:#A80036;stroke-width:0.6999999999999998;"/><path d="M429.45,41.0156 Q429.5922,40.6656 429.7562,40.4906 Q429.9203,40.3156 430.1062,40.3156 Q430.4344,40.3156 430.6422,40.5125 Q430.85,40.7094 430.85,41.1687 L430.85,42.2625 Q430.85,42.7219 430.6531,42.9187 Q430.4562,43.1156 430.15,43.1156 Q429.8766,43.1156 429.7016,42.9953 Q429.5266,42.875 429.45,42.5578 Q429.4172,42.3391 429.2969,42.2187 Q429.0781,41.9891 428.6844,41.8578 Q428.2906,41.7156 427.8969,41.7156 Q427.4047,41.7156 426.9891,41.9125 Q426.5844,42.1094 426.2672,42.5469 Q425.95,42.9844 425.95,43.5859 L425.95,44.2312 Q425.95,44.9531 426.5406,45.4344 Q427.1312,45.9156 428.1812,45.9156 Q428.8047,45.9156 429.2422,45.7734 Q429.4937,45.6969 429.7781,45.4453 Q429.9641,45.3031 430.0625,45.2594 Q430.1609,45.2156 430.2812,45.2156 Q430.5109,45.2156 430.675,45.4016 Q430.85,45.5766 430.85,45.8281 Q430.85,46.0687 430.6094,46.3531 Q430.2594,46.7687 429.7016,46.9984 Q428.9687,47.3156 428.0719,47.3156 Q427.0219,47.3156 426.1797,46.9 Q425.5016,46.5719 425.0203,45.8609 Q424.55,45.15 424.55,44.3078 L424.55,43.5422 Q424.55,42.6672 424.9656,41.9016 Q425.3922,41.1359 426.125,40.7312 Q426.8687,40.3156 427.7,40.3156 Q428.2031,40.3156 428.6406,40.4906 Q429.0781,40.6656 429.45,41.0156 Z " fill="#000000"/><text fill="#000000" font-family="sans-serif" font-size="8.4" font-style="italic" lengthAdjust="spacing" textLength="70" x="436.45" y="41.6199">«Aggregate Root»</text><text fill="#000000" font-family="sans-serif" font-size="8.4" lengthAdjust="spacing" textLength="61.6" x="440.65" y="52.1855">BusinessSector</text><line style="stroke:#A80036;stroke-width:1.0499999999999998;" x1="418.25" x2="506.45" y1="57.5312" y2="57.5312"/><line style="stroke:#A80036;stroke-width:1.0499999999999998;" x1="418.25" x2="506.45" y1="63.1312" y2="63.1312"/><!--MD5=[77871f5ce98274c2f672ab299257d545]
class ProjectTypology--><rect codeLine="36" fill="#FEFECE" filter="url(#fh0194a2dspaj)" height="39.3312" id="ProjectTypology" style="stroke:#A80036;stroke-width:1.0499999999999998;" width="89.6" x="417.55" y="121.8"/><ellipse cx="428.05" cy="135.8656" fill="#ADD1B2" rx="7.7" ry="7.7" style="stroke:#A80036;stroke-width:0.6999999999999998;"/><path d="M429.45,133.4156 Q429.5922,133.0656 429.7562,132.8906 Q429.9203,132.7156 430.1062,132.7156 Q430.4344,132.7156 430.6422,132.9125 Q430.85,133.1094 430.85,133.5687 L430.85,134.6625 Q430.85,135.1219 430.6531,135.3187 Q430.4562,135.5156 430.15,135.5156 Q429.8766,135.5156 429.7016,135.3953 Q429.5266,135.275 429.45,134.9578 Q429.4172,134.7391 429.2969,134.6187 Q429.0781,134.3891 428.6844,134.2578 Q428.2906,134.1156 427.8969,134.1156 Q427.4047,134.1156 426.9891,134.3125 Q426.5844,134.5094 426.2672,134.9469 Q425.95,135.3844 425.95,135.9859 L425.95,136.6312 Q425.95,137.3531 426.5406,137.8344 Q427.1312,138.3156 428.1812,138.3156 Q428.8047,138.3156 429.2422,138.1734 Q429.4937,138.0969 429.7781,137.8453 Q429.9641,137.7031 430.0625,137.6594 Q430.1609,137.6156 430.2812,137.6156 Q430.5109,137.6156 430.675,137.8016 Q430.85,137.9766 430.85,138.2281 Q430.85,138.4687 430.6094,138.7531 Q430.2594,139.1687 429.7016,139.3984 Q428.9687,139.7156 428.0719,139.7156 Q427.0219,139.7156 426.1797,139.3 Q425.5016,138.9719 425.0203,138.2609 Q424.55,137.55 424.55,136.7078 L424.55,135.9422 Q424.55,135.0672 424.9656,134.3016 Q425.3922,133.5359 426.125,133.1312 Q426.8687,132.7156 427.7,132.7156 Q428.2031,132.7156 428.6406,132.8906 Q429.0781,133.0656 429.45,133.4156 Z " fill="#000000"/><text fill="#000000" font-family="sans-serif" font-size="8.4" font-style="italic" lengthAdjust="spacing" textLength="70" x="436.45" y="134.0199">«Aggregate Root»</text><text fill="#000000" font-family="sans-serif" font-size="8.4" lengthAdjust="spacing" textLength="60.2" x="441.35" y="144.5855">ProjectTypology</text><line style="stroke:#A80036;stroke-width:1.0499999999999998;" x1="418.25" x2="506.45" y1="149.9312" y2="149.9312"/><line style="stroke:#A80036;stroke-width:1.0499999999999998;" x1="418.25" x2="506.45" y1="155.5312" y2="155.5312"/><!--MD5=[a3638c1e5b65d287ecad7f06f5c0f212]
class Role--><rect codeLine="40" fill="#FEFECE" filter="url(#fh0194a2dspaj)" height="39.3312" id="Role" style="stroke:#A80036;stroke-width:1.0499999999999998;" width="79.1" x="4.9" y="295.4"/><ellipse cx="15.4" cy="309.4656" fill="#ADD1B2" rx="7.7" ry="7.7" style="stroke:#A80036;stroke-width:0.6999999999999998;"/><path d="M16.8,307.0156 Q16.9422,306.6656 17.1062,306.4906 Q17.2703,306.3156 17.4562,306.3156 Q17.7844,306.3156 17.9922,306.5125 Q18.2,306.7094 18.2,307.1687 L18.2,308.2625 Q18.2,308.7219 18.0031,308.9187 Q17.8062,309.1156 17.5,309.1156 Q17.2266,309.1156 17.0516,308.9953 Q16.8766,308.875 16.8,308.5578 Q16.7672,308.3391 16.6469,308.2187 Q16.4281,307.9891 16.0344,307.8578 Q15.6406,307.7156 15.2469,307.7156 Q14.7547,307.7156 14.3391,307.9125 Q13.9344,308.1094 13.6172,308.5469 Q13.3,308.9844 13.3,309.5859 L13.3,310.2312 Q13.3,310.9531 13.8906,311.4344 Q14.4812,311.9156 15.5312,311.9156 Q16.1547,311.9156 16.5922,311.7734 Q16.8437,311.6969 17.1281,311.4453 Q17.3141,311.3031 17.4125,311.2594 Q17.5109,311.2156 17.6312,311.2156 Q17.8609,311.2156 18.025,311.4016 Q18.2,311.5766 18.2,311.8281 Q18.2,312.0687 17.9594,312.3531 Q17.6094,312.7687 17.0516,312.9984 Q16.3187,313.3156 15.4219,313.3156 Q14.3719,313.3156 13.5297,312.9 Q12.8516,312.5719 12.3703,311.8609 Q11.9,311.15 11.9,310.3078 L11.9,309.5422 Q11.9,308.6672 12.3156,307.9016 Q12.7422,307.1359 13.475,306.7312 Q14.2187,306.3156 15.05,306.3156 Q15.5531,306.3156 15.9906,306.4906 Q16.4281,306.6656 16.8,307.0156 Z " fill="#000000"/><text fill="#000000" font-family="sans-serif" font-size="8.4" font-style="italic" lengthAdjust="spacing" textLength="59.5" x="23.8" y="307.6199">«Value Object»</text><text fill="#000000" font-family="sans-serif" font-size="8.4" lengthAdjust="spacing" textLength="18.2" x="44.45" y="318.1855">Role</text><line style="stroke:#A80036;stroke-width:1.0499999999999998;" x1="5.6" x2="83.3" y1="323.5312" y2="323.5312"/><line style="stroke:#A80036;stroke-width:1.0499999999999998;" x1="5.6" x2="83.3" y1="329.1312" y2="329.1312"/><!--MD5=[7b57f7066b803747d2119f99dd1555d4]
class Profile--><rect codeLine="41" fill="#FEFECE" filter="url(#fh0194a2dspaj)" height="39.3312" id="Profile" style="stroke:#A80036;stroke-width:1.0499999999999998;" width="79.1" x="731.5" y="376.6"/><ellipse cx="742" cy="390.6656" fill="#ADD1B2" rx="7.7" ry="7.7" style="stroke:#A80036;stroke-width:0.6999999999999998;"/><path d="M743.4,388.2156 Q743.5422,387.8656 743.7062,387.6906 Q743.8703,387.5156 744.0562,387.5156 Q744.3844,387.5156 744.5922,387.7125 Q744.8,387.9094 744.8,388.3687 L744.8,389.4625 Q744.8,389.9219 744.6031,390.1187 Q744.4062,390.3156 744.1,390.3156 Q743.8266,390.3156 743.6516,390.1953 Q743.4766,390.075 743.4,389.7578 Q743.3672,389.5391 743.2469,389.4187 Q743.0281,389.1891 742.6344,389.0578 Q742.2406,388.9156 741.8469,388.9156 Q741.3547,388.9156 740.9391,389.1125 Q740.5344,389.3094 740.2172,389.7469 Q739.9,390.1844 739.9,390.7859 L739.9,391.4312 Q739.9,392.1531 740.4906,392.6344 Q741.0812,393.1156 742.1312,393.1156 Q742.7547,393.1156 743.1922,392.9734 Q743.4437,392.8969 743.7281,392.6453 Q743.9141,392.5031 744.0125,392.4594 Q744.1109,392.4156 744.2312,392.4156 Q744.4609,392.4156 744.625,392.6016 Q744.8,392.7766 744.8,393.0281 Q744.8,393.2687 744.5594,393.5531 Q744.2094,393.9687 743.6516,394.1984 Q742.9187,394.5156 742.0219,394.5156 Q740.9719,394.5156 740.1297,394.1 Q739.4516,393.7719 738.9703,393.0609 Q738.5,392.35 738.5,391.5078 L738.5,390.7422 Q738.5,389.8672 738.9156,389.1016 Q739.3422,388.3359 740.075,387.9312 Q740.8187,387.5156 741.65,387.5156 Q742.1531,387.5156 742.5906,387.6906 Q743.0281,387.8656 743.4,388.2156 Z " fill="#000000"/><text fill="#000000" font-family="sans-serif" font-size="8.4" font-style="italic" lengthAdjust="spacing" textLength="59.5" x="750.4" y="388.8199">«Value Object»</text><text fill="#000000" font-family="sans-serif" font-size="8.4" lengthAdjust="spacing" textLength="24.5" x="767.9" y="399.3855">Profile</text><line style="stroke:#A80036;stroke-width:1.0499999999999998;" x1="732.2" x2="809.9" y1="404.7312" y2="404.7312"/><line style="stroke:#A80036;stroke-width:1.0499999999999998;" x1="732.2" x2="809.9" y1="410.3312" y2="410.3312"/><!--MD5=[e8f5bfaca114a3902dd6601d0b2b54ea]
reverse link BusinessSector to Project--><path codeLine="44" d="M432.467,70.812 C410.732,86.17 381.542,106.792 360.514,121.646 " fill="none" id="BusinessSector-backto-Project" style="stroke:#A80036;stroke-width:0.6999999999999998;"/><polygon fill="#A80036" points="435.351,68.775,428.5898,70.1225,432.4922,70.7942,431.8204,74.6966,435.351,68.775" style="stroke:#A80036;stroke-width:0.6999999999999998;"/><text fill="#000000" font-family="sans-serif" font-size="9.1" lengthAdjust="spacing" textLength="57.4" x="365.7668" y="83.7849">is classified in</text><!--MD5=[123efd9d8521250bc9d535769a4b79db]
link Project to ProjectTypology--><path codeLine="45" d="M378.581,154.77 C390.341,156.387 402.108,156.527 413.868,155.204 " fill="none" id="Project-to-ProjectTypology" style="stroke:#A80036;stroke-width:0.6999999999999998;"/><polygon fill="#A80036" points="417.522,154.742,410.9255,152.738,414.0486,155.1724,411.6142,158.2955,417.522,154.742" style="stroke:#A80036;stroke-width:0.6999999999999998;"/><text fill="#000000" font-family="sans-serif" font-size="9.1" lengthAdjust="spacing" textLength="57.4" x="358.5478" y="176.0816">is classified in</text><!--MD5=[70d1096270c037c9ccdb9d978b7d8524]
link Project to Customer--><path codeLine="46" d="M360.549,161.175 C381.591,176.043 410.774,196.658 432.502,212.016 " fill="none" id="Project-to-Customer" style="stroke:#A80036;stroke-width:0.6999999999999998;"/><polygon fill="#A80036" points="435.386,214.046,431.8554,208.1244,432.5272,212.0268,428.6248,212.6985,435.386,214.046" style="stroke:#A80036;stroke-width:0.6999999999999998;"/><text fill="#000000" font-family="sans-serif" font-size="9.1" lengthAdjust="spacing" textLength="62.3" x="297.341" y="176.1849">is developed for</text><!--MD5=[99e6a3d10935d54e10b120f38e844c1f]
link Sprint to SprintBacklog--><path codeLine="48" d="M167.811,49 C175.581,49 183.351,49 191.128,49 " fill="none" id="Sprint-to-SprintBacklog" style="stroke:#A80036;stroke-width:0.6999999999999998;"/><polygon fill="#A80036" points="194.698,49,188.398,46.2,191.198,49,188.398,51.8,194.698,49" style="stroke:#A80036;stroke-width:0.6999999999999998;"/><text fill="#000000" font-family="sans-serif" font-size="9.1" lengthAdjust="spacing" textLength="14.7" x="174.7484" y="46.6133">has</text><!--MD5=[8383f08382760acfe8beb7edb9e06a0c]
link SprintBacklog to UserStory--><path codeLine="49" d="M233.002,65.968 C233.24,81.368 233.59,104.517 233.849,120.96 " fill="none" id="SprintBacklog-to-UserStory" style="stroke:#A80036;stroke-width:0.6999999999999998;"/><polygon fill="#A80036" points="233.905,124.572,236.5966,118.2249,233.845,121.0725,230.9974,118.3209,233.905,124.572" style="stroke:#A80036;stroke-width:0.6999999999999998;"/><text fill="#000000" font-family="sans-serif" font-size="9.1" lengthAdjust="spacing" textLength="34.3" x="195.1475" y="117.1029">contains</text><!--MD5=[fcf65268c80f727d5a9966184c5b5585]
link Sprint to ScrumBoard--><path codeLine="50" d="M144.998,65.968 C144.76,81.368 144.41,104.517 144.151,120.96 " fill="none" id="Sprint-to-ScrumBoard" style="stroke:#A80036;stroke-width:0.6999999999999998;"/><polygon fill="#A80036" points="144.095,124.572,147.0026,118.3209,144.155,121.0725,141.4034,118.2249,144.095,124.572" style="stroke:#A80036;stroke-width:0.6999999999999998;"/><text fill="#000000" font-family="sans-serif" font-size="9.1" lengthAdjust="spacing" textLength="14.7" x="127.5743" y="117.1029">has</text><!--MD5=[e66102db73ab58d92f23b3ce28ea4d72]
link Project to ResourceList--><path codeLine="52" d="M334.579,161.175 C335.349,175.553 336.413,195.321 337.232,210.49 " fill="none" id="Project-to-ResourceList" style="stroke:#A80036;stroke-width:0.6999999999999998;"/><polygon fill="#A80036" points="337.421,214.046,339.8928,207.6101,337.2407,210.5506,334.3002,207.8986,337.421,214.046" style="stroke:#A80036;stroke-width:0.6999999999999998;"/><!--MD5=[428a9da07ecc363986486a917afa4ee2]
link ResourceList to Resource--><path codeLine="53" d="M314.398,253.414 C298.102,266.224 276.682,283.066 260.498,295.792 " fill="none" id="ResourceList-to-Resource" style="stroke:#A80036;stroke-width:0.6999999999999998;"/><polygon fill="#A80036" points="257.74,297.955,264.424,296.2655,260.4925,295.7931,260.9649,291.8616,257.74,297.955" style="stroke:#A80036;stroke-width:0.6999999999999998;"/><!--MD5=[e9bfda8003ec4a4a334fa3f7b77fe36c]
link Project to ProductBacklog--><path codeLine="54" d="M311.745,161.119 C303.807,168.091 294.791,176.064 286.65,183.4 C276.451,192.591 265.279,202.86 255.766,211.666 " fill="none" id="Project-to-ProductBacklog" style="stroke:#A80036;stroke-width:0.6999999999999998;"/><polygon fill="#A80036" points="253.127,214.109,259.6565,211.8965,255.7,211.7363,255.8601,207.7797,253.127,214.109" style="stroke:#A80036;stroke-width:0.6999999999999998;"/><text fill="#000000" font-family="sans-serif" font-size="9.1" lengthAdjust="spacing" textLength="14.7" x="241.4395" y="206.5203">has</text><!--MD5=[3093f85762fddb033a3a5d933eb375de]
link Resource to Account--><path codeLine="56" d="M267.267,330.722 C271.348,332.269 275.548,333.627 279.65,334.6 C329.357,346.381 461.832,326.795 509.25,345.8 C524.139,351.764 537.845,363.293 548.121,373.744 " fill="none" id="Resource-to-Account" style="stroke:#A80036;stroke-width:0.6999999999999998;"/><polygon fill="#A80036" points="550.662,376.369,548.3045,369.8904,548.2325,373.8495,544.2734,373.7776,550.662,376.369" style="stroke:#A80036;stroke-width:0.6999999999999998;"/><!--MD5=[633e939296cb74a5e6114245b97de7c2]
reverse link EffortUpdate to Task--><path codeLine="57" d="M296.345,293.699 C287.238,289.212 277.214,285.131 267.4,282.8 C241.367,276.626 233.443,277.599 207.2,282.8 C186.928,286.818 165.305,296.177 149.975,303.779 " fill="none" id="EffortUpdate-backto-Task" style="stroke:#A80036;stroke-width:0.6999999999999998;"/><polygon fill="#A80036" points="299.663,295.372,295.3076,290.0278,296.5406,293.7908,292.7776,295.0237,299.663,295.372" style="stroke:#A80036;stroke-width:0.6999999999999998;"/><!--MD5=[0a0910d1ef175b9df9cc6585b40c1674]
link Resource to EffortUpdate--><path codeLine="58" d="M267.218,315 C274.197,315 281.176,315 288.155,315 " fill="none" id="Resource-to-EffortUpdate" style="stroke:#A80036;stroke-width:0.6999999999999998;"/><polygon fill="#A80036" points="291.809,315,285.509,312.2,288.309,315,285.509,317.8,291.809,315" style="stroke:#A80036;stroke-width:0.6999999999999998;"/><!--MD5=[6dc996605c8c8828520d970eb5fcb24e]
reverse link Role to Resource--><path codeLine="59" d="M79.961,293.699 C89.173,289.205 99.295,285.124 109.2,282.8 C135.247,276.682 143.304,276.899 169.4,282.8 C182.959,285.866 196.987,291.998 208.719,298.088 " fill="none" id="Role-backto-Resource" style="stroke:#A80036;stroke-width:0.6999999999999998;"/><polygon fill="#A80036" points="76.608,295.372,83.4955,295.0678,79.7405,293.8108,80.9975,290.0558,76.608,295.372" style="stroke:#A80036;stroke-width:0.6999999999999998;"/><!--MD5=[73ffcd36826ca8f0ef2b57c971a92ed2]
link Account to Profile--><path codeLine="60" d="M611.562,396.2 C650.37,396.2 689.171,396.2 727.979,396.2 " fill="none" id="Account-to-Profile" style="stroke:#A80036;stroke-width:0.6999999999999998;"/><polygon fill="#A80036" points="731.493,396.2,725.193,393.4,727.993,396.2,725.193,399,731.493,396.2" style="stroke:#A80036;stroke-width:0.6999999999999998;"/><!--MD5=[f2844f051e630287a02e0b304f31c0bf]
link Account to ProfileRequest--><path codeLine="61" d="M590.87,415.814 C606.151,427.742 625.919,443.177 641.725,455.518 " fill="none" id="Account-to-ProfileRequest" style="stroke:#A80036;stroke-width:0.6999999999999998;"/><polygon fill="#A80036" points="644.63,457.786,641.3807,451.7055,641.8689,455.6351,637.9393,456.1233,644.63,457.786" style="stroke:#A80036;stroke-width:0.6999999999999998;"/><text fill="#000000" font-family="sans-serif" font-size="9.1" lengthAdjust="spacing" textLength="26.6" x="609.3535" y="450.2151">places</text><!--MD5=[b53c5612feb7e4e3eb435085e74a354c]
link Account to PasswordHash--><path codeLine="62" d="M541.1,415.814 C524.916,427.791 503.965,443.303 487.256,455.672 " fill="none" id="Account-to-PasswordHash" style="stroke:#A80036;stroke-width:0.6999999999999998;"/><polygon fill="#A80036" points="484.4,457.786,491.1296,456.2883,487.2132,455.7037,487.7978,451.7873,484.4,457.786" style="stroke:#A80036;stroke-width:0.6999999999999998;"/><text fill="#000000" font-family="sans-serif" font-size="9.1" lengthAdjust="spacing" textLength="14.7" x="473.9087" y="450.2151">has</text><!--MD5=[7b576d7a00e53042e96fd89709fe20e5]
link Account to Email--><path codeLine="63" d="M566.153,415.814 C565.852,427.259 565.467,441.924 565.145,453.992 " fill="none" id="Account-to-Email" style="stroke:#A80036;stroke-width:0.6999999999999998;"/><polygon fill="#A80036" points="565.054,457.646,568.015,451.4201,565.144,454.1472,562.4169,451.2761,565.054,457.646" style="stroke:#A80036;stroke-width:0.6999999999999998;"/><text fill="#000000" font-family="sans-serif" font-size="9.1" lengthAdjust="spacing" textLength="14.7" x="548.7709" y="450.0427">has</text><!--MD5=[f63931e844ec4d4a03424d992e220432]
reverse link Password to Account--><path codeLine="64" d="M500.787,396.2 C507.808,396.2 514.822,396.2 521.836,396.2 " fill="none" id="Password-backto-Account" style="stroke:#A80036;stroke-width:0.6999999999999998;"/><polygon fill="#A80036" points="497.119,396.2,503.419,399,500.619,396.2,503.419,393.4,497.119,396.2" style="stroke:#A80036;stroke-width:0.6999999999999998;"/><text fill="#000000" font-family="sans-serif" font-size="9.1" lengthAdjust="spacing" textLength="19.6" x="502.6245" y="393.7225">uses</text><!--MD5=[5748e35a18aa388b6d83eb68d23a64a6]
link UserStory to EffortEstimate--><path codeLine="65" d="M216.86,158.291 C209.384,164.822 200.326,172.13 191.45,177.8 C186.522,180.943 182.889,178.605 179.55,183.4 C168.903,198.688 163.737,321.503 162.022,372.953 " fill="none" id="UserStory-to-EffortEstimate" style="stroke:#A80036;stroke-width:0.6999999999999998;"/><polygon fill="#A80036" points="161.903,376.53,164.8995,370.3211,162.0129,373.0317,159.3023,370.1452,161.903,376.53" style="stroke:#A80036;stroke-width:0.6999999999999998;"/><!--MD5=[676db6b3f9220322a252ac23940ba1a6]
link Task to EffortEstimate--><path codeLine="66" d="M135.667,331.849 C140.476,343.77 147.084,360.143 152.39,373.296 " fill="none" id="Task-to-EffortEstimate" style="stroke:#A80036;stroke-width:0.6999999999999998;"/><polygon fill="#A80036" points="153.713,376.572,153.9547,369.682,152.4045,373.3258,148.7608,371.7756,153.713,376.572" style="stroke:#A80036;stroke-width:0.6999999999999998;"/><!--MD5=[19419cb5f8cd8eee9c3db0589ff21e7c]
reverse link UserStory to ProductBacklog--><path codeLine="68" d="M233.842,161.98 C233.604,177.485 233.275,198.877 233.044,214.137 " fill="none" id="UserStory-backto-ProductBacklog" style="stroke:#A80036;stroke-width:0.6999999999999998;"/><polygon fill="#A80036" points="233.898,158.368,230.9904,164.6191,233.838,161.8675,236.5896,164.7151,233.898,158.368" style="stroke:#A80036;stroke-width:0.6999999999999998;"/><text fill="#000000" font-family="sans-serif" font-size="9.1" lengthAdjust="spacing" textLength="34.3" x="195.3563" y="173.3455">contains</text><!--MD5=[f2de19426bd283a752b111b183c16be7]
@startuml
'https://plantuml.com/class-diagram

package Project{

class Project << Aggregate Root >>
class ProductBacklog << Value Object >>
class ResourceList << Value Object >>
class Resource
class Sprint
class ScrumBoard
class EffortUpdate << Value Object >>
class SprintBacklog
class UserStory
class Task
class EffortEstimate << Value Object >>
}

package Customer{
class Customer<< Aggregate Root >>
}

package Account{
class Account << Aggregate Root >>
class Password << Value Object >>
class PasswordHash << Value Object >>
class Email << Value Object >>
class ProfileRequest << Entity >>
}


package BusinessSector{
class BusinessSector << Aggregate Root >>
}

package ProjectTypology{
class ProjectTypology << Aggregate Root >>
}


class Role << Value Object >>
class Profile << Value Object >>


Project -up-> "is classified in" BusinessSector
Project "is classified in" -right->  ProjectTypology
Project "is developed for" -down->  Customer

Sprint -> "has" SprintBacklog
SprintBacklog - -> "contains" UserStory
Sprint -down-> "has" ScrumBoard

Project - -> ResourceList
ResourceList - -> Resource
Project - -> "has" ProductBacklog

Resource - ->Account
EffortUpdate <-right- Task
Resource -right->EffortUpdate
Resource -left-> Role
Account -right-> Profile
Account - -> "places" ProfileRequest
Account - -> "has" PasswordHash
Account - -> "has" Email
Account -left-> "uses" Password
UserStory - -> EffortEstimate
Task - -> EffortEstimate

ProductBacklog -up-> "contains" UserStory
@enduml

@startuml

package Project{

class Project << Aggregate Root >>
class ProductBacklog << Value Object >>
class ResourceList << Value Object >>
class Resource
class Sprint
class ScrumBoard
class EffortUpdate << Value Object >>
class SprintBacklog
class UserStory
class Task
class EffortEstimate << Value Object >>
}

package Customer{
class Customer<< Aggregate Root >>
}

package Account{
class Account << Aggregate Root >>
class Password << Value Object >>
class PasswordHash << Value Object >>
class Email << Value Object >>
class ProfileRequest << Entity >>
}


package BusinessSector{
class BusinessSector << Aggregate Root >>
}

package ProjectTypology{
class ProjectTypology << Aggregate Root >>
}


class Role << Value Object >>
class Profile << Value Object >>


Project -up-> "is classified in" BusinessSector
Project "is classified in" -right->  ProjectTypology
Project "is developed for" -down->  Customer

Sprint -> "has" SprintBacklog
SprintBacklog - -> "contains" UserStory
Sprint -down-> "has" ScrumBoard

Project - -> ResourceList
ResourceList - -> Resource
Project - -> "has" ProductBacklog

Resource - ->Account
EffortUpdate <-right- Task
Resource -right->EffortUpdate
Resource -left-> Role
Account -right-> Profile
Account - -> "places" ProfileRequest
Account - -> "has" PasswordHash
Account - -> "has" Email
Account -left-> "uses" Password
UserStory - -> EffortEstimate
Task - -> EffortEstimate

ProductBacklog -up-> "contains" UserStory
@enduml

PlantUML version 1.2022.1(Tue Feb 01 18:19:58 GMT 2022)
(GPL source distribution)
Java Runtime: OpenJDK Runtime Environment
JVM: OpenJDK 64-Bit Server VM
Default Encoding: Cp1252
Language: pt
Country: PT
--></g></svg>