<?xml version="1.0" encoding="UTF-8" standalone="no"?><svg xmlns="http://www.w3.org/2000/svg" xmlns:xlink="http://www.w3.org/1999/xlink" contentScriptType="application/ecmascript" contentStyleType="text/css" height="776px" preserveAspectRatio="none" style="width:1265px;height:776px;background:#FFFFFF;" version="1.1" viewBox="0 0 1265 776" width="1265px" zoomAndPan="magnify"><defs><filter height="300%" id="fze2oyx840khv" width="300%" x="-1" y="-1"><feGaussianBlur result="blurOut" stdDeviation="2.0"/><feColorMatrix in="blurOut" result="blurOut2" type="matrix" values="0 0 0 0 0 0 0 0 0 0 0 0 0 0 0 0 0 0 .4 0"/><feOffset dx="4.0" dy="4.0" in="blurOut2" result="blurOut3"/><feBlend in="SourceGraphic" in2="blurOut3" mode="normal"/></filter></defs><g><rect fill="#FFFFFF" filter="url(#fze2oyx840khv)" height="30.3516" style="stroke:#A80036;stroke-width:1.0;" width="10" x="309.5" y="121.9609"/><rect fill="#FFFFFF" filter="url(#fze2oyx840khv)" height="30.3516" style="stroke:#A80036;stroke-width:1.0;" width="10" x="309.5" y="642.1016"/><rect fill="#FFFFFF" filter="url(#fze2oyx840khv)" height="489.7891" style="stroke:#A80036;stroke-width:1.0;" width="10" x="475.5" y="152.3125"/><rect fill="#FFFFFF" filter="url(#fze2oyx840khv)" height="30.3516" style="stroke:#A80036;stroke-width:1.0;" width="10" x="826" y="243.3672"/><rect fill="#FFFFFF" filter="url(#fze2oyx840khv)" height="297.6797" style="stroke:#A80036;stroke-width:1.0;" width="10" x="964" y="314.0703"/><rect fill="#FFFFFF" filter="url(#fze2oyx840khv)" height="30.3516" style="stroke:#A80036;stroke-width:1.0;" width="10" x="1085" y="376.0313"/><rect fill="#FFFFFF" filter="url(#fze2oyx840khv)" height="30.3516" style="stroke:#A80036;stroke-width:1.0;" width="10" x="1085" y="436.7344"/><rect fill="#FFFFFF" filter="url(#fze2oyx840khv)" height="36.6094" style="stroke:#A80036;stroke-width:1.0;" width="10" x="1185" y="507.4375"/><rect fill="#FFFFFF" filter="url(#fze2oyx840khv)" height="247.0703" style="stroke:#000000;stroke-width:2.0;" width="861.5" x="390" y="335.3281"/><line style="stroke:#A80036;stroke-width:1.0;stroke-dasharray:5.0,5.0;" x1="51" x2="51" y1="89.6094" y2="690.4531"/><line style="stroke:#A80036;stroke-width:1.0;stroke-dasharray:5.0,5.0;" x1="314" x2="314" y1="89.6094" y2="690.4531"/><line style="stroke:#A80036;stroke-width:1.0;stroke-dasharray:5.0,5.0;" x1="480" x2="480" y1="89.6094" y2="690.4531"/><line style="stroke:#A80036;stroke-width:1.0;stroke-dasharray:5.0,5.0;" x1="716.5" x2="716.5" y1="89.6094" y2="690.4531"/><line style="stroke:#A80036;stroke-width:1.0;stroke-dasharray:5.0,5.0;" x1="830.5" x2="830.5" y1="89.6094" y2="690.4531"/><line style="stroke:#A80036;stroke-width:1.0;stroke-dasharray:5.0,5.0;" x1="968.5" x2="968.5" y1="315.0234" y2="690.4531"/><line style="stroke:#A80036;stroke-width:1.0;stroke-dasharray:5.0,5.0;" x1="1089.5" x2="1089.5" y1="89.6094" y2="690.4531"/><line style="stroke:#A80036;stroke-width:1.0;stroke-dasharray:5.0,5.0;" x1="1189.5" x2="1189.5" y1="508.3906" y2="690.4531"/><text fill="#000000" font-family="sans-serif" font-size="14" lengthAdjust="spacing" textLength="83" x="9" y="86.5332">Administrator</text><ellipse cx="51.5" cy="15" fill="#FEFECE" filter="url(#fze2oyx840khv)" rx="8" ry="8" style="stroke:#A80036;stroke-width:2.0;"/><path d="M51.5,23 L51.5,50 M38.5,31 L64.5,31 M51.5,50 L38.5,65 M51.5,50 L64.5,65 " fill="none" filter="url(#fze2oyx840khv)" style="stroke:#A80036;stroke-width:2.0;"/><text fill="#000000" font-family="sans-serif" font-size="14" lengthAdjust="spacing" textLength="83" x="9" y="703.9863">Administrator</text><ellipse cx="51.5" cy="717.0625" fill="#FEFECE" filter="url(#fze2oyx840khv)" rx="8" ry="8" style="stroke:#A80036;stroke-width:2.0;"/><path d="M51.5,725.0625 L51.5,752.0625 M38.5,733.0625 L64.5,733.0625 M51.5,752.0625 L38.5,767.0625 M51.5,752.0625 L64.5,767.0625 " fill="none" filter="url(#fze2oyx840khv)" style="stroke:#A80036;stroke-width:2.0;"/><rect fill="#FEFECE" filter="url(#fze2oyx840khv)" height="31.6094" style="stroke:#A80036;stroke-width:1.5;" width="111" x="257" y="53"/><text fill="#000000" font-family="sans-serif" font-size="14" lengthAdjust="spacing" textLength="93" x="264" y="74.5332">: ListAccountUI</text><rect fill="#FEFECE" filter="url(#fze2oyx840khv)" height="31.6094" style="stroke:#A80036;stroke-width:1.5;" width="111" x="257" y="689.4531"/><text fill="#000000" font-family="sans-serif" font-size="14" lengthAdjust="spacing" textLength="93" x="264" y="710.9863">: ListAccountUI</text><rect fill="#FEFECE" filter="url(#fze2oyx840khv)" height="31.6094" style="stroke:#A80036;stroke-width:1.5;" width="157" x="400" y="53"/><text fill="#000000" font-family="sans-serif" font-size="14" lengthAdjust="spacing" textLength="143" x="407" y="74.5332">: ListAccountController</text><rect fill="#FEFECE" filter="url(#fze2oyx840khv)" height="31.6094" style="stroke:#A80036;stroke-width:1.5;" width="157" x="400" y="689.4531"/><text fill="#000000" font-family="sans-serif" font-size="14" lengthAdjust="spacing" textLength="143" x="407" y="710.9863">: ListAccountController</text><rect fill="#FEFECE" filter="url(#fze2oyx840khv)" height="31.6094" style="stroke:#A80036;stroke-width:1.5;" width="94" x="667.5" y="53"/><text fill="#000000" font-family="sans-serif" font-size="14" lengthAdjust="spacing" textLength="80" x="674.5" y="74.5332">: ITCompany</text><rect fill="#FEFECE" filter="url(#fze2oyx840khv)" height="31.6094" style="stroke:#A80036;stroke-width:1.5;" width="94" x="667.5" y="689.4531"/><text fill="#000000" font-family="sans-serif" font-size="14" lengthAdjust="spacing" textLength="80" x="674.5" y="710.9863">: ITCompany</text><rect fill="#FEFECE" filter="url(#fze2oyx840khv)" height="31.6094" style="stroke:#A80036;stroke-width:1.5;" width="107" x="775.5" y="53"/><text fill="#000000" font-family="sans-serif" font-size="14" lengthAdjust="spacing" textLength="93" x="782.5" y="74.5332">: AccountStore</text><rect fill="#FEFECE" filter="url(#fze2oyx840khv)" height="31.6094" style="stroke:#A80036;stroke-width:1.5;" width="107" x="775.5" y="689.4531"/><text fill="#000000" font-family="sans-serif" font-size="14" lengthAdjust="spacing" textLength="93" x="782.5" y="710.9863">: AccountStore</text><rect fill="#FEFECE" filter="url(#fze2oyx840khv)" height="31.6094" style="stroke:#A80036;stroke-width:1.5;" width="141" x="896.5" y="689.4531"/><text fill="#000000" font-family="sans-serif" font-size="14" lengthAdjust="spacing" textLength="127" x="903.5" y="710.9863">: List&lt;AccountDTO&gt;</text><rect fill="#FEFECE" filter="url(#fze2oyx840khv)" height="31.6094" style="stroke:#A80036;stroke-width:1.5;" width="73" x="1051.5" y="53"/><text fill="#000000" font-family="sans-serif" font-size="14" lengthAdjust="spacing" textLength="59" x="1058.5" y="74.5332">: Account</text><rect fill="#FEFECE" filter="url(#fze2oyx840khv)" height="31.6094" style="stroke:#A80036;stroke-width:1.5;" width="73" x="1051.5" y="689.4531"/><text fill="#000000" font-family="sans-serif" font-size="14" lengthAdjust="spacing" textLength="59" x="1058.5" y="710.9863">: Account</text><rect fill="#FEFECE" filter="url(#fze2oyx840khv)" height="31.6094" style="stroke:#A80036;stroke-width:1.5;" width="99" x="1138.5" y="689.4531"/><text fill="#000000" font-family="sans-serif" font-size="14" lengthAdjust="spacing" textLength="85" x="1145.5" y="710.9863">:AccountDTO</text><rect fill="#FFFFFF" filter="url(#fze2oyx840khv)" height="30.3516" style="stroke:#A80036;stroke-width:1.0;" width="10" x="309.5" y="121.9609"/><rect fill="#FFFFFF" filter="url(#fze2oyx840khv)" height="30.3516" style="stroke:#A80036;stroke-width:1.0;" width="10" x="309.5" y="642.1016"/><rect fill="#FFFFFF" filter="url(#fze2oyx840khv)" height="489.7891" style="stroke:#A80036;stroke-width:1.0;" width="10" x="475.5" y="152.3125"/><rect fill="#FFFFFF" filter="url(#fze2oyx840khv)" height="30.3516" style="stroke:#A80036;stroke-width:1.0;" width="10" x="826" y="243.3672"/><rect fill="#FFFFFF" filter="url(#fze2oyx840khv)" height="297.6797" style="stroke:#A80036;stroke-width:1.0;" width="10" x="964" y="314.0703"/><rect fill="#FFFFFF" filter="url(#fze2oyx840khv)" height="30.3516" style="stroke:#A80036;stroke-width:1.0;" width="10" x="1085" y="376.0313"/><rect fill="#FFFFFF" filter="url(#fze2oyx840khv)" height="30.3516" style="stroke:#A80036;stroke-width:1.0;" width="10" x="1085" y="436.7344"/><rect fill="#FFFFFF" filter="url(#fze2oyx840khv)" height="36.6094" style="stroke:#A80036;stroke-width:1.0;" width="10" x="1185" y="507.4375"/><polygon fill="#A80036" points="297.5,117.9609,307.5,121.9609,297.5,125.9609,301.5,121.9609" style="stroke:#A80036;stroke-width:1.0;"/><line style="stroke:#A80036;stroke-width:1.0;" x1="51.5" x2="303.5" y1="121.9609" y2="121.9609"/><text fill="#000000" font-family="sans-serif" font-size="13" font-weight="bold" lengthAdjust="spacing" textLength="7" x="58.5" y="117.1045">1</text><text fill="#000000" font-family="sans-serif" font-size="13" lengthAdjust="spacing" textLength="135" x="69.5" y="117.1045">list of accounts request</text><polygon fill="#A80036" points="463.5,148.3125,473.5,152.3125,463.5,156.3125,467.5,152.3125" style="stroke:#A80036;stroke-width:1.0;"/><line style="stroke:#A80036;stroke-width:1.0;" x1="314.5" x2="469.5" y1="152.3125" y2="152.3125"/><text fill="#000000" font-family="sans-serif" font-size="13" font-weight="bold" lengthAdjust="spacing" textLength="7" x="321.5" y="147.4561">2</text><text fill="#000000" font-family="sans-serif" font-size="13" lengthAdjust="spacing" textLength="126" x="332.5" y="147.4561">consultListAccounts()</text><polygon fill="#A80036" points="704.5,178.6641,714.5,182.6641,704.5,186.6641,708.5,182.6641" style="stroke:#A80036;stroke-width:1.0;"/><line style="stroke:#A80036;stroke-width:1.0;" x1="485.5" x2="710.5" y1="182.6641" y2="182.6641"/><text fill="#000000" font-family="sans-serif" font-size="13" font-weight="bold" lengthAdjust="spacing" textLength="7" x="492.5" y="177.8076">3</text><text fill="#000000" font-family="sans-serif" font-size="13" lengthAdjust="spacing" textLength="196" x="503.5" y="177.8076">getAccountStore() : AccountStore</text><polygon fill="#A80036" points="496.5,209.0156,486.5,213.0156,496.5,217.0156,492.5,213.0156" style="stroke:#A80036;stroke-width:1.0;"/><line style="stroke:#A80036;stroke-width:1.0;stroke-dasharray:2.0,2.0;" x1="490.5" x2="715.5" y1="213.0156" y2="213.0156"/><text fill="#000000" font-family="sans-serif" font-size="13" font-weight="bold" lengthAdjust="spacing" textLength="7" x="502.5" y="208.1592">4</text><text fill="#000000" font-family="sans-serif" font-size="13" lengthAdjust="spacing" textLength="79" x="513.5" y="208.1592">AccountStore</text><polygon fill="#A80036" points="814,239.3672,824,243.3672,814,247.3672,818,243.3672" style="stroke:#A80036;stroke-width:1.0;"/><line style="stroke:#A80036;stroke-width:1.0;" x1="485.5" x2="820" y1="243.3672" y2="243.3672"/><text fill="#000000" font-family="sans-serif" font-size="13" font-weight="bold" lengthAdjust="spacing" textLength="7" x="492.5" y="238.5107">5</text><text fill="#000000" font-family="sans-serif" font-size="13" lengthAdjust="spacing" textLength="153" x="503.5" y="238.5107">getArraylListOfAccounts ()</text><polygon fill="#A80036" points="496.5,269.7188,486.5,273.7188,496.5,277.7188,492.5,273.7188" style="stroke:#A80036;stroke-width:1.0;"/><line style="stroke:#A80036;stroke-width:1.0;stroke-dasharray:2.0,2.0;" x1="490.5" x2="830" y1="273.7188" y2="273.7188"/><text fill="#000000" font-family="sans-serif" font-size="13" font-weight="bold" lengthAdjust="spacing" textLength="7" x="502.5" y="268.8623">6</text><text fill="#000000" font-family="sans-serif" font-size="13" lengthAdjust="spacing" textLength="118" x="513.5" y="268.8623">arrayListOfAccounts</text><polygon fill="#A80036" points="884.5,300.0703,894.5,304.0703,884.5,308.0703,888.5,304.0703" style="stroke:#A80036;stroke-width:1.0;"/><line style="stroke:#A80036;stroke-width:1.0;" x1="485.5" x2="890.5" y1="304.0703" y2="304.0703"/><text fill="#000000" font-family="sans-serif" font-size="13" font-weight="bold" lengthAdjust="spacing" textLength="7" x="492.5" y="299.2139">7</text><text fill="#000000" font-family="sans-serif" font-size="13" lengthAdjust="spacing" textLength="147" x="503.5" y="299.2139">createListAccountsDTOS</text><rect fill="#FEFECE" filter="url(#fze2oyx840khv)" height="31.6094" style="stroke:#A80036;stroke-width:1.5;" width="141" x="896.5" y="281.7188"/><text fill="#000000" font-family="sans-serif" font-size="14" lengthAdjust="spacing" textLength="127" x="903.5" y="303.252">: List&lt;AccountDTO&gt;</text><path d="M390,335.3281 L463,335.3281 L463,343.3281 L453,353.3281 L390,353.3281 L390,335.3281 " fill="#EEEEEE" style="stroke:#000000;stroke-width:1.0;"/><rect fill="none" height="247.0703" style="stroke:#000000;stroke-width:2.0;" width="861.5" x="390" y="335.3281"/><text fill="#000000" font-family="sans-serif" font-size="13" font-weight="bold" lengthAdjust="spacing" textLength="28" x="405" y="349.8232">loop</text><polygon fill="#A80036" points="1073,372.0313,1083,376.0313,1073,380.0313,1077,376.0313" style="stroke:#A80036;stroke-width:1.0;"/><line style="stroke:#A80036;stroke-width:1.0;" x1="485.5" x2="1079" y1="376.0313" y2="376.0313"/><text fill="#000000" font-family="sans-serif" font-size="13" font-weight="bold" lengthAdjust="spacing" textLength="7" x="492.5" y="371.1748">8</text><text fill="#000000" font-family="sans-serif" font-size="13" lengthAdjust="spacing" textLength="51" x="503.5" y="371.1748">getEmail</text><polygon fill="#A80036" points="496.5,402.3828,486.5,406.3828,496.5,410.3828,492.5,406.3828" style="stroke:#A80036;stroke-width:1.0;"/><line style="stroke:#A80036;stroke-width:1.0;" x1="490.5" x2="1089" y1="406.3828" y2="406.3828"/><text fill="#000000" font-family="sans-serif" font-size="13" font-weight="bold" lengthAdjust="spacing" textLength="7" x="502.5" y="401.5264">9</text><text fill="#000000" font-family="sans-serif" font-size="13" lengthAdjust="spacing" textLength="31" x="513.5" y="401.5264">email</text><polygon fill="#A80036" points="1073,432.7344,1083,436.7344,1073,440.7344,1077,436.7344" style="stroke:#A80036;stroke-width:1.0;"/><line style="stroke:#A80036;stroke-width:1.0;" x1="485.5" x2="1079" y1="436.7344" y2="436.7344"/><text fill="#000000" font-family="sans-serif" font-size="13" font-weight="bold" lengthAdjust="spacing" textLength="14" x="492.5" y="431.8779">10</text><text fill="#000000" font-family="sans-serif" font-size="13" lengthAdjust="spacing" textLength="63" x="510.5" y="431.8779">getIsActive</text><polygon fill="#A80036" points="496.5,463.0859,486.5,467.0859,496.5,471.0859,492.5,467.0859" style="stroke:#A80036;stroke-width:1.0;"/><line style="stroke:#A80036;stroke-width:1.0;" x1="490.5" x2="1089" y1="467.0859" y2="467.0859"/><text fill="#000000" font-family="sans-serif" font-size="13" font-weight="bold" lengthAdjust="spacing" textLength="14" x="502.5" y="462.2295">11</text><text fill="#000000" font-family="sans-serif" font-size="13" lengthAdjust="spacing" textLength="45" x="520.5" y="462.2295">isActive</text><polygon fill="#A80036" points="1126.5,493.4375,1136.5,497.4375,1126.5,501.4375,1130.5,497.4375" style="stroke:#A80036;stroke-width:1.0;"/><line style="stroke:#A80036;stroke-width:1.0;" x1="485.5" x2="1132.5" y1="497.4375" y2="497.4375"/><text fill="#000000" font-family="sans-serif" font-size="13" font-weight="bold" lengthAdjust="spacing" textLength="14" x="492.5" y="492.5811">12</text><text fill="#000000" font-family="sans-serif" font-size="13" lengthAdjust="spacing" textLength="164" x="510.5" y="492.5811">accountDTO(email, isActive)</text><rect fill="#FEFECE" filter="url(#fze2oyx840khv)" height="31.6094" style="stroke:#A80036;stroke-width:1.5;" width="99" x="1138.5" y="475.0859"/><text fill="#000000" font-family="sans-serif" font-size="14" lengthAdjust="spacing" textLength="85" x="1145.5" y="496.6191">:AccountDTO</text><polygon fill="#A80036" points="496.5,540.0469,486.5,544.0469,496.5,548.0469,492.5,544.0469" style="stroke:#A80036;stroke-width:1.0;"/><line style="stroke:#A80036;stroke-width:1.0;" x1="490.5" x2="1189" y1="544.0469" y2="544.0469"/><text fill="#000000" font-family="sans-serif" font-size="13" font-weight="bold" lengthAdjust="spacing" textLength="14" x="502.5" y="539.1904">13</text><text fill="#000000" font-family="sans-serif" font-size="13" lengthAdjust="spacing" textLength="72" x="520.5" y="539.1904">accountDTO</text><polygon fill="#A80036" points="952,570.3984,962,574.3984,952,578.3984,956,574.3984" style="stroke:#A80036;stroke-width:1.0;"/><line style="stroke:#A80036;stroke-width:1.0;" x1="485.5" x2="958" y1="574.3984" y2="574.3984"/><text fill="#000000" font-family="sans-serif" font-size="13" font-weight="bold" lengthAdjust="spacing" textLength="14" x="492.5" y="569.542">14</text><text fill="#000000" font-family="sans-serif" font-size="13" lengthAdjust="spacing" textLength="101" x="510.5" y="569.542">add(accountDTO)</text><polygon fill="#A80036" points="496.5,607.75,486.5,611.75,496.5,615.75,492.5,611.75" style="stroke:#A80036;stroke-width:1.0;"/><line style="stroke:#A80036;stroke-width:1.0;" x1="490.5" x2="968" y1="611.75" y2="611.75"/><text fill="#000000" font-family="sans-serif" font-size="13" font-weight="bold" lengthAdjust="spacing" textLength="14" x="502.5" y="606.8936">15</text><text fill="#000000" font-family="sans-serif" font-size="13" lengthAdjust="spacing" textLength="107" x="520.5" y="606.8936">listAccountsDTOS</text><polygon fill="#A80036" points="330.5,638.1016,320.5,642.1016,330.5,646.1016,326.5,642.1016" style="stroke:#A80036;stroke-width:1.0;"/><line style="stroke:#A80036;stroke-width:1.0;" x1="324.5" x2="479.5" y1="642.1016" y2="642.1016"/><text fill="#000000" font-family="sans-serif" font-size="13" font-weight="bold" lengthAdjust="spacing" textLength="14" x="336.5" y="637.2451">16</text><text fill="#000000" font-family="sans-serif" font-size="13" lengthAdjust="spacing" textLength="107" x="354.5" y="637.2451">listAccountsDTOS</text><polygon fill="#A80036" points="62.5,668.4531,52.5,672.4531,62.5,676.4531,58.5,672.4531" style="stroke:#A80036;stroke-width:1.0;"/><line style="stroke:#A80036;stroke-width:1.0;" x1="56.5" x2="313.5" y1="672.4531" y2="672.4531"/><text fill="#000000" font-family="sans-serif" font-size="13" font-weight="bold" lengthAdjust="spacing" textLength="14" x="68.5" y="667.5967">17</text><text fill="#000000" font-family="sans-serif" font-size="13" lengthAdjust="spacing" textLength="216" x="86.5" y="667.5967">show list of accounts and their status</text><!--MD5=[8cf999336756a2e0a4c8a1e5cc8f0d14]
@startuml
actor " Administrator" as Admin
participant ": ListAccountUI " as UI
participant ": ListAccountController" as Controller
participant ": ITCompany" as IT
participant ": AccountStore" as store
participant ": List<AccountDTO>" as accountsDTOS
participant ": Account" as account
participant ":AccountDTO" as accountDTO




autonumber
Admin -> UI : list of accounts request
activate UI
UI -> Controller : consultListAccounts()
deactivate UI
activate Controller

Controller -> IT : getAccountStore() : AccountStore
IT - -> Controller : AccountStore
deactivate IT



Controller -> store : getArraylListOfAccounts ()

activate store
store - -> Controller : arrayListOfAccounts
deactivate store


Controller -> accountsDTOS ** : createListAccountsDTOS

activate accountsDTOS

loop
Controller -> account : getEmail
activate account
account -> Controller :email
deactivate account
Controller -> account : getIsActive
activate account
account-> Controller : isActive
deactivate account
Controller -> accountDTO ** : accountDTO(email, isActive)
activate accountDTO
accountDTO-> Controller : accountDTO
deactivate accountDTO
Controller -> accountsDTOS : add(accountDTO)
end


accountsDTOS -> Controller : listAccountsDTOS
deactivate accountsDTOS
Controller -> UI : listAccountsDTOS
deactivate Controller
activate UI


UI -> Admin : show list of accounts and their status
deactivate UI



@enduml

PlantUML version 1.2022.0(Tue Jan 11 16:16:42 GMT 2022)
(GPL source distribution)
Java Runtime: OpenJDK Runtime Environment
JVM: OpenJDK 64-Bit Server VM
Default Encoding: Cp1252
Language: pt
Country: PT
--></g></svg>