<?xml version="1.0" encoding="UTF-8" standalone="no"?><svg xmlns="http://www.w3.org/2000/svg" xmlns:xlink="http://www.w3.org/1999/xlink" contentScriptType="application/ecmascript" contentStyleType="text/css" height="1071px" preserveAspectRatio="none" style="width:1286px;height:1071px;background:#FFFFFF;" version="1.1" viewBox="0 0 1286 1071" width="1286px" zoomAndPan="magnify"><defs><filter height="300%" id="f1653he9gjln08" width="300%" x="-1" y="-1"><feGaussianBlur result="blurOut" stdDeviation="2.0"/><feColorMatrix in="blurOut" result="blurOut2" type="matrix" values="0 0 0 0 0 0 0 0 0 0 0 0 0 0 0 0 0 0 .4 0"/><feOffset dx="4.0" dy="4.0" in="blurOut2" result="blurOut3"/><feBlend in="SourceGraphic" in2="blurOut3" mode="normal"/></filter></defs><g><!--MD5=[a7bb2077efe50bdbb8873ea156534d6e]
class EffortUpdate--><rect codeLine="1" fill="#FEFECE" filter="url(#f1653he9gjln08)" height="103.3438" id="EffortUpdate" style="stroke:#A80036;stroke-width:1.5;" width="413" x="587" y="954"/><ellipse cx="755.25" cy="970" fill="#ADD1B2" rx="11" ry="11" style="stroke:#A80036;stroke-width:1.0;"/><path d="M757.25,966.5 Q757.4531,966 757.6875,965.75 Q757.9219,965.5 758.1875,965.5 Q758.6563,965.5 758.9531,965.7813 Q759.25,966.0625 759.25,966.7188 L759.25,968.2813 Q759.25,968.9375 758.9688,969.2188 Q758.6875,969.5 758.25,969.5 Q757.8594,969.5 757.6094,969.3281 Q757.3594,969.1563 757.25,968.7031 Q757.2031,968.3906 757.0313,968.2188 Q756.7188,967.8906 756.1563,967.7031 Q755.5938,967.5 755.0313,967.5 Q754.3281,967.5 753.7344,967.7813 Q753.1563,968.0625 752.7031,968.6875 Q752.25,969.3125 752.25,970.1719 L752.25,971.0938 Q752.25,972.125 753.0938,972.8125 Q753.9375,973.5 755.4375,973.5 Q756.3281,973.5 756.9531,973.2969 Q757.3125,973.1875 757.7188,972.8281 Q757.9844,972.625 758.125,972.5625 Q758.2656,972.5 758.4375,972.5 Q758.7656,972.5 759,972.7656 Q759.25,973.0156 759.25,973.375 Q759.25,973.7188 758.9063,974.125 Q758.4063,974.7188 757.6094,975.0469 Q756.5625,975.5 755.2813,975.5 Q753.7813,975.5 752.5781,974.9063 Q751.6094,974.4375 750.9219,973.4219 Q750.25,972.4063 750.25,971.2031 L750.25,970.1094 Q750.25,968.8594 750.8438,967.7656 Q751.4531,966.6719 752.5,966.0938 Q753.5625,965.5 754.75,965.5 Q755.4688,965.5 756.0938,965.75 Q756.7188,966 757.25,966.5 Z " fill="#000000"/><text fill="#000000" font-family="sans-serif" font-size="12" lengthAdjust="spacing" textLength="68" x="775.75" y="974.9102">EffortUpdate</text><line style="stroke:#A80036;stroke-width:1.5;" x1="588" x2="999" y1="986" y2="986"/><rect fill="none" height="6" style="stroke:#C82930;stroke-width:1.0;" width="6" x="595" y="994"/><text fill="#000000" font-family="sans-serif" font-size="11" lengthAdjust="spacing" textLength="100" x="607" y="1001.4189">dateTime : LocalDate</text><rect fill="none" height="6" style="stroke:#C82930;stroke-width:1.0;" width="6" x="595" y="1007.8359"/><text fill="#000000" font-family="sans-serif" font-size="11" lengthAdjust="spacing" textLength="97" x="607" y="1015.2549">hoursSpent : double</text><rect fill="none" height="6" style="stroke:#C82930;stroke-width:1.0;" width="6" x="595" y="1021.6719"/><text fill="#000000" font-family="sans-serif" font-size="11" lengthAdjust="spacing" textLength="100" x="607" y="1029.0908">dateTime : LocalDate</text><line style="stroke:#A80036;stroke-width:1.5;" x1="588" x2="999" y1="1035.5078" y2="1035.5078"/><text fill="#000000" font-family="sans-serif" font-size="11" lengthAdjust="spacing" textLength="401" x="593" y="1050.9268">EffortUpdate(spentHours : double, taskComment : String, resourceData : Resource)</text><!--MD5=[6f7fa24bfe48679ca0df9e66e85bd04b]
class AddWorkDoneController--><rect fill="#FEFECE" filter="url(#f1653he9gjln08)" height="61.8359" id="AddWorkDoneController" style="stroke:#A80036;stroke-width:1.5;" width="571" x="165" y="7"/><ellipse cx="379.75" cy="23" fill="#ADD1B2" rx="11" ry="11" style="stroke:#A80036;stroke-width:1.0;"/><path d="M381.75,19.5 Q381.9531,19 382.1875,18.75 Q382.4219,18.5 382.6875,18.5 Q383.1563,18.5 383.4531,18.7813 Q383.75,19.0625 383.75,19.7188 L383.75,21.2813 Q383.75,21.9375 383.4688,22.2188 Q383.1875,22.5 382.75,22.5 Q382.3594,22.5 382.1094,22.3281 Q381.8594,22.1563 381.75,21.7031 Q381.7031,21.3906 381.5313,21.2188 Q381.2188,20.8906 380.6563,20.7031 Q380.0938,20.5 379.5313,20.5 Q378.8281,20.5 378.2344,20.7813 Q377.6563,21.0625 377.2031,21.6875 Q376.75,22.3125 376.75,23.1719 L376.75,24.0938 Q376.75,25.125 377.5938,25.8125 Q378.4375,26.5 379.9375,26.5 Q380.8281,26.5 381.4531,26.2969 Q381.8125,26.1875 382.2188,25.8281 Q382.4844,25.625 382.625,25.5625 Q382.7656,25.5 382.9375,25.5 Q383.2656,25.5 383.5,25.7656 Q383.75,26.0156 383.75,26.375 Q383.75,26.7188 383.4063,27.125 Q382.9063,27.7188 382.1094,28.0469 Q381.0625,28.5 379.7813,28.5 Q378.2813,28.5 377.0781,27.9063 Q376.1094,27.4375 375.4219,26.4219 Q374.75,25.4063 374.75,24.2031 L374.75,23.1094 Q374.75,21.8594 375.3438,20.7656 Q375.9531,19.6719 377,19.0938 Q378.0625,18.5 379.25,18.5 Q379.9688,18.5 380.5938,18.75 Q381.2188,19 381.75,19.5 Z " fill="#000000"/><text fill="#000000" font-family="sans-serif" font-size="12" lengthAdjust="spacing" textLength="133" x="400.25" y="27.9102">AddWorkDoneController</text><line style="stroke:#A80036;stroke-width:1.5;" x1="166" x2="735" y1="39" y2="39"/><line style="stroke:#A80036;stroke-width:1.5;" x1="166" x2="735" y1="47" y2="47"/><text fill="#000000" font-family="sans-serif" font-size="11" lengthAdjust="spacing" textLength="559" x="171" y="62.4189">boolean submitWorkDone (email : String, projectCode : int, taskCode : int, spentHours : double, taskComment : String)</text><!--MD5=[13bce23176f178ec6522722b4c2b76e3]
class ITCompany--><rect fill="#FEFECE" filter="url(#f1653he9gjln08)" height="61.8359" id="ITCompany" style="stroke:#A80036;stroke-width:1.5;" width="95" x="771" y="7"/><ellipse cx="786" cy="23" fill="#ADD1B2" rx="11" ry="11" style="stroke:#A80036;stroke-width:1.0;"/><path d="M788,19.5 Q788.2031,19 788.4375,18.75 Q788.6719,18.5 788.9375,18.5 Q789.4063,18.5 789.7031,18.7813 Q790,19.0625 790,19.7188 L790,21.2813 Q790,21.9375 789.7188,22.2188 Q789.4375,22.5 789,22.5 Q788.6094,22.5 788.3594,22.3281 Q788.1094,22.1563 788,21.7031 Q787.9531,21.3906 787.7813,21.2188 Q787.4688,20.8906 786.9063,20.7031 Q786.3438,20.5 785.7813,20.5 Q785.0781,20.5 784.4844,20.7813 Q783.9063,21.0625 783.4531,21.6875 Q783,22.3125 783,23.1719 L783,24.0938 Q783,25.125 783.8438,25.8125 Q784.6875,26.5 786.1875,26.5 Q787.0781,26.5 787.7031,26.2969 Q788.0625,26.1875 788.4688,25.8281 Q788.7344,25.625 788.875,25.5625 Q789.0156,25.5 789.1875,25.5 Q789.5156,25.5 789.75,25.7656 Q790,26.0156 790,26.375 Q790,26.7188 789.6563,27.125 Q789.1563,27.7188 788.3594,28.0469 Q787.3125,28.5 786.0313,28.5 Q784.5313,28.5 783.3281,27.9063 Q782.3594,27.4375 781.6719,26.4219 Q781,25.4063 781,24.2031 L781,23.1094 Q781,21.8594 781.5938,20.7656 Q782.2031,19.6719 783.25,19.0938 Q784.3125,18.5 785.5,18.5 Q786.2188,18.5 786.8438,18.75 Q787.4688,19 788,19.5 Z " fill="#000000"/><text fill="#000000" font-family="sans-serif" font-size="12" lengthAdjust="spacing" textLength="63" x="800" y="27.9102">ITCompany</text><line style="stroke:#A80036;stroke-width:1.5;" x1="772" x2="865" y1="39" y2="39"/><line style="stroke:#A80036;stroke-width:1.5;" x1="772" x2="865" y1="47" y2="47"/><text fill="#000000" font-family="sans-serif" font-size="11" lengthAdjust="spacing" textLength="82" x="777" y="62.4189">getProjectStore()</text><!--MD5=[0cf43f64de24b70e8ffe65ff9ee7abee]
class ProjectStore--><rect fill="#FEFECE" filter="url(#f1653he9gjln08)" height="61.8359" id="ProjectStore" style="stroke:#A80036;stroke-width:1.5;" width="187" x="901" y="7"/><ellipse cx="956.75" cy="23" fill="#ADD1B2" rx="11" ry="11" style="stroke:#A80036;stroke-width:1.0;"/><path d="M958.75,19.5 Q958.9531,19 959.1875,18.75 Q959.4219,18.5 959.6875,18.5 Q960.1563,18.5 960.4531,18.7813 Q960.75,19.0625 960.75,19.7188 L960.75,21.2813 Q960.75,21.9375 960.4688,22.2188 Q960.1875,22.5 959.75,22.5 Q959.3594,22.5 959.1094,22.3281 Q958.8594,22.1563 958.75,21.7031 Q958.7031,21.3906 958.5313,21.2188 Q958.2188,20.8906 957.6563,20.7031 Q957.0938,20.5 956.5313,20.5 Q955.8281,20.5 955.2344,20.7813 Q954.6563,21.0625 954.2031,21.6875 Q953.75,22.3125 953.75,23.1719 L953.75,24.0938 Q953.75,25.125 954.5938,25.8125 Q955.4375,26.5 956.9375,26.5 Q957.8281,26.5 958.4531,26.2969 Q958.8125,26.1875 959.2188,25.8281 Q959.4844,25.625 959.625,25.5625 Q959.7656,25.5 959.9375,25.5 Q960.2656,25.5 960.5,25.7656 Q960.75,26.0156 960.75,26.375 Q960.75,26.7188 960.4063,27.125 Q959.9063,27.7188 959.1094,28.0469 Q958.0625,28.5 956.7813,28.5 Q955.2813,28.5 954.0781,27.9063 Q953.1094,27.4375 952.4219,26.4219 Q951.75,25.4063 951.75,24.2031 L951.75,23.1094 Q951.75,21.8594 952.3438,20.7656 Q952.9531,19.6719 954,19.0938 Q955.0625,18.5 956.25,18.5 Q956.9688,18.5 957.5938,18.75 Q958.2188,19 958.75,19.5 Z " fill="#000000"/><text fill="#000000" font-family="sans-serif" font-size="12" lengthAdjust="spacing" textLength="67" x="977.25" y="27.9102">ProjectStore</text><line style="stroke:#A80036;stroke-width:1.5;" x1="902" x2="1087" y1="39" y2="39"/><line style="stroke:#A80036;stroke-width:1.5;" x1="902" x2="1087" y1="47" y2="47"/><text fill="#000000" font-family="sans-serif" font-size="11" lengthAdjust="spacing" textLength="175" x="907" y="62.4189">findProjectByCode(projectCode : int)</text><!--MD5=[79d378210367c0c6ec62ef762ddfbd1b]
class Project--><rect fill="#FEFECE" filter="url(#f1653he9gjln08)" height="200.1953" id="Project" style="stroke:#A80036;stroke-width:1.5;" width="177" x="906" y="147"/><ellipse cx="971.25" cy="163" fill="#ADD1B2" rx="11" ry="11" style="stroke:#A80036;stroke-width:1.0;"/><path d="M973.25,159.5 Q973.4531,159 973.6875,158.75 Q973.9219,158.5 974.1875,158.5 Q974.6563,158.5 974.9531,158.7813 Q975.25,159.0625 975.25,159.7188 L975.25,161.2813 Q975.25,161.9375 974.9688,162.2188 Q974.6875,162.5 974.25,162.5 Q973.8594,162.5 973.6094,162.3281 Q973.3594,162.1563 973.25,161.7031 Q973.2031,161.3906 973.0313,161.2188 Q972.7188,160.8906 972.1563,160.7031 Q971.5938,160.5 971.0313,160.5 Q970.3281,160.5 969.7344,160.7813 Q969.1563,161.0625 968.7031,161.6875 Q968.25,162.3125 968.25,163.1719 L968.25,164.0938 Q968.25,165.125 969.0938,165.8125 Q969.9375,166.5 971.4375,166.5 Q972.3281,166.5 972.9531,166.2969 Q973.3125,166.1875 973.7188,165.8281 Q973.9844,165.625 974.125,165.5625 Q974.2656,165.5 974.4375,165.5 Q974.7656,165.5 975,165.7656 Q975.25,166.0156 975.25,166.375 Q975.25,166.7188 974.9063,167.125 Q974.4063,167.7188 973.6094,168.0469 Q972.5625,168.5 971.2813,168.5 Q969.7813,168.5 968.5781,167.9063 Q967.6094,167.4375 966.9219,166.4219 Q966.25,165.4063 966.25,164.2031 L966.25,163.1094 Q966.25,161.8594 966.8438,160.7656 Q967.4531,159.6719 968.5,159.0938 Q969.5625,158.5 970.75,158.5 Q971.4688,158.5 972.0938,158.75 Q972.7188,159 973.25,159.5 Z " fill="#000000"/><text fill="#000000" font-family="sans-serif" font-size="12" lengthAdjust="spacing" textLength="38" x="991.75" y="167.9102">Project</text><line style="stroke:#A80036;stroke-width:1.5;" x1="907" x2="1082" y1="179" y2="179"/><rect fill="none" height="6" style="stroke:#C82930;stroke-width:1.0;" width="6" x="914" y="187"/><text fill="#000000" font-family="sans-serif" font-size="11" lengthAdjust="spacing" textLength="44" x="926" y="194.4189">code : int</text><rect fill="none" height="6" style="stroke:#C82930;stroke-width:1.0;" width="6" x="914" y="200.8359"/><text fill="#000000" font-family="sans-serif" font-size="11" lengthAdjust="spacing" textLength="63" x="926" y="208.2549">name : String</text><rect fill="none" height="6" style="stroke:#C82930;stroke-width:1.0;" width="6" x="914" y="214.6719"/><text fill="#000000" font-family="sans-serif" font-size="11" lengthAdjust="spacing" textLength="90" x="926" y="222.0908">description : String</text><rect fill="none" height="6" style="stroke:#C82930;stroke-width:1.0;" width="6" x="914" y="228.5078"/><text fill="#000000" font-family="sans-serif" font-size="11" lengthAdjust="spacing" textLength="75" x="926" y="235.9268">startDate : Date</text><rect fill="none" height="6" style="stroke:#C82930;stroke-width:1.0;" width="6" x="914" y="242.3438"/><text fill="#000000" font-family="sans-serif" font-size="11" lengthAdjust="spacing" textLength="87" x="926" y="249.7627">sprintDuration : int</text><rect fill="none" height="6" style="stroke:#C82930;stroke-width:1.0;" width="6" x="914" y="256.1797"/><text fill="#000000" font-family="sans-serif" font-size="11" lengthAdjust="spacing" textLength="92" x="926" y="263.5986">plannedSprints : int</text><rect fill="none" height="6" style="stroke:#C82930;stroke-width:1.0;" width="6" x="914" y="270.0156"/><text fill="#000000" font-family="sans-serif" font-size="11" lengthAdjust="spacing" textLength="71" x="926" y="277.4346">endDate : Date</text><rect fill="none" height="6" style="stroke:#C82930;stroke-width:1.0;" width="6" x="914" y="283.8516"/><text fill="#000000" font-family="sans-serif" font-size="11" lengthAdjust="spacing" textLength="101" x="926" y="291.2705">projectStatus : String</text><rect fill="none" height="6" style="stroke:#C82930;stroke-width:1.0;" width="6" x="914" y="297.6875"/><text fill="#000000" font-family="sans-serif" font-size="11" lengthAdjust="spacing" textLength="74" x="926" y="305.1064">budget : double</text><line style="stroke:#A80036;stroke-width:1.5;" x1="907" x2="1082" y1="311.5234" y2="311.5234"/><text fill="#000000" font-family="sans-serif" font-size="11" lengthAdjust="spacing" textLength="165" x="912" y="326.9424">findActiveResource(email : String)</text><text fill="#000000" font-family="sans-serif" font-size="11" lengthAdjust="spacing" textLength="122" x="912" y="340.7783">determineRunningSprint()</text><!--MD5=[452a66c2e8d45f5bd209be454bbcd04f]
class Sprint--><rect fill="#FEFECE" filter="url(#f1653he9gjln08)" height="117.1797" id="Sprint" style="stroke:#A80036;stroke-width:1.5;" width="210" x="774.5" y="432"/><ellipse cx="859.25" cy="448" fill="#ADD1B2" rx="11" ry="11" style="stroke:#A80036;stroke-width:1.0;"/><path d="M861.25,444.5 Q861.4531,444 861.6875,443.75 Q861.9219,443.5 862.1875,443.5 Q862.6563,443.5 862.9531,443.7813 Q863.25,444.0625 863.25,444.7188 L863.25,446.2813 Q863.25,446.9375 862.9688,447.2188 Q862.6875,447.5 862.25,447.5 Q861.8594,447.5 861.6094,447.3281 Q861.3594,447.1563 861.25,446.7031 Q861.2031,446.3906 861.0313,446.2188 Q860.7188,445.8906 860.1563,445.7031 Q859.5938,445.5 859.0313,445.5 Q858.3281,445.5 857.7344,445.7813 Q857.1563,446.0625 856.7031,446.6875 Q856.25,447.3125 856.25,448.1719 L856.25,449.0938 Q856.25,450.125 857.0938,450.8125 Q857.9375,451.5 859.4375,451.5 Q860.3281,451.5 860.9531,451.2969 Q861.3125,451.1875 861.7188,450.8281 Q861.9844,450.625 862.125,450.5625 Q862.2656,450.5 862.4375,450.5 Q862.7656,450.5 863,450.7656 Q863.25,451.0156 863.25,451.375 Q863.25,451.7188 862.9063,452.125 Q862.4063,452.7188 861.6094,453.0469 Q860.5625,453.5 859.2813,453.5 Q857.7813,453.5 856.5781,452.9063 Q855.6094,452.4375 854.9219,451.4219 Q854.25,450.4063 854.25,449.2031 L854.25,448.1094 Q854.25,446.8594 854.8438,445.7656 Q855.4531,444.6719 856.5,444.0938 Q857.5625,443.5 858.75,443.5 Q859.4688,443.5 860.0938,443.75 Q860.7188,444 861.25,444.5 Z " fill="#000000"/><text fill="#000000" font-family="sans-serif" font-size="12" lengthAdjust="spacing" textLength="32" x="879.75" y="452.9102">Sprint</text><line style="stroke:#A80036;stroke-width:1.5;" x1="775.5" x2="983.5" y1="464" y2="464"/><rect fill="none" height="6" style="stroke:#C82930;stroke-width:1.0;" width="6" x="782.5" y="472"/><text fill="#000000" font-family="sans-serif" font-size="11" lengthAdjust="spacing" textLength="56" x="794.5" y="479.4189">number : int</text><rect fill="none" height="6" style="stroke:#C82930;stroke-width:1.0;" width="6" x="782.5" y="485.8359"/><text fill="#000000" font-family="sans-serif" font-size="11" lengthAdjust="spacing" textLength="101" x="794.5" y="493.2549">startDate : LocalDate</text><rect fill="none" height="6" style="stroke:#C82930;stroke-width:1.0;" width="6" x="782.5" y="499.6719"/><text fill="#000000" font-family="sans-serif" font-size="11" lengthAdjust="spacing" textLength="97" x="794.5" y="507.0908">endDate : LocalDate</text><line style="stroke:#A80036;stroke-width:1.5;" x1="775.5" x2="983.5" y1="513.5078" y2="513.5078"/><text fill="#000000" font-family="sans-serif" font-size="11" lengthAdjust="spacing" textLength="198" x="780.5" y="528.9268">isCurrentDateContainedInSprintDuration()</text><text fill="#000000" font-family="sans-serif" font-size="11" lengthAdjust="spacing" textLength="152" x="780.5" y="542.7627">findTaskByCode(taskCode : int)</text><!--MD5=[b34797a66dc35cbf1d65f7e3ca75530e]
class Task--><rect fill="#FEFECE" filter="url(#f1653he9gjln08)" height="241.7031" id="Task" style="stroke:#A80036;stroke-width:1.5;" width="444" x="571.5" y="634"/><ellipse cx="775.75" cy="650" fill="#ADD1B2" rx="11" ry="11" style="stroke:#A80036;stroke-width:1.0;"/><path d="M777.75,646.5 Q777.9531,646 778.1875,645.75 Q778.4219,645.5 778.6875,645.5 Q779.1563,645.5 779.4531,645.7813 Q779.75,646.0625 779.75,646.7188 L779.75,648.2813 Q779.75,648.9375 779.4688,649.2188 Q779.1875,649.5 778.75,649.5 Q778.3594,649.5 778.1094,649.3281 Q777.8594,649.1563 777.75,648.7031 Q777.7031,648.3906 777.5313,648.2188 Q777.2188,647.8906 776.6563,647.7031 Q776.0938,647.5 775.5313,647.5 Q774.8281,647.5 774.2344,647.7813 Q773.6563,648.0625 773.2031,648.6875 Q772.75,649.3125 772.75,650.1719 L772.75,651.0938 Q772.75,652.125 773.5938,652.8125 Q774.4375,653.5 775.9375,653.5 Q776.8281,653.5 777.4531,653.2969 Q777.8125,653.1875 778.2188,652.8281 Q778.4844,652.625 778.625,652.5625 Q778.7656,652.5 778.9375,652.5 Q779.2656,652.5 779.5,652.7656 Q779.75,653.0156 779.75,653.375 Q779.75,653.7188 779.4063,654.125 Q778.9063,654.7188 778.1094,655.0469 Q777.0625,655.5 775.7813,655.5 Q774.2813,655.5 773.0781,654.9063 Q772.1094,654.4375 771.4219,653.4219 Q770.75,652.4063 770.75,651.2031 L770.75,650.1094 Q770.75,648.8594 771.3438,647.7656 Q771.9531,646.6719 773,646.0938 Q774.0625,645.5 775.25,645.5 Q775.9688,645.5 776.5938,645.75 Q777.2188,646 777.75,646.5 Z " fill="#000000"/><text fill="#000000" font-family="sans-serif" font-size="12" lengthAdjust="spacing" textLength="27" x="796.25" y="654.9102">Task</text><line style="stroke:#A80036;stroke-width:1.5;" x1="572.5" x2="1014.5" y1="666" y2="666"/><rect fill="none" height="6" style="stroke:#C82930;stroke-width:1.0;" width="6" x="579.5" y="674"/><text fill="#000000" font-family="sans-serif" font-size="11" lengthAdjust="spacing" textLength="63" x="591.5" y="681.4189">name : String</text><rect fill="none" height="6" style="stroke:#C82930;stroke-width:1.0;" width="6" x="579.5" y="687.8359"/><text fill="#000000" font-family="sans-serif" font-size="11" lengthAdjust="spacing" textLength="90" x="591.5" y="695.2549">description : String</text><rect fill="none" height="6" style="stroke:#C82930;stroke-width:1.0;" width="6" x="579.5" y="701.6719"/><text fill="#000000" font-family="sans-serif" font-size="11" lengthAdjust="spacing" textLength="101" x="591.5" y="709.0908">startDate : LocalDate</text><rect fill="none" height="6" style="stroke:#C82930;stroke-width:1.0;" width="6" x="579.5" y="715.5078"/><text fill="#000000" font-family="sans-serif" font-size="11" lengthAdjust="spacing" textLength="97" x="591.5" y="722.9268">endDate : LocalDate</text><rect fill="none" height="6" style="stroke:#C82930;stroke-width:1.0;" width="6" x="579.5" y="729.3438"/><text fill="#000000" font-family="sans-serif" font-size="11" lengthAdjust="spacing" textLength="108" x="591.5" y="736.7627">effortEstimate : double</text><rect fill="none" height="6" style="stroke:#C82930;stroke-width:1.0;" width="6" x="579.5" y="743.1797"/><text fill="#000000" font-family="sans-serif" font-size="11" lengthAdjust="spacing" textLength="81" x="591.5" y="750.5986">taskType : String</text><rect fill="none" height="6" style="stroke:#C82930;stroke-width:1.0;" width="6" x="579.5" y="757.0156"/><text fill="#000000" font-family="sans-serif" font-size="11" lengthAdjust="spacing" textLength="88" x="591.5" y="764.4346">taskStatus : String</text><rect fill="none" height="6" style="stroke:#C82930;stroke-width:1.0;" width="6" x="579.5" y="770.8516"/><text fill="#000000" font-family="sans-serif" font-size="11" lengthAdjust="spacing" textLength="97" x="591.5" y="778.2705">hoursSpent : double</text><rect fill="none" height="6" style="stroke:#C82930;stroke-width:1.0;" width="6" x="579.5" y="784.6875"/><text fill="#000000" font-family="sans-serif" font-size="11" lengthAdjust="spacing" textLength="155" x="591.5" y="792.1064">percentageOfExecution : double</text><line style="stroke:#A80036;stroke-width:1.5;" x1="572.5" x2="1014.5" y1="798.5234" y2="798.5234"/><text fill="#000000" font-family="sans-serif" font-size="11" lengthAdjust="spacing" textLength="60" x="577.5" y="813.9424">getNumber()</text><text fill="#000000" font-family="sans-serif" font-size="11" lengthAdjust="spacing" textLength="432" x="577.5" y="827.7783">createEffortUpdate(spentHours : double, taskComment : String, resourceData : Resource)</text><text fill="#000000" font-family="sans-serif" font-size="11" lengthAdjust="spacing" textLength="348" x="577.5" y="841.6143">addHoursSpentAndUpdatePercentageOfExecution(spentHours : double)</text><text fill="#000000" font-family="sans-serif" font-size="11" lengthAdjust="spacing" textLength="155" x="577.5" y="855.4502">updatePercentageOfExecution()</text><text fill="#000000" font-family="sans-serif" font-size="11" lengthAdjust="spacing" textLength="145" x="577.5" y="869.2861">add(newEffort : EffortUpdate)</text><!--MD5=[6b13f1b330d33795af281e5c1dfe1e98]
class Resource--><rect fill="#FEFECE" filter="url(#f1653he9gjln08)" height="131.0156" id="Resource" style="stroke:#A80036;stroke-width:1.5;" width="181" x="1054" y="425"/><ellipse cx="1113.25" cy="441" fill="#ADD1B2" rx="11" ry="11" style="stroke:#A80036;stroke-width:1.0;"/><path d="M1115.25,437.5 Q1115.4531,437 1115.6875,436.75 Q1115.9219,436.5 1116.1875,436.5 Q1116.6563,436.5 1116.9531,436.7813 Q1117.25,437.0625 1117.25,437.7188 L1117.25,439.2813 Q1117.25,439.9375 1116.9688,440.2188 Q1116.6875,440.5 1116.25,440.5 Q1115.8594,440.5 1115.6094,440.3281 Q1115.3594,440.1563 1115.25,439.7031 Q1115.2031,439.3906 1115.0313,439.2188 Q1114.7188,438.8906 1114.1563,438.7031 Q1113.5938,438.5 1113.0313,438.5 Q1112.3281,438.5 1111.7344,438.7813 Q1111.1563,439.0625 1110.7031,439.6875 Q1110.25,440.3125 1110.25,441.1719 L1110.25,442.0938 Q1110.25,443.125 1111.0938,443.8125 Q1111.9375,444.5 1113.4375,444.5 Q1114.3281,444.5 1114.9531,444.2969 Q1115.3125,444.1875 1115.7188,443.8281 Q1115.9844,443.625 1116.125,443.5625 Q1116.2656,443.5 1116.4375,443.5 Q1116.7656,443.5 1117,443.7656 Q1117.25,444.0156 1117.25,444.375 Q1117.25,444.7188 1116.9063,445.125 Q1116.4063,445.7188 1115.6094,446.0469 Q1114.5625,446.5 1113.2813,446.5 Q1111.7813,446.5 1110.5781,445.9063 Q1109.6094,445.4375 1108.9219,444.4219 Q1108.25,443.4063 1108.25,442.2031 L1108.25,441.1094 Q1108.25,439.8594 1108.8438,438.7656 Q1109.4531,437.6719 1110.5,437.0938 Q1111.5625,436.5 1112.75,436.5 Q1113.4688,436.5 1114.0938,436.75 Q1114.7188,437 1115.25,437.5 Z " fill="#000000"/><text fill="#000000" font-family="sans-serif" font-size="12" lengthAdjust="spacing" textLength="54" x="1133.75" y="445.9102">Resource</text><line style="stroke:#A80036;stroke-width:1.5;" x1="1055" x2="1234" y1="457" y2="457"/><rect fill="none" height="6" style="stroke:#C82930;stroke-width:1.0;" width="6" x="1062" y="465"/><text fill="#000000" font-family="sans-serif" font-size="11" lengthAdjust="spacing" textLength="101" x="1074" y="472.4189">startDate : LocalDate</text><rect fill="none" height="6" style="stroke:#C82930;stroke-width:1.0;" width="6" x="1062" y="478.8359"/><text fill="#000000" font-family="sans-serif" font-size="11" lengthAdjust="spacing" textLength="97" x="1074" y="486.2549">endDate : LocalDate</text><rect fill="none" height="6" style="stroke:#C82930;stroke-width:1.0;" width="6" x="1062" y="492.6719"/><text fill="#000000" font-family="sans-serif" font-size="11" lengthAdjust="spacing" textLength="155" x="1074" y="500.0908">percentageOfAllocation : double</text><rect fill="none" height="6" style="stroke:#C82930;stroke-width:1.0;" width="6" x="1062" y="506.5078"/><text fill="#000000" font-family="sans-serif" font-size="11" lengthAdjust="spacing" textLength="101" x="1074" y="513.9268">costPerHour : double</text><line style="stroke:#A80036;stroke-width:1.5;" x1="1055" x2="1234" y1="520.3438" y2="520.3438"/><text fill="#000000" font-family="sans-serif" font-size="11" lengthAdjust="spacing" textLength="155" x="1060" y="535.7627">isResourceActive(email : String)</text><text fill="#000000" font-family="sans-serif" font-size="11" lengthAdjust="spacing" textLength="94" x="1060" y="549.5986">isStartDateBefore()</text><!--MD5=[f9a29335b499db729be669fd1bd54958]
class Account--><rect fill="#FEFECE" filter="url(#f1653he9gjln08)" height="158.6875" id="Account" style="stroke:#A80036;stroke-width:1.5;" width="221" x="1051" y="675.5"/><ellipse cx="1135.75" cy="691.5" fill="#ADD1B2" rx="11" ry="11" style="stroke:#A80036;stroke-width:1.0;"/><path d="M1137.75,688 Q1137.9531,687.5 1138.1875,687.25 Q1138.4219,687 1138.6875,687 Q1139.1563,687 1139.4531,687.2813 Q1139.75,687.5625 1139.75,688.2188 L1139.75,689.7813 Q1139.75,690.4375 1139.4688,690.7188 Q1139.1875,691 1138.75,691 Q1138.3594,691 1138.1094,690.8281 Q1137.8594,690.6563 1137.75,690.2031 Q1137.7031,689.8906 1137.5313,689.7188 Q1137.2188,689.3906 1136.6563,689.2031 Q1136.0938,689 1135.5313,689 Q1134.8281,689 1134.2344,689.2813 Q1133.6563,689.5625 1133.2031,690.1875 Q1132.75,690.8125 1132.75,691.6719 L1132.75,692.5938 Q1132.75,693.625 1133.5938,694.3125 Q1134.4375,695 1135.9375,695 Q1136.8281,695 1137.4531,694.7969 Q1137.8125,694.6875 1138.2188,694.3281 Q1138.4844,694.125 1138.625,694.0625 Q1138.7656,694 1138.9375,694 Q1139.2656,694 1139.5,694.2656 Q1139.75,694.5156 1139.75,694.875 Q1139.75,695.2188 1139.4063,695.625 Q1138.9063,696.2188 1138.1094,696.5469 Q1137.0625,697 1135.7813,697 Q1134.2813,697 1133.0781,696.4063 Q1132.1094,695.9375 1131.4219,694.9219 Q1130.75,693.9063 1130.75,692.7031 L1130.75,691.6094 Q1130.75,690.3594 1131.3438,689.2656 Q1131.9531,688.1719 1133,687.5938 Q1134.0625,687 1135.25,687 Q1135.9688,687 1136.5938,687.25 Q1137.2188,687.5 1137.75,688 Z " fill="#000000"/><text fill="#000000" font-family="sans-serif" font-size="12" lengthAdjust="spacing" textLength="43" x="1156.25" y="696.4102">Account</text><line style="stroke:#A80036;stroke-width:1.5;" x1="1052" x2="1271" y1="707.5" y2="707.5"/><rect fill="none" height="6" style="stroke:#C82930;stroke-width:1.0;" width="6" x="1059" y="715.5"/><text fill="#000000" font-family="sans-serif" font-size="11" lengthAdjust="spacing" textLength="61" x="1071" y="722.9189">email : String</text><rect fill="none" height="6" style="stroke:#C82930;stroke-width:1.0;" width="6" x="1059" y="729.3359"/><text fill="#000000" font-family="sans-serif" font-size="11" lengthAdjust="spacing" textLength="87" x="1071" y="736.7549">password : String</text><rect fill="none" height="6" style="stroke:#C82930;stroke-width:1.0;" width="6" x="1059" y="743.1719"/><text fill="#000000" font-family="sans-serif" font-size="11" lengthAdjust="spacing" textLength="63" x="1071" y="750.5908">name : String</text><rect fill="none" height="6" style="stroke:#C82930;stroke-width:1.0;" width="6" x="1059" y="757.0078"/><text fill="#000000" font-family="sans-serif" font-size="11" lengthAdjust="spacing" textLength="76" x="1071" y="764.4268">function : String</text><rect fill="none" height="6" style="stroke:#C82930;stroke-width:1.0;" width="6" x="1059" y="770.8438"/><text fill="#000000" font-family="sans-serif" font-size="11" lengthAdjust="spacing" textLength="64" x="1071" y="778.2627">photo : String</text><rect fill="none" height="6" style="stroke:#C82930;stroke-width:1.0;" width="6" x="1059" y="784.6797"/><text fill="#000000" font-family="sans-serif" font-size="11" lengthAdjust="spacing" textLength="195" x="1071" y="792.0986">workingCapacityHoursPerWeek : integer</text><rect fill="none" height="6" style="stroke:#C82930;stroke-width:1.0;" width="6" x="1059" y="798.5156"/><text fill="#000000" font-family="sans-serif" font-size="11" lengthAdjust="spacing" textLength="86" x="1071" y="805.9346">isActive : boolean</text><line style="stroke:#A80036;stroke-width:1.5;" x1="1052" x2="1271" y1="812.3516" y2="812.3516"/><text fill="#000000" font-family="sans-serif" font-size="11" lengthAdjust="spacing" textLength="156" x="1057" y="827.7705">isAccountEqualTo(email : String)</text><!--MD5=[00bd39c609fa8684bc0deddb4da74f5f]
class AddWorkDoneUI--><rect fill="#FEFECE" filter="url(#f1653he9gjln08)" height="48" id="AddWorkDoneUI" style="stroke:#A80036;stroke-width:1.5;" width="123" x="7" y="14"/><ellipse cx="22" cy="30" fill="#ADD1B2" rx="11" ry="11" style="stroke:#A80036;stroke-width:1.0;"/><path d="M24,26.5 Q24.2031,26 24.4375,25.75 Q24.6719,25.5 24.9375,25.5 Q25.4063,25.5 25.7031,25.7813 Q26,26.0625 26,26.7188 L26,28.2813 Q26,28.9375 25.7188,29.2188 Q25.4375,29.5 25,29.5 Q24.6094,29.5 24.3594,29.3281 Q24.1094,29.1563 24,28.7031 Q23.9531,28.3906 23.7813,28.2188 Q23.4688,27.8906 22.9063,27.7031 Q22.3438,27.5 21.7813,27.5 Q21.0781,27.5 20.4844,27.7813 Q19.9063,28.0625 19.4531,28.6875 Q19,29.3125 19,30.1719 L19,31.0938 Q19,32.125 19.8438,32.8125 Q20.6875,33.5 22.1875,33.5 Q23.0781,33.5 23.7031,33.2969 Q24.0625,33.1875 24.4688,32.8281 Q24.7344,32.625 24.875,32.5625 Q25.0156,32.5 25.1875,32.5 Q25.5156,32.5 25.75,32.7656 Q26,33.0156 26,33.375 Q26,33.7188 25.6563,34.125 Q25.1563,34.7188 24.3594,35.0469 Q23.3125,35.5 22.0313,35.5 Q20.5313,35.5 19.3281,34.9063 Q18.3594,34.4375 17.6719,33.4219 Q17,32.4063 17,31.2031 L17,30.1094 Q17,28.8594 17.5938,27.7656 Q18.2031,26.6719 19.25,26.0938 Q20.3125,25.5 21.5,25.5 Q22.2188,25.5 22.8438,25.75 Q23.4688,26 24,26.5 Z " fill="#000000"/><text fill="#000000" font-family="sans-serif" font-size="12" lengthAdjust="spacing" textLength="91" x="36" y="34.9102">AddWorkDoneUI</text><line style="stroke:#A80036;stroke-width:1.5;" x1="8" x2="129" y1="46" y2="46"/><line style="stroke:#A80036;stroke-width:1.5;" x1="8" x2="129" y1="54" y2="54"/><!--MD5=[90d81d3d9da252f34f313f796e95c5b0]
link AddWorkDoneUI to AddWorkDoneController--><path codeLine="63" d="M130.05,38 C141.63,38 153.21,38 164.79,38 " fill="none" id="AddWorkDoneUI-AddWorkDoneController" style="stroke:#A80036;stroke-width:1.0;stroke-dasharray:7.0,7.0;"/><!--MD5=[7b9c986e0bbc56c2a64d07d11e99ba62]
link AddWorkDoneController to ITCompany--><path codeLine="64" d="M736.2,38 C747.78,38 759.35,38 770.92,38 " fill="none" id="AddWorkDoneController-ITCompany" style="stroke:#A80036;stroke-width:1.0;stroke-dasharray:7.0,7.0;"/><!--MD5=[9d190966e5c36ccfda4ae63b32675f81]
link ITCompany to ProjectStore--><path codeLine="65" d="M866.28,38 C877.8,38 889.32,38 900.84,38 " fill="none" id="ITCompany-ProjectStore" style="stroke:#A80036;stroke-width:1.0;"/><!--MD5=[c2999c5e21c0a7115ef87c36c02875b6]
reverse link ProjectStore to Project--><path codeLine="66" d="M994.5,82.32 C994.5,101.13 994.5,124.01 994.5,146.62 " fill="none" id="ProjectStore-backto-Project" style="stroke:#A80036;stroke-width:1.0;"/><polygon fill="#FFFFFF" points="994.5,69.1,990.5,75.1,994.5,81.1,998.5,75.1,994.5,69.1" style="stroke:#A80036;stroke-width:1.0;"/><text fill="#000000" font-family="sans-serif" font-size="13" lengthAdjust="spacing" textLength="56" x="995.5" y="113.4951">is a list of</text><!--MD5=[0bef9f8d7067a121dd96a530c1f2080d]
link Project to Resource--><path codeLine="67" d="M1056.16,347.27 C1072.4,373.42 1089.51,400.96 1104.29,424.77 " fill="none" id="Project-Resource" style="stroke:#A80036;stroke-width:1.0;"/><polygon fill="#000000" points="1091.1379,390.4233,1088.8626,381.1889,1083.8693,384.2899,1091.1379,390.4233" style="stroke:#000000;stroke-width:1.0;"/><text fill="#000000" font-family="sans-serif" font-size="13" lengthAdjust="spacing" textLength="77" x="1097.5" y="391.4951">has allocated</text><text fill="#000000" font-family="sans-serif" font-size="13" lengthAdjust="spacing" textLength="7" x="1053.4311" y="368.7219">1</text><text fill="#000000" font-family="sans-serif" font-size="13" lengthAdjust="spacing" textLength="20" x="1078.7983" y="414.2193">0..*</text><!--MD5=[3093f85762fddb033a3a5d933eb375de]
link Resource to Account--><path codeLine="68" d="M1148.68,556.05 C1151.01,592.03 1153.93,637.11 1156.39,675.16 " fill="none" id="Resource-Account" style="stroke:#A80036;stroke-width:1.0;"/><polygon fill="#000000" points="1156.823,600.1653,1159.1715,590.9493,1153.3059,591.329,1156.823,600.1653" style="stroke:#000000;stroke-width:1.0;"/><text fill="#000000" font-family="sans-serif" font-size="13" lengthAdjust="spacing" textLength="63" x="1165.5" y="600.4951">is linked to</text><text fill="#000000" font-family="sans-serif" font-size="13" lengthAdjust="spacing" textLength="20" x="1128.0434" y="577.608">0..*</text><text fill="#000000" font-family="sans-serif" font-size="13" lengthAdjust="spacing" textLength="7" x="1148.5963" y="664.588">1</text><!--MD5=[d6d7f4a9855853da0e2cab67ce85ccf9]
link Project to Sprint--><path codeLine="69" d="M947.23,347.27 C933.54,376.02 919.05,406.45 907,431.76 " fill="none" id="Project-Sprint" style="stroke:#A80036;stroke-width:1.0;"/><polygon fill="#000000" points="933.3505,390.6902,939.8925,383.787,934.5855,381.2601,933.3505,390.6902" style="stroke:#000000;stroke-width:1.0;"/><text fill="#000000" font-family="sans-serif" font-size="13" lengthAdjust="spacing" textLength="89" x="944.5" y="391.4951">is carried out in</text><text fill="#000000" font-family="sans-serif" font-size="13" lengthAdjust="spacing" textLength="7" x="936.5016" y="368.7219">1</text><text fill="#000000" font-family="sans-serif" font-size="13" lengthAdjust="spacing" textLength="20" x="889.1328" y="421.1317">0..*</text><!--MD5=[95495e92c5857f9604e966958a2b0397]
link Sprint to Task--><path codeLine="70" d="M860.63,549.11 C852.44,574.08 842.54,604.32 832.88,633.81 " fill="none" id="Sprint-Task" style="stroke:#A80036;stroke-width:1.0;"/><polygon fill="#000000" points="850.9433,599.9273,856.5523,592.2468,850.9666,590.4167,850.9433,599.9273" style="stroke:#000000;stroke-width:1.0;"/><text fill="#000000" font-family="sans-serif" font-size="13" lengthAdjust="spacing" textLength="100" x="861.5" y="600.4951">makes ceremony</text><text fill="#000000" font-family="sans-serif" font-size="13" lengthAdjust="spacing" textLength="7" x="850.9037" y="570.7337">1</text><text fill="#000000" font-family="sans-serif" font-size="13" lengthAdjust="spacing" textLength="20" x="814.7622" y="623.0497">0..*</text><!--MD5=[f50cc2b653fd6e61458233c00596fe00]
link Task to EffortUpdate--><path codeLine="71" d="M793.5,876.25 C793.5,903.63 793.5,931.26 793.5,953.84 " fill="none" id="Task-EffortUpdate" style="stroke:#A80036;stroke-width:1.0;"/><polygon fill="#000000" points="798.5,920.1758,801.4389,911.1307,795.5611,911.1307,798.5,920.1758" style="stroke:#000000;stroke-width:1.0;"/><text fill="#000000" font-family="sans-serif" font-size="13" lengthAdjust="spacing" textLength="88" x="807.5" y="920.4951">is completed in</text><text fill="#000000" font-family="sans-serif" font-size="13" lengthAdjust="spacing" textLength="7" x="786.2977" y="897.2361">1</text><text fill="#000000" font-family="sans-serif" font-size="13" lengthAdjust="spacing" textLength="20" x="772.1563" y="943.3188">0..*</text><!--MD5=[cf1127eada58db24849aa8a9a25edf0e]
@startuml
class EffortUpdate

AddWorkDoneController : boolean submitWorkDone (email : String, projectCode : int, taskCode : int, spentHours : double, taskComment : String)
ITCompany : getProjectStore()
ProjectStore : findProjectByCode(projectCode : int)

EffortUpdate : -dateTime : LocalDate
EffortUpdate : -hoursSpent : double
EffortUpdate : -dateTime : LocalDate
EffortUpdate : EffortUpdate(spentHours : double, taskComment : String, resourceData : Resource)

Project : -code : int
Project : -name : String
Project : -description : String
Project : -startDate : Date
Project : -sprintDuration : int
Project : -plannedSprints : int
Project : -endDate : Date
Project : -projectStatus : String
Project : -budget : double
Project : findActiveResource(email : String)
Project : determineRunningSprint()

Sprint : -number : int
Sprint : -startDate : LocalDate
Sprint : -endDate : LocalDate
Sprint : isCurrentDateContainedInSprintDuration()
Sprint : findTaskByCode(taskCode : int)

Task : -name : String
Task : -description : String
Task : -startDate : LocalDate
Task : -endDate : LocalDate
Task : -effortEstimate : double
Task : -taskType : String
Task : -taskStatus : String
Task : -hoursSpent : double
Task : -percentageOfExecution : double
Task : getNumber()
Task : createEffortUpdate(spentHours : double, taskComment : String, resourceData : Resource)
Task : addHoursSpentAndUpdatePercentageOfExecution(spentHours : double)
Task : updatePercentageOfExecution()
Task : add(newEffort : EffortUpdate)

Resource : -startDate : LocalDate
Resource : -endDate : LocalDate
Resource : -percentageOfAllocation : double
Resource : -costPerHour : double
Resource : isResourceActive(email : String)
Resource : isStartDateBefore()


Account : -email : String
Account : -password : String
Account : -name : String
Account : -function : String
Account : -photo : String
Account : -workingCapacityHoursPerWeek : integer
Account : -isActive : boolean
Account : isAccountEqualTo(email : String)


AddWorkDoneUI . AddWorkDoneController
AddWorkDoneController . ITCompany
ITCompany - ProjectStore
ProjectStore o- - Project : "is a list of"
Project "1" - - "0..*" Resource : has allocated >
Resource "0..*" - - "1" Account : is linked to >
Project "1" - - "0..*" Sprint : is carried out in >
Sprint "1" - - "0..*" Task : makes ceremony >
Task "1" - - "0..*" EffortUpdate : is completed in >

@enduml

PlantUML version 1.2022.0(Tue Jan 11 16:16:42 GMT 2022)
(GPL source distribution)
Java Runtime: OpenJDK Runtime Environment
JVM: OpenJDK 64-Bit Server VM
Default Encoding: Cp1252
Language: en
Country: GB
--></g></svg>