<?xml version="1.0" encoding="UTF-8" standalone="no"?><svg xmlns="http://www.w3.org/2000/svg" xmlns:xlink="http://www.w3.org/1999/xlink" contentScriptType="application/ecmascript" contentStyleType="text/css" height="1351px" preserveAspectRatio="none" style="width:2392px;height:1351px;background:#FFFFFF;" version="1.1" viewBox="0 0 2392 1351" width="2392px" zoomAndPan="magnify"><defs><filter height="300%" id="f60w294or3c4j" width="300%" x="-1" y="-1"><feGaussianBlur result="blurOut" stdDeviation="2.0"/><feColorMatrix in="blurOut" result="blurOut2" type="matrix" values="0 0 0 0 0 0 0 0 0 0 0 0 0 0 0 0 0 0 .4 0"/><feOffset dx="4.0" dy="4.0" in="blurOut2" result="blurOut3"/><feBlend in="SourceGraphic" in2="blurOut3" mode="normal"/></filter></defs><g><rect fill="#FFFFFF" filter="url(#f60w294or3c4j)" height="1079.6953" style="stroke:#A80036;stroke-width:1.0;" width="10" x="372" y="168.6641"/><rect fill="#FFFFFF" filter="url(#f60w294or3c4j)" height="941.9375" style="stroke:#A80036;stroke-width:1.0;" width="10" x="638" y="276.0703"/><rect fill="#FFFFFF" filter="url(#f60w294or3c4j)" height="941.9375" style="stroke:#A80036;stroke-width:1.0;" width="10" x="806" y="306.4219"/><rect fill="#FFFFFF" filter="url(#f60w294or3c4j)" height="55.7031" style="stroke:#A80036;stroke-width:1.0;" width="10" x="916.5" y="336.7734"/><rect fill="#FFFFFF" filter="url(#f60w294or3c4j)" height="302.6484" style="stroke:#A80036;stroke-width:1.0;" width="10" x="1106.5" y="429.8281"/><rect fill="#FFFFFF" filter="url(#f60w294or3c4j)" height="146.7578" style="stroke:#A80036;stroke-width:1.0;" width="10" x="1106.5" y="761.8281"/><rect fill="#FFFFFF" filter="url(#f60w294or3c4j)" height="246.9453" style="stroke:#A80036;stroke-width:1.0;" width="10" x="1349.5" y="485.5313"/><rect fill="#FFFFFF" filter="url(#f60w294or3c4j)" height="36.3516" style="stroke:#A80036;stroke-width:1.0;" width="10" x="1597.5" y="541.2344"/><rect fill="#FFFFFF" filter="url(#f60w294or3c4j)" height="36.3516" style="stroke:#A80036;stroke-width:1.0;" width="10" x="1597.5" y="630.7734"/><rect fill="#FFFFFF" filter="url(#f60w294or3c4j)" height="91.0547" style="stroke:#A80036;stroke-width:1.0;" width="10" x="1683" y="817.5313"/><rect fill="#FFFFFF" filter="url(#f60w294or3c4j)" height="70.7031" style="stroke:#A80036;stroke-width:1.0;" width="10" x="1683" y="930.9375"/><rect fill="#FFFFFF" filter="url(#f60w294or3c4j)" height="15" style="stroke:#A80036;stroke-width:1.0;" width="10" x="1847" y="986.6406"/><rect fill="#FFFFFF" filter="url(#f60w294or3c4j)" height="163.6641" style="stroke:#A80036;stroke-width:1.0;" width="10" x="1847" y="1023.9922"/><rect fill="#FFFFFF" filter="url(#f60w294or3c4j)" height="48.7031" style="stroke:#000000;stroke-width:2.0;" width="312.5" x="850" y="351.7734"/><rect fill="#FFFFFF" filter="url(#f60w294or3c4j)" height="287.6484" style="stroke:#000000;stroke-width:2.0;" width="600.5" x="1060.5" y="444.8281"/><rect fill="#FFFFFF" filter="url(#f60w294or3c4j)" height="224.9453" style="stroke:#000000;stroke-width:2.0;" width="350" x="1301" y="500.5313"/><rect fill="#FFFFFF" height="132.8906" style="stroke:none;stroke-width:1.0;" width="350" x="1301" y="592.5859"/><rect fill="#FFFFFF" filter="url(#f60w294or3c4j)" height="124.7578" style="stroke:#000000;stroke-width:2.0;" width="791.5" x="1060.5" y="776.8281"/><rect fill="#FFFFFF" filter="url(#f60w294or3c4j)" height="48.7031" style="stroke:#000000;stroke-width:2.0;" width="253.5" x="1641" y="945.9375"/><line style="stroke:#A80036;stroke-width:1.0;stroke-dasharray:5.0,5.0;" x1="153.5" x2="153.5" y1="89.6094" y2="1266.3594"/><line style="stroke:#A80036;stroke-width:1.0;stroke-dasharray:5.0,5.0;" x1="377" x2="377" y1="89.6094" y2="1266.3594"/><line style="stroke:#A80036;stroke-width:1.0;stroke-dasharray:5.0,5.0;" x1="643" x2="643" y1="89.6094" y2="1266.3594"/><line style="stroke:#A80036;stroke-width:1.0;stroke-dasharray:5.0,5.0;" x1="811" x2="811" y1="89.6094" y2="1266.3594"/><line style="stroke:#A80036;stroke-width:1.0;stroke-dasharray:5.0,5.0;" x1="921" x2="921" y1="89.6094" y2="1266.3594"/><line style="stroke:#A80036;stroke-width:1.0;stroke-dasharray:5.0,5.0;" x1="1111.5" x2="1111.5" y1="89.6094" y2="1266.3594"/><line style="stroke:#A80036;stroke-width:1.0;stroke-dasharray:5.0,5.0;" x1="1354" x2="1354" y1="89.6094" y2="1266.3594"/><line style="stroke:#A80036;stroke-width:1.0;stroke-dasharray:5.0,5.0;" x1="1602" x2="1602" y1="89.6094" y2="1266.3594"/><line style="stroke:#A80036;stroke-width:1.0;stroke-dasharray:5.0,5.0;" x1="1688" x2="1688" y1="89.6094" y2="1266.3594"/><line style="stroke:#A80036;stroke-width:1.0;stroke-dasharray:5.0,5.0;" x1="1851.5" x2="1851.5" y1="89.6094" y2="1266.3594"/><line style="stroke:#A80036;stroke-width:1.0;stroke-dasharray:5.0,5.0;" x1="2298" x2="2298" y1="1108.6484" y2="1266.3594"/><text fill="#000000" font-family="sans-serif" font-size="14" lengthAdjust="spacing" textLength="123" x="89.5" y="86.5332">SM / Team Member</text><ellipse cx="154" cy="15" fill="#FEFECE" filter="url(#f60w294or3c4j)" rx="8" ry="8" style="stroke:#A80036;stroke-width:2.0;"/><path d="M154,23 L154,50 M141,31 L167,31 M154,50 L141,65 M154,50 L167,65 " fill="none" filter="url(#f60w294or3c4j)" style="stroke:#A80036;stroke-width:2.0;"/><text fill="#000000" font-family="sans-serif" font-size="14" lengthAdjust="spacing" textLength="123" x="89.5" y="1279.8926">SM / Team Member</text><ellipse cx="154" cy="1292.9688" fill="#FEFECE" filter="url(#f60w294or3c4j)" rx="8" ry="8" style="stroke:#A80036;stroke-width:2.0;"/><path d="M154,1300.9688 L154,1327.9688 M141,1308.9688 L167,1308.9688 M154,1327.9688 L141,1342.9688 M154,1327.9688 L167,1342.9688 " fill="none" filter="url(#f60w294or3c4j)" style="stroke:#A80036;stroke-width:2.0;"/><text fill="#000000" font-family="sans-serif" font-size="14" lengthAdjust="spacing" textLength="104" x="322" y="86.5332">AddWorkDoneUI</text><path d="M356.5,44 L356.5,68 M356.5,56 L373.5,56 " fill="none" filter="url(#f60w294or3c4j)" style="stroke:#A80036;stroke-width:2.0;"/><ellipse cx="385.5" cy="56" fill="#FEFECE" filter="url(#f60w294or3c4j)" rx="12" ry="12" style="stroke:#A80036;stroke-width:2.0;"/><text fill="#000000" font-family="sans-serif" font-size="14" lengthAdjust="spacing" textLength="104" x="322" y="1279.8926">AddWorkDoneUI</text><path d="M356.5,1286.9688 L356.5,1310.9688 M356.5,1298.9688 L373.5,1298.9688 " fill="none" filter="url(#f60w294or3c4j)" style="stroke:#A80036;stroke-width:2.0;"/><ellipse cx="385.5" cy="1298.9688" fill="#FEFECE" filter="url(#f60w294or3c4j)" rx="12" ry="12" style="stroke:#A80036;stroke-width:2.0;"/><text fill="#000000" font-family="sans-serif" font-size="14" lengthAdjust="spacing" textLength="154" x="563" y="86.5332">AddWorkDoneController</text><ellipse cx="643" cy="56" fill="#FEFECE" filter="url(#f60w294or3c4j)" rx="12" ry="12" style="stroke:#A80036;stroke-width:2.0;"/><polygon fill="#A80036" points="639,44,645,39,643,44,645,49,639,44" style="stroke:#A80036;stroke-width:1.0;"/><text fill="#000000" font-family="sans-serif" font-size="14" lengthAdjust="spacing" textLength="154" x="563" y="1279.8926">AddWorkDoneController</text><ellipse cx="643" cy="1298.9688" fill="#FEFECE" filter="url(#f60w294or3c4j)" rx="12" ry="12" style="stroke:#A80036;stroke-width:2.0;"/><polygon fill="#A80036" points="639,1286.9688,645,1281.9688,643,1286.9688,645,1291.9688,639,1286.9688" style="stroke:#A80036;stroke-width:1.0;"/><text fill="#000000" font-family="sans-serif" font-size="14" lengthAdjust="spacing" textLength="72" x="772" y="86.5332">ITCompany</text><ellipse cx="811" cy="56" fill="#FEFECE" filter="url(#f60w294or3c4j)" rx="12" ry="12" style="stroke:#A80036;stroke-width:2.0;"/><line style="stroke:#A80036;stroke-width:2.0;" x1="799" x2="823" y1="70" y2="70"/><text fill="#000000" font-family="sans-serif" font-size="14" lengthAdjust="spacing" textLength="72" x="772" y="1279.8926">ITCompany</text><ellipse cx="811" cy="1298.9688" fill="#FEFECE" filter="url(#f60w294or3c4j)" rx="12" ry="12" style="stroke:#A80036;stroke-width:2.0;"/><line style="stroke:#A80036;stroke-width:2.0;" x1="799" x2="823" y1="1312.9688" y2="1312.9688"/><rect fill="#FEFECE" filter="url(#f60w294or3c4j)" height="31.6094" style="stroke:#A80036;stroke-width:1.5;" width="119" x="860" y="53"/><text fill="#000000" font-family="sans-serif" font-size="14" lengthAdjust="spacing" textLength="105" x="867" y="74.5332">ps : ProjectStore</text><rect fill="#FEFECE" filter="url(#f60w294or3c4j)" height="31.6094" style="stroke:#A80036;stroke-width:1.5;" width="119" x="860" y="1265.3594"/><text fill="#000000" font-family="sans-serif" font-size="14" lengthAdjust="spacing" textLength="105" x="867" y="1286.8926">ps : ProjectStore</text><rect fill="#FEFECE" filter="url(#f60w294or3c4j)" height="31.6094" style="stroke:#A80036;stroke-width:1.5;" width="78" x="1070.5" y="53"/><text fill="#000000" font-family="sans-serif" font-size="14" lengthAdjust="spacing" textLength="64" x="1077.5" y="74.5332">p : Project</text><rect fill="#FEFECE" filter="url(#f60w294or3c4j)" height="31.6094" style="stroke:#A80036;stroke-width:1.5;" width="78" x="1070.5" y="1265.3594"/><text fill="#000000" font-family="sans-serif" font-size="14" lengthAdjust="spacing" textLength="64" x="1077.5" y="1286.8926">p : Project</text><rect fill="#FEFECE" filter="url(#f60w294or3c4j)" height="31.6094" style="stroke:#A80036;stroke-width:1.5;" width="83" x="1311" y="53"/><text fill="#000000" font-family="sans-serif" font-size="14" lengthAdjust="spacing" textLength="69" x="1318" y="74.5332">: Resource</text><rect fill="#FEFECE" filter="url(#f60w294or3c4j)" height="31.6094" style="stroke:#A80036;stroke-width:1.5;" width="83" x="1311" y="1265.3594"/><text fill="#000000" font-family="sans-serif" font-size="14" lengthAdjust="spacing" textLength="69" x="1318" y="1286.8926">: Resource</text><rect fill="#FEFECE" filter="url(#f60w294or3c4j)" height="31.6094" style="stroke:#A80036;stroke-width:1.5;" width="73" x="1564" y="53"/><text fill="#000000" font-family="sans-serif" font-size="14" lengthAdjust="spacing" textLength="59" x="1571" y="74.5332">: Account</text><rect fill="#FEFECE" filter="url(#f60w294or3c4j)" height="31.6094" style="stroke:#A80036;stroke-width:1.5;" width="73" x="1564" y="1265.3594"/><text fill="#000000" font-family="sans-serif" font-size="14" lengthAdjust="spacing" textLength="59" x="1571" y="1286.8926">: Account</text><rect fill="#FEFECE" filter="url(#f60w294or3c4j)" height="31.6094" style="stroke:#A80036;stroke-width:1.5;" width="70" x="1651" y="53"/><text fill="#000000" font-family="sans-serif" font-size="14" lengthAdjust="spacing" textLength="56" x="1658" y="74.5332">s : Sprint</text><rect fill="#FEFECE" filter="url(#f60w294or3c4j)" height="31.6094" style="stroke:#A80036;stroke-width:1.5;" width="70" x="1651" y="1265.3594"/><text fill="#000000" font-family="sans-serif" font-size="14" lengthAdjust="spacing" textLength="56" x="1658" y="1286.8926">s : Sprint</text><rect fill="#FEFECE" filter="url(#f60w294or3c4j)" height="31.6094" style="stroke:#A80036;stroke-width:1.5;" width="61" x="1819.5" y="53"/><text fill="#000000" font-family="sans-serif" font-size="14" lengthAdjust="spacing" textLength="47" x="1826.5" y="74.5332">t : Task</text><rect fill="#FEFECE" filter="url(#f60w294or3c4j)" height="31.6094" style="stroke:#A80036;stroke-width:1.5;" width="61" x="1819.5" y="1265.3594"/><text fill="#000000" font-family="sans-serif" font-size="14" lengthAdjust="spacing" textLength="47" x="1826.5" y="1286.8926">t : Task</text><rect fill="#FEFECE" filter="url(#f60w294or3c4j)" height="31.6094" style="stroke:#A80036;stroke-width:1.5;" width="164" x="2214" y="1265.3594"/><text fill="#000000" font-family="sans-serif" font-size="14" lengthAdjust="spacing" textLength="150" x="2221" y="1286.8926">newEffort : EffortUpdate</text><rect fill="#FFFFFF" filter="url(#f60w294or3c4j)" height="1079.6953" style="stroke:#A80036;stroke-width:1.0;" width="10" x="372" y="168.6641"/><rect fill="#FFFFFF" filter="url(#f60w294or3c4j)" height="941.9375" style="stroke:#A80036;stroke-width:1.0;" width="10" x="638" y="276.0703"/><rect fill="#FFFFFF" filter="url(#f60w294or3c4j)" height="941.9375" style="stroke:#A80036;stroke-width:1.0;" width="10" x="806" y="306.4219"/><rect fill="#FFFFFF" filter="url(#f60w294or3c4j)" height="55.7031" style="stroke:#A80036;stroke-width:1.0;" width="10" x="916.5" y="336.7734"/><rect fill="#FFFFFF" filter="url(#f60w294or3c4j)" height="302.6484" style="stroke:#A80036;stroke-width:1.0;" width="10" x="1106.5" y="429.8281"/><rect fill="#FFFFFF" filter="url(#f60w294or3c4j)" height="146.7578" style="stroke:#A80036;stroke-width:1.0;" width="10" x="1106.5" y="761.8281"/><rect fill="#FFFFFF" filter="url(#f60w294or3c4j)" height="246.9453" style="stroke:#A80036;stroke-width:1.0;" width="10" x="1349.5" y="485.5313"/><rect fill="#FFFFFF" filter="url(#f60w294or3c4j)" height="36.3516" style="stroke:#A80036;stroke-width:1.0;" width="10" x="1597.5" y="541.2344"/><rect fill="#FFFFFF" filter="url(#f60w294or3c4j)" height="36.3516" style="stroke:#A80036;stroke-width:1.0;" width="10" x="1597.5" y="630.7734"/><rect fill="#FFFFFF" filter="url(#f60w294or3c4j)" height="91.0547" style="stroke:#A80036;stroke-width:1.0;" width="10" x="1683" y="817.5313"/><rect fill="#FFFFFF" filter="url(#f60w294or3c4j)" height="70.7031" style="stroke:#A80036;stroke-width:1.0;" width="10" x="1683" y="930.9375"/><rect fill="#FFFFFF" filter="url(#f60w294or3c4j)" height="15" style="stroke:#A80036;stroke-width:1.0;" width="10" x="1847" y="986.6406"/><rect fill="#FFFFFF" filter="url(#f60w294or3c4j)" height="163.6641" style="stroke:#A80036;stroke-width:1.0;" width="10" x="1847" y="1023.9922"/><ellipse cx="7.5" cy="121.2109" rx="4" ry="4" style="stroke:#A80036;stroke-width:1.5;fill:none;"/><polygon fill="#A80036" points="142,117.9609,152,121.9609,142,125.9609,146,121.9609" style="stroke:#A80036;stroke-width:1.0;"/><line style="stroke:#A80036;stroke-width:1.0;" x1="12" x2="148" y1="121.9609" y2="121.9609"/><text fill="#000000" font-family="sans-serif" font-size="13" font-weight="bold" lengthAdjust="spacing" textLength="7" x="15" y="117.1045">1</text><text fill="#000000" font-family="sans-serif" font-size="13" lengthAdjust="spacing" textLength="111" x="26" y="117.1045">Output from US016</text><polygon fill="#A80036" points="360,164.6641,370,168.6641,360,172.6641,364,168.6641" style="stroke:#A80036;stroke-width:1.0;"/><line style="stroke:#A80036;stroke-width:1.0;" x1="154" x2="366" y1="168.6641" y2="168.6641"/><text fill="#000000" font-family="sans-serif" font-size="13" font-weight="bold" lengthAdjust="spacing" textLength="7" x="161" y="155.6318">2</text><text fill="#000000" font-family="sans-serif" font-size="13" lengthAdjust="spacing" textLength="151" x="172" y="147.4561">Selects task and chooses</text><text fill="#000000" font-family="sans-serif" font-size="13" lengthAdjust="spacing" textLength="123" x="176" y="163.8076">add work done option</text><polygon fill="#A80036" points="165,195.0156,155,199.0156,165,203.0156,161,199.0156" style="stroke:#A80036;stroke-width:1.0;"/><line style="stroke:#A80036;stroke-width:1.0;stroke-dasharray:2.0,2.0;" x1="159" x2="371" y1="199.0156" y2="199.0156"/><text fill="#000000" font-family="sans-serif" font-size="13" font-weight="bold" lengthAdjust="spacing" textLength="7" x="171" y="194.1592">3</text><text fill="#000000" font-family="sans-serif" font-size="13" lengthAdjust="spacing" textLength="46" x="182" y="194.1592">show UI</text><polygon fill="#A80036" points="360,225.3672,370,229.3672,360,233.3672,364,229.3672" style="stroke:#A80036;stroke-width:1.0;"/><line style="stroke:#A80036;stroke-width:1.0;" x1="154" x2="366" y1="229.3672" y2="229.3672"/><text fill="#000000" font-family="sans-serif" font-size="13" font-weight="bold" lengthAdjust="spacing" textLength="7" x="161" y="224.5107">4</text><text fill="#000000" font-family="sans-serif" font-size="13" lengthAdjust="spacing" textLength="183" x="172" y="224.5107">Input hours spent and comment</text><polygon fill="#A80036" points="626,272.0703,636,276.0703,626,280.0703,630,276.0703" style="stroke:#A80036;stroke-width:1.0;"/><line style="stroke:#A80036;stroke-width:1.0;stroke-dasharray:2.0,2.0;" x1="382" x2="632" y1="276.0703" y2="276.0703"/><text fill="#000000" font-family="sans-serif" font-size="13" font-weight="bold" lengthAdjust="spacing" textLength="7" x="389" y="263.0381">5</text><text fill="#000000" font-family="sans-serif" font-size="13" lengthAdjust="spacing" textLength="216" x="400" y="254.8623">submitWorkDone(email, projectCode,</text><text fill="#000000" font-family="sans-serif" font-size="13" lengthAdjust="spacing" textLength="222" x="404" y="271.2139">taskCode, spentHours, taskComment)</text><polygon fill="#A80036" points="794,302.4219,804,306.4219,794,310.4219,798,306.4219" style="stroke:#A80036;stroke-width:1.0;"/><line style="stroke:#A80036;stroke-width:1.0;" x1="648" x2="800" y1="306.4219" y2="306.4219"/><text fill="#000000" font-family="sans-serif" font-size="13" font-weight="bold" lengthAdjust="spacing" textLength="7" x="655" y="301.5654">6</text><text fill="#000000" font-family="sans-serif" font-size="13" lengthAdjust="spacing" textLength="128" x="666" y="301.5654">ps = getProjectStore()</text><polygon fill="#A80036" points="904.5,332.7734,914.5,336.7734,904.5,340.7734,908.5,336.7734" style="stroke:#A80036;stroke-width:1.0;"/><line style="stroke:#A80036;stroke-width:1.0;" x1="648" x2="910.5" y1="336.7734" y2="336.7734"/><text fill="#000000" font-family="sans-serif" font-size="13" font-weight="bold" lengthAdjust="spacing" textLength="7" x="655" y="331.917">7</text><text fill="#000000" font-family="sans-serif" font-size="13" lengthAdjust="spacing" textLength="166" x="666" y="331.917">p = findProjectByCode(code)</text><path d="M850,351.7734 L923,351.7734 L923,359.7734 L913,369.7734 L850,369.7734 L850,351.7734 " fill="#EEEEEE" style="stroke:#000000;stroke-width:1.0;"/><rect fill="none" height="48.7031" style="stroke:#000000;stroke-width:2.0;" width="312.5" x="850" y="351.7734"/><text fill="#000000" font-family="sans-serif" font-size="13" font-weight="bold" lengthAdjust="spacing" textLength="28" x="865" y="366.2686">loop</text><polygon fill="#A80036" points="1099.5,388.4766,1109.5,392.4766,1099.5,396.4766,1103.5,392.4766" style="stroke:#A80036;stroke-width:1.0;"/><line style="stroke:#A80036;stroke-width:1.0;" x1="921.5" x2="1105.5" y1="392.4766" y2="392.4766"/><text fill="#000000" font-family="sans-serif" font-size="13" font-weight="bold" lengthAdjust="spacing" textLength="7" x="928.5" y="387.6201">8</text><text fill="#000000" font-family="sans-serif" font-size="13" lengthAdjust="spacing" textLength="150" x="939.5" y="387.6201">hasId(code : int) : boolean</text><polygon fill="#A80036" points="1094.5,425.8281,1104.5,429.8281,1094.5,433.8281,1098.5,429.8281" style="stroke:#A80036;stroke-width:1.0;"/><line style="stroke:#A80036;stroke-width:1.0;" x1="648" x2="1100.5" y1="429.8281" y2="429.8281"/><text fill="#000000" font-family="sans-serif" font-size="13" font-weight="bold" lengthAdjust="spacing" textLength="7" x="655" y="424.9717">9</text><text fill="#000000" font-family="sans-serif" font-size="13" lengthAdjust="spacing" textLength="169" x="666" y="424.9717">r = findActiveResource(email)</text><path d="M1060.5,444.8281 L1133.5,444.8281 L1133.5,452.8281 L1123.5,462.8281 L1060.5,462.8281 L1060.5,444.8281 " fill="#EEEEEE" style="stroke:#000000;stroke-width:1.0;"/><rect fill="none" height="287.6484" style="stroke:#000000;stroke-width:2.0;" width="600.5" x="1060.5" y="444.8281"/><text fill="#000000" font-family="sans-serif" font-size="13" font-weight="bold" lengthAdjust="spacing" textLength="28" x="1075.5" y="459.3232">loop</text><polygon fill="#A80036" points="1337.5,481.5313,1347.5,485.5313,1337.5,489.5313,1341.5,485.5313" style="stroke:#A80036;stroke-width:1.0;"/><line style="stroke:#A80036;stroke-width:1.0;" x1="1116.5" x2="1343.5" y1="485.5313" y2="485.5313"/><text fill="#000000" font-family="sans-serif" font-size="13" font-weight="bold" lengthAdjust="spacing" textLength="14" x="1123.5" y="480.6748">10</text><text fill="#000000" font-family="sans-serif" font-size="13" lengthAdjust="spacing" textLength="196" x="1141.5" y="480.6748">isResourceActive(email) : boolean</text><path d="M1301,500.5313 L1362,500.5313 L1362,508.5313 L1352,518.5313 L1301,518.5313 L1301,500.5313 " fill="#EEEEEE" style="stroke:#000000;stroke-width:1.0;"/><rect fill="none" height="224.9453" style="stroke:#000000;stroke-width:2.0;" width="350" x="1301" y="500.5313"/><text fill="#000000" font-family="sans-serif" font-size="13" font-weight="bold" lengthAdjust="spacing" textLength="16" x="1316" y="515.0264">alt</text><text fill="#000000" font-family="sans-serif" font-size="11" font-weight="bold" lengthAdjust="spacing" textLength="84" x="1377" y="513.9502">[EndDate==null]</text><polygon fill="#A80036" points="1585.5,537.2344,1595.5,541.2344,1585.5,545.2344,1589.5,541.2344" style="stroke:#A80036;stroke-width:1.0;"/><line style="stroke:#A80036;stroke-width:1.0;" x1="1359.5" x2="1591.5" y1="541.2344" y2="541.2344"/><text fill="#000000" font-family="sans-serif" font-size="13" font-weight="bold" lengthAdjust="spacing" textLength="14" x="1366.5" y="536.3779">11</text><text fill="#000000" font-family="sans-serif" font-size="13" lengthAdjust="spacing" textLength="201" x="1384.5" y="536.3779">isAccountEqualTo(email) : boolean</text><line style="stroke:#A80036;stroke-width:1.0;" x1="1359.5" x2="1401.5" y1="576.5859" y2="576.5859"/><line style="stroke:#A80036;stroke-width:1.0;" x1="1401.5" x2="1401.5" y1="576.5859" y2="589.5859"/><line style="stroke:#A80036;stroke-width:1.0;" x1="1354.5" x2="1401.5" y1="589.5859" y2="589.5859"/><polygon fill="#A80036" points="1364.5,585.5859,1354.5,589.5859,1364.5,593.5859,1360.5,589.5859" style="stroke:#A80036;stroke-width:1.0;"/><text fill="#000000" font-family="sans-serif" font-size="13" font-weight="bold" lengthAdjust="spacing" textLength="14" x="1366.5" y="571.7295">12</text><text fill="#000000" font-family="sans-serif" font-size="13" lengthAdjust="spacing" textLength="167" x="1384.5" y="571.7295">isStartDateBefore() : boolean</text><line style="stroke:#000000;stroke-width:1.0;stroke-dasharray:2.0,2.0;" x1="1301" x2="1651" y1="593.5859" y2="593.5859"/><text fill="#000000" font-family="sans-serif" font-size="11" font-weight="bold" lengthAdjust="spacing" textLength="42" x="1306" y="605.0049">["else"]</text><polygon fill="#A80036" points="1585.5,626.7734,1595.5,630.7734,1585.5,634.7734,1589.5,630.7734" style="stroke:#A80036;stroke-width:1.0;"/><line style="stroke:#A80036;stroke-width:1.0;" x1="1359.5" x2="1591.5" y1="630.7734" y2="630.7734"/><text fill="#000000" font-family="sans-serif" font-size="13" font-weight="bold" lengthAdjust="spacing" textLength="14" x="1366.5" y="625.917">13</text><text fill="#000000" font-family="sans-serif" font-size="13" lengthAdjust="spacing" textLength="201" x="1384.5" y="625.917">isAccountEqualTo(email) : boolean</text><line style="stroke:#A80036;stroke-width:1.0;" x1="1359.5" x2="1401.5" y1="666.125" y2="666.125"/><line style="stroke:#A80036;stroke-width:1.0;" x1="1401.5" x2="1401.5" y1="666.125" y2="679.125"/><line style="stroke:#A80036;stroke-width:1.0;" x1="1354.5" x2="1401.5" y1="679.125" y2="679.125"/><polygon fill="#A80036" points="1364.5,675.125,1354.5,679.125,1364.5,683.125,1360.5,679.125" style="stroke:#A80036;stroke-width:1.0;"/><text fill="#000000" font-family="sans-serif" font-size="13" font-weight="bold" lengthAdjust="spacing" textLength="14" x="1366.5" y="661.2686">14</text><text fill="#000000" font-family="sans-serif" font-size="13" lengthAdjust="spacing" textLength="167" x="1384.5" y="661.2686">isStartDateBefore() : boolean</text><line style="stroke:#A80036;stroke-width:1.0;" x1="1359.5" x2="1401.5" y1="704.4766" y2="704.4766"/><line style="stroke:#A80036;stroke-width:1.0;" x1="1401.5" x2="1401.5" y1="704.4766" y2="717.4766"/><line style="stroke:#A80036;stroke-width:1.0;" x1="1360.5" x2="1401.5" y1="717.4766" y2="717.4766"/><polygon fill="#A80036" points="1370.5,713.4766,1360.5,717.4766,1370.5,721.4766,1366.5,717.4766" style="stroke:#A80036;stroke-width:1.0;"/><text fill="#000000" font-family="sans-serif" font-size="13" font-weight="bold" lengthAdjust="spacing" textLength="14" x="1366.5" y="699.6201">15</text><text fill="#000000" font-family="sans-serif" font-size="13" lengthAdjust="spacing" textLength="185" x="1384.5" y="699.6201">endDate.isAfter(now()) : boolean</text><polygon fill="#A80036" points="1094.5,757.8281,1104.5,761.8281,1094.5,765.8281,1098.5,761.8281" style="stroke:#A80036;stroke-width:1.0;"/><line style="stroke:#A80036;stroke-width:1.0;" x1="648" x2="1100.5" y1="761.8281" y2="761.8281"/><text fill="#000000" font-family="sans-serif" font-size="13" font-weight="bold" lengthAdjust="spacing" textLength="14" x="655" y="756.9717">16</text><text fill="#000000" font-family="sans-serif" font-size="13" lengthAdjust="spacing" textLength="169" x="673" y="756.9717">s = determineRunningSprint()</text><path d="M1060.5,776.8281 L1133.5,776.8281 L1133.5,784.8281 L1123.5,794.8281 L1060.5,794.8281 L1060.5,776.8281 " fill="#EEEEEE" style="stroke:#000000;stroke-width:1.0;"/><rect fill="none" height="124.7578" style="stroke:#000000;stroke-width:2.0;" width="791.5" x="1060.5" y="776.8281"/><text fill="#000000" font-family="sans-serif" font-size="13" font-weight="bold" lengthAdjust="spacing" textLength="28" x="1075.5" y="791.3232">loop</text><polygon fill="#A80036" points="1671,813.5313,1681,817.5313,1671,821.5313,1675,817.5313" style="stroke:#A80036;stroke-width:1.0;"/><line style="stroke:#A80036;stroke-width:1.0;" x1="1116.5" x2="1677" y1="817.5313" y2="817.5313"/><text fill="#000000" font-family="sans-serif" font-size="13" font-weight="bold" lengthAdjust="spacing" textLength="14" x="1123.5" y="812.6748">17</text><text fill="#000000" font-family="sans-serif" font-size="13" lengthAdjust="spacing" textLength="294" x="1141.5" y="812.6748">isCurrentDateContainedInSprintDuration() : boolean</text><line style="stroke:#A80036;stroke-width:1.0;" x1="1693" x2="1735" y1="880.5859" y2="880.5859"/><line style="stroke:#A80036;stroke-width:1.0;" x1="1735" x2="1735" y1="880.5859" y2="893.5859"/><line style="stroke:#A80036;stroke-width:1.0;" x1="1694" x2="1735" y1="893.5859" y2="893.5859"/><polygon fill="#A80036" points="1704,889.5859,1694,893.5859,1704,897.5859,1700,893.5859" style="stroke:#A80036;stroke-width:1.0;"/><text fill="#000000" font-family="sans-serif" font-size="13" font-weight="bold" lengthAdjust="spacing" textLength="14" x="1700" y="859.3779">18</text><text fill="#000000" font-family="sans-serif" font-size="13" lengthAdjust="spacing" textLength="122" x="1718" y="843.0264">now()&gt;=startDate &amp;&amp;</text><text fill="#000000" font-family="sans-serif" font-size="13" lengthAdjust="spacing" textLength="95" x="1722" y="859.3779">now()&lt;=endDate</text><text fill="#000000" font-family="sans-serif" font-size="13" lengthAdjust="spacing" textLength="53" x="1722" y="875.7295">: boolean</text><polygon fill="#A80036" points="1671,926.9375,1681,930.9375,1671,934.9375,1675,930.9375" style="stroke:#A80036;stroke-width:1.0;"/><line style="stroke:#A80036;stroke-width:1.0;" x1="648" x2="1677" y1="930.9375" y2="930.9375"/><text fill="#000000" font-family="sans-serif" font-size="13" font-weight="bold" lengthAdjust="spacing" textLength="14" x="655" y="926.0811">19</text><text fill="#000000" font-family="sans-serif" font-size="13" lengthAdjust="spacing" textLength="177" x="673" y="926.0811">t = findTaskByCode(taskCode)</text><path d="M1641,945.9375 L1714,945.9375 L1714,953.9375 L1704,963.9375 L1641,963.9375 L1641,945.9375 " fill="#EEEEEE" style="stroke:#000000;stroke-width:1.0;"/><rect fill="none" height="48.7031" style="stroke:#000000;stroke-width:2.0;" width="253.5" x="1641" y="945.9375"/><text fill="#000000" font-family="sans-serif" font-size="13" font-weight="bold" lengthAdjust="spacing" textLength="28" x="1656" y="960.4326">loop</text><polygon fill="#A80036" points="1835,982.6406,1845,986.6406,1835,990.6406,1839,986.6406" style="stroke:#A80036;stroke-width:1.0;"/><line style="stroke:#A80036;stroke-width:1.0;" x1="1693" x2="1841" y1="986.6406" y2="986.6406"/><text fill="#000000" font-family="sans-serif" font-size="13" font-weight="bold" lengthAdjust="spacing" textLength="14" x="1700" y="981.7842">20</text><text fill="#000000" font-family="sans-serif" font-size="13" lengthAdjust="spacing" textLength="71" x="1718" y="981.7842">getNumber()</text><polygon fill="#A80036" points="1835,1019.9922,1845,1023.9922,1835,1027.9922,1839,1023.9922" style="stroke:#A80036;stroke-width:1.0;"/><line style="stroke:#A80036;stroke-width:1.0;" x1="648" x2="1841" y1="1023.9922" y2="1023.9922"/><text fill="#000000" font-family="sans-serif" font-size="13" font-weight="bold" lengthAdjust="spacing" textLength="14" x="655" y="1019.1357">21</text><text fill="#000000" font-family="sans-serif" font-size="13" lengthAdjust="spacing" textLength="339" x="673" y="1019.1357">createEffortUpdate(spentHours, taskComment, r) : boolean</text><line style="stroke:#A80036;stroke-width:1.0;" x1="1857" x2="1899" y1="1054.3438" y2="1054.3438"/><line style="stroke:#A80036;stroke-width:1.0;" x1="1899" x2="1899" y1="1054.3438" y2="1067.3438"/><line style="stroke:#A80036;stroke-width:1.0;" x1="1858" x2="1899" y1="1067.3438" y2="1067.3438"/><polygon fill="#A80036" points="1868,1063.3438,1858,1067.3438,1868,1071.3438,1864,1067.3438" style="stroke:#A80036;stroke-width:1.0;"/><text fill="#000000" font-family="sans-serif" font-size="13" font-weight="bold" lengthAdjust="spacing" textLength="14" x="1864" y="1049.4873">22</text><text fill="#000000" font-family="sans-serif" font-size="13" lengthAdjust="spacing" textLength="163" x="1882" y="1049.4873">addHoursSpent(spentHours)</text><polygon fill="#A80036" points="2202,1093.6953,2212,1097.6953,2202,1101.6953,2206,1097.6953" style="stroke:#A80036;stroke-width:1.0;"/><line style="stroke:#A80036;stroke-width:1.0;" x1="1857" x2="2208" y1="1097.6953" y2="1097.6953"/><text fill="#000000" font-family="sans-serif" font-size="13" font-weight="bold" lengthAdjust="spacing" textLength="14" x="1864" y="1092.8389">23</text><text fill="#000000" font-family="sans-serif" font-size="13" lengthAdjust="spacing" textLength="315" x="1882" y="1092.8389">newEffort = EffortUpdate(spentHours, taskComment, r)</text><rect fill="#FEFECE" filter="url(#f60w294or3c4j)" height="31.6094" style="stroke:#A80036;stroke-width:1.5;" width="164" x="2214" y="1075.3438"/><text fill="#000000" font-family="sans-serif" font-size="14" lengthAdjust="spacing" textLength="150" x="2221" y="1096.877">newEffort : EffortUpdate</text><line style="stroke:#A80036;stroke-width:1.0;" x1="1857" x2="1899" y1="1144.3047" y2="1144.3047"/><line style="stroke:#A80036;stroke-width:1.0;" x1="1899" x2="1899" y1="1144.3047" y2="1157.3047"/><line style="stroke:#A80036;stroke-width:1.0;" x1="1858" x2="1899" y1="1157.3047" y2="1157.3047"/><polygon fill="#A80036" points="1868,1153.3047,1858,1157.3047,1868,1161.3047,1864,1157.3047" style="stroke:#A80036;stroke-width:1.0;"/><text fill="#000000" font-family="sans-serif" font-size="13" font-weight="bold" lengthAdjust="spacing" textLength="14" x="1864" y="1139.4482">24</text><text fill="#000000" font-family="sans-serif" font-size="13" lengthAdjust="spacing" textLength="82" x="1882" y="1139.4482">add(newEffort)</text><polygon fill="#A80036" points="659,1183.6563,649,1187.6563,659,1191.6563,655,1187.6563" style="stroke:#A80036;stroke-width:1.0;"/><line style="stroke:#A80036;stroke-width:1.0;stroke-dasharray:2.0,2.0;" x1="653" x2="1851" y1="1187.6563" y2="1187.6563"/><text fill="#000000" font-family="sans-serif" font-size="13" font-weight="bold" lengthAdjust="spacing" textLength="14" x="665" y="1182.7998">25</text><text fill="#000000" font-family="sans-serif" font-size="13" lengthAdjust="spacing" textLength="22" x="683" y="1182.7998">true</text><polygon fill="#A80036" points="393,1214.0078,383,1218.0078,393,1222.0078,389,1218.0078" style="stroke:#A80036;stroke-width:1.0;"/><line style="stroke:#A80036;stroke-width:1.0;stroke-dasharray:2.0,2.0;" x1="387" x2="642" y1="1218.0078" y2="1218.0078"/><text fill="#000000" font-family="sans-serif" font-size="13" font-weight="bold" lengthAdjust="spacing" textLength="14" x="399" y="1213.1514">26</text><text fill="#000000" font-family="sans-serif" font-size="13" lengthAdjust="spacing" textLength="119" x="417" y="1213.1514">operation successful</text><polygon fill="#A80036" points="165,1244.3594,155,1248.3594,165,1252.3594,161,1248.3594" style="stroke:#A80036;stroke-width:1.0;"/><line style="stroke:#A80036;stroke-width:1.0;stroke-dasharray:2.0,2.0;" x1="159" x2="376" y1="1248.3594" y2="1248.3594"/><text fill="#000000" font-family="sans-serif" font-size="13" font-weight="bold" lengthAdjust="spacing" textLength="14" x="171" y="1243.5029">27</text><text fill="#000000" font-family="sans-serif" font-size="13" lengthAdjust="spacing" textLength="119" x="189" y="1243.5029">operation successful</text><!--MD5=[f0f02bbf91f825e8b94d8d4d30bc055b]
@startuml
actor "SM / Team Member" as user
boundary "AddWorkDoneUI" as UI
control "AddWorkDoneController" as Controller
entity "ITCompany" as ITCompany
participant "ps : ProjectStore" as Pstore
participant "p : Project" as proj
participant ": Resource" as resource
participant ": Account" as account
participant "s : Sprint" as sprint
participant "t : Task" as task
participant "newEffort : EffortUpdate" as effortUpD
autonumber
[o-> user : Output from US016
user -> UI : Selects task and chooses\n add work done option
activate UI
UI - -> user : show UI
user -> UI : Input hours spent and comment
UI - -> Controller : submitWorkDone(email, projectCode,\n taskCode, spentHours, taskComment)
activate Controller
Controller -> ITCompany : ps = getProjectStore()
activate ITCompany
Controller -> Pstore : p = findProjectByCode(code)
loop
    activate Pstore
    Pstore -> proj : hasId(code : int) : boolean
    deactivate Pstore
end
Controller -> proj : r = findActiveResource(email)
loop
    activate proj
    proj -> resource : isResourceActive(email) : boolean
    activate resource

        alt EndDate==null
        resource -> account : isAccountEqualTo(email) : boolean
        activate account
        resource -> resource : isStartDateBefore() : boolean
        deactivate account

        else "else"
        resource -> account : isAccountEqualTo(email) : boolean
        activate account
        resource -> resource : isStartDateBefore() : boolean
        deactivate account
        resource -> resource : endDate.isAfter(now()) : boolean
        end

    deactivate resource
    deactivate proj
end

Controller -> proj : s = determineRunningSprint()
loop
    activate proj
    proj -> sprint : isCurrentDateContainedInSprintDuration() : boolean
    activate sprint
    sprint -> sprint : now()>=startDate &&\n now()<=endDate\n : boolean
end
deactivate sprint
deactivate proj
Controller -> sprint : t = findTaskByCode(taskCode)
activate sprint

loop
    sprint -> task : getNumber()
    activate task
end
deactivate task
deactivate sprint

Controller -> task : createEffortUpdate(spentHours, taskComment, r) : boolean
activate task
task -> task : addHoursSpent(spentHours)
create effortUpD
task -> effortUpD : newEffort = EffortUpdate(spentHours, taskComment, r)
task -> task : add(newEffort)
task - -> Controller : true
deactivate task
Controller - -> UI : operation successful

deactivate Controller
deactivate sprint
UI - -> user : operation successful
deactivate UI
deactivate ITCompany
@enduml

PlantUML version 1.2022.0(Tue Jan 11 16:16:42 GMT 2022)
(GPL source distribution)
Java Runtime: OpenJDK Runtime Environment
JVM: OpenJDK 64-Bit Server VM
Default Encoding: Cp1252
Language: en
Country: GB
--></g></svg>