<?xml version="1.0" encoding="UTF-8" standalone="no"?><svg xmlns="http://www.w3.org/2000/svg" xmlns:xlink="http://www.w3.org/1999/xlink" contentScriptType="application/ecmascript" contentStyleType="text/css" height="447px" preserveAspectRatio="none" style="width:634px;height:447px;background:#FFFFFF;" version="1.1" viewBox="0 0 634 447" width="634px" zoomAndPan="magnify"><defs><filter height="300%" id="f1f7lt28xdb03k" width="300%" x="-1" y="-1"><feGaussianBlur result="blurOut" stdDeviation="2.0"/><feColorMatrix in="blurOut" result="blurOut2" type="matrix" values="0 0 0 0 0 0 0 0 0 0 0 0 0 0 0 0 0 0 .4 0"/><feOffset dx="4.0" dy="4.0" in="blurOut2" result="blurOut3"/><feBlend in="SourceGraphic" in2="blurOut3" mode="normal"/></filter></defs><g><!--MD5=[6b13f1b330d33795af281e5c1dfe1e98]
class Resource--><rect codeLine="1" fill="#FEFECE" filter="url(#f1f7lt28xdb03k)" height="48" id="Resource" style="stroke:#A80036;stroke-width:1.5;" width="86" x="274.0168" y="133"/><ellipse cx="289.0168" cy="149" fill="#ADD1B2" rx="11" ry="11" style="stroke:#A80036;stroke-width:1.0;"/><path d="M291.0168,145.5 Q291.22,145 291.4543,144.75 Q291.6887,144.5 291.9543,144.5 Q292.4231,144.5 292.72,144.7813 Q293.0168,145.0625 293.0168,145.7188 L293.0168,147.2813 Q293.0168,147.9375 292.7356,148.2188 Q292.4543,148.5 292.0168,148.5 Q291.6262,148.5 291.3762,148.3281 Q291.1262,148.1563 291.0168,147.7031 Q290.97,147.3906 290.7981,147.2188 Q290.4856,146.8906 289.9231,146.7031 Q289.3606,146.5 288.7981,146.5 Q288.095,146.5 287.5012,146.7813 Q286.9231,147.0625 286.47,147.6875 Q286.0168,148.3125 286.0168,149.1719 L286.0168,150.0938 Q286.0168,151.125 286.8606,151.8125 Q287.7043,152.5 289.2043,152.5 Q290.095,152.5 290.72,152.2969 Q291.0793,152.1875 291.4856,151.8281 Q291.7512,151.625 291.8918,151.5625 Q292.0325,151.5 292.2043,151.5 Q292.5325,151.5 292.7668,151.7656 Q293.0168,152.0156 293.0168,152.375 Q293.0168,152.7188 292.6731,153.125 Q292.1731,153.7188 291.3762,154.0469 Q290.3293,154.5 289.0481,154.5 Q287.5481,154.5 286.345,153.9063 Q285.3762,153.4375 284.6887,152.4219 Q284.0168,151.4063 284.0168,150.2031 L284.0168,149.1094 Q284.0168,147.8594 284.6106,146.7656 Q285.22,145.6719 286.2668,145.0938 Q287.3293,144.5 288.5168,144.5 Q289.2356,144.5 289.8606,144.75 Q290.4856,145 291.0168,145.5 Z " fill="#000000"/><text fill="#000000" font-family="sans-serif" font-size="12" lengthAdjust="spacing" textLength="54" x="303.0168" y="153.9102">Resource</text><line style="stroke:#A80036;stroke-width:1.5;" x1="275.0168" x2="359.0168" y1="165" y2="165"/><line style="stroke:#A80036;stroke-width:1.5;" x1="275.0168" x2="359.0168" y1="173" y2="173"/><!--MD5=[f9a29335b499db729be669fd1bd54958]
class Account--><rect fill="#FEFECE" filter="url(#f1f7lt28xdb03k)" height="48" id="Account" style="stroke:#A80036;stroke-width:1.5;" width="75" x="279.5168" y="7"/><ellipse cx="294.5168" cy="23" fill="#ADD1B2" rx="11" ry="11" style="stroke:#A80036;stroke-width:1.0;"/><path d="M296.5168,19.5 Q296.72,19 296.9543,18.75 Q297.1887,18.5 297.4543,18.5 Q297.9231,18.5 298.22,18.7813 Q298.5168,19.0625 298.5168,19.7188 L298.5168,21.2813 Q298.5168,21.9375 298.2356,22.2188 Q297.9543,22.5 297.5168,22.5 Q297.1262,22.5 296.8762,22.3281 Q296.6262,22.1563 296.5168,21.7031 Q296.47,21.3906 296.2981,21.2188 Q295.9856,20.8906 295.4231,20.7031 Q294.8606,20.5 294.2981,20.5 Q293.595,20.5 293.0012,20.7813 Q292.4231,21.0625 291.97,21.6875 Q291.5168,22.3125 291.5168,23.1719 L291.5168,24.0938 Q291.5168,25.125 292.3606,25.8125 Q293.2043,26.5 294.7043,26.5 Q295.595,26.5 296.22,26.2969 Q296.5793,26.1875 296.9856,25.8281 Q297.2512,25.625 297.3918,25.5625 Q297.5325,25.5 297.7043,25.5 Q298.0325,25.5 298.2668,25.7656 Q298.5168,26.0156 298.5168,26.375 Q298.5168,26.7188 298.1731,27.125 Q297.6731,27.7188 296.8762,28.0469 Q295.8293,28.5 294.5481,28.5 Q293.0481,28.5 291.845,27.9063 Q290.8762,27.4375 290.1887,26.4219 Q289.5168,25.4063 289.5168,24.2031 L289.5168,23.1094 Q289.5168,21.8594 290.1106,20.7656 Q290.72,19.6719 291.7668,19.0938 Q292.8293,18.5 294.0168,18.5 Q294.7356,18.5 295.3606,18.75 Q295.9856,19 296.5168,19.5 Z " fill="#000000"/><text fill="#000000" font-family="sans-serif" font-size="12" lengthAdjust="spacing" textLength="43" x="308.5168" y="27.9102">Account</text><line style="stroke:#A80036;stroke-width:1.5;" x1="280.5168" x2="353.5168" y1="39" y2="39"/><line style="stroke:#A80036;stroke-width:1.5;" x1="280.5168" x2="353.5168" y1="47" y2="47"/><!--MD5=[79d378210367c0c6ec62ef762ddfbd1b]
class Project--><rect fill="#FEFECE" filter="url(#f1f7lt28xdb03k)" height="48" id="Project" style="stroke:#A80036;stroke-width:1.5;" width="70" x="24.0168" y="259"/><ellipse cx="39.0168" cy="275" fill="#ADD1B2" rx="11" ry="11" style="stroke:#A80036;stroke-width:1.0;"/><path d="M41.0168,271.5 Q41.22,271 41.4543,270.75 Q41.6887,270.5 41.9543,270.5 Q42.4231,270.5 42.72,270.7813 Q43.0168,271.0625 43.0168,271.7188 L43.0168,273.2813 Q43.0168,273.9375 42.7356,274.2188 Q42.4543,274.5 42.0168,274.5 Q41.6262,274.5 41.3762,274.3281 Q41.1262,274.1563 41.0168,273.7031 Q40.97,273.3906 40.7981,273.2188 Q40.4856,272.8906 39.9231,272.7031 Q39.3606,272.5 38.7981,272.5 Q38.095,272.5 37.5012,272.7813 Q36.9231,273.0625 36.47,273.6875 Q36.0168,274.3125 36.0168,275.1719 L36.0168,276.0938 Q36.0168,277.125 36.8606,277.8125 Q37.7043,278.5 39.2043,278.5 Q40.095,278.5 40.72,278.2969 Q41.0793,278.1875 41.4856,277.8281 Q41.7512,277.625 41.8918,277.5625 Q42.0325,277.5 42.2043,277.5 Q42.5325,277.5 42.7668,277.7656 Q43.0168,278.0156 43.0168,278.375 Q43.0168,278.7188 42.6731,279.125 Q42.1731,279.7188 41.3762,280.0469 Q40.3293,280.5 39.0481,280.5 Q37.5481,280.5 36.345,279.9063 Q35.3762,279.4375 34.6887,278.4219 Q34.0168,277.4063 34.0168,276.2031 L34.0168,275.1094 Q34.0168,273.8594 34.6106,272.7656 Q35.22,271.6719 36.2668,271.0938 Q37.3293,270.5 38.5168,270.5 Q39.2356,270.5 39.8606,270.75 Q40.4856,271 41.0168,271.5 Z " fill="#000000"/><text fill="#000000" font-family="sans-serif" font-size="12" lengthAdjust="spacing" textLength="38" x="53.0168" y="279.9102">Project</text><line style="stroke:#A80036;stroke-width:1.5;" x1="25.0168" x2="93.0168" y1="291" y2="291"/><line style="stroke:#A80036;stroke-width:1.5;" x1="25.0168" x2="93.0168" y1="299" y2="299"/><!--MD5=[a7bb2077efe50bdbb8873ea156534d6e]
class EffortUpdate--><rect fill="#FEFECE" filter="url(#f1f7lt28xdb03k)" height="48" id="EffortUpdate" style="stroke:#A80036;stroke-width:1.5;" width="100" x="451.0168" y="385"/><ellipse cx="466.0168" cy="401" fill="#ADD1B2" rx="11" ry="11" style="stroke:#A80036;stroke-width:1.0;"/><path d="M468.0168,397.5 Q468.22,397 468.4543,396.75 Q468.6887,396.5 468.9543,396.5 Q469.4231,396.5 469.72,396.7813 Q470.0168,397.0625 470.0168,397.7188 L470.0168,399.2813 Q470.0168,399.9375 469.7356,400.2188 Q469.4543,400.5 469.0168,400.5 Q468.6262,400.5 468.3762,400.3281 Q468.1262,400.1563 468.0168,399.7031 Q467.97,399.3906 467.7981,399.2188 Q467.4856,398.8906 466.9231,398.7031 Q466.3606,398.5 465.7981,398.5 Q465.095,398.5 464.5012,398.7813 Q463.9231,399.0625 463.47,399.6875 Q463.0168,400.3125 463.0168,401.1719 L463.0168,402.0938 Q463.0168,403.125 463.8606,403.8125 Q464.7043,404.5 466.2043,404.5 Q467.095,404.5 467.72,404.2969 Q468.0793,404.1875 468.4856,403.8281 Q468.7512,403.625 468.8918,403.5625 Q469.0325,403.5 469.2043,403.5 Q469.5325,403.5 469.7668,403.7656 Q470.0168,404.0156 470.0168,404.375 Q470.0168,404.7188 469.6731,405.125 Q469.1731,405.7188 468.3762,406.0469 Q467.3293,406.5 466.0481,406.5 Q464.5481,406.5 463.345,405.9063 Q462.3762,405.4375 461.6887,404.4219 Q461.0168,403.4063 461.0168,402.2031 L461.0168,401.1094 Q461.0168,399.8594 461.6106,398.7656 Q462.22,397.6719 463.2668,397.0938 Q464.3293,396.5 465.5168,396.5 Q466.2356,396.5 466.8606,396.75 Q467.4856,397 468.0168,397.5 Z " fill="#000000"/><text fill="#000000" font-family="sans-serif" font-size="12" lengthAdjust="spacing" textLength="68" x="480.0168" y="405.9102">EffortUpdate</text><line style="stroke:#A80036;stroke-width:1.5;" x1="452.0168" x2="550.0168" y1="417" y2="417"/><line style="stroke:#A80036;stroke-width:1.5;" x1="452.0168" x2="550.0168" y1="425" y2="425"/><!--MD5=[b34797a66dc35cbf1d65f7e3ca75530e]
class Task--><rect fill="#FEFECE" filter="url(#f1f7lt28xdb03k)" height="48" id="Task" style="stroke:#A80036;stroke-width:1.5;" width="59" x="287.5168" y="259"/><ellipse cx="302.5168" cy="275" fill="#ADD1B2" rx="11" ry="11" style="stroke:#A80036;stroke-width:1.0;"/><path d="M304.5168,271.5 Q304.72,271 304.9543,270.75 Q305.1887,270.5 305.4543,270.5 Q305.9231,270.5 306.22,270.7813 Q306.5168,271.0625 306.5168,271.7188 L306.5168,273.2813 Q306.5168,273.9375 306.2356,274.2188 Q305.9543,274.5 305.5168,274.5 Q305.1262,274.5 304.8762,274.3281 Q304.6262,274.1563 304.5168,273.7031 Q304.47,273.3906 304.2981,273.2188 Q303.9856,272.8906 303.4231,272.7031 Q302.8606,272.5 302.2981,272.5 Q301.595,272.5 301.0012,272.7813 Q300.4231,273.0625 299.97,273.6875 Q299.5168,274.3125 299.5168,275.1719 L299.5168,276.0938 Q299.5168,277.125 300.3606,277.8125 Q301.2043,278.5 302.7043,278.5 Q303.595,278.5 304.22,278.2969 Q304.5793,278.1875 304.9856,277.8281 Q305.2512,277.625 305.3918,277.5625 Q305.5325,277.5 305.7043,277.5 Q306.0325,277.5 306.2668,277.7656 Q306.5168,278.0156 306.5168,278.375 Q306.5168,278.7188 306.1731,279.125 Q305.6731,279.7188 304.8762,280.0469 Q303.8293,280.5 302.5481,280.5 Q301.0481,280.5 299.845,279.9063 Q298.8762,279.4375 298.1887,278.4219 Q297.5168,277.4063 297.5168,276.2031 L297.5168,275.1094 Q297.5168,273.8594 298.1106,272.7656 Q298.72,271.6719 299.7668,271.0938 Q300.8293,270.5 302.0168,270.5 Q302.7356,270.5 303.3606,270.75 Q303.9856,271 304.5168,271.5 Z " fill="#000000"/><text fill="#000000" font-family="sans-serif" font-size="12" lengthAdjust="spacing" textLength="27" x="316.5168" y="279.9102">Task</text><line style="stroke:#A80036;stroke-width:1.5;" x1="288.5168" x2="345.5168" y1="291" y2="291"/><line style="stroke:#A80036;stroke-width:1.5;" x1="288.5168" x2="345.5168" y1="299" y2="299"/><!--MD5=[daa6dd44d8f60c5a9cd695bb66773862]
class UserStory--><rect fill="#FEFECE" filter="url(#f1f7lt28xdb03k)" height="48" id="UserStory" style="stroke:#A80036;stroke-width:1.5;" width="86" x="274.0168" y="385"/><ellipse cx="289.0168" cy="401" fill="#ADD1B2" rx="11" ry="11" style="stroke:#A80036;stroke-width:1.0;"/><path d="M291.0168,397.5 Q291.22,397 291.4543,396.75 Q291.6887,396.5 291.9543,396.5 Q292.4231,396.5 292.72,396.7813 Q293.0168,397.0625 293.0168,397.7188 L293.0168,399.2813 Q293.0168,399.9375 292.7356,400.2188 Q292.4543,400.5 292.0168,400.5 Q291.6262,400.5 291.3762,400.3281 Q291.1262,400.1563 291.0168,399.7031 Q290.97,399.3906 290.7981,399.2188 Q290.4856,398.8906 289.9231,398.7031 Q289.3606,398.5 288.7981,398.5 Q288.095,398.5 287.5012,398.7813 Q286.9231,399.0625 286.47,399.6875 Q286.0168,400.3125 286.0168,401.1719 L286.0168,402.0938 Q286.0168,403.125 286.8606,403.8125 Q287.7043,404.5 289.2043,404.5 Q290.095,404.5 290.72,404.2969 Q291.0793,404.1875 291.4856,403.8281 Q291.7512,403.625 291.8918,403.5625 Q292.0325,403.5 292.2043,403.5 Q292.5325,403.5 292.7668,403.7656 Q293.0168,404.0156 293.0168,404.375 Q293.0168,404.7188 292.6731,405.125 Q292.1731,405.7188 291.3762,406.0469 Q290.3293,406.5 289.0481,406.5 Q287.5481,406.5 286.345,405.9063 Q285.3762,405.4375 284.6887,404.4219 Q284.0168,403.4063 284.0168,402.2031 L284.0168,401.1094 Q284.0168,399.8594 284.6106,398.7656 Q285.22,397.6719 286.2668,397.0938 Q287.3293,396.5 288.5168,396.5 Q289.2356,396.5 289.8606,396.75 Q290.4856,397 291.0168,397.5 Z " fill="#000000"/><text fill="#000000" font-family="sans-serif" font-size="12" lengthAdjust="spacing" textLength="54" x="303.0168" y="405.9102">UserStory</text><line style="stroke:#A80036;stroke-width:1.5;" x1="275.0168" x2="359.0168" y1="417" y2="417"/><line style="stroke:#A80036;stroke-width:1.5;" x1="275.0168" x2="359.0168" y1="425" y2="425"/><!--MD5=[452a66c2e8d45f5bd209be454bbcd04f]
class Sprint--><rect fill="#FEFECE" filter="url(#f1f7lt28xdb03k)" height="48" id="Sprint" style="stroke:#A80036;stroke-width:1.5;" width="64" x="58.0168" y="385"/><ellipse cx="73.0168" cy="401" fill="#ADD1B2" rx="11" ry="11" style="stroke:#A80036;stroke-width:1.0;"/><path d="M75.0168,397.5 Q75.22,397 75.4543,396.75 Q75.6887,396.5 75.9543,396.5 Q76.4231,396.5 76.72,396.7813 Q77.0168,397.0625 77.0168,397.7188 L77.0168,399.2813 Q77.0168,399.9375 76.7356,400.2188 Q76.4543,400.5 76.0168,400.5 Q75.6262,400.5 75.3762,400.3281 Q75.1262,400.1563 75.0168,399.7031 Q74.97,399.3906 74.7981,399.2188 Q74.4856,398.8906 73.9231,398.7031 Q73.3606,398.5 72.7981,398.5 Q72.095,398.5 71.5012,398.7813 Q70.9231,399.0625 70.47,399.6875 Q70.0168,400.3125 70.0168,401.1719 L70.0168,402.0938 Q70.0168,403.125 70.8606,403.8125 Q71.7043,404.5 73.2043,404.5 Q74.095,404.5 74.72,404.2969 Q75.0793,404.1875 75.4856,403.8281 Q75.7512,403.625 75.8918,403.5625 Q76.0325,403.5 76.2043,403.5 Q76.5325,403.5 76.7668,403.7656 Q77.0168,404.0156 77.0168,404.375 Q77.0168,404.7188 76.6731,405.125 Q76.1731,405.7188 75.3762,406.0469 Q74.3293,406.5 73.0481,406.5 Q71.5481,406.5 70.345,405.9063 Q69.3762,405.4375 68.6887,404.4219 Q68.0168,403.4063 68.0168,402.2031 L68.0168,401.1094 Q68.0168,399.8594 68.6106,398.7656 Q69.22,397.6719 70.2668,397.0938 Q71.3293,396.5 72.5168,396.5 Q73.2356,396.5 73.8606,396.75 Q74.4856,397 75.0168,397.5 Z " fill="#000000"/><text fill="#000000" font-family="sans-serif" font-size="12" lengthAdjust="spacing" textLength="32" x="87.0168" y="405.9102">Sprint</text><line style="stroke:#A80036;stroke-width:1.5;" x1="59.0168" x2="121.0168" y1="417" y2="417"/><line style="stroke:#A80036;stroke-width:1.5;" x1="59.0168" x2="121.0168" y1="425" y2="425"/><!--MD5=[b3a0e0eeaf2997b7ca0324f614ebc779]
link Account to Resource--><path codeLine="3" d="M317.0168,55.03 C317.0168,77.17 317.0168,110.44 317.0168,132.67 " fill="none" id="Account-Resource" style="stroke:#A80036;stroke-width:1.0;"/><polygon fill="#000000" points="322.0168,89.1758,319.0779,98.2209,324.9558,98.2209,322.0168,89.1758" style="stroke:#000000;stroke-width:1.0;"/><text fill="#000000" font-family="sans-serif" font-size="13" lengthAdjust="spacing" textLength="63" x="331.0168" y="99.4951">is linked to</text><text fill="#000000" font-family="sans-serif" font-size="13" lengthAdjust="spacing" textLength="7" x="309.1637" y="76.3753">1</text><text fill="#000000" font-family="sans-serif" font-size="13" lengthAdjust="spacing" textLength="20" x="294.5793" y="122.3275">0..*</text><!--MD5=[33139458742fb076e198bd97c7dd97f8]
link Resource to Project--><path codeLine="4" d="M273.8268,178.75 C223.3368,203.02 140.7368,242.72 94.0468,265.16 " fill="none" id="Resource-Project" style="stroke:#A80036;stroke-width:1.0;"/><polygon fill="#000000" points="204.5104,222.3418,213.9358,221.0723,211.3895,215.7746,204.5104,222.3418" style="stroke:#000000;stroke-width:1.0;"/><text fill="#000000" font-family="sans-serif" font-size="13" lengthAdjust="spacing" textLength="81" x="218.0168" y="225.4951">is allocated to</text><text fill="#000000" font-family="sans-serif" font-size="13" lengthAdjust="spacing" textLength="20" x="246.0146" y="178.2905">0..*</text><text fill="#000000" font-family="sans-serif" font-size="13" lengthAdjust="spacing" textLength="7" x="101.9936" y="257.3619">1</text><!--MD5=[0a0910d1ef175b9df9cc6585b40c1674]
link Resource to EffortUpdate--><path codeLine="5" d="M360.1468,175.97 C397.0968,193.04 449.9068,221.64 486.0168,259 C518.7568,292.88 543.0168,309.43 531.0168,355 C528.2668,365.43 522.9468,375.96 517.5368,384.86 " fill="none" id="Resource-EffortUpdate" style="stroke:#A80036;stroke-width:1.0;"/><polygon fill="#000000" points="529.008,279.1824,532.1038,288.175,536.7983,284.6379,529.008,279.1824" style="stroke:#000000;stroke-width:1.0;"/><text fill="#000000" font-family="sans-serif" font-size="13" lengthAdjust="spacing" textLength="85" x="541.0168" y="288.4951">is submited by</text><text fill="#000000" font-family="sans-serif" font-size="13" lengthAdjust="spacing" textLength="7" x="368.1614" y="175.3808">1</text><text fill="#000000" font-family="sans-serif" font-size="13" lengthAdjust="spacing" textLength="20" x="499.2076" y="374.1643">0..*</text><!--MD5=[1f8e99a89c71d6bb8982bdcae6267d7f]
link Resource to Task--><path codeLine="6" d="M317.0168,181.03 C317.0168,203.17 317.0168,236.44 317.0168,258.67 " fill="none" id="Resource-Task" style="stroke:#A80036;stroke-width:1.0;"/><polygon fill="#000000" points="322.0168,215.1758,319.0779,224.2209,324.9558,224.2209,322.0168,215.1758" style="stroke:#000000;stroke-width:1.0;"/><text fill="#000000" font-family="sans-serif" font-size="13" lengthAdjust="spacing" textLength="69" x="331.0168" y="225.4951">is owned by</text><text fill="#000000" font-family="sans-serif" font-size="13" lengthAdjust="spacing" textLength="7" x="309.1637" y="202.3753">1</text><text fill="#000000" font-family="sans-serif" font-size="13" lengthAdjust="spacing" textLength="20" x="294.5793" y="248.3275">0..*</text><!--MD5=[f50cc2b653fd6e61458233c00596fe00]
link Task to EffortUpdate--><path codeLine="7" d="M346.5768,303.92 C379.3868,326.04 432.2668,361.67 466.8268,384.96 " fill="none" id="Task-EffortUpdate" style="stroke:#A80036;stroke-width:1.0;"/><polygon fill="#000000" points="429.1631,348.9701,423.3049,341.478,420.02,346.3523,429.1631,348.9701" style="stroke:#000000;stroke-width:1.0;"/><text fill="#000000" font-family="sans-serif" font-size="13" lengthAdjust="spacing" textLength="88" x="434.0168" y="351.4951">is completed in</text><text fill="#000000" font-family="sans-serif" font-size="13" lengthAdjust="spacing" textLength="7" x="354.6352" y="304.6072">1</text><text fill="#000000" font-family="sans-serif" font-size="13" lengthAdjust="spacing" textLength="20" x="435.5031" y="374.2899">0..*</text><!--MD5=[ae4b1b71eb317da752f325fb1afab916]
link Task to Task--><path codeLine="8" d="M346.5368,272.15 C364.5068,269.63 381.5168,273.25 381.5168,283 C381.5168,292.75 364.5068,296.37 346.5368,293.85 " fill="none" id="Task-Task" style="stroke:#A80036;stroke-width:1.0;"/><text fill="#000000" font-family="sans-serif" font-size="13" lengthAdjust="spacing" textLength="92" x="387.5168" y="288.4951">is preceeded by</text><text fill="#000000" font-family="sans-serif" font-size="13" lengthAdjust="spacing" textLength="7" x="354.5855" y="265.0933">1</text><text fill="#000000" font-family="sans-serif" font-size="13" lengthAdjust="spacing" textLength="20" x="354.6878" y="291.9692">0..*</text><!--MD5=[810aacbcb787067ff1fbbe6f57746f48]
link Task to UserStory--><path codeLine="9" d="M315.4168,307.21 C314.8468,316.47 314.2868,327.23 314.0168,337 C313.5568,353.03 314.3368,371.09 315.2168,384.98 " fill="none" id="Task-UserStory" style="stroke:#A80036;stroke-width:1.0;"/><polygon fill="#000000" points="319.004,351.1758,321.9662,342.1383,316.0883,342.1232,319.004,351.1758" style="stroke:#000000;stroke-width:1.0;"/><text fill="#000000" font-family="sans-serif" font-size="13" lengthAdjust="spacing" textLength="60" x="328.0168" y="351.4951">completes</text><text fill="#000000" font-family="sans-serif" font-size="13" lengthAdjust="spacing" textLength="20" x="292.5893" y="328.5992">1..*</text><text fill="#000000" font-family="sans-serif" font-size="13" lengthAdjust="spacing" textLength="22" x="289.9368" y="374.315">0..1</text><!--MD5=[90fa0837cd9082c75cabde5f26fcd73e]
link Task to Sprint--><path codeLine="10" d="M287.4068,294.39 C261.3268,304.02 222.6768,319.48 191.0168,337 C165.6968,351.01 138.9968,369.99 119.4068,384.8 " fill="none" id="Task-Sprint" style="stroke:#A80036;stroke-width:1.0;"/><polygon fill="#000000" points="200.4198,343.8063,191.0621,345.5047,193.8475,350.6807,200.4198,343.8063" style="stroke:#000000;stroke-width:1.0;"/><text fill="#000000" font-family="sans-serif" font-size="13" lengthAdjust="spacing" textLength="100" x="205.0168" y="351.4951">makes ceremony</text><text fill="#000000" font-family="sans-serif" font-size="13" lengthAdjust="spacing" textLength="20" x="259.6086" y="292.5871">1..*</text><text fill="#000000" font-family="sans-serif" font-size="13" lengthAdjust="spacing" textLength="22" x="102.1193" y="374.0889">0..1</text><!--MD5=[d6d7f4a9855853da0e2cab67ce85ccf9]
link Project to Sprint--><path codeLine="11" d="M30.6168,307.14 C17.4768,320.77 6.4768,338.52 15.0168,355 C24.1068,372.56 41.9868,385.54 58.0068,394.26 " fill="none" id="Project-Sprint" style="stroke:#A80036;stroke-width:1.0;"/><polygon fill="#000000" points="21.5164,350.9456,21.6073,341.4355,16,343.1984,21.5164,350.9456" style="stroke:#000000;stroke-width:1.0;"/><text fill="#000000" font-family="sans-serif" font-size="13" lengthAdjust="spacing" textLength="89" x="29.0168" y="351.4951">is carried out in</text><text fill="#000000" font-family="sans-serif" font-size="13" lengthAdjust="spacing" textLength="7" x="15.8412" y="328.5121">1</text><text fill="#000000" font-family="sans-serif" font-size="13" lengthAdjust="spacing" textLength="22" x="28.0769" y="387.5948">0..1</text><!--MD5=[bc4030a51e4c9eff4df4764a0fd4714e]
@startuml
class Resource

Account "1" - - "0..*" Resource : < is linked to
Resource "0..*" - - "1" Project : is allocated to >
Resource "1" - - "0..*" EffortUpdate : < is submited by
Resource "1" - - "0..*" Task : < is owned by
Task "1" - - "0..*" EffortUpdate : is completed in >
Task "1" - - "0..*" Task : is preceeded by
Task "1..*" - - "0..1" UserStory : completes >
Task "1..*" - - "0..1" Sprint : < makes ceremony
Project "1" - - "0..1" Sprint : is carried out in >
@enduml

PlantUML version 1.2022.0(Tue Jan 11 16:16:42 GMT 2022)
(GPL source distribution)
Java Runtime: OpenJDK Runtime Environment
JVM: OpenJDK 64-Bit Server VM
Default Encoding: Cp1252
Language: en
Country: GB
--></g></svg>