<?xml version="1.0" encoding="UTF-8" standalone="no"?><svg xmlns="http://www.w3.org/2000/svg" xmlns:xlink="http://www.w3.org/1999/xlink" contentScriptType="application/ecmascript" contentStyleType="text/css" height="363px" preserveAspectRatio="none" style="width:419px;height:363px;background:#FFFFFF;" version="1.1" viewBox="0 0 419 363" width="419px" zoomAndPan="magnify"><defs><filter height="300%" id="f6wml9nqppzk0" width="300%" x="-1" y="-1"><feGaussianBlur result="blurOut" stdDeviation="2.0"/><feColorMatrix in="blurOut" result="blurOut2" type="matrix" values="0 0 0 0 0 0 0 0 0 0 0 0 0 0 0 0 0 0 .4 0"/><feOffset dx="4.0" dy="4.0" in="blurOut2" result="blurOut3"/><feBlend in="SourceGraphic" in2="blurOut3" mode="normal"/></filter></defs><g><rect fill="#FFFFFF" filter="url(#f6wml9nqppzk0)" height="91.0547" style="stroke:#A80036;stroke-width:1.0;" width="10" x="372" y="168.6641"/><line style="stroke:#A80036;stroke-width:1.0;stroke-dasharray:5.0,5.0;" x1="153.5" x2="153.5" y1="89.6094" y2="277.7188"/><line style="stroke:#A80036;stroke-width:1.0;stroke-dasharray:5.0,5.0;" x1="377" x2="377" y1="89.6094" y2="277.7188"/><text fill="#000000" font-family="sans-serif" font-size="14" lengthAdjust="spacing" textLength="123" x="89.5" y="86.5332">SM / Team Member</text><ellipse cx="154" cy="15" fill="#FEFECE" filter="url(#f6wml9nqppzk0)" rx="8" ry="8" style="stroke:#A80036;stroke-width:2.0;"/><path d="M154,23 L154,50 M141,31 L167,31 M154,50 L141,65 M154,50 L167,65 " fill="none" filter="url(#f6wml9nqppzk0)" style="stroke:#A80036;stroke-width:2.0;"/><text fill="#000000" font-family="sans-serif" font-size="14" lengthAdjust="spacing" textLength="123" x="89.5" y="291.252">SM / Team Member</text><ellipse cx="154" cy="304.3281" fill="#FEFECE" filter="url(#f6wml9nqppzk0)" rx="8" ry="8" style="stroke:#A80036;stroke-width:2.0;"/><path d="M154,312.3281 L154,339.3281 M141,320.3281 L167,320.3281 M154,339.3281 L141,354.3281 M154,339.3281 L167,354.3281 " fill="none" filter="url(#f6wml9nqppzk0)" style="stroke:#A80036;stroke-width:2.0;"/><rect fill="#FEFECE" filter="url(#f6wml9nqppzk0)" height="31.6094" style="stroke:#A80036;stroke-width:1.5;" width="60" x="345" y="53"/><text fill="#000000" font-family="sans-serif" font-size="14" lengthAdjust="spacing" textLength="46" x="352" y="74.5332">System</text><rect fill="#FEFECE" filter="url(#f6wml9nqppzk0)" height="31.6094" style="stroke:#A80036;stroke-width:1.5;" width="60" x="345" y="276.7188"/><text fill="#000000" font-family="sans-serif" font-size="14" lengthAdjust="spacing" textLength="46" x="352" y="298.252">System</text><rect fill="#FFFFFF" filter="url(#f6wml9nqppzk0)" height="91.0547" style="stroke:#A80036;stroke-width:1.0;" width="10" x="372" y="168.6641"/><ellipse cx="7.5" cy="121.2109" rx="4" ry="4" style="stroke:#A80036;stroke-width:1.5;fill:none;"/><polygon fill="#A80036" points="142,117.9609,152,121.9609,142,125.9609,146,121.9609" style="stroke:#A80036;stroke-width:1.0;"/><line style="stroke:#A80036;stroke-width:1.0;" x1="12" x2="148" y1="121.9609" y2="121.9609"/><text fill="#000000" font-family="sans-serif" font-size="13" font-weight="bold" lengthAdjust="spacing" textLength="7" x="15" y="117.1045">1</text><text fill="#000000" font-family="sans-serif" font-size="13" lengthAdjust="spacing" textLength="111" x="26" y="117.1045">Output from US016</text><polygon fill="#A80036" points="360,164.6641,370,168.6641,360,172.6641,364,168.6641" style="stroke:#A80036;stroke-width:1.0;"/><line style="stroke:#A80036;stroke-width:1.0;" x1="154" x2="366" y1="168.6641" y2="168.6641"/><text fill="#000000" font-family="sans-serif" font-size="13" font-weight="bold" lengthAdjust="spacing" textLength="7" x="161" y="155.6318">2</text><text fill="#000000" font-family="sans-serif" font-size="13" lengthAdjust="spacing" textLength="151" x="172" y="147.4561">Selects task and chooses</text><text fill="#000000" font-family="sans-serif" font-size="13" lengthAdjust="spacing" textLength="123" x="176" y="163.8076">add work done option</text><polygon fill="#A80036" points="165,195.0156,155,199.0156,165,203.0156,161,199.0156" style="stroke:#A80036;stroke-width:1.0;"/><line style="stroke:#A80036;stroke-width:1.0;stroke-dasharray:2.0,2.0;" x1="159" x2="371" y1="199.0156" y2="199.0156"/><text fill="#000000" font-family="sans-serif" font-size="13" font-weight="bold" lengthAdjust="spacing" textLength="7" x="171" y="194.1592">3</text><text fill="#000000" font-family="sans-serif" font-size="13" lengthAdjust="spacing" textLength="130" x="182" y="194.1592">show AddWorkDoneUI</text><polygon fill="#A80036" points="360,225.3672,370,229.3672,360,233.3672,364,229.3672" style="stroke:#A80036;stroke-width:1.0;"/><line style="stroke:#A80036;stroke-width:1.0;" x1="154" x2="366" y1="229.3672" y2="229.3672"/><text fill="#000000" font-family="sans-serif" font-size="13" font-weight="bold" lengthAdjust="spacing" textLength="7" x="161" y="224.5107">4</text><text fill="#000000" font-family="sans-serif" font-size="13" lengthAdjust="spacing" textLength="183" x="172" y="224.5107">input hours spent and comment</text><polygon fill="#A80036" points="165,255.7188,155,259.7188,165,263.7188,161,259.7188" style="stroke:#A80036;stroke-width:1.0;"/><line style="stroke:#A80036;stroke-width:1.0;stroke-dasharray:2.0,2.0;" x1="159" x2="376" y1="259.7188" y2="259.7188"/><text fill="#000000" font-family="sans-serif" font-size="13" font-weight="bold" lengthAdjust="spacing" textLength="7" x="171" y="254.8623">5</text><text fill="#000000" font-family="sans-serif" font-size="13" lengthAdjust="spacing" textLength="141" x="182" y="254.8623">operation (un)successful</text><!--MD5=[3ffc9522ae22e9dff6b7a04e5ea4e74c]
@startuml
actor "SM / Team Member" as user
participant "System" as system
autonumber
[o-> user : Output from US016
user -> system : Selects task and chooses\n add work done option
activate system
system - -> user : show AddWorkDoneUI
user -> system : input hours spent and comment

system - -> user : operation (un)successful
deactivate system
@enduml

PlantUML version 1.2022.0(Tue Jan 11 16:16:42 GMT 2022)
(GPL source distribution)
Java Runtime: OpenJDK Runtime Environment
JVM: OpenJDK 64-Bit Server VM
Default Encoding: Cp1252
Language: en
Country: GB
--></g></svg>