<?xml version="1.0" encoding="UTF-8" standalone="no"?><svg xmlns="http://www.w3.org/2000/svg" xmlns:xlink="http://www.w3.org/1999/xlink" contentScriptType="application/ecmascript" contentStyleType="text/css" height="124px" preserveAspectRatio="none" style="width:551px;height:124px;background:#FFFFFF;" version="1.1" viewBox="0 0 551 124" width="551px" zoomAndPan="magnify"><defs><filter height="300%" id="f1fg03dmp7anv8" width="300%" x="-1" y="-1"><feGaussianBlur result="blurOut" stdDeviation="2.0"/><feColorMatrix in="blurOut" result="blurOut2" type="matrix" values="0 0 0 0 0 0 0 0 0 0 0 0 0 0 0 0 0 0 .4 0"/><feOffset dx="4.0" dy="4.0" in="blurOut2" result="blurOut3"/><feBlend in="SourceGraphic" in2="blurOut3" mode="normal"/></filter></defs><g><!--MD5=[79d378210367c0c6ec62ef762ddfbd1b]
class Project--><rect codeLine="20" fill="#FFFFFF" filter="url(#f1fg03dmp7anv8)" height="103.3438" id="Project" style="stroke:#000000;stroke-width:1.0;stroke-dasharray:1.0,3.0;" width="113" x="185" y="7"/><ellipse cx="219.35" cy="23" fill="#ADD1B2" rx="11" ry="11" style="stroke:#000000;stroke-width:1.0;"/><path d="M221.35,19.5 Q221.5531,19 221.7875,18.75 Q222.0219,18.5 222.2875,18.5 Q222.7563,18.5 223.0531,18.7813 Q223.35,19.0625 223.35,19.7188 L223.35,21.2813 Q223.35,21.9375 223.0688,22.2188 Q222.7875,22.5 222.35,22.5 Q221.9594,22.5 221.7094,22.3281 Q221.4594,22.1563 221.35,21.7031 Q221.3031,21.3906 221.1313,21.2188 Q220.8188,20.8906 220.2563,20.7031 Q219.6938,20.5 219.1313,20.5 Q218.4281,20.5 217.8344,20.7813 Q217.2563,21.0625 216.8031,21.6875 Q216.35,22.3125 216.35,23.1719 L216.35,24.0938 Q216.35,25.125 217.1938,25.8125 Q218.0375,26.5 219.5375,26.5 Q220.4281,26.5 221.0531,26.2969 Q221.4125,26.1875 221.8188,25.8281 Q222.0844,25.625 222.225,25.5625 Q222.3656,25.5 222.5375,25.5 Q222.8656,25.5 223.1,25.7656 Q223.35,26.0156 223.35,26.375 Q223.35,26.7188 223.0063,27.125 Q222.5063,27.7188 221.7094,28.0469 Q220.6625,28.5 219.3813,28.5 Q217.8813,28.5 216.6781,27.9063 Q215.7094,27.4375 215.0219,26.4219 Q214.35,25.4063 214.35,24.2031 L214.35,23.1094 Q214.35,21.8594 214.9438,20.7656 Q215.5531,19.6719 216.6,19.0938 Q217.6625,18.5 218.85,18.5 Q219.5688,18.5 220.1938,18.75 Q220.8188,19 221.35,19.5 Z " fill="#000000"/><text fill="#000000" font-family="sans-serif" font-size="12" lengthAdjust="spacing" textLength="38" x="237.65" y="27.9102">Project</text><line style="stroke:#000000;stroke-width:1.0;stroke-dasharray:1.0,3.0;" x1="186" x2="297" y1="39" y2="39"/><text fill="#000000" font-family="sans-serif" font-size="11" lengthAdjust="spacing" textLength="101" x="191" y="54.4189">startDate : LocalDate</text><text fill="#000000" font-family="sans-serif" font-size="11" lengthAdjust="spacing" textLength="97" x="191" y="68.2549">endDate : LocalDate</text><text fill="#000000" font-family="sans-serif" font-size="11" lengthAdjust="spacing" textLength="44" x="191" y="82.0908">code : int</text><text fill="#000000" font-family="sans-serif" font-size="11" lengthAdjust="spacing" textLength="84" x="191" y="95.9268">sprintDuration :int</text><line style="stroke:#000000;stroke-width:1.0;stroke-dasharray:1.0,3.0;" x1="186" x2="297" y1="102.3438" y2="102.3438"/><!--MD5=[452a66c2e8d45f5bd209be454bbcd04f]
class Sprint--><rect codeLine="27" fill="#FFFFFF" filter="url(#f1fg03dmp7anv8)" height="89.5078" id="Sprint" style="stroke:#000000;stroke-width:1.0;stroke-dasharray:1.0,3.0;" width="113" x="424" y="13.5"/><ellipse cx="461.05" cy="29.5" fill="#ADD1B2" rx="11" ry="11" style="stroke:#000000;stroke-width:1.0;"/><path d="M463.05,26 Q463.2531,25.5 463.4875,25.25 Q463.7219,25 463.9875,25 Q464.4563,25 464.7531,25.2813 Q465.05,25.5625 465.05,26.2188 L465.05,27.7813 Q465.05,28.4375 464.7688,28.7188 Q464.4875,29 464.05,29 Q463.6594,29 463.4094,28.8281 Q463.1594,28.6563 463.05,28.2031 Q463.0031,27.8906 462.8313,27.7188 Q462.5188,27.3906 461.9563,27.2031 Q461.3938,27 460.8313,27 Q460.1281,27 459.5344,27.2813 Q458.9563,27.5625 458.5031,28.1875 Q458.05,28.8125 458.05,29.6719 L458.05,30.5938 Q458.05,31.625 458.8938,32.3125 Q459.7375,33 461.2375,33 Q462.1281,33 462.7531,32.7969 Q463.1125,32.6875 463.5188,32.3281 Q463.7844,32.125 463.925,32.0625 Q464.0656,32 464.2375,32 Q464.5656,32 464.8,32.2656 Q465.05,32.5156 465.05,32.875 Q465.05,33.2188 464.7063,33.625 Q464.2063,34.2188 463.4094,34.5469 Q462.3625,35 461.0813,35 Q459.5813,35 458.3781,34.4063 Q457.4094,33.9375 456.7219,32.9219 Q456.05,31.9063 456.05,30.7031 L456.05,29.6094 Q456.05,28.3594 456.6438,27.2656 Q457.2531,26.1719 458.3,25.5938 Q459.3625,25 460.55,25 Q461.2688,25 461.8938,25.25 Q462.5188,25.5 463.05,26 Z " fill="#000000"/><text fill="#000000" font-family="sans-serif" font-size="12" lengthAdjust="spacing" textLength="32" x="479.95" y="34.4102">Sprint</text><line style="stroke:#000000;stroke-width:1.0;stroke-dasharray:1.0,3.0;" x1="425" x2="536" y1="45.5" y2="45.5"/><text fill="#000000" font-family="sans-serif" font-size="11" lengthAdjust="spacing" textLength="56" x="430" y="60.9189">number : int</text><text fill="#000000" font-family="sans-serif" font-size="11" lengthAdjust="spacing" textLength="101" x="430" y="74.7549">startDate : LocalDate</text><text fill="#000000" font-family="sans-serif" font-size="11" lengthAdjust="spacing" textLength="97" x="430" y="88.5908">endDate : LocalDate</text><line style="stroke:#000000;stroke-width:1.0;stroke-dasharray:1.0,3.0;" x1="425" x2="536" y1="95.0078" y2="95.0078"/><!--MD5=[0cf43f64de24b70e8ffe65ff9ee7abee]
class ProjectStore--><rect codeLine="18" fill="#FFFFFF" filter="url(#f1fg03dmp7anv8)" height="48" id="ProjectStore" style="stroke:#000000;stroke-width:1.0;stroke-dasharray:1.0,3.0;" width="99" x="7" y="34.5"/><ellipse cx="22" cy="50.5" fill="#ADD1B2" rx="11" ry="11" style="stroke:#000000;stroke-width:1.0;"/><path d="M24,47 Q24.2031,46.5 24.4375,46.25 Q24.6719,46 24.9375,46 Q25.4063,46 25.7031,46.2813 Q26,46.5625 26,47.2188 L26,48.7813 Q26,49.4375 25.7188,49.7188 Q25.4375,50 25,50 Q24.6094,50 24.3594,49.8281 Q24.1094,49.6563 24,49.2031 Q23.9531,48.8906 23.7813,48.7188 Q23.4688,48.3906 22.9063,48.2031 Q22.3438,48 21.7813,48 Q21.0781,48 20.4844,48.2813 Q19.9063,48.5625 19.4531,49.1875 Q19,49.8125 19,50.6719 L19,51.5938 Q19,52.625 19.8438,53.3125 Q20.6875,54 22.1875,54 Q23.0781,54 23.7031,53.7969 Q24.0625,53.6875 24.4688,53.3281 Q24.7344,53.125 24.875,53.0625 Q25.0156,53 25.1875,53 Q25.5156,53 25.75,53.2656 Q26,53.5156 26,53.875 Q26,54.2188 25.6563,54.625 Q25.1563,55.2188 24.3594,55.5469 Q23.3125,56 22.0313,56 Q20.5313,56 19.3281,55.4063 Q18.3594,54.9375 17.6719,53.9219 Q17,52.9063 17,51.7031 L17,50.6094 Q17,49.3594 17.5938,48.2656 Q18.2031,47.1719 19.25,46.5938 Q20.3125,46 21.5,46 Q22.2188,46 22.8438,46.25 Q23.4688,46.5 24,47 Z " fill="#000000"/><text fill="#000000" font-family="sans-serif" font-size="12" lengthAdjust="spacing" textLength="67" x="36" y="55.4102">ProjectStore</text><line style="stroke:#000000;stroke-width:1.0;stroke-dasharray:1.0,3.0;" x1="8" x2="105" y1="66.5" y2="66.5"/><line style="stroke:#000000;stroke-width:1.0;stroke-dasharray:1.0,3.0;" x1="8" x2="105" y1="74.5" y2="74.5"/><!--MD5=[c2999c5e21c0a7115ef87c36c02875b6]
reverse link ProjectStore to Project--><path codeLine="15" d="M119.31,58.5 C140.57,58.5 164.17,58.5 184.92,58.5 " fill="none" id="ProjectStore-backto-Project" style="stroke:#000000;stroke-width:1.0;"/><polygon fill="#FFFFFF" points="106.08,58.5,112.08,62.5,118.08,58.5,112.08,54.5,106.08,58.5" style="stroke:#000000;stroke-width:1.0;"/><text fill="#000000" font-family="sans-serif" font-size="13" lengthAdjust="spacing" textLength="42" x="124.5" y="51.9951">a list of</text><text fill="#000000" font-family="sans-serif" font-size="13" lengthAdjust="spacing" textLength="5" x="171.9811" y="54.9206">*</text><!--MD5=[d6d7f4a9855853da0e2cab67ce85ccf9]
link Project to Sprint--><path codeLine="16" d="M298.14,58.5 C334.32,58.5 381.25,58.5 418.44,58.5 " fill="none" id="Project-to-Sprint" style="stroke:#000000;stroke-width:1.0;"/><polygon fill="#000000" points="423.85,58.5,414.85,54.5,418.85,58.5,414.85,62.5,423.85,58.5" style="stroke:#000000;stroke-width:1.0;"/><text fill="#000000" font-family="sans-serif" font-size="13" lengthAdjust="spacing" textLength="89" x="316.5" y="51.9951">is carried out in</text><text fill="#000000" font-family="sans-serif" font-size="13" lengthAdjust="spacing" textLength="7" x="305.8454" y="54.9706">1</text><text fill="#000000" font-family="sans-serif" font-size="13" lengthAdjust="spacing" textLength="20" x="391.9123" y="72.9689">0..*</text><!--MD5=[20ea223525ececa49883c3affb20eee7]
@startuml
'https://plantuml.com/class-diagram



Class Project #aliceblue;line:blue;line.dotted;text:blue
Class Sprint #aliceblue;line:blue;line.dotted;text:blue
Class ProjectStore #aliceblue;line:blue;line.dotted;text:blue

skinparam class {
BackgroundColor #white
ArrowColor #black
BorderColor #black
}

ProjectStore o-right-"*" Project :  a list of
Project "1" -right-> "0..* " Sprint :  is carried out in

Class  ProjectStore #white;line:black;line.dotted;text:black

Class  Project #white;line:black;line.dotted;text:black {
startDate : LocalDate
endDate : LocalDate
code : int
sprintDuration :int
}

Class Sprint #white;line:black;line.dotted;text:black {
number : int
startDate : LocalDate
endDate : LocalDate
}

@enduml

@startuml



Class Project #aliceblue;line:blue;line.dotted;text:blue
Class Sprint #aliceblue;line:blue;line.dotted;text:blue
Class ProjectStore #aliceblue;line:blue;line.dotted;text:blue

skinparam class {
BackgroundColor #white
ArrowColor #black
BorderColor #black
}

ProjectStore o-right-"*" Project :  a list of
Project "1" -right-> "0..* " Sprint :  is carried out in

Class  ProjectStore #white;line:black;line.dotted;text:black

Class  Project #white;line:black;line.dotted;text:black {
startDate : LocalDate
endDate : LocalDate
code : int
sprintDuration :int
}

Class Sprint #white;line:black;line.dotted;text:black {
number : int
startDate : LocalDate
endDate : LocalDate
}

@enduml

PlantUML version 1.2022.0(Tue Jan 11 16:16:42 GMT 2022)
(GPL source distribution)
Java Runtime: OpenJDK Runtime Environment
JVM: OpenJDK 64-Bit Server VM
Default Encoding: Cp1252
Language: pt
Country: PT
--></g></svg>