<?xml version="1.0" encoding="UTF-8" standalone="no"?><svg xmlns="http://www.w3.org/2000/svg" xmlns:xlink="http://www.w3.org/1999/xlink" contentStyleType="text/css" height="617px" preserveAspectRatio="none" style="width:1108px;height:617px;background:#FFFFFF;" version="1.1" viewBox="0 0 1108 617" width="1108.5px" zoomAndPan="magnify"><defs/><g><rect fill="#FFFFFF" height="326.8203" style="stroke:#181818;stroke-width:0.5;" width="5" x="282.5" y="210.1563"/><rect fill="#FFFFFF" height="346.4961" style="stroke:#181818;stroke-width:0.5;" width="5" x="455.5" y="225.332"/><rect height="100.2305" style="stroke:#000000;stroke-width:0.75;fill:none;" width="614" x="395.25" y="293.5352"/><rect height="39.5273" style="stroke:#000000;stroke-width:0.75;fill:none;" width="710.5" x="395.25" y="467.5977"/><line style="stroke:#181818;stroke-width:0.25;fill:none;stroke-dasharray:5.0,5.0;" x1="27.5" x2="27.5" y1="41.3047" y2="576.3281"/><line style="stroke:#181818;stroke-width:0.25;fill:none;stroke-dasharray:5.0,5.0;" x1="114.5" x2="114.5" y1="41.3047" y2="576.3281"/><line style="stroke:#181818;stroke-width:0.25;fill:none;stroke-dasharray:5.0,5.0;" x1="285" x2="285" y1="41.3047" y2="576.3281"/><line style="stroke:#181818;stroke-width:0.25;fill:none;stroke-dasharray:5.0,5.0;" x1="457.75" x2="457.75" y1="41.3047" y2="576.3281"/><line style="stroke:#181818;stroke-width:0.25;fill:none;stroke-dasharray:5.0,5.0;" x1="554.25" x2="554.25" y1="41.3047" y2="576.3281"/><line style="stroke:#181818;stroke-width:0.25;fill:none;stroke-dasharray:5.0,5.0;" x1="630.75" x2="630.75" y1="41.3047" y2="576.3281"/><line style="stroke:#181818;stroke-width:0.25;fill:none;stroke-dasharray:5.0,5.0;" x1="704.75" x2="704.75" y1="41.3047" y2="576.3281"/><line style="stroke:#181818;stroke-width:0.25;fill:none;stroke-dasharray:5.0,5.0;" x1="774.25" x2="774.25" y1="41.3047" y2="576.3281"/><line style="stroke:#181818;stroke-width:0.25;fill:none;stroke-dasharray:5.0,5.0;" x1="845.75" x2="845.75" y1="41.3047" y2="576.3281"/><line style="stroke:#181818;stroke-width:0.25;fill:none;stroke-dasharray:5.0,5.0;" x1="912.25" x2="912.25" y1="41.3047" y2="576.3281"/><line style="stroke:#181818;stroke-width:0.25;fill:none;stroke-dasharray:5.0,5.0;" x1="974.75" x2="974.75" y1="41.3047" y2="576.3281"/><line style="stroke:#181818;stroke-width:0.25;fill:none;stroke-dasharray:5.0,5.0;" x1="1036.75" x2="1036.75" y1="458.4453" y2="576.3281"/><line style="stroke:#181818;stroke-width:0.25;fill:none;stroke-dasharray:5.0,5.0;" x1="1085.25" x2="1085.25" y1="41.3047" y2="576.3281"/><text fill="#000000" font-family="sans-serif" font-size="7" lengthAdjust="spacing" textLength="47" x="2.5" y="39.7666">Product Owner</text><ellipse cx="27.5" cy="6.75" fill="#E2E2F0" rx="4" ry="4" style="stroke:#181818;stroke-width:0.25;"/><path d="M27.5,10.75 L27.5,24.25 M21,14.75 L34,14.75 M27.5,24.25 L21,31.75 M27.5,24.25 L34,31.75 " fill="none" style="stroke:#181818;stroke-width:0.25;"/><text fill="#000000" font-family="sans-serif" font-size="7" lengthAdjust="spacing" textLength="47" x="2.5" y="583.0947">Product Owner</text><ellipse cx="27.5" cy="588.8828" fill="#E2E2F0" rx="4" ry="4" style="stroke:#181818;stroke-width:0.25;"/><path d="M27.5,592.8828 L27.5,606.3828 M21,596.8828 L34,596.8828 M27.5,606.3828 L21,613.8828 M27.5,606.3828 L34,613.8828 " fill="none" style="stroke:#181818;stroke-width:0.25;"/><rect fill="#E2E2F0" height="15.8047" rx="1.25" ry="1.25" style="stroke:#181818;stroke-width:0.25;" width="13" x="108" y="25"/><text fill="#000000" font-family="sans-serif" font-size="7" lengthAdjust="spacing" textLength="6" x="111.5" y="35.7666">UI</text><rect fill="#E2E2F0" height="15.8047" rx="1.25" ry="1.25" style="stroke:#181818;stroke-width:0.25;" width="13" x="108" y="575.8281"/><text fill="#000000" font-family="sans-serif" font-size="7" lengthAdjust="spacing" textLength="6" x="111.5" y="586.5947">UI</text><rect fill="#E2E2F0" height="15.8047" rx="1.25" ry="1.25" style="stroke:#181818;stroke-width:0.25;" width="42" x="264" y="25"/><text fill="#000000" font-family="sans-serif" font-size="7" lengthAdjust="spacing" textLength="35" x="267.5" y="35.7666">: Controller</text><rect fill="#E2E2F0" height="15.8047" rx="1.25" ry="1.25" style="stroke:#181818;stroke-width:0.25;" width="42" x="264" y="575.8281"/><text fill="#000000" font-family="sans-serif" font-size="7" lengthAdjust="spacing" textLength="35" x="267.5" y="586.5947">: Controller</text><rect fill="#E2E2F0" height="15.8047" rx="1.25" ry="1.25" style="stroke:#181818;stroke-width:0.25;" width="115.5" x="400.25" y="25"/><text fill="#000000" font-family="sans-serif" font-size="7" lengthAdjust="spacing" textLength="108.5" x="403.75" y="35.7666">: AppServiceDecomposeUserStory</text><rect fill="#E2E2F0" height="15.8047" rx="1.25" ry="1.25" style="stroke:#181818;stroke-width:0.25;" width="115.5" x="400.25" y="575.8281"/><text fill="#000000" font-family="sans-serif" font-size="7" lengthAdjust="spacing" textLength="108.5" x="403.75" y="586.5947">: AppServiceDecomposeUserStory</text><rect fill="#E2E2F0" height="15.8047" rx="1.25" ry="1.25" style="stroke:#181818;stroke-width:0.25;" width="67" x="520.75" y="25"/><text fill="#000000" font-family="sans-serif" font-size="7" lengthAdjust="spacing" textLength="60" x="524.25" y="35.7666">: ProjectRepository</text><rect fill="#E2E2F0" height="15.8047" rx="1.25" ry="1.25" style="stroke:#181818;stroke-width:0.25;" width="67" x="520.75" y="575.8281"/><text fill="#000000" font-family="sans-serif" font-size="7" lengthAdjust="spacing" textLength="60" x="524.25" y="586.5947">: ProjectRepository</text><rect fill="#E2E2F0" height="15.8047" rx="1.25" ry="1.25" style="stroke:#181818;stroke-width:0.25;" width="76" x="592.75" y="25"/><text fill="#000000" font-family="sans-serif" font-size="7" lengthAdjust="spacing" textLength="69" x="596.25" y="35.7666">: UserStoryRepository</text><rect fill="#E2E2F0" height="15.8047" rx="1.25" ry="1.25" style="stroke:#181818;stroke-width:0.25;" width="76" x="592.75" y="575.8281"/><text fill="#000000" font-family="sans-serif" font-size="7" lengthAdjust="spacing" textLength="69" x="596.25" y="586.5947">: UserStoryRepository</text><rect fill="#E2E2F0" height="15.8047" rx="1.25" ry="1.25" style="stroke:#181818;stroke-width:0.25;" width="62.5" x="673.75" y="25"/><text fill="#000000" font-family="sans-serif" font-size="7" lengthAdjust="spacing" textLength="55.5" x="677.25" y="35.7666">parent :UserStory</text><rect fill="#E2E2F0" height="15.8047" rx="1.25" ry="1.25" style="stroke:#181818;stroke-width:0.25;" width="62.5" x="673.75" y="575.8281"/><text fill="#000000" font-family="sans-serif" font-size="7" lengthAdjust="spacing" textLength="55.5" x="677.25" y="586.5947">parent :UserStory</text><rect fill="#E2E2F0" height="15.8047" rx="1.25" ry="1.25" style="stroke:#181818;stroke-width:0.25;" width="66" x="741.25" y="25"/><text fill="#000000" font-family="sans-serif" font-size="7" lengthAdjust="spacing" textLength="59" x="744.75" y="35.7666">: UserStoryFactory</text><rect fill="#E2E2F0" height="15.8047" rx="1.25" ry="1.25" style="stroke:#181818;stroke-width:0.25;" width="66" x="741.25" y="575.8281"/><text fill="#000000" font-family="sans-serif" font-size="7" lengthAdjust="spacing" textLength="59" x="744.75" y="586.5947">: UserStoryFactory</text><rect fill="#E2E2F0" height="15.8047" rx="1.25" ry="1.25" style="stroke:#181818;stroke-width:0.25;" width="67" x="812.25" y="25"/><text fill="#000000" font-family="sans-serif" font-size="7" lengthAdjust="spacing" textLength="58" x="817.75" y="35.7666">: CreateUSService</text><rect fill="#E2E2F0" height="15.8047" rx="1.25" ry="1.25" style="stroke:#181818;stroke-width:0.25;" width="67" x="812.25" y="575.8281"/><text fill="#000000" font-family="sans-serif" font-size="7" lengthAdjust="spacing" textLength="58" x="817.75" y="586.5947">: CreateUSService</text><rect fill="#E2E2F0" height="15.8047" rx="1.25" ry="1.25" style="stroke:#181818;stroke-width:0.25;" width="56.5" x="884.25" y="25"/><text fill="#000000" font-family="sans-serif" font-size="7" lengthAdjust="spacing" textLength="49.5" x="887.75" y="35.7666">project : Project</text><rect fill="#E2E2F0" height="15.8047" rx="1.25" ry="1.25" style="stroke:#181818;stroke-width:0.25;" width="56.5" x="884.25" y="575.8281"/><text fill="#000000" font-family="sans-serif" font-size="7" lengthAdjust="spacing" textLength="49.5" x="887.75" y="586.5947">project : Project</text><rect fill="#E2E2F0" height="15.8047" rx="1.25" ry="1.25" style="stroke:#181818;stroke-width:0.25;" width="58.5" x="945.75" y="25"/><text fill="#000000" font-family="sans-serif" font-size="7" lengthAdjust="spacing" textLength="51.5" x="949.25" y="35.7666">child : UserStory</text><rect fill="#E2E2F0" height="15.8047" rx="1.25" ry="1.25" style="stroke:#181818;stroke-width:0.25;" width="58.5" x="945.75" y="575.8281"/><text fill="#000000" font-family="sans-serif" font-size="7" lengthAdjust="spacing" textLength="51.5" x="949.25" y="586.5947">child : UserStory</text><rect fill="#E2E2F0" height="15.8047" rx="1.25" ry="1.25" style="stroke:#181818;stroke-width:0.25;" width="55.5" x="1009.25" y="575.8281"/><text fill="#000000" font-family="sans-serif" font-size="7" lengthAdjust="spacing" textLength="48.5" x="1012.75" y="586.5947">listBacklogDTO</text><rect fill="#E2E2F0" height="15.8047" rx="1.25" ry="1.25" style="stroke:#181818;stroke-width:0.25;" width="31" x="1069.75" y="25"/><text fill="#000000" font-family="sans-serif" font-size="7" lengthAdjust="spacing" textLength="24" x="1073.25" y="35.7666">Mapper</text><rect fill="#E2E2F0" height="15.8047" rx="1.25" ry="1.25" style="stroke:#181818;stroke-width:0.25;" width="31" x="1069.75" y="575.8281"/><text fill="#000000" font-family="sans-serif" font-size="7" lengthAdjust="spacing" textLength="24" x="1073.25" y="586.5947">Mapper</text><rect fill="#FFFFFF" height="326.8203" style="stroke:#181818;stroke-width:0.5;" width="5" x="282.5" y="210.1563"/><rect fill="#FFFFFF" height="346.4961" style="stroke:#181818;stroke-width:0.5;" width="5" x="455.5" y="225.332"/><polygon fill="#181818" points="108.5,55.4805,113.5,57.4805,108.5,59.4805,110.5,57.4805" style="stroke:#181818;stroke-width:0.5;"/><line style="stroke:#181818;stroke-width:0.5;" x1="27.5" x2="111.5" y1="57.4805" y2="57.4805"/><text fill="#000000" font-family="sans-serif" font-size="6.5" font-weight="bold" lengthAdjust="spacing" textLength="3.5" x="31" y="55.0522">1</text><text fill="#000000" font-family="sans-serif" font-size="6.5" lengthAdjust="spacing" textLength="44" x="36.5" y="55.0522">Initiate process</text><rect height="20.7227" style="stroke:#000000;stroke-width:0.75;fill:none;" width="201" x="106.5" y="61.4805"/><path d="M106.5,61.4805 L137.5,61.4805 L137.5,65.4805 L132.5,70.4805 L106.5,70.4805 L106.5,61.4805 " fill="#EEEEEE" style="stroke:#000000;stroke-width:1.0;"/><text fill="#000000" font-family="sans-serif" font-size="6.5" font-weight="bold" lengthAdjust="spacing" textLength="8.5" x="113" y="69.228">ref</text><text fill="#000000" font-family="sans-serif" font-size="6" lengthAdjust="spacing" textLength="35.5" x="189.25" y="78.709">view projects</text><polygon fill="#181818" points="33,93.8789,28,95.8789,33,97.8789,31,95.8789" style="stroke:#181818;stroke-width:0.5;"/><line style="stroke:#181818;stroke-width:0.5;" x1="30" x2="114" y1="95.8789" y2="95.8789"/><text fill="#000000" font-family="sans-serif" font-size="6.5" font-weight="bold" lengthAdjust="spacing" textLength="3.5" x="36" y="93.4507">2</text><text fill="#000000" font-family="sans-serif" font-size="6.5" lengthAdjust="spacing" textLength="46.5" x="41.5" y="93.4507">Display projects</text><polygon fill="#181818" points="108.5,109.0547,113.5,111.0547,108.5,113.0547,110.5,111.0547" style="stroke:#181818;stroke-width:0.5;"/><line style="stroke:#181818;stroke-width:0.5;" x1="27.5" x2="111.5" y1="111.0547" y2="111.0547"/><text fill="#000000" font-family="sans-serif" font-size="6.5" font-weight="bold" lengthAdjust="spacing" textLength="3.5" x="31" y="108.6265">3</text><text fill="#000000" font-family="sans-serif" font-size="6.5" lengthAdjust="spacing" textLength="40" x="36.5" y="108.6265">Select project</text><polygon fill="#181818" points="33,124.2305,28,126.2305,33,128.2305,31,126.2305" style="stroke:#181818;stroke-width:0.5;"/><line style="stroke:#181818;stroke-width:0.5;" x1="30" x2="114" y1="126.2305" y2="126.2305"/><text fill="#000000" font-family="sans-serif" font-size="6.5" font-weight="bold" lengthAdjust="spacing" textLength="3.5" x="36" y="123.8022">4</text><text fill="#000000" font-family="sans-serif" font-size="6.5" lengthAdjust="spacing" textLength="69.5" x="41.5" y="123.8022">Display product backlog</text><rect height="20.7227" style="stroke:#000000;stroke-width:0.75;fill:none;" width="201" x="106.5" y="130.2305"/><path d="M106.5,130.2305 L137.5,130.2305 L137.5,134.2305 L132.5,139.2305 L106.5,139.2305 L106.5,130.2305 " fill="#EEEEEE" style="stroke:#000000;stroke-width:1.0;"/><text fill="#000000" font-family="sans-serif" font-size="6.5" font-weight="bold" lengthAdjust="spacing" textLength="8.5" x="113" y="137.978">ref</text><text fill="#000000" font-family="sans-serif" font-size="6" lengthAdjust="spacing" textLength="57" x="178.5" y="147.459">view product backlog</text><polygon fill="#181818" points="108.5,162.6289,113.5,164.6289,108.5,166.6289,110.5,164.6289" style="stroke:#181818;stroke-width:0.5;"/><line style="stroke:#181818;stroke-width:0.5;" x1="27.5" x2="111.5" y1="164.6289" y2="164.6289"/><text fill="#000000" font-family="sans-serif" font-size="6.5" font-weight="bold" lengthAdjust="spacing" textLength="3.5" x="31" y="162.2007">5</text><text fill="#000000" font-family="sans-serif" font-size="6.5" lengthAdjust="spacing" textLength="49.5" x="36.5" y="162.2007">Select user story</text><polygon fill="#181818" points="108.5,177.8047,113.5,179.8047,108.5,181.8047,110.5,179.8047" style="stroke:#181818;stroke-width:0.5;"/><line style="stroke:#181818;stroke-width:0.5;" x1="27.5" x2="111.5" y1="179.8047" y2="179.8047"/><text fill="#000000" font-family="sans-serif" font-size="6.5" font-weight="bold" lengthAdjust="spacing" textLength="3.5" x="31" y="177.3765">6</text><text fill="#000000" font-family="sans-serif" font-size="6.5" lengthAdjust="spacing" textLength="65.5" x="36.5" y="177.3765">Decompose user story</text><polygon fill="#181818" points="33,192.9805,28,194.9805,33,196.9805,31,194.9805" style="stroke:#181818;stroke-width:0.5;"/><line style="stroke:#181818;stroke-width:0.5;" x1="30" x2="114" y1="194.9805" y2="194.9805"/><text fill="#000000" font-family="sans-serif" font-size="6.5" font-weight="bold" lengthAdjust="spacing" textLength="3.5" x="36" y="192.5522">7</text><text fill="#000000" font-family="sans-serif" font-size="6.5" lengthAdjust="spacing" textLength="57.5" x="41.5" y="192.5522">Ask for confirmation</text><polygon fill="#181818" points="276.5,208.1563,281.5,210.1563,276.5,212.1563,278.5,210.1563" style="stroke:#181818;stroke-width:0.5;"/><line style="stroke:#181818;stroke-width:0.5;" x1="114.5" x2="279.5" y1="210.1563" y2="210.1563"/><text fill="#000000" font-family="sans-serif" font-size="6.5" font-weight="bold" lengthAdjust="spacing" textLength="3.5" x="118" y="207.728">8</text><text fill="#000000" font-family="sans-serif" font-size="6.5" lengthAdjust="spacing" textLength="153" x="123.5" y="207.728">decomposeUserStory(storyNumber, newUserStories)</text><polygon fill="#181818" points="449.5,223.332,454.5,225.332,449.5,227.332,451.5,225.332" style="stroke:#181818;stroke-width:0.5;"/><line style="stroke:#181818;stroke-width:0.5;" x1="287.5" x2="452.5" y1="225.332" y2="225.332"/><text fill="#000000" font-family="sans-serif" font-size="6.5" font-weight="bold" lengthAdjust="spacing" textLength="3.5" x="291" y="222.9038">9</text><text fill="#000000" font-family="sans-serif" font-size="6.5" lengthAdjust="spacing" textLength="153" x="296.5" y="222.9038">decomposeUserStory(storyNumber, newUserStories)</text><polygon fill="#181818" points="624.75,238.5078,629.75,240.5078,624.75,242.5078,626.75,240.5078" style="stroke:#181818;stroke-width:0.5;"/><line style="stroke:#181818;stroke-width:0.5;" x1="460.5" x2="627.75" y1="240.5078" y2="240.5078"/><text fill="#000000" font-family="sans-serif" font-size="6.5" font-weight="bold" lengthAdjust="spacing" textLength="7" x="464" y="238.0796">10</text><text fill="#000000" font-family="sans-serif" font-size="6.5" lengthAdjust="spacing" textLength="93" x="473" y="238.0796">parent = findByID( storyNumber)</text><polygon fill="#181818" points="699,253.6836,704,255.6836,699,257.6836,701,255.6836" style="stroke:#181818;stroke-width:0.5;"/><line style="stroke:#181818;stroke-width:0.5;" x1="460.5" x2="702" y1="255.6836" y2="255.6836"/><text fill="#000000" font-family="sans-serif" font-size="6.5" font-weight="bold" lengthAdjust="spacing" textLength="7" x="464" y="253.2554">11</text><text fill="#000000" font-family="sans-serif" font-size="6.5" lengthAdjust="spacing" textLength="73" x="473" y="253.2554">projectID = getProjectID()</text><polygon fill="#181818" points="624.75,268.8594,629.75,270.8594,624.75,272.8594,626.75,270.8594" style="stroke:#181818;stroke-width:0.5;"/><line style="stroke:#181818;stroke-width:0.5;" x1="460.5" x2="627.75" y1="270.8594" y2="270.8594"/><text fill="#000000" font-family="sans-serif" font-size="6.5" font-weight="bold" lengthAdjust="spacing" textLength="7" x="464" y="268.4312">12</text><text fill="#000000" font-family="sans-serif" font-size="6.5" lengthAdjust="spacing" textLength="107" x="473" y="268.4312">listUS = findAllByProjectID(projectID)</text><polygon fill="#181818" points="548.25,284.0352,553.25,286.0352,548.25,288.0352,550.25,286.0352" style="stroke:#181818;stroke-width:0.5;"/><line style="stroke:#181818;stroke-width:0.5;" x1="460.5" x2="551.25" y1="286.0352" y2="286.0352"/><text fill="#000000" font-family="sans-serif" font-size="6.5" font-weight="bold" lengthAdjust="spacing" textLength="7" x="464" y="283.6069">13</text><text fill="#000000" font-family="sans-serif" font-size="6.5" lengthAdjust="spacing" textLength="60.5" x="473" y="283.6069">project = findByID(id)</text><path d="M395.25,293.5352 L431.75,293.5352 L431.75,297.7109 L426.75,302.7109 L395.25,302.7109 L395.25,293.5352 " fill="#EEEEEE" style="stroke:#000000;stroke-width:0.75;"/><rect fill="none" height="100.2305" style="stroke:#000000;stroke-width:0.75;" width="614" x="395.25" y="293.5352"/><text fill="#000000" font-family="sans-serif" font-size="6.5" font-weight="bold" lengthAdjust="spacing" textLength="14" x="402.75" y="300.7827">loop</text><text fill="#000000" font-family="sans-serif" font-size="5.5" font-weight="bold" lengthAdjust="spacing" textLength="53.5" x="439.25" y="300.2446">[for each dto in list]</text><polygon fill="#181818" points="839.75,311.8867,844.75,313.8867,839.75,315.8867,841.75,313.8867" style="stroke:#181818;stroke-width:0.5;"/><line style="stroke:#181818;stroke-width:0.5;" x1="460.5" x2="842.75" y1="313.8867" y2="313.8867"/><text fill="#000000" font-family="sans-serif" font-size="6.5" font-weight="bold" lengthAdjust="spacing" textLength="7" x="464" y="311.4585">14</text><text fill="#000000" font-family="sans-serif" font-size="6.5" lengthAdjust="spacing" textLength="115.5" x="473" y="311.4585">usNumber = generateUSNumber(listUS)</text><polygon fill="#181818" points="839.75,327.0625,844.75,329.0625,839.75,331.0625,841.75,329.0625" style="stroke:#181818;stroke-width:0.5;"/><line style="stroke:#181818;stroke-width:0.5;" x1="460.5" x2="842.75" y1="329.0625" y2="329.0625"/><text fill="#000000" font-family="sans-serif" font-size="6.5" font-weight="bold" lengthAdjust="spacing" textLength="7" x="464" y="326.6343">15</text><text fill="#000000" font-family="sans-serif" font-size="6.5" lengthAdjust="spacing" textLength="94" x="473" y="326.6343">generateUSID(usNumber, projID)</text><polygon fill="#181818" points="839.75,342.2383,844.75,344.2383,839.75,346.2383,841.75,344.2383" style="stroke:#181818;stroke-width:0.5;"/><line style="stroke:#181818;stroke-width:0.5;" x1="460.5" x2="842.75" y1="344.2383" y2="344.2383"/><text fill="#000000" font-family="sans-serif" font-size="6.5" font-weight="bold" lengthAdjust="spacing" textLength="7" x="464" y="341.8101">16</text><text fill="#000000" font-family="sans-serif" font-size="6.5" lengthAdjust="spacing" textLength="107" x="473" y="341.8101">priority = determineUSPriority(listUS)</text><polygon fill="#181818" points="906.5,357.4141,911.5,359.4141,906.5,361.4141,908.5,359.4141" style="stroke:#181818;stroke-width:0.5;"/><line style="stroke:#181818;stroke-width:0.5;" x1="460.5" x2="909.5" y1="359.4141" y2="359.4141"/><text fill="#000000" font-family="sans-serif" font-size="6.5" font-weight="bold" lengthAdjust="spacing" textLength="7" x="464" y="356.9858">17</text><text fill="#000000" font-family="sans-serif" font-size="6.5" lengthAdjust="spacing" textLength="217.5" x="473" y="356.9858">child = createUS(statement, detail, projID, UserStoryID, priority, usNumber)</text><polygon fill="#181818" points="969,372.5898,974,374.5898,969,376.5898,971,374.5898" style="stroke:#181818;stroke-width:0.5;"/><line style="stroke:#181818;stroke-width:0.5;" x1="460.5" x2="972" y1="374.5898" y2="374.5898"/><text fill="#000000" font-family="sans-serif" font-size="6.5" font-weight="bold" lengthAdjust="spacing" textLength="7" x="464" y="372.1616">18</text><text fill="#000000" font-family="sans-serif" font-size="6.5" lengthAdjust="spacing" textLength="38" x="473" y="372.1616">setParentID()</text><polygon fill="#181818" points="624.75,387.7656,629.75,389.7656,624.75,391.7656,626.75,389.7656" style="stroke:#181818;stroke-width:0.5;"/><line style="stroke:#181818;stroke-width:0.5;" x1="460.5" x2="627.75" y1="389.7656" y2="389.7656"/><text fill="#000000" font-family="sans-serif" font-size="6.5" font-weight="bold" lengthAdjust="spacing" textLength="7" x="464" y="387.3374">19</text><text fill="#000000" font-family="sans-serif" font-size="6.5" lengthAdjust="spacing" textLength="30.5" x="473" y="387.3374">save(child)</text><polygon fill="#181818" points="699,406.4414,704,408.4414,699,410.4414,701,408.4414" style="stroke:#181818;stroke-width:0.5;"/><line style="stroke:#181818;stroke-width:0.5;" x1="460.5" x2="702" y1="408.4414" y2="408.4414"/><text fill="#000000" font-family="sans-serif" font-size="6.5" font-weight="bold" lengthAdjust="spacing" textLength="7" x="464" y="406.0132">20</text><text fill="#000000" font-family="sans-serif" font-size="6.5" lengthAdjust="spacing" textLength="64.5" x="473" y="406.0132">markAsDecomposed()</text><polygon fill="#181818" points="624.75,421.6172,629.75,423.6172,624.75,425.6172,626.75,423.6172" style="stroke:#181818;stroke-width:0.5;"/><line style="stroke:#181818;stroke-width:0.5;" x1="460.5" x2="627.75" y1="423.6172" y2="423.6172"/><text fill="#000000" font-family="sans-serif" font-size="6.5" font-weight="bold" lengthAdjust="spacing" textLength="7" x="464" y="421.189">21</text><text fill="#000000" font-family="sans-serif" font-size="6.5" lengthAdjust="spacing" textLength="41.5" x="473" y="421.189">update(parent)</text><polygon fill="#181818" points="624.75,436.793,629.75,438.793,624.75,440.793,626.75,438.793" style="stroke:#181818;stroke-width:0.5;"/><line style="stroke:#181818;stroke-width:0.5;" x1="460.5" x2="627.75" y1="438.793" y2="438.793"/><text fill="#000000" font-family="sans-serif" font-size="6.5" font-weight="bold" lengthAdjust="spacing" textLength="7" x="464" y="436.3647">22</text><text fill="#000000" font-family="sans-serif" font-size="6.5" lengthAdjust="spacing" textLength="86.5" x="473" y="436.3647">backlog = findAllByProjectID()</text><polygon fill="#181818" points="1003.25,451.9688,1008.25,453.9688,1003.25,455.9688,1005.25,453.9688" style="stroke:#181818;stroke-width:0.5;"/><line style="stroke:#181818;stroke-width:0.5;" x1="460.5" x2="1006.25" y1="453.9688" y2="453.9688"/><text fill="#000000" font-family="sans-serif" font-size="6.5" font-weight="bold" lengthAdjust="spacing" textLength="7" x="464" y="451.5405">23</text><text fill="#000000" font-family="sans-serif" font-size="6.5" lengthAdjust="spacing" textLength="2" x="473" y="451.5405"> </text><rect fill="#E2E2F0" height="15.8047" rx="1.25" ry="1.25" style="stroke:#181818;stroke-width:0.25;" width="55.5" x="1009.25" y="442.793"/><text fill="#000000" font-family="sans-serif" font-size="7" lengthAdjust="spacing" textLength="48.5" x="1012.75" y="453.5596">listBacklogDTO</text><path d="M395.25,467.5977 L431.75,467.5977 L431.75,471.7734 L426.75,476.7734 L395.25,476.7734 L395.25,467.5977 " fill="#EEEEEE" style="stroke:#000000;stroke-width:0.75;"/><rect fill="none" height="39.5273" style="stroke:#000000;stroke-width:0.75;" width="710.5" x="395.25" y="467.5977"/><text fill="#000000" font-family="sans-serif" font-size="6.5" font-weight="bold" lengthAdjust="spacing" textLength="14" x="402.75" y="474.8452">loop</text><text fill="#000000" font-family="sans-serif" font-size="5.5" font-weight="bold" lengthAdjust="spacing" textLength="35" x="439.25" y="474.3071">[for each us]</text><polygon fill="#181818" points="1079.25,485.9492,1084.25,487.9492,1079.25,489.9492,1081.25,487.9492" style="stroke:#181818;stroke-width:0.5;"/><line style="stroke:#181818;stroke-width:0.5;" x1="460.5" x2="1082.25" y1="487.9492" y2="487.9492"/><text fill="#000000" font-family="sans-serif" font-size="6.5" font-weight="bold" lengthAdjust="spacing" textLength="7" x="464" y="485.521">24</text><text fill="#000000" font-family="sans-serif" font-size="6.5" lengthAdjust="spacing" textLength="46.5" x="473" y="485.521">dto = toDTO(us)</text><polygon fill="#181818" points="1031,501.125,1036,503.125,1031,505.125,1033,503.125" style="stroke:#181818;stroke-width:0.5;"/><line style="stroke:#181818;stroke-width:0.5;" x1="460.5" x2="1034" y1="503.125" y2="503.125"/><text fill="#000000" font-family="sans-serif" font-size="6.5" font-weight="bold" lengthAdjust="spacing" textLength="7" x="464" y="500.6968">25</text><text fill="#000000" font-family="sans-serif" font-size="6.5" lengthAdjust="spacing" textLength="23.5" x="473" y="500.6968">add(dto)</text><polygon fill="#181818" points="293,519.8008,288,521.8008,293,523.8008,291,521.8008" style="stroke:#181818;stroke-width:0.5;"/><line style="stroke:#181818;stroke-width:0.5;stroke-dasharray:2.0,2.0;" x1="290" x2="455" y1="521.8008" y2="521.8008"/><text fill="#000000" font-family="sans-serif" font-size="6.5" font-weight="bold" lengthAdjust="spacing" textLength="7" x="296" y="519.3726">26</text><text fill="#000000" font-family="sans-serif" font-size="6.5" lengthAdjust="spacing" textLength="45" x="305" y="519.3726">listBacklogDTO</text><polygon fill="#181818" points="120,534.9766,115,536.9766,120,538.9766,118,536.9766" style="stroke:#181818;stroke-width:0.5;"/><line style="stroke:#181818;stroke-width:0.5;stroke-dasharray:2.0,2.0;" x1="117" x2="284.5" y1="536.9766" y2="536.9766"/><text fill="#000000" font-family="sans-serif" font-size="6.5" font-weight="bold" lengthAdjust="spacing" textLength="7" x="123" y="534.5483">27</text><text fill="#000000" font-family="sans-serif" font-size="6.5" lengthAdjust="spacing" textLength="45" x="132" y="534.5483">listBacklogDTO</text><polygon fill="#181818" points="108.5,550.1523,113.5,552.1523,108.5,554.1523,110.5,552.1523" style="stroke:#181818;stroke-width:0.5;"/><line style="stroke:#181818;stroke-width:0.5;" x1="27.5" x2="111.5" y1="552.1523" y2="552.1523"/><text fill="#000000" font-family="sans-serif" font-size="6.5" font-weight="bold" lengthAdjust="spacing" textLength="7" x="31" y="549.7241">28</text><text fill="#000000" font-family="sans-serif" font-size="6.5" lengthAdjust="spacing" textLength="22" x="40" y="549.7241">Confirm</text><polygon fill="#181818" points="33,565.3281,28,567.3281,33,569.3281,31,567.3281" style="stroke:#181818;stroke-width:0.5;"/><line style="stroke:#181818;stroke-width:0.5;" x1="30" x2="114" y1="567.3281" y2="567.3281"/><text fill="#000000" font-family="sans-serif" font-size="6.5" font-weight="bold" lengthAdjust="spacing" textLength="7" x="36" y="564.8999">29</text><text fill="#000000" font-family="sans-serif" font-size="6.5" lengthAdjust="spacing" textLength="64" x="45" y="564.8999">Inform operation result</text><!--MD5=[3e7bf670b4b41f28c1d0eaf3856d2a94]
@startuml
'https://plantuml.com/sequence-diagram

autonumber
actor "Product Owner" as PO
participant "UI" as ui

participant ": Controller" as ctl
participant ": AppServiceDecomposeUserStory" as appserv
participant ": ProjectRepository" as projrepo
participant ": UserStoryRepository" as usrepo
participant "parent :UserStory" as us
participant ": UserStoryFactory"
participant " : CreateUSService" as usservice
participant "project : Project" as proj
participant "child : UserStory" as us2


PO -> ui : Initiate process
ref over ui, ctl
view projects
end ref
ui -> PO : Display projects


PO -> ui : Select project
ui -> PO : Display product backlog
ref over ui, ctl
view product backlog
end ref
PO -> ui : Select user story

PO -> ui : Decompose user story
ui -> PO : Ask for confirmation
ui -> ctl : decomposeUserStory(storyNumber, newUserStories)
activate ctl
ctl -> appserv : decomposeUserStory(storyNumber, newUserStories)
activate appserv
appserv -> usrepo : parent = findByID( storyNumber)
appserv -> us : projectID = getProjectID()
appserv -> usrepo : listUS = findAllByProjectID(projectID)
appserv -> projrepo : project = findByID(id)
loop for each dto in list
appserv -> usservice : usNumber = generateUSNumber(listUS)
appserv -> usservice : generateUSID(usNumber, projID)
appserv -> usservice : priority = determineUSPriority(listUS)

appserv -> proj : child = createUS(statement, detail, projID, UserStoryID, priority, usNumber)
appserv -> us2 : setParentID()
appserv -> usrepo : save(child)
end loop
appserv -> us : markAsDecomposed()
appserv -> usrepo : update(parent)

appserv -> usrepo : backlog = findAllByProjectID()
create listBacklogDTO
appserv -> listBacklogDTO
loop for each us
appserv -> Mapper : dto = toDTO(us)
appserv -> listBacklogDTO : add(dto)
end loop
appserv - -> ctl : listBacklogDTO

ctl - -> ui : listBacklogDTO
deactivate ctl

PO -> ui : Confirm
ui -> PO : Inform operation result


@enduml

@startuml

autonumber
actor "Product Owner" as PO
participant "UI" as ui

participant ": Controller" as ctl
participant ": AppServiceDecomposeUserStory" as appserv
participant ": ProjectRepository" as projrepo
participant ": UserStoryRepository" as usrepo
participant "parent :UserStory" as us
participant ": UserStoryFactory"
participant " : CreateUSService" as usservice
participant "project : Project" as proj
participant "child : UserStory" as us2


PO -> ui : Initiate process
ref over ui, ctl
view projects
end ref
ui -> PO : Display projects


PO -> ui : Select project
ui -> PO : Display product backlog
ref over ui, ctl
view product backlog
end ref
PO -> ui : Select user story

PO -> ui : Decompose user story
ui -> PO : Ask for confirmation
ui -> ctl : decomposeUserStory(storyNumber, newUserStories)
activate ctl
ctl -> appserv : decomposeUserStory(storyNumber, newUserStories)
activate appserv
appserv -> usrepo : parent = findByID( storyNumber)
appserv -> us : projectID = getProjectID()
appserv -> usrepo : listUS = findAllByProjectID(projectID)
appserv -> projrepo : project = findByID(id)
loop for each dto in list
appserv -> usservice : usNumber = generateUSNumber(listUS)
appserv -> usservice : generateUSID(usNumber, projID)
appserv -> usservice : priority = determineUSPriority(listUS)

appserv -> proj : child = createUS(statement, detail, projID, UserStoryID, priority, usNumber)
appserv -> us2 : setParentID()
appserv -> usrepo : save(child)
end loop
appserv -> us : markAsDecomposed()
appserv -> usrepo : update(parent)

appserv -> usrepo : backlog = findAllByProjectID()
create listBacklogDTO
appserv -> listBacklogDTO
loop for each us
appserv -> Mapper : dto = toDTO(us)
appserv -> listBacklogDTO : add(dto)
end loop
appserv - -> ctl : listBacklogDTO

ctl - -> ui : listBacklogDTO
deactivate ctl

PO -> ui : Confirm
ui -> PO : Inform operation result


@enduml

PlantUML version 1.2022.4(Sat Apr 09 14:29:17 BST 2022)
(GPL source distribution)
Java Runtime: OpenJDK Runtime Environment
JVM: OpenJDK 64-Bit Server VM
Default Encoding: Cp1252
Language: pt
Country: PT
--></g></svg>