<?xml version="1.0" encoding="UTF-8" standalone="no"?><svg xmlns="http://www.w3.org/2000/svg" xmlns:xlink="http://www.w3.org/1999/xlink" contentScriptType="application/ecmascript" contentStyleType="text/css" height="711px" preserveAspectRatio="none" style="width:748px;height:711px;background:#FFFFFF;" version="1.1" viewBox="0 0 748 711" width="748px" zoomAndPan="magnify"><defs><filter height="300%" id="f10ca3fe2t8c83" width="300%" x="-1" y="-1"><feGaussianBlur result="blurOut" stdDeviation="2.0"/><feColorMatrix in="blurOut" result="blurOut2" type="matrix" values="0 0 0 0 0 0 0 0 0 0 0 0 0 0 0 0 0 0 .4 0"/><feOffset dx="4.0" dy="4.0" in="blurOut2" result="blurOut3"/><feBlend in="SourceGraphic" in2="blurOut3" mode="normal"/></filter></defs><g><!--MD5=[3e4c10e33a4194af01d1bdf6f4b12f5e]
class SearchResourcesUI--><rect codeLine="2" fill="#FEFECE" filter="url(#f10ca3fe2t8c83)" height="48" id="SearchResourcesUI" style="stroke:#A80036;stroke-width:1.5;" width="144" x="27.8073" y="21"/><ellipse cx="42.8072" cy="37" fill="#ADD1B2" rx="11" ry="11" style="stroke:#A80036;stroke-width:1.0;"/><path d="M44.8072,33.5 Q45.0104,33 45.2447,32.75 Q45.4791,32.5 45.7447,32.5 Q46.2135,32.5 46.5104,32.7813 Q46.8072,33.0625 46.8072,33.7188 L46.8072,35.2813 Q46.8072,35.9375 46.526,36.2188 Q46.2447,36.5 45.8072,36.5 Q45.4166,36.5 45.1666,36.3281 Q44.9166,36.1563 44.8072,35.7031 Q44.7604,35.3906 44.5885,35.2188 Q44.276,34.8906 43.7135,34.7031 Q43.151,34.5 42.5885,34.5 Q41.8854,34.5 41.2916,34.7813 Q40.7135,35.0625 40.2604,35.6875 Q39.8072,36.3125 39.8072,37.1719 L39.8072,38.0938 Q39.8072,39.125 40.651,39.8125 Q41.4947,40.5 42.9947,40.5 Q43.8854,40.5 44.5104,40.2969 Q44.8697,40.1875 45.276,39.8281 Q45.5416,39.625 45.6822,39.5625 Q45.8229,39.5 45.9947,39.5 Q46.3229,39.5 46.5572,39.7656 Q46.8072,40.0156 46.8072,40.375 Q46.8072,40.7188 46.4635,41.125 Q45.9635,41.7188 45.1666,42.0469 Q44.1197,42.5 42.8385,42.5 Q41.3385,42.5 40.1354,41.9063 Q39.1666,41.4375 38.4791,40.4219 Q37.8072,39.4063 37.8072,38.2031 L37.8072,37.1094 Q37.8072,35.8594 38.401,34.7656 Q39.0104,33.6719 40.0572,33.0938 Q41.1197,32.5 42.3072,32.5 Q43.026,32.5 43.651,32.75 Q44.276,33 44.8072,33.5 Z " fill="#000000"/><text fill="#000000" font-family="sans-serif" font-size="12" lengthAdjust="spacing" textLength="112" x="56.8072" y="41.9102">SearchResourcesUI</text><line style="stroke:#A80036;stroke-width:1.5;" x1="28.8073" x2="170.8073" y1="53" y2="53"/><line style="stroke:#A80036;stroke-width:1.5;" x1="28.8073" x2="170.8073" y1="61" y2="61"/><!--MD5=[2aa2bc28b1a7c336d5682383be9ca353]
class ListResourcesInProjectController--><rect codeLine="3" fill="#FEFECE" filter="url(#f10ca3fe2t8c83)" height="75.6719" id="ListResourcesInProjectController" style="stroke:#A80036;stroke-width:1.5;" width="321" x="207.3073" y="7"/><ellipse cx="272.0573" cy="23" fill="#ADD1B2" rx="11" ry="11" style="stroke:#A80036;stroke-width:1.0;"/><path d="M274.0573,19.5 Q274.2604,19 274.4948,18.75 Q274.7291,18.5 274.9948,18.5 Q275.4635,18.5 275.7604,18.7813 Q276.0573,19.0625 276.0573,19.7188 L276.0573,21.2813 Q276.0573,21.9375 275.776,22.2188 Q275.4948,22.5 275.0573,22.5 Q274.6666,22.5 274.4166,22.3281 Q274.1666,22.1563 274.0573,21.7031 Q274.0104,21.3906 273.8385,21.2188 Q273.526,20.8906 272.9635,20.7031 Q272.401,20.5 271.8385,20.5 Q271.1354,20.5 270.5416,20.7813 Q269.9635,21.0625 269.5104,21.6875 Q269.0573,22.3125 269.0573,23.1719 L269.0573,24.0938 Q269.0573,25.125 269.901,25.8125 Q270.7448,26.5 272.2448,26.5 Q273.1354,26.5 273.7604,26.2969 Q274.1198,26.1875 274.526,25.8281 Q274.7916,25.625 274.9323,25.5625 Q275.0729,25.5 275.2448,25.5 Q275.5729,25.5 275.8073,25.7656 Q276.0573,26.0156 276.0573,26.375 Q276.0573,26.7188 275.7135,27.125 Q275.2135,27.7188 274.4166,28.0469 Q273.3698,28.5 272.0885,28.5 Q270.5885,28.5 269.3854,27.9063 Q268.4166,27.4375 267.7291,26.4219 Q267.0573,25.4063 267.0573,24.2031 L267.0573,23.1094 Q267.0573,21.8594 267.651,20.7656 Q268.2604,19.6719 269.3073,19.0938 Q270.3698,18.5 271.5573,18.5 Q272.276,18.5 272.901,18.75 Q273.526,19 274.0573,19.5 Z " fill="#000000"/><text fill="#000000" font-family="sans-serif" font-size="12" lengthAdjust="spacing" textLength="183" x="292.5573" y="27.9102">ListResourcesInProjectController</text><line style="stroke:#A80036;stroke-width:1.5;" x1="208.3073" x2="527.3073" y1="39" y2="39"/><line style="stroke:#A80036;stroke-width:1.5;" x1="208.3073" x2="527.3073" y1="47" y2="47"/><text fill="#000000" font-family="sans-serif" font-size="11" lengthAdjust="spacing" textLength="171" x="213.3073" y="62.4189">+ListResourcesInProjectController()</text><text fill="#000000" font-family="sans-serif" font-size="11" lengthAdjust="spacing" textLength="309" x="213.3073" y="76.2549">+findProjectResources(int code) : List&lt;ResourcesInProjectDTO&gt;</text><!--MD5=[13bce23176f178ec6522722b4c2b76e3]
class ITCompany--><rect codeLine="8" fill="#FEFECE" filter="url(#f10ca3fe2t8c83)" height="70.0234" id="ITCompany" style="stroke:#A80036;stroke-width:1.5;" width="100" x="96.8073" y="208"/><ellipse cx="114.0573" cy="228.0938" fill="#FF7700" rx="11" ry="11" style="stroke:#A80036;stroke-width:1.0;"/><path d="M112.5573,232.0938 Q112.276,232.7344 112.0885,232.9219 Q111.9166,233.0938 111.6666,233.0938 Q111.1666,233.0938 110.8541,232.875 Q110.5573,232.6406 110.5573,232.0938 L110.5573,231.0938 Q110.5573,230.5469 110.8073,230.3281 Q111.0573,230.0938 111.4635,230.0938 Q111.776,230.0938 111.9948,230.1719 Q112.2135,230.25 112.3229,230.4375 Q112.4323,230.625 112.5573,230.6875 Q112.7135,230.8281 113.1198,230.9688 Q113.526,231.0938 114.0104,231.0938 Q114.7604,231.0938 115.2448,230.6406 Q115.5573,230.375 115.5573,229.9844 Q115.5573,229.7188 115.401,229.4844 Q115.2448,229.25 114.901,229.0938 Q114.6823,228.9844 113.901,228.8125 Q112.4479,228.5938 111.9323,228.25 Q111.4323,227.9063 110.9948,227.2969 Q110.5573,226.6719 110.5573,225.9531 Q110.5573,224.8125 111.4166,223.9531 Q112.2916,223.0938 113.6666,223.0938 Q114.2291,223.0938 114.5104,223.3438 Q114.7916,223.5938 115.5573,224.0938 Q115.9948,223.0938 116.4323,223.0938 Q116.9323,223.0938 117.2448,223.3125 Q117.5573,223.5313 117.5573,224.0469 L117.5573,225.125 Q117.5573,225.6563 117.3073,225.875 Q117.0573,226.0938 116.6666,226.0938 Q116.3385,226.0938 116.0885,226 Q115.901,225.9375 115.8073,225.7344 Q115.7135,225.5313 115.5573,225.4531 Q115.3698,225.2969 114.9948,225.2031 Q114.6198,225.0938 114.1198,225.0938 Q113.401,225.0938 112.9791,225.4531 Q112.5573,225.8125 112.5573,226.2031 Q112.5573,226.4688 112.6979,226.7188 Q112.8541,226.9531 113.151,227.0938 Q113.3385,227.1875 114.4166,227.4063 Q115.4948,227.625 116.0416,227.9219 Q116.5885,228.2031 117.0729,228.8125 Q117.5573,229.4219 117.5573,230.2813 Q117.5573,231.4531 116.8854,232.1563 Q115.9791,233.0938 114.5885,233.0938 Q114.0573,233.0938 113.5416,232.8438 Q113.0416,232.5938 112.5573,232.0938 Z " fill="#000000"/><text fill="#000000" font-family="sans-serif" font-size="12" font-style="italic" lengthAdjust="spacing" textLength="66" x="127.0573" y="225.457">«Singleton»</text><text fill="#000000" font-family="sans-serif" font-size="12" lengthAdjust="spacing" textLength="63" x="128.5573" y="240.5508">ITCompany</text><line style="stroke:#A80036;stroke-width:1.5;" x1="97.8073" x2="195.8073" y1="248.1875" y2="248.1875"/><line style="stroke:#A80036;stroke-width:1.5;" x1="97.8073" x2="195.8073" y1="256.1875" y2="256.1875"/><text fill="#000000" font-family="sans-serif" font-size="11" lengthAdjust="spacing" textLength="88" x="102.8073" y="271.6064">+getProjectStore()</text><!--MD5=[0cf43f64de24b70e8ffe65ff9ee7abee]
class ProjectStore--><rect codeLine="12" fill="#FEFECE" filter="url(#f10ca3fe2t8c83)" height="61.8359" id="ProjectStore" style="stroke:#A80036;stroke-width:1.5;" width="195" x="7.3073" y="430.5"/><ellipse cx="67.0573" cy="446.5" fill="#ADD1B2" rx="11" ry="11" style="stroke:#A80036;stroke-width:1.0;"/><path d="M69.0573,443 Q69.2604,442.5 69.4948,442.25 Q69.7291,442 69.9948,442 Q70.4635,442 70.7604,442.2813 Q71.0573,442.5625 71.0573,443.2188 L71.0573,444.7813 Q71.0573,445.4375 70.776,445.7188 Q70.4948,446 70.0573,446 Q69.6666,446 69.4166,445.8281 Q69.1666,445.6563 69.0573,445.2031 Q69.0104,444.8906 68.8385,444.7188 Q68.526,444.3906 67.9635,444.2031 Q67.401,444 66.8385,444 Q66.1354,444 65.5416,444.2813 Q64.9635,444.5625 64.5104,445.1875 Q64.0573,445.8125 64.0573,446.6719 L64.0573,447.5938 Q64.0573,448.625 64.901,449.3125 Q65.7448,450 67.2448,450 Q68.1354,450 68.7604,449.7969 Q69.1198,449.6875 69.526,449.3281 Q69.7916,449.125 69.9323,449.0625 Q70.0729,449 70.2448,449 Q70.5729,449 70.8073,449.2656 Q71.0573,449.5156 71.0573,449.875 Q71.0573,450.2188 70.7135,450.625 Q70.2135,451.2188 69.4166,451.5469 Q68.3698,452 67.0885,452 Q65.5885,452 64.3854,451.4063 Q63.4166,450.9375 62.7291,449.9219 Q62.0573,448.9063 62.0573,447.7031 L62.0573,446.6094 Q62.0573,445.3594 62.651,444.2656 Q63.2604,443.1719 64.3073,442.5938 Q65.3698,442 66.5573,442 Q67.276,442 67.901,442.25 Q68.526,442.5 69.0573,443 Z " fill="#000000"/><text fill="#000000" font-family="sans-serif" font-size="12" lengthAdjust="spacing" textLength="67" x="87.5573" y="451.4102">ProjectStore</text><line style="stroke:#A80036;stroke-width:1.5;" x1="8.3073" x2="201.3073" y1="462.5" y2="462.5"/><line style="stroke:#A80036;stroke-width:1.5;" x1="8.3073" x2="201.3073" y1="470.5" y2="470.5"/><text fill="#000000" font-family="sans-serif" font-size="11" lengthAdjust="spacing" textLength="183" x="13.3073" y="485.9189">+findProjectByCode(int code) : Project</text><!--MD5=[79d378210367c0c6ec62ef762ddfbd1b]
class Project--><rect codeLine="16" fill="#FEFECE" filter="url(#f10ca3fe2t8c83)" height="200.1953" id="Project" style="stroke:#A80036;stroke-width:1.5;" width="188" x="273.8073" y="143"/><ellipse cx="344.5573" cy="159" fill="#ADD1B2" rx="11" ry="11" style="stroke:#A80036;stroke-width:1.0;"/><path d="M346.5573,155.5 Q346.7604,155 346.9948,154.75 Q347.2291,154.5 347.4948,154.5 Q347.9635,154.5 348.2604,154.7813 Q348.5573,155.0625 348.5573,155.7188 L348.5573,157.2813 Q348.5573,157.9375 348.276,158.2188 Q347.9948,158.5 347.5573,158.5 Q347.1666,158.5 346.9166,158.3281 Q346.6666,158.1563 346.5573,157.7031 Q346.5104,157.3906 346.3385,157.2188 Q346.026,156.8906 345.4635,156.7031 Q344.901,156.5 344.3385,156.5 Q343.6354,156.5 343.0416,156.7813 Q342.4635,157.0625 342.0104,157.6875 Q341.5573,158.3125 341.5573,159.1719 L341.5573,160.0938 Q341.5573,161.125 342.401,161.8125 Q343.2448,162.5 344.7448,162.5 Q345.6354,162.5 346.2604,162.2969 Q346.6198,162.1875 347.026,161.8281 Q347.2916,161.625 347.4323,161.5625 Q347.5729,161.5 347.7448,161.5 Q348.0729,161.5 348.3073,161.7656 Q348.5573,162.0156 348.5573,162.375 Q348.5573,162.7188 348.2135,163.125 Q347.7135,163.7188 346.9166,164.0469 Q345.8698,164.5 344.5885,164.5 Q343.0885,164.5 341.8854,163.9063 Q340.9166,163.4375 340.2291,162.4219 Q339.5573,161.4063 339.5573,160.2031 L339.5573,159.1094 Q339.5573,157.8594 340.151,156.7656 Q340.7604,155.6719 341.8073,155.0938 Q342.8698,154.5 344.0573,154.5 Q344.776,154.5 345.401,154.75 Q346.026,155 346.5573,155.5 Z " fill="#000000"/><text fill="#000000" font-family="sans-serif" font-size="12" lengthAdjust="spacing" textLength="38" x="365.0573" y="163.9102">Project</text><line style="stroke:#A80036;stroke-width:1.5;" x1="274.8073" x2="460.8073" y1="175" y2="175"/><text fill="#000000" font-family="sans-serif" font-size="11" lengthAdjust="spacing" textLength="42" x="279.8073" y="190.4189">-int code</text><text fill="#000000" font-family="sans-serif" font-size="11" lengthAdjust="spacing" textLength="61" x="279.8073" y="204.2549">-String name</text><text fill="#000000" font-family="sans-serif" font-size="11" lengthAdjust="spacing" textLength="88" x="279.8073" y="218.0908">-String description</text><text fill="#000000" font-family="sans-serif" font-size="11" lengthAdjust="spacing" textLength="99" x="279.8073" y="231.9268">-LocalDate startDate</text><text fill="#000000" font-family="sans-serif" font-size="11" lengthAdjust="spacing" textLength="85" x="279.8073" y="245.7627">-int sprintDuration</text><text fill="#000000" font-family="sans-serif" font-size="11" lengthAdjust="spacing" textLength="90" x="279.8073" y="259.5986">-int plannedSprints</text><text fill="#000000" font-family="sans-serif" font-size="11" lengthAdjust="spacing" textLength="95" x="279.8073" y="273.4346">-LocalDate endDate</text><text fill="#000000" font-family="sans-serif" font-size="11" lengthAdjust="spacing" textLength="99" x="279.8073" y="287.2705">-String projectStatus</text><text fill="#000000" font-family="sans-serif" font-size="11" lengthAdjust="spacing" textLength="72" x="279.8073" y="301.1064">-double budget</text><line style="stroke:#A80036;stroke-width:1.5;" x1="274.8073" x2="460.8073" y1="307.5234" y2="307.5234"/><text fill="#000000" font-family="sans-serif" font-size="11" lengthAdjust="spacing" textLength="109" x="279.8073" y="322.9424">+hasId(int id) : boolean</text><text fill="#000000" font-family="sans-serif" font-size="11" lengthAdjust="spacing" textLength="176" x="279.8073" y="336.7783">+getProjectTeam () : List&lt;Resource&gt;</text><!--MD5=[e3dc1c3c8e22fea8df8fad83e7b48fc6]
class ResourceMapper--><rect codeLine="31" fill="#FEFECE" filter="url(#f10ca3fe2t8c83)" height="61.8359" id="ResourceMapper" style="stroke:#A80036;stroke-width:1.5;" width="261" x="237.3073" y="430.5"/><ellipse cx="316.0573" cy="446.5" fill="#ADD1B2" rx="11" ry="11" style="stroke:#A80036;stroke-width:1.0;"/><path d="M318.0573,443 Q318.2604,442.5 318.4948,442.25 Q318.7291,442 318.9948,442 Q319.4635,442 319.7604,442.2813 Q320.0573,442.5625 320.0573,443.2188 L320.0573,444.7813 Q320.0573,445.4375 319.776,445.7188 Q319.4948,446 319.0573,446 Q318.6666,446 318.4166,445.8281 Q318.1666,445.6563 318.0573,445.2031 Q318.0104,444.8906 317.8385,444.7188 Q317.526,444.3906 316.9635,444.2031 Q316.401,444 315.8385,444 Q315.1354,444 314.5416,444.2813 Q313.9635,444.5625 313.5104,445.1875 Q313.0573,445.8125 313.0573,446.6719 L313.0573,447.5938 Q313.0573,448.625 313.901,449.3125 Q314.7448,450 316.2448,450 Q317.1354,450 317.7604,449.7969 Q318.1198,449.6875 318.526,449.3281 Q318.7916,449.125 318.9323,449.0625 Q319.0729,449 319.2448,449 Q319.5729,449 319.8073,449.2656 Q320.0573,449.5156 320.0573,449.875 Q320.0573,450.2188 319.7135,450.625 Q319.2135,451.2188 318.4166,451.5469 Q317.3698,452 316.0885,452 Q314.5885,452 313.3854,451.4063 Q312.4166,450.9375 311.7291,449.9219 Q311.0573,448.9063 311.0573,447.7031 L311.0573,446.6094 Q311.0573,445.3594 311.651,444.2656 Q312.2604,443.1719 313.3073,442.5938 Q314.3698,442 315.5573,442 Q316.276,442 316.901,442.25 Q317.526,442.5 318.0573,443 Z " fill="#000000"/><text fill="#000000" font-family="sans-serif" font-size="12" lengthAdjust="spacing" textLength="95" x="336.5573" y="451.4102">ResourceMapper</text><line style="stroke:#A80036;stroke-width:1.5;" x1="238.3073" x2="497.3073" y1="462.5" y2="462.5"/><line style="stroke:#A80036;stroke-width:1.5;" x1="238.3073" x2="497.3073" y1="470.5" y2="470.5"/><text fill="#000000" font-family="sans-serif" font-size="11" lengthAdjust="spacing" textLength="249" x="243.3073" y="485.9189">+createlistResourcesInProjectDTO(List&lt;Resource&gt;)</text><!--MD5=[ea57575c19a1a2bd13d9cc2f97aecaf9]
class ResourcesInProjectDTO--><rect codeLine="34" fill="#FEFECE" filter="url(#f10ca3fe2t8c83)" height="117.1797" id="ResourcesInProjectDTO" style="stroke:#A80036;stroke-width:1.5;" width="171" x="282.3073" y="580"/><ellipse cx="299.5573" cy="596" fill="#ADD1B2" rx="11" ry="11" style="stroke:#A80036;stroke-width:1.0;"/><path d="M301.5573,592.5 Q301.7604,592 301.9948,591.75 Q302.2291,591.5 302.4948,591.5 Q302.9635,591.5 303.2604,591.7813 Q303.5573,592.0625 303.5573,592.7188 L303.5573,594.2813 Q303.5573,594.9375 303.276,595.2188 Q302.9948,595.5 302.5573,595.5 Q302.1666,595.5 301.9166,595.3281 Q301.6666,595.1563 301.5573,594.7031 Q301.5104,594.3906 301.3385,594.2188 Q301.026,593.8906 300.4635,593.7031 Q299.901,593.5 299.3385,593.5 Q298.6354,593.5 298.0416,593.7813 Q297.4635,594.0625 297.0104,594.6875 Q296.5573,595.3125 296.5573,596.1719 L296.5573,597.0938 Q296.5573,598.125 297.401,598.8125 Q298.2448,599.5 299.7448,599.5 Q300.6354,599.5 301.2604,599.2969 Q301.6198,599.1875 302.026,598.8281 Q302.2916,598.625 302.4323,598.5625 Q302.5729,598.5 302.7448,598.5 Q303.0729,598.5 303.3073,598.7656 Q303.5573,599.0156 303.5573,599.375 Q303.5573,599.7188 303.2135,600.125 Q302.7135,600.7188 301.9166,601.0469 Q300.8698,601.5 299.5885,601.5 Q298.0885,601.5 296.8854,600.9063 Q295.9166,600.4375 295.2291,599.4219 Q294.5573,598.4063 294.5573,597.2031 L294.5573,596.1094 Q294.5573,594.8594 295.151,593.7656 Q295.7604,592.6719 296.8073,592.0938 Q297.8698,591.5 299.0573,591.5 Q299.776,591.5 300.401,591.75 Q301.026,592 301.5573,592.5 Z " fill="#000000"/><text fill="#000000" font-family="sans-serif" font-size="12" lengthAdjust="spacing" textLength="134" x="314.0573" y="600.9102">ResourcesInProjectDTO</text><line style="stroke:#A80036;stroke-width:1.5;" x1="283.3073" x2="452.3073" y1="612" y2="612"/><text fill="#000000" font-family="sans-serif" font-size="11" lengthAdjust="spacing" textLength="159" x="288.3073" y="627.4189">-String associatedAccountName;</text><text fill="#000000" font-family="sans-serif" font-size="11" lengthAdjust="spacing" textLength="156" x="288.3073" y="641.2549">-String associatedAccountEmail;</text><text fill="#000000" font-family="sans-serif" font-size="11" lengthAdjust="spacing" textLength="159" x="288.3073" y="655.0908">-String associatedResourceRole;</text><text fill="#000000" font-family="sans-serif" font-size="11" lengthAdjust="spacing" textLength="102" x="288.3073" y="668.9268">-LocalDate startDate;</text><text fill="#000000" font-family="sans-serif" font-size="11" lengthAdjust="spacing" textLength="98" x="288.3073" y="682.7627">-LocalDate endDate;</text><line style="stroke:#A80036;stroke-width:1.5;" x1="283.3073" x2="452.3073" y1="689.1797" y2="689.1797"/><!--MD5=[6b13f1b330d33795af281e5c1dfe1e98]
class Resource--><rect codeLine="41" fill="#FEFECE" filter="url(#f10ca3fe2t8c83)" height="117.1797" id="Resource" style="stroke:#A80036;stroke-width:1.5;" width="201" x="533.3073" y="403"/><ellipse cx="602.5573" cy="419" fill="#ADD1B2" rx="11" ry="11" style="stroke:#A80036;stroke-width:1.0;"/><path d="M604.5573,415.5 Q604.7604,415 604.9948,414.75 Q605.2291,414.5 605.4948,414.5 Q605.9635,414.5 606.2604,414.7813 Q606.5573,415.0625 606.5573,415.7188 L606.5573,417.2813 Q606.5573,417.9375 606.276,418.2188 Q605.9948,418.5 605.5573,418.5 Q605.1666,418.5 604.9166,418.3281 Q604.6666,418.1563 604.5573,417.7031 Q604.5104,417.3906 604.3385,417.2188 Q604.026,416.8906 603.4635,416.7031 Q602.901,416.5 602.3385,416.5 Q601.6354,416.5 601.0416,416.7813 Q600.4635,417.0625 600.0104,417.6875 Q599.5573,418.3125 599.5573,419.1719 L599.5573,420.0938 Q599.5573,421.125 600.401,421.8125 Q601.2448,422.5 602.7448,422.5 Q603.6354,422.5 604.2604,422.2969 Q604.6198,422.1875 605.026,421.8281 Q605.2916,421.625 605.4323,421.5625 Q605.5729,421.5 605.7448,421.5 Q606.0729,421.5 606.3073,421.7656 Q606.5573,422.0156 606.5573,422.375 Q606.5573,422.7188 606.2135,423.125 Q605.7135,423.7188 604.9166,424.0469 Q603.8698,424.5 602.5885,424.5 Q601.0885,424.5 599.8854,423.9063 Q598.9166,423.4375 598.2291,422.4219 Q597.5573,421.4063 597.5573,420.2031 L597.5573,419.1094 Q597.5573,417.8594 598.151,416.7656 Q598.7604,415.6719 599.8073,415.0938 Q600.8698,414.5 602.0573,414.5 Q602.776,414.5 603.401,414.75 Q604.026,415 604.5573,415.5 Z " fill="#000000"/><text fill="#000000" font-family="sans-serif" font-size="12" lengthAdjust="spacing" textLength="54" x="623.0573" y="423.9102">Resource</text><line style="stroke:#A80036;stroke-width:1.5;" x1="534.3073" x2="733.3073" y1="435" y2="435"/><line style="stroke:#A80036;stroke-width:1.5;" x1="534.3073" x2="733.3073" y1="443" y2="443"/><text fill="#000000" font-family="sans-serif" font-size="11" lengthAdjust="spacing" textLength="148" x="539.3073" y="458.4189">+getAssociatedName() : String</text><text fill="#000000" font-family="sans-serif" font-size="11" lengthAdjust="spacing" textLength="145" x="539.3073" y="472.2549">+getAssociatedEmail() : String</text><text fill="#000000" font-family="sans-serif" font-size="11" lengthAdjust="spacing" textLength="189" x="539.3073" y="486.0908">+getAssociatedResourceRole() : String</text><text fill="#000000" font-family="sans-serif" font-size="11" lengthAdjust="spacing" textLength="175" x="539.3073" y="499.9268">+getResourceStarDate() : LocalDate</text><text fill="#000000" font-family="sans-serif" font-size="11" lengthAdjust="spacing" textLength="173" x="539.3073" y="513.7627">+getResourceEndDate() : LocalDate</text><!--MD5=[28c6cb6aaa5a54044b22bb143dcbe074]
link SearchResourcesUI to ListResourcesInProjectController--><path codeLine="50" d="M172.0373,45 C182.0273,45 192.0073,45 201.9973,45 " fill="none" id="SearchResourcesUI-to-ListResourcesInProjectController" style="stroke:#A80036;stroke-width:1.0;stroke-dasharray:7.0,7.0;"/><polygon fill="#A80036" points="207.2173,45,198.2173,41,202.2173,45,198.2173,49,207.2173,45" style="stroke:#A80036;stroke-width:1.0;"/><!--MD5=[9f7244facdb7ad6c05439c5d47e9e089]
link ListResourcesInProjectController to ITCompany--><path codeLine="51" d="M324.5173,83.07 C303.6573,101.05 278.3273,123.03 255.8073,143 C233.1173,163.12 208.0573,185.85 187.6873,204.45 " fill="none" id="ListResourcesInProjectController-to-ITCompany" style="stroke:#A80036;stroke-width:1.0;stroke-dasharray:7.0,7.0;"/><polygon fill="#A80036" points="183.9373,207.87,193.2778,204.7469,187.6266,204.4953,187.8783,198.844,183.9373,207.87" style="stroke:#A80036;stroke-width:1.0;"/><text fill="#000000" font-family="sans-serif" font-size="13" lengthAdjust="spacing" textLength="65" x="119.8198" y="197.1747">ITCompany</text><!--MD5=[9d190966e5c36ccfda4ae63b32675f81]
link ITCompany to ProjectStore--><path codeLine="52" d="M140.1473,278.31 C132.3773,318.36 119.5973,384.28 111.7172,424.89 " fill="none" id="ITCompany-to-ProjectStore" style="stroke:#A80036;stroke-width:1.0;"/><polygon fill="#A80036" points="110.6872,430.2,116.3114,422.1149,111.6294,425.2896,108.4547,420.6075,110.6872,430.2" style="stroke:#A80036;stroke-width:1.0;"/><text fill="#000000" font-family="sans-serif" font-size="13" lengthAdjust="spacing" textLength="7" x="131.3375" y="299.5489">1</text><text fill="#000000" font-family="sans-serif" font-size="13" lengthAdjust="spacing" textLength="96" x="6" y="419.6427">allProjectStore 1</text><!--MD5=[26e6e35c50a3e50458a967b2f545898f]
link Project to ProjectStore--><path codeLine="53" d="M273.5973,321.55 C232.1973,355.64 185.4073,394.15 151.6073,421.97 " fill="none" id="Project-to-ProjectStore" style="stroke:#A80036;stroke-width:1.0;"/><polygon fill="#FFFFFF" points="141.5573,430.25,148.7322,429.5292,150.8265,422.6289,143.6515,423.3497,141.5573,430.25" style="stroke:#A80036;stroke-width:1.0;"/><text fill="#000000" font-family="sans-serif" font-size="13" lengthAdjust="spacing" textLength="66" x="199.8454" y="323.349">projects 0.*</text><text fill="#000000" font-family="sans-serif" font-size="13" lengthAdjust="spacing" textLength="7" x="141.4151" y="419.703">1</text><!--MD5=[9db8c24d8fc7e13a460c9d9c9a600688]
link ListResourcesInProjectController to Project--><path codeLine="54" d="M367.8073,83.33 C367.8073,98.96 367.8073,117.99 367.8073,137.37 " fill="none" id="ListResourcesInProjectController-to-Project" style="stroke:#A80036;stroke-width:1.0;stroke-dasharray:7.0,7.0;"/><polygon fill="#A80036" points="367.8073,142.84,371.8073,133.84,367.8073,137.84,363.8073,133.84,367.8073,142.84" style="stroke:#A80036;stroke-width:1.0;"/><!--MD5=[787bd0ddd21a13a4943619145ee998fc]
link ListResourcesInProjectController to Resource--><path codeLine="55" d="M419.3073,83.21 C439.9073,99.87 462.7473,120.75 479.8073,143 C541.0673,222.87 587.1373,331 612.2673,398.22 " fill="none" id="ListResourcesInProjectController-to-Resource" style="stroke:#A80036;stroke-width:1.0;stroke-dasharray:7.0,7.0;"/><polygon fill="#A80036" points="614.0373,402.99,614.6488,393.1601,612.2942,398.3037,607.1506,395.9491,614.0373,402.99" style="stroke:#A80036;stroke-width:1.0;"/><!--MD5=[0bef9f8d7067a121dd96a530c1f2080d]
link Project to Resource--><path codeLine="56" d="M461.9673,320.63 C493.7173,346.48 528.7072,374.96 558.7773,399.44 " fill="none" id="Project-to-Resource" style="stroke:#A80036;stroke-width:1.0;"/><polygon fill="#A80036" points="562.7973,402.71,558.3346,393.9302,558.9167,399.557,553.2899,400.1391,562.7973,402.71" style="stroke:#A80036;stroke-width:1.0;"/><text fill="#000000" font-family="sans-serif" font-size="13" lengthAdjust="spacing" textLength="7" x="469.7495" y="323.68">1</text><text fill="#000000" font-family="sans-serif" font-size="13" lengthAdjust="spacing" textLength="91" x="457.5976" y="392.0756">projectTeam 0.*</text><!--MD5=[231161ad34bcbd0aebf9d5c703e6a4f9]
link Project to ResourceMapper--><path codeLine="57" d="M367.8073,343.06 C367.8073,372.34 367.8073,402.51 367.8073,424.95 " fill="none" id="Project-to-ResourceMapper" style="stroke:#A80036;stroke-width:1.0;"/><polygon fill="#A80036" points="367.8073,430.19,371.8073,421.19,367.8073,425.19,363.8073,421.19,367.8073,430.19" style="stroke:#A80036;stroke-width:1.0;"/><text fill="#000000" font-family="sans-serif" font-size="13" lengthAdjust="spacing" textLength="7" x="356.3862" y="364.8344">1</text><text fill="#000000" font-family="sans-serif" font-size="13" lengthAdjust="spacing" textLength="82" x="277.351" y="419.6306">projectTeam 1</text><!--MD5=[e58d229e98854de04c1dabb03520635c]
reverse link ResourceMapper to ResourcesInProjectDTO--><path codeLine="58" d="M367.8073,505.76 C367.8073,528.14 367.8073,555.75 367.8073,579.91 " fill="none" id="ResourceMapper-backto-ResourcesInProjectDTO" style="stroke:#A80036;stroke-width:1.0;"/><polygon fill="#FFFFFF" points="367.8073,492.58,363.8073,498.58,367.8073,504.58,371.8073,498.58,367.8073,492.58" style="stroke:#A80036;stroke-width:1.0;"/><text fill="#000000" font-family="sans-serif" font-size="13" lengthAdjust="spacing" textLength="7" x="360.1182" y="513.8197">1</text><text fill="#000000" font-family="sans-serif" font-size="13" lengthAdjust="spacing" textLength="16" x="350.8323" y="569.2999">0.*</text><!--MD5=[293691fb6aaa80fca09a9cf29e30bd1c]
@startuml
skinparam classAttributeIconSize 0
class SearchResourcesUI
class ListResourcesInProjectController{

    +ListResourcesInProjectController()
    +findProjectResources(int code) : List<ResourcesInProjectDTO>
}
class ITCompany << (S,#FF7700) Singleton>>{

    +getProjectStore()
}
class ProjectStore{

    +findProjectByCode(int code) : Project
}
class Project{

    -int code
    -String name
    -String description
    -LocalDate startDate
    -int sprintDuration
    -int plannedSprints
    -LocalDate endDate
    -String projectStatus
    -double budget

    +hasId(int id) : boolean
    +getProjectTeam () : List<Resource>
}
Class ResourceMapper{
+createlistResourcesInProjectDTO(List<Resource>)
}
Class ResourcesInProjectDTO{
    -String associatedAccountName;
    -String associatedAccountEmail;
    -String associatedResourceRole;
    -LocalDate startDate;
    -LocalDate endDate;
}
class Resource{


    +getAssociatedName() : String
    +getAssociatedEmail() : String
    +getAssociatedResourceRole() : String
    +getResourceStarDate() : LocalDate
    +getResourceEndDate() : LocalDate
}
SearchResourcesUI .right.> ListResourcesInProjectController
ListResourcesInProjectController ..> "ITCompany" ITCompany
ITCompany "1" - -> "allProjectStore 1" ProjectStore
ProjectStore "1" o- -left- -"projects 0.*" Project
ListResourcesInProjectController..> Project
ListResourcesInProjectController ..> Resource
Project "1"- ->"projectTeam 0.*" Resource
Project "1 " - -> "projectTeam 1" ResourceMapper
ResourceMapper "1" o- - "0.*"ResourcesInProjectDTO

@enduml

PlantUML version 1.2022.0(Tue Jan 11 16:16:42 GMT 2022)
(GPL source distribution)
Java Runtime: OpenJDK Runtime Environment
JVM: OpenJDK 64-Bit Server VM
Default Encoding: Cp1252
Language: pt
Country: PT
--></g></svg>