<?xml version="1.0" encoding="UTF-8" standalone="no"?><svg xmlns="http://www.w3.org/2000/svg" xmlns:xlink="http://www.w3.org/1999/xlink" contentScriptType="application/ecmascript" contentStyleType="text/css" height="1146px" preserveAspectRatio="none" style="width:740px;height:1146px;background:#FFFFFF;" version="1.1" viewBox="0 0 740 1146" width="740px" zoomAndPan="magnify"><defs><filter height="300%" id="f1f7jdssnsjw8m" width="300%" x="-1" y="-1"><feGaussianBlur result="blurOut" stdDeviation="2.0"/><feColorMatrix in="blurOut" result="blurOut2" type="matrix" values="0 0 0 0 0 0 0 0 0 0 0 0 0 0 0 0 0 0 .4 0"/><feOffset dx="4.0" dy="4.0" in="blurOut2" result="blurOut3"/><feBlend in="SourceGraphic" in2="blurOut3" mode="normal"/></filter></defs><g><!--MD5=[3e4c10e33a4194af01d1bdf6f4b12f5e]
class SearchResourcesUI--><rect codeLine="2" fill="#FEFECE" filter="url(#f1f7jdssnsjw8m)" height="48" id="SearchResourcesUI" style="stroke:#A80036;stroke-width:1.5;" width="144" x="119.5" y="7"/><ellipse cx="134.5" cy="23" fill="#ADD1B2" rx="11" ry="11" style="stroke:#A80036;stroke-width:1.0;"/><path d="M136.5,19.5 Q136.7031,19 136.9375,18.75 Q137.1719,18.5 137.4375,18.5 Q137.9063,18.5 138.2031,18.7813 Q138.5,19.0625 138.5,19.7188 L138.5,21.2813 Q138.5,21.9375 138.2188,22.2188 Q137.9375,22.5 137.5,22.5 Q137.1094,22.5 136.8594,22.3281 Q136.6094,22.1563 136.5,21.7031 Q136.4531,21.3906 136.2813,21.2188 Q135.9688,20.8906 135.4063,20.7031 Q134.8438,20.5 134.2813,20.5 Q133.5781,20.5 132.9844,20.7813 Q132.4063,21.0625 131.9531,21.6875 Q131.5,22.3125 131.5,23.1719 L131.5,24.0938 Q131.5,25.125 132.3438,25.8125 Q133.1875,26.5 134.6875,26.5 Q135.5781,26.5 136.2031,26.2969 Q136.5625,26.1875 136.9688,25.8281 Q137.2344,25.625 137.375,25.5625 Q137.5156,25.5 137.6875,25.5 Q138.0156,25.5 138.25,25.7656 Q138.5,26.0156 138.5,26.375 Q138.5,26.7188 138.1563,27.125 Q137.6563,27.7188 136.8594,28.0469 Q135.8125,28.5 134.5313,28.5 Q133.0313,28.5 131.8281,27.9063 Q130.8594,27.4375 130.1719,26.4219 Q129.5,25.4063 129.5,24.2031 L129.5,23.1094 Q129.5,21.8594 130.0938,20.7656 Q130.7031,19.6719 131.75,19.0938 Q132.8125,18.5 134,18.5 Q134.7188,18.5 135.3438,18.75 Q135.9688,19 136.5,19.5 Z " fill="#000000"/><text fill="#000000" font-family="sans-serif" font-size="12" lengthAdjust="spacing" textLength="112" x="148.5" y="27.9102">SearchResourcesUI</text><line style="stroke:#A80036;stroke-width:1.5;" x1="120.5" x2="262.5" y1="39" y2="39"/><line style="stroke:#A80036;stroke-width:1.5;" x1="120.5" x2="262.5" y1="47" y2="47"/><!--MD5=[2aa2bc28b1a7c336d5682383be9ca353]
class ListResourcesInProjectController--><rect codeLine="3" fill="#FEFECE" filter="url(#f1f7jdssnsjw8m)" height="75.6719" id="ListResourcesInProjectController" style="stroke:#A80036;stroke-width:1.5;" width="321" x="31" y="115"/><ellipse cx="95.75" cy="131" fill="#ADD1B2" rx="11" ry="11" style="stroke:#A80036;stroke-width:1.0;"/><path d="M97.75,127.5 Q97.9531,127 98.1875,126.75 Q98.4219,126.5 98.6875,126.5 Q99.1563,126.5 99.4531,126.7813 Q99.75,127.0625 99.75,127.7188 L99.75,129.2813 Q99.75,129.9375 99.4688,130.2188 Q99.1875,130.5 98.75,130.5 Q98.3594,130.5 98.1094,130.3281 Q97.8594,130.1563 97.75,129.7031 Q97.7031,129.3906 97.5313,129.2188 Q97.2188,128.8906 96.6563,128.7031 Q96.0938,128.5 95.5313,128.5 Q94.8281,128.5 94.2344,128.7813 Q93.6563,129.0625 93.2031,129.6875 Q92.75,130.3125 92.75,131.1719 L92.75,132.0938 Q92.75,133.125 93.5938,133.8125 Q94.4375,134.5 95.9375,134.5 Q96.8281,134.5 97.4531,134.2969 Q97.8125,134.1875 98.2188,133.8281 Q98.4844,133.625 98.625,133.5625 Q98.7656,133.5 98.9375,133.5 Q99.2656,133.5 99.5,133.7656 Q99.75,134.0156 99.75,134.375 Q99.75,134.7188 99.4063,135.125 Q98.9063,135.7188 98.1094,136.0469 Q97.0625,136.5 95.7813,136.5 Q94.2813,136.5 93.0781,135.9063 Q92.1094,135.4375 91.4219,134.4219 Q90.75,133.4063 90.75,132.2031 L90.75,131.1094 Q90.75,129.8594 91.3438,128.7656 Q91.9531,127.6719 93,127.0938 Q94.0625,126.5 95.25,126.5 Q95.9688,126.5 96.5938,126.75 Q97.2188,127 97.75,127.5 Z " fill="#000000"/><text fill="#000000" font-family="sans-serif" font-size="12" lengthAdjust="spacing" textLength="183" x="116.25" y="135.9102">ListResourcesInProjectController</text><line style="stroke:#A80036;stroke-width:1.5;" x1="32" x2="351" y1="147" y2="147"/><line style="stroke:#A80036;stroke-width:1.5;" x1="32" x2="351" y1="155" y2="155"/><text fill="#000000" font-family="sans-serif" font-size="11" lengthAdjust="spacing" textLength="171" x="37" y="170.4189">+ListResourcesInProjectController()</text><text fill="#000000" font-family="sans-serif" font-size="11" lengthAdjust="spacing" textLength="309" x="37" y="184.2549">+findProjectResources(int code) : List&lt;ResourcesInProjectDTO&gt;</text><!--MD5=[13bce23176f178ec6522722b4c2b76e3]
class ITCompany--><rect codeLine="8" fill="#FEFECE" filter="url(#f1f7jdssnsjw8m)" height="70.0234" id="ITCompany" style="stroke:#A80036;stroke-width:1.5;" width="100" x="387.5" y="118"/><ellipse cx="404.75" cy="138.0938" fill="#FF7700" rx="11" ry="11" style="stroke:#A80036;stroke-width:1.0;"/><path d="M403.25,142.0938 Q402.9688,142.7344 402.7813,142.9219 Q402.6094,143.0938 402.3594,143.0938 Q401.8594,143.0938 401.5469,142.875 Q401.25,142.6406 401.25,142.0938 L401.25,141.0938 Q401.25,140.5469 401.5,140.3281 Q401.75,140.0938 402.1563,140.0938 Q402.4688,140.0938 402.6875,140.1719 Q402.9063,140.25 403.0156,140.4375 Q403.125,140.625 403.25,140.6875 Q403.4063,140.8281 403.8125,140.9688 Q404.2188,141.0938 404.7031,141.0938 Q405.4531,141.0938 405.9375,140.6406 Q406.25,140.375 406.25,139.9844 Q406.25,139.7188 406.0938,139.4844 Q405.9375,139.25 405.5938,139.0938 Q405.375,138.9844 404.5938,138.8125 Q403.1406,138.5938 402.625,138.25 Q402.125,137.9063 401.6875,137.2969 Q401.25,136.6719 401.25,135.9531 Q401.25,134.8125 402.1094,133.9531 Q402.9844,133.0938 404.3594,133.0938 Q404.9219,133.0938 405.2031,133.3438 Q405.4844,133.5938 406.25,134.0938 Q406.6875,133.0938 407.125,133.0938 Q407.625,133.0938 407.9375,133.3125 Q408.25,133.5313 408.25,134.0469 L408.25,135.125 Q408.25,135.6563 408,135.875 Q407.75,136.0938 407.3594,136.0938 Q407.0313,136.0938 406.7813,136 Q406.5938,135.9375 406.5,135.7344 Q406.4063,135.5313 406.25,135.4531 Q406.0625,135.2969 405.6875,135.2031 Q405.3125,135.0938 404.8125,135.0938 Q404.0938,135.0938 403.6719,135.4531 Q403.25,135.8125 403.25,136.2031 Q403.25,136.4688 403.3906,136.7188 Q403.5469,136.9531 403.8438,137.0938 Q404.0313,137.1875 405.1094,137.4063 Q406.1875,137.625 406.7344,137.9219 Q407.2813,138.2031 407.7656,138.8125 Q408.25,139.4219 408.25,140.2813 Q408.25,141.4531 407.5781,142.1563 Q406.6719,143.0938 405.2813,143.0938 Q404.75,143.0938 404.2344,142.8438 Q403.7344,142.5938 403.25,142.0938 Z " fill="#000000"/><text fill="#000000" font-family="sans-serif" font-size="12" font-style="italic" lengthAdjust="spacing" textLength="66" x="417.75" y="135.457">«Singleton»</text><text fill="#000000" font-family="sans-serif" font-size="12" lengthAdjust="spacing" textLength="63" x="419.25" y="150.5508">ITCompany</text><line style="stroke:#A80036;stroke-width:1.5;" x1="388.5" x2="486.5" y1="158.1875" y2="158.1875"/><line style="stroke:#A80036;stroke-width:1.5;" x1="388.5" x2="486.5" y1="166.1875" y2="166.1875"/><text fill="#000000" font-family="sans-serif" font-size="11" lengthAdjust="spacing" textLength="88" x="393.5" y="181.6064">+getProjectStore()</text><!--MD5=[0cf43f64de24b70e8ffe65ff9ee7abee]
class ProjectStore--><rect codeLine="12" fill="#FEFECE" filter="url(#f1f7jdssnsjw8m)" height="61.8359" id="ProjectStore" style="stroke:#A80036;stroke-width:1.5;" width="195" x="340" y="251"/><ellipse cx="399.75" cy="267" fill="#ADD1B2" rx="11" ry="11" style="stroke:#A80036;stroke-width:1.0;"/><path d="M401.75,263.5 Q401.9531,263 402.1875,262.75 Q402.4219,262.5 402.6875,262.5 Q403.1563,262.5 403.4531,262.7813 Q403.75,263.0625 403.75,263.7188 L403.75,265.2813 Q403.75,265.9375 403.4688,266.2188 Q403.1875,266.5 402.75,266.5 Q402.3594,266.5 402.1094,266.3281 Q401.8594,266.1563 401.75,265.7031 Q401.7031,265.3906 401.5313,265.2188 Q401.2188,264.8906 400.6563,264.7031 Q400.0938,264.5 399.5313,264.5 Q398.8281,264.5 398.2344,264.7813 Q397.6563,265.0625 397.2031,265.6875 Q396.75,266.3125 396.75,267.1719 L396.75,268.0938 Q396.75,269.125 397.5938,269.8125 Q398.4375,270.5 399.9375,270.5 Q400.8281,270.5 401.4531,270.2969 Q401.8125,270.1875 402.2188,269.8281 Q402.4844,269.625 402.625,269.5625 Q402.7656,269.5 402.9375,269.5 Q403.2656,269.5 403.5,269.7656 Q403.75,270.0156 403.75,270.375 Q403.75,270.7188 403.4063,271.125 Q402.9063,271.7188 402.1094,272.0469 Q401.0625,272.5 399.7813,272.5 Q398.2813,272.5 397.0781,271.9063 Q396.1094,271.4375 395.4219,270.4219 Q394.75,269.4063 394.75,268.2031 L394.75,267.1094 Q394.75,265.8594 395.3438,264.7656 Q395.9531,263.6719 397,263.0938 Q398.0625,262.5 399.25,262.5 Q399.9688,262.5 400.5938,262.75 Q401.2188,263 401.75,263.5 Z " fill="#000000"/><text fill="#000000" font-family="sans-serif" font-size="12" lengthAdjust="spacing" textLength="67" x="420.25" y="271.9102">ProjectStore</text><line style="stroke:#A80036;stroke-width:1.5;" x1="341" x2="534" y1="283" y2="283"/><line style="stroke:#A80036;stroke-width:1.5;" x1="341" x2="534" y1="291" y2="291"/><text fill="#000000" font-family="sans-serif" font-size="11" lengthAdjust="spacing" textLength="183" x="346" y="306.4189">+findProjectByCode(int code) : Project</text><!--MD5=[79d378210367c0c6ec62ef762ddfbd1b]
class Project--><rect codeLine="16" fill="#FEFECE" filter="url(#f1f7jdssnsjw8m)" height="200.1953" id="Project" style="stroke:#A80036;stroke-width:1.5;" width="259" x="308" y="373"/><ellipse cx="414.25" cy="389" fill="#ADD1B2" rx="11" ry="11" style="stroke:#A80036;stroke-width:1.0;"/><path d="M416.25,385.5 Q416.4531,385 416.6875,384.75 Q416.9219,384.5 417.1875,384.5 Q417.6563,384.5 417.9531,384.7813 Q418.25,385.0625 418.25,385.7188 L418.25,387.2813 Q418.25,387.9375 417.9688,388.2188 Q417.6875,388.5 417.25,388.5 Q416.8594,388.5 416.6094,388.3281 Q416.3594,388.1563 416.25,387.7031 Q416.2031,387.3906 416.0313,387.2188 Q415.7188,386.8906 415.1563,386.7031 Q414.5938,386.5 414.0313,386.5 Q413.3281,386.5 412.7344,386.7813 Q412.1563,387.0625 411.7031,387.6875 Q411.25,388.3125 411.25,389.1719 L411.25,390.0938 Q411.25,391.125 412.0938,391.8125 Q412.9375,392.5 414.4375,392.5 Q415.3281,392.5 415.9531,392.2969 Q416.3125,392.1875 416.7188,391.8281 Q416.9844,391.625 417.125,391.5625 Q417.2656,391.5 417.4375,391.5 Q417.7656,391.5 418,391.7656 Q418.25,392.0156 418.25,392.375 Q418.25,392.7188 417.9063,393.125 Q417.4063,393.7188 416.6094,394.0469 Q415.5625,394.5 414.2813,394.5 Q412.7813,394.5 411.5781,393.9063 Q410.6094,393.4375 409.9219,392.4219 Q409.25,391.4063 409.25,390.2031 L409.25,389.1094 Q409.25,387.8594 409.8438,386.7656 Q410.4531,385.6719 411.5,385.0938 Q412.5625,384.5 413.75,384.5 Q414.4688,384.5 415.0938,384.75 Q415.7188,385 416.25,385.5 Z " fill="#000000"/><text fill="#000000" font-family="sans-serif" font-size="12" lengthAdjust="spacing" textLength="38" x="434.75" y="393.9102">Project</text><line style="stroke:#A80036;stroke-width:1.5;" x1="309" x2="566" y1="405" y2="405"/><text fill="#000000" font-family="sans-serif" font-size="11" lengthAdjust="spacing" textLength="42" x="314" y="420.4189">-int code</text><text fill="#000000" font-family="sans-serif" font-size="11" lengthAdjust="spacing" textLength="61" x="314" y="434.2549">-String name</text><text fill="#000000" font-family="sans-serif" font-size="11" lengthAdjust="spacing" textLength="88" x="314" y="448.0908">-String description</text><text fill="#000000" font-family="sans-serif" font-size="11" lengthAdjust="spacing" textLength="99" x="314" y="461.9268">-LocalDate startDate</text><text fill="#000000" font-family="sans-serif" font-size="11" lengthAdjust="spacing" textLength="85" x="314" y="475.7627">-int sprintDuration</text><text fill="#000000" font-family="sans-serif" font-size="11" lengthAdjust="spacing" textLength="90" x="314" y="489.5986">-int plannedSprints</text><text fill="#000000" font-family="sans-serif" font-size="11" lengthAdjust="spacing" textLength="95" x="314" y="503.4346">-LocalDate endDate</text><text fill="#000000" font-family="sans-serif" font-size="11" lengthAdjust="spacing" textLength="99" x="314" y="517.2705">-String projectStatus</text><text fill="#000000" font-family="sans-serif" font-size="11" lengthAdjust="spacing" textLength="72" x="314" y="531.1064">-double budget</text><line style="stroke:#A80036;stroke-width:1.5;" x1="309" x2="566" y1="537.5234" y2="537.5234"/><text fill="#000000" font-family="sans-serif" font-size="11" lengthAdjust="spacing" textLength="109" x="314" y="552.9424">+hasId(int id) : boolean</text><text fill="#000000" font-family="sans-serif" font-size="11" lengthAdjust="spacing" textLength="247" x="314" y="566.7783">+getProjectTeam () : List &lt;ResourcesInProjectDTO&gt;</text><!--MD5=[5977484278a43c7196984dcd872a8731]
class ResourceList--><rect codeLine="32" fill="#FEFECE" filter="url(#f1f7jdssnsjw8m)" height="61.8359" id="ResourceList" style="stroke:#A80036;stroke-width:1.5;" width="259" x="308" y="633"/><ellipse cx="396.25" cy="649" fill="#ADD1B2" rx="11" ry="11" style="stroke:#A80036;stroke-width:1.0;"/><path d="M398.25,645.5 Q398.4531,645 398.6875,644.75 Q398.9219,644.5 399.1875,644.5 Q399.6563,644.5 399.9531,644.7813 Q400.25,645.0625 400.25,645.7188 L400.25,647.2813 Q400.25,647.9375 399.9688,648.2188 Q399.6875,648.5 399.25,648.5 Q398.8594,648.5 398.6094,648.3281 Q398.3594,648.1563 398.25,647.7031 Q398.2031,647.3906 398.0313,647.2188 Q397.7188,646.8906 397.1563,646.7031 Q396.5938,646.5 396.0313,646.5 Q395.3281,646.5 394.7344,646.7813 Q394.1563,647.0625 393.7031,647.6875 Q393.25,648.3125 393.25,649.1719 L393.25,650.0938 Q393.25,651.125 394.0938,651.8125 Q394.9375,652.5 396.4375,652.5 Q397.3281,652.5 397.9531,652.2969 Q398.3125,652.1875 398.7188,651.8281 Q398.9844,651.625 399.125,651.5625 Q399.2656,651.5 399.4375,651.5 Q399.7656,651.5 400,651.7656 Q400.25,652.0156 400.25,652.375 Q400.25,652.7188 399.9063,653.125 Q399.4063,653.7188 398.6094,654.0469 Q397.5625,654.5 396.2813,654.5 Q394.7813,654.5 393.5781,653.9063 Q392.6094,653.4375 391.9219,652.4219 Q391.25,651.4063 391.25,650.2031 L391.25,649.1094 Q391.25,647.8594 391.8438,646.7656 Q392.4531,645.6719 393.5,645.0938 Q394.5625,644.5 395.75,644.5 Q396.4688,644.5 397.0938,644.75 Q397.7188,645 398.25,645.5 Z " fill="#000000"/><text fill="#000000" font-family="sans-serif" font-size="12" lengthAdjust="spacing" textLength="74" x="416.75" y="653.9102">ResourceList</text><line style="stroke:#A80036;stroke-width:1.5;" x1="309" x2="566" y1="665" y2="665"/><line style="stroke:#A80036;stroke-width:1.5;" x1="309" x2="566" y1="673" y2="673"/><text fill="#000000" font-family="sans-serif" font-size="11" lengthAdjust="spacing" textLength="247" x="314" y="688.4189">+getProjectTeam () : List &lt;ResourcesInProjectDTO&gt;</text><!--MD5=[e3dc1c3c8e22fea8df8fad83e7b48fc6]
class ResourceMapper--><rect codeLine="36" fill="#FEFECE" filter="url(#f1f7jdssnsjw8m)" height="61.8359" id="ResourceMapper" style="stroke:#A80036;stroke-width:1.5;" width="479" x="11" y="810.5"/><ellipse cx="198.75" cy="826.5" fill="#ADD1B2" rx="11" ry="11" style="stroke:#A80036;stroke-width:1.0;"/><path d="M200.75,823 Q200.9531,822.5 201.1875,822.25 Q201.4219,822 201.6875,822 Q202.1563,822 202.4531,822.2813 Q202.75,822.5625 202.75,823.2188 L202.75,824.7813 Q202.75,825.4375 202.4688,825.7188 Q202.1875,826 201.75,826 Q201.3594,826 201.1094,825.8281 Q200.8594,825.6563 200.75,825.2031 Q200.7031,824.8906 200.5313,824.7188 Q200.2188,824.3906 199.6563,824.2031 Q199.0938,824 198.5313,824 Q197.8281,824 197.2344,824.2813 Q196.6563,824.5625 196.2031,825.1875 Q195.75,825.8125 195.75,826.6719 L195.75,827.5938 Q195.75,828.625 196.5938,829.3125 Q197.4375,830 198.9375,830 Q199.8281,830 200.4531,829.7969 Q200.8125,829.6875 201.2188,829.3281 Q201.4844,829.125 201.625,829.0625 Q201.7656,829 201.9375,829 Q202.2656,829 202.5,829.2656 Q202.75,829.5156 202.75,829.875 Q202.75,830.2188 202.4063,830.625 Q201.9063,831.2188 201.1094,831.5469 Q200.0625,832 198.7813,832 Q197.2813,832 196.0781,831.4063 Q195.1094,830.9375 194.4219,829.9219 Q193.75,828.9063 193.75,827.7031 L193.75,826.6094 Q193.75,825.3594 194.3438,824.2656 Q194.9531,823.1719 196,822.5938 Q197.0625,822 198.25,822 Q198.9688,822 199.5938,822.25 Q200.2188,822.5 200.75,823 Z " fill="#000000"/><text fill="#000000" font-family="sans-serif" font-size="12" lengthAdjust="spacing" textLength="95" x="219.25" y="831.4102">ResourceMapper</text><line style="stroke:#A80036;stroke-width:1.5;" x1="12" x2="489" y1="842.5" y2="842.5"/><line style="stroke:#A80036;stroke-width:1.5;" x1="12" x2="489" y1="850.5" y2="850.5"/><text fill="#000000" font-family="sans-serif" font-size="11" lengthAdjust="spacing" textLength="467" x="17" y="865.9189">+createlistResourcesInProjectDTO(List&lt;Resource&gt; projectTeam) : List &lt;ResourcesInProjectDTO&gt;</text><!--MD5=[ea57575c19a1a2bd13d9cc2f97aecaf9]
class ResourcesInProjectDTO--><rect codeLine="40" fill="#FEFECE" filter="url(#f1f7jdssnsjw8m)" height="144.8516" id="ResourcesInProjectDTO" style="stroke:#A80036;stroke-width:1.5;" width="487" x="7" y="988"/><ellipse cx="179.25" cy="1004" fill="#ADD1B2" rx="11" ry="11" style="stroke:#A80036;stroke-width:1.0;"/><path d="M181.25,1000.5 Q181.4531,1000 181.6875,999.75 Q181.9219,999.5 182.1875,999.5 Q182.6563,999.5 182.9531,999.7813 Q183.25,1000.0625 183.25,1000.7188 L183.25,1002.2813 Q183.25,1002.9375 182.9688,1003.2188 Q182.6875,1003.5 182.25,1003.5 Q181.8594,1003.5 181.6094,1003.3281 Q181.3594,1003.1563 181.25,1002.7031 Q181.2031,1002.3906 181.0313,1002.2188 Q180.7188,1001.8906 180.1563,1001.7031 Q179.5938,1001.5 179.0313,1001.5 Q178.3281,1001.5 177.7344,1001.7813 Q177.1563,1002.0625 176.7031,1002.6875 Q176.25,1003.3125 176.25,1004.1719 L176.25,1005.0938 Q176.25,1006.125 177.0938,1006.8125 Q177.9375,1007.5 179.4375,1007.5 Q180.3281,1007.5 180.9531,1007.2969 Q181.3125,1007.1875 181.7188,1006.8281 Q181.9844,1006.625 182.125,1006.5625 Q182.2656,1006.5 182.4375,1006.5 Q182.7656,1006.5 183,1006.7656 Q183.25,1007.0156 183.25,1007.375 Q183.25,1007.7188 182.9063,1008.125 Q182.4063,1008.7188 181.6094,1009.0469 Q180.5625,1009.5 179.2813,1009.5 Q177.7813,1009.5 176.5781,1008.9063 Q175.6094,1008.4375 174.9219,1007.4219 Q174.25,1006.4063 174.25,1005.2031 L174.25,1004.1094 Q174.25,1002.8594 174.8438,1001.7656 Q175.4531,1000.6719 176.5,1000.0938 Q177.5625,999.5 178.75,999.5 Q179.4688,999.5 180.0938,999.75 Q180.7188,1000 181.25,1000.5 Z " fill="#000000"/><text fill="#000000" font-family="sans-serif" font-size="12" lengthAdjust="spacing" textLength="134" x="199.75" y="1008.9102">ResourcesInProjectDTO</text><line style="stroke:#A80036;stroke-width:1.5;" x1="8" x2="493" y1="1020" y2="1020"/><text fill="#000000" font-family="sans-serif" font-size="11" lengthAdjust="spacing" textLength="159" x="13" y="1035.4189">-String associatedAccountName;</text><text fill="#000000" font-family="sans-serif" font-size="11" lengthAdjust="spacing" textLength="156" x="13" y="1049.2549">-String associatedAccountEmail;</text><text fill="#000000" font-family="sans-serif" font-size="11" lengthAdjust="spacing" textLength="159" x="13" y="1063.0908">-String associatedResourceRole;</text><text fill="#000000" font-family="sans-serif" font-size="11" lengthAdjust="spacing" textLength="102" x="13" y="1076.9268">-LocalDate startDate;</text><text fill="#000000" font-family="sans-serif" font-size="11" lengthAdjust="spacing" textLength="98" x="13" y="1090.7627">-LocalDate endDate;</text><line style="stroke:#A80036;stroke-width:1.5;" x1="8" x2="493" y1="1097.1797" y2="1097.1797"/><text fill="#000000" font-family="sans-serif" font-size="11" lengthAdjust="spacing" textLength="435" x="13" y="1112.5986">+resourcesInProjectDTO (String associatedAccountName, String associatedAccountEmail,</text><text fill="#000000" font-family="sans-serif" font-size="11" lengthAdjust="spacing" textLength="475" x="13" y="1126.4346">String associatedResourceRole, LocalDate startDate, LocalDate endDate) : resourcesInProjectDTO</text><!--MD5=[6b13f1b330d33795af281e5c1dfe1e98]
class Resource--><rect codeLine="50" fill="#FEFECE" filter="url(#f1f7jdssnsjw8m)" height="172.5234" id="Resource" style="stroke:#A80036;stroke-width:1.5;" width="201" x="525" y="755"/><ellipse cx="594.25" cy="771" fill="#ADD1B2" rx="11" ry="11" style="stroke:#A80036;stroke-width:1.0;"/><path d="M596.25,767.5 Q596.4531,767 596.6875,766.75 Q596.9219,766.5 597.1875,766.5 Q597.6563,766.5 597.9531,766.7813 Q598.25,767.0625 598.25,767.7188 L598.25,769.2813 Q598.25,769.9375 597.9688,770.2188 Q597.6875,770.5 597.25,770.5 Q596.8594,770.5 596.6094,770.3281 Q596.3594,770.1563 596.25,769.7031 Q596.2031,769.3906 596.0313,769.2188 Q595.7188,768.8906 595.1563,768.7031 Q594.5938,768.5 594.0313,768.5 Q593.3281,768.5 592.7344,768.7813 Q592.1563,769.0625 591.7031,769.6875 Q591.25,770.3125 591.25,771.1719 L591.25,772.0938 Q591.25,773.125 592.0938,773.8125 Q592.9375,774.5 594.4375,774.5 Q595.3281,774.5 595.9531,774.2969 Q596.3125,774.1875 596.7188,773.8281 Q596.9844,773.625 597.125,773.5625 Q597.2656,773.5 597.4375,773.5 Q597.7656,773.5 598,773.7656 Q598.25,774.0156 598.25,774.375 Q598.25,774.7188 597.9063,775.125 Q597.4063,775.7188 596.6094,776.0469 Q595.5625,776.5 594.2813,776.5 Q592.7813,776.5 591.5781,775.9063 Q590.6094,775.4375 589.9219,774.4219 Q589.25,773.4063 589.25,772.2031 L589.25,771.1094 Q589.25,769.8594 589.8438,768.7656 Q590.4531,767.6719 591.5,767.0938 Q592.5625,766.5 593.75,766.5 Q594.4688,766.5 595.0938,766.75 Q595.7188,767 596.25,767.5 Z " fill="#000000"/><text fill="#000000" font-family="sans-serif" font-size="12" lengthAdjust="spacing" textLength="54" x="614.75" y="775.9102">Resource</text><line style="stroke:#A80036;stroke-width:1.5;" x1="526" x2="725" y1="787" y2="787"/><text fill="#000000" font-family="sans-serif" font-size="11" lengthAdjust="spacing" textLength="102" x="531" y="802.4189">-LocalDate startDate;</text><text fill="#000000" font-family="sans-serif" font-size="11" lengthAdjust="spacing" textLength="156" x="531" y="816.2549">-double percentageOfAllocation;</text><text fill="#000000" font-family="sans-serif" font-size="11" lengthAdjust="spacing" textLength="102" x="531" y="830.0908">-double costPerHour;</text><text fill="#000000" font-family="sans-serif" font-size="11" lengthAdjust="spacing" textLength="98" x="531" y="843.9268">-LocalDate endDate;</text><line style="stroke:#A80036;stroke-width:1.5;" x1="526" x2="725" y1="850.3438" y2="850.3438"/><text fill="#000000" font-family="sans-serif" font-size="11" lengthAdjust="spacing" textLength="148" x="531" y="865.7627">+getAssociatedName() : String</text><text fill="#000000" font-family="sans-serif" font-size="11" lengthAdjust="spacing" textLength="145" x="531" y="879.5986">+getAssociatedEmail() : String</text><text fill="#000000" font-family="sans-serif" font-size="11" lengthAdjust="spacing" textLength="189" x="531" y="893.4346">+getAssociatedResourceRole() : String</text><text fill="#000000" font-family="sans-serif" font-size="11" lengthAdjust="spacing" textLength="175" x="531" y="907.2705">+getResourceStarDate() : LocalDate</text><text fill="#000000" font-family="sans-serif" font-size="11" lengthAdjust="spacing" textLength="173" x="531" y="921.1064">+getResourceEndDate() : LocalDate</text><!--MD5=[28c6cb6aaa5a54044b22bb143dcbe074]
link SearchResourcesUI to ListResourcesInProjectController--><path codeLine="62" d="M191.5,55.14 C191.5,70.58 191.5,91.33 191.5,109.67 " fill="none" id="SearchResourcesUI-to-ListResourcesInProjectController" style="stroke:#A80036;stroke-width:1.0;stroke-dasharray:7.0,7.0;"/><polygon fill="#A80036" points="191.5,114.77,195.5,105.77,191.5,109.77,187.5,105.77,191.5,114.77" style="stroke:#A80036;stroke-width:1.0;"/><!--MD5=[9f7244facdb7ad6c05439c5d47e9e089]
link ListResourcesInProjectController to ITCompany--><path codeLine="63" d="M352.46,153 C362.36,153 372.26,153 382.16,153 " fill="none" id="ListResourcesInProjectController-to-ITCompany" style="stroke:#A80036;stroke-width:1.0;"/><polygon fill="#A80036" points="387.34,153,378.34,149,382.34,153,378.34,157,387.34,153" style="stroke:#A80036;stroke-width:1.0;"/><text fill="#000000" font-family="sans-serif" font-size="13" lengthAdjust="spacing" textLength="65" x="314.1026" y="138.8762">ITCompany</text><!--MD5=[9d190966e5c36ccfda4ae63b32675f81]
link ITCompany to ProjectStore--><path codeLine="64" d="M437.5,188.03 C437.5,205.75 437.5,227.39 437.5,245.33 " fill="none" id="ITCompany-to-ProjectStore" style="stroke:#A80036;stroke-width:1.0;"/><polygon fill="#A80036" points="437.5,250.77,441.5,241.77,437.5,245.77,433.5,241.77,437.5,250.77" style="stroke:#A80036;stroke-width:1.0;"/><text fill="#000000" font-family="sans-serif" font-size="13" lengthAdjust="spacing" textLength="7" x="429.8547" y="209.489">1</text><text fill="#000000" font-family="sans-serif" font-size="13" lengthAdjust="spacing" textLength="96" x="331.6" y="240.2271">allProjectStore 1</text><!--MD5=[c2999c5e21c0a7115ef87c36c02875b6]
reverse link ProjectStore to Project--><path codeLine="65" d="M437.5,326.5 C437.5,340.4 437.5,356.4 437.5,372.59 " fill="none" id="ProjectStore-backto-Project" style="stroke:#A80036;stroke-width:1.0;"/><polygon fill="none" points="437.5,313.37,433.5,319.37,437.5,325.37,441.5,319.37,437.5,313.37" style="stroke:#A80036;stroke-width:1.0;"/><text fill="#000000" font-family="sans-serif" font-size="13" lengthAdjust="spacing" textLength="7" x="429.8328" y="334.4192">1</text><text fill="#000000" font-family="sans-serif" font-size="13" lengthAdjust="spacing" textLength="66" x="369.0766" y="362.1295">projects 0.*</text><!--MD5=[e66102db73ab58d92f23b3ce28ea4d72]
link Project to ResourceList--><path codeLine="66" d="M437.5,573.2 C437.5,592.74 437.5,612.01 437.5,627.66 " fill="none" id="Project-to-ResourceList" style="stroke:#A80036;stroke-width:1.0;"/><polygon fill="#A80036" points="437.5,632.82,441.5,623.82,437.5,627.82,433.5,623.82,437.5,632.82" style="stroke:#A80036;stroke-width:1.0;"/><text fill="#000000" font-family="sans-serif" font-size="13" lengthAdjust="spacing" textLength="7" x="426.0961" y="594.6468">1</text><text fill="#000000" font-family="sans-serif" font-size="13" lengthAdjust="spacing" textLength="82" x="347.0438" y="622.2874">projectTeam 1</text><!--MD5=[428a9da07ecc363986486a917afa4ee2]
link ResourceList to Resource--><path codeLine="67" d="M469.82,695.17 C486.69,710.92 508.31,731.1 530.03,751.38 " fill="none" id="ResourceList-to-Resource" style="stroke:#A80036;stroke-width:1.0;"/><polygon fill="#A80036" points="533.8,754.9,529.9687,745.8269,530.1519,751.4808,524.498,751.6639,533.8,754.9" style="stroke:#A80036;stroke-width:1.0;"/><text fill="#000000" font-family="sans-serif" font-size="13" lengthAdjust="spacing" textLength="7" x="468.4939" y="716.4275">1</text><text fill="#000000" font-family="sans-serif" font-size="13" lengthAdjust="spacing" textLength="91" x="430.5806" y="744.0067">projectTeam 0.*</text><!--MD5=[ac17d400f9ece1a137e29dcd267a3142]
link ResourceList to ResourceMapper--><path codeLine="68" d="M405.35,695.17 C372.21,726.28 320.64,774.68 286.23,806.97 " fill="none" id="ResourceList-to-ResourceMapper" style="stroke:#A80036;stroke-width:1.0;stroke-dasharray:7.0,7.0;"/><polygon fill="#A80036" points="282.54,810.43,291.8483,807.2121,286.1948,807.0179,286.389,801.3644,282.54,810.43" style="stroke:#A80036;stroke-width:1.0;"/><text fill="#000000" font-family="sans-serif" font-size="13" lengthAdjust="spacing" textLength="7" x="391.3314" y="716.4275">1</text><!--MD5=[5e99f6d078f004173c7b271ddd989b7c]
link ResourceMapper to ResourcesInProjectDTO--><path codeLine="70" d="M250.5,872.67 C250.5,901.09 250.5,944.87 250.5,982.9 " fill="none" id="ResourceMapper-to-ResourcesInProjectDTO" style="stroke:#A80036;stroke-width:1.0;stroke-dasharray:7.0,7.0;"/><polygon fill="#A80036" points="250.5,987.99,254.5,978.99,250.5,982.99,246.5,978.99,250.5,987.99" style="stroke:#A80036;stroke-width:1.0;"/><text fill="#000000" font-family="sans-serif" font-size="13" lengthAdjust="spacing" textLength="7" x="242.8109" y="893.9275">1</text><!--MD5=[84cdbd2931d0bbf6160dac4990ab1b0a]
@startuml
skinparam classAttributeIconSize 0
class SearchResourcesUI
class ListResourcesInProjectController{

    +ListResourcesInProjectController()
    +findProjectResources(int code) : List<ResourcesInProjectDTO>
}
class ITCompany << (S,#FF7700) Singleton>>{

    +getProjectStore()
}
class ProjectStore{

    +findProjectByCode(int code) : Project
}
class Project{

    -int code
    -String name
    -String description
    -LocalDate startDate
    -int sprintDuration
    -int plannedSprints
    -LocalDate endDate
    -String projectStatus
    -double budget

    +hasId(int id) : boolean
    +getProjectTeam () : List <ResourcesInProjectDTO>
}

class ResourceList{
    +getProjectTeam () : List <ResourcesInProjectDTO>
}

class ResourceMapper{
+createlistResourcesInProjectDTO(List<Resource> projectTeam) : List <ResourcesInProjectDTO>
}

class ResourcesInProjectDTO{
    -String associatedAccountName;
    -String associatedAccountEmail;
    -String associatedResourceRole;
    -LocalDate startDate;
    -LocalDate endDate;

+resourcesInProjectDTO (String associatedAccountName, String associatedAccountEmail,
                                      String associatedResourceRole, LocalDate startDate, LocalDate endDate) : resourcesInProjectDTO
}
class Resource{
-LocalDate startDate;
-double percentageOfAllocation;
-double costPerHour;
-LocalDate endDate;

    +getAssociatedName() : String
    +getAssociatedEmail() : String
    +getAssociatedResourceRole() : String
    +getResourceStarDate() : LocalDate
    +getResourceEndDate() : LocalDate
}
SearchResourcesUI ..> ListResourcesInProjectController
ListResourcesInProjectController -> "ITCompany" ITCompany
ITCompany "1" - -> "allProjectStore 1" ProjectStore
ProjectStore "1" o- -"projects 0.*" Project
Project "1 " - -> "projectTeam 1" ResourceList
ResourceList "1"- ->"projectTeam 0.*" Resource
ResourceList "1"..> ResourceMapper

ResourceMapper "1" ..> ResourcesInProjectDTO

@enduml

PlantUML version 1.2022.1(Tue Feb 01 18:19:58 GMT 2022)
(GPL source distribution)
Java Runtime: OpenJDK Runtime Environment
JVM: OpenJDK 64-Bit Server VM
Default Encoding: Cp1252
Language: pt
Country: PT
--></g></svg>