<?xml version="1.0" encoding="UTF-8" standalone="no"?><svg xmlns="http://www.w3.org/2000/svg" xmlns:xlink="http://www.w3.org/1999/xlink" contentScriptType="application/ecmascript" contentStyleType="text/css" height="763px" preserveAspectRatio="none" style="width:1823px;height:763px;background:#FFFFFF;" version="1.1" viewBox="0 0 1823 763" width="1823px" zoomAndPan="magnify"><defs><filter height="300%" id="fwjawbsye32bt" width="300%" x="-1" y="-1"><feGaussianBlur result="blurOut" stdDeviation="2.0"/><feColorMatrix in="blurOut" result="blurOut2" type="matrix" values="0 0 0 0 0 0 0 0 0 0 0 0 0 0 0 0 0 0 .4 0"/><feOffset dx="4.0" dy="4.0" in="blurOut2" result="blurOut3"/><feBlend in="SourceGraphic" in2="blurOut3" mode="normal"/></filter></defs><g><rect fill="#FFFFFF" filter="url(#fwjawbsye32bt)" height="569.5859" style="stroke:#A80036;stroke-width:1.0;" width="10" x="280" y="99.6094"/><rect fill="#FFFFFF" filter="url(#fwjawbsye32bt)" height="547.2344" style="stroke:#A80036;stroke-width:1.0;" width="10" x="502" y="121.9609"/><rect fill="#FFFFFF" filter="url(#fwjawbsye32bt)" height="123.4063" style="stroke:#A80036;stroke-width:1.0;" width="10" x="808" y="230.3672"/><rect fill="#FFFFFF" filter="url(#fwjawbsye32bt)" height="30.3516" style="stroke:#A80036;stroke-width:1.0;" width="10" x="942" y="286.0703"/><rect fill="#FFFFFF" filter="url(#fwjawbsye32bt)" height="91.0547" style="stroke:#A80036;stroke-width:1.0;" width="10" x="942" y="353.7734"/><rect fill="#FFFFFF" filter="url(#fwjawbsye32bt)" height="78.0547" style="stroke:#A80036;stroke-width:1.0;" width="10" x="1401" y="444.8281"/><rect fill="#FFFFFF" filter="url(#fwjawbsye32bt)" height="30" style="stroke:#A80036;stroke-width:1.0;" width="10" x="1698.5" y="569.4922"/><rect fill="#FFFFFF" filter="url(#fwjawbsye32bt)" height="79.0547" style="stroke:#000000;stroke-width:2.0;" width="278" x="728" y="245.3672"/><line style="stroke:#A80036;stroke-width:1.0;stroke-dasharray:5.0,5.0;" x1="37" x2="37" y1="89.6094" y2="678.1953"/><line style="stroke:#A80036;stroke-width:1.0;stroke-dasharray:5.0,5.0;" x1="284.5" x2="284.5" y1="89.6094" y2="678.1953"/><line style="stroke:#A80036;stroke-width:1.0;stroke-dasharray:5.0,5.0;" x1="507" x2="507" y1="89.6094" y2="678.1953"/><line style="stroke:#A80036;stroke-width:1.0;stroke-dasharray:5.0,5.0;" x1="679" x2="679" y1="89.6094" y2="678.1953"/><line style="stroke:#A80036;stroke-width:1.0;stroke-dasharray:5.0,5.0;" x1="813" x2="813" y1="89.6094" y2="678.1953"/><line style="stroke:#A80036;stroke-width:1.0;stroke-dasharray:5.0,5.0;" x1="947" x2="947" y1="89.6094" y2="678.1953"/><line style="stroke:#A80036;stroke-width:1.0;stroke-dasharray:5.0,5.0;" x1="1100" x2="1100" y1="89.6094" y2="678.1953"/><line style="stroke:#A80036;stroke-width:1.0;stroke-dasharray:5.0,5.0;" x1="1405.5" x2="1405.5" y1="89.6094" y2="678.1953"/><line style="stroke:#A80036;stroke-width:1.0;stroke-dasharray:5.0,5.0;" x1="1703" x2="1703" y1="533.8359" y2="678.1953"/><text fill="#000000" font-family="sans-serif" font-size="14" lengthAdjust="spacing" textLength="58" x="5" y="86.5332">: Director</text><ellipse cx="37" cy="15" fill="#FEFECE" filter="url(#fwjawbsye32bt)" rx="8" ry="8" style="stroke:#A80036;stroke-width:2.0;"/><path d="M37,23 L37,50 M24,31 L50,31 M37,50 L24,65 M37,50 L50,65 " fill="none" filter="url(#fwjawbsye32bt)" style="stroke:#A80036;stroke-width:2.0;"/><text fill="#000000" font-family="sans-serif" font-size="14" lengthAdjust="spacing" textLength="58" x="5" y="691.7285">: Director</text><ellipse cx="37" cy="704.8047" fill="#FEFECE" filter="url(#fwjawbsye32bt)" rx="8" ry="8" style="stroke:#A80036;stroke-width:2.0;"/><path d="M37,712.8047 L37,739.8047 M24,720.8047 L50,720.8047 M37,739.8047 L24,754.8047 M37,739.8047 L50,754.8047 " fill="none" filter="url(#fwjawbsye32bt)" style="stroke:#A80036;stroke-width:2.0;"/><rect fill="#FEFECE" filter="url(#fwjawbsye32bt)" height="31.6094" style="stroke:#A80036;stroke-width:1.5;" width="147" x="209.5" y="53"/><text fill="#000000" font-family="sans-serif" font-size="14" lengthAdjust="spacing" textLength="133" x="216.5" y="74.5332">: SearchResourcesUI</text><rect fill="#FEFECE" filter="url(#fwjawbsye32bt)" height="31.6094" style="stroke:#A80036;stroke-width:1.5;" width="147" x="209.5" y="677.1953"/><text fill="#000000" font-family="sans-serif" font-size="14" lengthAdjust="spacing" textLength="133" x="216.5" y="698.7285">: SearchResourcesUI</text><rect fill="#FEFECE" filter="url(#fwjawbsye32bt)" height="31.6094" style="stroke:#A80036;stroke-width:1.5;" width="222" x="394" y="53"/><text fill="#000000" font-family="sans-serif" font-size="14" lengthAdjust="spacing" textLength="208" x="401" y="74.5332">: ListResourceInProjectController</text><rect fill="#FEFECE" filter="url(#fwjawbsye32bt)" height="31.6094" style="stroke:#A80036;stroke-width:1.5;" width="222" x="394" y="677.1953"/><text fill="#000000" font-family="sans-serif" font-size="14" lengthAdjust="spacing" textLength="208" x="401" y="698.7285">: ListResourceInProjectController</text><rect fill="#FEFECE" filter="url(#fwjawbsye32bt)" height="31.6094" style="stroke:#A80036;stroke-width:1.5;" width="94" x="630" y="53"/><text fill="#000000" font-family="sans-serif" font-size="14" lengthAdjust="spacing" textLength="80" x="637" y="74.5332">: ITCompany</text><rect fill="#FEFECE" filter="url(#fwjawbsye32bt)" height="31.6094" style="stroke:#A80036;stroke-width:1.5;" width="94" x="630" y="677.1953"/><text fill="#000000" font-family="sans-serif" font-size="14" lengthAdjust="spacing" textLength="80" x="637" y="698.7285">: ITCompany</text><rect fill="#FEFECE" filter="url(#fwjawbsye32bt)" height="31.6094" style="stroke:#A80036;stroke-width:1.5;" width="146" x="738" y="53"/><text fill="#000000" font-family="sans-serif" font-size="14" lengthAdjust="spacing" textLength="132" x="745" y="74.5332">listProj : ProjectStore</text><rect fill="#FEFECE" filter="url(#fwjawbsye32bt)" height="31.6094" style="stroke:#A80036;stroke-width:1.5;" width="146" x="738" y="677.1953"/><text fill="#000000" font-family="sans-serif" font-size="14" lengthAdjust="spacing" textLength="132" x="745" y="698.7285">listProj : ProjectStore</text><rect fill="#FEFECE" filter="url(#fwjawbsye32bt)" height="31.6094" style="stroke:#A80036;stroke-width:1.5;" width="94" x="898" y="53"/><text fill="#000000" font-family="sans-serif" font-size="14" lengthAdjust="spacing" textLength="80" x="905" y="74.5332">proj : Project</text><rect fill="#FEFECE" filter="url(#fwjawbsye32bt)" height="31.6094" style="stroke:#A80036;stroke-width:1.5;" width="94" x="898" y="677.1953"/><text fill="#000000" font-family="sans-serif" font-size="14" lengthAdjust="spacing" textLength="80" x="905" y="698.7285">proj : Project</text><rect fill="#FEFECE" filter="url(#fwjawbsye32bt)" height="31.6094" style="stroke:#A80036;stroke-width:1.5;" width="184" x="1006" y="53"/><text fill="#000000" font-family="sans-serif" font-size="14" lengthAdjust="spacing" textLength="170" x="1013" y="74.5332">projecTeam : ResourceList</text><rect fill="#FEFECE" filter="url(#fwjawbsye32bt)" height="31.6094" style="stroke:#A80036;stroke-width:1.5;" width="184" x="1006" y="677.1953"/><text fill="#000000" font-family="sans-serif" font-size="14" lengthAdjust="spacing" textLength="170" x="1013" y="698.7285">projecTeam : ResourceList</text><rect fill="#FEFECE" filter="url(#fwjawbsye32bt)" height="31.6094" style="stroke:#A80036;stroke-width:1.5;" width="123" x="1342.5" y="53"/><text fill="#000000" font-family="sans-serif" font-size="14" lengthAdjust="spacing" textLength="109" x="1349.5" y="74.5332">ResourceMapper</text><rect fill="#FEFECE" filter="url(#fwjawbsye32bt)" height="31.6094" style="stroke:#A80036;stroke-width:1.5;" width="123" x="1342.5" y="677.1953"/><text fill="#000000" font-family="sans-serif" font-size="14" lengthAdjust="spacing" textLength="109" x="1349.5" y="698.7285">ResourceMapper</text><rect fill="#FEFECE" filter="url(#fwjawbsye32bt)" height="31.6094" style="stroke:#A80036;stroke-width:1.5;" width="215" x="1594" y="677.1953"/><text fill="#000000" font-family="sans-serif" font-size="14" lengthAdjust="spacing" textLength="201" x="1601" y="698.7285">ResourcesInProjectTeam : DTO</text><rect fill="#FFFFFF" filter="url(#fwjawbsye32bt)" height="569.5859" style="stroke:#A80036;stroke-width:1.0;" width="10" x="280" y="99.6094"/><rect fill="#FFFFFF" filter="url(#fwjawbsye32bt)" height="547.2344" style="stroke:#A80036;stroke-width:1.0;" width="10" x="502" y="121.9609"/><rect fill="#FFFFFF" filter="url(#fwjawbsye32bt)" height="123.4063" style="stroke:#A80036;stroke-width:1.0;" width="10" x="808" y="230.3672"/><rect fill="#FFFFFF" filter="url(#fwjawbsye32bt)" height="30.3516" style="stroke:#A80036;stroke-width:1.0;" width="10" x="942" y="286.0703"/><rect fill="#FFFFFF" filter="url(#fwjawbsye32bt)" height="91.0547" style="stroke:#A80036;stroke-width:1.0;" width="10" x="942" y="353.7734"/><rect fill="#FFFFFF" filter="url(#fwjawbsye32bt)" height="78.0547" style="stroke:#A80036;stroke-width:1.0;" width="10" x="1401" y="444.8281"/><rect fill="#FFFFFF" filter="url(#fwjawbsye32bt)" height="30" style="stroke:#A80036;stroke-width:1.0;" width="10" x="1698.5" y="569.4922"/><polygon fill="#A80036" points="268,117.9609,278,121.9609,268,125.9609,272,121.9609" style="stroke:#A80036;stroke-width:1.0;"/><line style="stroke:#A80036;stroke-width:1.0;" x1="37" x2="274" y1="121.9609" y2="121.9609"/><text fill="#000000" font-family="sans-serif" font-size="13" font-weight="bold" lengthAdjust="spacing" textLength="7" x="44" y="117.1045">1</text><text fill="#000000" font-family="sans-serif" font-size="13" lengthAdjust="spacing" textLength="208" x="55" y="117.1045">Search Resources in a given project</text><polygon fill="#A80036" points="490,148.3125,500,152.3125,490,156.3125,494,152.3125" style="stroke:#A80036;stroke-width:1.0;"/><line style="stroke:#A80036;stroke-width:1.0;" x1="290" x2="496" y1="152.3125" y2="152.3125"/><text fill="#000000" font-family="sans-serif" font-size="13" font-weight="bold" lengthAdjust="spacing" textLength="7" x="297" y="147.4561">2</text><text fill="#000000" font-family="sans-serif" font-size="13" lengthAdjust="spacing" textLength="177" x="308" y="147.4561">findProjectResources(int code)</text><rect fill="#FFFFFF" filter="url(#fwjawbsye32bt)" height="42.7031" style="stroke:#000000;stroke-width:2.0;" width="228" x="391" y="160.3125"/><path d="M391,160.3125 L453,160.3125 L453,168.3125 L443,178.3125 L391,178.3125 L391,160.3125 " fill="#EEEEEE" style="stroke:#000000;stroke-width:2.0;"/><text fill="#000000" font-family="sans-serif" font-size="13" font-weight="bold" lengthAdjust="spacing" textLength="17" x="404" y="175.8076">ref</text><text fill="#000000" font-family="sans-serif" font-size="13" lengthAdjust="spacing" textLength="39" x="487.5" y="195.8076">ref one</text><polygon fill="#A80036" points="796,226.3672,806,230.3672,796,234.3672,800,230.3672" style="stroke:#A80036;stroke-width:1.0;"/><line style="stroke:#A80036;stroke-width:1.0;" x1="512" x2="802" y1="230.3672" y2="230.3672"/><text fill="#000000" font-family="sans-serif" font-size="13" font-weight="bold" lengthAdjust="spacing" textLength="7" x="519" y="225.5107">3</text><text fill="#000000" font-family="sans-serif" font-size="13" lengthAdjust="spacing" textLength="147" x="530" y="225.5107">findProjectByCode((code)</text><path d="M728,245.3672 L801,245.3672 L801,253.3672 L791,263.3672 L728,263.3672 L728,245.3672 " fill="#EEEEEE" style="stroke:#000000;stroke-width:1.0;"/><rect fill="none" height="79.0547" style="stroke:#000000;stroke-width:2.0;" width="278" x="728" y="245.3672"/><text fill="#000000" font-family="sans-serif" font-size="13" font-weight="bold" lengthAdjust="spacing" textLength="28" x="743" y="259.8623">loop</text><polygon fill="#A80036" points="930,282.0703,940,286.0703,930,290.0703,934,286.0703" style="stroke:#A80036;stroke-width:1.0;"/><line style="stroke:#A80036;stroke-width:1.0;" x1="818" x2="936" y1="286.0703" y2="286.0703"/><text fill="#000000" font-family="sans-serif" font-size="13" font-weight="bold" lengthAdjust="spacing" textLength="7" x="825" y="281.2139">4</text><text fill="#000000" font-family="sans-serif" font-size="13" lengthAdjust="spacing" textLength="67" x="836" y="281.2139">hasId(code)</text><polygon fill="#A80036" points="829,312.4219,819,316.4219,829,320.4219,825,316.4219" style="stroke:#A80036;stroke-width:1.0;"/><line style="stroke:#A80036;stroke-width:1.0;stroke-dasharray:2.0,2.0;" x1="823" x2="946" y1="316.4219" y2="316.4219"/><text fill="#000000" font-family="sans-serif" font-size="13" font-weight="bold" lengthAdjust="spacing" textLength="7" x="835" y="311.5654">5</text><text fill="#000000" font-family="sans-serif" font-size="13" lengthAdjust="spacing" textLength="53" x="846" y="311.5654">true/false</text><polygon fill="#A80036" points="523,349.7734,513,353.7734,523,357.7734,519,353.7734" style="stroke:#A80036;stroke-width:1.0;"/><line style="stroke:#A80036;stroke-width:1.0;stroke-dasharray:2.0,2.0;" x1="517" x2="812" y1="353.7734" y2="353.7734"/><text fill="#000000" font-family="sans-serif" font-size="13" font-weight="bold" lengthAdjust="spacing" textLength="7" x="529" y="348.917">6</text><text fill="#000000" font-family="sans-serif" font-size="13" lengthAdjust="spacing" textLength="21" x="540" y="348.917">proj</text><polygon fill="#A80036" points="930,380.125,940,384.125,930,388.125,934,384.125" style="stroke:#A80036;stroke-width:1.0;"/><line style="stroke:#A80036;stroke-width:1.0;" x1="512" x2="936" y1="384.125" y2="384.125"/><text fill="#000000" font-family="sans-serif" font-size="13" font-weight="bold" lengthAdjust="spacing" textLength="7" x="519" y="379.2686">7</text><text fill="#000000" font-family="sans-serif" font-size="13" lengthAdjust="spacing" textLength="99" x="530" y="379.2686">getProjectTeam()</text><polygon fill="#A80036" points="1088,410.4766,1098,414.4766,1088,418.4766,1092,414.4766" style="stroke:#A80036;stroke-width:1.0;"/><line style="stroke:#A80036;stroke-width:1.0;" x1="952" x2="1094" y1="414.4766" y2="414.4766"/><text fill="#000000" font-family="sans-serif" font-size="13" font-weight="bold" lengthAdjust="spacing" textLength="7" x="959" y="409.6201">8</text><text fill="#000000" font-family="sans-serif" font-size="13" lengthAdjust="spacing" textLength="99" x="970" y="409.6201">getProjectTeam()</text><polygon fill="#A80036" points="1389,440.8281,1399,444.8281,1389,448.8281,1393,444.8281" style="stroke:#A80036;stroke-width:1.0;"/><line style="stroke:#A80036;stroke-width:1.0;" x1="1100" x2="1395" y1="444.8281" y2="444.8281"/><text fill="#000000" font-family="sans-serif" font-size="13" font-weight="bold" lengthAdjust="spacing" textLength="7" x="1107" y="439.9717">9</text><text fill="#000000" font-family="sans-serif" font-size="13" lengthAdjust="spacing" textLength="271" x="1118" y="439.9717">createListResourcesInProjectDTO(projecTeam)</text><rect fill="#FFFFFF" filter="url(#fwjawbsye32bt)" height="42.7031" style="stroke:#000000;stroke-width:2.0;" width="129" x="1339.5" y="452.8281"/><path d="M1339.5,452.8281 L1401.5,452.8281 L1401.5,460.8281 L1391.5,470.8281 L1339.5,470.8281 L1339.5,452.8281 " fill="#EEEEEE" style="stroke:#000000;stroke-width:2.0;"/><text fill="#000000" font-family="sans-serif" font-size="13" font-weight="bold" lengthAdjust="spacing" textLength="17" x="1352.5" y="468.3232">ref</text><text fill="#000000" font-family="sans-serif" font-size="13" lengthAdjust="spacing" textLength="38" x="1387" y="488.3232">ref two</text><polygon fill="#A80036" points="1582,518.8828,1592,522.8828,1582,526.8828,1586,522.8828" style="stroke:#A80036;stroke-width:1.0;"/><line style="stroke:#A80036;stroke-width:1.0;stroke-dasharray:2.0,2.0;" x1="1406" x2="1588" y1="522.8828" y2="522.8828"/><text fill="#000000" font-family="sans-serif" font-size="13" font-weight="bold" lengthAdjust="spacing" textLength="14" x="1413" y="518.0264">10</text><text fill="#000000" font-family="sans-serif" font-size="13" lengthAdjust="spacing" textLength="141" x="1431" y="518.0264">createDTO(projectTeam)</text><rect fill="#FEFECE" filter="url(#fwjawbsye32bt)" height="31.6094" style="stroke:#A80036;stroke-width:1.5;" width="215" x="1594" y="500.5313"/><text fill="#000000" font-family="sans-serif" font-size="14" lengthAdjust="spacing" textLength="201" x="1601" y="522.0645">ResourcesInProjectTeam : DTO</text><polygon fill="#A80036" points="523,565.4922,513,569.4922,523,573.4922,519,569.4922" style="stroke:#A80036;stroke-width:1.0;"/><line style="stroke:#A80036;stroke-width:1.0;stroke-dasharray:2.0,2.0;" x1="517" x2="1697.5" y1="569.4922" y2="569.4922"/><text fill="#000000" font-family="sans-serif" font-size="13" font-weight="bold" lengthAdjust="spacing" textLength="14" x="529" y="564.6357">11</text><text fill="#000000" font-family="sans-serif" font-size="13" lengthAdjust="spacing" textLength="63" x="547" y="564.6357">return DTO</text><polygon fill="#A80036" points="301,625.8438,291,629.8438,301,633.8438,297,629.8438" style="stroke:#A80036;stroke-width:1.0;"/><line style="stroke:#A80036;stroke-width:1.0;stroke-dasharray:2.0,2.0;" x1="295" x2="501" y1="629.8438" y2="629.8438"/><text fill="#000000" font-family="sans-serif" font-size="13" font-weight="bold" lengthAdjust="spacing" textLength="14" x="307" y="624.9873">12</text><text fill="#000000" font-family="sans-serif" font-size="13" lengthAdjust="spacing" textLength="63" x="325" y="624.9873">return DTO</text><polygon fill="#A80036" points="48,656.1953,38,660.1953,48,664.1953,44,660.1953" style="stroke:#A80036;stroke-width:1.0;"/><line style="stroke:#A80036;stroke-width:1.0;stroke-dasharray:2.0,2.0;" x1="42" x2="279" y1="660.1953" y2="660.1953"/><text fill="#000000" font-family="sans-serif" font-size="13" font-weight="bold" lengthAdjust="spacing" textLength="14" x="54" y="655.3389">13</text><text fill="#000000" font-family="sans-serif" font-size="13" lengthAdjust="spacing" textLength="66" x="72" y="655.3389">shows data</text><!--MD5=[badd2f64ed4220eda4b662e6ea47626e]
@startuml

actor ": Director" as Dir
participant ": SearchResourcesUI" as UI
participant ": ListResourceInProjectController" as Controller
participant ": ITCompany" as IT
participant "listProj : ProjectStore" as store
participant "proj : Project" as proj
participant "projecTeam : ResourceList" as projTeam
participant "ResourceMapper" as Mapper
participant "ResourcesInProjectTeam : DTO" as DTO


autonumber
activate UI
Dir -> UI : Search Resources in a given project
activate Controller
UI -> Controller : findProjectResources(int code)
ref over Controller
ref one
end ref
Controller -> store : findProjectByCode((code)
loop
activate store
store -> proj : hasId(code)
activate proj
proj - -> store : true/false
deactivate proj
end
store - -> Controller : proj
deactivate store
activate proj
Controller -> proj : getProjectTeam()
proj -> projTeam : getProjectTeam()
projTeam -> Mapper : createListResourcesInProjectDTO(projecTeam)
deactivate proj
activate Mapper
ref over Mapper
ref two
end
autonumber resume
Mapper - -> DTO ** : createDTO(projectTeam)
deactivate proj
deactivate Mapper


DTO - -> Controller : return DTO
activate DTO
deactivate DTO

Controller - -> UI : return DTO
UI - -> Dir : shows data
@enduml

PlantUML version 1.2022.1(Tue Feb 01 18:19:58 GMT 2022)
(GPL source distribution)
Java Runtime: OpenJDK Runtime Environment
JVM: OpenJDK 64-Bit Server VM
Default Encoding: Cp1252
Language: pt
Country: PT
--></g></svg>