<?xml version="1.0" encoding="UTF-8" standalone="no"?><svg xmlns="http://www.w3.org/2000/svg" xmlns:xlink="http://www.w3.org/1999/xlink" contentScriptType="application/ecmascript" contentStyleType="text/css" height="316px" preserveAspectRatio="none" style="width:272px;height:316px;background:#FFFFFF;" version="1.1" viewBox="0 0 272 316" width="272px" zoomAndPan="magnify"><defs><filter height="300%" id="fmnu4ac0kktx6" width="300%" x="-1" y="-1"><feGaussianBlur result="blurOut" stdDeviation="2.0"/><feColorMatrix in="blurOut" result="blurOut2" type="matrix" values="0 0 0 0 0 0 0 0 0 0 0 0 0 0 0 0 0 0 .4 0"/><feOffset dx="4.0" dy="4.0" in="blurOut2" result="blurOut3"/><feBlend in="SourceGraphic" in2="blurOut3" mode="normal"/></filter></defs><g><line style="stroke:#A80036;stroke-width:1.0;stroke-dasharray:5.0,5.0;" x1="33" x2="33" y1="89.6094" y2="231.0156"/><line style="stroke:#A80036;stroke-width:1.0;stroke-dasharray:5.0,5.0;" x1="230" x2="230" y1="89.6094" y2="231.0156"/><text fill="#000000" font-family="sans-serif" font-size="14" lengthAdjust="spacing" textLength="50" x="5" y="86.5332">Director</text><ellipse cx="33" cy="15" fill="#FEFECE" filter="url(#fmnu4ac0kktx6)" rx="8" ry="8" style="stroke:#A80036;stroke-width:2.0;"/><path d="M33,23 L33,50 M20,31 L46,31 M33,50 L20,65 M33,50 L46,65 " fill="none" filter="url(#fmnu4ac0kktx6)" style="stroke:#A80036;stroke-width:2.0;"/><text fill="#000000" font-family="sans-serif" font-size="14" lengthAdjust="spacing" textLength="50" x="5" y="244.5488">Director</text><ellipse cx="33" cy="257.625" fill="#FEFECE" filter="url(#fmnu4ac0kktx6)" rx="8" ry="8" style="stroke:#A80036;stroke-width:2.0;"/><path d="M33,265.625 L33,292.625 M20,273.625 L46,273.625 M33,292.625 L20,307.625 M33,292.625 L46,307.625 " fill="none" filter="url(#fmnu4ac0kktx6)" style="stroke:#A80036;stroke-width:2.0;"/><rect fill="#FEFECE" filter="url(#fmnu4ac0kktx6)" height="31.6094" style="stroke:#A80036;stroke-width:1.5;" width="60" x="198" y="53"/><text fill="#000000" font-family="sans-serif" font-size="14" lengthAdjust="spacing" textLength="46" x="205" y="74.5332">System</text><rect fill="#FEFECE" filter="url(#fmnu4ac0kktx6)" height="31.6094" style="stroke:#A80036;stroke-width:1.5;" width="60" x="198" y="230.0156"/><text fill="#000000" font-family="sans-serif" font-size="14" lengthAdjust="spacing" textLength="46" x="205" y="251.5488">System</text><polygon fill="#A80036" points="218,117.9609,228,121.9609,218,125.9609,222,121.9609" style="stroke:#A80036;stroke-width:1.0;"/><line style="stroke:#A80036;stroke-width:1.0;" x1="33" x2="224" y1="121.9609" y2="121.9609"/><text fill="#000000" font-family="sans-serif" font-size="13" font-weight="bold" lengthAdjust="spacing" textLength="7" x="40" y="117.1045">1</text><text fill="#000000" font-family="sans-serif" font-size="13" lengthAdjust="spacing" textLength="162" x="51" y="117.1045">Create new ProjectTypology</text><polygon fill="#A80036" points="44,148.3125,34,152.3125,44,156.3125,40,152.3125" style="stroke:#A80036;stroke-width:1.0;"/><line style="stroke:#A80036;stroke-width:1.0;stroke-dasharray:2.0,2.0;" x1="38" x2="229" y1="152.3125" y2="152.3125"/><text fill="#000000" font-family="sans-serif" font-size="13" font-weight="bold" lengthAdjust="spacing" textLength="7" x="50" y="147.4561">2</text><text fill="#000000" font-family="sans-serif" font-size="13" lengthAdjust="spacing" textLength="61" x="61" y="147.4561">Insert data</text><polygon fill="#A80036" points="218,178.6641,228,182.6641,218,186.6641,222,182.6641" style="stroke:#A80036;stroke-width:1.0;"/><line style="stroke:#A80036;stroke-width:1.0;" x1="33" x2="224" y1="182.6641" y2="182.6641"/><text fill="#000000" font-family="sans-serif" font-size="13" font-weight="bold" lengthAdjust="spacing" textLength="7" x="40" y="177.8076">3</text><text fill="#000000" font-family="sans-serif" font-size="13" lengthAdjust="spacing" textLength="57" x="51" y="177.8076">Type data</text><polygon fill="#A80036" points="44,209.0156,34,213.0156,44,217.0156,40,213.0156" style="stroke:#A80036;stroke-width:1.0;"/><line style="stroke:#A80036;stroke-width:1.0;stroke-dasharray:2.0,2.0;" x1="38" x2="229" y1="213.0156" y2="213.0156"/><text fill="#000000" font-family="sans-serif" font-size="13" font-weight="bold" lengthAdjust="spacing" textLength="7" x="50" y="208.1592">4</text><text fill="#000000" font-family="sans-serif" font-size="13" lengthAdjust="spacing" textLength="144" x="61" y="208.1592">Project Typology created</text><!--MD5=[056ae6de23282947f38c9c2283bc9832]
@startuml
'https://plantuml.com/sequence-diagram

actor Director as Dir
participant System as Sys
autonumber

Dir -> Sys: Create new ProjectTypology
Sys - -> Dir: Insert data
Dir -> Sys: Type data
Sys - -> Dir: Project Typology created

@enduml

@startuml

actor Director as Dir
participant System as Sys
autonumber

Dir -> Sys: Create new ProjectTypology
Sys - -> Dir: Insert data
Dir -> Sys: Type data
Sys - -> Dir: Project Typology created

@enduml

PlantUML version 1.2022.0(Tue Jan 11 16:16:42 GMT 2022)
(GPL source distribution)
Java Runtime: OpenJDK Runtime Environment
JVM: OpenJDK 64-Bit Server VM
Default Encoding: Cp1252
Language: pt
Country: PT
--></g></svg>