<?xml version="1.0" encoding="UTF-8" standalone="no"?><svg xmlns="http://www.w3.org/2000/svg" xmlns:xlink="http://www.w3.org/1999/xlink" contentStyleType="text/css" height="1117px" preserveAspectRatio="none" style="width:1640px;height:1117px;background:#FFFFFF;" version="1.1" viewBox="0 0 1640 1117" width="1640px" zoomAndPan="magnify"><defs/><g><rect fill="#FFFFFF" height="293.3281" style="stroke:#181818;stroke-width:1.0;" width="10" x="273" y="112.4297"/><rect fill="#FFFFFF" height="592.5234" style="stroke:#181818;stroke-width:1.0;" width="10" x="273" y="434.8906"/><rect fill="#FFFFFF" height="235.0625" style="stroke:#181818;stroke-width:1.0;" width="10" x="498" y="141.5625"/><rect fill="#FFFFFF" height="525.2578" style="stroke:#181818;stroke-width:1.0;" width="10" x="498" y="464.0234"/><rect fill="#FFFFFF" height="29.1328" style="stroke:#181818;stroke-width:1.0;" width="10" x="683" y="170.6953"/><rect fill="#FFFFFF" height="29.1328" style="stroke:#181818;stroke-width:1.0;" width="10" x="683" y="493.1563"/><rect fill="#FFFFFF" height="29.1328" style="stroke:#181818;stroke-width:1.0;" width="10" x="683" y="699.0859"/><rect fill="#FFFFFF" height="147.6641" style="stroke:#181818;stroke-width:1.0;" width="10" x="810.5" y="228.9609"/><rect fill="#FFFFFF" height="29.1328" style="stroke:#181818;stroke-width:1.0;" width="10" x="810.5" y="757.3516"/><rect fill="#FFFFFF" height="65.2656" style="stroke:#181818;stroke-width:1.0;" width="10" x="997.5" y="282.2266"/><rect fill="#FFFFFF" height="118.5313" style="stroke:#181818;stroke-width:1.0;" width="10" x="1121" y="551.4219"/><rect fill="#FFFFFF" height="44.1328" style="stroke:#181818;stroke-width:1.0;" width="10" x="1396" y="604.6875"/><rect fill="#FFFFFF" height="144.5313" style="stroke:#181818;stroke-width:1.0;" width="10" x="1396" y="815.6172"/><rect height="75.3984" style="stroke:#000000;stroke-width:1.5;fill:none;" width="324" x="731.5" y="243.9609"/><rect height="75.3984" style="stroke:#000000;stroke-width:1.5;fill:none;" width="412.5" x="1045.5" y="566.4219"/><rect height="59.2656" style="stroke:#000000;stroke-width:1.5;fill:none;" width="290" x="1344" y="830.6172"/><line style="stroke:#181818;stroke-width:0.5;fill:none;stroke-dasharray:5.0,5.0;" x1="58" x2="58" y1="81.2969" y2="1036.4141"/><line style="stroke:#181818;stroke-width:0.5;fill:none;stroke-dasharray:5.0,5.0;" x1="277.5" x2="277.5" y1="81.2969" y2="1036.4141"/><line style="stroke:#181818;stroke-width:0.5;fill:none;stroke-dasharray:5.0,5.0;" x1="502.5" x2="502.5" y1="81.2969" y2="1036.4141"/><line style="stroke:#181818;stroke-width:0.5;fill:none;stroke-dasharray:5.0,5.0;" x1="687.5" x2="687.5" y1="81.2969" y2="1036.4141"/><line style="stroke:#181818;stroke-width:0.5;fill:none;stroke-dasharray:5.0,5.0;" x1="815.5" x2="815.5" y1="81.2969" y2="1036.4141"/><line style="stroke:#181818;stroke-width:0.5;fill:none;stroke-dasharray:5.0,5.0;" x1="1002.5" x2="1002.5" y1="81.2969" y2="1036.4141"/><line style="stroke:#181818;stroke-width:0.5;fill:none;stroke-dasharray:5.0,5.0;" x1="1125.5" x2="1125.5" y1="81.2969" y2="1036.4141"/><line style="stroke:#181818;stroke-width:0.5;fill:none;stroke-dasharray:5.0,5.0;" x1="1401" x2="1401" y1="81.2969" y2="1036.4141"/><text fill="#000000" font-family="sans-serif" font-size="14" lengthAdjust="spacing" textLength="100" x="5" y="77.9951">Administrator</text><ellipse cx="58" cy="13.5" fill="#E2E2F0" rx="8" ry="8" style="stroke:#181818;stroke-width:0.5;"/><path d="M58,21.5 L58,48.5 M45,29.5 L71,29.5 M58,48.5 L45,63.5 M58,48.5 L71,63.5 " fill="none" style="stroke:#181818;stroke-width:0.5;"/><text fill="#000000" font-family="sans-serif" font-size="14" lengthAdjust="spacing" textLength="100" x="5" y="1048.4092">Administrator</text><ellipse cx="58" cy="1060.2109" fill="#E2E2F0" rx="8" ry="8" style="stroke:#181818;stroke-width:0.5;"/><path d="M58,1068.2109 L58,1095.2109 M45,1076.2109 L71,1076.2109 M58,1095.2109 L45,1110.2109 M58,1095.2109 L71,1110.2109 " fill="none" style="stroke:#181818;stroke-width:0.5;"/><text fill="#000000" font-family="sans-serif" font-size="14" lengthAdjust="spacing" textLength="143" x="203.5" y="77.9951">UpdateUserProfileUI</text><path d="M257.5,37 L257.5,61 M257.5,49 L274.5,49 " fill="none" style="stroke:#181818;stroke-width:0.5;"/><ellipse cx="286.5" cy="49" fill="#E2E2F0" rx="12" ry="12" style="stroke:#181818;stroke-width:0.5;"/><text fill="#000000" font-family="sans-serif" font-size="14" lengthAdjust="spacing" textLength="143" x="203.5" y="1048.4092">UpdateUserProfileUI</text><path d="M257.5,1055.7109 L257.5,1079.7109 M257.5,1067.7109 L274.5,1067.7109 " fill="none" style="stroke:#181818;stroke-width:0.5;"/><ellipse cx="286.5" cy="1067.7109" fill="#E2E2F0" rx="12" ry="12" style="stroke:#181818;stroke-width:0.5;"/><text fill="#000000" font-family="sans-serif" font-size="14" lengthAdjust="spacing" textLength="203" x="398.5" y="77.9951">UpdateUserProfileController</text><ellipse cx="503" cy="49" fill="#E2E2F0" rx="12" ry="12" style="stroke:#181818;stroke-width:0.5;"/><polygon fill="#181818" points="499,37,505,32,503,37,505,42,499,37" style="stroke:#181818;stroke-width:1.0;"/><text fill="#000000" font-family="sans-serif" font-size="14" lengthAdjust="spacing" textLength="203" x="398.5" y="1048.4092">UpdateUserProfileController</text><ellipse cx="503" cy="1067.7109" fill="#E2E2F0" rx="12" ry="12" style="stroke:#181818;stroke-width:0.5;"/><polygon fill="#181818" points="499,1055.7109,505,1050.7109,503,1055.7109,505,1060.7109,499,1055.7109" style="stroke:#181818;stroke-width:1.0;"/><text fill="#000000" font-family="sans-serif" font-size="14" lengthAdjust="spacing" textLength="81" x="644.5" y="77.9951">ITCompany</text><ellipse cx="688" cy="49" fill="#E2E2F0" rx="12" ry="12" style="stroke:#181818;stroke-width:0.5;"/><line style="stroke:#181818;stroke-width:0.5;" x1="676" x2="700" y1="63" y2="63"/><text fill="#000000" font-family="sans-serif" font-size="14" lengthAdjust="spacing" textLength="81" x="644.5" y="1048.4092">ITCompany</text><ellipse cx="688" cy="1067.7109" fill="#E2E2F0" rx="12" ry="12" style="stroke:#181818;stroke-width:0.5;"/><line style="stroke:#181818;stroke-width:0.5;" x1="676" x2="700" y1="1081.7109" y2="1081.7109"/><rect fill="#E2E2F0" height="30.2969" rx="2.5" ry="2.5" style="stroke:#181818;stroke-width:0.5;" width="148" x="741.5" y="50"/><text fill="#000000" font-family="sans-serif" font-size="14" lengthAdjust="spacing" textLength="134" x="748.5" y="69.9951">profs: ProfileStore</text><rect fill="#E2E2F0" height="30.2969" rx="2.5" ry="2.5" style="stroke:#181818;stroke-width:0.5;" width="148" x="741.5" y="1035.4141"/><text fill="#000000" font-family="sans-serif" font-size="14" lengthAdjust="spacing" textLength="134" x="748.5" y="1055.4092">profs: ProfileStore</text><rect fill="#E2E2F0" height="30.2969" rx="2.5" ry="2.5" style="stroke:#181818;stroke-width:0.5;" width="86" x="959.5" y="50"/><text fill="#000000" font-family="sans-serif" font-size="14" lengthAdjust="spacing" textLength="72" x="966.5" y="69.9951">pf: Profile</text><rect fill="#E2E2F0" height="30.2969" rx="2.5" ry="2.5" style="stroke:#181818;stroke-width:0.5;" width="86" x="959.5" y="1035.4141"/><text fill="#000000" font-family="sans-serif" font-size="14" lengthAdjust="spacing" textLength="72" x="966.5" y="1055.4092">pf: Profile</text><rect fill="#E2E2F0" height="30.2969" rx="2.5" ry="2.5" style="stroke:#181818;stroke-width:0.5;" width="141" x="1055.5" y="50"/><text fill="#000000" font-family="sans-serif" font-size="14" lengthAdjust="spacing" textLength="127" x="1062.5" y="69.9951">as : AccountStore</text><rect fill="#E2E2F0" height="30.2969" rx="2.5" ry="2.5" style="stroke:#181818;stroke-width:0.5;" width="141" x="1055.5" y="1035.4141"/><text fill="#000000" font-family="sans-serif" font-size="14" lengthAdjust="spacing" textLength="127" x="1062.5" y="1055.4092">as : AccountStore</text><rect fill="#E2E2F0" height="30.2969" rx="2.5" ry="2.5" style="stroke:#181818;stroke-width:0.5;" width="94" x="1354" y="50"/><text fill="#000000" font-family="sans-serif" font-size="14" lengthAdjust="spacing" textLength="80" x="1361" y="69.9951">a : Account</text><rect fill="#E2E2F0" height="30.2969" rx="2.5" ry="2.5" style="stroke:#181818;stroke-width:0.5;" width="94" x="1354" y="1035.4141"/><text fill="#000000" font-family="sans-serif" font-size="14" lengthAdjust="spacing" textLength="80" x="1361" y="1055.4092">a : Account</text><rect fill="#FFFFFF" height="293.3281" style="stroke:#181818;stroke-width:1.0;" width="10" x="273" y="112.4297"/><rect fill="#FFFFFF" height="592.5234" style="stroke:#181818;stroke-width:1.0;" width="10" x="273" y="434.8906"/><rect fill="#FFFFFF" height="235.0625" style="stroke:#181818;stroke-width:1.0;" width="10" x="498" y="141.5625"/><rect fill="#FFFFFF" height="525.2578" style="stroke:#181818;stroke-width:1.0;" width="10" x="498" y="464.0234"/><rect fill="#FFFFFF" height="29.1328" style="stroke:#181818;stroke-width:1.0;" width="10" x="683" y="170.6953"/><rect fill="#FFFFFF" height="29.1328" style="stroke:#181818;stroke-width:1.0;" width="10" x="683" y="493.1563"/><rect fill="#FFFFFF" height="29.1328" style="stroke:#181818;stroke-width:1.0;" width="10" x="683" y="699.0859"/><rect fill="#FFFFFF" height="147.6641" style="stroke:#181818;stroke-width:1.0;" width="10" x="810.5" y="228.9609"/><rect fill="#FFFFFF" height="29.1328" style="stroke:#181818;stroke-width:1.0;" width="10" x="810.5" y="757.3516"/><rect fill="#FFFFFF" height="65.2656" style="stroke:#181818;stroke-width:1.0;" width="10" x="997.5" y="282.2266"/><rect fill="#FFFFFF" height="118.5313" style="stroke:#181818;stroke-width:1.0;" width="10" x="1121" y="551.4219"/><rect fill="#FFFFFF" height="44.1328" style="stroke:#181818;stroke-width:1.0;" width="10" x="1396" y="604.6875"/><rect fill="#FFFFFF" height="144.5313" style="stroke:#181818;stroke-width:1.0;" width="10" x="1396" y="815.6172"/><polygon fill="#181818" points="261,108.4297,271,112.4297,261,116.4297,265,112.4297" style="stroke:#181818;stroke-width:1.0;"/><line style="stroke:#181818;stroke-width:1.0;" x1="58" x2="267" y1="112.4297" y2="112.4297"/><text fill="#000000" font-family="sans-serif" font-size="13" font-weight="bold" lengthAdjust="spacing" textLength="9" x="65" y="107.3638">1</text><text fill="#000000" font-family="sans-serif" font-size="13" lengthAdjust="spacing" textLength="183" x="78" y="107.3638">Open 'Update User Profile' UI</text><polygon fill="#181818" points="486,137.5625,496,141.5625,486,145.5625,490,141.5625" style="stroke:#181818;stroke-width:1.0;"/><line style="stroke:#181818;stroke-width:1.0;" x1="283" x2="492" y1="141.5625" y2="141.5625"/><text fill="#000000" font-family="sans-serif" font-size="13" font-weight="bold" lengthAdjust="spacing" textLength="9" x="290" y="136.4966">2</text><text fill="#000000" font-family="sans-serif" font-size="13" lengthAdjust="spacing" textLength="130" x="303" y="136.4966">getProfileListString()</text><polygon fill="#181818" points="671,166.6953,681,170.6953,671,174.6953,675,170.6953" style="stroke:#181818;stroke-width:1.0;"/><line style="stroke:#181818;stroke-width:1.0;" x1="508" x2="677" y1="170.6953" y2="170.6953"/><text fill="#000000" font-family="sans-serif" font-size="13" font-weight="bold" lengthAdjust="spacing" textLength="8" x="515" y="165.6294">3</text><text fill="#000000" font-family="sans-serif" font-size="13" lengthAdjust="spacing" textLength="105" x="527" y="165.6294">getProfileStore()</text><polygon fill="#181818" points="519,195.8281,509,199.8281,519,203.8281,515,199.8281" style="stroke:#181818;stroke-width:1.0;"/><line style="stroke:#181818;stroke-width:1.0;stroke-dasharray:2.0,2.0;" x1="513" x2="687" y1="199.8281" y2="199.8281"/><text fill="#000000" font-family="sans-serif" font-size="13" font-weight="bold" lengthAdjust="spacing" textLength="9" x="525" y="194.7622">4</text><text fill="#000000" font-family="sans-serif" font-size="13" lengthAdjust="spacing" textLength="120" x="538" y="194.7622">profs : ProfileStore</text><polygon fill="#181818" points="798.5,224.9609,808.5,228.9609,798.5,232.9609,802.5,228.9609" style="stroke:#181818;stroke-width:1.0;"/><line style="stroke:#181818;stroke-width:1.0;" x1="508" x2="804.5" y1="228.9609" y2="228.9609"/><text fill="#000000" font-family="sans-serif" font-size="13" font-weight="bold" lengthAdjust="spacing" textLength="9" x="515" y="223.895">5</text><text fill="#000000" font-family="sans-serif" font-size="13" lengthAdjust="spacing" textLength="130" x="528" y="223.895">getProfileListString()</text><path d="M731.5,243.9609 L809.5,243.9609 L809.5,251.0938 L799.5,261.0938 L731.5,261.0938 L731.5,243.9609 " fill="#EEEEEE" style="stroke:#000000;stroke-width:1.5;"/><rect fill="none" height="75.3984" style="stroke:#000000;stroke-width:1.5;" width="324" x="731.5" y="243.9609"/><text fill="#000000" font-family="sans-serif" font-size="13" font-weight="bold" lengthAdjust="spacing" textLength="33" x="746.5" y="257.0278">loop</text><text fill="#000000" font-family="sans-serif" font-size="11" font-weight="bold" lengthAdjust="spacing" textLength="174" x="824.5" y="256.1714">[for each profile in store]</text><polygon fill="#181818" points="985.5,278.2266,995.5,282.2266,985.5,286.2266,989.5,282.2266" style="stroke:#181818;stroke-width:1.0;"/><line style="stroke:#181818;stroke-width:1.0;" x1="820.5" x2="991.5" y1="282.2266" y2="282.2266"/><text fill="#000000" font-family="sans-serif" font-size="13" font-weight="bold" lengthAdjust="spacing" textLength="9" x="827.5" y="277.1606">6</text><text fill="#000000" font-family="sans-serif" font-size="13" lengthAdjust="spacing" textLength="145" x="840.5" y="277.1606">getProfileInformation()</text><polygon fill="#181818" points="831.5,307.3594,821.5,311.3594,831.5,315.3594,827.5,311.3594" style="stroke:#181818;stroke-width:1.0;"/><line style="stroke:#181818;stroke-width:1.0;stroke-dasharray:2.0,2.0;" x1="825.5" x2="996.5" y1="311.3594" y2="311.3594"/><text fill="#000000" font-family="sans-serif" font-size="13" font-weight="bold" lengthAdjust="spacing" textLength="9" x="837.5" y="306.2935">7</text><text fill="#000000" font-family="sans-serif" font-size="13" lengthAdjust="spacing" textLength="83" x="850.5" y="306.2935">profs : String</text><polygon fill="#181818" points="519,343.4922,509,347.4922,519,351.4922,515,347.4922" style="stroke:#181818;stroke-width:1.0;"/><line style="stroke:#181818;stroke-width:1.0;stroke-dasharray:2.0,2.0;" x1="513" x2="809.5" y1="347.4922" y2="347.4922"/><text fill="#000000" font-family="sans-serif" font-size="13" font-weight="bold" lengthAdjust="spacing" textLength="9" x="525" y="342.4263">8</text><text fill="#000000" font-family="sans-serif" font-size="13" lengthAdjust="spacing" textLength="83" x="538" y="342.4263">profs : String</text><polygon fill="#181818" points="294,372.625,284,376.625,294,380.625,290,376.625" style="stroke:#181818;stroke-width:1.0;"/><line style="stroke:#181818;stroke-width:1.0;stroke-dasharray:2.0,2.0;" x1="288" x2="502" y1="376.625" y2="376.625"/><text fill="#000000" font-family="sans-serif" font-size="13" font-weight="bold" lengthAdjust="spacing" textLength="9" x="300" y="371.5591">9</text><text fill="#000000" font-family="sans-serif" font-size="13" lengthAdjust="spacing" textLength="83" x="313" y="371.5591">profs : String</text><polygon fill="#181818" points="69,401.7578,59,405.7578,69,409.7578,65,405.7578" style="stroke:#181818;stroke-width:1.0;"/><line style="stroke:#181818;stroke-width:1.0;" x1="63" x2="277" y1="405.7578" y2="405.7578"/><text fill="#000000" font-family="sans-serif" font-size="13" font-weight="bold" lengthAdjust="spacing" textLength="19" x="75" y="400.6919">10</text><text fill="#000000" font-family="sans-serif" font-size="13" lengthAdjust="spacing" textLength="105" x="98" y="400.6919">Show Profile List</text><polygon fill="#181818" points="261,430.8906,271,434.8906,261,438.8906,265,434.8906" style="stroke:#181818;stroke-width:1.0;"/><line style="stroke:#181818;stroke-width:1.0;" x1="58" x2="267" y1="434.8906" y2="434.8906"/><text fill="#000000" font-family="sans-serif" font-size="13" font-weight="bold" lengthAdjust="spacing" textLength="18" x="65" y="429.8247">11</text><text fill="#000000" font-family="sans-serif" font-size="13" lengthAdjust="spacing" textLength="83" x="87" y="429.8247">Select Profile</text><polygon fill="#181818" points="486,460.0234,496,464.0234,486,468.0234,490,464.0234" style="stroke:#181818;stroke-width:1.0;"/><line style="stroke:#181818;stroke-width:1.0;" x1="283" x2="492" y1="464.0234" y2="464.0234"/><text fill="#000000" font-family="sans-serif" font-size="13" font-weight="bold" lengthAdjust="spacing" textLength="18" x="290" y="458.9575">12</text><text fill="#000000" font-family="sans-serif" font-size="13" lengthAdjust="spacing" textLength="174" x="312" y="458.9575">updateProfile(email,profile)</text><polygon fill="#181818" points="671,489.1563,681,493.1563,671,497.1563,675,493.1563" style="stroke:#181818;stroke-width:1.0;"/><line style="stroke:#181818;stroke-width:1.0;" x1="508" x2="677" y1="493.1563" y2="493.1563"/><text fill="#000000" font-family="sans-serif" font-size="13" font-weight="bold" lengthAdjust="spacing" textLength="17" x="515" y="488.0903">13</text><text fill="#000000" font-family="sans-serif" font-size="13" lengthAdjust="spacing" textLength="117" x="536" y="488.0903">getAccountStore()</text><polygon fill="#181818" points="519,518.2891,509,522.2891,519,526.2891,515,522.2891" style="stroke:#181818;stroke-width:1.0;"/><line style="stroke:#181818;stroke-width:1.0;stroke-dasharray:2.0,2.0;" x1="513" x2="687" y1="522.2891" y2="522.2891"/><text fill="#000000" font-family="sans-serif" font-size="13" font-weight="bold" lengthAdjust="spacing" textLength="18" x="525" y="517.2231">14</text><text fill="#000000" font-family="sans-serif" font-size="13" lengthAdjust="spacing" textLength="129" x="547" y="517.2231">acc : AccuountStore</text><polygon fill="#181818" points="1109,547.4219,1119,551.4219,1109,555.4219,1113,551.4219" style="stroke:#181818;stroke-width:1.0;"/><line style="stroke:#181818;stroke-width:1.0;" x1="508" x2="1115" y1="551.4219" y2="551.4219"/><text fill="#000000" font-family="sans-serif" font-size="13" font-weight="bold" lengthAdjust="spacing" textLength="18" x="515" y="546.356">15</text><text fill="#000000" font-family="sans-serif" font-size="13" lengthAdjust="spacing" textLength="172" x="537" y="546.356">findAccountByEmail(email)</text><path d="M1045.5,566.4219 L1123.5,566.4219 L1123.5,573.5547 L1113.5,583.5547 L1045.5,583.5547 L1045.5,566.4219 " fill="#EEEEEE" style="stroke:#000000;stroke-width:1.5;"/><rect fill="none" height="75.3984" style="stroke:#000000;stroke-width:1.5;" width="412.5" x="1045.5" y="566.4219"/><text fill="#000000" font-family="sans-serif" font-size="13" font-weight="bold" lengthAdjust="spacing" textLength="33" x="1060.5" y="579.4888">loop</text><polygon fill="#181818" points="1384,600.6875,1394,604.6875,1384,608.6875,1388,604.6875" style="stroke:#181818;stroke-width:1.0;"/><line style="stroke:#181818;stroke-width:1.0;" x1="1131" x2="1390" y1="604.6875" y2="604.6875"/><text fill="#000000" font-family="sans-serif" font-size="13" font-weight="bold" lengthAdjust="spacing" textLength="18" x="1138" y="599.6216">16</text><text fill="#000000" font-family="sans-serif" font-size="13" lengthAdjust="spacing" textLength="224" x="1160" y="599.6216">isAccountEmailEqualTo(emailData)</text><polygon fill="#181818" points="1142,629.8203,1132,633.8203,1142,637.8203,1138,633.8203" style="stroke:#181818;stroke-width:1.0;"/><line style="stroke:#181818;stroke-width:1.0;stroke-dasharray:2.0,2.0;" x1="1136" x2="1395" y1="633.8203" y2="633.8203"/><text fill="#000000" font-family="sans-serif" font-size="13" font-weight="bold" lengthAdjust="spacing" textLength="18" x="1148" y="628.7544">17</text><text fill="#000000" font-family="sans-serif" font-size="13" lengthAdjust="spacing" textLength="26" x="1170" y="628.7544">true</text><polygon fill="#181818" points="519,665.9531,509,669.9531,519,673.9531,515,669.9531" style="stroke:#181818;stroke-width:1.0;"/><line style="stroke:#181818;stroke-width:1.0;stroke-dasharray:2.0,2.0;" x1="513" x2="1125" y1="669.9531" y2="669.9531"/><text fill="#000000" font-family="sans-serif" font-size="13" font-weight="bold" lengthAdjust="spacing" textLength="18" x="525" y="664.8872">18</text><text fill="#000000" font-family="sans-serif" font-size="13" lengthAdjust="spacing" textLength="69" x="547" y="664.8872">a :Account</text><polygon fill="#181818" points="671,695.0859,681,699.0859,671,703.0859,675,699.0859" style="stroke:#181818;stroke-width:1.0;"/><line style="stroke:#181818;stroke-width:1.0;" x1="508" x2="677" y1="699.0859" y2="699.0859"/><text fill="#000000" font-family="sans-serif" font-size="13" font-weight="bold" lengthAdjust="spacing" textLength="18" x="515" y="694.02">19</text><text fill="#000000" font-family="sans-serif" font-size="13" lengthAdjust="spacing" textLength="95" x="537" y="694.02">getProfileStore</text><polygon fill="#181818" points="519,724.2188,509,728.2188,519,732.2188,515,728.2188" style="stroke:#181818;stroke-width:1.0;"/><line style="stroke:#181818;stroke-width:1.0;stroke-dasharray:2.0,2.0;" x1="513" x2="687" y1="728.2188" y2="728.2188"/><text fill="#000000" font-family="sans-serif" font-size="13" font-weight="bold" lengthAdjust="spacing" textLength="19" x="525" y="723.1528">20</text><text fill="#000000" font-family="sans-serif" font-size="13" lengthAdjust="spacing" textLength="116" x="548" y="723.1528">profs: ProfileStore</text><polygon fill="#181818" points="798.5,753.3516,808.5,757.3516,798.5,761.3516,802.5,757.3516" style="stroke:#181818;stroke-width:1.0;"/><line style="stroke:#181818;stroke-width:1.0;" x1="508" x2="804.5" y1="757.3516" y2="757.3516"/><text fill="#000000" font-family="sans-serif" font-size="13" font-weight="bold" lengthAdjust="spacing" textLength="18" x="515" y="752.2856">21</text><text fill="#000000" font-family="sans-serif" font-size="13" lengthAdjust="spacing" textLength="234" x="537" y="752.2856">findProfileByProfileType(profileType)</text><polygon fill="#181818" points="519,782.4844,509,786.4844,519,790.4844,515,786.4844" style="stroke:#181818;stroke-width:1.0;"/><line style="stroke:#181818;stroke-width:1.0;stroke-dasharray:2.0,2.0;" x1="513" x2="814.5" y1="786.4844" y2="786.4844"/><text fill="#000000" font-family="sans-serif" font-size="13" font-weight="bold" lengthAdjust="spacing" textLength="18" x="525" y="781.4185">22</text><text fill="#000000" font-family="sans-serif" font-size="13" lengthAdjust="spacing" textLength="66" x="547" y="781.4185">pf : Profile</text><polygon fill="#181818" points="1384,811.6172,1394,815.6172,1384,819.6172,1388,815.6172" style="stroke:#181818;stroke-width:1.0;"/><line style="stroke:#181818;stroke-width:1.0;" x1="508" x2="1390" y1="815.6172" y2="815.6172"/><text fill="#000000" font-family="sans-serif" font-size="13" font-weight="bold" lengthAdjust="spacing" textLength="17" x="515" y="810.5513">23</text><text fill="#000000" font-family="sans-serif" font-size="13" lengthAdjust="spacing" textLength="135" x="536" y="810.5513">updateProfile(profile)</text><path d="M1344,830.6172 L1422,830.6172 L1422,837.75 L1412,847.75 L1344,847.75 L1344,830.6172 " fill="#EEEEEE" style="stroke:#000000;stroke-width:1.5;"/><rect fill="none" height="59.2656" style="stroke:#000000;stroke-width:1.5;" width="290" x="1344" y="830.6172"/><text fill="#000000" font-family="sans-serif" font-size="13" font-weight="bold" lengthAdjust="spacing" textLength="33" x="1359" y="843.6841">loop</text><line style="stroke:#181818;stroke-width:1.0;" x1="1406" x2="1448" y1="868.8828" y2="868.8828"/><line style="stroke:#181818;stroke-width:1.0;" x1="1448" x2="1448" y1="868.8828" y2="881.8828"/><line style="stroke:#181818;stroke-width:1.0;" x1="1407" x2="1448" y1="881.8828" y2="881.8828"/><polygon fill="#181818" points="1417,877.8828,1407,881.8828,1417,885.8828,1413,881.8828" style="stroke:#181818;stroke-width:1.0;"/><text fill="#000000" font-family="sans-serif" font-size="13" font-weight="bold" lengthAdjust="spacing" textLength="18" x="1413" y="863.8169">24</text><text fill="#000000" font-family="sans-serif" font-size="13" lengthAdjust="spacing" textLength="187" x="1435" y="863.8169">validateProfileUpdate(profile)</text><line style="stroke:#181818;stroke-width:1.0;" x1="1406" x2="1448" y1="918.0156" y2="918.0156"/><line style="stroke:#181818;stroke-width:1.0;" x1="1448" x2="1448" y1="918.0156" y2="931.0156"/><line style="stroke:#181818;stroke-width:1.0;" x1="1407" x2="1448" y1="931.0156" y2="931.0156"/><polygon fill="#181818" points="1417,927.0156,1407,931.0156,1417,935.0156,1413,931.0156" style="stroke:#181818;stroke-width:1.0;"/><text fill="#000000" font-family="sans-serif" font-size="13" font-weight="bold" lengthAdjust="spacing" textLength="18" x="1413" y="912.9497">25</text><text fill="#000000" font-family="sans-serif" font-size="13" lengthAdjust="spacing" textLength="114" x="1435" y="912.9497">addProfile(profile)</text><polygon fill="#181818" points="519,956.1484,509,960.1484,519,964.1484,515,960.1484" style="stroke:#181818;stroke-width:1.0;"/><line style="stroke:#181818;stroke-width:1.0;stroke-dasharray:2.0,2.0;" x1="513" x2="1400" y1="960.1484" y2="960.1484"/><text fill="#000000" font-family="sans-serif" font-size="13" font-weight="bold" lengthAdjust="spacing" textLength="18" x="525" y="955.0825">26</text><text fill="#000000" font-family="sans-serif" font-size="13" lengthAdjust="spacing" textLength="26" x="547" y="955.0825">true</text><polygon fill="#181818" points="294,985.2813,284,989.2813,294,993.2813,290,989.2813" style="stroke:#181818;stroke-width:1.0;"/><line style="stroke:#181818;stroke-width:1.0;stroke-dasharray:2.0,2.0;" x1="288" x2="502" y1="989.2813" y2="989.2813"/><text fill="#000000" font-family="sans-serif" font-size="13" font-weight="bold" lengthAdjust="spacing" textLength="18" x="300" y="984.2153">27</text><text fill="#000000" font-family="sans-serif" font-size="13" lengthAdjust="spacing" textLength="26" x="322" y="984.2153">true</text><polygon fill="#181818" points="69,1014.4141,59,1018.4141,69,1022.4141,65,1018.4141" style="stroke:#181818;stroke-width:1.0;"/><line style="stroke:#181818;stroke-width:1.0;stroke-dasharray:2.0,2.0;" x1="63" x2="272" y1="1018.4141" y2="1018.4141"/><text fill="#000000" font-family="sans-serif" font-size="13" font-weight="bold" lengthAdjust="spacing" textLength="18" x="75" y="1013.3481">28</text><text fill="#000000" font-family="sans-serif" font-size="13" lengthAdjust="spacing" textLength="118" x="97" y="1013.3481">Successful Update</text><!--MD5=[a673afac0ca425b61b316a49fc61abf0]
@startuml
actor "Administrator" as user
boundary "UpdateUserProfileUI" as UI
control "UpdateUserProfileController" as Controller
entity "ITCompany" as ITCompany
participant "profs: ProfileStore" as ps
participant "pf: Profile" as pf
participant "as : AccountStore" as accstore
participant "a : Account" as acc


autonumber
user -> UI : Open 'Update User Profile' UI
activate UI
UI -> Controller : getProfileListString()
activate Controller
Controller -> ITCompany : getProfileStore()
activate ITCompany
ITCompany - -> Controller : profs : ProfileStore
deactivate

Controller -> ps :getProfileListString()
activate ps
loop for each profile in store
ps -> pf :  getProfileInformation()
activate pf
pf - -> ps : profs : String
end
ps - -> Controller : profs : String
deactivate
Controller - -> UI : profs : String
deactivate
deactivate

UI -> user : Show Profile List
deactivate
user -> UI : Select Profile
activate UI


UI -> Controller : updateProfile(email,profile)
activate Controller
Controller -> ITCompany :  getAccountStore()
activate ITCompany
ITCompany - -> Controller : acc : AccuountStore
deactivate
Controller -> accstore : findAccountByEmail(email)
activate accstore
loop
accstore -> acc : isAccountEmailEqualTo(emailData)

activate acc
acc - -> accstore : true
end
deactivate acc
accstore - -> Controller : a :Account
deactivate accstore


Controller -> ITCompany :getProfileStore
activate ITCompany
ITCompany - -> Controller :profs: ProfileStore
deactivate
Controller -> ps :findProfileByProfileType(profileType)
activate ps
ps - -> Controller : pf : Profile
deactivate
Controller -> acc : updateProfile(profile)
activate acc

loop
acc -> acc : validateProfileUpdate(profile)
end
acc -> acc : addProfile(profile)
acc - -> Controller : true
deactivate


Controller - -> UI : true
deactivate Controller
UI - -> user : Successful Update
@enduml

PlantUML version 1.2022.3(Tue Mar 29 16:10:57 UTC 2022)
(GPL source distribution)
Java Runtime: Java(TM) SE Runtime Environment
JVM: Java HotSpot(TM) 64-Bit Server VM
Default Encoding: UTF-8
Language: en
Country: US
--></g></svg>