<?xml version="1.0" encoding="UTF-8" standalone="no"?><svg xmlns="http://www.w3.org/2000/svg" xmlns:xlink="http://www.w3.org/1999/xlink" contentStyleType="text/css" height="703px" preserveAspectRatio="none" style="width:1181px;height:703px;background:#FFFFFF;" version="1.1" viewBox="0 0 1181 703" width="1181px" zoomAndPan="magnify"><defs/><g><!--MD5=[b5ef884466af5784a9541cf43790ee07]
class UpdateUserProfileController--><g id="elem_UpdateUserProfileController"><rect codeLine="1" fill="#F1F1F1" height="80.5938" id="UpdateUserProfileController" rx="2.5" ry="2.5" style="stroke:#181818;stroke-width:0.5;" width="446" x="217.5" y="27"/><ellipse cx="334.75" cy="43" fill="#ADD1B2" rx="11" ry="11" style="stroke:#181818;stroke-width:1.0;"/><path d="M337.0938,38.6719 C336.1563,38.2344 335.5625,38.0938 334.6875,38.0938 C332.0625,38.0938 330.0625,40.1719 330.0625,42.8906 L330.0625,44.0156 C330.0625,46.5938 332.1719,48.4844 335.0625,48.4844 C336.2813,48.4844 337.4375,48.1875 338.1875,47.6406 C338.7656,47.2344 339.0938,46.7813 339.0938,46.3906 C339.0938,45.9375 338.7031,45.5469 338.2344,45.5469 C338.0156,45.5469 337.8125,45.625 337.625,45.8125 C337.1719,46.2969 337.1719,46.2969 336.9844,46.3906 C336.5625,46.6563 335.875,46.7813 335.1094,46.7813 C333.0625,46.7813 331.7656,45.6875 331.7656,43.9844 L331.7656,42.8906 C331.7656,41.1094 333.0156,39.7969 334.75,39.7969 C335.3281,39.7969 335.9375,39.9531 336.4063,40.2031 C336.8906,40.4844 337.0625,40.7031 337.1563,41.1094 C337.2188,41.5156 337.25,41.6406 337.3906,41.7656 C337.5313,41.9063 337.7656,42.0156 337.9844,42.0156 C338.25,42.0156 338.5156,41.875 338.6875,41.6563 C338.7969,41.5 338.8281,41.3125 338.8281,40.8906 L338.8281,39.4688 C338.8281,39.0313 338.8125,38.9063 338.7188,38.75 C338.5625,38.4844 338.2813,38.3438 337.9844,38.3438 C337.6875,38.3438 337.4844,38.4375 337.2656,38.75 L337.0938,38.6719 Z " fill="#000000"/><text fill="#000000" font-family="sans-serif" font-size="14" lengthAdjust="spacing" textLength="203" x="355.25" y="47.8467">UpdateUserProfileController</text><line style="stroke:#181818;stroke-width:0.5;" x1="218.5" x2="662.5" y1="59" y2="59"/><line style="stroke:#181818;stroke-width:0.5;" x1="218.5" x2="662.5" y1="67" y2="67"/><ellipse cx="228.5" cy="78" fill="#84BE84" rx="3" ry="3" style="stroke:#038048;stroke-width:1.0;"/><text fill="#000000" font-family="sans-serif" font-size="14" lengthAdjust="spacing" textLength="420" x="237.5" y="83.9951">updateProfile(email : String,profileType : String) : boolean</text><ellipse cx="228.5" cy="94.2969" fill="#84BE84" rx="3" ry="3" style="stroke:#038048;stroke-width:1.0;"/><text fill="#000000" font-family="sans-serif" font-size="14" lengthAdjust="spacing" textLength="209" x="237.5" y="100.292">getProfileListString() : String</text></g><!--MD5=[a4c29dcd49ac565a46dd506593159a71]
class AccountStore--><g id="elem_AccountStore"><rect codeLine="7" fill="#F1F1F1" height="80.5938" id="AccountStore" rx="2.5" ry="2.5" style="stroke:#181818;stroke-width:0.5;" width="348" x="493.5" y="353"/><ellipse cx="613.75" cy="369" fill="#ADD1B2" rx="11" ry="11" style="stroke:#181818;stroke-width:1.0;"/><path d="M616.0938,364.6719 C615.1563,364.2344 614.5625,364.0938 613.6875,364.0938 C611.0625,364.0938 609.0625,366.1719 609.0625,368.8906 L609.0625,370.0156 C609.0625,372.5938 611.1719,374.4844 614.0625,374.4844 C615.2813,374.4844 616.4375,374.1875 617.1875,373.6406 C617.7656,373.2344 618.0938,372.7813 618.0938,372.3906 C618.0938,371.9375 617.7031,371.5469 617.2344,371.5469 C617.0156,371.5469 616.8125,371.625 616.625,371.8125 C616.1719,372.2969 616.1719,372.2969 615.9844,372.3906 C615.5625,372.6563 614.875,372.7813 614.1094,372.7813 C612.0625,372.7813 610.7656,371.6875 610.7656,369.9844 L610.7656,368.8906 C610.7656,367.1094 612.0156,365.7969 613.75,365.7969 C614.3281,365.7969 614.9375,365.9531 615.4063,366.2031 C615.8906,366.4844 616.0625,366.7031 616.1563,367.1094 C616.2188,367.5156 616.25,367.6406 616.3906,367.7656 C616.5313,367.9063 616.7656,368.0156 616.9844,368.0156 C617.25,368.0156 617.5156,367.875 617.6875,367.6563 C617.7969,367.5 617.8281,367.3125 617.8281,366.8906 L617.8281,365.4688 C617.8281,365.0313 617.8125,364.9063 617.7188,364.75 C617.5625,364.4844 617.2813,364.3438 616.9844,364.3438 C616.6875,364.3438 616.4844,364.4375 616.2656,364.75 L616.0938,364.6719 Z " fill="#000000"/><text fill="#000000" font-family="sans-serif" font-size="14" lengthAdjust="spacing" textLength="99" x="634.25" y="373.8467">AccountStore</text><line style="stroke:#181818;stroke-width:0.5;" x1="494.5" x2="840.5" y1="385" y2="385"/><rect fill="none" height="6" style="stroke:#C82930;stroke-width:1.0;" width="6" x="501.5" y="393"/><text fill="#000000" font-family="sans-serif" font-size="14" lengthAdjust="spacing" textLength="232" x="513.5" y="401.9951">List&lt;Account&gt; arrayListAccount</text><line style="stroke:#181818;stroke-width:0.5;" x1="494.5" x2="840.5" y1="409.2969" y2="409.2969"/><ellipse cx="504.5" cy="420.2969" fill="#84BE84" rx="3" ry="3" style="stroke:#038048;stroke-width:1.0;"/><text fill="#000000" font-family="sans-serif" font-size="14" lengthAdjust="spacing" textLength="322" x="513.5" y="426.292">findAccountByEmail(email : String) : Account</text></g><!--MD5=[13bce23176f178ec6522722b4c2b76e3]
class ITCompany--><g id="elem_ITCompany"><rect codeLine="13" fill="#F1F1F1" height="121.4531" id="ITCompany" rx="2.5" ry="2.5" style="stroke:#181818;stroke-width:0.5;" width="272" x="698.5" y="7"/><ellipse cx="789.75" cy="27.1328" fill="#FF7700" rx="11" ry="11" style="stroke:#A80036;stroke-width:1.0;"/><path d="M793.5313,23.1016 C793.5313,22.6641 793.5156,22.5234 793.4219,22.3672 C793.2813,22.1328 793,21.9766 792.7031,21.9766 C792.3594,21.9766 792.2188,22.1172 792.0469,22.5391 C791.4531,22.1641 790.7031,21.9766 789.8281,21.9766 C787.7188,21.9766 786.1406,23.2734 786.1406,24.9922 C786.1406,25.9609 786.6719,26.8672 787.5313,27.3516 C788.0781,27.6641 788.625,27.8359 789.7344,28.0234 C790.8906,28.2266 791.1563,28.2891 791.5156,28.4766 C791.8906,28.6797 792.125,29.0234 792.125,29.3828 C792.125,30.1172 791.1406,30.6641 789.8906,30.6641 C788.7656,30.6641 787.6875,30.1797 787.5156,29.5703 C787.3906,29.1016 787.3906,29.1016 787.2656,28.9922 C787.1094,28.8359 786.8906,28.7422 786.6563,28.7422 C786.375,28.7422 786.125,28.8672 785.9531,29.0859 C785.8438,29.2578 785.7969,29.4453 785.7969,29.8672 L785.7969,30.9922 C785.7969,31.7578 786.0781,32.1172 786.6719,32.1172 C786.9375,32.1172 787.0625,32.0547 787.3438,31.7109 C788.1875,32.1484 789.0781,32.3672 790,32.3672 C792.3281,32.3672 793.8906,31.1797 793.8906,29.4141 C793.8906,28.5234 793.5781,27.8359 792.8906,27.2891 C792.3594,26.8672 791.7188,26.6172 790.2344,26.3516 C788.9688,26.1172 788.875,26.0859 788.5469,25.9141 C788.1719,25.7266 787.9063,25.3359 787.9063,24.9766 C787.9063,24.2422 788.7656,23.6797 789.8281,23.6797 C790.8906,23.6797 791.7031,24.1484 791.8594,24.8203 C791.9688,25.3672 791.9688,25.3672 792.0938,25.5078 C792.2344,25.6328 792.4688,25.7422 792.7031,25.7422 C792.9688,25.7422 793.2188,25.6016 793.3906,25.3828 C793.5,25.2109 793.5313,25.0703 793.5313,24.6016 L793.5313,23.1016 Z " fill="#000000"/><text fill="#000000" font-family="sans-serif" font-size="12" font-style="italic" lengthAdjust="spacing" textLength="71" x="815.25" y="23.1387">«Singleton»</text><text fill="#000000" font-family="sans-serif" font-size="14" lengthAdjust="spacing" textLength="81" x="810.25" y="38.9639">ITCompany</text><line style="stroke:#181818;stroke-width:0.5;" x1="699.5" x2="969.5" y1="47.2656" y2="47.2656"/><rect fill="none" height="6" style="stroke:#C82930;stroke-width:1.0;" width="6" x="706.5" y="55.2656"/><text fill="#000000" font-family="sans-serif" font-size="14" lengthAdjust="spacing" text-decoration="underline" textLength="175" x="718.5" y="64.2607">iTCompany : ITCompany</text><line style="stroke:#181818;stroke-width:0.5;" x1="699.5" x2="969.5" y1="71.5625" y2="71.5625"/><ellipse cx="709.5" cy="82.5625" fill="#84BE84" rx="3" ry="3" style="stroke:#038048;stroke-width:1.0;"/><text fill="#000000" font-family="sans-serif" font-size="14" lengthAdjust="spacing" text-decoration="underline" textLength="210" x="718.5" y="88.5576">getITCompany() : ITCompany</text><ellipse cx="709.5" cy="98.8594" fill="#84BE84" rx="3" ry="3" style="stroke:#038048;stroke-width:1.0;"/><text fill="#000000" font-family="sans-serif" font-size="14" lengthAdjust="spacing" textLength="246" x="718.5" y="104.8545">getAccountStore() : AccountStore</text><ellipse cx="709.5" cy="115.1563" fill="#84BE84" rx="3" ry="3" style="stroke:#038048;stroke-width:1.0;"/><text fill="#000000" font-family="sans-serif" font-size="14" lengthAdjust="spacing" textLength="222" x="718.5" y="121.1514">getProfileStore() : ProfileStore</text></g><!--MD5=[f9a29335b499db729be669fd1bd54958]
class Account--><g id="elem_Account"><rect codeLine="20" fill="#F1F1F1" height="194.6719" id="Account" rx="2.5" ry="2.5" style="stroke:#181818;stroke-width:0.5;" width="371" x="649" y="502"/><ellipse cx="800.75" cy="518" fill="#ADD1B2" rx="11" ry="11" style="stroke:#181818;stroke-width:1.0;"/><path d="M803.0938,513.6719 C802.1563,513.2344 801.5625,513.0938 800.6875,513.0938 C798.0625,513.0938 796.0625,515.1719 796.0625,517.8906 L796.0625,519.0156 C796.0625,521.5938 798.1719,523.4844 801.0625,523.4844 C802.2813,523.4844 803.4375,523.1875 804.1875,522.6406 C804.7656,522.2344 805.0938,521.7813 805.0938,521.3906 C805.0938,520.9375 804.7031,520.5469 804.2344,520.5469 C804.0156,520.5469 803.8125,520.625 803.625,520.8125 C803.1719,521.2969 803.1719,521.2969 802.9844,521.3906 C802.5625,521.6563 801.875,521.7813 801.1094,521.7813 C799.0625,521.7813 797.7656,520.6875 797.7656,518.9844 L797.7656,517.8906 C797.7656,516.1094 799.0156,514.7969 800.75,514.7969 C801.3281,514.7969 801.9375,514.9531 802.4063,515.2031 C802.8906,515.4844 803.0625,515.7031 803.1563,516.1094 C803.2188,516.5156 803.25,516.6406 803.3906,516.7656 C803.5313,516.9063 803.7656,517.0156 803.9844,517.0156 C804.25,517.0156 804.5156,516.875 804.6875,516.6563 C804.7969,516.5 804.8281,516.3125 804.8281,515.8906 L804.8281,514.4688 C804.8281,514.0313 804.8125,513.9063 804.7188,513.75 C804.5625,513.4844 804.2813,513.3438 803.9844,513.3438 C803.6875,513.3438 803.4844,513.4375 803.2656,513.75 L803.0938,513.6719 Z " fill="#000000"/><text fill="#000000" font-family="sans-serif" font-size="14" lengthAdjust="spacing" textLength="59" x="821.25" y="522.8467">Account</text><line style="stroke:#181818;stroke-width:0.5;" x1="650" x2="1019" y1="534" y2="534"/><rect fill="none" height="6" style="stroke:#C82930;stroke-width:1.0;" width="6" x="657" y="542"/><text fill="#000000" font-family="sans-serif" font-size="14" lengthAdjust="spacing" textLength="96" x="669" y="550.9951">email : String</text><rect fill="none" height="6" style="stroke:#C82930;stroke-width:1.0;" width="6" x="657" y="558.2969"/><text fill="#000000" font-family="sans-serif" font-size="14" lengthAdjust="spacing" textLength="97" x="669" y="567.292">name : String</text><rect fill="none" height="6" style="stroke:#C82930;stroke-width:1.0;" width="6" x="657" y="574.5938"/><text fill="#000000" font-family="sans-serif" font-size="14" lengthAdjust="spacing" textLength="117" x="669" y="583.5889">function : String</text><rect fill="none" height="6" style="stroke:#C82930;stroke-width:1.0;" width="6" x="657" y="590.8906"/><text fill="#000000" font-family="sans-serif" font-size="14" lengthAdjust="spacing" textLength="101" x="669" y="599.8857">photo : String</text><rect fill="none" height="6" style="stroke:#C82930;stroke-width:1.0;" width="6" x="657" y="607.1875"/><text fill="#000000" font-family="sans-serif" font-size="14" lengthAdjust="spacing" textLength="128" x="669" y="616.1826">isActive : boolean</text><line style="stroke:#181818;stroke-width:0.5;" x1="650" x2="1019" y1="623.4844" y2="623.4844"/><ellipse cx="660" cy="634.4844" fill="#84BE84" rx="3" ry="3" style="stroke:#038048;stroke-width:1.0;"/><text fill="#000000" font-family="sans-serif" font-size="14" lengthAdjust="spacing" textLength="304" x="669" y="640.4795">Account : isAccountEqualTo(email : String)</text><ellipse cx="660" cy="650.7813" fill="#84BE84" rx="3" ry="3" style="stroke:#038048;stroke-width:1.0;"/><text fill="#000000" font-family="sans-serif" font-size="14" lengthAdjust="spacing" textLength="292" x="669" y="656.7764">updateProfile((profile : Profile) : boolean</text><ellipse cx="660" cy="667.0781" fill="#84BE84" rx="3" ry="3" style="stroke:#038048;stroke-width:1.0;"/><text fill="#000000" font-family="sans-serif" font-size="14" lengthAdjust="spacing" textLength="345" x="669" y="673.0732">validateProfileUpdate(profile : Profile) : boolean</text><ellipse cx="660" cy="683.375" fill="#84BE84" rx="3" ry="3" style="stroke:#038048;stroke-width:1.0;"/><text fill="#000000" font-family="sans-serif" font-size="14" lengthAdjust="spacing" textLength="274" x="669" y="689.3701">addProfile(profileToBeAdded : Profile)</text></g><!--MD5=[7b57f7066b803747d2119f99dd1555d4]
class Profile--><g id="elem_Profile"><rect codeLine="32" fill="#F1F1F1" height="96.8906" id="Profile" rx="2.5" ry="2.5" style="stroke:#181818;stroke-width:0.5;" width="250" x="876.5" y="345"/><ellipse cx="973.75" cy="361" fill="#ADD1B2" rx="11" ry="11" style="stroke:#181818;stroke-width:1.0;"/><path d="M976.0938,356.6719 C975.1563,356.2344 974.5625,356.0938 973.6875,356.0938 C971.0625,356.0938 969.0625,358.1719 969.0625,360.8906 L969.0625,362.0156 C969.0625,364.5938 971.1719,366.4844 974.0625,366.4844 C975.2813,366.4844 976.4375,366.1875 977.1875,365.6406 C977.7656,365.2344 978.0938,364.7813 978.0938,364.3906 C978.0938,363.9375 977.7031,363.5469 977.2344,363.5469 C977.0156,363.5469 976.8125,363.625 976.625,363.8125 C976.1719,364.2969 976.1719,364.2969 975.9844,364.3906 C975.5625,364.6563 974.875,364.7813 974.1094,364.7813 C972.0625,364.7813 970.7656,363.6875 970.7656,361.9844 L970.7656,360.8906 C970.7656,359.1094 972.0156,357.7969 973.75,357.7969 C974.3281,357.7969 974.9375,357.9531 975.4063,358.2031 C975.8906,358.4844 976.0625,358.7031 976.1563,359.1094 C976.2188,359.5156 976.25,359.6406 976.3906,359.7656 C976.5313,359.9063 976.7656,360.0156 976.9844,360.0156 C977.25,360.0156 977.5156,359.875 977.6875,359.6563 C977.7969,359.5 977.8281,359.3125 977.8281,358.8906 L977.8281,357.4688 C977.8281,357.0313 977.8125,356.9063 977.7188,356.75 C977.5625,356.4844 977.2813,356.3438 976.9844,356.3438 C976.6875,356.3438 976.4844,356.4375 976.2656,356.75 L976.0938,356.6719 Z " fill="#000000"/><text fill="#000000" font-family="sans-serif" font-size="14" lengthAdjust="spacing" textLength="47" x="994.25" y="365.8467">Profile</text><line style="stroke:#181818;stroke-width:0.5;" x1="877.5" x2="1125.5" y1="377" y2="377"/><rect fill="none" height="6" style="stroke:#C82930;stroke-width:1.0;" width="6" x="884.5" y="385"/><text fill="#000000" font-family="sans-serif" font-size="14" lengthAdjust="spacing" textLength="141" x="896.5" y="393.9951">profileType : String</text><rect fill="none" height="6" style="stroke:#C82930;stroke-width:1.0;" width="6" x="884.5" y="401.2969"/><text fill="#000000" font-family="sans-serif" font-size="14" lengthAdjust="spacing" textLength="139" x="896.5" y="410.292">description : String</text><line style="stroke:#181818;stroke-width:0.5;" x1="877.5" x2="1125.5" y1="417.5938" y2="417.5938"/><ellipse cx="887.5" cy="428.5938" fill="#84BE84" rx="3" ry="3" style="stroke:#038048;stroke-width:1.0;"/><text fill="#000000" font-family="sans-serif" font-size="14" lengthAdjust="spacing" textLength="224" x="896.5" y="434.5889">getProfileInformation() : String</text></g><!--MD5=[27e7b07afda6c70728b268be8247acf1]
class ProfileStore--><g id="elem_ProfileStore"><rect codeLine="38" fill="#F1F1F1" height="96.8906" id="ProfileStore" rx="2.5" ry="2.5" style="stroke:#181818;stroke-width:0.5;" width="389" x="785" y="188"/><ellipse cx="931.75" cy="204" fill="#ADD1B2" rx="11" ry="11" style="stroke:#181818;stroke-width:1.0;"/><path d="M934.0938,199.6719 C933.1563,199.2344 932.5625,199.0938 931.6875,199.0938 C929.0625,199.0938 927.0625,201.1719 927.0625,203.8906 L927.0625,205.0156 C927.0625,207.5938 929.1719,209.4844 932.0625,209.4844 C933.2813,209.4844 934.4375,209.1875 935.1875,208.6406 C935.7656,208.2344 936.0938,207.7813 936.0938,207.3906 C936.0938,206.9375 935.7031,206.5469 935.2344,206.5469 C935.0156,206.5469 934.8125,206.625 934.625,206.8125 C934.1719,207.2969 934.1719,207.2969 933.9844,207.3906 C933.5625,207.6563 932.875,207.7813 932.1094,207.7813 C930.0625,207.7813 928.7656,206.6875 928.7656,204.9844 L928.7656,203.8906 C928.7656,202.1094 930.0156,200.7969 931.75,200.7969 C932.3281,200.7969 932.9375,200.9531 933.4063,201.2031 C933.8906,201.4844 934.0625,201.7031 934.1563,202.1094 C934.2188,202.5156 934.25,202.6406 934.3906,202.7656 C934.5313,202.9063 934.7656,203.0156 934.9844,203.0156 C935.25,203.0156 935.5156,202.875 935.6875,202.6563 C935.7969,202.5 935.8281,202.3125 935.8281,201.8906 L935.8281,200.4688 C935.8281,200.0313 935.8125,199.9063 935.7188,199.75 C935.5625,199.4844 935.2813,199.3438 934.9844,199.3438 C934.6875,199.3438 934.4844,199.4375 934.2656,199.75 L934.0938,199.6719 Z " fill="#000000"/><text fill="#000000" font-family="sans-serif" font-size="14" lengthAdjust="spacing" textLength="87" x="952.25" y="208.8467">ProfileStore</text><line style="stroke:#181818;stroke-width:0.5;" x1="786" x2="1173" y1="220" y2="220"/><rect fill="none" height="6" style="stroke:#C82930;stroke-width:1.0;" width="6" x="793" y="228"/><text fill="#000000" font-family="sans-serif" font-size="14" lengthAdjust="spacing" textLength="211" x="805" y="236.9951">List&lt;Profile&gt; profileArrayList</text><line style="stroke:#181818;stroke-width:0.5;" x1="786" x2="1173" y1="244.2969" y2="244.2969"/><ellipse cx="796" cy="255.2969" fill="#84BE84" rx="3" ry="3" style="stroke:#038048;stroke-width:1.0;"/><text fill="#000000" font-family="sans-serif" font-size="14" lengthAdjust="spacing" textLength="216" x="805" y="261.292">getProfilesListString() : String</text><ellipse cx="796" cy="271.5938" fill="#84BE84" rx="3" ry="3" style="stroke:#038048;stroke-width:1.0;"/><text fill="#000000" font-family="sans-serif" font-size="14" lengthAdjust="spacing" textLength="363" x="805" y="277.5889">findProfileByProfileType(profile : String) : Account</text></g><!--MD5=[feb40e1a88ba882430daa291c938754c]
class UpdateUserProfileUI--><g id="elem_UpdateUserProfileUI"><rect fill="#F1F1F1" height="48" id="UpdateUserProfileUI" rx="2.5" ry="2.5" style="stroke:#181818;stroke-width:0.5;" width="175" x="7" y="43.5"/><ellipse cx="22" cy="59.5" fill="#ADD1B2" rx="11" ry="11" style="stroke:#181818;stroke-width:1.0;"/><path d="M24.3438,55.1719 C23.4063,54.7344 22.8125,54.5938 21.9375,54.5938 C19.3125,54.5938 17.3125,56.6719 17.3125,59.3906 L17.3125,60.5156 C17.3125,63.0938 19.4219,64.9844 22.3125,64.9844 C23.5313,64.9844 24.6875,64.6875 25.4375,64.1406 C26.0156,63.7344 26.3438,63.2813 26.3438,62.8906 C26.3438,62.4375 25.9531,62.0469 25.4844,62.0469 C25.2656,62.0469 25.0625,62.125 24.875,62.3125 C24.4219,62.7969 24.4219,62.7969 24.2344,62.8906 C23.8125,63.1563 23.125,63.2813 22.3594,63.2813 C20.3125,63.2813 19.0156,62.1875 19.0156,60.4844 L19.0156,59.3906 C19.0156,57.6094 20.2656,56.2969 22,56.2969 C22.5781,56.2969 23.1875,56.4531 23.6563,56.7031 C24.1406,56.9844 24.3125,57.2031 24.4063,57.6094 C24.4688,58.0156 24.5,58.1406 24.6406,58.2656 C24.7813,58.4063 25.0156,58.5156 25.2344,58.5156 C25.5,58.5156 25.7656,58.375 25.9375,58.1563 C26.0469,58 26.0781,57.8125 26.0781,57.3906 L26.0781,55.9688 C26.0781,55.5313 26.0625,55.4063 25.9688,55.25 C25.8125,54.9844 25.5313,54.8438 25.2344,54.8438 C24.9375,54.8438 24.7344,54.9375 24.5156,55.25 L24.3438,55.1719 Z " fill="#000000"/><text fill="#000000" font-family="sans-serif" font-size="14" lengthAdjust="spacing" textLength="143" x="36" y="64.3467">UpdateUserProfileUI</text><line style="stroke:#181818;stroke-width:0.5;" x1="8" x2="181" y1="75.5" y2="75.5"/><line style="stroke:#181818;stroke-width:0.5;" x1="8" x2="181" y1="83.5" y2="83.5"/></g><!--MD5=[d326b3e7aaa5025f90cf33f457860c23]
link UpdateUserProfileUI to UpdateUserProfileController--><g id="link_UpdateUserProfileUI_UpdateUserProfileController"><path codeLine="45" d="M182.014,67.5 C192.045,67.5 202.076,67.5 212.108,67.5 " fill="none" id="UpdateUserProfileUI-to-UpdateUserProfileController" style="stroke:#181818;stroke-width:1.0;stroke-dasharray:7.0,7.0;"/><polygon fill="#181818" points="217.354,67.5,208.354,63.5,212.354,67.5,208.354,71.5,217.354,67.5" style="stroke:#181818;stroke-width:1.0;"/></g><!--MD5=[d6ede7c3d8d48842ac1877e2ee0fdbc4]
link UpdateUserProfileController to ITCompany--><g id="link_UpdateUserProfileController_ITCompany"><path codeLine="46" d="M663.664,67.5 C673.514,67.5 683.364,67.5 693.214,67.5 " fill="none" id="UpdateUserProfileController-to-ITCompany" style="stroke:#181818;stroke-width:1.0;stroke-dasharray:7.0,7.0;"/><polygon fill="#181818" points="698.365,67.5,689.365,63.5,693.365,67.5,689.365,71.5,698.365,67.5" style="stroke:#181818;stroke-width:1.0;"/></g><!--MD5=[1c21b267ae6ab1286f3e21932c018c81]
link ITCompany to ProfileStore--><g id="link_ITCompany_ProfileStore"><path codeLine="47" d="M886.439,128.319 C902.228,146.504 919.436,166.323 934.712,183.917 " fill="none" id="ITCompany-to-ProfileStore" style="stroke:#181818;stroke-width:1.0;"/><polygon fill="#181818" points="938.144,187.869,935.2634,178.4508,934.8658,184.0937,929.2229,183.696,938.144,187.869" style="stroke:#181818;stroke-width:1.0;"/><text fill="#000000" font-family="sans-serif" font-size="13" lengthAdjust="spacing" textLength="8" x="884.2816" y="148.6928">1</text><text fill="#000000" font-family="sans-serif" font-size="13" lengthAdjust="spacing" textLength="86" x="840.2814" y="177.0595">profileStore 1</text></g><!--MD5=[7d647d82d531c5934fa09f4b56b02d70]
reverse link ProfileStore to Profile--><g id="link_ProfileStore_Profile"><path codeLine="48" d="M988.16,298.513 C990.347,313.923 992.664,330.246 994.742,344.888 " fill="none" id="ProfileStore-backto-Profile" style="stroke:#181818;stroke-width:1.0;"/><polygon fill="none" points="986.28,285.27,983.163,291.7726,987.9665,297.1509,991.0836,290.6483,986.28,285.27" style="stroke:#181818;stroke-width:1.0;"/><text fill="#000000" font-family="sans-serif" font-size="13" lengthAdjust="spacing" textLength="124" x="861.0729" y="334.0812">1..* profileArrayList</text></g><!--MD5=[325f1e900778971e30b055d6c0877ed2]
link ITCompany to AccountStore--><g id="link_ITCompany_AccountStore"><path codeLine="49" d="M800.267,128.014 C789.548,147.055 777.827,168.304 767.5,188 C738.874,242.599 708.005,306.587 688.255,348.251 " fill="none" id="ITCompany-to-AccountStore" style="stroke:#181818;stroke-width:1.0;"/><polygon fill="#181818" points="686.022,352.967,693.4893,346.5452,688.1621,348.4482,686.2592,343.121,686.022,352.967" style="stroke:#181818;stroke-width:1.0;"/><text fill="#000000" font-family="sans-serif" font-size="13" lengthAdjust="spacing" textLength="8" x="787.6074" y="148.3506">1</text><text fill="#000000" font-family="sans-serif" font-size="13" lengthAdjust="spacing" textLength="97" x="583.8695" y="341.8245">accountStore 1</text></g><!--MD5=[8b1e35c219245428dc5863d392d3e963]
reverse link AccountStore to Account--><g id="link_AccountStore_Account"><path codeLine="50" d="M708.599,444.704 C722.748,461.989 739.109,481.975 755.257,501.701 " fill="none" id="AccountStore-backto-Account" style="stroke:#181818;stroke-width:1.0;"/><polygon fill="none" points="700.096,434.318,700.8015,441.4945,707.6974,443.6034,706.9918,436.4269,700.096,434.318" style="stroke:#181818;stroke-width:1.0;"/><text fill="#000000" font-family="sans-serif" font-size="13" lengthAdjust="spacing" textLength="136" x="608.4438" y="491.0519">1..* ArrayListAccount</text></g><!--MD5=[b38780a29ebdae031720ea9075b4d398]
reverse link Profile to Account--><g id="link_Profile_Account"><path codeLine="51" d="M959.077,446.322 C945.215,463.256 929.341,482.646 913.671,501.788 " fill="none" id="Profile-backto-Account" style="stroke:#181818;stroke-width:1.0;"/><polygon fill="#181818" points="962.557,442.071,953.7615,446.5026,959.3903,445.9404,959.9525,451.5693,962.557,442.071" style="stroke:#181818;stroke-width:1.0;"/><text fill="#000000" font-family="sans-serif" font-size="13" lengthAdjust="spacing" textLength="125" x="819.0103" y="462.0399">accountProfiles 1..*</text><text fill="#000000" font-family="sans-serif" font-size="13" lengthAdjust="spacing" textLength="23" x="895.8521" y="490.8172">0..*</text></g><!--MD5=[7858aa48d8a13a8313b603cfee1820d4]
@startuml
class UpdateUserProfileController{

+updateProfile(email : String,profileType : String) : boolean
+getProfileListString() : String
}

class AccountStore{
-List<Account> arrayListAccount
+ findAccountByEmail(email : String) : Account

}

class ITCompany << (S,#FF7700) Singleton >>{
-{static}iTCompany : ITCompany
+{static}getITCompany() : ITCompany
+ getAccountStore() : AccountStore
+ getProfileStore() : ProfileStore
}

class Account{
-email : String
-name : String
-function : String
-photo : String
-isActive : boolean
+ Account : isAccountEqualTo(email : String)
+ updateProfile((profile : Profile) : boolean
+ validateProfileUpdate(profile : Profile) : boolean
+ addProfile(profileToBeAdded : Profile)
}

class Profile{
-profileType : String
-description : String
+ getProfileInformation() : String
}

class ProfileStore{
-List<Profile> profileArrayList
+ getProfilesListString() : String
+ findProfileByProfileType(profile : String) : Account

}

UpdateUserProfileUI .> UpdateUserProfileController
UpdateUserProfileController .> ITCompany
ITCompany "1"- ->"profileStore 1" ProfileStore
ProfileStore o- -"1..* profileArrayList" Profile
ITCompany "1"- ->"accountStore 1" AccountStore
AccountStore o- -"1..* ArrayListAccount" Account
Account "0..*"-up->"accountProfiles 1..* " Profile
@enduml

PlantUML version 1.2022.3(Tue Mar 29 16:10:57 UTC 2022)
(GPL source distribution)
Java Runtime: Java(TM) SE Runtime Environment
JVM: Java HotSpot(TM) 64-Bit Server VM
Default Encoding: UTF-8
Language: en
Country: US
--></g></svg>