<?xml version="1.0" encoding="UTF-8" standalone="no"?><svg xmlns="http://www.w3.org/2000/svg" xmlns:xlink="http://www.w3.org/1999/xlink" contentStyleType="text/css" height="317px" preserveAspectRatio="none" style="width:331px;height:317px;background:#FFFFFF;" version="1.1" viewBox="0 0 331 317" width="331px" zoomAndPan="magnify"><defs/><g><!--MD5=[f9a29335b499db729be669fd1bd54958]
class Account--><g id="elem_Account"><rect codeLine="1" fill="#F1F1F1" height="162.0781" id="Account" rx="2.5" ry="2.5" style="stroke:#181818;stroke-width:0.5;" width="317" x="7" y="148"/><ellipse cx="131.75" cy="164" fill="#ADD1B2" rx="11" ry="11" style="stroke:#181818;stroke-width:1.0;"/><path d="M134.0938,159.6719 C133.1563,159.2344 132.5625,159.0938 131.6875,159.0938 C129.0625,159.0938 127.0625,161.1719 127.0625,163.8906 L127.0625,165.0156 C127.0625,167.5938 129.1719,169.4844 132.0625,169.4844 C133.2813,169.4844 134.4375,169.1875 135.1875,168.6406 C135.7656,168.2344 136.0938,167.7813 136.0938,167.3906 C136.0938,166.9375 135.7031,166.5469 135.2344,166.5469 C135.0156,166.5469 134.8125,166.625 134.625,166.8125 C134.1719,167.2969 134.1719,167.2969 133.9844,167.3906 C133.5625,167.6563 132.875,167.7813 132.1094,167.7813 C130.0625,167.7813 128.7656,166.6875 128.7656,164.9844 L128.7656,163.8906 C128.7656,162.1094 130.0156,160.7969 131.75,160.7969 C132.3281,160.7969 132.9375,160.9531 133.4063,161.2031 C133.8906,161.4844 134.0625,161.7031 134.1563,162.1094 C134.2188,162.5156 134.25,162.6406 134.3906,162.7656 C134.5313,162.9063 134.7656,163.0156 134.9844,163.0156 C135.25,163.0156 135.5156,162.875 135.6875,162.6563 C135.7969,162.5 135.8281,162.3125 135.8281,161.8906 L135.8281,160.4688 C135.8281,160.0313 135.8125,159.9063 135.7188,159.75 C135.5625,159.4844 135.2813,159.3438 134.9844,159.3438 C134.6875,159.3438 134.4844,159.4375 134.2656,159.75 L134.0938,159.6719 Z " fill="#000000"/><text fill="#000000" font-family="sans-serif" font-size="14" lengthAdjust="spacing" textLength="59" x="152.25" y="168.8467">Account</text><line style="stroke:#181818;stroke-width:0.5;" x1="8" x2="323" y1="180" y2="180"/><rect fill="none" height="6" style="stroke:#C82930;stroke-width:1.0;" width="6" x="15" y="188"/><text fill="#000000" font-family="sans-serif" font-size="14" lengthAdjust="spacing" textLength="96" x="27" y="196.9951">email : String</text><rect fill="none" height="6" style="stroke:#C82930;stroke-width:1.0;" width="6" x="15" y="204.2969"/><text fill="#000000" font-family="sans-serif" font-size="14" lengthAdjust="spacing" textLength="97" x="27" y="213.292">name : String</text><rect fill="none" height="6" style="stroke:#C82930;stroke-width:1.0;" width="6" x="15" y="220.5938"/><text fill="#000000" font-family="sans-serif" font-size="14" lengthAdjust="spacing" textLength="117" x="27" y="229.5889">function : String</text><rect fill="none" height="6" style="stroke:#C82930;stroke-width:1.0;" width="6" x="15" y="236.8906"/><text fill="#000000" font-family="sans-serif" font-size="14" lengthAdjust="spacing" textLength="101" x="27" y="245.8857">photo : String</text><rect fill="none" height="6" style="stroke:#C82930;stroke-width:1.0;" width="6" x="15" y="253.1875"/><text fill="#000000" font-family="sans-serif" font-size="14" lengthAdjust="spacing" textLength="128" x="27" y="262.1826">isActive : boolean</text><rect fill="none" height="6" style="stroke:#C82930;stroke-width:1.0;" width="6" x="15" y="269.4844"/><text fill="#000000" font-family="sans-serif" font-size="14" lengthAdjust="spacing" textLength="124" x="27" y="278.4795">password : String</text><rect fill="none" height="6" style="stroke:#C82930;stroke-width:1.0;" width="6" x="15" y="285.7813"/><text fill="#000000" font-family="sans-serif" font-size="14" lengthAdjust="spacing" textLength="291" x="27" y="294.7764">workingCapacityHoursPerWeek : integer</text><line style="stroke:#181818;stroke-width:0.5;" x1="8" x2="323" y1="302.0781" y2="302.0781"/></g><!--MD5=[7b57f7066b803747d2119f99dd1555d4]
class Profile--><g id="elem_Profile"><rect codeLine="11" fill="#F1F1F1" height="80.5938" id="Profile" rx="2.5" ry="2.5" style="stroke:#181818;stroke-width:0.5;" width="167" x="82" y="7"/><ellipse cx="137.75" cy="23" fill="#ADD1B2" rx="11" ry="11" style="stroke:#181818;stroke-width:1.0;"/><path d="M140.0938,18.6719 C139.1563,18.2344 138.5625,18.0938 137.6875,18.0938 C135.0625,18.0938 133.0625,20.1719 133.0625,22.8906 L133.0625,24.0156 C133.0625,26.5938 135.1719,28.4844 138.0625,28.4844 C139.2813,28.4844 140.4375,28.1875 141.1875,27.6406 C141.7656,27.2344 142.0938,26.7813 142.0938,26.3906 C142.0938,25.9375 141.7031,25.5469 141.2344,25.5469 C141.0156,25.5469 140.8125,25.625 140.625,25.8125 C140.1719,26.2969 140.1719,26.2969 139.9844,26.3906 C139.5625,26.6563 138.875,26.7813 138.1094,26.7813 C136.0625,26.7813 134.7656,25.6875 134.7656,23.9844 L134.7656,22.8906 C134.7656,21.1094 136.0156,19.7969 137.75,19.7969 C138.3281,19.7969 138.9375,19.9531 139.4063,20.2031 C139.8906,20.4844 140.0625,20.7031 140.1563,21.1094 C140.2188,21.5156 140.25,21.6406 140.3906,21.7656 C140.5313,21.9063 140.7656,22.0156 140.9844,22.0156 C141.25,22.0156 141.5156,21.875 141.6875,21.6563 C141.7969,21.5 141.8281,21.3125 141.8281,20.8906 L141.8281,19.4688 C141.8281,19.0313 141.8125,18.9063 141.7188,18.75 C141.5625,18.4844 141.2813,18.3438 140.9844,18.3438 C140.6875,18.3438 140.4844,18.4375 140.2656,18.75 L140.0938,18.6719 Z " fill="#000000"/><text fill="#000000" font-family="sans-serif" font-size="14" lengthAdjust="spacing" textLength="47" x="158.25" y="27.8467">Profile</text><line style="stroke:#181818;stroke-width:0.5;" x1="83" x2="248" y1="39" y2="39"/><rect fill="none" height="6" style="stroke:#C82930;stroke-width:1.0;" width="6" x="90" y="47"/><text fill="#000000" font-family="sans-serif" font-size="14" lengthAdjust="spacing" textLength="141" x="102" y="55.9951">profileType : String</text><rect fill="none" height="6" style="stroke:#C82930;stroke-width:1.0;" width="6" x="90" y="63.2969"/><text fill="#000000" font-family="sans-serif" font-size="14" lengthAdjust="spacing" textLength="139" x="102" y="72.292">description : String</text><line style="stroke:#181818;stroke-width:0.5;" x1="83" x2="248" y1="79.5938" y2="79.5938"/></g><!--MD5=[b4f35c302ba1bb0406fb1c761420ec28]
link Profile to Account--><g id="link_Profile_Account"><path codeLine="16" d="M165.5,88.337 C165.5,105.895 165.5,127.191 165.5,147.807 " fill="none" id="Profile-Account" style="stroke:#181818;stroke-width:1.0;"/><text fill="#000000" font-family="sans-serif" font-size="13" lengthAdjust="spacing" textLength="23" x="140.8109" y="107.543">1..*</text><text fill="#000000" font-family="sans-serif" font-size="13" lengthAdjust="spacing" textLength="23" x="141.4758" y="136.9771">0..*</text></g><!--MD5=[8a5eb3261ac99b79d3074441440755aa]
@startuml
class Account{
-email : String
-name : String
-function : String
-photo : String
-isActive : boolean
-password : String
-workingCapacityHoursPerWeek : integer
}

class Profile{
-profileType : String
-description : String
}

Profile "1..*"- - "0..*" Account
@enduml

PlantUML version 1.2022.3(Tue Mar 29 16:10:57 UTC 2022)
(GPL source distribution)
Java Runtime: Java(TM) SE Runtime Environment
JVM: Java HotSpot(TM) 64-Bit Server VM
Default Encoding: UTF-8
Language: en
Country: US
--></g></svg>