<?xml version="1.0" encoding="UTF-8" standalone="no"?><svg xmlns="http://www.w3.org/2000/svg" xmlns:xlink="http://www.w3.org/1999/xlink" contentScriptType="application/ecmascript" contentStyleType="text/css" height="1165px" preserveAspectRatio="none" style="width:2137px;height:1165px;background:#FFFFFF;" version="1.1" viewBox="0 0 2137 1165" width="2137px" zoomAndPan="magnify"><defs><filter height="300%" id="fl73pdmgmsttl" width="300%" x="-1" y="-1"><feGaussianBlur result="blurOut" stdDeviation="2.0"/><feColorMatrix in="blurOut" result="blurOut2" type="matrix" values="0 0 0 0 0 0 0 0 0 0 0 0 0 0 0 0 0 0 .4 0"/><feOffset dx="4.0" dy="4.0" in="blurOut2" result="blurOut3"/><feBlend in="SourceGraphic" in2="blurOut3" mode="normal"/></filter></defs><g><rect fill="#FFFFFF" filter="url(#fl73pdmgmsttl)" height="971.0313" style="stroke:#A80036;stroke-width:1.0;" width="10" x="354" y="99.6094"/><rect fill="#FFFFFF" filter="url(#fl73pdmgmsttl)" height="971.0313" style="stroke:#A80036;stroke-width:1.0;" width="10" x="686" y="99.6094"/><rect fill="#FFFFFF" filter="url(#fl73pdmgmsttl)" height="841.2734" style="stroke:#A80036;stroke-width:1.0;" width="10" x="897" y="229.3672"/><rect fill="#FFFFFF" filter="url(#fl73pdmgmsttl)" height="55.7031" style="stroke:#A80036;stroke-width:1.0;" width="10" x="1011.5" y="259.7188"/><rect fill="#FFFFFF" filter="url(#fl73pdmgmsttl)" height="55.7031" style="stroke:#A80036;stroke-width:1.0;" width="10" x="1011.5" y="715.125"/><rect fill="#FFFFFF" filter="url(#fl73pdmgmsttl)" height="302.6484" style="stroke:#A80036;stroke-width:1.0;" width="10" x="1208.5" y="352.7734"/><rect fill="#FFFFFF" filter="url(#fl73pdmgmsttl)" height="30.3516" style="stroke:#A80036;stroke-width:1.0;" width="10" x="1208.5" y="808.1797"/><rect fill="#FFFFFF" filter="url(#fl73pdmgmsttl)" height="246.9453" style="stroke:#A80036;stroke-width:1.0;" width="10" x="1444.5" y="408.4766"/><rect fill="#FFFFFF" filter="url(#fl73pdmgmsttl)" height="36.3516" style="stroke:#A80036;stroke-width:1.0;" width="10" x="1738.5" y="464.1797"/><rect fill="#FFFFFF" filter="url(#fl73pdmgmsttl)" height="36.3516" style="stroke:#A80036;stroke-width:1.0;" width="10" x="1738.5" y="553.7188"/><rect fill="#FFFFFF" filter="url(#fl73pdmgmsttl)" height="179.7578" style="stroke:#A80036;stroke-width:1.0;" width="10" x="1859.5" y="838.5313"/><rect fill="#FFFFFF" filter="url(#fl73pdmgmsttl)" height="36.3516" style="stroke:#A80036;stroke-width:1.0;" width="10" x="2062.5" y="894.2344"/><rect fill="#FFFFFF" filter="url(#fl73pdmgmsttl)" height="48.7031" style="stroke:#000000;stroke-width:2.0;" width="319.5" x="945" y="274.7188"/><rect fill="#FFFFFF" filter="url(#fl73pdmgmsttl)" height="287.6484" style="stroke:#000000;stroke-width:2.0;" width="639.5" x="1162.5" y="367.7734"/><rect fill="#FFFFFF" filter="url(#fl73pdmgmsttl)" height="224.9453" style="stroke:#000000;stroke-width:2.0;" width="396" x="1396" y="423.4766"/><rect fill="#FFFFFF" height="132.8906" style="stroke:none;stroke-width:1.0;" width="396" x="1396" y="515.5313"/><rect fill="#FFFFFF" filter="url(#fl73pdmgmsttl)" height="48.7031" style="stroke:#000000;stroke-width:2.0;" width="319.5" x="945" y="730.125"/><rect fill="#FFFFFF" filter="url(#fl73pdmgmsttl)" height="92.0547" style="stroke:#000000;stroke-width:2.0;" width="341.5" x="1782" y="853.5313"/><line style="stroke:#A80036;stroke-width:1.0;stroke-dasharray:5.0,5.0;" x1="153.5" x2="153.5" y1="89.6094" y2="1079.6406"/><line style="stroke:#A80036;stroke-width:1.0;stroke-dasharray:5.0,5.0;" x1="358.5" x2="358.5" y1="89.6094" y2="1079.6406"/><line style="stroke:#A80036;stroke-width:1.0;stroke-dasharray:5.0,5.0;" x1="690.5" x2="690.5" y1="89.6094" y2="1079.6406"/><line style="stroke:#A80036;stroke-width:1.0;stroke-dasharray:5.0,5.0;" x1="902" x2="902" y1="89.6094" y2="1079.6406"/><line style="stroke:#A80036;stroke-width:1.0;stroke-dasharray:5.0,5.0;" x1="1016" x2="1016" y1="89.6094" y2="1079.6406"/><line style="stroke:#A80036;stroke-width:1.0;stroke-dasharray:5.0,5.0;" x1="1213.5" x2="1213.5" y1="89.6094" y2="1079.6406"/><line style="stroke:#A80036;stroke-width:1.0;stroke-dasharray:5.0,5.0;" x1="1449" x2="1449" y1="89.6094" y2="1079.6406"/><line style="stroke:#A80036;stroke-width:1.0;stroke-dasharray:5.0,5.0;" x1="1743" x2="1743" y1="89.6094" y2="1079.6406"/><line style="stroke:#A80036;stroke-width:1.0;stroke-dasharray:5.0,5.0;" x1="1864" x2="1864" y1="89.6094" y2="1079.6406"/><line style="stroke:#A80036;stroke-width:1.0;stroke-dasharray:5.0,5.0;" x1="2067.5" x2="2067.5" y1="89.6094" y2="1079.6406"/><text fill="#000000" font-family="sans-serif" font-size="14" lengthAdjust="spacing" textLength="155" x="73.5" y="86.5332">PO / SM / Team Member</text><ellipse cx="154" cy="15" fill="#FEFECE" filter="url(#fl73pdmgmsttl)" rx="8" ry="8" style="stroke:#A80036;stroke-width:2.0;"/><path d="M154,23 L154,50 M141,31 L167,31 M154,50 L141,65 M154,50 L167,65 " fill="none" filter="url(#fl73pdmgmsttl)" style="stroke:#A80036;stroke-width:2.0;"/><text fill="#000000" font-family="sans-serif" font-size="14" lengthAdjust="spacing" textLength="155" x="73.5" y="1093.1738">PO / SM / Team Member</text><ellipse cx="154" cy="1106.25" fill="#FEFECE" filter="url(#fl73pdmgmsttl)" rx="8" ry="8" style="stroke:#A80036;stroke-width:2.0;"/><path d="M154,1114.25 L154,1141.25 M141,1122.25 L167,1122.25 M154,1141.25 L141,1156.25 M154,1141.25 L167,1156.25 " fill="none" filter="url(#fl73pdmgmsttl)" style="stroke:#A80036;stroke-width:2.0;"/><text fill="#000000" font-family="sans-serif" font-size="14" lengthAdjust="spacing" textLength="153" x="279.5" y="86.5332">: ShowProductBacklogUI</text><path d="M338.5,44 L338.5,68 M338.5,56 L355.5,56 " fill="none" filter="url(#fl73pdmgmsttl)" style="stroke:#A80036;stroke-width:2.0;"/><ellipse cx="367.5" cy="56" fill="#FEFECE" filter="url(#fl73pdmgmsttl)" rx="12" ry="12" style="stroke:#A80036;stroke-width:2.0;"/><text fill="#000000" font-family="sans-serif" font-size="14" lengthAdjust="spacing" textLength="153" x="279.5" y="1093.1738">: ShowProductBacklogUI</text><path d="M338.5,1100.25 L338.5,1124.25 M338.5,1112.25 L355.5,1112.25 " fill="none" filter="url(#fl73pdmgmsttl)" style="stroke:#A80036;stroke-width:2.0;"/><ellipse cx="367.5" cy="1112.25" fill="#FEFECE" filter="url(#fl73pdmgmsttl)" rx="12" ry="12" style="stroke:#A80036;stroke-width:2.0;"/><text fill="#000000" font-family="sans-serif" font-size="14" lengthAdjust="spacing" textLength="203" x="586.5" y="86.5332">: ShowProductBacklogController</text><ellipse cx="691" cy="56" fill="#FEFECE" filter="url(#fl73pdmgmsttl)" rx="12" ry="12" style="stroke:#A80036;stroke-width:2.0;"/><polygon fill="#A80036" points="687,44,693,39,691,44,693,49,687,44" style="stroke:#A80036;stroke-width:1.0;"/><text fill="#000000" font-family="sans-serif" font-size="14" lengthAdjust="spacing" textLength="203" x="586.5" y="1093.1738">: ShowProductBacklogController</text><ellipse cx="691" cy="1112.25" fill="#FEFECE" filter="url(#fl73pdmgmsttl)" rx="12" ry="12" style="stroke:#A80036;stroke-width:2.0;"/><polygon fill="#A80036" points="687,1100.25,693,1095.25,691,1100.25,693,1105.25,687,1100.25" style="stroke:#A80036;stroke-width:1.0;"/><text fill="#000000" font-family="sans-serif" font-size="14" lengthAdjust="spacing" textLength="80" x="859" y="86.5332">: ITCompany</text><ellipse cx="902" cy="56" fill="#FEFECE" filter="url(#fl73pdmgmsttl)" rx="12" ry="12" style="stroke:#A80036;stroke-width:2.0;"/><line style="stroke:#A80036;stroke-width:2.0;" x1="890" x2="914" y1="70" y2="70"/><text fill="#000000" font-family="sans-serif" font-size="14" lengthAdjust="spacing" textLength="80" x="859" y="1093.1738">: ITCompany</text><ellipse cx="902" cy="1112.25" fill="#FEFECE" filter="url(#fl73pdmgmsttl)" rx="12" ry="12" style="stroke:#A80036;stroke-width:2.0;"/><line style="stroke:#A80036;stroke-width:2.0;" x1="890" x2="914" y1="1126.25" y2="1126.25"/><rect fill="#FEFECE" filter="url(#fl73pdmgmsttl)" height="31.6094" style="stroke:#A80036;stroke-width:1.5;" width="119" x="955" y="53"/><text fill="#000000" font-family="sans-serif" font-size="14" lengthAdjust="spacing" textLength="105" x="962" y="74.5332">ps : ProjectStore</text><rect fill="#FEFECE" filter="url(#fl73pdmgmsttl)" height="31.6094" style="stroke:#A80036;stroke-width:1.5;" width="119" x="955" y="1078.6406"/><text fill="#000000" font-family="sans-serif" font-size="14" lengthAdjust="spacing" textLength="105" x="962" y="1100.1738">ps : ProjectStore</text><rect fill="#FEFECE" filter="url(#fl73pdmgmsttl)" height="31.6094" style="stroke:#A80036;stroke-width:1.5;" width="78" x="1172.5" y="53"/><text fill="#000000" font-family="sans-serif" font-size="14" lengthAdjust="spacing" textLength="64" x="1179.5" y="74.5332">p : Project</text><rect fill="#FEFECE" filter="url(#fl73pdmgmsttl)" height="31.6094" style="stroke:#A80036;stroke-width:1.5;" width="78" x="1172.5" y="1078.6406"/><text fill="#000000" font-family="sans-serif" font-size="14" lengthAdjust="spacing" textLength="64" x="1179.5" y="1100.1738">p : Project</text><rect fill="#FEFECE" filter="url(#fl73pdmgmsttl)" height="31.6094" style="stroke:#A80036;stroke-width:1.5;" width="83" x="1406" y="53"/><text fill="#000000" font-family="sans-serif" font-size="14" lengthAdjust="spacing" textLength="69" x="1413" y="74.5332">: Resource</text><rect fill="#FEFECE" filter="url(#fl73pdmgmsttl)" height="31.6094" style="stroke:#A80036;stroke-width:1.5;" width="83" x="1406" y="1078.6406"/><text fill="#000000" font-family="sans-serif" font-size="14" lengthAdjust="spacing" textLength="69" x="1413" y="1100.1738">: Resource</text><rect fill="#FEFECE" filter="url(#fl73pdmgmsttl)" height="31.6094" style="stroke:#A80036;stroke-width:1.5;" width="73" x="1705" y="53"/><text fill="#000000" font-family="sans-serif" font-size="14" lengthAdjust="spacing" textLength="59" x="1712" y="74.5332">: Account</text><rect fill="#FEFECE" filter="url(#fl73pdmgmsttl)" height="31.6094" style="stroke:#A80036;stroke-width:1.5;" width="73" x="1705" y="1078.6406"/><text fill="#000000" font-family="sans-serif" font-size="14" lengthAdjust="spacing" textLength="59" x="1712" y="1100.1738">: Account</text><rect fill="#FEFECE" filter="url(#fl73pdmgmsttl)" height="31.6094" style="stroke:#A80036;stroke-width:1.5;" width="141" x="1792" y="53"/><text fill="#000000" font-family="sans-serif" font-size="14" lengthAdjust="spacing" textLength="127" x="1799" y="74.5332">pb : ProductBacklog</text><rect fill="#FEFECE" filter="url(#fl73pdmgmsttl)" height="31.6094" style="stroke:#A80036;stroke-width:1.5;" width="141" x="1792" y="1078.6406"/><text fill="#000000" font-family="sans-serif" font-size="14" lengthAdjust="spacing" textLength="127" x="1799" y="1100.1738">pb : ProductBacklog</text><rect fill="#FEFECE" filter="url(#fl73pdmgmsttl)" height="31.6094" style="stroke:#A80036;stroke-width:1.5;" width="88" x="2021.5" y="53"/><text fill="#000000" font-family="sans-serif" font-size="14" lengthAdjust="spacing" textLength="74" x="2028.5" y="74.5332">: User Story</text><rect fill="#FEFECE" filter="url(#fl73pdmgmsttl)" height="31.6094" style="stroke:#A80036;stroke-width:1.5;" width="88" x="2021.5" y="1078.6406"/><text fill="#000000" font-family="sans-serif" font-size="14" lengthAdjust="spacing" textLength="74" x="2028.5" y="1100.1738">: User Story</text><rect fill="#FFFFFF" filter="url(#fl73pdmgmsttl)" height="971.0313" style="stroke:#A80036;stroke-width:1.0;" width="10" x="354" y="99.6094"/><rect fill="#FFFFFF" filter="url(#fl73pdmgmsttl)" height="971.0313" style="stroke:#A80036;stroke-width:1.0;" width="10" x="686" y="99.6094"/><rect fill="#FFFFFF" filter="url(#fl73pdmgmsttl)" height="841.2734" style="stroke:#A80036;stroke-width:1.0;" width="10" x="897" y="229.3672"/><rect fill="#FFFFFF" filter="url(#fl73pdmgmsttl)" height="55.7031" style="stroke:#A80036;stroke-width:1.0;" width="10" x="1011.5" y="259.7188"/><rect fill="#FFFFFF" filter="url(#fl73pdmgmsttl)" height="55.7031" style="stroke:#A80036;stroke-width:1.0;" width="10" x="1011.5" y="715.125"/><rect fill="#FFFFFF" filter="url(#fl73pdmgmsttl)" height="302.6484" style="stroke:#A80036;stroke-width:1.0;" width="10" x="1208.5" y="352.7734"/><rect fill="#FFFFFF" filter="url(#fl73pdmgmsttl)" height="30.3516" style="stroke:#A80036;stroke-width:1.0;" width="10" x="1208.5" y="808.1797"/><rect fill="#FFFFFF" filter="url(#fl73pdmgmsttl)" height="246.9453" style="stroke:#A80036;stroke-width:1.0;" width="10" x="1444.5" y="408.4766"/><rect fill="#FFFFFF" filter="url(#fl73pdmgmsttl)" height="36.3516" style="stroke:#A80036;stroke-width:1.0;" width="10" x="1738.5" y="464.1797"/><rect fill="#FFFFFF" filter="url(#fl73pdmgmsttl)" height="36.3516" style="stroke:#A80036;stroke-width:1.0;" width="10" x="1738.5" y="553.7188"/><rect fill="#FFFFFF" filter="url(#fl73pdmgmsttl)" height="179.7578" style="stroke:#A80036;stroke-width:1.0;" width="10" x="1859.5" y="838.5313"/><rect fill="#FFFFFF" filter="url(#fl73pdmgmsttl)" height="36.3516" style="stroke:#A80036;stroke-width:1.0;" width="10" x="2062.5" y="894.2344"/><ellipse cx="7.5" cy="121.2109" rx="4" ry="4" style="stroke:#A80036;stroke-width:1.5;fill:none;"/><polygon fill="#A80036" points="142,117.9609,152,121.9609,142,125.9609,146,121.9609" style="stroke:#A80036;stroke-width:1.0;"/><line style="stroke:#A80036;stroke-width:1.0;" x1="12" x2="148" y1="121.9609" y2="121.9609"/><text fill="#000000" font-family="sans-serif" font-size="13" font-weight="bold" lengthAdjust="spacing" textLength="7" x="15" y="117.1045">1</text><text fill="#000000" font-family="sans-serif" font-size="13" lengthAdjust="spacing" textLength="111" x="26" y="117.1045">Output from US017</text><polygon fill="#A80036" points="342,164.6641,352,168.6641,342,172.6641,346,168.6641" style="stroke:#A80036;stroke-width:1.0;"/><line style="stroke:#A80036;stroke-width:1.0;" x1="154" x2="348" y1="168.6641" y2="168.6641"/><text fill="#000000" font-family="sans-serif" font-size="13" font-weight="bold" lengthAdjust="spacing" textLength="7" x="161" y="155.6318">2</text><text fill="#000000" font-family="sans-serif" font-size="13" lengthAdjust="spacing" textLength="165" x="172" y="147.4561">Selects project and chooses</text><text fill="#000000" font-family="sans-serif" font-size="13" lengthAdjust="spacing" textLength="120" x="176" y="163.8076">view product backlog</text><polygon fill="#A80036" points="674,195.0156,684,199.0156,674,203.0156,678,199.0156" style="stroke:#A80036;stroke-width:1.0;"/><line style="stroke:#A80036;stroke-width:1.0;" x1="364" x2="680" y1="199.0156" y2="199.0156"/><text fill="#000000" font-family="sans-serif" font-size="13" font-weight="bold" lengthAdjust="spacing" textLength="7" x="371" y="194.1592">3</text><text fill="#000000" font-family="sans-serif" font-size="13" lengthAdjust="spacing" textLength="287" x="382" y="194.1592">String = listProductBacklogByPriority(code,email)</text><polygon fill="#A80036" points="885,225.3672,895,229.3672,885,233.3672,889,229.3672" style="stroke:#A80036;stroke-width:1.0;"/><line style="stroke:#A80036;stroke-width:1.0;" x1="696" x2="891" y1="229.3672" y2="229.3672"/><text fill="#000000" font-family="sans-serif" font-size="13" font-weight="bold" lengthAdjust="spacing" textLength="7" x="703" y="224.5107">4</text><text fill="#000000" font-family="sans-serif" font-size="13" lengthAdjust="spacing" textLength="159" x="714" y="224.5107">ps = getProjectStore(email)</text><polygon fill="#A80036" points="999.5,255.7188,1009.5,259.7188,999.5,263.7188,1003.5,259.7188" style="stroke:#A80036;stroke-width:1.0;"/><line style="stroke:#A80036;stroke-width:1.0;" x1="696" x2="1005.5" y1="259.7188" y2="259.7188"/><text fill="#000000" font-family="sans-serif" font-size="13" font-weight="bold" lengthAdjust="spacing" textLength="7" x="703" y="254.8623">5</text><text fill="#000000" font-family="sans-serif" font-size="13" lengthAdjust="spacing" textLength="166" x="714" y="254.8623">p = findProjectByCode(code)</text><path d="M945,274.7188 L1018,274.7188 L1018,282.7188 L1008,292.7188 L945,292.7188 L945,274.7188 " fill="#EEEEEE" style="stroke:#000000;stroke-width:1.0;"/><rect fill="none" height="48.7031" style="stroke:#000000;stroke-width:2.0;" width="319.5" x="945" y="274.7188"/><text fill="#000000" font-family="sans-serif" font-size="13" font-weight="bold" lengthAdjust="spacing" textLength="28" x="960" y="289.2139">loop</text><polygon fill="#A80036" points="1201.5,311.4219,1211.5,315.4219,1201.5,319.4219,1205.5,315.4219" style="stroke:#A80036;stroke-width:1.0;"/><line style="stroke:#A80036;stroke-width:1.0;" x1="1016.5" x2="1207.5" y1="315.4219" y2="315.4219"/><text fill="#000000" font-family="sans-serif" font-size="13" font-weight="bold" lengthAdjust="spacing" textLength="7" x="1023.5" y="310.5654">6</text><text fill="#000000" font-family="sans-serif" font-size="13" lengthAdjust="spacing" textLength="150" x="1034.5" y="310.5654">hasId(code : int) : boolean</text><polygon fill="#A80036" points="1196.5,348.7734,1206.5,352.7734,1196.5,356.7734,1200.5,352.7734" style="stroke:#A80036;stroke-width:1.0;"/><line style="stroke:#A80036;stroke-width:1.0;" x1="696" x2="1202.5" y1="352.7734" y2="352.7734"/><text fill="#000000" font-family="sans-serif" font-size="13" font-weight="bold" lengthAdjust="spacing" textLength="7" x="703" y="347.917">7</text><text fill="#000000" font-family="sans-serif" font-size="13" lengthAdjust="spacing" textLength="173" x="714" y="347.917">isOwnProject(email) : boolean</text><path d="M1162.5,367.7734 L1235.5,367.7734 L1235.5,375.7734 L1225.5,385.7734 L1162.5,385.7734 L1162.5,367.7734 " fill="#EEEEEE" style="stroke:#000000;stroke-width:1.0;"/><rect fill="none" height="287.6484" style="stroke:#000000;stroke-width:2.0;" width="639.5" x="1162.5" y="367.7734"/><text fill="#000000" font-family="sans-serif" font-size="13" font-weight="bold" lengthAdjust="spacing" textLength="28" x="1177.5" y="382.2686">loop</text><polygon fill="#A80036" points="1432.5,404.4766,1442.5,408.4766,1432.5,412.4766,1436.5,408.4766" style="stroke:#A80036;stroke-width:1.0;"/><line style="stroke:#A80036;stroke-width:1.0;stroke-dasharray:2.0,2.0;" x1="1218.5" x2="1438.5" y1="408.4766" y2="408.4766"/><text fill="#000000" font-family="sans-serif" font-size="13" font-weight="bold" lengthAdjust="spacing" textLength="7" x="1225.5" y="403.6201">8</text><text fill="#000000" font-family="sans-serif" font-size="13" lengthAdjust="spacing" textLength="196" x="1236.5" y="403.6201">isResourceActive(email) : boolean</text><path d="M1396,423.4766 L1457,423.4766 L1457,431.4766 L1447,441.4766 L1396,441.4766 L1396,423.4766 " fill="#EEEEEE" style="stroke:#000000;stroke-width:1.0;"/><rect fill="none" height="224.9453" style="stroke:#000000;stroke-width:2.0;" width="396" x="1396" y="423.4766"/><text fill="#000000" font-family="sans-serif" font-size="13" font-weight="bold" lengthAdjust="spacing" textLength="16" x="1411" y="437.9717">alt</text><text fill="#000000" font-family="sans-serif" font-size="11" font-weight="bold" lengthAdjust="spacing" textLength="84" x="1472" y="436.8955">[EndDate==null]</text><polygon fill="#A80036" points="1726.5,460.1797,1736.5,464.1797,1726.5,468.1797,1730.5,464.1797" style="stroke:#A80036;stroke-width:1.0;"/><line style="stroke:#A80036;stroke-width:1.0;" x1="1454.5" x2="1732.5" y1="464.1797" y2="464.1797"/><text fill="#000000" font-family="sans-serif" font-size="13" font-weight="bold" lengthAdjust="spacing" textLength="7" x="1461.5" y="459.3232">9</text><text fill="#000000" font-family="sans-serif" font-size="13" lengthAdjust="spacing" textLength="247" x="1472.5" y="459.3232">isAccountEqualTo(email : String) : boolean</text><line style="stroke:#A80036;stroke-width:1.0;" x1="1454.5" x2="1496.5" y1="499.5313" y2="499.5313"/><line style="stroke:#A80036;stroke-width:1.0;" x1="1496.5" x2="1496.5" y1="499.5313" y2="512.5313"/><line style="stroke:#A80036;stroke-width:1.0;" x1="1449.5" x2="1496.5" y1="512.5313" y2="512.5313"/><polygon fill="#A80036" points="1459.5,508.5313,1449.5,512.5313,1459.5,516.5313,1455.5,512.5313" style="stroke:#A80036;stroke-width:1.0;"/><text fill="#000000" font-family="sans-serif" font-size="13" font-weight="bold" lengthAdjust="spacing" textLength="14" x="1461.5" y="494.6748">10</text><text fill="#000000" font-family="sans-serif" font-size="13" lengthAdjust="spacing" textLength="167" x="1479.5" y="494.6748">isStartDateBefore() : boolean</text><line style="stroke:#000000;stroke-width:1.0;stroke-dasharray:2.0,2.0;" x1="1396" x2="1792" y1="516.5313" y2="516.5313"/><text fill="#000000" font-family="sans-serif" font-size="11" font-weight="bold" lengthAdjust="spacing" textLength="42" x="1401" y="527.9502">["else"]</text><polygon fill="#A80036" points="1726.5,549.7188,1736.5,553.7188,1726.5,557.7188,1730.5,553.7188" style="stroke:#A80036;stroke-width:1.0;"/><line style="stroke:#A80036;stroke-width:1.0;" x1="1454.5" x2="1732.5" y1="553.7188" y2="553.7188"/><text fill="#000000" font-family="sans-serif" font-size="13" font-weight="bold" lengthAdjust="spacing" textLength="14" x="1461.5" y="548.8623">11</text><text fill="#000000" font-family="sans-serif" font-size="13" lengthAdjust="spacing" textLength="247" x="1479.5" y="548.8623">isAccountEqualTo(email : String) : boolean</text><line style="stroke:#A80036;stroke-width:1.0;" x1="1454.5" x2="1496.5" y1="589.0703" y2="589.0703"/><line style="stroke:#A80036;stroke-width:1.0;" x1="1496.5" x2="1496.5" y1="589.0703" y2="602.0703"/><line style="stroke:#A80036;stroke-width:1.0;" x1="1449.5" x2="1496.5" y1="602.0703" y2="602.0703"/><polygon fill="#A80036" points="1459.5,598.0703,1449.5,602.0703,1459.5,606.0703,1455.5,602.0703" style="stroke:#A80036;stroke-width:1.0;"/><text fill="#000000" font-family="sans-serif" font-size="13" font-weight="bold" lengthAdjust="spacing" textLength="14" x="1461.5" y="584.2139">12</text><text fill="#000000" font-family="sans-serif" font-size="13" lengthAdjust="spacing" textLength="167" x="1479.5" y="584.2139">isStartDateBefore() : boolean</text><line style="stroke:#A80036;stroke-width:1.0;" x1="1454.5" x2="1496.5" y1="627.4219" y2="627.4219"/><line style="stroke:#A80036;stroke-width:1.0;" x1="1496.5" x2="1496.5" y1="627.4219" y2="640.4219"/><line style="stroke:#A80036;stroke-width:1.0;" x1="1455.5" x2="1496.5" y1="640.4219" y2="640.4219"/><polygon fill="#A80036" points="1465.5,636.4219,1455.5,640.4219,1465.5,644.4219,1461.5,640.4219" style="stroke:#A80036;stroke-width:1.0;"/><text fill="#000000" font-family="sans-serif" font-size="13" font-weight="bold" lengthAdjust="spacing" textLength="14" x="1461.5" y="622.5654">13</text><text fill="#000000" font-family="sans-serif" font-size="13" lengthAdjust="spacing" textLength="185" x="1479.5" y="622.5654">endDate.isAfter(now()) : boolean</text><polygon fill="#A80036" points="885,680.7734,895,684.7734,885,688.7734,889,684.7734" style="stroke:#A80036;stroke-width:1.0;"/><line style="stroke:#A80036;stroke-width:1.0;" x1="696" x2="891" y1="684.7734" y2="684.7734"/><text fill="#000000" font-family="sans-serif" font-size="13" font-weight="bold" lengthAdjust="spacing" textLength="14" x="703" y="679.917">14</text><text fill="#000000" font-family="sans-serif" font-size="13" lengthAdjust="spacing" textLength="159" x="721" y="679.917">ps = getProjectStore(email)</text><polygon fill="#A80036" points="999.5,711.125,1009.5,715.125,999.5,719.125,1003.5,715.125" style="stroke:#A80036;stroke-width:1.0;"/><line style="stroke:#A80036;stroke-width:1.0;" x1="696" x2="1005.5" y1="715.125" y2="715.125"/><text fill="#000000" font-family="sans-serif" font-size="13" font-weight="bold" lengthAdjust="spacing" textLength="14" x="703" y="710.2686">15</text><text fill="#000000" font-family="sans-serif" font-size="13" lengthAdjust="spacing" textLength="166" x="721" y="710.2686">p = findProjectByCode(code)</text><path d="M945,730.125 L1018,730.125 L1018,738.125 L1008,748.125 L945,748.125 L945,730.125 " fill="#EEEEEE" style="stroke:#000000;stroke-width:1.0;"/><rect fill="none" height="48.7031" style="stroke:#000000;stroke-width:2.0;" width="319.5" x="945" y="730.125"/><text fill="#000000" font-family="sans-serif" font-size="13" font-weight="bold" lengthAdjust="spacing" textLength="28" x="960" y="744.6201">loop</text><polygon fill="#A80036" points="1201.5,766.8281,1211.5,770.8281,1201.5,774.8281,1205.5,770.8281" style="stroke:#A80036;stroke-width:1.0;"/><line style="stroke:#A80036;stroke-width:1.0;" x1="1016.5" x2="1207.5" y1="770.8281" y2="770.8281"/><text fill="#000000" font-family="sans-serif" font-size="13" font-weight="bold" lengthAdjust="spacing" textLength="14" x="1023.5" y="765.9717">16</text><text fill="#000000" font-family="sans-serif" font-size="13" lengthAdjust="spacing" textLength="150" x="1041.5" y="765.9717">hasId(code : int) : boolean</text><polygon fill="#A80036" points="1196.5,804.1797,1206.5,808.1797,1196.5,812.1797,1200.5,808.1797" style="stroke:#A80036;stroke-width:1.0;"/><line style="stroke:#A80036;stroke-width:1.0;" x1="696" x2="1202.5" y1="808.1797" y2="808.1797"/><text fill="#000000" font-family="sans-serif" font-size="13" font-weight="bold" lengthAdjust="spacing" textLength="14" x="703" y="803.3232">17</text><text fill="#000000" font-family="sans-serif" font-size="13" lengthAdjust="spacing" textLength="148" x="721" y="803.3232">pb = getProductBacklog()</text><polygon fill="#A80036" points="1847.5,834.5313,1857.5,838.5313,1847.5,842.5313,1851.5,838.5313" style="stroke:#A80036;stroke-width:1.0;"/><line style="stroke:#A80036;stroke-width:1.0;" x1="696" x2="1853.5" y1="838.5313" y2="838.5313"/><text fill="#000000" font-family="sans-serif" font-size="13" font-weight="bold" lengthAdjust="spacing" textLength="14" x="703" y="833.6748">18</text><text fill="#000000" font-family="sans-serif" font-size="13" lengthAdjust="spacing" textLength="340" x="721" y="833.6748">priorityOrderUserStoryList = listProductBacklogByPriority()</text><path d="M1782,853.5313 L1855,853.5313 L1855,861.5313 L1845,871.5313 L1782,871.5313 L1782,853.5313 " fill="#EEEEEE" style="stroke:#000000;stroke-width:1.0;"/><rect fill="none" height="92.0547" style="stroke:#000000;stroke-width:2.0;" width="341.5" x="1782" y="853.5313"/><text fill="#000000" font-family="sans-serif" font-size="13" font-weight="bold" lengthAdjust="spacing" textLength="28" x="1797" y="868.0264">loop</text><polygon fill="#A80036" points="2050.5,890.2344,2060.5,894.2344,2050.5,898.2344,2054.5,894.2344" style="stroke:#A80036;stroke-width:1.0;"/><line style="stroke:#A80036;stroke-width:1.0;" x1="1869.5" x2="2056.5" y1="894.2344" y2="894.2344"/><text fill="#000000" font-family="sans-serif" font-size="13" font-weight="bold" lengthAdjust="spacing" textLength="14" x="1876.5" y="889.3779">19</text><text fill="#000000" font-family="sans-serif" font-size="13" lengthAdjust="spacing" textLength="67" x="1894.5" y="889.3779">getPriority()</text><line style="stroke:#A80036;stroke-width:1.0;" x1="1869.5" x2="1911.5" y1="929.5859" y2="929.5859"/><line style="stroke:#A80036;stroke-width:1.0;" x1="1911.5" x2="1911.5" y1="929.5859" y2="942.5859"/><line style="stroke:#A80036;stroke-width:1.0;" x1="1864.5" x2="1911.5" y1="942.5859" y2="942.5859"/><polygon fill="#A80036" points="1874.5,938.5859,1864.5,942.5859,1874.5,946.5859,1870.5,942.5859" style="stroke:#A80036;stroke-width:1.0;"/><text fill="#000000" font-family="sans-serif" font-size="13" font-weight="bold" lengthAdjust="spacing" textLength="14" x="1876.5" y="924.7295">20</text><text fill="#000000" font-family="sans-serif" font-size="13" lengthAdjust="spacing" textLength="87" x="1894.5" y="924.7295">add User Story</text><line style="stroke:#A80036;stroke-width:1.0;" x1="1869.5" x2="1911.5" y1="974.9375" y2="974.9375"/><line style="stroke:#A80036;stroke-width:1.0;" x1="1911.5" x2="1911.5" y1="974.9375" y2="987.9375"/><line style="stroke:#A80036;stroke-width:1.0;" x1="1870.5" x2="1911.5" y1="987.9375" y2="987.9375"/><polygon fill="#A80036" points="1880.5,983.9375,1870.5,987.9375,1880.5,991.9375,1876.5,987.9375" style="stroke:#A80036;stroke-width:1.0;"/><text fill="#000000" font-family="sans-serif" font-size="13" font-weight="bold" lengthAdjust="spacing" textLength="14" x="1876.5" y="970.0811">21</text><text fill="#000000" font-family="sans-serif" font-size="13" lengthAdjust="spacing" textLength="161" x="1894.5" y="970.0811">Sort User Stories by priority</text><polygon fill="#A80036" points="375,1014.2891,365,1018.2891,375,1022.2891,371,1018.2891" style="stroke:#A80036;stroke-width:1.0;"/><line style="stroke:#A80036;stroke-width:1.0;stroke-dasharray:2.0,2.0;" x1="369" x2="685" y1="1018.2891" y2="1018.2891"/><text fill="#000000" font-family="sans-serif" font-size="13" font-weight="bold" lengthAdjust="spacing" textLength="14" x="381" y="1013.4326">22</text><text fill="#000000" font-family="sans-serif" font-size="13" lengthAdjust="spacing" textLength="200" x="399" y="1013.4326">(project code+project name) String</text><line style="stroke:#A80036;stroke-width:1.0;" x1="364" x2="406" y1="1048.6406" y2="1048.6406"/><line style="stroke:#A80036;stroke-width:1.0;" x1="406" x2="406" y1="1048.6406" y2="1061.6406"/><line style="stroke:#A80036;stroke-width:1.0;" x1="365" x2="406" y1="1061.6406" y2="1061.6406"/><polygon fill="#A80036" points="375,1057.6406,365,1061.6406,375,1065.6406,371,1061.6406" style="stroke:#A80036;stroke-width:1.0;"/><text fill="#000000" font-family="sans-serif" font-size="13" font-weight="bold" lengthAdjust="spacing" textLength="14" x="371" y="1043.7842">23</text><text fill="#000000" font-family="sans-serif" font-size="13" lengthAdjust="spacing" textLength="126" x="389" y="1043.7842">show product backlog</text><!--MD5=[47d2b611d618243b1c7795d6cdda74ec]
@startuml

actor "PO / SM / Team Member" as User
boundary ": ShowProductBacklogUI" as UI
control ": ShowProductBacklogController" as Controller
entity ": ITCompany" as IT
participant "ps : ProjectStore" as store
participant "p : Project" as proj
participant ": Resource" as resource
participant ": Account" as account
participant "pb : ProductBacklog" as productBacklog
participant ": User Story" as userStory

activate UI
activate Controller

autonumber
[o-> User : Output from US017
User -> UI : Selects project and chooses\n view product backlog
UI -> Controller : String = listProductBacklogByPriority(code,email)
Controller -> IT : ps = getProjectStore(email)
activate IT
Controller -> store : p = findProjectByCode(code)

loop
    activate store
    store -> proj : hasId(code : int) : boolean
    deactivate store
end

Controller -> proj : isUserActiveInProject(email) : boolean

loop
    activate proj
    proj - -> resource : isResourceActive(email) : boolean
    activate resource

        alt EndDate==null
        resource -> account : isAccountEqualTo(email : String) : boolean
        activate account
        resource -> resource : isStartDateBefore() : boolean
        deactivate account

        else "else"
        resource -> account : isAccountEqualTo(email : String) : boolean
        activate account
        resource -> resource : isStartDateBefore() : boolean
        deactivate account
        resource -> resource : endDate.isAfter(now()) : boolean
        end

    deactivate resource
    deactivate proj
end

Controller -> IT : ps = getProjectStore(email)
Controller -> store : p = findProjectByCode(code)

loop
    activate store
    store -> proj : hasId(code : int) : boolean
    deactivate store
end

Controller -> proj : pb = getProductBacklog()
activate proj

Controller -> productBacklog : priorityOrderUserStoryList = listProductBacklogByPriority()
deactivate proj
activate productBacklog

loop
    productBacklog -> userStory : getPriority()
    activate userStory
    productBacklog -> productBacklog : add User Story
    deactivate userStory
end
productBacklog -> productBacklog : Sort User Stories by priority
Controller - -> UI :  (project code+project name) String
deactivate productBacklog
UI -> UI : show product backlog

@enduml

PlantUML version 1.2022.0(Tue Jan 11 16:16:42 GMT 2022)
(GPL source distribution)
Java Runtime: OpenJDK Runtime Environment
JVM: OpenJDK 64-Bit Server VM
Default Encoding: Cp1252
Language: en
Country: GB
--></g></svg>