<?xml version="1.0" encoding="UTF-8" standalone="no"?><svg xmlns="http://www.w3.org/2000/svg" xmlns:xlink="http://www.w3.org/1999/xlink" contentScriptType="application/ecmascript" contentStyleType="text/css" height="302px" preserveAspectRatio="none" style="width:396px;height:302px;background:#FFFFFF;" version="1.1" viewBox="0 0 396 302" width="396px" zoomAndPan="magnify"><defs><filter height="300%" id="fsii6canyyzru" width="300%" x="-1" y="-1"><feGaussianBlur result="blurOut" stdDeviation="2.0"/><feColorMatrix in="blurOut" result="blurOut2" type="matrix" values="0 0 0 0 0 0 0 0 0 0 0 0 0 0 0 0 0 0 .4 0"/><feOffset dx="4.0" dy="4.0" in="blurOut2" result="blurOut3"/><feBlend in="SourceGraphic" in2="blurOut3" mode="normal"/></filter></defs><g><rect fill="#FFFFFF" filter="url(#fsii6canyyzru)" height="30.3516" style="stroke:#A80036;stroke-width:1.0;" width="10" x="349" y="168.6641"/><line style="stroke:#A80036;stroke-width:1.0;stroke-dasharray:5.0,5.0;" x1="153.5" x2="153.5" y1="89.6094" y2="217.0156"/><line style="stroke:#A80036;stroke-width:1.0;stroke-dasharray:5.0,5.0;" x1="354" x2="354" y1="89.6094" y2="217.0156"/><text fill="#000000" font-family="sans-serif" font-size="14" lengthAdjust="spacing" textLength="155" x="73.5" y="86.5332">PO / SM / Team Member</text><ellipse cx="154" cy="15" fill="#FEFECE" filter="url(#fsii6canyyzru)" rx="8" ry="8" style="stroke:#A80036;stroke-width:2.0;"/><path d="M154,23 L154,50 M141,31 L167,31 M154,50 L141,65 M154,50 L167,65 " fill="none" filter="url(#fsii6canyyzru)" style="stroke:#A80036;stroke-width:2.0;"/><text fill="#000000" font-family="sans-serif" font-size="14" lengthAdjust="spacing" textLength="155" x="73.5" y="230.5488">PO / SM / Team Member</text><ellipse cx="154" cy="243.625" fill="#FEFECE" filter="url(#fsii6canyyzru)" rx="8" ry="8" style="stroke:#A80036;stroke-width:2.0;"/><path d="M154,251.625 L154,278.625 M141,259.625 L167,259.625 M154,278.625 L141,293.625 M154,278.625 L167,293.625 " fill="none" filter="url(#fsii6canyyzru)" style="stroke:#A80036;stroke-width:2.0;"/><rect fill="#FEFECE" filter="url(#fsii6canyyzru)" height="31.6094" style="stroke:#A80036;stroke-width:1.5;" width="60" x="322" y="53"/><text fill="#000000" font-family="sans-serif" font-size="14" lengthAdjust="spacing" textLength="46" x="329" y="74.5332">System</text><rect fill="#FEFECE" filter="url(#fsii6canyyzru)" height="31.6094" style="stroke:#A80036;stroke-width:1.5;" width="60" x="322" y="216.0156"/><text fill="#000000" font-family="sans-serif" font-size="14" lengthAdjust="spacing" textLength="46" x="329" y="237.5488">System</text><rect fill="#FFFFFF" filter="url(#fsii6canyyzru)" height="30.3516" style="stroke:#A80036;stroke-width:1.0;" width="10" x="349" y="168.6641"/><ellipse cx="7.5" cy="121.2109" rx="4" ry="4" style="stroke:#A80036;stroke-width:1.5;fill:none;"/><polygon fill="#A80036" points="142,117.9609,152,121.9609,142,125.9609,146,121.9609" style="stroke:#A80036;stroke-width:1.0;"/><line style="stroke:#A80036;stroke-width:1.0;" x1="12" x2="148" y1="121.9609" y2="121.9609"/><text fill="#000000" font-family="sans-serif" font-size="13" font-weight="bold" lengthAdjust="spacing" textLength="7" x="15" y="117.1045">1</text><text fill="#000000" font-family="sans-serif" font-size="13" lengthAdjust="spacing" textLength="111" x="26" y="117.1045">Output from US017</text><polygon fill="#A80036" points="337,164.6641,347,168.6641,337,172.6641,341,168.6641" style="stroke:#A80036;stroke-width:1.0;"/><line style="stroke:#A80036;stroke-width:1.0;" x1="154" x2="343" y1="168.6641" y2="168.6641"/><text fill="#000000" font-family="sans-serif" font-size="13" font-weight="bold" lengthAdjust="spacing" textLength="7" x="161" y="155.6318">2</text><text fill="#000000" font-family="sans-serif" font-size="13" lengthAdjust="spacing" textLength="165" x="172" y="147.4561">Selects project and chooses</text><text fill="#000000" font-family="sans-serif" font-size="13" lengthAdjust="spacing" textLength="120" x="176" y="163.8076">view product backlog</text><polygon fill="#A80036" points="165,195.0156,155,199.0156,165,203.0156,161,199.0156" style="stroke:#A80036;stroke-width:1.0;"/><line style="stroke:#A80036;stroke-width:1.0;" x1="159" x2="353" y1="199.0156" y2="199.0156"/><text fill="#000000" font-family="sans-serif" font-size="13" font-weight="bold" lengthAdjust="spacing" textLength="7" x="171" y="194.1592">3</text><text fill="#000000" font-family="sans-serif" font-size="13" lengthAdjust="spacing" textLength="126" x="182" y="194.1592">show product backlog</text><!--MD5=[8ea8056e240a872aca18801d91c3fdce]
@startuml
actor "PO / SM / Team Member" as user
participant "System" as system
autonumber
[o-> user : Output from US017
user -> system : Selects project and chooses\n view product backlog
activate system
system -> user : show product backlog
deactivate system
@enduml

PlantUML version 1.2022.0(Tue Jan 11 16:16:42 GMT 2022)
(GPL source distribution)
Java Runtime: OpenJDK Runtime Environment
JVM: OpenJDK 64-Bit Server VM
Default Encoding: Cp1252
Language: en
Country: GB
--></g></svg>