<?xml version="1.0" encoding="UTF-8" standalone="no"?><svg xmlns="http://www.w3.org/2000/svg" xmlns:xlink="http://www.w3.org/1999/xlink" contentStyleType="text/css" height="1230px" preserveAspectRatio="none" style="width:2168px;height:1230px;background:#FFFFFF;" version="1.1" viewBox="0 0 2168 1230" width="2168px" zoomAndPan="magnify"><defs/><g><rect fill="#FFFFFF" height="1012.8867" style="stroke:#181818;stroke-width:1.0;" width="10" x="313.5" y="126.1367"/><rect fill="#FFFFFF" height="919.0078" style="stroke:#181818;stroke-width:1.0;" width="10" x="630.5" y="167.6641"/><rect fill="#FFFFFF" height="858.3047" style="stroke:#181818;stroke-width:1.0;" width="10" x="903.5" y="198.0156"/><rect fill="#FFFFFF" height="72.9609" style="stroke:#181818;stroke-width:1.0;" width="10" x="1083.5" y="228.3672"/><rect fill="#FFFFFF" height="60.3516" style="stroke:#181818;stroke-width:1.0;" width="10" x="1083.5" y="468.0859"/><rect fill="#FFFFFF" height="60.3516" style="stroke:#181818;stroke-width:1.0;" width="10" x="1083.5" y="965.6172"/><rect fill="#FFFFFF" height="30.3516" style="stroke:#181818;stroke-width:1.0;" width="10" x="1489" y="528.4375"/><rect fill="#FFFFFF" height="30.3516" style="stroke:#181818;stroke-width:1.0;" width="10" x="1489" y="601.3984"/><rect fill="#FFFFFF" height="30.3516" style="stroke:#181818;stroke-width:1.0;" width="10" x="1489" y="662.1016"/><rect fill="#FFFFFF" height="30.3516" style="stroke:#181818;stroke-width:1.0;" width="10" x="1489" y="722.8047"/><rect fill="#FFFFFF" height="30.3516" style="stroke:#181818;stroke-width:1.0;" width="10" x="1489" y="783.5078"/><rect fill="#FFFFFF" height="30.3516" style="stroke:#181818;stroke-width:1.0;" width="10" x="1489" y="844.2109"/><rect fill="#FFFFFF" height="30.3516" style="stroke:#181818;stroke-width:1.0;" width="10" x="1489" y="904.9141"/><rect fill="#FFFFFF" height="60.3516" style="stroke:#181818;stroke-width:1.0;" width="10" x="1647" y="935.2656"/><rect fill="#FFFFFF" height="196.7578" style="stroke:#181818;stroke-width:1.0;" width="10" x="1815" y="301.3281"/><rect fill="#FFFFFF" height="141.0547" style="stroke:#181818;stroke-width:1.0;" width="10" x="2013" y="357.0313"/><rect fill="#FFFFFF" height="30.3516" style="stroke:#181818;stroke-width:1.0;" width="10" x="2013" y="601.3984"/><rect fill="#FFFFFF" height="30.3516" style="stroke:#181818;stroke-width:1.0;" width="10" x="2013" y="662.1016"/><rect fill="#FFFFFF" height="30.3516" style="stroke:#181818;stroke-width:1.0;" width="10" x="2013" y="722.8047"/><rect fill="#FFFFFF" height="30.3516" style="stroke:#181818;stroke-width:1.0;" width="10" x="2013" y="783.5078"/><rect fill="#FFFFFF" height="30.3516" style="stroke:#181818;stroke-width:1.0;" width="10" x="2013" y="844.2109"/><rect fill="#FFFFFF" height="30.3516" style="stroke:#181818;stroke-width:1.0;" width="10" x="2013" y="904.9141"/><rect height="122.4063" style="stroke:#000000;stroke-width:1.5;fill:none;" width="420.5" x="1741.5" y="316.3281"/><line style="stroke:#181818;stroke-width:0.5;fill:none;stroke-dasharray:5.0,5.0;" x1="188" x2="188" y1="82.6094" y2="1148.0234"/><line style="stroke:#181818;stroke-width:0.5;fill:none;stroke-dasharray:5.0,5.0;" x1="318.5" x2="318.5" y1="82.6094" y2="1148.0234"/><line style="stroke:#181818;stroke-width:0.5;fill:none;stroke-dasharray:5.0,5.0;" x1="635" x2="635" y1="82.6094" y2="1148.0234"/><line style="stroke:#181818;stroke-width:0.5;fill:none;stroke-dasharray:5.0,5.0;" x1="908.5" x2="908.5" y1="82.6094" y2="1148.0234"/><line style="stroke:#181818;stroke-width:0.5;fill:none;stroke-dasharray:5.0,5.0;" x1="1088.5" x2="1088.5" y1="82.6094" y2="1148.0234"/><line style="stroke:#181818;stroke-width:0.5;fill:none;stroke-dasharray:5.0,5.0;" x1="1338.5" x2="1338.5" y1="267.6719" y2="1148.0234"/><line style="stroke:#181818;stroke-width:0.5;fill:none;stroke-dasharray:5.0,5.0;" x1="1493.5" x2="1493.5" y1="82.6094" y2="1148.0234"/><line style="stroke:#181818;stroke-width:0.5;fill:none;stroke-dasharray:5.0,5.0;" x1="1651.5" x2="1651.5" y1="567.7422" y2="1148.0234"/><line style="stroke:#181818;stroke-width:0.5;fill:none;stroke-dasharray:5.0,5.0;" x1="1819.5" x2="1819.5" y1="82.6094" y2="1148.0234"/><line style="stroke:#181818;stroke-width:0.5;fill:none;stroke-dasharray:5.0,5.0;" x1="2017.5" x2="2017.5" y1="82.6094" y2="1148.0234"/><text fill="#000000" font-family="sans-serif" font-size="14" lengthAdjust="spacing" textLength="83" x="144" y="79.5332">Administrator</text><ellipse cx="188.5" cy="13.5" fill="#E2E2F0" rx="8" ry="8" style="stroke:#181818;stroke-width:0.5;"/><path d="M188.5,21.5 L188.5,48.5 M175.5,29.5 L201.5,29.5 M188.5,48.5 L175.5,63.5 M188.5,48.5 L201.5,63.5 " fill="none" style="stroke:#181818;stroke-width:0.5;"/><text fill="#000000" font-family="sans-serif" font-size="14" lengthAdjust="spacing" textLength="83" x="144" y="1161.5566">Administrator</text><ellipse cx="188.5" cy="1173.1328" fill="#E2E2F0" rx="8" ry="8" style="stroke:#181818;stroke-width:0.5;"/><path d="M188.5,1181.1328 L188.5,1208.1328 M175.5,1189.1328 L201.5,1189.1328 M188.5,1208.1328 L175.5,1223.1328 M188.5,1208.1328 L201.5,1223.1328 " fill="none" style="stroke:#181818;stroke-width:0.5;"/><rect fill="#E2E2F0" height="31.6094" rx="2.5" ry="2.5" style="stroke:#181818;stroke-width:0.5;" width="126" x="255.5" y="50"/><text fill="#000000" font-family="sans-serif" font-size="14" lengthAdjust="spacing" textLength="112" x="262.5" y="71.5332">:AccountSearchUI</text><rect fill="#E2E2F0" height="31.6094" rx="2.5" ry="2.5" style="stroke:#181818;stroke-width:0.5;" width="126" x="255.5" y="1147.0234"/><text fill="#000000" font-family="sans-serif" font-size="14" lengthAdjust="spacing" textLength="112" x="262.5" y="1168.5566">:AccountSearchUI</text><rect fill="#E2E2F0" height="31.6094" rx="2.5" ry="2.5" style="stroke:#181818;stroke-width:0.5;" width="85" x="593" y="50"/><text fill="#000000" font-family="sans-serif" font-size="14" lengthAdjust="spacing" textLength="71" x="600" y="71.5332">WebServer</text><rect fill="#E2E2F0" height="31.6094" rx="2.5" ry="2.5" style="stroke:#181818;stroke-width:0.5;" width="85" x="593" y="1147.0234"/><text fill="#000000" font-family="sans-serif" font-size="14" lengthAdjust="spacing" textLength="71" x="600" y="1168.5566">WebServer</text><rect fill="#E2E2F0" height="31.6094" rx="2.5" ry="2.5" style="stroke:#181818;stroke-width:0.5;" width="176" x="820.5" y="50"/><text fill="#000000" font-family="sans-serif" font-size="14" lengthAdjust="spacing" textLength="162" x="827.5" y="71.5332">:AccountSearchController</text><rect fill="#E2E2F0" height="31.6094" rx="2.5" ry="2.5" style="stroke:#181818;stroke-width:0.5;" width="176" x="820.5" y="1147.0234"/><text fill="#000000" font-family="sans-serif" font-size="14" lengthAdjust="spacing" textLength="162" x="827.5" y="1168.5566">:AccountSearchController</text><rect fill="#E2E2F0" height="31.6094" rx="2.5" ry="2.5" style="stroke:#181818;stroke-width:0.5;" width="164" x="1006.5" y="50"/><text fill="#000000" font-family="sans-serif" font-size="14" lengthAdjust="spacing" textLength="150" x="1013.5" y="71.5332">:AppServiceGetAccount</text><rect fill="#E2E2F0" height="31.6094" rx="2.5" ry="2.5" style="stroke:#181818;stroke-width:0.5;" width="164" x="1006.5" y="1147.0234"/><text fill="#000000" font-family="sans-serif" font-size="14" lengthAdjust="spacing" textLength="150" x="1013.5" y="1168.5566">:AppServiceGetAccount</text><rect fill="#E2E2F0" height="31.6094" rx="2.5" ry="2.5" style="stroke:#181818;stroke-width:0.5;" width="173" x="1252.5" y="1147.0234"/><text fill="#000000" font-family="sans-serif" font-size="14" lengthAdjust="spacing" textLength="159" x="1259.5" y="1168.5566">e:Email &lt;&lt;ValueObject&gt;&gt;</text><rect fill="#E2E2F0" height="31.6094" rx="2.5" ry="2.5" style="stroke:#181818;stroke-width:0.5;" width="117" x="1435.5" y="50"/><text fill="#000000" font-family="sans-serif" font-size="14" lengthAdjust="spacing" textLength="103" x="1442.5" y="71.5332">:mapperAccount</text><rect fill="#E2E2F0" height="31.6094" rx="2.5" ry="2.5" style="stroke:#181818;stroke-width:0.5;" width="117" x="1435.5" y="1147.0234"/><text fill="#000000" font-family="sans-serif" font-size="14" lengthAdjust="spacing" textLength="103" x="1442.5" y="1168.5566">:mapperAccount</text><rect fill="#E2E2F0" height="31.6094" rx="2.5" ry="2.5" style="stroke:#181818;stroke-width:0.5;" width="179" x="1562.5" y="1147.0234"/><text fill="#000000" font-family="sans-serif" font-size="14" lengthAdjust="spacing" textLength="165" x="1569.5" y="1168.5566">accountDTO:AccountDTO</text><rect fill="#E2E2F0" height="31.6094" rx="2.5" ry="2.5" style="stroke:#181818;stroke-width:0.5;" width="137" x="1751.5" y="50"/><text fill="#000000" font-family="sans-serif" font-size="14" lengthAdjust="spacing" textLength="123" x="1758.5" y="71.5332">:AccountRepository</text><rect fill="#E2E2F0" height="31.6094" rx="2.5" ry="2.5" style="stroke:#181818;stroke-width:0.5;" width="137" x="1751.5" y="1147.0234"/><text fill="#000000" font-family="sans-serif" font-size="14" lengthAdjust="spacing" textLength="123" x="1758.5" y="1168.5566">:AccountRepository</text><rect fill="#E2E2F0" height="31.6094" rx="2.5" ry="2.5" style="stroke:#181818;stroke-width:0.5;" width="69" x="1983.5" y="50"/><text fill="#000000" font-family="sans-serif" font-size="14" lengthAdjust="spacing" textLength="55" x="1990.5" y="71.5332">:Account</text><rect fill="#E2E2F0" height="31.6094" rx="2.5" ry="2.5" style="stroke:#181818;stroke-width:0.5;" width="69" x="1983.5" y="1147.0234"/><text fill="#000000" font-family="sans-serif" font-size="14" lengthAdjust="spacing" textLength="55" x="1990.5" y="1168.5566">:Account</text><rect fill="#FFFFFF" height="1012.8867" style="stroke:#181818;stroke-width:1.0;" width="10" x="313.5" y="126.1367"/><rect fill="#FFFFFF" height="919.0078" style="stroke:#181818;stroke-width:1.0;" width="10" x="630.5" y="167.6641"/><rect fill="#FFFFFF" height="858.3047" style="stroke:#181818;stroke-width:1.0;" width="10" x="903.5" y="198.0156"/><rect fill="#FFFFFF" height="72.9609" style="stroke:#181818;stroke-width:1.0;" width="10" x="1083.5" y="228.3672"/><rect fill="#FFFFFF" height="60.3516" style="stroke:#181818;stroke-width:1.0;" width="10" x="1083.5" y="468.0859"/><rect fill="#FFFFFF" height="60.3516" style="stroke:#181818;stroke-width:1.0;" width="10" x="1083.5" y="965.6172"/><rect fill="#FFFFFF" height="30.3516" style="stroke:#181818;stroke-width:1.0;" width="10" x="1489" y="528.4375"/><rect fill="#FFFFFF" height="30.3516" style="stroke:#181818;stroke-width:1.0;" width="10" x="1489" y="601.3984"/><rect fill="#FFFFFF" height="30.3516" style="stroke:#181818;stroke-width:1.0;" width="10" x="1489" y="662.1016"/><rect fill="#FFFFFF" height="30.3516" style="stroke:#181818;stroke-width:1.0;" width="10" x="1489" y="722.8047"/><rect fill="#FFFFFF" height="30.3516" style="stroke:#181818;stroke-width:1.0;" width="10" x="1489" y="783.5078"/><rect fill="#FFFFFF" height="30.3516" style="stroke:#181818;stroke-width:1.0;" width="10" x="1489" y="844.2109"/><rect fill="#FFFFFF" height="30.3516" style="stroke:#181818;stroke-width:1.0;" width="10" x="1489" y="904.9141"/><rect fill="#FFFFFF" height="60.3516" style="stroke:#181818;stroke-width:1.0;" width="10" x="1647" y="935.2656"/><rect fill="#FFFFFF" height="196.7578" style="stroke:#181818;stroke-width:1.0;" width="10" x="1815" y="301.3281"/><rect fill="#FFFFFF" height="141.0547" style="stroke:#181818;stroke-width:1.0;" width="10" x="2013" y="357.0313"/><rect fill="#FFFFFF" height="30.3516" style="stroke:#181818;stroke-width:1.0;" width="10" x="2013" y="601.3984"/><rect fill="#FFFFFF" height="30.3516" style="stroke:#181818;stroke-width:1.0;" width="10" x="2013" y="662.1016"/><rect fill="#FFFFFF" height="30.3516" style="stroke:#181818;stroke-width:1.0;" width="10" x="2013" y="722.8047"/><rect fill="#FFFFFF" height="30.3516" style="stroke:#181818;stroke-width:1.0;" width="10" x="2013" y="783.5078"/><rect fill="#FFFFFF" height="30.3516" style="stroke:#181818;stroke-width:1.0;" width="10" x="2013" y="844.2109"/><rect fill="#FFFFFF" height="30.3516" style="stroke:#181818;stroke-width:1.0;" width="10" x="2013" y="904.9141"/><polygon fill="#181818" points="301.5,122.1367,311.5,126.1367,301.5,130.1367,305.5,126.1367" style="stroke:#181818;stroke-width:1.0;"/><line style="stroke:#181818;stroke-width:1.0;" x1="188.5" x2="307.5" y1="126.1367" y2="126.1367"/><text fill="#000000" font-family="sans-serif" font-size="13" font-weight="bold" lengthAdjust="spacing" textLength="7" x="195.5" y="121.2803">1</text><text fill="#000000" font-family="sans-serif" font-size="13" lengthAdjust="spacing" textLength="95" x="206.5" y="121.2803">Enter user email</text><path d="M5,97.6094 L5,139.6094 L184,139.6094 L184,107.6094 L174,97.6094 L5,97.6094 " fill="#FEFFDD" style="stroke:#181818;stroke-width:0.5;"/><path d="M174,97.6094 L174,107.6094 L184,107.6094 L174,97.6094 " fill="#FEFFDD" style="stroke:#181818;stroke-width:0.5;"/><text fill="#000000" font-family="sans-serif" font-size="13" lengthAdjust="spacing" textLength="154" x="15" y="116.1045">As Administrator, I want to</text><text fill="#000000" font-family="sans-serif" font-size="13" lengthAdjust="spacing" textLength="97" x="11" y="132.4561">search for users.</text><polygon fill="#181818" points="618.5,163.6641,628.5,167.6641,618.5,171.6641,622.5,167.6641" style="stroke:#181818;stroke-width:1.0;"/><line style="stroke:#181818;stroke-width:1.0;" x1="323.5" x2="624.5" y1="167.6641" y2="167.6641"/><text fill="#000000" font-family="sans-serif" font-size="13" font-weight="bold" lengthAdjust="spacing" textLength="7" x="330.5" y="162.8076">2</text><text fill="#000000" font-family="sans-serif" font-size="13" lengthAdjust="spacing" textLength="277" x="341.5" y="162.8076">GET http://localhost:8080/api/accounts/{{email}}</text><polygon fill="#181818" points="891.5,194.0156,901.5,198.0156,891.5,202.0156,895.5,198.0156" style="stroke:#181818;stroke-width:1.0;"/><line style="stroke:#181818;stroke-width:1.0;" x1="640.5" x2="897.5" y1="198.0156" y2="198.0156"/><text fill="#000000" font-family="sans-serif" font-size="13" font-weight="bold" lengthAdjust="spacing" textLength="7" x="647.5" y="193.1592">3</text><text fill="#000000" font-family="sans-serif" font-size="13" lengthAdjust="spacing" textLength="165" x="658.5" y="193.1592">findAccountInfo(String email)</text><polygon fill="#181818" points="1071.5,224.3672,1081.5,228.3672,1071.5,232.3672,1075.5,228.3672" style="stroke:#181818;stroke-width:1.0;"/><line style="stroke:#181818;stroke-width:1.0;" x1="913.5" x2="1077.5" y1="228.3672" y2="228.3672"/><text fill="#000000" font-family="sans-serif" font-size="13" font-weight="bold" lengthAdjust="spacing" textLength="7" x="920.5" y="223.5107">4</text><text fill="#000000" font-family="sans-serif" font-size="13" lengthAdjust="spacing" textLength="94" x="931.5" y="223.5107">getAccountInfo()</text><polygon fill="#181818" points="1240.5,254.7188,1250.5,258.7188,1240.5,262.7188,1244.5,258.7188" style="stroke:#181818;stroke-width:1.0;"/><line style="stroke:#181818;stroke-width:1.0;stroke-dasharray:2.0,2.0;" x1="1093.5" x2="1246.5" y1="258.7188" y2="258.7188"/><text fill="#000000" font-family="sans-serif" font-size="13" font-weight="bold" lengthAdjust="spacing" textLength="7" x="1100.5" y="253.8623">5</text><text fill="#000000" font-family="sans-serif" font-size="13" lengthAdjust="spacing" textLength="124" x="1111.5" y="253.8623">Email.of(String email)</text><rect fill="#E2E2F0" height="31.6094" rx="2.5" ry="2.5" style="stroke:#181818;stroke-width:0.5;" width="173" x="1252.5" y="236.3672"/><text fill="#000000" font-family="sans-serif" font-size="14" lengthAdjust="spacing" textLength="159" x="1259.5" y="257.9004">e:Email &lt;&lt;ValueObject&gt;&gt;</text><polygon fill="#181818" points="1803,297.3281,1813,301.3281,1803,305.3281,1807,301.3281" style="stroke:#181818;stroke-width:1.0;"/><line style="stroke:#181818;stroke-width:1.0;" x1="1088.5" x2="1809" y1="301.3281" y2="301.3281"/><text fill="#000000" font-family="sans-serif" font-size="13" font-weight="bold" lengthAdjust="spacing" textLength="7" x="1095.5" y="296.4717">6</text><text fill="#000000" font-family="sans-serif" font-size="13" lengthAdjust="spacing" textLength="156" x="1106.5" y="296.4717">findAccountByEmail(email)</text><path d="M1741.5,316.3281 L1814.5,316.3281 L1814.5,324.6797 L1804.5,334.6797 L1741.5,334.6797 L1741.5,316.3281 " fill="#EEEEEE" style="stroke:#000000;stroke-width:1.5;"/><rect fill="none" height="122.4063" style="stroke:#000000;stroke-width:1.5;" width="420.5" x="1741.5" y="316.3281"/><text fill="#000000" font-family="sans-serif" font-size="13" font-weight="bold" lengthAdjust="spacing" textLength="28" x="1756.5" y="330.8232">loop</text><polygon fill="#181818" points="2001,353.0313,2011,357.0313,2001,361.0313,2005,357.0313" style="stroke:#181818;stroke-width:1.0;"/><line style="stroke:#181818;stroke-width:1.0;" x1="1825" x2="2007" y1="357.0313" y2="357.0313"/><text fill="#000000" font-family="sans-serif" font-size="13" font-weight="bold" lengthAdjust="spacing" textLength="7" x="1832" y="352.1748">7</text><text fill="#000000" font-family="sans-serif" font-size="13" lengthAdjust="spacing" textLength="158" x="1843" y="352.1748">findAccountByEmail(Email)</text><line style="stroke:#181818;stroke-width:1.0;" x1="2023" x2="2065" y1="387.3828" y2="387.3828"/><line style="stroke:#181818;stroke-width:1.0;" x1="2065" x2="2065" y1="387.3828" y2="400.3828"/><line style="stroke:#181818;stroke-width:1.0;" x1="2024" x2="2065" y1="400.3828" y2="400.3828"/><polygon fill="#181818" points="2034,396.3828,2024,400.3828,2034,404.3828,2030,400.3828" style="stroke:#181818;stroke-width:1.0;"/><text fill="#000000" font-family="sans-serif" font-size="13" font-weight="bold" lengthAdjust="spacing" textLength="7" x="2030" y="382.5264">8</text><text fill="#000000" font-family="sans-serif" font-size="13" lengthAdjust="spacing" textLength="109" x="2041" y="382.5264">EmailExists(email)</text><polygon fill="#181818" points="1836,426.7344,1826,430.7344,1836,434.7344,1832,430.7344" style="stroke:#181818;stroke-width:1.0;"/><line style="stroke:#181818;stroke-width:1.0;stroke-dasharray:2.0,2.0;" x1="1830" x2="2012" y1="430.7344" y2="430.7344"/><text fill="#000000" font-family="sans-serif" font-size="13" font-weight="bold" lengthAdjust="spacing" textLength="7" x="1842" y="425.8779">9</text><text fill="#000000" font-family="sans-serif" font-size="13" lengthAdjust="spacing" textLength="22" x="1853" y="425.8779">true</text><polygon fill="#181818" points="1104.5,464.0859,1094.5,468.0859,1104.5,472.0859,1100.5,468.0859" style="stroke:#181818;stroke-width:1.0;"/><line style="stroke:#181818;stroke-width:1.0;stroke-dasharray:2.0,2.0;" x1="1098.5" x2="1814" y1="468.0859" y2="468.0859"/><text fill="#000000" font-family="sans-serif" font-size="13" font-weight="bold" lengthAdjust="spacing" textLength="14" x="1110.5" y="463.2295">10</text><text fill="#000000" font-family="sans-serif" font-size="13" lengthAdjust="spacing" textLength="46" x="1128.5" y="463.2295">account</text><polygon fill="#181818" points="1477,524.4375,1487,528.4375,1477,532.4375,1481,528.4375" style="stroke:#181818;stroke-width:1.0;"/><line style="stroke:#181818;stroke-width:1.0;" x1="1088.5" x2="1483" y1="528.4375" y2="528.4375"/><text fill="#000000" font-family="sans-serif" font-size="13" font-weight="bold" lengthAdjust="spacing" textLength="14" x="1095.5" y="523.5811">11</text><text fill="#000000" font-family="sans-serif" font-size="13" lengthAdjust="spacing" textLength="91" x="1113.5" y="523.5811">toDTO(account)</text><polygon fill="#181818" points="1550.5,554.7891,1560.5,558.7891,1550.5,562.7891,1554.5,558.7891" style="stroke:#181818;stroke-width:1.0;"/><line style="stroke:#181818;stroke-width:1.0;" x1="1494" x2="1556.5" y1="558.7891" y2="558.7891"/><text fill="#000000" font-family="sans-serif" font-size="13" font-weight="bold" lengthAdjust="spacing" textLength="14" x="1501" y="553.9326">12</text><text fill="#000000" font-family="sans-serif" font-size="13" lengthAdjust="spacing" textLength="4" x="1519" y="553.9326"> </text><rect fill="#E2E2F0" height="31.6094" rx="2.5" ry="2.5" style="stroke:#181818;stroke-width:0.5;" width="179" x="1562.5" y="536.4375"/><text fill="#000000" font-family="sans-serif" font-size="14" lengthAdjust="spacing" textLength="165" x="1569.5" y="557.9707">accountDTO:AccountDTO</text><polygon fill="#181818" points="2001,597.3984,2011,601.3984,2001,605.3984,2005,601.3984" style="stroke:#181818;stroke-width:1.0;"/><line style="stroke:#181818;stroke-width:1.0;" x1="1499" x2="2007" y1="601.3984" y2="601.3984"/><text fill="#000000" font-family="sans-serif" font-size="13" font-weight="bold" lengthAdjust="spacing" textLength="14" x="1506" y="596.542">13</text><text fill="#000000" font-family="sans-serif" font-size="13" lengthAdjust="spacing" textLength="84" x="1524" y="596.542">getaccountID()</text><polygon fill="#181818" points="1505,627.75,1495,631.75,1505,635.75,1501,631.75" style="stroke:#181818;stroke-width:1.0;"/><line style="stroke:#181818;stroke-width:1.0;stroke-dasharray:2.0,2.0;" x1="1499" x2="2017" y1="631.75" y2="631.75"/><text fill="#000000" font-family="sans-serif" font-size="13" font-weight="bold" lengthAdjust="spacing" textLength="14" x="1511" y="626.8936">14</text><text fill="#000000" font-family="sans-serif" font-size="13" lengthAdjust="spacing" textLength="58" x="1529" y="626.8936">accountID</text><polygon fill="#181818" points="2001,658.1016,2011,662.1016,2001,666.1016,2005,662.1016" style="stroke:#181818;stroke-width:1.0;"/><line style="stroke:#181818;stroke-width:1.0;" x1="1499" x2="2007" y1="662.1016" y2="662.1016"/><text fill="#000000" font-family="sans-serif" font-size="13" font-weight="bold" lengthAdjust="spacing" textLength="14" x="1506" y="657.2451">15</text><text fill="#000000" font-family="sans-serif" font-size="13" lengthAdjust="spacing" textLength="59" x="1524" y="657.2451">getEmail()</text><polygon fill="#181818" points="1505,688.4531,1495,692.4531,1505,696.4531,1501,692.4531" style="stroke:#181818;stroke-width:1.0;"/><line style="stroke:#181818;stroke-width:1.0;stroke-dasharray:2.0,2.0;" x1="1499" x2="2017" y1="692.4531" y2="692.4531"/><text fill="#000000" font-family="sans-serif" font-size="13" font-weight="bold" lengthAdjust="spacing" textLength="14" x="1511" y="687.5967">16</text><text fill="#000000" font-family="sans-serif" font-size="13" lengthAdjust="spacing" textLength="31" x="1529" y="687.5967">email</text><polygon fill="#181818" points="2001,718.8047,2011,722.8047,2001,726.8047,2005,722.8047" style="stroke:#181818;stroke-width:1.0;"/><line style="stroke:#181818;stroke-width:1.0;" x1="1499" x2="2007" y1="722.8047" y2="722.8047"/><text fill="#000000" font-family="sans-serif" font-size="13" font-weight="bold" lengthAdjust="spacing" textLength="14" x="1506" y="717.9482">17</text><text fill="#000000" font-family="sans-serif" font-size="13" lengthAdjust="spacing" textLength="60" x="1524" y="717.9482">getName()</text><polygon fill="#181818" points="1505,749.1563,1495,753.1563,1505,757.1563,1501,753.1563" style="stroke:#181818;stroke-width:1.0;"/><line style="stroke:#181818;stroke-width:1.0;stroke-dasharray:2.0,2.0;" x1="1499" x2="2017" y1="753.1563" y2="753.1563"/><text fill="#000000" font-family="sans-serif" font-size="13" font-weight="bold" lengthAdjust="spacing" textLength="14" x="1511" y="748.2998">18</text><text fill="#000000" font-family="sans-serif" font-size="13" lengthAdjust="spacing" textLength="32" x="1529" y="748.2998">name</text><polygon fill="#181818" points="2001,779.5078,2011,783.5078,2001,787.5078,2005,783.5078" style="stroke:#181818;stroke-width:1.0;"/><line style="stroke:#181818;stroke-width:1.0;" x1="1499" x2="2007" y1="783.5078" y2="783.5078"/><text fill="#000000" font-family="sans-serif" font-size="13" font-weight="bold" lengthAdjust="spacing" textLength="14" x="1506" y="778.6514">19</text><text fill="#000000" font-family="sans-serif" font-size="13" lengthAdjust="spacing" textLength="76" x="1524" y="778.6514">getFunction()</text><polygon fill="#181818" points="1505,809.8594,1495,813.8594,1505,817.8594,1501,813.8594" style="stroke:#181818;stroke-width:1.0;"/><line style="stroke:#181818;stroke-width:1.0;stroke-dasharray:2.0,2.0;" x1="1499" x2="2017" y1="813.8594" y2="813.8594"/><text fill="#000000" font-family="sans-serif" font-size="13" font-weight="bold" lengthAdjust="spacing" textLength="14" x="1511" y="809.0029">20</text><text fill="#000000" font-family="sans-serif" font-size="13" lengthAdjust="spacing" textLength="45" x="1529" y="809.0029">function</text><polygon fill="#181818" points="2001,840.2109,2011,844.2109,2001,848.2109,2005,844.2109" style="stroke:#181818;stroke-width:1.0;"/><line style="stroke:#181818;stroke-width:1.0;" x1="1499" x2="2007" y1="844.2109" y2="844.2109"/><text fill="#000000" font-family="sans-serif" font-size="13" font-weight="bold" lengthAdjust="spacing" textLength="14" x="1506" y="839.3545">21</text><text fill="#000000" font-family="sans-serif" font-size="13" lengthAdjust="spacing" textLength="60" x="1524" y="839.3545">getPhoto()</text><polygon fill="#181818" points="1505,870.5625,1495,874.5625,1505,878.5625,1501,874.5625" style="stroke:#181818;stroke-width:1.0;"/><line style="stroke:#181818;stroke-width:1.0;stroke-dasharray:2.0,2.0;" x1="1499" x2="2017" y1="874.5625" y2="874.5625"/><text fill="#000000" font-family="sans-serif" font-size="13" font-weight="bold" lengthAdjust="spacing" textLength="14" x="1511" y="869.7061">22</text><text fill="#000000" font-family="sans-serif" font-size="13" lengthAdjust="spacing" textLength="32" x="1529" y="869.7061">photo</text><polygon fill="#181818" points="2001,900.9141,2011,904.9141,2001,908.9141,2005,904.9141" style="stroke:#181818;stroke-width:1.0;"/><line style="stroke:#181818;stroke-width:1.0;" x1="1499" x2="2007" y1="904.9141" y2="904.9141"/><text fill="#000000" font-family="sans-serif" font-size="13" font-weight="bold" lengthAdjust="spacing" textLength="14" x="1506" y="900.0576">23</text><text fill="#000000" font-family="sans-serif" font-size="13" lengthAdjust="spacing" textLength="109" x="1524" y="900.0576">getActiveProfileID()</text><polygon fill="#181818" points="1505,931.2656,1495,935.2656,1505,939.2656,1501,935.2656" style="stroke:#181818;stroke-width:1.0;"/><line style="stroke:#181818;stroke-width:1.0;stroke-dasharray:2.0,2.0;" x1="1499" x2="2017" y1="935.2656" y2="935.2656"/><text fill="#000000" font-family="sans-serif" font-size="13" font-weight="bold" lengthAdjust="spacing" textLength="14" x="1511" y="930.4092">24</text><text fill="#000000" font-family="sans-serif" font-size="13" lengthAdjust="spacing" textLength="46" x="1529" y="930.4092">profileID</text><polygon fill="#181818" points="1104.5,961.6172,1094.5,965.6172,1104.5,969.6172,1100.5,965.6172" style="stroke:#181818;stroke-width:1.0;"/><line style="stroke:#181818;stroke-width:1.0;stroke-dasharray:2.0,2.0;" x1="1098.5" x2="1646" y1="965.6172" y2="965.6172"/><text fill="#000000" font-family="sans-serif" font-size="13" font-weight="bold" lengthAdjust="spacing" textLength="14" x="1110.5" y="960.7607">25</text><text fill="#000000" font-family="sans-serif" font-size="13" lengthAdjust="spacing" textLength="72" x="1128.5" y="960.7607">accountDTO</text><polygon fill="#181818" points="924.5,1021.9688,914.5,1025.9688,924.5,1029.9688,920.5,1025.9688" style="stroke:#181818;stroke-width:1.0;"/><line style="stroke:#181818;stroke-width:1.0;stroke-dasharray:2.0,2.0;" x1="918.5" x2="1087.5" y1="1025.9688" y2="1025.9688"/><text fill="#000000" font-family="sans-serif" font-size="13" font-weight="bold" lengthAdjust="spacing" textLength="14" x="930.5" y="1021.1123">26</text><text fill="#000000" font-family="sans-serif" font-size="13" lengthAdjust="spacing" textLength="72" x="948.5" y="1021.1123">accountDTO</text><polygon fill="#181818" points="651.5,1052.3203,641.5,1056.3203,651.5,1060.3203,647.5,1056.3203" style="stroke:#181818;stroke-width:1.0;"/><line style="stroke:#181818;stroke-width:1.0;stroke-dasharray:2.0,2.0;" x1="645.5" x2="907.5" y1="1056.3203" y2="1056.3203"/><text fill="#000000" font-family="sans-serif" font-size="13" font-weight="bold" lengthAdjust="spacing" textLength="14" x="657.5" y="1051.4639">27</text><text fill="#000000" font-family="sans-serif" font-size="13" lengthAdjust="spacing" textLength="221" x="675.5" y="1051.4639">ResponseEntity(result,HttpStatus.OK)</text><polygon fill="#181818" points="334.5,1082.6719,324.5,1086.6719,334.5,1090.6719,330.5,1086.6719" style="stroke:#181818;stroke-width:1.0;"/><line style="stroke:#181818;stroke-width:1.0;stroke-dasharray:2.0,2.0;" x1="328.5" x2="634.5" y1="1086.6719" y2="1086.6719"/><text fill="#000000" font-family="sans-serif" font-size="13" font-weight="bold" lengthAdjust="spacing" textLength="14" x="340.5" y="1081.8154">28</text><text fill="#000000" font-family="sans-serif" font-size="13" lengthAdjust="spacing" textLength="221" x="358.5" y="1081.8154">ResponseEntity(result,HttpStatus.OK)</text><line style="stroke:#181818;stroke-width:1.0;" x1="323.5" x2="365.5" y1="1117.0234" y2="1117.0234"/><line style="stroke:#181818;stroke-width:1.0;" x1="365.5" x2="365.5" y1="1117.0234" y2="1130.0234"/><line style="stroke:#181818;stroke-width:1.0;" x1="324.5" x2="365.5" y1="1130.0234" y2="1130.0234"/><polygon fill="#181818" points="334.5,1126.0234,324.5,1130.0234,334.5,1134.0234,330.5,1130.0234" style="stroke:#181818;stroke-width:1.0;"/><text fill="#000000" font-family="sans-serif" font-size="13" font-weight="bold" lengthAdjust="spacing" textLength="14" x="330.5" y="1112.167">29</text><text fill="#000000" font-family="sans-serif" font-size="13" lengthAdjust="spacing" textLength="160" x="348.5" y="1112.167">Display account Information</text><!--MD5=[3e2d3c6614ad0c77ae4c20cf8763ece4]
@startuml
'https://plantuml.com/sequence-diagram

autonumber

actor Administrator as dir
participant ":AccountSearchUI" as UI
participant "WebServer" as server
participant ":AccountSearchController" as control

participant ":AppServiceGetAccount" as ASAccount
participant "e:Email <<ValueObject>>" as VOEmail
participant ":mapperAccount" as MapAccount
participant "accountDTO:AccountDTO" as DTOAc
participant ":AccountRepository" as RepAccount
participant ":Account" as Account


dir -> UI :Enter user email
activate UI
note left
 As Administrator, I want to
search for users.
end note
UI -> server :GET http://localhost:8080/api/accounts/{{email}}
activate server
server -> control :findAccountInfo(String email)

activate control
control -> ASAccount :getAccountInfo()


activate ASAccount
ASAccount - ->VOEmail** : Email.of(String email)

ASAccount -> RepAccount : findAccountByEmail(email)
deactivate ASAccount
activate RepAccount
loop
RepAccount->Account :findAccountByEmail(Email)
activate Account
Account -> Account : EmailExists(email)
Account- ->RepAccount : true
end loop
RepAccount - -> ASAccount :account
activate ASAccount
deactivate Account
deactivate RepAccount
ASAccount -> MapAccount : toDTO(account)
deactivate ASAccount
activate MapAccount
MapAccount -> DTOAc**
deactivate MapAccount



MapAccount -> Account : getaccountID()
activate MapAccount
activate Account
Account - -> MapAccount : accountID
deactivate MapAccount
deactivate Account
MapAccount -> Account : getEmail()
activate MapAccount
activate Account
Account - -> MapAccount : email
deactivate MapAccount
deactivate Account
MapAccount -> Account : getName()
activate MapAccount
activate Account
Account - -> MapAccount : name
deactivate MapAccount
deactivate Account
MapAccount -> Account : getFunction()
activate MapAccount
activate Account
Account - -> MapAccount : function
deactivate MapAccount
deactivate Account
MapAccount -> Account : getPhoto()
activate MapAccount
activate Account
Account - -> MapAccount : photo
deactivate MapAccount
deactivate Account
MapAccount -> Account : getActiveProfileID()
activate MapAccount
activate Account
Account - -> MapAccount : profileID
deactivate MapAccount
deactivate Account

activate DTOAc
DTOAc - -> ASAccount : accountDTO
activate ASAccount
deactivate DTOAc
ASAccount - -> control : accountDTO

deactivate ASAccount
control - -> server : ResponseEntity(result,HttpStatus.OK)
deactivate control

server- ->UI : ResponseEntity(result,HttpStatus.OK)
deactivate server


deactivate Account
deactivate RepAccount
deactivate ASAccount
deactivate MapAccount
UI -> UI : Display account Information

@enduml

@startuml

autonumber

actor Administrator as dir
participant ":AccountSearchUI" as UI
participant "WebServer" as server
participant ":AccountSearchController" as control

participant ":AppServiceGetAccount" as ASAccount
participant "e:Email <<ValueObject>>" as VOEmail
participant ":mapperAccount" as MapAccount
participant "accountDTO:AccountDTO" as DTOAc
participant ":AccountRepository" as RepAccount
participant ":Account" as Account


dir -> UI :Enter user email
activate UI
note left
 As Administrator, I want to
search for users.
end note
UI -> server :GET http://localhost:8080/api/accounts/{{email}}
activate server
server -> control :findAccountInfo(String email)

activate control
control -> ASAccount :getAccountInfo()


activate ASAccount
ASAccount - ->VOEmail** : Email.of(String email)

ASAccount -> RepAccount : findAccountByEmail(email)
deactivate ASAccount
activate RepAccount
loop
RepAccount->Account :findAccountByEmail(Email)
activate Account
Account -> Account : EmailExists(email)
Account- ->RepAccount : true
end loop
RepAccount - -> ASAccount :account
activate ASAccount
deactivate Account
deactivate RepAccount
ASAccount -> MapAccount : toDTO(account)
deactivate ASAccount
activate MapAccount
MapAccount -> DTOAc**
deactivate MapAccount



MapAccount -> Account : getaccountID()
activate MapAccount
activate Account
Account - -> MapAccount : accountID
deactivate MapAccount
deactivate Account
MapAccount -> Account : getEmail()
activate MapAccount
activate Account
Account - -> MapAccount : email
deactivate MapAccount
deactivate Account
MapAccount -> Account : getName()
activate MapAccount
activate Account
Account - -> MapAccount : name
deactivate MapAccount
deactivate Account
MapAccount -> Account : getFunction()
activate MapAccount
activate Account
Account - -> MapAccount : function
deactivate MapAccount
deactivate Account
MapAccount -> Account : getPhoto()
activate MapAccount
activate Account
Account - -> MapAccount : photo
deactivate MapAccount
deactivate Account
MapAccount -> Account : getActiveProfileID()
activate MapAccount
activate Account
Account - -> MapAccount : profileID
deactivate MapAccount
deactivate Account

activate DTOAc
DTOAc - -> ASAccount : accountDTO
activate ASAccount
deactivate DTOAc
ASAccount - -> control : accountDTO

deactivate ASAccount
control - -> server : ResponseEntity(result,HttpStatus.OK)
deactivate control

server- ->UI : ResponseEntity(result,HttpStatus.OK)
deactivate server


deactivate Account
deactivate RepAccount
deactivate ASAccount
deactivate MapAccount
UI -> UI : Display account Information

@enduml

PlantUML version 1.2022.4(Sat Apr 09 14:29:17 BST 2022)
(GPL source distribution)
Java Runtime: OpenJDK Runtime Environment
JVM: OpenJDK 64-Bit Server VM
Default Encoding: Cp1252
Language: pt
Country: PT
--></g></svg>