<?xml version="1.0" encoding="UTF-8" standalone="no"?><svg xmlns="http://www.w3.org/2000/svg" xmlns:xlink="http://www.w3.org/1999/xlink" contentScriptType="application/ecmascript" contentStyleType="text/css" height="651px" preserveAspectRatio="none" style="width:1015px;height:651px;background:#FFFFFF;" version="1.1" viewBox="0 0 1015 651" width="1015px" zoomAndPan="magnify"><defs><filter height="300%" id="fub7qoi75l86t" width="300%" x="-1" y="-1"><feGaussianBlur result="blurOut" stdDeviation="2.0"/><feColorMatrix in="blurOut" result="blurOut2" type="matrix" values="0 0 0 0 0 0 0 0 0 0 0 0 0 0 0 0 0 0 .4 0"/><feOffset dx="4.0" dy="4.0" in="blurOut2" result="blurOut3"/><feBlend in="SourceGraphic" in2="blurOut3" mode="normal"/></filter></defs><g><!--MD5=[6331fa8d35b7a7ea4b2cac33ab807d64]
class ResetPasswordController--><rect codeLine="3" fill="#FEFECE" filter="url(#fub7qoi75l86t)" height="89.5078" id="ResetPasswordController" style="stroke:#A80036;stroke-width:1.5;" width="287" x="175" y="11"/><ellipse cx="242.75" cy="27" fill="#ADD1B2" rx="11" ry="11" style="stroke:#A80036;stroke-width:1.0;"/><path d="M244.75,23.5 Q244.9531,23 245.1875,22.75 Q245.4219,22.5 245.6875,22.5 Q246.1563,22.5 246.4531,22.7813 Q246.75,23.0625 246.75,23.7188 L246.75,25.2813 Q246.75,25.9375 246.4688,26.2188 Q246.1875,26.5 245.75,26.5 Q245.3594,26.5 245.1094,26.3281 Q244.8594,26.1563 244.75,25.7031 Q244.7031,25.3906 244.5313,25.2188 Q244.2188,24.8906 243.6563,24.7031 Q243.0938,24.5 242.5313,24.5 Q241.8281,24.5 241.2344,24.7813 Q240.6563,25.0625 240.2031,25.6875 Q239.75,26.3125 239.75,27.1719 L239.75,28.0938 Q239.75,29.125 240.5938,29.8125 Q241.4375,30.5 242.9375,30.5 Q243.8281,30.5 244.4531,30.2969 Q244.8125,30.1875 245.2188,29.8281 Q245.4844,29.625 245.625,29.5625 Q245.7656,29.5 245.9375,29.5 Q246.2656,29.5 246.5,29.7656 Q246.75,30.0156 246.75,30.375 Q246.75,30.7188 246.4063,31.125 Q245.9063,31.7188 245.1094,32.0469 Q244.0625,32.5 242.7813,32.5 Q241.2813,32.5 240.0781,31.9063 Q239.1094,31.4375 238.4219,30.4219 Q237.75,29.4063 237.75,28.2031 L237.75,27.1094 Q237.75,25.8594 238.3438,24.7656 Q238.9531,23.6719 240,23.0938 Q241.0625,22.5 242.25,22.5 Q242.9688,22.5 243.5938,22.75 Q244.2188,23 244.75,23.5 Z " fill="#000000"/><text fill="#000000" font-family="sans-serif" font-size="12" lengthAdjust="spacing" textLength="143" x="263.25" y="31.9102">ResetPasswordController</text><line style="stroke:#A80036;stroke-width:1.5;" x1="176" x2="461" y1="43" y2="43"/><line style="stroke:#A80036;stroke-width:1.5;" x1="176" x2="461" y1="51" y2="51"/><ellipse cx="186" cy="62" fill="#84BE84" rx="3" ry="3" style="stroke:#038048;stroke-width:1.0;"/><text fill="#000000" font-family="sans-serif" font-size="11" lengthAdjust="spacing" textLength="201" x="195" y="66.4189">isNotVisitorProfile(email : String) : boolean</text><ellipse cx="186" cy="75.8359" fill="#84BE84" rx="3" ry="3" style="stroke:#038048;stroke-width:1.0;"/><text fill="#000000" font-family="sans-serif" font-size="11" lengthAdjust="spacing" textLength="261" x="195" y="80.2549">changePassword(email : String, oldPassword : String,</text><text fill="#000000" font-family="sans-serif" font-size="11" lengthAdjust="spacing" textLength="160" x="195" y="94.0908">newPassword : String) : boolean</text><!--MD5=[a4c29dcd49ac565a46dd506593159a71]
class AccountStore--><rect codeLine="11" fill="#FEFECE" filter="url(#fub7qoi75l86t)" height="61.8359" id="AccountStore" style="stroke:#A80036;stroke-width:1.5;" width="241" x="473" y="179"/><ellipse cx="553.25" cy="195" fill="#ADD1B2" rx="11" ry="11" style="stroke:#A80036;stroke-width:1.0;"/><path d="M555.25,191.5 Q555.4531,191 555.6875,190.75 Q555.9219,190.5 556.1875,190.5 Q556.6563,190.5 556.9531,190.7813 Q557.25,191.0625 557.25,191.7188 L557.25,193.2813 Q557.25,193.9375 556.9688,194.2188 Q556.6875,194.5 556.25,194.5 Q555.8594,194.5 555.6094,194.3281 Q555.3594,194.1563 555.25,193.7031 Q555.2031,193.3906 555.0313,193.2188 Q554.7188,192.8906 554.1563,192.7031 Q553.5938,192.5 553.0313,192.5 Q552.3281,192.5 551.7344,192.7813 Q551.1563,193.0625 550.7031,193.6875 Q550.25,194.3125 550.25,195.1719 L550.25,196.0938 Q550.25,197.125 551.0938,197.8125 Q551.9375,198.5 553.4375,198.5 Q554.3281,198.5 554.9531,198.2969 Q555.3125,198.1875 555.7188,197.8281 Q555.9844,197.625 556.125,197.5625 Q556.2656,197.5 556.4375,197.5 Q556.7656,197.5 557,197.7656 Q557.25,198.0156 557.25,198.375 Q557.25,198.7188 556.9063,199.125 Q556.4063,199.7188 555.6094,200.0469 Q554.5625,200.5 553.2813,200.5 Q551.7813,200.5 550.5781,199.9063 Q549.6094,199.4375 548.9219,198.4219 Q548.25,197.4063 548.25,196.2031 L548.25,195.1094 Q548.25,193.8594 548.8438,192.7656 Q549.4531,191.6719 550.5,191.0938 Q551.5625,190.5 552.75,190.5 Q553.4688,190.5 554.0938,190.75 Q554.7188,191 555.25,191.5 Z " fill="#000000"/><text fill="#000000" font-family="sans-serif" font-size="12" lengthAdjust="spacing" textLength="72" x="573.75" y="199.9102">AccountStore</text><line style="stroke:#A80036;stroke-width:1.5;" x1="474" x2="713" y1="211" y2="211"/><line style="stroke:#A80036;stroke-width:1.5;" x1="474" x2="713" y1="219" y2="219"/><ellipse cx="484" cy="230" fill="#84BE84" rx="3" ry="3" style="stroke:#038048;stroke-width:1.0;"/><text fill="#000000" font-family="sans-serif" font-size="11" lengthAdjust="spacing" textLength="215" x="493" y="234.4189">findAccountByEmail(email : String) : Account</text><!--MD5=[1386ffb151391083bec4f7f408a06b69]
class phc--><rect codeLine="15" fill="#FEFECE" filter="url(#fub7qoi75l86t)" height="61.8359" id="phc" style="stroke:#A80036;stroke-width:1.5;" width="325" x="676" y="370.5"/><ellipse cx="765.75" cy="386.5" fill="#B4A7E5" rx="11" ry="11" style="stroke:#A80036;stroke-width:1.0;"/><path d="M766.75,383.5 L766.75,389.5 L768.75,389.5 L769.2344,389.5 L769.75,390.125 L769.75,390.5 L769.75,390.875 L769.2344,391.5 L768.75,391.5 L762.75,391.5 L762.2656,391.5 L761.75,390.875 L761.75,390.5 L761.75,390.125 L762.2656,389.5 L762.75,389.5 L764.75,389.5 L764.75,383.5 L762.75,383.5 L762.2656,383.5 L761.75,382.875 L761.75,382.5 L761.75,382.125 L762.2656,381.5 L762.75,381.5 L768.75,381.5 L769.2344,381.5 L769.75,382.125 L769.75,382.5 L769.75,382.875 L769.2344,383.5 L768.75,383.5 L766.75,383.5 Z " fill="#000000"/><text fill="#000000" font-family="sans-serif" font-size="12" font-style="italic" lengthAdjust="spacing" textLength="137" x="786.25" y="391.4102">PasswordHashCreatable</text><line style="stroke:#A80036;stroke-width:1.5;" x1="677" x2="1000" y1="402.5" y2="402.5"/><line style="stroke:#A80036;stroke-width:1.5;" x1="677" x2="1000" y1="410.5" y2="410.5"/><ellipse cx="687" cy="421.5" fill="#84BE84" rx="3" ry="3" style="stroke:#038048;stroke-width:1.0;"/><text fill="#000000" font-family="sans-serif" font-size="11" lengthAdjust="spacing" textLength="299" x="696" y="425.9189">createPasswordHash(stringToHash : String) : PasswordHash</text><!--MD5=[920585d4ffd4d8aa0092a7a25bf01617]
class phf--><rect codeLine="19" fill="#FEFECE" filter="url(#fub7qoi75l86t)" height="83.8594" id="phf" style="stroke:#A80036;stroke-width:1.5;" width="325" x="676" y="551"/><ellipse cx="771.75" cy="571.0938" fill="#FF7700" rx="11" ry="11" style="stroke:#A80036;stroke-width:1.0;"/><path d="M770.25,575.0938 Q769.9688,575.7344 769.7813,575.9219 Q769.6094,576.0938 769.3594,576.0938 Q768.8594,576.0938 768.5469,575.875 Q768.25,575.6406 768.25,575.0938 L768.25,574.0938 Q768.25,573.5469 768.5,573.3281 Q768.75,573.0938 769.1563,573.0938 Q769.4688,573.0938 769.6875,573.1719 Q769.9063,573.25 770.0156,573.4375 Q770.125,573.625 770.25,573.6875 Q770.4063,573.8281 770.8125,573.9688 Q771.2188,574.0938 771.7031,574.0938 Q772.4531,574.0938 772.9375,573.6406 Q773.25,573.375 773.25,572.9844 Q773.25,572.7188 773.0938,572.4844 Q772.9375,572.25 772.5938,572.0938 Q772.375,571.9844 771.5938,571.8125 Q770.1406,571.5938 769.625,571.25 Q769.125,570.9063 768.6875,570.2969 Q768.25,569.6719 768.25,568.9531 Q768.25,567.8125 769.1094,566.9531 Q769.9844,566.0938 771.3594,566.0938 Q771.9219,566.0938 772.2031,566.3438 Q772.4844,566.5938 773.25,567.0938 Q773.6875,566.0938 774.125,566.0938 Q774.625,566.0938 774.9375,566.3125 Q775.25,566.5313 775.25,567.0469 L775.25,568.125 Q775.25,568.6563 775,568.875 Q774.75,569.0938 774.3594,569.0938 Q774.0313,569.0938 773.7813,569 Q773.5938,568.9375 773.5,568.7344 Q773.4063,568.5313 773.25,568.4531 Q773.0625,568.2969 772.6875,568.2031 Q772.3125,568.0938 771.8125,568.0938 Q771.0938,568.0938 770.6719,568.4531 Q770.25,568.8125 770.25,569.2031 Q770.25,569.4688 770.3906,569.7188 Q770.5469,569.9531 770.8438,570.0938 Q771.0313,570.1875 772.1094,570.4063 Q773.1875,570.625 773.7344,570.9219 Q774.2813,571.2031 774.7656,571.8125 Q775.25,572.4219 775.25,573.2813 Q775.25,574.4531 774.5781,575.1563 Q773.6719,576.0938 772.2813,576.0938 Q771.75,576.0938 771.2344,575.8438 Q770.7344,575.5938 770.25,575.0938 Z " fill="#000000"/><text fill="#000000" font-family="sans-serif" font-size="12" font-style="italic" lengthAdjust="spacing" textLength="66" x="821.75" y="568.457">«Singleton»</text><text fill="#000000" font-family="sans-serif" font-size="12" lengthAdjust="spacing" textLength="125" x="792.25" y="583.5508">PasswordHashFactory</text><line style="stroke:#A80036;stroke-width:1.5;" x1="677" x2="1000" y1="591.1875" y2="591.1875"/><line style="stroke:#A80036;stroke-width:1.5;" x1="677" x2="1000" y1="599.1875" y2="599.1875"/><ellipse cx="687" cy="610.1875" fill="#84BE84" rx="3" ry="3" style="stroke:#038048;stroke-width:1.0;"/><text fill="#000000" font-family="sans-serif" font-size="11" lengthAdjust="spacing" text-decoration="underline" textLength="185" x="696" y="614.6064">getInstance() : PasswordHashFactory</text><ellipse cx="687" cy="624.0234" fill="#84BE84" rx="3" ry="3" style="stroke:#038048;stroke-width:1.0;"/><text fill="#000000" font-family="sans-serif" font-size="11" lengthAdjust="spacing" textLength="299" x="696" y="628.4424">createPasswordHash(stringToHash : String) : PasswordHash</text><!--MD5=[13bce23176f178ec6522722b4c2b76e3]
class ITCompany--><rect codeLine="24" fill="#FEFECE" filter="url(#fub7qoi75l86t)" height="97.6953" id="ITCompany" style="stroke:#A80036;stroke-width:1.5;" width="192" x="497.5" y="7"/><ellipse cx="557.75" cy="27.0938" fill="#FF7700" rx="11" ry="11" style="stroke:#A80036;stroke-width:1.0;"/><path d="M556.25,31.0938 Q555.9688,31.7344 555.7813,31.9219 Q555.6094,32.0938 555.3594,32.0938 Q554.8594,32.0938 554.5469,31.875 Q554.25,31.6406 554.25,31.0938 L554.25,30.0938 Q554.25,29.5469 554.5,29.3281 Q554.75,29.0938 555.1563,29.0938 Q555.4688,29.0938 555.6875,29.1719 Q555.9063,29.25 556.0156,29.4375 Q556.125,29.625 556.25,29.6875 Q556.4063,29.8281 556.8125,29.9688 Q557.2188,30.0938 557.7031,30.0938 Q558.4531,30.0938 558.9375,29.6406 Q559.25,29.375 559.25,28.9844 Q559.25,28.7188 559.0938,28.4844 Q558.9375,28.25 558.5938,28.0938 Q558.375,27.9844 557.5938,27.8125 Q556.1406,27.5938 555.625,27.25 Q555.125,26.9063 554.6875,26.2969 Q554.25,25.6719 554.25,24.9531 Q554.25,23.8125 555.1094,22.9531 Q555.9844,22.0938 557.3594,22.0938 Q557.9219,22.0938 558.2031,22.3438 Q558.4844,22.5938 559.25,23.0938 Q559.6875,22.0938 560.125,22.0938 Q560.625,22.0938 560.9375,22.3125 Q561.25,22.5313 561.25,23.0469 L561.25,24.125 Q561.25,24.6563 561,24.875 Q560.75,25.0938 560.3594,25.0938 Q560.0313,25.0938 559.7813,25 Q559.5938,24.9375 559.5,24.7344 Q559.4063,24.5313 559.25,24.4531 Q559.0625,24.2969 558.6875,24.2031 Q558.3125,24.0938 557.8125,24.0938 Q557.0938,24.0938 556.6719,24.4531 Q556.25,24.8125 556.25,25.2031 Q556.25,25.4688 556.3906,25.7188 Q556.5469,25.9531 556.8438,26.0938 Q557.0313,26.1875 558.1094,26.4063 Q559.1875,26.625 559.7344,26.9219 Q560.2813,27.2031 560.7656,27.8125 Q561.25,28.4219 561.25,29.2813 Q561.25,30.4531 560.5781,31.1563 Q559.6719,32.0938 558.2813,32.0938 Q557.75,32.0938 557.2344,31.8438 Q556.7344,31.5938 556.25,31.0938 Z " fill="#000000"/><text fill="#000000" font-family="sans-serif" font-size="12" font-style="italic" lengthAdjust="spacing" textLength="66" x="576.75" y="24.457">«Singleton»</text><text fill="#000000" font-family="sans-serif" font-size="12" lengthAdjust="spacing" textLength="63" x="578.25" y="39.5508">ITCompany</text><line style="stroke:#A80036;stroke-width:1.5;" x1="498.5" x2="688.5" y1="47.1875" y2="47.1875"/><rect fill="none" height="6" style="stroke:#C82930;stroke-width:1.0;" width="6" x="505.5" y="55.1875"/><text fill="#000000" font-family="sans-serif" font-size="11" lengthAdjust="spacing" text-decoration="underline" textLength="115" x="517.5" y="62.6064">iTCompany : ITCompany</text><line style="stroke:#A80036;stroke-width:1.5;" x1="498.5" x2="688.5" y1="69.0234" y2="69.0234"/><ellipse cx="508.5" cy="80.0234" fill="#84BE84" rx="3" ry="3" style="stroke:#038048;stroke-width:1.0;"/><text fill="#000000" font-family="sans-serif" font-size="11" lengthAdjust="spacing" text-decoration="underline" textLength="138" x="517.5" y="84.4424">getITCompany() : ITCompany</text><ellipse cx="508.5" cy="93.8594" fill="#84BE84" rx="3" ry="3" style="stroke:#038048;stroke-width:1.0;"/><text fill="#000000" font-family="sans-serif" font-size="11" lengthAdjust="spacing" textLength="166" x="517.5" y="98.2783">getAccountStore() : AccountStore</text><!--MD5=[84af69d93ff817f9b2620e12f2d57f8b]
class PasswordHash--><rect codeLine="29" fill="#FEFECE" filter="url(#fub7qoi75l86t)" height="89.5078" id="PasswordHash" style="stroke:#A80036;stroke-width:1.5;" width="277" x="352" y="548"/><ellipse cx="443.25" cy="564" fill="#ADD1B2" rx="11" ry="11" style="stroke:#A80036;stroke-width:1.0;"/><path d="M445.25,560.5 Q445.4531,560 445.6875,559.75 Q445.9219,559.5 446.1875,559.5 Q446.6563,559.5 446.9531,559.7813 Q447.25,560.0625 447.25,560.7188 L447.25,562.2813 Q447.25,562.9375 446.9688,563.2188 Q446.6875,563.5 446.25,563.5 Q445.8594,563.5 445.6094,563.3281 Q445.3594,563.1563 445.25,562.7031 Q445.2031,562.3906 445.0313,562.2188 Q444.7188,561.8906 444.1563,561.7031 Q443.5938,561.5 443.0313,561.5 Q442.3281,561.5 441.7344,561.7813 Q441.1563,562.0625 440.7031,562.6875 Q440.25,563.3125 440.25,564.1719 L440.25,565.0938 Q440.25,566.125 441.0938,566.8125 Q441.9375,567.5 443.4375,567.5 Q444.3281,567.5 444.9531,567.2969 Q445.3125,567.1875 445.7188,566.8281 Q445.9844,566.625 446.125,566.5625 Q446.2656,566.5 446.4375,566.5 Q446.7656,566.5 447,566.7656 Q447.25,567.0156 447.25,567.375 Q447.25,567.7188 446.9063,568.125 Q446.4063,568.7188 445.6094,569.0469 Q444.5625,569.5 443.2813,569.5 Q441.7813,569.5 440.5781,568.9063 Q439.6094,568.4375 438.9219,567.4219 Q438.25,566.4063 438.25,565.2031 L438.25,564.1094 Q438.25,562.8594 438.8438,561.7656 Q439.4531,560.6719 440.5,560.0938 Q441.5625,559.5 442.75,559.5 Q443.4688,559.5 444.0938,559.75 Q444.7188,560 445.25,560.5 Z " fill="#000000"/><text fill="#000000" font-family="sans-serif" font-size="12" lengthAdjust="spacing" textLength="86" x="463.75" y="568.9102">PasswordHash</text><line style="stroke:#A80036;stroke-width:1.5;" x1="353" x2="628" y1="580" y2="580"/><rect fill="none" height="6" style="stroke:#C82930;stroke-width:1.0;" width="6" x="360" y="588"/><text fill="#000000" font-family="sans-serif" font-size="11" lengthAdjust="spacing" textLength="61" x="372" y="595.4189">hash : String</text><rect fill="none" height="6" style="stroke:#C82930;stroke-width:1.0;" width="6" x="360" y="601.8359"/><text fill="#000000" font-family="sans-serif" font-size="11" lengthAdjust="spacing" textLength="80" x="372" y="609.2549">algorithm : String</text><line style="stroke:#A80036;stroke-width:1.5;" x1="353" x2="628" y1="615.6719" y2="615.6719"/><ellipse cx="363" cy="626.6719" fill="#84BE84" rx="3" ry="3" style="stroke:#038048;stroke-width:1.0;"/><text fill="#000000" font-family="sans-serif" font-size="11" lengthAdjust="spacing" textLength="251" x="372" y="631.0908">isMatchPassword(passwordData : String) : boolean</text><!--MD5=[f9a29335b499db729be669fd1bd54958]
class Account--><rect codeLine="35" fill="#FEFECE" filter="url(#fub7qoi75l86t)" height="172.5234" id="Account" style="stroke:#A80036;stroke-width:1.5;" width="324" x="316.5" y="315"/><ellipse cx="452.75" cy="331" fill="#ADD1B2" rx="11" ry="11" style="stroke:#A80036;stroke-width:1.0;"/><path d="M454.75,327.5 Q454.9531,327 455.1875,326.75 Q455.4219,326.5 455.6875,326.5 Q456.1563,326.5 456.4531,326.7813 Q456.75,327.0625 456.75,327.7188 L456.75,329.2813 Q456.75,329.9375 456.4688,330.2188 Q456.1875,330.5 455.75,330.5 Q455.3594,330.5 455.1094,330.3281 Q454.8594,330.1563 454.75,329.7031 Q454.7031,329.3906 454.5313,329.2188 Q454.2188,328.8906 453.6563,328.7031 Q453.0938,328.5 452.5313,328.5 Q451.8281,328.5 451.2344,328.7813 Q450.6563,329.0625 450.2031,329.6875 Q449.75,330.3125 449.75,331.1719 L449.75,332.0938 Q449.75,333.125 450.5938,333.8125 Q451.4375,334.5 452.9375,334.5 Q453.8281,334.5 454.4531,334.2969 Q454.8125,334.1875 455.2188,333.8281 Q455.4844,333.625 455.625,333.5625 Q455.7656,333.5 455.9375,333.5 Q456.2656,333.5 456.5,333.7656 Q456.75,334.0156 456.75,334.375 Q456.75,334.7188 456.4063,335.125 Q455.9063,335.7188 455.1094,336.0469 Q454.0625,336.5 452.7813,336.5 Q451.2813,336.5 450.0781,335.9063 Q449.1094,335.4375 448.4219,334.4219 Q447.75,333.4063 447.75,332.2031 L447.75,331.1094 Q447.75,329.8594 448.3438,328.7656 Q448.9531,327.6719 450,327.0938 Q451.0625,326.5 452.25,326.5 Q452.9688,326.5 453.5938,326.75 Q454.2188,327 454.75,327.5 Z " fill="#000000"/><text fill="#000000" font-family="sans-serif" font-size="12" lengthAdjust="spacing" textLength="43" x="473.25" y="335.9102">Account</text><line style="stroke:#A80036;stroke-width:1.5;" x1="317.5" x2="639.5" y1="347" y2="347"/><rect fill="none" height="6" style="stroke:#C82930;stroke-width:1.0;" width="6" x="324.5" y="355"/><text fill="#000000" font-family="sans-serif" font-size="11" lengthAdjust="spacing" textLength="61" x="336.5" y="362.4189">email : String</text><rect fill="none" height="6" style="stroke:#C82930;stroke-width:1.0;" width="6" x="324.5" y="368.8359"/><text fill="#000000" font-family="sans-serif" font-size="11" lengthAdjust="spacing" textLength="63" x="336.5" y="376.2549">name : String</text><rect fill="none" height="6" style="stroke:#C82930;stroke-width:1.0;" width="6" x="324.5" y="382.6719"/><text fill="#000000" font-family="sans-serif" font-size="11" lengthAdjust="spacing" textLength="76" x="336.5" y="390.0908">function : String</text><rect fill="none" height="6" style="stroke:#C82930;stroke-width:1.0;" width="6" x="324.5" y="396.5078"/><text fill="#000000" font-family="sans-serif" font-size="11" lengthAdjust="spacing" textLength="64" x="336.5" y="403.9268">photo : String</text><rect fill="none" height="6" style="stroke:#C82930;stroke-width:1.0;" width="6" x="324.5" y="410.3438"/><text fill="#000000" font-family="sans-serif" font-size="11" lengthAdjust="spacing" textLength="86" x="336.5" y="417.7627">isActive : boolean</text><line style="stroke:#A80036;stroke-width:1.5;" x1="317.5" x2="639.5" y1="424.1797" y2="424.1797"/><ellipse cx="327.5" cy="435.1797" fill="#84BE84" rx="3" ry="3" style="stroke:#038048;stroke-width:1.0;"/><text fill="#000000" font-family="sans-serif" font-size="11" lengthAdjust="spacing" textLength="206" x="336.5" y="439.5986">Account : isAccountEqualTo(email : String)</text><ellipse cx="327.5" cy="449.0156" fill="#84BE84" rx="3" ry="3" style="stroke:#038048;stroke-width:1.0;"/><text fill="#000000" font-family="sans-serif" font-size="11" lengthAdjust="spacing" textLength="140" x="336.5" y="453.4346">isNotVisitorProfile() : boolean</text><ellipse cx="327.5" cy="462.8516" fill="#84BE84" rx="3" ry="3" style="stroke:#038048;stroke-width:1.0;"/><text fill="#000000" font-family="sans-serif" font-size="11" lengthAdjust="spacing" textLength="298" x="336.5" y="467.2705">resetPassword(oldPassword : String, newPassword : String,</text><text fill="#000000" font-family="sans-serif" font-size="11" lengthAdjust="spacing" textLength="240" x="345.5" y="481.1064">pHCreatable : PasswordHashCreatable) : boolean</text><!--MD5=[7b57f7066b803747d2119f99dd1555d4]
class Profile--><rect codeLine="47" fill="#FEFECE" filter="url(#fub7qoi75l86t)" height="89.5078" id="Profile" style="stroke:#A80036;stroke-width:1.5;" width="147" x="291" y="165"/><ellipse cx="342.75" cy="181" fill="#ADD1B2" rx="11" ry="11" style="stroke:#A80036;stroke-width:1.0;"/><path d="M344.75,177.5 Q344.9531,177 345.1875,176.75 Q345.4219,176.5 345.6875,176.5 Q346.1563,176.5 346.4531,176.7813 Q346.75,177.0625 346.75,177.7188 L346.75,179.2813 Q346.75,179.9375 346.4688,180.2188 Q346.1875,180.5 345.75,180.5 Q345.3594,180.5 345.1094,180.3281 Q344.8594,180.1563 344.75,179.7031 Q344.7031,179.3906 344.5313,179.2188 Q344.2188,178.8906 343.6563,178.7031 Q343.0938,178.5 342.5313,178.5 Q341.8281,178.5 341.2344,178.7813 Q340.6563,179.0625 340.2031,179.6875 Q339.75,180.3125 339.75,181.1719 L339.75,182.0938 Q339.75,183.125 340.5938,183.8125 Q341.4375,184.5 342.9375,184.5 Q343.8281,184.5 344.4531,184.2969 Q344.8125,184.1875 345.2188,183.8281 Q345.4844,183.625 345.625,183.5625 Q345.7656,183.5 345.9375,183.5 Q346.2656,183.5 346.5,183.7656 Q346.75,184.0156 346.75,184.375 Q346.75,184.7188 346.4063,185.125 Q345.9063,185.7188 345.1094,186.0469 Q344.0625,186.5 342.7813,186.5 Q341.2813,186.5 340.0781,185.9063 Q339.1094,185.4375 338.4219,184.4219 Q337.75,183.4063 337.75,182.2031 L337.75,181.1094 Q337.75,179.8594 338.3438,178.7656 Q338.9531,177.6719 340,177.0938 Q341.0625,176.5 342.25,176.5 Q342.9688,176.5 343.5938,176.75 Q344.2188,177 344.75,177.5 Z " fill="#000000"/><text fill="#000000" font-family="sans-serif" font-size="12" lengthAdjust="spacing" textLength="35" x="363.25" y="185.9102">Profile</text><line style="stroke:#A80036;stroke-width:1.5;" x1="292" x2="437" y1="197" y2="197"/><rect fill="none" height="6" style="stroke:#C82930;stroke-width:1.0;" width="6" x="299" y="205"/><text fill="#000000" font-family="sans-serif" font-size="11" lengthAdjust="spacing" textLength="91" x="311" y="212.4189">profileType : String</text><rect fill="none" height="6" style="stroke:#C82930;stroke-width:1.0;" width="6" x="299" y="218.8359"/><text fill="#000000" font-family="sans-serif" font-size="11" lengthAdjust="spacing" textLength="90" x="311" y="226.2549">description : String</text><line style="stroke:#A80036;stroke-width:1.5;" x1="292" x2="437" y1="232.6719" y2="232.6719"/><ellipse cx="302" cy="243.6719" fill="#84BE84" rx="3" ry="3" style="stroke:#038048;stroke-width:1.0;"/><text fill="#000000" font-family="sans-serif" font-size="11" lengthAdjust="spacing" textLength="121" x="311" y="248.0908">checkIfVisitor() : boolean</text><!--MD5=[d1c397ccf47cda0d7ab2415cd95ae521]
class ResetPasswordUI--><rect fill="#FEFECE" filter="url(#fub7qoi75l86t)" height="48" id="ResetPasswordUI" style="stroke:#A80036;stroke-width:1.5;" width="133" x="7" y="32"/><ellipse cx="22" cy="48" fill="#ADD1B2" rx="11" ry="11" style="stroke:#A80036;stroke-width:1.0;"/><path d="M24,44.5 Q24.2031,44 24.4375,43.75 Q24.6719,43.5 24.9375,43.5 Q25.4063,43.5 25.7031,43.7813 Q26,44.0625 26,44.7188 L26,46.2813 Q26,46.9375 25.7188,47.2188 Q25.4375,47.5 25,47.5 Q24.6094,47.5 24.3594,47.3281 Q24.1094,47.1563 24,46.7031 Q23.9531,46.3906 23.7813,46.2188 Q23.4688,45.8906 22.9063,45.7031 Q22.3438,45.5 21.7813,45.5 Q21.0781,45.5 20.4844,45.7813 Q19.9063,46.0625 19.4531,46.6875 Q19,47.3125 19,48.1719 L19,49.0938 Q19,50.125 19.8438,50.8125 Q20.6875,51.5 22.1875,51.5 Q23.0781,51.5 23.7031,51.2969 Q24.0625,51.1875 24.4688,50.8281 Q24.7344,50.625 24.875,50.5625 Q25.0156,50.5 25.1875,50.5 Q25.5156,50.5 25.75,50.7656 Q26,51.0156 26,51.375 Q26,51.7188 25.6563,52.125 Q25.1563,52.7188 24.3594,53.0469 Q23.3125,53.5 22.0313,53.5 Q20.5313,53.5 19.3281,52.9063 Q18.3594,52.4375 17.6719,51.4219 Q17,50.4063 17,49.2031 L17,48.1094 Q17,46.8594 17.5938,45.7656 Q18.2031,44.6719 19.25,44.0938 Q20.3125,43.5 21.5,43.5 Q22.2188,43.5 22.8438,43.75 Q23.4688,44 24,44.5 Z " fill="#000000"/><text fill="#000000" font-family="sans-serif" font-size="12" lengthAdjust="spacing" textLength="101" x="36" y="52.9102">ResetPasswordUI</text><line style="stroke:#A80036;stroke-width:1.5;" x1="8" x2="139" y1="64" y2="64"/><line style="stroke:#A80036;stroke-width:1.5;" x1="8" x2="139" y1="72" y2="72"/><!--MD5=[79cb6f15478c3997cb192806de07da85]
reverse link phc to phf--><path codeLine="53" d="M838.5,452.69 C838.5,483.33 838.5,522.01 838.5,550.84 " fill="none" id="phc-backto-phf" style="stroke:#A80036;stroke-width:1.0;stroke-dasharray:7.0,7.0;"/><polygon fill="none" points="831.5,452.53,838.5,432.53,845.5,452.53,831.5,452.53" style="stroke:#A80036;stroke-width:1.0;"/><!--MD5=[6d78c49fbae158c7cb428b6603d01c71]
link ResetPasswordUI to ResetPasswordController--><path codeLine="54" d="M140.01,56 C149.91,56 159.8,56 169.7,56 " fill="none" id="ResetPasswordUI-to-ResetPasswordController" style="stroke:#A80036;stroke-width:1.0;stroke-dasharray:7.0,7.0;"/><polygon fill="#A80036" points="174.87,56,165.87,52,169.87,56,165.87,60,174.87,56" style="stroke:#A80036;stroke-width:1.0;"/><!--MD5=[e45134b75417ef5ae50829018375a01e]
link ResetPasswordController to ITCompany--><path codeLine="55" d="M462.18,56 C472.15,56 482.13,56 492.1,56 " fill="none" id="ResetPasswordController-to-ITCompany" style="stroke:#A80036;stroke-width:1.0;stroke-dasharray:7.0,7.0;"/><polygon fill="#A80036" points="497.32,56,488.32,52,492.32,56,488.32,60,497.32,56" style="stroke:#A80036;stroke-width:1.0;"/><!--MD5=[325f1e900778971e30b055d6c0877ed2]
link ITCompany to AccountStore--><path codeLine="56" d="M593.5,105.09 C593.5,127.38 593.5,153.39 593.5,173.81 " fill="none" id="ITCompany-to-AccountStore" style="stroke:#A80036;stroke-width:1.0;"/><polygon fill="#A80036" points="593.5,178.88,597.5,169.88,593.5,173.88,589.5,169.88,593.5,178.88" style="stroke:#A80036;stroke-width:1.0;"/><text fill="#000000" font-family="sans-serif" font-size="13" lengthAdjust="spacing" textLength="7" x="586.0297" y="126.3007">1</text><text fill="#000000" font-family="sans-serif" font-size="13" lengthAdjust="spacing" textLength="88" x="496.425" y="168.3598">accountStore 1</text><!--MD5=[8b1e35c219245428dc5863d392d3e963]
reverse link AccountStore to Account--><path codeLine="57" d="M568.48,252.23 C557.28,270.68 543.65,293.15 530.41,314.97 " fill="none" id="AccountStore-backto-Account" style="stroke:#A80036;stroke-width:1.0;"/><polygon fill="none" points="575.28,241.03,568.748,244.085,569.0557,251.2895,575.5877,248.2345,575.28,241.03" style="stroke:#A80036;stroke-width:1.0;"/><text fill="#000000" font-family="sans-serif" font-size="13" lengthAdjust="spacing" textLength="122" x="540.466" y="304.0829">0..* arrayListAccount</text><!--MD5=[b38780a29ebdae031720ea9075b4d398]
reverse link Profile to Account--><path codeLine="58" d="M394.02,260.07 C404.06,276.76 415.6,295.94 426.86,314.65 " fill="none" id="Profile-backto-Account" style="stroke:#A80036;stroke-width:1.0;"/><polygon fill="#A80036" points="391.23,255.43,392.4544,265.2025,393.813,259.7112,399.3043,261.0697,391.23,255.43" style="stroke:#A80036;stroke-width:1.0;"/><text fill="#000000" font-family="sans-serif" font-size="13" lengthAdjust="spacing" textLength="113" x="269.9609" y="276.1615">accountProfiles 1..*</text><text fill="#000000" font-family="sans-serif" font-size="13" lengthAdjust="spacing" textLength="20" x="401.5628" y="304.0295">0..*</text><!--MD5=[b53c5612feb7e4e3eb435085e74a354c]
link Account to PasswordHash--><path codeLine="59" d="M483.92,488.1 C485.11,506.86 486.33,526.1 487.39,542.84 " fill="none" id="Account-to-PasswordHash" style="stroke:#A80036;stroke-width:1.0;"/><polygon fill="#A80036" points="487.71,547.95,491.1359,538.7162,487.3954,542.9599,483.1517,539.2195,487.71,547.95" style="stroke:#A80036;stroke-width:1.0;"/><text fill="#000000" font-family="sans-serif" font-size="13" lengthAdjust="spacing" textLength="7" x="477.073" y="509.1666">1</text><text fill="#000000" font-family="sans-serif" font-size="13" lengthAdjust="spacing" textLength="96" x="383.6153" y="537.0575">passwordHash 1</text><!--MD5=[f0356bd6bba2cf80a7302583f673ffaf]
link Account to phc--><path codeLine="60" d="M640.57,401.5 C650.56,401.5 660.54,401.5 670.53,401.5 " fill="none" id="Account-to-phc" style="stroke:#A80036;stroke-width:1.0;stroke-dasharray:7.0,7.0;"/><polygon fill="#A80036" points="675.75,401.5,666.75,397.5,670.75,401.5,666.75,405.5,675.75,401.5" style="stroke:#A80036;stroke-width:1.0;"/><!--MD5=[567f6d1d718a9aee8f796a3f4a870662]
link phc to PasswordHash--><path codeLine="61" d="M783.36,432.53 C727.68,462.85 640.89,510.11 576.23,545.32 " fill="none" id="phc-to-PasswordHash" style="stroke:#A80036;stroke-width:1.0;"/><polygon fill="#A80036" points="571.61,547.83,581.4284,547.0565,576.0055,545.4467,577.6152,540.0238,571.61,547.83" style="stroke:#A80036;stroke-width:1.0;"/><!--MD5=[24153c232978679f90445f4b30db6789]
@startuml


class ResetPasswordController{

+isNotVisitorProfile(email : String) : boolean
+changePassword(email : String, oldPassword : String,
 newPassword : String) : boolean
}


class AccountStore{
+findAccountByEmail(email : String) : Account

}
interface phc as "PasswordHashCreatable"{
+ createPasswordHash(stringToHash : String) : PasswordHash
}

class phf as "PasswordHashFactory" << (S,#FF7700) Singleton >>{
+ {static}getInstance() : PasswordHashFactory
+ createPasswordHash(stringToHash : String) : PasswordHash
}

class ITCompany << (S,#FF7700) Singleton >>{
-{static}iTCompany : ITCompany
+{static}getITCompany() : ITCompany
+ getAccountStore() : AccountStore
}
class PasswordHash{
-hash : String
-algorithm : String
+isMatchPassword(passwordData : String) : boolean

}
class Account{
-email : String
-name : String
-function : String
-photo : String
-isActive : boolean
+Account : isAccountEqualTo(email : String)
+ isNotVisitorProfile() : boolean
+ resetPassword(oldPassword : String, newPassword : String,\n   pHCreatable : PasswordHashCreatable) : boolean

}

class Profile{
-profileType : String
-description : String
+checkIfVisitor() : boolean
}

phf -up[dashed]-|> phc
ResetPasswordUI .> ResetPasswordController
ResetPasswordController .> ITCompany
ITCompany "1"- ->"accountStore 1" AccountStore
AccountStore o- -"0..* arrayListAccount" Account
Account "0..*"-up->"accountProfiles 1..* " Profile
Account "1"-down->"passwordHash 1" PasswordHash
Account .right.> phc
phc -> PasswordHash





@enduml

PlantUML version 1.2022.1(Tue Feb 01 18:19:58 GMT 2022)
(GPL source distribution)
Java Runtime: OpenJDK Runtime Environment
JVM: OpenJDK 64-Bit Server VM
Default Encoding: Cp1252
Language: en
Country: GB
--></g></svg>