<?xml version="1.0" encoding="UTF-8" standalone="no"?><svg xmlns="http://www.w3.org/2000/svg" xmlns:xlink="http://www.w3.org/1999/xlink" contentScriptType="application/ecmascript" contentStyleType="text/css" height="627px" preserveAspectRatio="none" style="width:539px;height:627px;background:#FFFFFF;" version="1.1" viewBox="0 0 539 627" width="539px" zoomAndPan="magnify"><defs><filter height="300%" id="f1btlgxiui3f5l" width="300%" x="-1" y="-1"><feGaussianBlur result="blurOut" stdDeviation="2.0"/><feColorMatrix in="blurOut" result="blurOut2" type="matrix" values="0 0 0 0 0 0 0 0 0 0 0 0 0 0 0 0 0 0 .4 0"/><feOffset dx="4.0" dy="4.0" in="blurOut2" result="blurOut3"/><feBlend in="SourceGraphic" in2="blurOut3" mode="normal"/></filter></defs><g><rect fill="#FFFFFF" filter="url(#f1btlgxiui3f5l)" height="402.2188" style="stroke:#A80036;stroke-width:1.0;" width="10" x="271" y="121.9609"/><line style="stroke:#A80036;stroke-width:1.0;stroke-dasharray:5.0,5.0;" x1="68" x2="68" y1="89.6094" y2="542.1797"/><line style="stroke:#A80036;stroke-width:1.0;stroke-dasharray:5.0,5.0;" x1="276" x2="276" y1="89.6094" y2="542.1797"/><text fill="#000000" font-family="sans-serif" font-size="14" lengthAdjust="spacing" textLength="120" x="5" y="86.5332">Authenticated User</text><ellipse cx="68" cy="15" fill="#FEFECE" filter="url(#f1btlgxiui3f5l)" rx="8" ry="8" style="stroke:#A80036;stroke-width:2.0;"/><path d="M68,23 L68,50 M55,31 L81,31 M68,50 L55,65 M68,50 L81,65 " fill="none" filter="url(#f1btlgxiui3f5l)" style="stroke:#A80036;stroke-width:2.0;"/><text fill="#000000" font-family="sans-serif" font-size="14" lengthAdjust="spacing" textLength="120" x="5" y="555.7129">Authenticated User</text><ellipse cx="68" cy="568.7891" fill="#FEFECE" filter="url(#f1btlgxiui3f5l)" rx="8" ry="8" style="stroke:#A80036;stroke-width:2.0;"/><path d="M68,576.7891 L68,603.7891 M55,584.7891 L81,584.7891 M68,603.7891 L55,618.7891 M68,603.7891 L81,618.7891 " fill="none" filter="url(#f1btlgxiui3f5l)" style="stroke:#A80036;stroke-width:2.0;"/><rect fill="#FEFECE" filter="url(#f1btlgxiui3f5l)" height="31.6094" style="stroke:#A80036;stroke-width:1.5;" width="60" x="244" y="53"/><text fill="#000000" font-family="sans-serif" font-size="14" lengthAdjust="spacing" textLength="46" x="251" y="74.5332">System</text><rect fill="#FEFECE" filter="url(#f1btlgxiui3f5l)" height="31.6094" style="stroke:#A80036;stroke-width:1.5;" width="60" x="244" y="541.1797"/><text fill="#000000" font-family="sans-serif" font-size="14" lengthAdjust="spacing" textLength="46" x="251" y="562.7129">System</text><rect fill="#FFFFFF" filter="url(#f1btlgxiui3f5l)" height="402.2188" style="stroke:#A80036;stroke-width:1.0;" width="10" x="271" y="121.9609"/><polygon fill="#A80036" points="259,117.9609,269,121.9609,259,125.9609,263,121.9609" style="stroke:#A80036;stroke-width:1.0;"/><line style="stroke:#A80036;stroke-width:1.0;" x1="68" x2="265" y1="121.9609" y2="121.9609"/><text fill="#000000" font-family="sans-serif" font-size="13" font-weight="bold" lengthAdjust="spacing" textLength="7" x="75" y="117.1045">1</text><text fill="#000000" font-family="sans-serif" font-size="13" lengthAdjust="spacing" textLength="150" x="86" y="117.1045">Open 'Reset Password' UI</text><line style="stroke:#A80036;stroke-width:1.0;" x1="281" x2="323" y1="152.3125" y2="152.3125"/><line style="stroke:#A80036;stroke-width:1.0;" x1="323" x2="323" y1="152.3125" y2="165.3125"/><line style="stroke:#A80036;stroke-width:1.0;" x1="282" x2="323" y1="165.3125" y2="165.3125"/><polygon fill="#A80036" points="292,161.3125,282,165.3125,292,169.3125,288,165.3125" style="stroke:#A80036;stroke-width:1.0;"/><text fill="#000000" font-family="sans-serif" font-size="13" font-weight="bold" lengthAdjust="spacing" textLength="7" x="288" y="147.4561">2</text><text fill="#000000" font-family="sans-serif" font-size="13" lengthAdjust="spacing" textLength="147" x="299" y="147.4561">check User is not 'Visitor'</text><polygon fill="#A80036" points="79,208.0156,69,212.0156,79,216.0156,75,212.0156" style="stroke:#A80036;stroke-width:1.0;"/><line style="stroke:#A80036;stroke-width:1.0;stroke-dasharray:2.0,2.0;" x1="73" x2="270" y1="212.0156" y2="212.0156"/><text fill="#000000" font-family="sans-serif" font-size="13" font-weight="bold" lengthAdjust="spacing" textLength="7" x="85" y="198.9834">3</text><text fill="#000000" font-family="sans-serif" font-size="13" lengthAdjust="spacing" textLength="149" x="96" y="190.8076">show 'Reset Password' UI</text><text fill="#000000" font-family="sans-serif" font-size="13" lengthAdjust="spacing" textLength="144" x="100" y="207.1592">and ask for old password</text><polygon fill="#A80036" points="259,238.3672,269,242.3672,259,246.3672,263,242.3672" style="stroke:#A80036;stroke-width:1.0;"/><line style="stroke:#A80036;stroke-width:1.0;" x1="68" x2="265" y1="242.3672" y2="242.3672"/><text fill="#000000" font-family="sans-serif" font-size="13" font-weight="bold" lengthAdjust="spacing" textLength="7" x="75" y="237.5107">4</text><text fill="#000000" font-family="sans-serif" font-size="13" lengthAdjust="spacing" textLength="108" x="86" y="237.5107">input old password</text><polygon fill="#A80036" points="79,268.7188,69,272.7188,79,276.7188,75,272.7188" style="stroke:#A80036;stroke-width:1.0;"/><line style="stroke:#A80036;stroke-width:1.0;stroke-dasharray:2.0,2.0;" x1="73" x2="270" y1="272.7188" y2="272.7188"/><text fill="#000000" font-family="sans-serif" font-size="13" font-weight="bold" lengthAdjust="spacing" textLength="7" x="85" y="267.8623">5</text><text fill="#000000" font-family="sans-serif" font-size="13" lengthAdjust="spacing" textLength="125" x="96" y="267.8623">ask for new password</text><polygon fill="#A80036" points="259,299.0703,269,303.0703,259,307.0703,263,303.0703" style="stroke:#A80036;stroke-width:1.0;"/><line style="stroke:#A80036;stroke-width:1.0;" x1="68" x2="265" y1="303.0703" y2="303.0703"/><text fill="#000000" font-family="sans-serif" font-size="13" font-weight="bold" lengthAdjust="spacing" textLength="7" x="75" y="298.2139">6</text><text fill="#000000" font-family="sans-serif" font-size="13" lengthAdjust="spacing" textLength="114" x="86" y="298.2139">input new password</text><line style="stroke:#A80036;stroke-width:1.0;" x1="281" x2="323" y1="333.4219" y2="333.4219"/><line style="stroke:#A80036;stroke-width:1.0;" x1="323" x2="323" y1="333.4219" y2="346.4219"/><line style="stroke:#A80036;stroke-width:1.0;" x1="282" x2="323" y1="346.4219" y2="346.4219"/><polygon fill="#A80036" points="292,342.4219,282,346.4219,292,350.4219,288,346.4219" style="stroke:#A80036;stroke-width:1.0;"/><text fill="#000000" font-family="sans-serif" font-size="13" font-weight="bold" lengthAdjust="spacing" textLength="7" x="288" y="328.5654">7</text><text fill="#000000" font-family="sans-serif" font-size="13" lengthAdjust="spacing" textLength="134" x="299" y="328.5654">validate password rules</text><polygon fill="#A80036" points="79,372.7734,69,376.7734,79,380.7734,75,376.7734" style="stroke:#A80036;stroke-width:1.0;"/><line style="stroke:#A80036;stroke-width:1.0;stroke-dasharray:2.0,2.0;" x1="73" x2="270" y1="376.7734" y2="376.7734"/><text fill="#000000" font-family="sans-serif" font-size="13" font-weight="bold" lengthAdjust="spacing" textLength="7" x="85" y="371.917">8</text><text fill="#000000" font-family="sans-serif" font-size="13" lengthAdjust="spacing" textLength="168" x="96" y="371.917">ask to confirm new password</text><polygon fill="#A80036" points="259,403.125,269,407.125,259,411.125,263,407.125" style="stroke:#A80036;stroke-width:1.0;"/><line style="stroke:#A80036;stroke-width:1.0;" x1="68" x2="265" y1="407.125" y2="407.125"/><text fill="#000000" font-family="sans-serif" font-size="13" font-weight="bold" lengthAdjust="spacing" textLength="7" x="75" y="402.2686">9</text><text fill="#000000" font-family="sans-serif" font-size="13" lengthAdjust="spacing" textLength="149" x="86" y="402.2686">input new password again</text><line style="stroke:#A80036;stroke-width:1.0;" x1="281" x2="323" y1="437.4766" y2="437.4766"/><line style="stroke:#A80036;stroke-width:1.0;" x1="323" x2="323" y1="437.4766" y2="450.4766"/><line style="stroke:#A80036;stroke-width:1.0;" x1="282" x2="323" y1="450.4766" y2="450.4766"/><polygon fill="#A80036" points="292,446.4766,282,450.4766,292,454.4766,288,450.4766" style="stroke:#A80036;stroke-width:1.0;"/><text fill="#000000" font-family="sans-serif" font-size="13" font-weight="bold" lengthAdjust="spacing" textLength="14" x="288" y="432.6201">10</text><text fill="#000000" font-family="sans-serif" font-size="13" lengthAdjust="spacing" textLength="226" x="306" y="432.6201">check confirmed password is the same</text><line style="stroke:#A80036;stroke-width:1.0;" x1="281" x2="323" y1="480.8281" y2="480.8281"/><line style="stroke:#A80036;stroke-width:1.0;" x1="323" x2="323" y1="480.8281" y2="493.8281"/><line style="stroke:#A80036;stroke-width:1.0;" x1="282" x2="323" y1="493.8281" y2="493.8281"/><polygon fill="#A80036" points="292,489.8281,282,493.8281,292,497.8281,288,493.8281" style="stroke:#A80036;stroke-width:1.0;"/><text fill="#000000" font-family="sans-serif" font-size="13" font-weight="bold" lengthAdjust="spacing" textLength="14" x="288" y="475.9717">11</text><text fill="#000000" font-family="sans-serif" font-size="13" lengthAdjust="spacing" textLength="101" x="306" y="475.9717">change password</text><polygon fill="#A80036" points="79,520.1797,69,524.1797,79,528.1797,75,524.1797" style="stroke:#A80036;stroke-width:1.0;"/><line style="stroke:#A80036;stroke-width:1.0;stroke-dasharray:2.0,2.0;" x1="73" x2="275" y1="524.1797" y2="524.1797"/><text fill="#000000" font-family="sans-serif" font-size="13" font-weight="bold" lengthAdjust="spacing" textLength="14" x="85" y="519.3232">12</text><text fill="#000000" font-family="sans-serif" font-size="13" lengthAdjust="spacing" textLength="141" x="103" y="519.3232">operation (un)successful</text><!--MD5=[25b577160e91136ad1e06becd3fdcc59]
@startuml
actor "Authenticated User" as user
participant "System" as system
autonumber
user -> system : Open 'Reset Password' UI
activate system
system -> system : check User is not 'Visitor'
system - -> user : show 'Reset Password' UI\n and ask for old password
user -> system : input old password
system - -> user : ask for new password
user -> system : input new password
system -> system : validate password rules
system - -> user : ask to confirm new password
user -> system : input new password again
system -> system : check confirmed password is the same
system -> system : change password

system - -> user : operation (un)successful
deactivate system
@enduml

PlantUML version 1.2022.1(Tue Feb 01 18:19:58 GMT 2022)
(GPL source distribution)
Java Runtime: OpenJDK Runtime Environment
JVM: OpenJDK 64-Bit Server VM
Default Encoding: Cp1252
Language: en
Country: GB
--></g></svg>