<?xml version="1.0" encoding="UTF-8" standalone="no"?><svg xmlns="http://www.w3.org/2000/svg" xmlns:xlink="http://www.w3.org/1999/xlink" contentStyleType="text/css" height="784px" preserveAspectRatio="none" style="width:2395px;height:784px;background:#FFFFFF;" version="1.1" viewBox="0 0 2395 784" width="2395px" zoomAndPan="magnify"><defs/><g><rect fill="#FFFFFF" height="668.7109" style="stroke:#181818;stroke-width:1.0;" width="10" x="225" y="69.9609"/><rect fill="#FFFFFF" height="629.3594" style="stroke:#181818;stroke-width:1.0;" width="10" x="448" y="100.3125"/><rect fill="#FFFFFF" height="568.6563" style="stroke:#181818;stroke-width:1.0;" width="10" x="692.5" y="130.6641"/><rect fill="#FFFFFF" height="299.3281" style="stroke:#181818;stroke-width:1.0;" width="10" x="914.5" y="161.0156"/><rect fill="#FFFFFF" height="30.3516" style="stroke:#181818;stroke-width:1.0;" width="10" x="1083" y="392.6406"/><rect fill="#FFFFFF" height="30.3516" style="stroke:#181818;stroke-width:1.0;" width="10" x="1289.5" y="319.6797"/><rect fill="#FFFFFF" height="30" style="stroke:#181818;stroke-width:1.0;" width="10" x="1600.5" y="233.9766"/><rect fill="#FFFFFF" height="30.3516" style="stroke:#181818;stroke-width:1.0;" width="10" x="1780.5" y="558.6563"/><rect fill="#FFFFFF" height="30.3516" style="stroke:#181818;stroke-width:1.0;" width="10" x="2215" y="631.6172"/><rect height="152.0156" style="stroke:#000000;stroke-width:1.5;fill:none;" width="657" x="839" y="278.9766"/><rect height="152.0156" style="stroke:#000000;stroke-width:1.5;fill:none;" width="1843" x="546" y="517.9531"/><line style="stroke:#181818;stroke-width:0.5;fill:none;stroke-dasharray:5.0,5.0;" x1="229.5" x2="229.5" y1="37.6094" y2="747.6719"/><line style="stroke:#181818;stroke-width:0.5;fill:none;stroke-dasharray:5.0,5.0;" x1="453" x2="453" y1="37.6094" y2="747.6719"/><line style="stroke:#181818;stroke-width:0.5;fill:none;stroke-dasharray:5.0,5.0;" x1="697" x2="697" y1="37.6094" y2="747.6719"/><line style="stroke:#181818;stroke-width:0.5;fill:none;stroke-dasharray:5.0,5.0;" x1="919" x2="919" y1="37.6094" y2="747.6719"/><line style="stroke:#181818;stroke-width:0.5;fill:none;stroke-dasharray:5.0,5.0;" x1="1088" x2="1088" y1="200.3203" y2="747.6719"/><line style="stroke:#181818;stroke-width:0.5;fill:none;stroke-dasharray:5.0,5.0;" x1="1294" x2="1294" y1="37.6094" y2="747.6719"/><line style="stroke:#181818;stroke-width:0.5;fill:none;stroke-dasharray:5.0,5.0;" x1="1449" x2="1449" y1="358.9844" y2="747.6719"/><line style="stroke:#181818;stroke-width:0.5;fill:none;stroke-dasharray:5.0,5.0;" x1="1605" x2="1605" y1="37.6094" y2="747.6719"/><line style="stroke:#181818;stroke-width:0.5;fill:none;stroke-dasharray:5.0,5.0;" x1="1785" x2="1785" y1="37.6094" y2="747.6719"/><line style="stroke:#181818;stroke-width:0.5;fill:none;stroke-dasharray:5.0,5.0;" x1="1953" x2="1953" y1="597.9609" y2="747.6719"/><line style="stroke:#181818;stroke-width:0.5;fill:none;stroke-dasharray:5.0,5.0;" x1="2220" x2="2220" y1="499.6484" y2="747.6719"/><rect fill="#E2E2F0" height="31.6094" rx="2.5" ry="2.5" style="stroke:#181818;stroke-width:0.5;" width="59" x="200.5" y="5"/><text fill="#000000" font-family="sans-serif" font-size="14" lengthAdjust="spacing" textLength="45" x="207.5" y="26.5332">Routes</text><rect fill="#E2E2F0" height="31.6094" rx="2.5" ry="2.5" style="stroke:#181818;stroke-width:0.5;" width="59" x="200.5" y="746.6719"/><text fill="#000000" font-family="sans-serif" font-size="14" lengthAdjust="spacing" textLength="45" x="207.5" y="768.2051">Routes</text><rect fill="#E2E2F0" height="31.6094" rx="2.5" ry="2.5" style="stroke:#181818;stroke-width:0.5;" width="186" x="360" y="5"/><text fill="#000000" font-family="sans-serif" font-size="14" lengthAdjust="spacing" textLength="172" x="367" y="26.5332">: ViewAllAccountsController</text><rect fill="#E2E2F0" height="31.6094" rx="2.5" ry="2.5" style="stroke:#181818;stroke-width:0.5;" width="186" x="360" y="746.6719"/><text fill="#000000" font-family="sans-serif" font-size="14" lengthAdjust="spacing" textLength="172" x="367" y="768.2051">: ViewAllAccountsController</text><rect fill="#E2E2F0" height="31.6094" rx="2.5" ry="2.5" style="stroke:#181818;stroke-width:0.5;" width="283" x="556" y="5"/><text fill="#000000" font-family="sans-serif" font-size="14" lengthAdjust="spacing" textLength="269" x="563" y="26.5332">: ApplicationServiceListAccountsAndStatus</text><rect fill="#E2E2F0" height="31.6094" rx="2.5" ry="2.5" style="stroke:#181818;stroke-width:0.5;" width="283" x="556" y="746.6719"/><text fill="#000000" font-family="sans-serif" font-size="14" lengthAdjust="spacing" textLength="269" x="563" y="768.2051">: ApplicationServiceListAccountsAndStatus</text><rect fill="#E2E2F0" height="31.6094" rx="2.5" ry="2.5" style="stroke:#181818;stroke-width:0.5;" width="141" x="849" y="5"/><text fill="#000000" font-family="sans-serif" font-size="14" lengthAdjust="spacing" textLength="127" x="856" y="26.5332">: AccountRepository</text><rect fill="#E2E2F0" height="31.6094" rx="2.5" ry="2.5" style="stroke:#181818;stroke-width:0.5;" width="141" x="849" y="746.6719"/><text fill="#000000" font-family="sans-serif" font-size="14" lengthAdjust="spacing" textLength="127" x="856" y="768.2051">: AccountRepository</text><rect fill="#E2E2F0" height="31.6094" rx="2.5" ry="2.5" style="stroke:#181818;stroke-width:0.5;" width="176" x="1000" y="746.6719"/><text fill="#000000" font-family="sans-serif" font-size="14" lengthAdjust="spacing" textLength="158" x="1011" y="768.2051">accounts : List&lt;Account&gt;</text><rect fill="#E2E2F0" height="31.6094" rx="2.5" ry="2.5" style="stroke:#181818;stroke-width:0.5;" width="217" x="1186" y="5"/><text fill="#000000" font-family="sans-serif" font-size="14" lengthAdjust="spacing" textLength="203" x="1193" y="26.5332">: AccountDomainDataAssembler</text><rect fill="#E2E2F0" height="31.6094" rx="2.5" ry="2.5" style="stroke:#181818;stroke-width:0.5;" width="217" x="1186" y="746.6719"/><text fill="#000000" font-family="sans-serif" font-size="14" lengthAdjust="spacing" textLength="203" x="1193" y="768.2051">: AccountDomainDataAssembler</text><rect fill="#E2E2F0" height="31.6094" rx="2.5" ry="2.5" style="stroke:#181818;stroke-width:0.5;" width="73" x="1413" y="746.6719"/><text fill="#000000" font-family="sans-serif" font-size="14" lengthAdjust="spacing" textLength="59" x="1420" y="768.2051">: Account</text><rect fill="#E2E2F0" height="31.6094" rx="2.5" ry="2.5" style="stroke:#181818;stroke-width:0.5;" width="219" x="1496" y="5"/><text fill="#000000" font-family="sans-serif" font-size="14" lengthAdjust="spacing" textLength="205" x="1503" y="26.5332">: IAccountRepository &lt;Interface&gt;</text><rect fill="#E2E2F0" height="31.6094" rx="2.5" ry="2.5" style="stroke:#181818;stroke-width:0.5;" width="219" x="1496" y="746.6719"/><text fill="#000000" font-family="sans-serif" font-size="14" lengthAdjust="spacing" textLength="205" x="1503" y="768.2051">: IAccountRepository &lt;Interface&gt;</text><rect fill="#E2E2F0" height="31.6094" rx="2.5" ry="2.5" style="stroke:#181818;stroke-width:0.5;" width="121" x="1725" y="5"/><text fill="#000000" font-family="sans-serif" font-size="14" lengthAdjust="spacing" textLength="107" x="1732" y="26.5332">: AccountMapper</text><rect fill="#E2E2F0" height="31.6094" rx="2.5" ry="2.5" style="stroke:#181818;stroke-width:0.5;" width="121" x="1725" y="746.6719"/><text fill="#000000" font-family="sans-serif" font-size="14" lengthAdjust="spacing" textLength="107" x="1732" y="768.2051">: AccountMapper</text><rect fill="#E2E2F0" height="31.6094" rx="2.5" ry="2.5" style="stroke:#181818;stroke-width:0.5;" width="195" x="1856" y="746.6719"/><text fill="#000000" font-family="sans-serif" font-size="14" lengthAdjust="spacing" textLength="177" x="1867" y="768.2051">dto : accountAndStatusDTO</text><rect fill="#E2E2F0" height="31.6094" rx="2.5" ry="2.5" style="stroke:#181818;stroke-width:0.5;" width="318" x="2061" y="746.6719"/><text fill="#000000" font-family="sans-serif" font-size="14" lengthAdjust="spacing" textLength="300" x="2068" y="768.2051">: accountsDTOS : List&lt;AccountAndStatusDTO&gt;</text><rect fill="#FFFFFF" height="668.7109" style="stroke:#181818;stroke-width:1.0;" width="10" x="225" y="69.9609"/><rect fill="#FFFFFF" height="629.3594" style="stroke:#181818;stroke-width:1.0;" width="10" x="448" y="100.3125"/><rect fill="#FFFFFF" height="568.6563" style="stroke:#181818;stroke-width:1.0;" width="10" x="692.5" y="130.6641"/><rect fill="#FFFFFF" height="299.3281" style="stroke:#181818;stroke-width:1.0;" width="10" x="914.5" y="161.0156"/><rect fill="#FFFFFF" height="30.3516" style="stroke:#181818;stroke-width:1.0;" width="10" x="1083" y="392.6406"/><rect fill="#FFFFFF" height="30.3516" style="stroke:#181818;stroke-width:1.0;" width="10" x="1289.5" y="319.6797"/><rect fill="#FFFFFF" height="30" style="stroke:#181818;stroke-width:1.0;" width="10" x="1600.5" y="233.9766"/><rect fill="#FFFFFF" height="30.3516" style="stroke:#181818;stroke-width:1.0;" width="10" x="1780.5" y="558.6563"/><rect fill="#FFFFFF" height="30.3516" style="stroke:#181818;stroke-width:1.0;" width="10" x="2215" y="631.6172"/><ellipse cx="7.5" cy="69.2109" fill="none" rx="4" ry="4" style="stroke:#181818;stroke-width:1.5;"/><polygon fill="#181818" points="213,65.9609,223,69.9609,213,73.9609,217,69.9609" style="stroke:#181818;stroke-width:1.0;"/><line style="stroke:#181818;stroke-width:1.0;stroke-dasharray:2.0,2.0;" x1="12" x2="219" y1="69.9609" y2="69.9609"/><text fill="#000000" font-family="sans-serif" font-size="13" font-weight="bold" lengthAdjust="spacing" textLength="7" x="15" y="65.1045">1</text><text fill="#000000" font-family="sans-serif" font-size="13" lengthAdjust="spacing" textLength="187" x="26" y="65.1045">GET https://localhost:8080/????</text><polygon fill="#181818" points="436,96.3125,446,100.3125,436,104.3125,440,100.3125" style="stroke:#181818;stroke-width:1.0;"/><line style="stroke:#181818;stroke-width:1.0;" x1="235" x2="442" y1="100.3125" y2="100.3125"/><text fill="#000000" font-family="sans-serif" font-size="13" font-weight="bold" lengthAdjust="spacing" textLength="7" x="242" y="95.4561">2</text><text fill="#000000" font-family="sans-serif" font-size="13" lengthAdjust="spacing" textLength="183" x="253" y="95.4561">getListOfAllAccountsAndStatus</text><polygon fill="#181818" points="680.5,126.6641,690.5,130.6641,680.5,134.6641,684.5,130.6641" style="stroke:#181818;stroke-width:1.0;"/><line style="stroke:#181818;stroke-width:1.0;" x1="458" x2="686.5" y1="130.6641" y2="130.6641"/><text fill="#000000" font-family="sans-serif" font-size="13" font-weight="bold" lengthAdjust="spacing" textLength="7" x="465" y="125.8076">3</text><text fill="#000000" font-family="sans-serif" font-size="13" lengthAdjust="spacing" textLength="149" x="476" y="125.8076">getAllAccountsAndStatus</text><polygon fill="#181818" points="902.5,157.0156,912.5,161.0156,902.5,165.0156,906.5,161.0156" style="stroke:#181818;stroke-width:1.0;"/><line style="stroke:#181818;stroke-width:1.0;" x1="702.5" x2="908.5" y1="161.0156" y2="161.0156"/><text fill="#000000" font-family="sans-serif" font-size="13" font-weight="bold" lengthAdjust="spacing" textLength="7" x="709.5" y="156.1592">4</text><text fill="#000000" font-family="sans-serif" font-size="13" lengthAdjust="spacing" textLength="35" x="720.5" y="156.1592">findAll</text><polygon fill="#181818" points="988,187.3672,998,191.3672,988,195.3672,992,191.3672" style="stroke:#181818;stroke-width:1.0;"/><line style="stroke:#181818;stroke-width:1.0;stroke-dasharray:2.0,2.0;" x1="924.5" x2="994" y1="191.3672" y2="191.3672"/><text fill="#000000" font-family="sans-serif" font-size="13" font-weight="bold" lengthAdjust="spacing" textLength="7" x="931.5" y="186.5107">5</text><text fill="#000000" font-family="sans-serif" font-size="13" lengthAdjust="spacing" textLength="4" x="942.5" y="186.5107"> </text><rect fill="#E2E2F0" height="31.6094" rx="2.5" ry="2.5" style="stroke:#181818;stroke-width:0.5;" width="176" x="1000" y="169.0156"/><text fill="#000000" font-family="sans-serif" font-size="14" lengthAdjust="spacing" textLength="158" x="1011" y="190.5488">accounts : List&lt;Account&gt;</text><polygon fill="#181818" points="1588.5,229.9766,1598.5,233.9766,1588.5,237.9766,1592.5,233.9766" style="stroke:#181818;stroke-width:1.0;"/><line style="stroke:#181818;stroke-width:1.0;" x1="924.5" x2="1594.5" y1="233.9766" y2="233.9766"/><text fill="#000000" font-family="sans-serif" font-size="13" font-weight="bold" lengthAdjust="spacing" textLength="7" x="931.5" y="229.1201">6</text><text fill="#000000" font-family="sans-serif" font-size="13" lengthAdjust="spacing" textLength="128" x="942.5" y="229.1201">accountsJPA = findAll</text><path d="M839,278.9766 L912,278.9766 L912,287.3281 L902,297.3281 L839,297.3281 L839,278.9766 " fill="#EEEEEE" style="stroke:#000000;stroke-width:1.5;"/><rect fill="none" height="152.0156" style="stroke:#000000;stroke-width:1.5;" width="657" x="839" y="278.9766"/><text fill="#000000" font-family="sans-serif" font-size="13" font-weight="bold" lengthAdjust="spacing" textLength="28" x="854" y="293.4717">loop</text><text fill="#000000" font-family="sans-serif" font-size="11" font-weight="bold" lengthAdjust="spacing" textLength="201" x="927" y="292.3955">[for each accountsJPA in repository]</text><polygon fill="#181818" points="1277.5,315.6797,1287.5,319.6797,1277.5,323.6797,1281.5,319.6797" style="stroke:#181818;stroke-width:1.0;"/><line style="stroke:#181818;stroke-width:1.0;" x1="924.5" x2="1283.5" y1="319.6797" y2="319.6797"/><text fill="#000000" font-family="sans-serif" font-size="13" font-weight="bold" lengthAdjust="spacing" textLength="7" x="931.5" y="314.8232">7</text><text fill="#000000" font-family="sans-serif" font-size="13" lengthAdjust="spacing" textLength="195" x="942.5" y="314.8232">account = toDomain(accountJPA)</text><polygon fill="#181818" points="1401,346.0313,1411,350.0313,1401,354.0313,1405,350.0313" style="stroke:#181818;stroke-width:1.0;"/><line style="stroke:#181818;stroke-width:1.0;stroke-dasharray:2.0,2.0;" x1="1294.5" x2="1407" y1="350.0313" y2="350.0313"/><text fill="#000000" font-family="sans-serif" font-size="13" font-weight="bold" lengthAdjust="spacing" textLength="7" x="1301.5" y="345.1748">8</text><text fill="#000000" font-family="sans-serif" font-size="13" lengthAdjust="spacing" textLength="4" x="1312.5" y="345.1748"> </text><rect fill="#E2E2F0" height="31.6094" rx="2.5" ry="2.5" style="stroke:#181818;stroke-width:0.5;" width="73" x="1413" y="327.6797"/><text fill="#000000" font-family="sans-serif" font-size="14" lengthAdjust="spacing" textLength="59" x="1420" y="349.2129">: Account</text><polygon fill="#181818" points="1071,388.6406,1081,392.6406,1071,396.6406,1075,392.6406" style="stroke:#181818;stroke-width:1.0;"/><line style="stroke:#181818;stroke-width:1.0;" x1="924.5" x2="1077" y1="392.6406" y2="392.6406"/><text fill="#000000" font-family="sans-serif" font-size="13" font-weight="bold" lengthAdjust="spacing" textLength="7" x="931.5" y="387.7842">9</text><text fill="#000000" font-family="sans-serif" font-size="13" lengthAdjust="spacing" textLength="75" x="942.5" y="387.7842">add(account)</text><polygon fill="#181818" points="935.5,418.9922,925.5,422.9922,935.5,426.9922,931.5,422.9922" style="stroke:#181818;stroke-width:1.0;"/><line style="stroke:#181818;stroke-width:1.0;stroke-dasharray:2.0,2.0;" x1="929.5" x2="1087" y1="422.9922" y2="422.9922"/><text fill="#000000" font-family="sans-serif" font-size="13" font-weight="bold" lengthAdjust="spacing" textLength="14" x="941.5" y="418.1357">10</text><text fill="#000000" font-family="sans-serif" font-size="13" lengthAdjust="spacing" textLength="53" x="959.5" y="418.1357">accounts</text><polygon fill="#181818" points="713.5,456.3438,703.5,460.3438,713.5,464.3438,709.5,460.3438" style="stroke:#181818;stroke-width:1.0;"/><line style="stroke:#181818;stroke-width:1.0;stroke-dasharray:2.0,2.0;" x1="707.5" x2="918.5" y1="460.3438" y2="460.3438"/><text fill="#000000" font-family="sans-serif" font-size="13" font-weight="bold" lengthAdjust="spacing" textLength="14" x="719.5" y="455.4873">11</text><text fill="#000000" font-family="sans-serif" font-size="13" lengthAdjust="spacing" textLength="53" x="737.5" y="455.4873">accounts</text><polygon fill="#181818" points="2049,486.6953,2059,490.6953,2049,494.6953,2053,490.6953" style="stroke:#181818;stroke-width:1.0;"/><line style="stroke:#181818;stroke-width:1.0;stroke-dasharray:2.0,2.0;" x1="702.5" x2="2055" y1="490.6953" y2="490.6953"/><text fill="#000000" font-family="sans-serif" font-size="13" font-weight="bold" lengthAdjust="spacing" textLength="14" x="709.5" y="485.8389">12</text><text fill="#000000" font-family="sans-serif" font-size="13" lengthAdjust="spacing" textLength="4" x="727.5" y="485.8389"> </text><rect fill="#E2E2F0" height="31.6094" rx="2.5" ry="2.5" style="stroke:#181818;stroke-width:0.5;" width="318" x="2061" y="468.3438"/><text fill="#000000" font-family="sans-serif" font-size="14" lengthAdjust="spacing" textLength="300" x="2068" y="489.877">: accountsDTOS : List&lt;AccountAndStatusDTO&gt;</text><path d="M546,517.9531 L619,517.9531 L619,526.3047 L609,536.3047 L546,536.3047 L546,517.9531 " fill="#EEEEEE" style="stroke:#000000;stroke-width:1.5;"/><rect fill="none" height="152.0156" style="stroke:#000000;stroke-width:1.5;" width="1843" x="546" y="517.9531"/><text fill="#000000" font-family="sans-serif" font-size="13" font-weight="bold" lengthAdjust="spacing" textLength="28" x="561" y="532.4482">loop</text><text fill="#000000" font-family="sans-serif" font-size="11" font-weight="bold" lengthAdjust="spacing" textLength="173" x="634" y="531.3721">[for each account in repository]</text><polygon fill="#181818" points="1768.5,554.6563,1778.5,558.6563,1768.5,562.6563,1772.5,558.6563" style="stroke:#181818;stroke-width:1.0;"/><line style="stroke:#181818;stroke-width:1.0;" x1="702.5" x2="1774.5" y1="558.6563" y2="558.6563"/><text fill="#000000" font-family="sans-serif" font-size="13" font-weight="bold" lengthAdjust="spacing" textLength="14" x="709.5" y="553.7998">13</text><text fill="#000000" font-family="sans-serif" font-size="13" lengthAdjust="spacing" textLength="278" x="727.5" y="553.7998">dto = toDomainAccountAndStatusDTO(account)</text><polygon fill="#181818" points="1844,585.0078,1854,589.0078,1844,593.0078,1848,589.0078" style="stroke:#181818;stroke-width:1.0;"/><line style="stroke:#181818;stroke-width:1.0;stroke-dasharray:2.0,2.0;" x1="1785.5" x2="1850" y1="589.0078" y2="589.0078"/><text fill="#000000" font-family="sans-serif" font-size="13" font-weight="bold" lengthAdjust="spacing" textLength="14" x="1792.5" y="584.1514">14</text><text fill="#000000" font-family="sans-serif" font-size="13" lengthAdjust="spacing" textLength="4" x="1810.5" y="584.1514"> </text><rect fill="#E2E2F0" height="31.6094" rx="2.5" ry="2.5" style="stroke:#181818;stroke-width:0.5;" width="195" x="1856" y="566.6563"/><text fill="#000000" font-family="sans-serif" font-size="14" lengthAdjust="spacing" textLength="177" x="1867" y="588.1895">dto : accountAndStatusDTO</text><polygon fill="#181818" points="2203,627.6172,2213,631.6172,2203,635.6172,2207,631.6172" style="stroke:#181818;stroke-width:1.0;"/><line style="stroke:#181818;stroke-width:1.0;" x1="702.5" x2="2209" y1="631.6172" y2="631.6172"/><text fill="#000000" font-family="sans-serif" font-size="13" font-weight="bold" lengthAdjust="spacing" textLength="14" x="709.5" y="626.7607">15</text><text fill="#000000" font-family="sans-serif" font-size="13" lengthAdjust="spacing" textLength="47" x="727.5" y="626.7607">add(dto)</text><polygon fill="#181818" points="713.5,657.9688,703.5,661.9688,713.5,665.9688,709.5,661.9688" style="stroke:#181818;stroke-width:1.0;"/><line style="stroke:#181818;stroke-width:1.0;stroke-dasharray:2.0,2.0;" x1="707.5" x2="2219" y1="661.9688" y2="661.9688"/><text fill="#000000" font-family="sans-serif" font-size="13" font-weight="bold" lengthAdjust="spacing" textLength="14" x="719.5" y="657.1123">16</text><text fill="#000000" font-family="sans-serif" font-size="13" lengthAdjust="spacing" textLength="88" x="737.5" y="657.1123">accountsDTOS</text><polygon fill="#181818" points="469,695.3203,459,699.3203,469,703.3203,465,699.3203" style="stroke:#181818;stroke-width:1.0;"/><line style="stroke:#181818;stroke-width:1.0;stroke-dasharray:2.0,2.0;" x1="463" x2="696.5" y1="699.3203" y2="699.3203"/><text fill="#000000" font-family="sans-serif" font-size="13" font-weight="bold" lengthAdjust="spacing" textLength="14" x="475" y="694.4639">17</text><text fill="#000000" font-family="sans-serif" font-size="13" lengthAdjust="spacing" textLength="81" x="493" y="694.4639">accountDTOS</text><polygon fill="#181818" points="246,725.6719,236,729.6719,246,733.6719,242,729.6719" style="stroke:#181818;stroke-width:1.0;"/><line style="stroke:#181818;stroke-width:1.0;stroke-dasharray:2.0,2.0;" x1="240" x2="452" y1="729.6719" y2="729.6719"/><text fill="#000000" font-family="sans-serif" font-size="13" font-weight="bold" lengthAdjust="spacing" textLength="14" x="252" y="724.8154">18</text><text fill="#000000" font-family="sans-serif" font-size="13" lengthAdjust="spacing" textLength="92" x="270" y="724.8154">ResponseEntity</text><!--MD5=[f6439b01574266835b61328294d20094]
@startuml
'https://plantuml.com/sequence-diagram

autonumber
participant "Routes" as server
participant ": ViewAllAccountsController" as ctrl
participant ": ApplicationServiceListAccountsAndStatus" as appService
participant ": AccountRepository" as repo
participant " accounts : List<Account>" as listAccount
participant ": AccountDomainDataAssembler" as assembler
participant ": Account" as account
participant ": IAccountRepository <Interface>" as IRepo
participant ": AccountMapper" as mapper
participant " dto : accountAndStatusDTO" as dto
participant ": accountsDTOS : List<AccountAndStatusDTO> " as listAccountDTO

[o- -> server : GET https://localhost:8080/????
activate server
server -> ctrl : getListOfAllAccountsAndStatus
activate ctrl
ctrl -> appService : getAllAccountsAndStatus
activate appService
appService -> repo : findAll
activate repo
repo - -> listAccount**
repo -> IRepo : accountsJPA = findAll
activate IRepo
deactivate IRepo


loop for each accountsJPA in repository
repo -> assembler : account = toDomain(accountJPA)
activate assembler
assembler - -> account** 
deactivate assembler
repo -> listAccount : add(account)
activate listAccount
listAccount - -> repo : accounts
deactivate listAccount
end loop

repo - -> appService : accounts
deactivate repo
appService - -> listAccountDTO**

loop for each account in repository
appService -> mapper : dto = toDomainAccountAndStatusDTO(account)
activate mapper
mapper - -> dto**
deactivate mapper
appService -> listAccountDTO : add(dto)
activate listAccountDTO
listAccountDTO - -> appService : accountsDTOS
deactivate listAccountDTO
end loop

appService - -> ctrl : accountDTOS
deactivate appService


ctrl - -> server : ResponseEntity
deactivate ctrl


@enduml

@startuml

autonumber
participant "Routes" as server
participant ": ViewAllAccountsController" as ctrl
participant ": ApplicationServiceListAccountsAndStatus" as appService
participant ": AccountRepository" as repo
participant " accounts : List<Account>" as listAccount
participant ": AccountDomainDataAssembler" as assembler
participant ": Account" as account
participant ": IAccountRepository <Interface>" as IRepo
participant ": AccountMapper" as mapper
participant " dto : accountAndStatusDTO" as dto
participant ": accountsDTOS : List<AccountAndStatusDTO> " as listAccountDTO

[o- -> server : GET https://localhost:8080/????
activate server
server -> ctrl : getListOfAllAccountsAndStatus
activate ctrl
ctrl -> appService : getAllAccountsAndStatus
activate appService
appService -> repo : findAll
activate repo
repo - -> listAccount**
repo -> IRepo : accountsJPA = findAll
activate IRepo
deactivate IRepo


loop for each accountsJPA in repository
repo -> assembler : account = toDomain(accountJPA)
activate assembler
assembler - -> account** 
deactivate assembler
repo -> listAccount : add(account)
activate listAccount
listAccount - -> repo : accounts
deactivate listAccount
end loop

repo - -> appService : accounts
deactivate repo
appService - -> listAccountDTO**

loop for each account in repository
appService -> mapper : dto = toDomainAccountAndStatusDTO(account)
activate mapper
mapper - -> dto**
deactivate mapper
appService -> listAccountDTO : add(dto)
activate listAccountDTO
listAccountDTO - -> appService : accountsDTOS
deactivate listAccountDTO
end loop

appService - -> ctrl : accountDTOS
deactivate appService


ctrl - -> server : ResponseEntity
deactivate ctrl


@enduml

PlantUML version 1.2022.5(Sat Apr 30 11:55:52 BST 2022)
(GPL source distribution)
Java Runtime: OpenJDK Runtime Environment
JVM: OpenJDK 64-Bit Server VM
Default Encoding: Cp1252
Language: pt
Country: PT
--></g></svg>