<?xml version="1.0" encoding="UTF-8" standalone="no"?><svg xmlns="http://www.w3.org/2000/svg" xmlns:xlink="http://www.w3.org/1999/xlink" contentScriptType="application/ecmascript" contentStyleType="text/css" height="707px" preserveAspectRatio="none" style="width:803px;height:706px;background:#FFFFFF;" version="1.1" viewBox="0 0 803 706" width="803.6px" zoomAndPan="magnify"><defs><filter height="300%" id="fuexmjvqh8z0n" width="300%" x="-1" y="-1"><feGaussianBlur result="blurOut" stdDeviation="1.3999999999999997"/><feColorMatrix in="blurOut" result="blurOut2" type="matrix" values="0 0 0 0 0 0 0 0 0 0 0 0 0 0 0 0 0 0 .4 0"/><feOffset dx="2.7999999999999994" dy="2.7999999999999994" in="blurOut2" result="blurOut3"/><feBlend in="SourceGraphic" in2="blurOut3" mode="normal"/></filter></defs><g><!--MD5=[589778a86542334cbbe24d2c132e4f67]
class ui--><rect codeLine="4" fill="#FEFECE" filter="url(#fuexmjvqh8z0n)" height="33.6" id="ui" style="stroke:#A80036;stroke-width:1.0499999999999998;" width="68.6" x="715.05" y="4.9"/><ellipse cx="725.55" cy="16.1" fill="#B4A7E5" rx="7.7" ry="7.7" style="stroke:#A80036;stroke-width:0.6999999999999998;"/><path d="M726.25,14 L726.25,18.2 L727.65,18.2 L727.9891,18.2 L728.35,18.6375 L728.35,18.9 L728.35,19.1625 L727.9891,19.6 L727.65,19.6 L723.45,19.6 L723.1109,19.6 L722.75,19.1625 L722.75,18.9 L722.75,18.6375 L723.1109,18.2 L723.45,18.2 L724.85,18.2 L724.85,14 L723.45,14 L723.1109,14 L722.75,13.5625 L722.75,13.3 L722.75,13.0375 L723.1109,12.6 L723.45,12.6 L727.65,12.6 L727.9891,12.6 L728.35,13.0375 L728.35,13.3 L728.35,13.5625 L727.9891,14 L727.65,14 L726.25,14 Z " fill="#000000"/><text fill="#000000" font-family="sans-serif" font-size="8.4" font-style="italic" lengthAdjust="spacing" textLength="46.2" x="735.35" y="19.5371">DefinePOUI</text><line style="stroke:#A80036;stroke-width:1.0499999999999998;" x1="715.75" x2="782.95" y1="27.3" y2="27.3"/><line style="stroke:#A80036;stroke-width:1.0499999999999998;" x1="715.75" x2="782.95" y1="32.9" y2="32.9"/><!--MD5=[fd9cab17099256c8680aa6ea13cc8fa6]
class ctrl--><rect codeLine="5" fill="#FEFECE" filter="url(#fuexmjvqh8z0n)" height="43.2852" id="ctrl" style="stroke:#A80036;stroke-width:1.0499999999999998;" width="164.5" x="501.2" y="80.5"/><ellipse cx="543.025" cy="91.7" fill="#ADD1B2" rx="7.7" ry="7.7" style="stroke:#A80036;stroke-width:0.6999999999999998;"/><path d="M544.425,89.25 Q544.5672,88.9 544.7312,88.725 Q544.8953,88.55 545.0812,88.55 Q545.4094,88.55 545.6172,88.7469 Q545.825,88.9437 545.825,89.4031 L545.825,90.4969 Q545.825,90.9562 545.6281,91.1531 Q545.4312,91.35 545.125,91.35 Q544.8516,91.35 544.6766,91.2297 Q544.5016,91.1094 544.425,90.7922 Q544.3922,90.5734 544.2719,90.4531 Q544.0531,90.2234 543.6594,90.0922 Q543.2656,89.95 542.8719,89.95 Q542.3797,89.95 541.9641,90.1469 Q541.5594,90.3437 541.2422,90.7812 Q540.925,91.2187 540.925,91.8203 L540.925,92.4656 Q540.925,93.1875 541.5156,93.6687 Q542.1062,94.15 543.1562,94.15 Q543.7797,94.15 544.2172,94.0078 Q544.4687,93.9312 544.7531,93.6797 Q544.9391,93.5375 545.0375,93.4937 Q545.1359,93.45 545.2562,93.45 Q545.4859,93.45 545.65,93.6359 Q545.825,93.8109 545.825,94.0625 Q545.825,94.3031 545.5844,94.5875 Q545.2344,95.0031 544.6766,95.2328 Q543.9437,95.55 543.0469,95.55 Q541.9969,95.55 541.1547,95.1344 Q540.4766,94.8062 539.9953,94.0953 Q539.525,93.3844 539.525,92.5422 L539.525,91.7766 Q539.525,90.9016 539.9406,90.1359 Q540.3672,89.3703 541.1,88.9656 Q541.8437,88.55 542.675,88.55 Q543.1781,88.55 543.6156,88.725 Q544.0531,88.9 544.425,89.25 Z " fill="#000000"/><text fill="#000000" font-family="sans-serif" font-size="8.4" lengthAdjust="spacing" textLength="74.9" x="557.375" y="95.1371">DefinePOController</text><line style="stroke:#A80036;stroke-width:1.0499999999999998;" x1="501.9" x2="665" y1="102.9" y2="102.9"/><line style="stroke:#A80036;stroke-width:1.0499999999999998;" x1="501.9" x2="665" y1="108.5" y2="108.5"/><text fill="#000000" font-family="sans-serif" font-size="7.7" lengthAdjust="spacing" textLength="156.1" x="505.4" y="119.2933">definePO(dto : CreateResourceDTO) : boolean</text><!--MD5=[5f41f85de07f10ee5ddaf804b5546503]
class itc--><rect codeLine="8" fill="#FEFECE" filter="url(#fuexmjvqh8z0n)" height="68.3867" id="itc" style="stroke:#A80036;stroke-width:1.0499999999999998;" width="124.6" x="312.55" y="196.7"/><ellipse cx="349.825" cy="210.7656" fill="#FF7700" rx="7.7" ry="7.7" style="stroke:#A80036;stroke-width:0.6999999999999998;"/><path d="M348.775,213.5656 Q348.5781,214.0141 348.4469,214.1453 Q348.3266,214.2656 348.1516,214.2656 Q347.8016,214.2656 347.5828,214.1125 Q347.375,213.9484 347.375,213.5656 L347.375,212.8656 Q347.375,212.4828 347.55,212.3297 Q347.725,212.1656 348.0094,212.1656 Q348.2281,212.1656 348.3812,212.2203 Q348.5344,212.275 348.6109,212.4062 Q348.6875,212.5375 348.775,212.5812 Q348.8844,212.6797 349.1687,212.7781 Q349.4531,212.8656 349.7922,212.8656 Q350.3172,212.8656 350.6562,212.5484 Q350.875,212.3625 350.875,212.0891 Q350.875,211.9031 350.7656,211.7391 Q350.6562,211.575 350.4156,211.4656 Q350.2625,211.3891 349.7156,211.2687 Q348.6984,211.1156 348.3375,210.875 Q347.9875,210.6344 347.6812,210.2078 Q347.375,209.7703 347.375,209.2672 Q347.375,208.4687 347.9766,207.8672 Q348.5891,207.2656 349.5516,207.2656 Q349.9453,207.2656 350.1422,207.4406 Q350.3391,207.6156 350.875,207.9656 Q351.1812,207.2656 351.4875,207.2656 Q351.8375,207.2656 352.0562,207.4187 Q352.275,207.5719 352.275,207.9328 L352.275,208.6875 Q352.275,209.0594 352.1,209.2125 Q351.925,209.3656 351.6516,209.3656 Q351.4219,209.3656 351.2469,209.3 Q351.1156,209.2562 351.05,209.1141 Q350.9844,208.9719 350.875,208.9172 Q350.7437,208.8078 350.4812,208.7422 Q350.2187,208.6656 349.8687,208.6656 Q349.3656,208.6656 349.0703,208.9172 Q348.775,209.1687 348.775,209.4422 Q348.775,209.6281 348.8734,209.8031 Q348.9828,209.9672 349.1906,210.0656 Q349.3219,210.1312 350.0766,210.2844 Q350.8312,210.4375 351.2141,210.6453 Q351.5969,210.8422 351.9359,211.2687 Q352.275,211.6953 352.275,212.2969 Q352.275,213.1172 351.8047,213.6094 Q351.1703,214.2656 350.1969,214.2656 Q349.825,214.2656 349.4641,214.0906 Q349.1141,213.9156 348.775,213.5656 Z " fill="#000000"/><text fill="#000000" font-family="sans-serif" font-size="8.4" font-style="italic" lengthAdjust="spacing" textLength="46.2" x="363.125" y="208.9199">«Singleton»</text><text fill="#000000" font-family="sans-serif" font-size="8.4" lengthAdjust="spacing" textLength="44.1" x="364.175" y="219.4855">ITCompany</text><line style="stroke:#A80036;stroke-width:1.0499999999999998;" x1="313.25" x2="436.45" y1="224.8312" y2="224.8312"/><line style="stroke:#A80036;stroke-width:1.0499999999999998;" x1="313.25" x2="436.45" y1="230.4312" y2="230.4312"/><text fill="#000000" font-family="sans-serif" font-size="7.7" lengthAdjust="spacing" textLength="96.6" x="316.75" y="241.2245">getITCompany() : ITCompany</text><text fill="#000000" font-family="sans-serif" font-size="7.7" lengthAdjust="spacing" textLength="105" x="316.75" y="250.9097">getProjectStore() : ProjectStore</text><text fill="#000000" font-family="sans-serif" font-size="7.7" lengthAdjust="spacing" textLength="116.2" x="316.75" y="260.5948">getAccountStore() : AccountStore</text><!--MD5=[9502fb1dc0c1e00802a3178771ee9222]
class pstr--><rect codeLine="13" fill="#FEFECE" filter="url(#fuexmjvqh8z0n)" height="62.6555" id="pstr" style="stroke:#A80036;stroke-width:1.0499999999999998;" width="228.9" x="208.6" y="338.1"/><ellipse cx="296.625" cy="349.3" fill="#ADD1B2" rx="7.7" ry="7.7" style="stroke:#A80036;stroke-width:0.6999999999999998;"/><path d="M298.025,346.85 Q298.1672,346.5 298.3312,346.325 Q298.4953,346.15 298.6812,346.15 Q299.0094,346.15 299.2172,346.3469 Q299.425,346.5437 299.425,347.0031 L299.425,348.0969 Q299.425,348.5562 299.2281,348.7531 Q299.0312,348.95 298.725,348.95 Q298.4516,348.95 298.2766,348.8297 Q298.1016,348.7094 298.025,348.3922 Q297.9922,348.1734 297.8719,348.0531 Q297.6531,347.8234 297.2594,347.6922 Q296.8656,347.55 296.4719,347.55 Q295.9797,347.55 295.5641,347.7469 Q295.1594,347.9437 294.8422,348.3812 Q294.525,348.8187 294.525,349.4203 L294.525,350.0656 Q294.525,350.7875 295.1156,351.2687 Q295.7062,351.75 296.7562,351.75 Q297.3797,351.75 297.8172,351.6078 Q298.0687,351.5312 298.3531,351.2797 Q298.5391,351.1375 298.6375,351.0937 Q298.7359,351.05 298.8562,351.05 Q299.0859,351.05 299.25,351.2359 Q299.425,351.4109 299.425,351.6625 Q299.425,351.9031 299.1844,352.1875 Q298.8344,352.6031 298.2766,352.8328 Q297.5437,353.15 296.6469,353.15 Q295.5969,353.15 294.7547,352.7344 Q294.0766,352.4062 293.5953,351.6953 Q293.125,350.9844 293.125,350.1422 L293.125,349.3766 Q293.125,348.5016 293.5406,347.7359 Q293.9672,346.9703 294.7,346.5656 Q295.4437,346.15 296.275,346.15 Q296.7781,346.15 297.2156,346.325 Q297.6531,346.5 298.025,346.85 Z " fill="#000000"/><text fill="#000000" font-family="sans-serif" font-size="8.4" lengthAdjust="spacing" textLength="46.9" x="310.975" y="352.7371">ProjectStore</text><line style="stroke:#A80036;stroke-width:1.0499999999999998;" x1="209.3" x2="436.8" y1="360.5" y2="360.5"/><line style="stroke:#A80036;stroke-width:1.0499999999999998;" x1="209.3" x2="436.8" y1="366.1" y2="366.1"/><text fill="#000000" font-family="sans-serif" font-size="7.7" lengthAdjust="spacing" textLength="199.5" x="212.8" y="376.8933">allocationIsValid(email : String, allocation : double) : boolean</text><text fill="#000000" font-family="sans-serif" font-size="7.7" lengthAdjust="spacing" textLength="120.4" x="212.8" y="386.5784">getAllocation(email : String) : double</text><text fill="#000000" font-family="sans-serif" font-size="7.7" lengthAdjust="spacing" textLength="220.5" x="212.8" y="396.2636">definePO(dto : CreateResourceDTO, account : Account) :boolean</text><!--MD5=[75cb009b437a8fc1a5a21ac147dee502]
class proj--><rect codeLine="19" fill="#FEFECE" filter="url(#fuexmjvqh8z0n)" height="130.4516" id="proj" style="stroke:#A80036;stroke-width:1.0499999999999998;" width="233.1" x="4.9" y="165.9"/><ellipse cx="105.175" cy="177.1" fill="#ADD1B2" rx="7.7" ry="7.7" style="stroke:#A80036;stroke-width:0.6999999999999998;"/><path d="M106.575,174.65 Q106.7172,174.3 106.8812,174.125 Q107.0453,173.95 107.2312,173.95 Q107.5594,173.95 107.7672,174.1469 Q107.975,174.3437 107.975,174.8031 L107.975,175.8969 Q107.975,176.3562 107.7781,176.5531 Q107.5812,176.75 107.275,176.75 Q107.0016,176.75 106.8266,176.6297 Q106.6516,176.5094 106.575,176.1922 Q106.5422,175.9734 106.4219,175.8531 Q106.2031,175.6234 105.8094,175.4922 Q105.4156,175.35 105.0219,175.35 Q104.5297,175.35 104.1141,175.5469 Q103.7094,175.7437 103.3922,176.1812 Q103.075,176.6187 103.075,177.2203 L103.075,177.8656 Q103.075,178.5875 103.6656,179.0687 Q104.2562,179.55 105.3062,179.55 Q105.9297,179.55 106.3672,179.4078 Q106.6187,179.3312 106.9031,179.0797 Q107.0891,178.9375 107.1875,178.8937 Q107.2859,178.85 107.4062,178.85 Q107.6359,178.85 107.8,179.0359 Q107.975,179.2109 107.975,179.4625 Q107.975,179.7031 107.7344,179.9875 Q107.3844,180.4031 106.8266,180.6328 Q106.0937,180.95 105.1969,180.95 Q104.1469,180.95 103.3047,180.5344 Q102.6266,180.2062 102.1453,179.4953 Q101.675,178.7844 101.675,177.9422 L101.675,177.1766 Q101.675,176.3016 102.0906,175.5359 Q102.5172,174.7703 103.25,174.3656 Q103.9937,173.95 104.825,173.95 Q105.3281,173.95 105.7656,174.125 Q106.2031,174.3 106.575,174.65 Z " fill="#000000"/><text fill="#000000" font-family="sans-serif" font-size="8.4" lengthAdjust="spacing" textLength="26.6" x="119.525" y="180.5371">Project</text><line style="stroke:#A80036;stroke-width:1.0499999999999998;" x1="5.6" x2="237.3" y1="188.3" y2="188.3"/><text fill="#000000" font-family="sans-serif" font-size="7.7" lengthAdjust="spacing" textLength="30.8" x="9.1" y="199.0933">code : int</text><text fill="#000000" font-family="sans-serif" font-size="7.7" lengthAdjust="spacing" textLength="70.7" x="9.1" y="208.7784">startDate : LocalDate</text><line style="stroke:#A80036;stroke-width:1.0499999999999998;" x1="5.6" x2="237.3" y1="213.2703" y2="213.2703"/><text fill="#000000" font-family="sans-serif" font-size="7.7" lengthAdjust="spacing" textLength="126.7" x="9.1" y="224.0636">isOwnProject(email : String) : boolean</text><text fill="#000000" font-family="sans-serif" font-size="7.7" lengthAdjust="spacing" textLength="158.2" x="9.1" y="233.7487">hasActivePOInDate(date : LocalDate) : boolean</text><text fill="#000000" font-family="sans-serif" font-size="7.7" lengthAdjust="spacing" textLength="124.6" x="9.1" y="243.4339">isOwnProject(email : String) :boolean</text><text fill="#000000" font-family="sans-serif" font-size="7.7" lengthAdjust="spacing" textLength="90.3" x="9.1" y="253.119">isProjectClosed() : boolean</text><text fill="#000000" font-family="sans-serif" font-size="7.7" lengthAdjust="spacing" textLength="215.6" x="9.1" y="262.8042">isDateNotBeforeTheProjectStartDate(date : LocalDate) : boolean</text><text fill="#000000" font-family="sans-serif" font-size="7.7" lengthAdjust="spacing" textLength="203.7" x="9.1" y="272.4894">addResourceToProjectTeam(resource : Resource) : boolean</text><text fill="#000000" font-family="sans-serif" font-size="7.7" lengthAdjust="spacing" textLength="205.1" x="9.1" y="282.1745">setPOEndDate(LocalDate date, LocalDate endDate) : boolean</text><text fill="#000000" font-family="sans-serif" font-size="7.7" lengthAdjust="spacing" textLength="224.7" x="9.1" y="291.8597">definePO(dto : CreateResourceDTO,  account : Account) : boolean</text><!--MD5=[7287b2dbe158aa32fb86af4f2aecd912]
class accstr--><rect codeLine="33" fill="#FEFECE" filter="url(#fuexmjvqh8z0n)" height="43.2852" id="accstr" style="stroke:#A80036;stroke-width:1.0499999999999998;" width="158.9" x="462" y="347.9"/><ellipse cx="513.275" cy="359.1" fill="#ADD1B2" rx="7.7" ry="7.7" style="stroke:#A80036;stroke-width:0.6999999999999998;"/><path d="M514.675,356.65 Q514.8172,356.3 514.9812,356.125 Q515.1453,355.95 515.3312,355.95 Q515.6594,355.95 515.8672,356.1469 Q516.075,356.3437 516.075,356.8031 L516.075,357.8969 Q516.075,358.3562 515.8781,358.5531 Q515.6812,358.75 515.375,358.75 Q515.1016,358.75 514.9266,358.6297 Q514.7516,358.5094 514.675,358.1922 Q514.6422,357.9734 514.5219,357.8531 Q514.3031,357.6234 513.9094,357.4922 Q513.5156,357.35 513.1219,357.35 Q512.6297,357.35 512.2141,357.5469 Q511.8094,357.7437 511.4922,358.1812 Q511.175,358.6187 511.175,359.2203 L511.175,359.8656 Q511.175,360.5875 511.7656,361.0687 Q512.3562,361.55 513.4062,361.55 Q514.0297,361.55 514.4672,361.4078 Q514.7187,361.3312 515.0031,361.0797 Q515.1891,360.9375 515.2875,360.8937 Q515.3859,360.85 515.5062,360.85 Q515.7359,360.85 515.9,361.0359 Q516.075,361.2109 516.075,361.4625 Q516.075,361.7031 515.8344,361.9875 Q515.4844,362.4031 514.9266,362.6328 Q514.1937,362.95 513.2969,362.95 Q512.2469,362.95 511.4047,362.5344 Q510.7266,362.2062 510.2453,361.4953 Q509.775,360.7844 509.775,359.9422 L509.775,359.1766 Q509.775,358.3016 510.1906,357.5359 Q510.6172,356.7703 511.35,356.3656 Q512.0937,355.95 512.925,355.95 Q513.4281,355.95 513.8656,356.125 Q514.3031,356.3 514.675,356.65 Z " fill="#000000"/><text fill="#000000" font-family="sans-serif" font-size="8.4" lengthAdjust="spacing" textLength="50.4" x="527.625" y="362.5371">AccountStore</text><line style="stroke:#A80036;stroke-width:1.0499999999999998;" x1="462.7" x2="620.2" y1="370.3" y2="370.3"/><line style="stroke:#A80036;stroke-width:1.0499999999999998;" x1="462.7" x2="620.2" y1="375.9" y2="375.9"/><text fill="#000000" font-family="sans-serif" font-size="7.7" lengthAdjust="spacing" textLength="150.5" x="466.2" y="386.6933">findAccountByEmail(email : String) : Account</text><!--MD5=[8be9a1d45a27ed621c0e415c9d857dd4]
class acc--><rect codeLine="36" fill="#FEFECE" filter="url(#fuexmjvqh8z0n)" height="52.9703" id="acc" style="stroke:#A80036;stroke-width:1.0499999999999998;" width="150.5" x="462" y="204.4"/><ellipse cx="519.225" cy="215.6" fill="#ADD1B2" rx="7.7" ry="7.7" style="stroke:#A80036;stroke-width:0.6999999999999998;"/><path d="M520.625,213.15 Q520.7672,212.8 520.9312,212.625 Q521.0953,212.45 521.2812,212.45 Q521.6094,212.45 521.8172,212.6469 Q522.025,212.8437 522.025,213.3031 L522.025,214.3969 Q522.025,214.8562 521.8281,215.0531 Q521.6312,215.25 521.325,215.25 Q521.0516,215.25 520.8766,215.1297 Q520.7016,215.0094 520.625,214.6922 Q520.5922,214.4734 520.4719,214.3531 Q520.2531,214.1234 519.8594,213.9922 Q519.4656,213.85 519.0719,213.85 Q518.5797,213.85 518.1641,214.0469 Q517.7594,214.2437 517.4422,214.6812 Q517.125,215.1187 517.125,215.7203 L517.125,216.3656 Q517.125,217.0875 517.7156,217.5687 Q518.3062,218.05 519.3562,218.05 Q519.9797,218.05 520.4172,217.9078 Q520.6687,217.8312 520.9531,217.5797 Q521.1391,217.4375 521.2375,217.3937 Q521.3359,217.35 521.4562,217.35 Q521.6859,217.35 521.85,217.5359 Q522.025,217.7109 522.025,217.9625 Q522.025,218.2031 521.7844,218.4875 Q521.4344,218.9031 520.8766,219.1328 Q520.1437,219.45 519.2469,219.45 Q518.1969,219.45 517.3547,219.0344 Q516.6766,218.7062 516.1953,217.9953 Q515.725,217.2844 515.725,216.4422 L515.725,215.6766 Q515.725,214.8016 516.1406,214.0359 Q516.5672,213.2703 517.3,212.8656 Q518.0437,212.45 518.875,212.45 Q519.3781,212.45 519.8156,212.625 Q520.2531,212.8 520.625,213.15 Z " fill="#000000"/><text fill="#000000" font-family="sans-serif" font-size="8.4" lengthAdjust="spacing" textLength="30.1" x="533.575" y="219.0371">Account</text><line style="stroke:#A80036;stroke-width:1.0499999999999998;" x1="462.7" x2="611.8" y1="226.8" y2="226.8"/><text fill="#000000" font-family="sans-serif" font-size="7.7" lengthAdjust="spacing" textLength="42.7" x="466.2" y="237.5933">email : String</text><line style="stroke:#A80036;stroke-width:1.0499999999999998;" x1="462.7" x2="611.8" y1="242.0852" y2="242.0852"/><text fill="#000000" font-family="sans-serif" font-size="7.7" lengthAdjust="spacing" textLength="142.1" x="466.2" y="252.8784">isAccountEqualTo(email : String) : boolean</text><!--MD5=[1f97ed6d0871a418d2bf222ec08b8079]
class rsrc--><rect codeLine="41" fill="#FEFECE" filter="url(#fuexmjvqh8z0n)" height="120.7664" id="rsrc" style="stroke:#A80036;stroke-width:1.0499999999999998;" width="233.8" x="80.85" y="462.35"/><ellipse cx="175.875" cy="473.55" fill="#ADD1B2" rx="7.7" ry="7.7" style="stroke:#A80036;stroke-width:0.6999999999999998;"/><path d="M177.275,471.1 Q177.4172,470.75 177.5812,470.575 Q177.7453,470.4 177.9312,470.4 Q178.2594,470.4 178.4672,470.5969 Q178.675,470.7937 178.675,471.2531 L178.675,472.3469 Q178.675,472.8062 178.4781,473.0031 Q178.2812,473.2 177.975,473.2 Q177.7016,473.2 177.5266,473.0797 Q177.3516,472.9594 177.275,472.6422 Q177.2422,472.4234 177.1219,472.3031 Q176.9031,472.0734 176.5094,471.9422 Q176.1156,471.8 175.7219,471.8 Q175.2297,471.8 174.8141,471.9969 Q174.4094,472.1937 174.0922,472.6312 Q173.775,473.0687 173.775,473.6703 L173.775,474.3156 Q173.775,475.0375 174.3656,475.5187 Q174.9562,476 176.0062,476 Q176.6297,476 177.0672,475.8578 Q177.3187,475.7812 177.6031,475.5297 Q177.7891,475.3875 177.8875,475.3437 Q177.9859,475.3 178.1062,475.3 Q178.3359,475.3 178.5,475.4859 Q178.675,475.6609 178.675,475.9125 Q178.675,476.1531 178.4344,476.4375 Q178.0844,476.8531 177.5266,477.0828 Q176.7937,477.4 175.8969,477.4 Q174.8469,477.4 174.0047,476.9844 Q173.3266,476.6562 172.8453,475.9453 Q172.375,475.2344 172.375,474.3922 L172.375,473.6266 Q172.375,472.7516 172.7906,471.9859 Q173.2172,471.2203 173.95,470.8156 Q174.6937,470.4 175.525,470.4 Q176.0281,470.4 176.4656,470.575 Q176.9031,470.75 177.275,471.1 Z " fill="#000000"/><text fill="#000000" font-family="sans-serif" font-size="8.4" lengthAdjust="spacing" textLength="37.8" x="190.225" y="476.9871">Resource</text><line style="stroke:#A80036;stroke-width:1.0499999999999998;" x1="81.55" x2="313.95" y1="484.75" y2="484.75"/><text fill="#000000" font-family="sans-serif" font-size="7.7" lengthAdjust="spacing" textLength="70.7" x="85.05" y="495.5433">startDate : LocalDate</text><text fill="#000000" font-family="sans-serif" font-size="7.7" lengthAdjust="spacing" textLength="108.5" x="85.05" y="505.2284">percentageOfAllocation : double</text><text fill="#000000" font-family="sans-serif" font-size="7.7" lengthAdjust="spacing" textLength="70.7" x="85.05" y="514.9136">costPerHour : double</text><text fill="#000000" font-family="sans-serif" font-size="7.7" lengthAdjust="spacing" textLength="67.9" x="85.05" y="524.5987">endDate : LocalDate</text><line style="stroke:#A80036;stroke-width:1.0499999999999998;" x1="81.55" x2="313.95" y1="529.0906" y2="529.0906"/><text fill="#000000" font-family="sans-serif" font-size="7.7" lengthAdjust="spacing" textLength="225.4" x="85.05" y="539.8839">+Resource(startDate : LocalDate, percentageOfAllocation : double,</text><text fill="#000000" font-family="sans-serif" font-size="7.7" lengthAdjust="spacing" textLength="177.8" x="85.05" y="549.569">costPerHour : double, associatedAccount : Account,</text><text fill="#000000" font-family="sans-serif" font-size="7.7" lengthAdjust="spacing" textLength="141.4" x="85.05" y="559.2542">associatedResourceRole : ResourceRole)</text><text fill="#000000" font-family="sans-serif" font-size="7.7" lengthAdjust="spacing" textLength="184.1" x="85.05" y="568.9394">isResourceActivePOInDate(date : LocalDate) : boolean</text><text fill="#000000" font-family="sans-serif" font-size="7.7" lengthAdjust="spacing" textLength="168" x="85.05" y="578.6245">chooseEndDateOfResource(endDate : LocalDate)</text><!--MD5=[230c8b93044a8b32754c79e4598c3632]
class role--><rect codeLine="51" fill="#FEFECE" filter="url(#fuexmjvqh8z0n)" height="52.9703" id="role" style="stroke:#A80036;stroke-width:1.0499999999999998;" width="78.4" x="549.15" y="644.7"/><ellipse cx="559.65" cy="655.9" fill="#ADD1B2" rx="7.7" ry="7.7" style="stroke:#A80036;stroke-width:0.6999999999999998;"/><path d="M561.05,653.45 Q561.1922,653.1 561.3562,652.925 Q561.5203,652.75 561.7062,652.75 Q562.0344,652.75 562.2422,652.9469 Q562.45,653.1437 562.45,653.6031 L562.45,654.6969 Q562.45,655.1562 562.2531,655.3531 Q562.0562,655.55 561.75,655.55 Q561.4766,655.55 561.3016,655.4297 Q561.1266,655.3094 561.05,654.9922 Q561.0172,654.7734 560.8969,654.6531 Q560.6781,654.4234 560.2844,654.2922 Q559.8906,654.15 559.4969,654.15 Q559.0047,654.15 558.5891,654.3469 Q558.1844,654.5437 557.8672,654.9812 Q557.55,655.4187 557.55,656.0203 L557.55,656.6656 Q557.55,657.3875 558.1406,657.8687 Q558.7312,658.35 559.7812,658.35 Q560.4047,658.35 560.8422,658.2078 Q561.0937,658.1312 561.3781,657.8797 Q561.5641,657.7375 561.6625,657.6937 Q561.7609,657.65 561.8812,657.65 Q562.1109,657.65 562.275,657.8359 Q562.45,658.0109 562.45,658.2625 Q562.45,658.5031 562.2094,658.7875 Q561.8594,659.2031 561.3016,659.4328 Q560.5687,659.75 559.6719,659.75 Q558.6219,659.75 557.7797,659.3344 Q557.1016,659.0062 556.6203,658.2953 Q556.15,657.5844 556.15,656.7422 L556.15,655.9766 Q556.15,655.1016 556.5656,654.3359 Q556.9922,653.5703 557.725,653.1656 Q558.4687,652.75 559.3,652.75 Q559.8031,652.75 560.2406,652.925 Q560.6781,653.1 561.05,653.45 Z " fill="#000000"/><text fill="#000000" font-family="sans-serif" font-size="8.4" lengthAdjust="spacing" textLength="56" x="569.45" y="659.3371">ResourceRole</text><line style="stroke:#A80036;stroke-width:1.0499999999999998;" x1="549.85" x2="626.85" y1="667.1" y2="667.1"/><text fill="#000000" font-family="sans-serif" font-size="7.7" lengthAdjust="spacing" textLength="38.5" x="553.35" y="677.8933">role : String</text><text fill="#000000" font-family="sans-serif" font-size="7.7" lengthAdjust="spacing" textLength="63" x="553.35" y="687.5784">description : String</text><line style="stroke:#A80036;stroke-width:1.0499999999999998;" x1="549.85" x2="626.85" y1="692.0703" y2="692.0703"/><!--MD5=[7a3f677e62d08ccf691684bafc193c34]
class dto--><rect codeLine="55" fill="#FEFECE" filter="url(#fuexmjvqh8z0n)" height="159.507" id="dto" style="stroke:#A80036;stroke-width:1.0499999999999998;" width="193.9" x="491.4" y="443.1"/><ellipse cx="544.775" cy="454.3" fill="#ADD1B2" rx="7.7" ry="7.7" style="stroke:#A80036;stroke-width:0.6999999999999998;"/><path d="M546.175,451.85 Q546.3172,451.5 546.4812,451.325 Q546.6453,451.15 546.8312,451.15 Q547.1594,451.15 547.3672,451.3469 Q547.575,451.5437 547.575,452.0031 L547.575,453.0969 Q547.575,453.5562 547.3781,453.7531 Q547.1812,453.95 546.875,453.95 Q546.6016,453.95 546.4266,453.8297 Q546.2516,453.7094 546.175,453.3922 Q546.1422,453.1734 546.0219,453.0531 Q545.8031,452.8234 545.4094,452.6922 Q545.0156,452.55 544.6219,452.55 Q544.1297,452.55 543.7141,452.7469 Q543.3094,452.9437 542.9922,453.3812 Q542.675,453.8187 542.675,454.4203 L542.675,455.0656 Q542.675,455.7875 543.2656,456.2687 Q543.8562,456.75 544.9062,456.75 Q545.5297,456.75 545.9672,456.6078 Q546.2187,456.5312 546.5031,456.2797 Q546.6891,456.1375 546.7875,456.0937 Q546.8859,456.05 547.0062,456.05 Q547.2359,456.05 547.4,456.2359 Q547.575,456.4109 547.575,456.6625 Q547.575,456.9031 547.3344,457.1875 Q546.9844,457.6031 546.4266,457.8328 Q545.6937,458.15 544.7969,458.15 Q543.7469,458.15 542.9047,457.7344 Q542.2266,457.4062 541.7453,456.6953 Q541.275,455.9844 541.275,455.1422 L541.275,454.3766 Q541.275,453.5016 541.6906,452.7359 Q542.1172,451.9703 542.85,451.5656 Q543.5937,451.15 544.425,451.15 Q544.9281,451.15 545.3656,451.325 Q545.8031,451.5 546.175,451.85 Z " fill="#000000"/><text fill="#000000" font-family="sans-serif" font-size="8.4" lengthAdjust="spacing" textLength="81.2" x="559.125" y="457.7371">CreateResourceDTO</text><line style="stroke:#A80036;stroke-width:1.0499999999999998;" x1="492.1" x2="684.6" y1="465.5" y2="465.5"/><text fill="#000000" font-family="sans-serif" font-size="7.7" lengthAdjust="spacing" textLength="185.5" x="495.6" y="476.2933">startDate : LocalDate, percentageOfAllocation : double,</text><text fill="#000000" font-family="sans-serif" font-size="7.7" lengthAdjust="spacing" textLength="54.6" x="495.6" y="485.9784">projectCode : int</text><text fill="#000000" font-family="sans-serif" font-size="7.7" lengthAdjust="spacing" textLength="42.7" x="495.6" y="495.6636">email : String</text><text fill="#000000" font-family="sans-serif" font-size="7.7" lengthAdjust="spacing" textLength="70.7" x="495.6" y="505.3487">startDate : LocalDate</text><text fill="#000000" font-family="sans-serif" font-size="7.7" lengthAdjust="spacing" textLength="108.5" x="495.6" y="515.0339">percentageOfAllocation : double</text><text fill="#000000" font-family="sans-serif" font-size="7.7" lengthAdjust="spacing" textLength="70.7" x="495.6" y="524.719">costPerHour : double</text><line style="stroke:#A80036;stroke-width:1.0499999999999998;" x1="492.1" x2="684.6" y1="529.2109" y2="529.2109"/><text fill="#000000" font-family="sans-serif" font-size="7.7" lengthAdjust="spacing" textLength="180.6" x="495.6" y="540.0042">+CreateResourceDTO(projectCode : int, email : String,</text><text fill="#000000" font-family="sans-serif" font-size="7.7" lengthAdjust="spacing" textLength="182" x="495.6" y="549.6894">percentageOfAllocation : double, role : ResourceRole)</text><text fill="#000000" font-family="sans-serif" font-size="7.7" lengthAdjust="spacing" textLength="70.7" x="495.6" y="559.3745">getProjectCode() : int</text><text fill="#000000" font-family="sans-serif" font-size="7.7" lengthAdjust="spacing" textLength="85.4" x="495.6" y="569.0597">getStartDate(): LocalDate</text><text fill="#000000" font-family="sans-serif" font-size="7.7" lengthAdjust="spacing" textLength="124.6" x="495.6" y="578.7448">getPercentageOfAllocation() : double</text><text fill="#000000" font-family="sans-serif" font-size="7.7" lengthAdjust="spacing" textLength="87.5" x="495.6" y="588.43">getCostPerHour() : double</text><text fill="#000000" font-family="sans-serif" font-size="7.7" lengthAdjust="spacing" textLength="84.7" x="495.6" y="598.1151">getRole() : ResourceRole</text><!--MD5=[65605f4b9fcf838a026dcfadc852f609]
link ui to ctrl--><path codeLine="73" d="M715.575,38.5 C691.18,50.134 657.895,66.003 630.84,78.904 " fill="none" id="ui-to-ctrl" style="stroke:#A80036;stroke-width:0.6999999999999998;stroke-dasharray:7.0,7.0;"/><polygon fill="#A80036" points="627.571,80.465,634.4626,80.2751,630.729,78.956,632.0481,75.2224,627.571,80.465" style="stroke:#A80036;stroke-width:0.6999999999999998;"/><text fill="#000000" font-family="sans-serif" font-size="9.1" lengthAdjust="spacing" textLength="4.9" x="704.4488" y="38.6927">1</text><text fill="#000000" font-family="sans-serif" font-size="9.1" lengthAdjust="spacing" textLength="4.9" x="631.7865" y="72.7715">1</text><!--MD5=[9eae10fde41c43e0d1ac97c514b524e8]
link ui to role--><path codeLine="74" d="M755.951,38.528 C769.468,73.066 799.05,157.003 799.05,230.3 C799.05,230.3 799.05,230.3 799.05,370.3 C799.05,483.007 771.288,517.454 697.55,602.7 C679.385,623.7 653.093,640.325 630.861,651.868 " fill="none" id="ui-to-role" style="stroke:#A80036;stroke-width:0.6999999999999998;stroke-dasharray:7.0,7.0;"/><polygon fill="#A80036" points="627.606,653.534,634.49,653.1592,630.7223,651.9408,631.9408,648.1731,627.606,653.534" style="stroke:#A80036;stroke-width:0.6999999999999998;"/><text fill="#000000" font-family="sans-serif" font-size="9.1" lengthAdjust="spacing" textLength="4.9" x="752.0628" y="53.4714">1</text><text fill="#000000" font-family="sans-serif" font-size="9.1" lengthAdjust="spacing" textLength="4.9" x="633.2102" y="648.6727">1</text><!--MD5=[59392e3c1452782a1987dc74484ecd4f]
link ui to dto--><path codeLine="75" d="M748.097,38.549 C743.484,92.141 724.738,268.198 668.85,401.1 C663.39,414.078 656.488,427.154 649.033,439.663 " fill="none" id="ui-to-dto" style="stroke:#A80036;stroke-width:0.6999999999999998;stroke-dasharray:7.0,7.0;"/><polygon fill="#A80036" points="647.129,442.827,652.781,438.8792,648.9371,439.8302,647.9861,435.9863,647.129,442.827" style="stroke:#A80036;stroke-width:0.6999999999999998;"/><text fill="#000000" font-family="sans-serif" font-size="9.1" lengthAdjust="spacing" textLength="4.9" x="742.2944" y="53.4975">1</text><text fill="#000000" font-family="sans-serif" font-size="9.1" lengthAdjust="spacing" textLength="4.9" x="645.8376" y="435.596">1</text><!--MD5=[32555a79456f9e6809fe1582e12aeb5d]
link ctrl to dto--><path codeLine="76" d="M615.524,124.173 C628.817,134.932 642.789,149.247 649.95,165.9 C688.107,254.611 658.161,365.372 628.18,439.642 " fill="none" id="ctrl-to-dto" style="stroke:#A80036;stroke-width:0.6999999999999998;stroke-dasharray:7.0,7.0;"/><polygon fill="#A80036" points="626.843,442.932,631.8079,438.1487,628.1601,439.6893,626.6195,436.0414,626.843,442.932" style="stroke:#A80036;stroke-width:0.6999999999999998;"/><text fill="#000000" font-family="sans-serif" font-size="9.1" lengthAdjust="spacing" textLength="4.9" x="616.2711" y="138.9101">1</text><text fill="#000000" font-family="sans-serif" font-size="9.1" lengthAdjust="spacing" textLength="4.9" x="624.3646" y="435.4409">1</text><!--MD5=[756360581a876c4543cd230cfb06b86f]
link ctrl to accstr--><path codeLine="77" d="M601.797,124.047 C610.589,135.59 620.186,150.612 624.75,165.9 C641.305,221.347 648.676,243.411 624.75,296.1 C615.517,316.435 597.485,333.312 580.552,345.681 " fill="none" id="ctrl-to-accstr" style="stroke:#A80036;stroke-width:0.6999999999999998;stroke-dasharray:7.0,7.0;"/><polygon fill="#A80036" points="577.633,347.788,584.3833,346.3867,580.4756,345.7461,581.1162,341.8385,577.633,347.788" style="stroke:#A80036;stroke-width:0.6999999999999998;"/><text fill="#000000" font-family="sans-serif" font-size="9.1" lengthAdjust="spacing" textLength="4.9" x="599.9274" y="138.7601">1</text><text fill="#000000" font-family="sans-serif" font-size="9.1" lengthAdjust="spacing" textLength="4.9" x="579.6904" y="340.4181">1</text><!--MD5=[20c4ba1e5086aab974cf5b6d62984da9]
link ctrl to acc--><path codeLine="78" d="M575.82,123.935 C568.197,144.956 556.423,177.436 547.883,200.977 " fill="none" id="ctrl-to-acc" style="stroke:#A80036;stroke-width:0.6999999999999998;stroke-dasharray:7.0,7.0;"/><polygon fill="#A80036" points="546.651,204.386,551.4269,199.414,547.8415,201.0947,546.1608,197.5092,546.651,204.386" style="stroke:#A80036;stroke-width:0.6999999999999998;"/><text fill="#000000" font-family="sans-serif" font-size="9.1" lengthAdjust="spacing" textLength="4.9" x="568.9355" y="138.7987">1</text><text fill="#000000" font-family="sans-serif" font-size="9.1" lengthAdjust="spacing" textLength="4.9" x="543.0326" y="196.737">1</text><!--MD5=[d6318eee9e7d1a336a36412e20ff17d1]
link ctrl to pstr--><path codeLine="79" d="M501.046,109.928 C426.538,118.195 324.814,134.904 299.95,165.9 C261.338,214.032 285.873,290.493 305.557,334.551 " fill="none" id="ctrl-to-pstr" style="stroke:#A80036;stroke-width:0.6999999999999998;stroke-dasharray:7.0,7.0;"/><polygon fill="#A80036" points="307.09,337.932,307.05,331.0379,305.65,334.742,301.9459,333.3419,307.09,337.932" style="stroke:#A80036;stroke-width:0.6999999999999998;"/><text fill="#000000" font-family="sans-serif" font-size="9.1" lengthAdjust="spacing" textLength="4.9" x="490.71" y="108.3225">1</text><text fill="#000000" font-family="sans-serif" font-size="9.1" lengthAdjust="spacing" textLength="4.9" x="299.371" y="330.5171">1</text><!--MD5=[cb8243a33269652d6a745e14bedbf2b4]
link proj to dto--><path codeLine="80" d="M143.619,296.198 C159.005,337.582 179.655,386.246 196.35,401.1 C199.192,403.627 372.764,456.701 487.97,491.736 " fill="none" id="proj-to-dto" style="stroke:#A80036;stroke-width:0.6999999999999998;stroke-dasharray:7.0,7.0;"/><polygon fill="#A80036" points="491.358,492.765,486.1505,488.247,488.0106,491.7427,484.5149,493.6028,491.358,492.765" style="stroke:#A80036;stroke-width:0.6999999999999998;"/><text fill="#000000" font-family="sans-serif" font-size="9.1" lengthAdjust="spacing" textLength="4.9" x="140.352" y="311.5073">1</text><text fill="#000000" font-family="sans-serif" font-size="9.1" lengthAdjust="spacing" textLength="4.9" x="481.0198" y="489.0666">1</text><!--MD5=[354614631d3bd83f83571a23513a7db4]
link acc to accstr--><path codeLine="81" d="M538.048,257.831 C538.755,280.791 539.777,314.216 540.519,338.394 " fill="none" id="acc-to-accstr" style="stroke:#A80036;stroke-width:0.6999999999999998;"/><polygon fill="#FFFFFF" points="540.806,347.809,543.4755,343.5249,540.5477,339.413,537.8782,343.6971,540.806,347.809" style="stroke:#A80036;stroke-width:0.6999999999999998;"/><text fill="#000000" font-family="sans-serif" font-size="9.1" lengthAdjust="spacing" textLength="85.4" x="445.9699" y="272.4842">arrayListAccount 0..*</text><text fill="#000000" font-family="sans-serif" font-size="9.1" lengthAdjust="spacing" textLength="4.9" x="535.2679" y="340.4434">1</text><!--MD5=[395ff746ef0e9ad62e55043281a49b05]
link pstr to dto--><path codeLine="82" d="M377.055,401.219 C408.961,419.489 450.366,443.191 488.054,464.772 " fill="none" id="pstr-to-dto" style="stroke:#A80036;stroke-width:0.6999999999999998;stroke-dasharray:7.0,7.0;"/><polygon fill="#A80036" points="491.225,466.592,487.1482,461.0324,488.1874,464.8534,484.3664,465.8925,491.225,466.592" style="stroke:#A80036;stroke-width:0.6999999999999998;"/><text fill="#000000" font-family="sans-serif" font-size="9.1" lengthAdjust="spacing" textLength="4.9" x="379.0827" y="415.7066">1</text><text fill="#000000" font-family="sans-serif" font-size="9.1" lengthAdjust="spacing" textLength="4.9" x="480.8795" y="461.4623">1</text><!--MD5=[cdd3f63a3a0585ae0dc3ce66893c16da]
link ctrl to itc--><path codeLine="83" d="M530.285,124.005 C505.029,135.002 474.943,149.569 449.75,165.9 C437.08,174.111 424.27,184.296 412.909,194.117 " fill="none" id="ctrl-to-itc" style="stroke:#A80036;stroke-width:0.6999999999999998;stroke-dasharray:7.0,7.0;"/><polygon fill="#A80036" points="410.053,196.609,416.6424,194.5818,412.692,194.3099,412.9639,190.3594,410.053,196.609" style="stroke:#A80036;stroke-width:0.6999999999999998;"/><text fill="#000000" font-family="sans-serif" font-size="9.1" lengthAdjust="spacing" textLength="4.9" x="514.4358" y="138.8825">1</text><text fill="#000000" font-family="sans-serif" font-size="9.1" lengthAdjust="spacing" textLength="4.9" x="409.9636" y="189.0156">1</text><!--MD5=[afd3ac7b37f605d072b12d234b4812f4]
link itc to pstr--><path codeLine="84" d="M362.11,265.44 C354.179,286.454 344.001,313.404 336.021,334.537 " fill="none" id="itc-to-pstr" style="stroke:#A80036;stroke-width:0.6999999999999998;"/><polygon fill="#A80036" points="334.761,337.876,339.6079,332.9732,335.9987,334.6021,334.3697,330.9929,334.761,337.876" style="stroke:#A80036;stroke-width:0.6999999999999998;"/><text fill="#000000" font-family="sans-serif" font-size="9.1" lengthAdjust="spacing" textLength="4.9" x="355.2638" y="280.0461">1</text><text fill="#000000" font-family="sans-serif" font-size="9.1" lengthAdjust="spacing" textLength="67.2" x="341.6992" y="330.4526">1 allProjectStore</text><!--MD5=[f60f046717041743104a677a9ac88d3f]
link itc to accstr--><path codeLine="85" d="M413.476,265.419 C425.061,275.387 437.85,286.272 449.75,296.1 C470.127,312.935 493.465,331.457 511.497,345.597 " fill="none" id="itc-to-accstr" style="stroke:#A80036;stroke-width:0.6999999999999998;"/><polygon fill="#A80036" points="514.346,347.83,511.1104,341.7422,511.5897,345.6729,507.6591,346.1523,514.346,347.83" style="stroke:#A80036;stroke-width:0.6999999999999998;"/><text fill="#000000" font-family="sans-serif" font-size="9.1" lengthAdjust="spacing" textLength="4.9" x="413.211" y="280.0224">1</text><text fill="#000000" font-family="sans-serif" font-size="9.1" lengthAdjust="spacing" textLength="72.1" x="431.8144" y="340.312">1 allAccountStore</text><!--MD5=[365d743a42d0c4744f7b8799d63b5389]
link proj to pstr--><path codeLine="86" d="M216.349,296.282 C234.773,308.826 253.463,321.545 269.941,332.759 " fill="none" id="proj-to-pstr" style="stroke:#A80036;stroke-width:0.6999999999999998;"/><polygon fill="#FFFFFF" points="277.599,337.967,275.7002,333.29,270.6526,333.2438,272.5514,337.9209,277.599,337.967" style="stroke:#A80036;stroke-width:0.6999999999999998;"/><text fill="#000000" font-family="sans-serif" font-size="9.1" lengthAdjust="spacing" textLength="49" x="172.9589" y="311.3768">projects 0..*</text><text fill="#000000" font-family="sans-serif" font-size="9.1" lengthAdjust="spacing" textLength="4.9" x="265.3642" y="330.5575">1</text><!--MD5=[ca359b33592056fd9f58276c3ce75088]
reverse link proj to rsrc--><path codeLine="87" d="M132.335,305.375 C137.494,335.335 144.41,370.132 152.95,401.1 C158.522,421.302 165.998,442.904 173.25,462.189 " fill="none" id="proj-backto-rsrc" style="stroke:#A80036;stroke-width:0.6999999999999998;"/><polygon fill="#FFFFFF" points="130.795,296.24,128.7311,300.8465,132.1894,304.5235,134.2534,299.9169,130.795,296.24" style="stroke:#A80036;stroke-width:0.6999999999999998;"/><text fill="#000000" font-family="sans-serif" font-size="9.1" lengthAdjust="spacing" textLength="4.9" x="126.4444" y="311.3314">1</text><text fill="#000000" font-family="sans-serif" font-size="9.1" lengthAdjust="spacing" textLength="66.5" x="98.8668" y="454.7619">projectTeam 0..*</text><!--MD5=[7cf133d406f02cd8f1d5f9049e2369fd]
link rsrc to role--><path codeLine="88" d="M314.678,567.602 C392.532,596.904 490.308,633.703 545.412,654.444 " fill="none" id="rsrc-to-role" style="stroke:#A80036;stroke-width:0.6999999999999998;"/><polygon fill="#A80036" points="548.982,655.781,544.0663,650.9472,545.7048,654.5521,542.1,656.1906,548.982,655.781" style="stroke:#A80036;stroke-width:0.6999999999999998;"/><text fill="#000000" font-family="sans-serif" font-size="9.1" lengthAdjust="spacing" textLength="14" x="320.2935" y="567.6335">0..*</text><text fill="#000000" font-family="sans-serif" font-size="9.1" lengthAdjust="spacing" textLength="108.5" x="435.0697" y="652.8204">associatedResourceRole 1</text><!--MD5=[680431596853f056854d90e9fa6b0bc0]
link dto to role--><path codeLine="89" d="M588.35,602.91 C588.35,616.434 588.35,629.692 588.35,640.843 " fill="none" id="dto-to-role" style="stroke:#A80036;stroke-width:0.6999999999999998;stroke-dasharray:7.0,7.0;"/><polygon fill="#A80036" points="588.35,644.539,591.15,638.239,588.35,641.039,585.55,638.239,588.35,644.539" style="stroke:#A80036;stroke-width:0.6999999999999998;"/><text fill="#000000" font-family="sans-serif" font-size="9.1" lengthAdjust="spacing" textLength="14" x="573.9234" y="617.5838">0..*</text><text fill="#000000" font-family="sans-serif" font-size="9.1" lengthAdjust="spacing" textLength="4.9" x="583.0136" y="637.0637">1</text><!--MD5=[2b3ee61bd41d3706d6d1478fcdea7ca1]
@startuml
'https://plantuml.com/class-diagram
skinparam classAttributeIconSize 0

interface "DefinePOUI" as ui
class "DefinePOController" as ctrl {
definePO(dto : CreateResourceDTO) : boolean
}
class itc as "ITCompany" << (S,#FF7700) Singleton >>{
getITCompany() : ITCompany
getProjectStore() : ProjectStore
getAccountStore() : AccountStore
}
class "ProjectStore" as pstr{
allocationIsValid(email : String, allocation : double) : boolean
getAllocation(email : String) : double
definePO(dto : CreateResourceDTO, account : Account) :boolean

}
class "Project" as proj{
 code : int
 startDate : LocalDate


isUserActiveInProject(email : String) : boolean
hasActivePOInDate(date : LocalDate) : boolean
isUserActiveInProject(email : String) :boolean
isProjectClosed() : boolean
isDateNotBeforeTheProjectStartDate(date : LocalDate) : boolean
addResourceToProjectTeam(resource : Resource) : boolean
setPOEndDate(LocalDate date, LocalDate endDate) : boolean
definePO(dto : CreateResourceDTO,  account : Account) : boolean
}
class "AccountStore" as accstr{
findAccountByEmail(email : String) : Account
}
class "Account" as acc{
email : String

isAccountEqualTo(email : String) : boolean
}
class "Resource" as rsrc{
 startDate : LocalDate
 percentageOfAllocation : double
 costPerHour : double
endDate : LocalDate
+ Resource(startDate : LocalDate, percentageOfAllocation : double,
costPerHour : double, associatedAccount : Account, \nassociatedResourceRole : ResourceRole)
isResourceActivePOInDate(date : LocalDate) : boolean
chooseEndDateOfResource(endDate : LocalDate)
}
class "ResourceRole" as role{
role : String
description : String
}
class "CreateResourceDTO" as dto{
+CreateResourceDTO(projectCode : int, email : String,
startDate : LocalDate, percentageOfAllocation : double,
percentageOfAllocation : double, role : ResourceRole)
projectCode : int
email : String
startDate : LocalDate
percentageOfAllocation : double
costPerHour : double

getProjectCode() : int
getStartDate(): LocalDate
getPercentageOfAllocation() : double
getCostPerHour() : double
getRole() : ResourceRole

}

ui "1"-[dashed]->"1" ctrl
ui "1"-[dashed]->"1" role
ui "1"-[dashed]->"1" dto
ctrl "1"-[dashed]->"1" dto
ctrl "1"-[dashed]->"1" accstr
ctrl "1"-[dashed]->"1" acc
ctrl "1"-[dashed]->"1" pstr
proj "1"-[dashed]>"1" dto
acc "arrayListAccount 0..*" - -o "1" accstr
pstr "1"-[dashed]->"1" dto
ctrl "1"-[dashed]->"1" itc
itc "1"- ->"1 allProjectStore" pstr
itc "1"- ->"1 allAccountStore " accstr
proj "projects 0..*"- -o "1" pstr
proj "1" o- - "projectTeam 0..* " rsrc
rsrc "0..*"- ->"associatedResourceRole 1" role
dto "0..*"-[dashed]->"1" role

@enduml

@startuml
skinparam classAttributeIconSize 0

interface "DefinePOUI" as ui
class "DefinePOController" as ctrl {
definePO(dto : CreateResourceDTO) : boolean
}
class itc as "ITCompany" << (S,#FF7700) Singleton >>{
getITCompany() : ITCompany
getProjectStore() : ProjectStore
getAccountStore() : AccountStore
}
class "ProjectStore" as pstr{
allocationIsValid(email : String, allocation : double) : boolean
getAllocation(email : String) : double
definePO(dto : CreateResourceDTO, account : Account) :boolean

}
class "Project" as proj{
 code : int
 startDate : LocalDate


isUserActiveInProject(email : String) : boolean
hasActivePOInDate(date : LocalDate) : boolean
isUserActiveInProject(email : String) :boolean
isProjectClosed() : boolean
isDateNotBeforeTheProjectStartDate(date : LocalDate) : boolean
addResourceToProjectTeam(resource : Resource) : boolean
setPOEndDate(LocalDate date, LocalDate endDate) : boolean
definePO(dto : CreateResourceDTO,  account : Account) : boolean
}
class "AccountStore" as accstr{
findAccountByEmail(email : String) : Account
}
class "Account" as acc{
email : String

isAccountEqualTo(email : String) : boolean
}
class "Resource" as rsrc{
 startDate : LocalDate
 percentageOfAllocation : double
 costPerHour : double
endDate : LocalDate
+ Resource(startDate : LocalDate, percentageOfAllocation : double,
costPerHour : double, associatedAccount : Account, \nassociatedResourceRole : ResourceRole)
isResourceActivePOInDate(date : LocalDate) : boolean
chooseEndDateOfResource(endDate : LocalDate)
}
class "ResourceRole" as role{
role : String
description : String
}
class "CreateResourceDTO" as dto{
+CreateResourceDTO(projectCode : int, email : String,
startDate : LocalDate, percentageOfAllocation : double,
percentageOfAllocation : double, role : ResourceRole)
projectCode : int
email : String
startDate : LocalDate
percentageOfAllocation : double
costPerHour : double

getProjectCode() : int
getStartDate(): LocalDate
getPercentageOfAllocation() : double
getCostPerHour() : double
getRole() : ResourceRole

}

ui "1"-[dashed]->"1" ctrl
ui "1"-[dashed]->"1" role
ui "1"-[dashed]->"1" dto
ctrl "1"-[dashed]->"1" dto
ctrl "1"-[dashed]->"1" accstr
ctrl "1"-[dashed]->"1" acc
ctrl "1"-[dashed]->"1" pstr
proj "1"-[dashed]>"1" dto
acc "arrayListAccount 0..*" - -o "1" accstr
pstr "1"-[dashed]->"1" dto
ctrl "1"-[dashed]->"1" itc
itc "1"- ->"1 allProjectStore" pstr
itc "1"- ->"1 allAccountStore " accstr
proj "projects 0..*"- -o "1" pstr
proj "1" o- - "projectTeam 0..* " rsrc
rsrc "0..*"- ->"associatedResourceRole 1" role
dto "0..*"-[dashed]->"1" role

@enduml

PlantUML version 1.2022.0(Tue Jan 11 16:16:42 GMT 2022)
(GPL source distribution)
Java Runtime: OpenJDK Runtime Environment
JVM: OpenJDK 64-Bit Server VM
Default Encoding: Cp1252
Language: pt
Country: PT
--></g></svg>